<svg width="24" height="18" viewBox="0 0 24 18" fill="none" xmlns="http://www.w3.org/2000/svg">
<path d="M11.975 15.9668C11.3609 15.9655 10.7482 15.9083 10.1444 15.7959C9.75757 15.734 9.47279 15.4006 9.47223 15.0088C9.47626 14.7721 9.58351 14.549 9.76583 14.3979C9.94814 14.2469 10.1873 14.1831 10.4207 14.2232C10.9332 14.3197 11.4535 14.3689 11.975 14.3701C16.7044 14.3701 20.8118 10.2291 22.1035 8.78175C21.2428 7.81828 20.2969 6.9344 19.2774 6.14086C19.0518 5.96616 18.9365 5.68437 18.975 5.40164C19.0135 5.11891 19.1999 4.87819 19.464 4.77016C19.7281 4.66213 20.0298 4.70319 20.2554 4.87789C21.5551 5.87932 22.7378 7.02419 23.7808 8.29078C24.0072 8.57986 24.0072 8.98605 23.7808 9.27513C23.5661 9.54736 18.4607 15.9668 11.975 15.9668Z" fill="black"/>
<path fill-rule="evenodd" clip-rule="evenodd" d="M20.5228 0.233986C20.2111 -0.0776699 19.7057 -0.0776699 19.394 0.233986L16.8552 2.7727C15.8941 2.30952 14.8771 1.9725 13.8295 1.76999C13.2181 1.65501 12.5972 1.59701 11.975 1.59675C5.48932 1.59675 0.383961 8.01617 0.170007 8.2892C-0.0563433 8.57828 -0.0563433 8.98447 0.170007 9.27355C1.21204 10.5391 2.39361 11.6829 3.69227 12.6833C4.30659 13.1647 4.95023 13.6076 5.61945 14.0093L3.42722 16.2007C3.21969 16.4012 3.13646 16.698 3.20952 16.9771C3.28258 17.2562 3.50056 17.4742 3.77968 17.5473C4.0588 17.6203 4.35563 17.5371 4.55607 17.3296L20.5228 1.36283C20.8345 1.05108 20.8345 0.545737 20.5228 0.233986ZM4.67263 11.4235C3.65308 10.6297 2.70721 9.74553 1.84651 8.78178C3.13822 7.33519 7.24567 3.19342 11.975 3.19342C12.5003 3.19384 13.0244 3.24301 13.5406 3.34031C14.2632 3.47781 14.9692 3.69191 15.6466 3.97898L14.176 5.44952C12.5937 4.40396 10.494 4.61622 9.15295 5.95732C7.81185 7.29842 7.59959 9.39802 8.64515 10.9804L6.78582 12.8429C6.04645 12.424 5.34001 11.9495 4.67263 11.4235ZM9.58 8.78178C9.58208 9.13709 9.66392 9.4874 9.8195 9.80684L12.9905 6.63585C12.0776 6.21931 11.0033 6.39943 10.2762 7.0909C9.83034 7.54076 9.58016 8.14844 9.58 8.78178Z" fill="black"/>
</svg>
