<?xml version="1.0" encoding="utf-8"?>
<!-- Generator: Adobe Illustrator 19.0.0, SVG Export Plug-In . SVG Version: 6.00 Build 0)  -->
<svg version="1.1" id="Layer_1" xmlns="http://www.w3.org/2000/svg" xmlns:xlink="http://www.w3.org/1999/xlink" x="0px" y="0px"
	 viewBox="13095.1 -4193 6375.8 8545" style="enable-background:new 13095.1 -4193 6375.8 8545;" xml:space="preserve">
<g>
	<g>
		
			<linearGradient id="SVGID_1_" gradientUnits="userSpaceOnUse" x1="16068.8105" y1="-8071.8428" x2="16114.7119" y2="-8071.8428" gradientTransform="matrix(42.5197 0 0 -42.5197 -667932.3125 -344572.7812)">
			<stop  offset="5.241550e-03" style="stop-color:#FEC846"/>
			<stop  offset="1" style="stop-color:#F3B610"/>
		</linearGradient>
		<rect x="15308.7" y="-1494.4" style="fill:url(#SVGID_1_);" width="1951.7" height="267.9"/>
	</g>
	<g>
		<g>
			
				<linearGradient id="SVGID_2_" gradientUnits="userSpaceOnUse" x1="16030.7441" y1="-8133.0439" x2="16030.7441" y2="-8086.2939" gradientTransform="matrix(42.5197 0 0 -42.5197 -667932.3125 -344572.7812)">
				<stop  offset="0" style="stop-color:#F58320"/>
				<stop  offset="1" style="stop-color:#F29527"/>
			</linearGradient>
			<path style="fill:url(#SVGID_2_);" d="M13556.9,771.9c0,0,97.8-97.8,221.1,80.8c59.5,89.3,170.1,344.4,263.6,382.7
				c29.8,12.8,136.1,25.5,178.6-165.8c59.5-289.1,8.5-459.2-178.6-765.4C13714.2-223,13391-448.4,13420.8-746l-272.1,616.5
				c0,0-76.5,178.6,153.1,540C13429.3,606.1,13556.9,771.9,13556.9,771.9z"/>
		</g>
		<g>
			
				<linearGradient id="SVGID_3_" gradientUnits="userSpaceOnUse" x1="16030.4551" y1="-8093.9009" x2="16030.4551" y2="-8068.5527" gradientTransform="matrix(42.5197 0 0 -42.5197 -667932.3125 -344572.7812)">
				<stop  offset="0" style="stop-color:#F58320"/>
				<stop  offset="1" style="stop-color:#F29527"/>
			</linearGradient>
			<path style="fill:url(#SVGID_3_);" d="M13497.4-916.2c0,0,127.6-174.3,255.1,46.8c68,114.8,51,310.4,233.9,429.4
				c80.8,51,174.3-38.3,182.8-80.8c17-89.3,29.8-297.6-102-497.5c-85-127.6-204.1-195.6-199.8-212.6c0,0-284.9-204.1-374.2-242.4
				c-89.3-38.3-255.1-51-301.9,38.3c-29.8,63.8-29.8,195.6,127.6,344.4C13442.1-971.4,13497.4-916.2,13497.4-916.2z"/>
		</g>
		<g>
			
				<linearGradient id="SVGID_4_" gradientUnits="userSpaceOnUse" x1="16050.0605" y1="-8074.5356" x2="16050.0605" y2="-8052.854" gradientTransform="matrix(42.5197 0 0 -42.5197 -667932.3125 -344572.7812)">
				<stop  offset="0" style="stop-color:#F58320"/>
				<stop  offset="1" style="stop-color:#F29527"/>
			</linearGradient>
			<path style="fill:url(#SVGID_4_);" d="M14488.1-1426.4c178.6,157.3,369.9,182.8,369.9,182.8l-17-17c25.5,34,467.7,0,467.7,0
				s-327.4-51-637.8-561.3c-204.1-331.7-348.7-352.9-386.9-344.4l-569.8,153.1c0,0,114.8-4.3,331.7,174.3
				C14343.5-1592.2,14326.5-1571,14488.1-1426.4z"/>
		</g>
		<g>
			
				<linearGradient id="SVGID_5_" gradientUnits="userSpaceOnUse" x1="16033.5039" y1="-8101.3384" x2="16033.5039" y2="-8083.4497" gradientTransform="matrix(42.5197 0 0 -42.5197 -667932.3125 -344572.7812)">
				<stop  offset="0" style="stop-color:#F58320"/>
				<stop  offset="1" style="stop-color:#F29527"/>
			</linearGradient>
			<path style="fill:url(#SVGID_5_);" d="M13935.3-333.6c-242.4-178.6-238.1-352.9-263.6-425.2c-29.8-85-106.3-153.1-131.8-72.3
				c-55.3,195.6,374.2,727.1,374.2,727.1l165.8-195.6C14016.1-282.6,13965.1-308.1,13935.3-333.6z"/>
		</g>
		<g>
			
				<linearGradient id="SVGID_6_" gradientUnits="userSpaceOnUse" x1="16033.8213" y1="-8139.3179" x2="16033.8213" y2="-8124.4263" gradientTransform="matrix(42.5197 0 0 -42.5197 -667932.3125 -344572.7812)">
				<stop  offset="0" style="stop-color:#F58320"/>
				<stop  offset="1" style="stop-color:#F29527"/>
			</linearGradient>
			<path style="fill:url(#SVGID_6_);" d="M13765.3,1090.8c-127.6-225.4-170.1-229.6-225.4-204.1c-21.3,12.8,59.5,212.6,170.1,357.2
				c110.6,148.8,289.1,255.1,289.1,263.6c0,25.5,106.3-131.8,106.3-131.8C13990.6,1392.7,13884.3,1307.6,13765.3,1090.8z"/>
		</g>
		<g>
			
				<linearGradient id="SVGID_7_" gradientUnits="userSpaceOnUse" x1="16029.0801" y1="-8162.8774" x2="16029.0801" y2="-8124.458" gradientTransform="matrix(42.5197 0 0 -42.5197 -667932.3125 -344572.7812)">
				<stop  offset="0" style="stop-color:#F58320"/>
				<stop  offset="1" style="stop-color:#F29527"/>
			</linearGradient>
			<path style="fill:url(#SVGID_7_);" d="M13497.4,2136.8c-59.5,199.8-229.6,276.4-212.6,306.1c21.3,42.5,131.8,123.3,255.1-4.3
				c123.3-131.8,170.1-195.6,238.1-255.1c114.8-93.5,238.1-80.8,272.1,0c0,0,8.5-165.8-12.8-289.1
				c-38.3-233.9-148.8-297.6-301.9-450.7c-331.7-335.9-289.1-501.7-276.4-569.8l-259.3,459.2c0,0-72.3,229.6,127.6,399.7
				C13527.1,1902.9,13531.4,2017.7,13497.4,2136.8z"/>
		</g>
		<g>
			
				<linearGradient id="SVGID_8_" gradientUnits="userSpaceOnUse" x1="16029.9238" y1="-8171.6421" x2="16029.9238" y2="-8156.4932" gradientTransform="matrix(42.5197 0 0 -42.5197 -667932.3125 -344572.7812)">
				<stop  offset="0" style="stop-color:#F58320"/>
				<stop  offset="1" style="stop-color:#F29527"/>
			</linearGradient>
			<path style="fill:url(#SVGID_8_);" d="M13799.3,2285.6c-93.5,89.3-178.6,242.4-306.1,297.6c-119.1,51-182.8-21.3-182.8-21.3
				l174.3,323.1c0,0,289.1-157.3,416.7-348.7c114.8-178.6,97.8-250.9,97.8-250.9C13960.8,2251.6,13884.3,2204.8,13799.3,2285.6z"/>
		</g>
		<g>
			
				<linearGradient id="SVGID_9_" gradientUnits="userSpaceOnUse" x1="16031.21" y1="-8201.6426" x2="16031.21" y2="-8158.8408" gradientTransform="matrix(42.5197 0 0 -42.5197 -667932.3125 -344572.7812)">
				<stop  offset="0" style="stop-color:#F58320"/>
				<stop  offset="1" style="stop-color:#F29527"/>
			</linearGradient>
			<path style="fill:url(#SVGID_9_);" d="M13854.5,3446.4c229.6-182.8,361.4-433.7,361.4-433.7l-144.6-671.8
				c0,0-21.3,93.5-59.5,182.8c-76.5,178.6-297.6,344.4-544.3,497.5c-250.9,153.1-263.6,374.2-263.6,374.2l17,765.4
				C13280.5,3918.3,13624.9,3629.2,13854.5,3446.4z"/>
		</g>
		<g>
			
				<linearGradient id="SVGID_10_" gradientUnits="userSpaceOnUse" x1="16036.8086" y1="-8071.6558" x2="16036.8086" y2="-8058.187" gradientTransform="matrix(42.5197 0 0 -42.5197 -667932.3125 -344572.7812)">
				<stop  offset="0" style="stop-color:#F58320"/>
				<stop  offset="1" style="stop-color:#F29527"/>
			</linearGradient>
			<path style="fill:url(#SVGID_10_);" d="M13960.8-1566.7c153.1,89.3,131.8,195.6,131.8,195.6l182.8-119.1
				c-297.6-340.2-510.2-433.7-574-442.2c-34-4.3-80.8-38.3-80.8,63.8C13616.4-1745.3,13807.8-1656,13960.8-1566.7z"/>
		</g>
		<g>
			
				<linearGradient id="SVGID_11_" gradientUnits="userSpaceOnUse" x1="16030.998" y1="-8072.5923" x2="16030.998" y2="-8065.063" gradientTransform="matrix(42.5197 0 0 -42.5197 -667932.3125 -344572.7812)">
				<stop  offset="0" style="stop-color:#F58320"/>
				<stop  offset="1" style="stop-color:#F29527"/>
			</linearGradient>
			<path style="fill:url(#SVGID_11_);" d="M13854.5-1498.7c-63.8-34-255.1-148.8-255.1-148.8s-195.6,80.8-174.3,80.8
				c225.4-12.8,386.9,238.1,531.5,238.1C14016.1-1328.6,13943.8-1451.9,13854.5-1498.7z"/>
		</g>
		<g>
			
				<linearGradient id="SVGID_12_" gradientUnits="userSpaceOnUse" x1="16031.168" y1="-8203.6289" x2="16031.168" y2="-8195.7783" gradientTransform="matrix(42.5197 0 0 -42.5197 -667932.3125 -344572.7812)">
				<stop  offset="0" style="stop-color:#F58320"/>
				<stop  offset="1" style="stop-color:#F29527"/>
			</linearGradient>
			<path style="fill:url(#SVGID_12_);" d="M13816.3,3977.9c-55.3-29.8-85-68-85-68l-344.4,178.6c102-21.3,199.8-8.5,267.9,29.8
				c110.6,59.5,131.8,110.6,221.1,123.3c106.3,17,144.6-38.3,153.1-80.8C14037.4,4075.7,13905.6,4024.6,13816.3,3977.9z"/>
		</g>
		<g>
			
				<linearGradient id="SVGID_13_" gradientUnits="userSpaceOnUse" x1="16039.9229" y1="-8203.9766" x2="16039.9229" y2="-8189.8481" gradientTransform="matrix(42.5197 0 0 -42.5197 -667932.3125 -344572.7812)">
				<stop  offset="0" style="stop-color:#F58320"/>
				<stop  offset="1" style="stop-color:#F29527"/>
			</linearGradient>
			<path style="fill:url(#SVGID_13_);" d="M13812,3659c0,0-89.3,97.8,8.5,170.1s255.1,127.6,301.9,191.3
				c63.8,80.8,21.3,153.1-63.8,242.4l327.4-225.4C14390.3,4033.1,14216,3646.2,13812,3659z"/>
		</g>
		<g>
			
				<linearGradient id="SVGID_14_" gradientUnits="userSpaceOnUse" x1="16048.5898" y1="-8204.9922" x2="16048.5898" y2="-8182.7544" gradientTransform="matrix(42.5197 0 0 -42.5197 -667932.3125 -344572.7812)">
				<stop  offset="0" style="stop-color:#F58320"/>
				<stop  offset="1" style="stop-color:#F29527"/>
			</linearGradient>
			<path style="fill:url(#SVGID_14_);" d="M14811.2,3948.1c-199.8-110.6-221.1-165.8-238.1-233.9c-34-140.3,161.6-199.8,161.6-199.8
				c-344.4-216.9-403.9-148.8-403.9-148.8l-442.2,199.8c8.5,0,34,4.3,127.6,25.5c153.1,29.8,378.4,153.1,472,399.7
				c93.5,246.6,429.4,310.4,429.4,310.4s93.5-72.3,89.3-119.1C15006.8,4152.2,15045.1,4075.7,14811.2,3948.1z"/>
		</g>
		<g>
			
				<linearGradient id="SVGID_15_" gradientUnits="userSpaceOnUse" x1="16035.3896" y1="-8187.6919" x2="16035.3896" y2="-8187.6919" gradientTransform="matrix(42.5197 0 0 -42.5197 -667932.3125 -344572.7812)">
				<stop  offset="0" style="stop-color:#F58320"/>
				<stop  offset="1" style="stop-color:#F29527"/>
			</linearGradient>
			<path style="fill:url(#SVGID_15_);" d="M13888.6,3565.4L13888.6,3565.4C13884.3,3565.4,13888.6,3565.4,13888.6,3565.4z"/>
		</g>
		<g>
			
				<linearGradient id="SVGID_16_" gradientUnits="userSpaceOnUse" x1="16061.8984" y1="-8202.6592" x2="16061.8984" y2="-8188.7568" gradientTransform="matrix(42.5197 0 0 -42.5197 -667932.3125 -344572.7812)">
				<stop  offset="0" style="stop-color:#F58320"/>
				<stop  offset="1" style="stop-color:#F29527"/>
			</linearGradient>
			<path style="fill:url(#SVGID_16_);" d="M14764.5,3612.2c-21.3,0-59.5,17-51,76.5c21.3,114.8,187.1,174.3,301.9,233.9
				s131.8,148.8,106.3,216.9c-17,55.3-29.8,63.8-29.8,63.8l225.4-187.1C15317.2,4016.1,14989.8,3637.7,14764.5,3612.2z"/>
		</g>
		<g>
			
				<linearGradient id="SVGID_17_" gradientUnits="userSpaceOnUse" x1="16153.4746" y1="-8132.9604" x2="16153.4746" y2="-8086.3003" gradientTransform="matrix(42.5197 0 0 -42.5197 -667932.3125 -344572.7812)">
				<stop  offset="0" style="stop-color:#F58320"/>
				<stop  offset="1" style="stop-color:#F29527"/>
			</linearGradient>
			<path style="fill:url(#SVGID_17_);" d="M18642.3,278.7c-187.1,306.1-297.6,463.5-238.1,752.6c42.5,191.3,114.8,221.1,144.6,208.3
				c93.5-38.3,199.8-293.4,263.6-382.7c119.1-174.3,221.1-80.8,221.1-80.8s-93.5-72.3,170.1-395.4
				c323.2-391.2,204.1-599.5,204.1-599.5l-238.1-523C19195-448.4,18961.2-248.6,18642.3,278.7z"/>
		</g>
		<g>
			
				<linearGradient id="SVGID_18_" gradientUnits="userSpaceOnUse" x1="16153.3291" y1="-8093.9009" x2="16153.3291" y2="-8068.5664" gradientTransform="matrix(42.5197 0 0 -42.5197 -667932.3125 -344572.7812)">
				<stop  offset="0" style="stop-color:#F58320"/>
				<stop  offset="1" style="stop-color:#F29527"/>
			</linearGradient>
			<path style="fill:url(#SVGID_18_);" d="M18714.5-1226.5c4.3,12.8-114.8,85-199.8,212.6c-127.6,199.8-119.1,412.4-102,497.5
				c8.5,38.3,102,131.8,182.8,80.8c182.8-119.1,165.8-314.6,233.9-429.4c127.6-221.1,255.1-46.8,255.1-46.8s55.3-59.5,174.3-174.3
				c157.3-148.8,157.3-280.6,127.6-344.4c-42.5-89.3-212.6-76.5-301.9-38.3C18999.4-1434.9,18714.5-1226.5,18714.5-1226.5z"/>
		</g>
		<g>
			
				<linearGradient id="SVGID_19_" gradientUnits="userSpaceOnUse" x1="16133.9639" y1="-8074.5356" x2="16133.9639" y2="-8052.8618" gradientTransform="matrix(42.5197 0 0 -42.5197 -667932.3125 -344572.7812)">
				<stop  offset="0" style="stop-color:#F58320"/>
				<stop  offset="1" style="stop-color:#F29527"/>
			</linearGradient>
			<path style="fill:url(#SVGID_19_);" d="M17757.9-1264.8h55.3c0,0,76.5,8.5,289.1-161.6c199.8-157.3,140.3-165.8,438-412.4
				c216.9-178.6,331.7-174.3,331.7-174.3l-569.8-153.1c-34-4.3-195.6,63.8-386.9,344.4c-284.9,425.2-629.3,574-629.3,574
				S17766.4-1269.1,17757.9-1264.8z"/>
		</g>
		<g>
			
				<linearGradient id="SVGID_20_" gradientUnits="userSpaceOnUse" x1="16150.6436" y1="-8103.0483" x2="16150.6436" y2="-8083.5142" gradientTransform="matrix(42.5197 0 0 -42.5197 -667932.3125 -344572.7812)">
				<stop  offset="0" style="stop-color:#F58320"/>
				<stop  offset="1" style="stop-color:#F29527"/>
			</linearGradient>
			<path style="fill:url(#SVGID_20_);" d="M19046.2-831.1c-38.3-72.3-102-8.5-131.8,72.3c-25.5,72.3-25.5,246.6-263.6,425.2
				c-29.8,21.3-80.8,51-144.6,29.8l216.9,267.9C18723.1-31.7,19178-584.5,19046.2-831.1z"/>
		</g>
		<g>
			
				<linearGradient id="SVGID_21_" gradientUnits="userSpaceOnUse" x1="16150.1982" y1="-8140.2261" x2="16150.1982" y2="-8124.4263" gradientTransform="matrix(42.5197 0 0 -42.5197 -667932.3125 -344572.7812)">
				<stop  offset="0" style="stop-color:#F58320"/>
				<stop  offset="1" style="stop-color:#F29527"/>
			</linearGradient>
			<path style="fill:url(#SVGID_21_);" d="M18820.8,1090.8c-119.1,216.9-225.4,301.9-340.2,284.9c0,0,136.1,170.1,161.6,174.3
				c46.8,8.5,165.8-140.3,289.1-280.6c153.1-178.6,131.8-369.9,114.8-378.4C18990.9,861.2,18948.4,861.2,18820.8,1090.8z"/>
		</g>
		<g>
			
				<linearGradient id="SVGID_22_" gradientUnits="userSpaceOnUse" x1="16155.1006" y1="-8162.6343" x2="16155.1006" y2="-8125.3989" gradientTransform="matrix(42.5197 0 0 -42.5197 -667932.3125 -344572.7812)">
				<stop  offset="0" style="stop-color:#F58320"/>
				<stop  offset="1" style="stop-color:#F29527"/>
			</linearGradient>
			<path style="fill:url(#SVGID_22_);" d="M19165.3,916.4c12.8,68,110.6,174.3-297.6,578.3c-157.3,153.1-246.6,301.9-280.6,476.2
				c-21.3,123.3,0,204.1,0,204.1c34-80.8,110.6-80.8,225.4,12.8c68,59.5,114.8,123.3,238.1,255.1c123.3,131.8,195.6,17,216.9-25.5
				c17-29.8-174.3,42.5-250.9-233.9c-25.5-97.8,4.3-216.9,199.8-399.7c225.4-212.6,148.8-493.2,148.8-493.2L19165.3,916.4z"/>
		</g>
		<g>
			
				<linearGradient id="SVGID_23_" gradientUnits="userSpaceOnUse" x1="16154.1006" y1="-8171.6421" x2="16154.1006" y2="-8156.5054" gradientTransform="matrix(42.5197 0 0 -42.5197 -667932.3125 -344572.7812)">
				<stop  offset="0" style="stop-color:#F58320"/>
				<stop  offset="1" style="stop-color:#F29527"/>
			</linearGradient>
			<path style="fill:url(#SVGID_23_);" d="M19105.7,2885.1L19280,2562c0,0-63.8,72.3-182.8,21.3
				c-127.6-55.3-216.9-208.3-306.1-297.6c-85-85-161.6-38.3-199.8-4.3c0,0-17,72.3,97.8,250.9
				C18812.3,2723.5,19105.7,2885.1,19105.7,2885.1z"/>
		</g>
		<g>
			
				<linearGradient id="SVGID_24_" gradientUnits="userSpaceOnUse" x1="16153.1338" y1="-8198.3008" x2="16153.1338" y2="-8158.8999" gradientTransform="matrix(42.5197 0 0 -42.5197 -667932.3125 -344572.7812)">
				<stop  offset="0" style="stop-color:#F58320"/>
				<stop  offset="1" style="stop-color:#F29527"/>
			</linearGradient>
			<path style="fill:url(#SVGID_24_);" d="M19118.5,3016.9c-255.1-127.6-463.5-318.9-544.3-497.5c-38.3-89.3-59.5-182.8-59.5-182.8
				l-127.6,578.3c-17,140.3,55.3,318.9,348.7,472c276.4,144.6,552.8,386.9,612.3,625l55.3-659.1
				C19403.4,3357.1,19326.8,3123.2,19118.5,3016.9z"/>
		</g>
		<g>
			
				<linearGradient id="SVGID_25_" gradientUnits="userSpaceOnUse" x1="16147.2617" y1="-8071.6558" x2="16147.2617" y2="-8058.187" gradientTransform="matrix(42.5197 0 0 -42.5197 -667932.3125 -344572.7812)">
				<stop  offset="0" style="stop-color:#F58320"/>
				<stop  offset="1" style="stop-color:#F29527"/>
			</linearGradient>
			<path style="fill:url(#SVGID_25_);" d="M18314.9-1490.2l182.8,119.1c0,0-21.3-106.3,131.8-195.6s344.4-178.6,344.4-301.9
				c0-102-51-68-80.8-63.8C18825.1-1919.6,18612.5-1830.3,18314.9-1490.2z"/>
		</g>
		<g>
			
				<linearGradient id="SVGID_26_" gradientUnits="userSpaceOnUse" x1="16152.9258" y1="-8072.5923" x2="16152.9258" y2="-8065.063" gradientTransform="matrix(42.5197 0 0 -42.5197 -667932.3125 -344572.7812)">
				<stop  offset="0" style="stop-color:#F58320"/>
				<stop  offset="1" style="stop-color:#F29527"/>
			</linearGradient>
			<path style="fill:url(#SVGID_26_);" d="M18629.5-1328.6c144.6,0,306.1-250.9,531.5-238.1c17,0-174.3-80.8-174.3-80.8
				s-114.8,63.8-255.1,148.8C18646.5-1447.6,18570-1328.6,18629.5-1328.6z"/>
		</g>
		<g>
			
				<linearGradient id="SVGID_27_" gradientUnits="userSpaceOnUse" x1="16152.8525" y1="-8203.6289" x2="16152.8525" y2="-8195.7783" gradientTransform="matrix(42.5197 0 0 -42.5197 -667932.3125 -344572.7812)">
				<stop  offset="0" style="stop-color:#F58320"/>
				<stop  offset="1" style="stop-color:#F29527"/>
			</linearGradient>
			<path style="fill:url(#SVGID_27_);" d="M18774.1,3977.9c-93.5,46.8-225.4,97.8-212.6,182.8c4.3,42.5,46.8,97.8,153.1,80.8
				c89.3-17,110.6-63.8,221.1-123.3c68-38.3,170.1-51,267.9-29.8l-344.4-178.6C18854.9,3909.8,18825.1,3948.1,18774.1,3977.9z"/>
		</g>
		<g>
			
				<linearGradient id="SVGID_28_" gradientUnits="userSpaceOnUse" x1="16143.9502" y1="-8203.9766" x2="16143.9502" y2="-8189.8481" gradientTransform="matrix(42.5197 0 0 -42.5197 -667932.3125 -344572.7812)">
				<stop  offset="0" style="stop-color:#F58320"/>
				<stop  offset="1" style="stop-color:#F29527"/>
			</linearGradient>
			<path style="fill:url(#SVGID_28_);" d="M18463.7,4016.1c46.8-59.5,204.1-114.8,301.9-191.3c97.8-72.3,8.5-170.1,8.5-170.1
				c-403.9-12.8-578.3,374.2-578.3,374.2l327.4,225.4C18442.4,4169.2,18399.9,4096.9,18463.7,4016.1z"/>
		</g>
		<g>
			
				<linearGradient id="SVGID_29_" gradientUnits="userSpaceOnUse" x1="16148.5332" y1="-8187.6919" x2="16148.5342" y2="-8187.6919" gradientTransform="matrix(42.5197 0 0 -42.5197 -667932.3125 -344572.7812)">
				<stop  offset="0" style="stop-color:#F58320"/>
				<stop  offset="1" style="stop-color:#F29527"/>
			</linearGradient>
			<path style="fill:url(#SVGID_29_);" d="M18697.5,3565.4L18697.5,3565.4C18697.5,3565.4,18701.8,3565.4,18697.5,3565.4z"/>
		</g>
		<g>
			
				<linearGradient id="SVGID_30_" gradientUnits="userSpaceOnUse" x1="16135.2812" y1="-8204.9795" x2="16135.2812" y2="-8182.7397" gradientTransform="matrix(42.5197 0 0 -42.5197 -667932.3125 -344572.7812)">
				<stop  offset="0" style="stop-color:#F58320"/>
				<stop  offset="1" style="stop-color:#F29527"/>
			</linearGradient>
			<path style="fill:url(#SVGID_30_);" d="M18570,3586.7c93.5-17,119.1-25.5,127.6-25.5l-442.2-199.8c0,0-59.5-68-403.9,148.8
				c0,0,195.6,55.3,161.6,199.8c-17,68-38.3,127.6-238.1,233.9c-199.8,102-216.9,144.6-195.6,233.9c17,76.5,89.3,119.1,89.3,119.1
				s340.2-59.5,429.4-310.4C18191.6,3739.8,18421.2,3620.7,18570,3586.7z"/>
		</g>
		<g>
			
				<linearGradient id="SVGID_31_" gradientUnits="userSpaceOnUse" x1="16122.0908" y1="-8202.6592" x2="16122.0908" y2="-8188.7593" gradientTransform="matrix(42.5197 0 0 -42.5197 -667932.3125 -344572.7812)">
				<stop  offset="0" style="stop-color:#F58320"/>
				<stop  offset="1" style="stop-color:#F29527"/>
			</linearGradient>
			<path style="fill:url(#SVGID_31_);" d="M17570.8,3922.6c114.8-59.5,276.4-119.1,301.9-233.9c12.8-55.3-29.8-76.5-51-76.5
				c-225.4,25.5-548.5,399.7-548.5,399.7l221.1,191.3c0,0-12.8-8.5-29.8-63.8C17439,4071.4,17456,3982.1,17570.8,3922.6z"/>
		</g>
		<g>
			
				<linearGradient id="SVGID_32_" gradientUnits="userSpaceOnUse" x1="16092.0146" y1="-8206.1914" x2="16092.0146" y2="-8182.4268" gradientTransform="matrix(42.5197 0 0 -42.5197 -667932.3125 -344572.7812)">
				<stop  offset="0" style="stop-color:#F58320"/>
				<stop  offset="1" style="stop-color:#F29527"/>
			</linearGradient>
			<path style="fill:url(#SVGID_32_);" d="M17366.7,3778c233.9-221.1,455-263.6,455-263.6s-455-144.6-557-165.8
				c-102-21.3-225.4,12.8-442.2,221.1c-297.6,280.6-527.2,238.1-527.2,238.1s-250.9,38.3-527.2-238.1
				c-212.6-212.6-344.4-242.4-442.2-221.1c-102,21.3-557,165.8-557,165.8s221.1,42.5,455,263.6c242.4,225.4,497.5,574,1071.5,574
				C16928.7,4352,17124.3,4003.4,17366.7,3778z"/>
		</g>
	</g>
	<g>
		<g>
			
				<linearGradient id="SVGID_33_" gradientUnits="userSpaceOnUse" x1="16090.5605" y1="-8073.6929" x2="16090.5605" y2="-8190.1919" gradientTransform="matrix(42.5197 0 0 -42.5197 -667932.3125 -344572.7812)">
				<stop  offset="1.078205e-02" style="stop-color:#DC4528"/>
				<stop  offset="1" style="stop-color:#D63229"/>
			</linearGradient>
			<path style="fill:url(#SVGID_33_);" d="M16239.9,3671.7l-63.8-259.4c0-8.5-55.3-216.9-246.6-216.9h-1160.8
				c-297.6,0-514.5-208.3-514.5-493.2v-3984h3958.6v4005.4c0,272.1-229.6,472-544.3,472h-1135.2c-195.6,0-238.1,204.1-242.4,212.6
				L16239.9,3671.7z"/>
		</g>
	</g>
	<g>
		<path style="fill:#FFFFFF;" d="M16095.3,197.9l-17,8.5l4.3-12.8c-17-12.8-85-25.5-114.8-34c-42.5-8.5-46.8-8.5-46.8-21.3v-8.5h8.5
			c46.8-4.3,76.5-12.8,89.3-17c-63.8-8.5-157.3-42.5-161.6-63.8v-8.5l8.5-4.3c8.5-4.3,12.8-4.3,17-4.3c-38.3-4.3-68-34-93.5-59.5
			c-38.3-42.5-76.5-55.3-157.3-34l-12.8-21.3l-4.3-8.5c-4.3-12.8-4.3-12.8,38.3-25.5c17-4.3,38.3-17,59.5-21.3
			c-34-8.5-51-25.5-68-29.8c-29.8-12.8-46.8-12.8-161.6,25.5l-25.5-12.8c85-63.8,119.1-136.1,119.1-161.6
			c-8.5,8.5-25.5,17-46.8,29.8c-17,8.5-110.6,12.8-131.8,0c-17-8.5-21.3-38.3-21.3-59.5c-25.5,4.3-68,42.5-93.5,72.3l-8.5,8.5
			l-63.8-72.3l-51,55.3h-59.5l46.8,80.8l-29.8-8.5c-25.5-8.5-76.5-17-93.5-8.5l-4.3,4.3c76.5,42.5,72.3,51,72.3,59.5
			c0,4.3-4.3,8.5-17,8.5c-29.8,0-42.5,12.8-59.5,25.5c-12.8,12.8-29.8,25.5-55.3,29.8l0,0c17,21.3,63.8,42.5,110.6,42.5
			c51,4.3,68,0,72.3,0l12.8-4.3l8.5,17l0,0l4.3-8.5c-4.3,4.3-12.8,12.8-97.8,21.3c-59.5,4.3-114.8-29.8-131.8-55.3
			c-8.5-12.8-8.5-21.3-4.3-25.5l4.3-8.5h8.5c25.5,0,42.5-12.8,55.3-25.5c12.8-12.8,29.8-25.5,55.3-29.8c-12.8-8.5-34-21.3-55.3-29.8
			l-8.5-4.3v-8.5c0-12.8,8.5-21.3,17-29.8c21.3-12.8,59.5-8.5,85-4.3l-38.3-63.8l89.3-4.3l59.5-68l63.8,68
			c21.3-25.5,76.5-80.8,114.8-68l8.5,4.3v8.5c0,21.3,4.3,42.5,8.5,46.8c12.8,4.3,97.8,4.3,110.6,0c29.8-12.8,51-29.8,55.3-34
			l4.3-25.5l17,21.3c0,4.3,29.8,51-42.5,127.6c55.3-21.3,80.8-8.5,110.6,12.8c21.3,12.8,42.5,29.8,93.5,29.8h8.5l4.3,12.8
			c0,8.5,0,12.8-63.8,38.3c46.8,8.5,80.8,42.5,110.6,72.3c29.8,29.8,51,55.3,89.3,55.3c17,0,38.3,12.8,38.3,12.8s-17,21.3-38.3,34
			c34,17,102,42.5,157.3,42.5h8.5v8.5c0,0,0,8.5-4.3,12.8c-8.5,12.8-29.8,21.3-68,29.8c68,17,102,25.5,110.6,42.5
			c4.3,4.3-4.3,4.3-4.3,8.5L16095.3,197.9z"/>
	</g>
	<g>
		<path style="fill:none;stroke:#070404;stroke-width:0.2;stroke-miterlimit:10;" d="M15461.8,1001.5"/>
	</g>
	<g>
		<path style="fill:none;stroke:#070404;stroke-width:0.2;stroke-miterlimit:10;" d="M17175.3,104.3"/>
	</g>
	<g>
		<path style="fill:none;stroke:#070404;stroke-width:0.2;stroke-miterlimit:10;" d="M15810.5-189.1"/>
	</g>
	<g>
		<path style="fill:none;stroke:#070404;stroke-width:0.2;stroke-miterlimit:10;" d="M16210.1,652.8"/>
	</g>
	<g>
		<path style="fill:none;stroke:#070404;stroke-width:0.2;stroke-miterlimit:10;" d="M16962.7,822.9"/>
	</g>
	<g>
		<path style="fill:none;stroke:#070404;stroke-width:0.2;stroke-miterlimit:10;" d="M16537.5,703.8"/>
	</g>
	<g>
		<path style="fill:none;stroke:#070404;stroke-width:0.2;stroke-miterlimit:10;" d="M16218.6,299.9"/>
	</g>
	<g>
		<polygon style="fill:#721521;" points="16082.6,495.5 16065.6,478.5 16210.1,333.9 16227.1,350.9 		"/>
	</g>
	<g>
		
			<linearGradient id="SVGID_34_" gradientUnits="userSpaceOnUse" x1="16083.5615" y1="-8134.9912" x2="16083.5615" y2="-8149.6475" gradientTransform="matrix(42.5197 0 0 -42.5197 -667932.3125 -344572.7812)">
			<stop  offset="5.241550e-03" style="stop-color:#FEC846"/>
			<stop  offset="1" style="stop-color:#EEB310"/>
		</linearGradient>
		<polygon style="fill:url(#SVGID_34_);" points="15921,1792.4 15887,1324.6 15929.5,1324.6 15950.8,1788.1 15984.8,1813.6 
			15942.3,1949.7 15895.5,1813.6 		"/>
	</g>
	<g>
		
			<linearGradient id="SVGID_35_" gradientUnits="userSpaceOnUse" x1="16090.4131" y1="-8006.1924" x2="16090.4131" y2="-8018.7871" gradientTransform="matrix(42.5197 0 0 -42.5197 -667932.3125 -344572.7812)">
			<stop  offset="5.241550e-03" style="stop-color:#FEC846"/>
			<stop  offset="1" style="stop-color:#F3B610"/>
		</linearGradient>
		<path style="fill:url(#SVGID_35_);" d="M16184.6-3837.3c-12.8-12.8-21.3-29.8-21.3-46.8s8.5-34,17-46.8l0,0
			c12.8-12.8,29.8-21.3,46.8-21.3s34,8.5,46.8,17l0,0l0,0l0,0l0,0l0,0l0,0l0,0l0,0c12.8,12.8,17,29.8,17,46.8s-8.5,38.3-21.3,46.8
			l0,0c-12.8,12.8-25.5,17-42.5,17C16210.1-3820.2,16193.1-3828.8,16184.6-3837.3L16184.6-3837.3L16184.6-3837.3z M16176.1-3939.3
			l-208.3-34v174.3l216.9-38.3h-8.5l-34,216.9h170.1l-34-216.9l208.3,34v-170l-208.3,34l34-212.6h-170.1L16176.1-3939.3
			L16176.1-3939.3z M16184.6-3935L16184.6-3935L16184.6-3935L16184.6-3935L16184.6-3935z M16180.4-3930.8L16180.4-3930.8
			L16180.4-3930.8L16180.4-3930.8z"/>
	</g>
	<g>
		<path style="fill:none;stroke:#070404;stroke-width:0.2;stroke-miterlimit:10;" d="M16146.4-1838.8"/>
	</g>
	<g>
		<g>
			
				<linearGradient id="SVGID_36_" gradientUnits="userSpaceOnUse" x1="16090.4873" y1="-8054.8921" x2="16090.4873" y2="-8024.7817" gradientTransform="matrix(42.5197 0 0 -42.5197 -667932.3125 -344572.7812)">
				<stop  offset="0" style="stop-color:#F58320"/>
				<stop  offset="1" style="stop-color:#F29527"/>
			</linearGradient>
			<path style="fill:url(#SVGID_36_);" d="M16227.1-2081.2c-4.3,0-8.5,0-8.5-4.3c-284.9-378.4-565.5-829.1-301.9-1271.3
				c4.3-4.3,8.5-8.5,12.8-4.3c212.6,63.8,153.1,348.7,212.6,501.7c4.3-59.5-51-446.5,76.5-497.5c4.3-4.3,8.5-4.3,8.5-4.3h4.3l0,0
				c119.1,29.8,106.3,429.4,110.6,493.2c42.5-140.3-21.3-357.2,187.1-493.2c4.3-4.3,12.8,0,12.8,4.3
				c263.6,433.7-4.3,875.9-306.1,1271.3C16231.4-2081.2,16231.4-2081.2,16227.1-2081.2z"/>
		</g>
	</g>
	<g>
		<path style="fill:none;stroke:#070404;stroke-width:0.2;stroke-miterlimit:10;" d="M16273.9-2242.8"/>
	</g>
	<g>
		<g>
			
				<linearGradient id="SVGID_37_" gradientUnits="userSpaceOnUse" x1="16075.6133" y1="-8025.2651" x2="16075.6133" y2="-8057.5288" gradientTransform="matrix(42.5197 0 0 -42.5197 -667932.3125 -344572.7812)">
				<stop  offset="5.241550e-03" style="stop-color:#FEC846"/>
				<stop  offset="1" style="stop-color:#F3B610"/>
			</linearGradient>
			<path style="fill:url(#SVGID_37_);" d="M16129.3-1970.6H15381c-4.3,0-4.3,0-8.5-4.3c-4.3-4.3-327.4-255.1-323.1-693.1
				c4.3-480.5,455-676.1,646.3-676.1c4.3,0,8.5,0,12.8,0s8.5,4.3,8.5,8.5c0,4.3,0,8.5,0,12.8c0,0-140.3,174.3-42.5,569.8
				c85,348.7,463.5,756.9,467.7,761.1s4.3,8.5,4.3,12.8C16146.4-1974.9,16133.6-1970.6,16129.3-1970.6z"/>
		</g>
	</g>
	<g>
		<g>
			
				<linearGradient id="SVGID_38_" gradientUnits="userSpaceOnUse" x1="16105.4922" y1="-8025.2661" x2="16105.4922" y2="-8057.5288" gradientTransform="matrix(42.5197 0 0 -42.5197 -667932.3125 -344572.7812)">
				<stop  offset="5.241550e-03" style="stop-color:#FEC846"/>
				<stop  offset="1" style="stop-color:#F3B610"/>
			</linearGradient>
			<path style="fill:url(#SVGID_38_);" d="M17081.8-1970.6h-748.3c-4.3,0-8.5-4.3-12.8-8.5c-4.3-4.3,0-8.5,4.3-12.8
				s382.7-416.7,467.7-761.1c97.8-399.7-42.5-569.8-42.5-569.8c-4.3-4.3-4.3-8.5,0-12.8c0-4.3,4.3-8.5,8.5-8.5c4.2,0,8.5,0,12.8,0
				c187.1,0,642,195.6,646.3,676.1c4.3,438-318.9,693.1-323.2,693.1C17086-1970.6,17086-1970.6,17081.8-1970.6z"/>
		</g>
	</g>
	<g>
		<g>
			<path style="fill:#F58320;" d="M16227.1-1571l-284.9-153.1l284.9-157.3l4.3,4.3l276.4,157.3L16227.1-1571z"/>
		</g>
		<g>
			<path style="fill:#F58320;" d="M16775.6-1626.2L16775.6-1626.2L16775.6-1626.2c-46.8,0-80.8-38.3-80.8-80.8
				c0-46.8,38.3-80.8,80.8-80.8c46.8,0,80.8,38.3,80.8,80.8C16856.4-1664.5,16822.4-1626.2,16775.6-1626.2z"/>
		</g>
		<g>
			<path style="fill:#F58320;" d="M17094.5-1626.2L17094.5-1626.2L17094.5-1626.2c-21.3,0-42.5-8.5-59.5-25.5s-25.5-34-25.5-59.5
				c0-46.8,38.3-80.8,80.8-80.8c46.8,0,80.8,38.3,80.8,80.8C17175.3-1664.5,17137.1-1626.2,17094.5-1626.2z"/>
		</g>
		<g>
			<path style="fill:#F58320;" d="M15419.3-1626.2L15419.3-1626.2L15419.3-1626.2c-46.8,0-80.8-38.3-80.8-80.8
				c0-46.8,38.3-80.8,80.8-80.8c46.8,0,80.8,38.3,80.8,80.8C15504.3-1664.5,15466-1626.2,15419.3-1626.2z"/>
		</g>
		<g>
			<path style="fill:#F58320;" d="M15733.9-1626.2L15733.9-1626.2L15733.9-1626.2c-21.3,0-42.5-8.5-59.5-25.5s-25.5-34-25.5-59.5
				c0-46.8,38.3-80.8,80.8-80.8c46.8,0,80.8,38.3,80.8,80.8C15814.7-1664.5,15780.7-1626.2,15733.9-1626.2z"/>
		</g>
	</g>
	<g>
		<path style="fill:none;stroke:#070404;stroke-width:0.2;stroke-miterlimit:10;" d="M15580.8,2345.1"/>
	</g>
	<g>
		<path style="fill:none;stroke:#070404;stroke-width:0.2;stroke-miterlimit:10;" d="M15640.4,2523.7"/>
	</g>
	<g>
		<path style="fill:none;stroke:#070404;stroke-width:0.2;stroke-miterlimit:10;" d="M16027.3,2481.2"/>
	</g>
	<g>
		<path style="fill:none;stroke:#070404;stroke-width:0.2;stroke-miterlimit:10;" d="M15015.3,2196.3"/>
	</g>
	<g>
		<path style="fill:none;stroke:#FFFFFF;stroke-width:0.2;stroke-miterlimit:10;" d="M16741.6,835.7"/>
	</g>
	<g>
		<path d="M15551.1-240.1"/>
	</g>
	<g>
		<g>
			<path style="fill:#808080;" d="M16444-274.1c-25.5-17-46.8-72.3-51-76.5l21.3-8.5c4.3,17-21.3,72.3,59.5,72.3L16444-274.1z"/>
		</g>
	</g>
	<g>
		<path style="fill:#FFFFFF;" d="M15159.9-70c-29.8-46.8-85-68-85-68l8.5-29.8c4.3,0,55.3,38.3,89.3,93.5L15159.9-70z"/>
	</g>
	<g>
		<path style="fill:#FFFFFF;" d="M15198.2-91.3c-38.3-102-76.5-114.8-76.5-114.8l4.3-21.3c4.3,0,42.5,8.5,80.8,131.8L15198.2-91.3z"
			/>
	</g>
	<g>
		<path style="fill:#FFFFFF;" d="M15244.9-121c-4.3-4.3-80.8-102-89.3-174.3l25.5-21.3c8.5,68,72.3,187.1,72.3,187.1L15244.9-121z"
			/>
	</g>
	<g>
		<polygon style="fill:#3166B1;" points="17426.2,-121 17120.1,-210.3 17141.3,-235.8 17456,-163.6 		"/>
	</g>
	<g>
		<path style="fill:none;stroke:#070404;stroke-width:0.2;stroke-miterlimit:10;" d="M16979.7,389.2"/>
	</g>
	<g>
		<g>
			
				<linearGradient id="SVGID_39_" gradientUnits="userSpaceOnUse" x1="16092.668" y1="-8140.0542" x2="16092.668" y2="-8170.561" gradientTransform="matrix(42.5197 0 0 -42.5197 -667932.3125 -344572.7812)">
				<stop  offset="5.241550e-03" style="stop-color:#FEC846"/>
				<stop  offset="1" style="stop-color:#EEB310"/>
			</linearGradient>
			<path style="fill:url(#SVGID_39_);" d="M17961.9,1686.1c-4.3-12.8-34-93.5-106.3-127.6c-42.5-21.3-102-25.5-157.3-12.8
				c-106.3,21.3-165.8,114.8-178.6,208.3c-8.5,76.5,17,153.1,38.3,216.9c59.5,165.8,97.8,250.9,34,344.4
				c-68,93.5-267.9,46.8-463.5-76.5c-191.3-123.3-348.7-165.8-531.5-136.1c-318.9,55.3-314.6,246.6-582.5,284.9
				c-85,4.3-216.9,8.5-280.6-51c51,4.3,123.3,38.3,165.8,0l12.8-4.3c0,0,72.3,0,127.6-29.8l-34-29.8c0,0,63.8,17,97.8-46.8
				c0,0-17-29.8-12.8-46.8c4.3-12.8,46.8-55.3,59.5-68c12.8-12.8,93.5-80.8,195.6-144.6c0,0-17-29.8-38.3-46.8
				c-17-12.8-55.3,0-55.3,0c-4.3-8.5-29.8-46.8-59.5-42.5c-21.3,4.3-106.3,46.8-187.1,85c42.5-51,51-89.3,51-89.3l25.5,12.8l-8.5-85
				l-72.3,55.3l29.8,8.5c-21.3,63.8-59.5,102-93.5,123.3c-21.3,8.5-38.3,17-55.3,21.3c8.5-38.3,4.3-80.8-68-110.6
				c0,0,68,110.6-110.6,161.6l0,0c-42.5-21.3-106.3-55.3-157.3-63.8c-127.6-25.5-267.9,89.3-289.1,221.1
				c-8.5,55.3-8.5,110.6,4.3,165.8c-55.3-34-119.1-72.3-140.3-85c-29.8-21.3-93.5-38.3-187.1-29.8c-93.5,8.5-131.8,38.3-157.3,59.5
				h34c0,0-34,29.8-51,63.8c0,0,59.5-38.3,102-38.3l-21.3,38.3c0,0,29.8-8.5,68-4.3c38.3,4.3,76.5,38.3,106.3,34
				c25.5-4.3,29.8-25.5,42.5-29.8c12.8-4.3,34,12.8,63.8,42.5s157.3,153.1,208.3,157.3c25.5,0,46.8-4.3,63.8-8.5
				c8.5,4.3,17,4.3,29.8,4.3c0,0,0,42.5-17,80.8c0,0-80.8-12.8-157.3-17c-76.5-4.3-144.6,12.8-161.6,12.8
				c-25.5,0-63.8-46.8-195.6-46.8c-102,0-182.8,55.3-182.8,55.3l80.8,8.5c0,0-93.5,29.8-110.6,76.5c0,0,76.5-29.8,110.6-29.8
				c0,0-63.8,38.3-63.8,80.8c0,0,29.8-38.3,80.8-42.5c51-4.3,123.3,34,157.3,34c68,4.3,89.3-34,97.8-29.8
				c12.8,0,80.8,55.3,233.9,55.3c157.3,0,178.6-29.8,229.6-29.8c55.3,0,102,17,110.6,12.8c8.5-4.3,25.5-38.3,34-89.3v17
				c0,0,374.2,63.8,582.5-8.5c293.4-106.3,323.1-216.9,331.7-221.1c12.8,0,29.8,51,153.1,89.3c76.5,25.5,144.6,34,199.8,25.5
				c68-8.5,110.6-4.3,110.6,51c0,42.5-46.8,68-85,63.8c-38.3-8.5-106.3-55.3-178.6,0l68,8.5c0,0-68,12.8-89.3,42.5
				c0,0,63.8-12.8,89.3-17c0,0-34,21.3-42.5,34c0,0,29.8-8.5,59.5-4.3c25.5,4.3,72.3,29.8,119.1,29.8c46.8,0,140.3-38.3,199.8-170.1
				c0,0-68-63.8-68-80.8c0,0-21.3-93.5,17-72.3c85,42.5,195.6,72.3,293.4,72.3c259.4,4.3,497.5-187.1,327.4-493.2
				c-42.5-76.5-131.8-221.1-127.6-323.1c8.5-102,76.5-148.8,140.3-144.6c63.8,4.3,93.5,51,93.5,72.3c0,0-68-12.8-76.5,55.3
				c-8.5,51,59.5,72.3,93.5,157.3c0,0,51-76.5,68-110.6C17974.7,1762.6,17966.2,1703.1,17961.9,1686.1z M15921,2141
				c17-8.5,46.8-8.5,59.5-12.8c12.8-4.3,46.8-25.5,68-25.5c0,0-51,72.3-76.5,85c-29.8,12.8-55.3,21.3-106.3,8.5
				C15857.2,2200.5,15904,2149.5,15921,2141z"/>
		</g>
	</g>
	<g>
		<g>
			<path style="fill:#FFFFFF;" d="M15504.3,529.5c-153.1-25.5-199.8-165.8-204.1-170.1l21.3-8.5c-4.3,4.3,55.3,119.1,195.6,140.3
				L15504.3,529.5z"/>
		</g>
	</g>
	<g>
		<path style="fill:none;stroke:#070404;stroke-width:0.2;stroke-miterlimit:10;" d="M15640.4-121"/>
	</g>
	<g>
		<path style="fill:none;stroke:#070404;stroke-width:0.2;stroke-miterlimit:10;" d="M15653.1-197.6"/>
	</g>
	<g>
		<path style="fill:none;stroke:#070404;stroke-width:0.2;stroke-miterlimit:10;" d="M15704.2-184.8"/>
	</g>
	<g>
		<path style="fill:#FFFFFF;" d="M15381-155l-17-17c0-4.3,4.3-12.8,8.5-21.3c17-38.3,51-114.8,119.1-114.8l25.5,21.3
			c-85,12.8-131.8,85-148.8,123.3C15368.2-150.8,15385.3-159.3,15381-155z"/>
	</g>
	<g>
		<path style="fill:#FEBE10;" d="M16227.1-3395L16227.1-3395c-46.8,0-80.8-38.3-80.8-80.8c0-46.8,38.3-80.8,80.8-80.8
			c46.8,0,80.8,38.3,80.8,80.8C16307.9-3429.1,16269.7-3395,16227.1-3395z"/>
	</g>
	<g>
		<path style="fill:#EFB77F;" d="M16405.7-405.9c0,0,17,102,89.3,123.3c21.3,4.3-89.3,25.5-89.3,25.5c-25.5,12.8-17,8.5-25.5,4.3
			c-25.5-8.5-34-55.3-34-55.3C16371.7-325.1,16405.7-405.9,16405.7-405.9z"/>
	</g>
	<g>
		<path style="fill:#FFFFFF;" d="M16010.3,244.6c-51-42.5-136.1-42.5-136.1-42.5l-4.3-12.8c4.3,0,106.3-17,170.1,38.3L16010.3,244.6
			z"/>
	</g>
	<g>
		<path style="fill:#FFFFFF;" d="M15827.5,66.1l-12.8-21.3c17-12.8,63.8-12.8,89.3-8.5l-4.3,25.5
			C15874.2,53.3,15840.2,57.6,15827.5,66.1z"/>
	</g>
	<g>
		<path style="fill:#FFFFFF;" d="M15861.5,151.1h-17c29.8-34,89.3-29.8,97.8-25.5l-8.5,21.3
			C15916.8,142.6,15878.5,134.1,15861.5,151.1z"/>
	</g>
	<g>
		<path style="fill:#FFFFFF;" d="M15891.2,278.7c25.5-4.3,51-8.5,55.3-8.5c0,0-46.8-68-63.8-110.6l-63.8-114.8l17,182.8
			C15857.2,223.4,15882.7,219.1,15891.2,278.7z"/>
	</g>
	<g>
		<path style="fill:#FFFFFF;" d="M15147.1-23.2c-51-80.8-157.3-68-157.3-68l-4.3-21.3c4.3,0,110.6-21.3,170.1,85L15147.1-23.2z"/>
	</g>
	<g>
		<path style="fill:#FFFFFF;" d="M15291.7-150.8c-59.5-8.5-85-161.6-89.3-191.3l29.8,12.8
			C15244.9-261.3,15257.7-159.3,15291.7-150.8L15291.7-150.8z"/>
	</g>
	<g>
		<path style="fill:#FFFFFF;" d="M15410.8-163.6c-8.5-68,140.3-106.3,157.3-110.6l-17,34c-46.8,0-136.1,38.3-131.8,76.5h-8.5V-163.6
			z"/>
	</g>
	<g>
		<path style="fill:#FFFFFF;" d="M15551.1-138l-8.5-8.5c0,0,51-38.3,148.8-38.3l29.8,29.8C15627.6-172.1,15551.1-138,15551.1-138z"
			/>
	</g>
	<g>
		
			<linearGradient id="SVGID_40_" gradientUnits="userSpaceOnUse" x1="16092.3643" y1="-8166.522" x2="16092.3643" y2="-8174.3306" gradientTransform="matrix(42.5197 0 0 -42.5197 -667932.3125 -344572.7812)">
			<stop  offset="5.241550e-03" style="stop-color:#FEC846"/>
			<stop  offset="1" style="stop-color:#F3B610"/>
		</linearGradient>
		<path style="fill:url(#SVGID_40_);" d="M16533.3,2868.1c-8.5-17-42.5-25.5-59.5-68c-8.5-29.8-21.3-93.5-12.8-136.1
			c0,0-12.8,17-76.5,46.8c-55.3,25.5-102,42.5-102,42.5c38.3,34,63.8,106.3,63.8,106.3c-29.8-12.8-72.3-12.8-106.3-12.8
			c-63.8-4.3-136.1,29.8-136.1,34l38.3,4.3c-29.8,25.5-59.5,63.8-59.5,63.8c51-25.5,114.8-46.8,114.8-46.8
			c-46.8,29.8-59.5,93.5-59.5,93.5c68-63.8,131.8-63.8,191.3-59.5c59.5,4.3,114.8,4.3,165.8-12.8
			C16541.8,2906.4,16541.8,2885.1,16533.3,2868.1z"/>
	</g>
	
		<linearGradient id="SVGID_41_" gradientUnits="userSpaceOnUse" x1="16093.2617" y1="-8097.6382" x2="16093.2617" y2="-8137.791" gradientTransform="matrix(42.5197 0 0 -42.5197 -667932.3125 -344572.7812)">
		<stop  offset="1.779735e-02" style="stop-color:#BAC5CC"/>
		<stop  offset="1" style="stop-color:#ABB5BC"/>
	</linearGradient>
	<path style="fill:url(#SVGID_41_);" d="M16733.1,533.8c-72.3-51-102-131.8-119.1-161.6c-12.8-21.3-34-85-42.5-140.3
		c-4.3-25.5,0-89.3-4.3-119.1c0-34-51-42.5-29.8-89.3c21.3-51,12.8-102,17-140.3c0-38.3-41.8-93.2-71.5-110.2
		c-29.8-21.3-64.5-38.6-141.1,3.9c-62.4,25.1-93.4-35.4-93.4-35.4s4.2,14.1-21.4,9.9c-25.5-4.3-119.1,55.3-119.1,55.3
		s-25.5,68-4.3,123.3c21.3,55.3,38.3,38.3,51,42.5c17,0,17,46.8,17,97.8c-4.3,51,55.3,127.6,68,148.8s-8.5,21.3-25.5,63.8
		c-12.8,42.5-187.1,148.8-187.1,148.8l69.7,98.6l-34.7,39.3l-1,2.3l-127.2,153.2l106.3,335.9l34,255.1l-43.7,76.2
		c0,0-41.3,76.8,48,51.3c102-29.8,174.3-89.3,174.3-89.3l89.3-29.8l-106.3-229.6l21.3-225.4l25.5-123.3c21.3,21.3,38.3,38.3,51,46.8
		c25.5,21.3,221.1-34,221.1-29.8c0,4.3,208.3-204.1,208.3-204.1S16758.6,550.8,16733.1,533.8z"/>
	<g>
		<g>
			<g>
				<path style="fill:#FFFFFF;" d="M16061.3,474.2l-89.3-148.8c-51,8.5-21.3,12.8-46.8,12.8c-12.8,12.8-25.5,25.5-38.3,34
					c-12.8,4.3-25.5,12.8-42.5,12.8c0,0,4.3,51,12.8,131.8C15929.5,516.8,15989,499.8,16061.3,474.2z"/>
			</g>
		</g>
		<g>
			<g>
				<path style="fill:#FFFFFF;" d="M16061.3,482.7c-80.8,34-136.1,51-199.8,59.5c8.5,102,21.3,233.9,25.5,301.9
					c25.5-8.5,51-21.3,76.5-29.8c-8.5-21.3-17-51-12.8-72.3c8.5-55.3,153.1-216.9,153.1-216.9L16061.3,482.7z"/>
			</g>
		</g>
		<g>
			<g>
				<path style="fill:#FFFFFF;" d="M16099.6,1158.8c-25.5-46.8-80.8-195.6-110.6-276.4c-4.3-12.8-12.8-34-21.3-51
					c-25.5,8.5-55.3,21.3-80.8,29.8c0,17,4.3,29.8,4.3,29.8c8.5,114.8,38.3,438,38.3,438l153.1,21.3c0,0,38.3-68,51-89.3
					C16137.9,1243.9,16116.6,1197.1,16099.6,1158.8z"/>
			</g>
		</g>
	</g>
	<g>
		<path style="fill:#FFFFFF;" d="M16307.9,1311.9c-8.5,8.5-38.3,21.3-59.5,25.5c-29.8,4.3-51,21.3-72.3,38.3c-17,12.8-34,25.5-51,34
			c-21.3,8.5-46.8,21.3-68,21.3c-8.5,0-17-4.3-21.3-8.5c-4.3-4.3-4.3-12.8,4.3-21.3l4.3-4.3c12.8-12.8,21.3-4.3,38.3-51l-34-12.8
			c-12.8,42.5-8.5,34-17,46.8c-4.3,4.3-8.5,8.5-8.5,8.5c-8.5,17-8.5,29.8-4.3,46.8c8.5,12.8,21.3,21.3,38.3,21.3h4.3
			c25.5-4.3,51-12.8,76.5-25.5c21.3-8.5,42.5-25.5,59.5-38.3c21.3-17,38.3-29.8,63.8-34c29.8-4.3,85-21.3,93.5-46.8"/>
	</g>
	<g>
		<g>
			<path style="fill:#EFB77F;" d="M16137.9-478.2c0,0,17,46.8,17,59.5c4.3,8.5,21.3,29.8,21.3,29.8c21.3,21.3,25.5,34,34,51
				s21.3,38.3,34,42.5c21.3,29.8,59.5,25.5,136.1-93.5c0,0-34-119.1-29.8-131.8c4.3-12.8-212.6,34-212.6,34V-478.2"/>
		</g>
	</g>
	<g>
		<path style="fill:#D63229;" d="M16239.9-320.9c4.3,0,12.8,0,17-4.3c8.5-4.3,12.8,0,12.8,8.5c-8.5,8.5-12.8,8.5-21.3,4.3
			C16244.2-316.6,16244.2-320.9,16239.9-320.9L16239.9-320.9z M16231.4-325.1c17-8.5,29.8-12.8,51-17c-4.3,0,0-4.3-4.3-8.5
			c-8.5,0-17,0-25.5,4.3c-4.3,0-4.3,4.3-8.5,4.3C16222.9-342.1,16222.9-337.9,16231.4-325.1L16231.4-325.1z M16163.4-448.4
			c12.8,0,29.8,0,42.5,4.3c8.5,0,12.8,4.3,8.5,12.8c0,4.3,4.3,12.8,4.3,17c4.3,38.3,0,38.3-12.8,8.5c0-4.3-4.3-4.3-4.3-8.5
			c-8.5,4.3-17,8.5-25.5,0c4.3-4.3,4.3-12.8,8.5-17c-4.3,0-12.8,0-17,0C16167.6-435.7,16163.4-439.9,16163.4-448.4L16163.4-448.4z
			 M16303.7-478.2c-17,8.5-38.3,17-51,25.5c-4.3,8.5-8.5,12.8,8.5,17c4.3,8.5,4.3,12.8,12.8,8.5c8.5-8.5,21.3-8.5,38.3-12.8
			c4.3-4.3,4.3-8.5-8.5-12.8c-8.5,4.3-17,8.5-29.8,8.5c4.3-8.5,21.3-17,38.3-21.3C16312.2-469.7,16307.9-473.9,16303.7-478.2
			L16303.7-478.2z"/>
	</g>
	<g>
		<path style="fill:#FFFFFF;" d="M16299.4,750.6c-89.3-29.8-276.4-157.3-284.9-161.6l12.8-21.3c0,0,179.1,106.8,268.4,136.6
			L16299.4,750.6z"/>
	</g>
	<g>
		<path style="fill:#BAC5CC;" d="M16265.4-695c0,0,21.3-12.8,25.5-29.8c12.8-42.5-8.5-29.8-38.3-59.5
			c110.6-29.8,195.6-17,246.6,63.8c34,55.3,34,80.8,29.8,178.6c-4.3,80.8,38.3,110.6,85,68c17-21.3,29.8-46.8,51-63.8
			c38.3-25.5,72.3-8.5,85,12.8c21.3,38.3,29.8,85,97.8,21.3c-4.3,21.3-51,55.3-80.8,42.5c-17-4.3-25.5-21.3-29.8-29.8
			c-38.3-51-72.3,25.5-97.8,51c-51,55.3-136.1,63.8-161.6-4.3c-17-46.8,0-114.8-34-136.1"/>
	</g>
	<g>
		<g>
			<path style="fill:#BAC5CC;" d="M16142.1-482.5c63.8,12.8,127.6-8.5,191.3-38.3c8.5,80.8,29.8,153.1,97.8,157.3
				c-21.3-46.8-21.3-102-17-161.6c-4.3-93.5-34-161.6-131.8-165.8C16180.4-678,16142.1-597.3,16142.1-482.5L16142.1-482.5z"/>
		</g>
		<g>
			<path style="fill:#BAC5CC;" d="M16431.2-350.6L16431.2-350.6c-76.5-8.5-97.8-80.8-106.3-153.1c-46.8,17-97.8,34-144.6,34l0,0
				c-12.8,0-25.5,0-38.3-4.3c-4.3,0-8.5-4.3-8.5-12.8c0-131.8,46.8-204.1,148.8-212.6c97.8,4.3,170.1,76.5,174.3,191.3
				c-8.5,63.8-29.8,97.8-12.8,140.3c0,4.3,0,8.5,0,12.8C16439.7-350.6,16435.5-350.6,16431.2-350.6z"/>
		</g>
	</g>
	<polygon style="fill:#EB252C;" points="15810.5,402 15845,405 15929.5,1324.6 15882.7,1333.1 	"/>
	<polyline style="fill:#EB252C;" points="15784.9,-10.5 15819,10.8 15836,240.4 15810.5,257.4 15784.9,-10.5 	"/>
	<g>
		<path style="fill:#FFFFFF;" d="M16190.3,1369c-29.8-59.5-82.2-86.9-82.2-86.9v-8.5c4.3,0,76.5,0,110.6,76.5L16190.3,1369z"/>
	</g>
	<g>
		<path style="fill:#FFFFFF;" d="M16227.1,1031.3c-55.3-63.8-89.3-76.5-140.3-59.5h-4.3l-4.3-4.3c-4.3-4.3-21.3-38.3-59.5,0v-17
			c34-25.5,55.3-12.8,72.3-4.3c80.8-21.3,97.8-12.8,148.8,29.8L16227.1,1031.3z"/>
	</g>
	<g>
		<path style="fill:#E4F0F6;" d="M16180.4,159.6c-25.5-80.8-29.8-165.8-12.8-259.4c8.5-46.8,46.8-106.3,55.3-127.6l25.5-38.3
			l8.5,8.5c17,29.8,51,29.8,93.5,17l-8.5,25.5c-46.8,17-68-4.3-93.5-29.8l-12.8,29.8c-8.5,21.3-38.3,76.5-46.8,119.1
			c-17,89.3-4.3,161.6,17,238.1L16180.4,159.6z"/>
	</g>
	<g>
		<polygon style="fill:#E4F0F6;" points="16320.7,427.5 16171.9,325.4 16197,307.7 16320.7,402 16482.3,338.2 16495,355.2 		"/>
	</g>
	<g>
		<polygon style="fill:#E4F0F6;" points="16320.7,355.2 16227.1,291.4 16239.9,270.1 16320.7,329.7 16452.5,274 16456.8,299.9 		"/>
	</g>
	<g>
		<polygon style="fill:#E4F0F6;" points="16372.3,317.6 16352.6,132.6 16378,130 16397.7,315.1 		"/>
	</g>
	<g>
		<g>
			
				<linearGradient id="SVGID_42_" gradientUnits="userSpaceOnUse" x1="16122.6641" y1="-8112.7222" x2="16122.6641" y2="-8132.6851" gradientTransform="matrix(42.5197 0 0 -42.5197 -667932.3125 -344572.7812)">
				<stop  offset="0" style="stop-color:#FFFFFF"/>
				<stop  offset="1" style="stop-color:#FFF3E1"/>
			</linearGradient>
			<path style="fill:url(#SVGID_42_);" d="M17834.4,852.7c80.8-195.6,89.3-416.7-148.8-467.7c-191.3-34-293.4,144.6-327.4,170.1
				s-46.8,29.8-46.8,29.8l38.3,42.5c110.6-80.8,335.9-93.5,301.9,102c-63.8,233.9-114.8,493.2,89.3,501.7
				c-38.3-46.8-34-106.3-17-161.6C17762.1,980.2,17821.6,886.7,17834.4,852.7z"/>
		</g>
		<g>
			
				<linearGradient id="SVGID_43_" gradientUnits="userSpaceOnUse" x1="16103.6104" y1="-8133.4517" x2="16103.6104" y2="-8152.3237" gradientTransform="matrix(42.5197 0 0 -42.5197 -667932.3125 -344572.7812)">
				<stop  offset="0" style="stop-color:#FFFFFF"/>
				<stop  offset="1" style="stop-color:#FFF3E1"/>
			</linearGradient>
			<path style="fill:url(#SVGID_43_);" d="M16967,1541.5c0-21.3-165.8-97.8-225.4-280.6c0,0-42.5,29.8-93.5,46.8
				c-38.3,17-89.3,25.5-89.3,25.5l17,55.3c17,51,42.5,97.8,85,131.8s106.3,55.3,148.8,127.6c8.5,12.8,17,25.5,25.5,42.5
				c42.5,76.5,38.3,157.3,0,238.1c-29.8,38.3-42.5,46.8-76.5,119.1c0,0,102,21.3,123.3,17c29.8-4.3,51-21.3,34-55.3
				c29.8-127.6,63.8-182.8,102-216.9C16988.2,1715.8,16962.7,1643.5,16967,1541.5z"/>
		</g>
		<g>
			<path style="fill:#FFFFFF;" d="M15504.3,529.5c-4.3,21.3-21.3,76.5-55.3,123.3c-34,51-46.8,72.3-68,114.8
				c34,38.3,242.4,127.6,467.7,89.3l-25.5-306.1c-38.3,4.3-72.3,4.3-106.3,4.3C15589.3,555,15512.8,533.8,15504.3,529.5z"/>
		</g>
		<g>
			
				<linearGradient id="SVGID_44_" gradientUnits="userSpaceOnUse" x1="16068.4414" y1="-8120.1567" x2="16068.4414" y2="-8151.2524" gradientTransform="matrix(42.5197 0 0 -42.5197 -667932.3125 -344572.7812)">
				<stop  offset="0" style="stop-color:#FFFFFF"/>
				<stop  offset="1" style="stop-color:#FFF3E1"/>
			</linearGradient>
			<path style="fill:url(#SVGID_44_);" d="M15691.4,886.7c-174.3,0-297.6-59.5-331.7-76.5c-21.3,46.8-34,80.8-38.3,106.3
				c-4.3,12.8-4.3,25.5-4.3,42.5l-4.3-17c-55.3-51-170.1-106.3-238.1-144.6c-46.8-29.8-80.8-63.8-110.6-102
				c-4.3-4.3-4.3-4.3-8.5-4.3c-34,0-63.8,8.5-89.3,25.5c-4.3,0-4.3,4.3-4.3,4.3c-29.8,72.3-46.8,131.8-59.5,187.1
				c-21.3,55.3-42.5,102-68,136.1c-34,38.3-72.3,89.3-34,123.3c8.5,17,4.3,34,4.3,51c-4.3,17-4.3,34,0,46.8
				c-8.5,17-21.3,46.8-21.3,55.3v34c-4.3,51,4.3,68,17,93.5c4.3,4.3,4.3,12.8,8.5,17c0,4.3,4.3,8.5,12.8,8.5c0,0,0,0,4.3,0
				c38.3-8.5,63.8-46.8,85-80.8c12.8-17,21.3-34,34-46.8c4.3-4.3,4.3-12.8,0-17l-4.3-4.3c17-25.5-4.3-51-17-72.3l-4.3-4.3
				c-4.3-8.5-21.3-29.8,21.3-76.5c4.3-4.3,4.3-4.3,4.3-8.5c-8.5-76.5,25.5-148.8,63.8-212.6c8.5-12.8,12.8-25.5,17-38.3
				c12.8-29.8,21.3-51,51-51c68,110.6,136.1,199.8,242.4,267.9c0,0,17,17,42.5,21.3s76.5-8.5,106.3-12.8c4.3,8.5,8.5,17,17,25.5
				c25.5,38.3-85,38.3-131.8,51c-46.8,25.5-102,29.8-161.6,29.8c-72.3-12.8-85,21.3-89.3,55.3c-38.3,114.8-93.5,195.6-153.1,276.4
				c-29.8,25.5-51,55.3-72.3,85c-4.3,8.5-8.5,12.8-8.5,21.3s4.3,12.8,8.5,21.3c12.8,21.3-12.8,29.8-17,51
				c-21.3,46.8-29.8,97.8-34,144.6l0,0l0,0v12.8c-8.5,34-21.3,97.8-8.5,97.8s144.6-25.5,148.8-42.5c4.3-17-8.5-59.5-8.5-59.5
				c0-29.8,0-59.5,0-85c4.3-21.3,4.3-38.3,17-42.5c38.3-8.5,63.8-55.3,59.5-110.6c0-38.3,17-76.5,59.5-110.6
				c29.8-42.5,46.8-85,76.5-127.6c12.8,8.5,38.3-29.8,72.3-51c17-12.8,42.5-12.8,68-4.3c153.1,38.3,340.2,68,510.2,42.5
				c42.5,12.8,12.8-59.5,42.5-85c8.5-8.5,110.6-21.3,140.3-17l-38.3-455C15793.4,882.4,15738.2,886.7,15691.4,886.7z"/>
		</g>
		<g>
			<path style="fill:#FFFFFF;" d="M15053.6,457.2l59.5,51c0,0,4.3,29.8,4.3,46.8c8.5,21.3,29.8,25.5,55.3,25.5
				c12.8,0,72.3-21.3,93.5-29.8c4.3,0,8.5-4.3,12.8-4.3c12.8-4.3,21.3-17,29.8-34c4.3-8.5,8.5-12.8,17-17
				c-12.8-34-21.3-76.5,0-114.8c0,0,76.5-63.8,110.6-93.5c106.3-89.3,59.5-89.3,80.8-110.6c29.8-34,17,267.9,4.3,310.4
				c0,0,119.1,42.5,301.9,29.8l-12.8-136.1c-21.3,0-12.8,4.3-25.5,0c0,8.5-25.5-114.8-8.5-119.1l34-12.8l-21.3-233.9
				c0,0-85-89.3-131.8-114.8c-34-17-148.8-72.3-178.6-80.8c-17-4.3-136.1-12.8-136.1-12.8s76.5-106.3,42.5-174.3
				c-4.3-12.8-119.1,0-123.3,102c0,51-12.8,106.3-12.8,106.3s-80.8,46.8-97.8,85c-17,38.3-63.8,106.3-72.3,174.3
				c0,12.8,17,34,12.8,59.5C15083.4,265.9,15045.1,419,15053.6,457.2z M15155.6,134.1L15155.6,134.1v-8.5v-4.3V117v-4.3v-4.3v-4.3
				v-4.3v-4.3v-4.3l0,0l0,0l0,0l0,0l0,0l0,0l0,0l0,0l0,0l0,0l0,0h4.3h4.3h4.3h4.3h4.3h4.3h4.3h4.3h4.3h4.3h4.3h4.3h4.3l4.3-4.3
				l4.3-4.3l4.3-4.3l4.3-4.3v4.3v4.3v4.3v4.3v4.3v4.3v4.3v4.3v4.3v4.3l0,0l0,0l0,0l0,0l0,0l0,0l0,0l0,0l0,0l0,0l0,0l0,0l0,0l0,0v4.3
				v4.3l0,0l-4.3,4.3l-4.3,4.3l-4.3,4.3l-4.3,4.3l-4.3,4.3l-4.3,4.3l-4.3,4.3l-4.3,4.3l-4.3,4.3l-4.3,4.3l-4.3,4.3l-4.3,4.3
				l-4.3,4.3l-4.3,4.3l-4.3,4.3l-4.3,4.3l-4.3,4.3l-4.3,4.3l-4.3,4.3l-4.3,4.3l-4.3,4.3l-4.3,4.3l-4.3,4.3l-4.3,4.3l-4.3,4.3l0,0
				v-4.2v-4.3v-4.3V216v-4.3v-4.3v-4.3v-4.3v-4.3v-4.3v-4.3v-4.3v-4.3V173L15155.6,134.1L15155.6,134.1z"/>
		</g>
		<g>
			
				<linearGradient id="SVGID_45_" gradientUnits="userSpaceOnUse" x1="16073.4336" y1="-8115.9932" x2="16073.4336" y2="-8115.9932" gradientTransform="matrix(42.5197 0 0 -42.5197 -667932.3125 -344572.7812)">
				<stop  offset="0" style="stop-color:#FFFFFF"/>
				<stop  offset="1" style="stop-color:#E5DFCC"/>
			</linearGradient>
			<path style="fill:url(#SVGID_45_);" d="M15504.3,516.8L15504.3,516.8C15508.6,516.8,15504.3,516.8,15504.3,516.8L15504.3,516.8z"
				/>
		</g>
		<g>
			
				<linearGradient id="SVGID_46_" gradientUnits="userSpaceOnUse" x1="16103.624" y1="-8115.6836" x2="16103.624" y2="-8154.7915" gradientTransform="matrix(42.5197 0 0 -42.5197 -667932.3125 -344572.7812)">
				<stop  offset="0" style="stop-color:#FFFFFF"/>
				<stop  offset="1" style="stop-color:#FFF3E1"/>
			</linearGradient>
			<path style="fill:url(#SVGID_46_);" d="M17251.9,567.8c-182.8-123.3-412.4-34-467.7-17c-8.5,4.3-17,4.3-17,4.3
				s-25.5,8.5-38.3,12.8l-199.9,170l-29.8-55.3l-174.3,85v-55.3l-29.8-8.5c-46.8,38.3-106.3,46.8-127.6,72.3c0,0,76.5,68,63.8,229.6
				c-8.5,119.1,12.8,157.3,17,191.3c0,0,25.5,34,42.5,63.8c17,25.5,17,55.3,17,55.3c216.9,25.5,446.5-97.8,446.5-97.8
				c97.8,204.1,238.1,289.1,238.1,289.1c255.1,114.8,221.1,238.1,204.1,378.4c-12.8,106.3-144.6,216.9-144.6,216.9l119.1,63.8
				l21.3-29.8l63.8-12.8c12.8-267.9,97.8-361.4,131.8-399.7c34-42.5,4.3-42.5,4.3-42.5s-174.3-191.3-68-408.2
				C17460.2,929.2,17434.7,686.8,17251.9,567.8z M16822.4,614.6c0,21.3,0,46.8-4.3,68c25.5-8.5,72.3-17,72.3-17v38.3l-76.5,17
				c-4.3,12.8-8.5,25.5-12.8,42.5c38.3-8.5,89.3-4.3,89.3-4.3l12.8,17l-29.8,21.3c-25.5,4.3-63.8-8.5-80.8-17
				c-8.5,25.5-21.3,55.3-34,76.5l72.3,12.8l12.8,12.8l-21.3,12.8l-72.3-21.3c-12.8,21.3-29.8,42.5-46.8,63.8
				c46.8,17,80.8,42.5,80.8,42.5l-25.5,12.8l-4.3,8.5l-63.8-51c-17,17-34,34-55.3,51l63.8,46.8l-17,8.5l-21.3,12.8
				c-29.8-25.5-42.5-42.5-46.8-51c-17,12.8-34,21.3-51,29.8c-12.8,4.3-21.3,8.5-34,12.8l25.5,21.3l12.8,25.5l-21.3,12.8l-21.3-12.8
				l-12.8-42.5c-21.3,8.5-42.5,12.8-59.5,17c8.5,17,34,29.8,34,29.8v17h-21.3c-12.8-17-21.3-29.8-25.5-42.5
				c-21.3,4.3-42.5,8.5-59.5,8.5l17,21.3l12.8,25.5h-17c-4.3-8.5-12.8-8.5-17-8.5c0,0-8.5-25.5-12.8-34c-21.3,0-42.5,4.3-59.5,4.3
				h-4.3c8.5,12.8,25.5,25.5,25.5,25.5l-12.8,8.5l-21.3-12.8c-4.3-8.5-8.5-17-8.5-21.3c-12.8,0-21.3,0-25.5,0l4.3-21.3
				c0,0,153.1,17,306.1-51c131.8-59.5,263.6-242.4,246.6-433.7h4.3l0,0c25.5-8.5,59.5-12.8,89.3-25.5l25.5,12.8c0,0,4.3,17,4.3,21.3
				C16916,601.8,16856.4,610.3,16822.4,614.6z"/>
		</g>
	</g>
	<g>
		<polygon style="fill:#E4F0F6;" points="16371.7,665.6 16367.5,440.2 16350.5,461.5 16290.9,661.3 16176.1,601.8 16265.4,440.2 
			16252.7,431.7 16137.9,576.3 16065.6,499.8 16006,431.7 16035.8,414.7 16082.6,491.3 16125.1,542.3 16239.9,414.7 16286.7,436 
			16197.4,597.6 16269.7,627.3 16324.9,444.5 16388.7,423.2 16388.7,644.3 16439.7,618.8 16414.2,410.5 16469.5,380.7 
			16575.8,618.8 16669.3,533.8 16699.1,555 16571.6,644.3 16456.8,414.7 16452.5,414.7 16482.3,623.1 		"/>
	</g>
	<g>
		<path style="fill:#E4F0F6;" d="M16733.1,533.8c-25.5-21.3-60.9-53.5-73.6-79c0,0-27.3-32.6-67.5-137.5l-97,42.1
			c29.8,34,63.8,76.5,80.8,106.3c0,0,51,59.5,106.3,102L16733.1,533.8z"/>
	</g>
	<g>
		
			<rect x="16095.2" y="281.1" transform="matrix(-0.5457 -0.838 0.838 -0.5457 24576.8672 14090.4287)" style="fill:#E4F0F6;" width="25.5" height="204.1"/>
	</g>
	<g>
		<g>
			<g>
				<path style="fill:#3166B1;" d="M17226.4,125.6c-225.4,0-535.7-140.3-663.3-229.6c-12.8,68-21.3,165.8-21.3,165.8
					c55.3,38.3,540,272.1,548.5,233.9c4.3-21.3-12.8-76.5,29.8-89.3c21.3-4.3,46.8,12.8,85,4.3c38.3-8.5,63.8-59.5,46.8-76.5
					C17234.9,125.6,17226.4,125.6,17226.4,125.6z"/>
			</g>
		</g>
		<g>
			<g>
				<path style="fill:#3166B1;" d="M16877.7-167.8c55.3-89.3,157.3-148.8,242.4-199.8c-76.5,8.5-199.8,21.3-340.2,38.3l-327.4,42.5
					l-4.3,8.5c0,0,4.3,4.3,8.5,12.8c4.3,0,8.5,0,12.8,4.3C16728.9-218.8,16843.7-189.1,16877.7-167.8z"/>
			</g>
		</g>
		<g>
			<g>
				<path style="fill:#3166B1;" d="M17409.2-163.6c-63.8,29.8-250.9,76.5-280.6,17c-29.8-55.3,38.3-123.3,63.8-148.8
					c46.8-51,34-76.5,25.5-85c-4.3,0-8.5,0-12.8,0c-89.3,0-250.9,140.3-323.2,263.6c0,4.3-4.3,4.3-8.5,4.3l0,0c-4.3,0-4.3,0-8.5-4.3
					c0,0-93.5-72.3-382.7-127.6c25.5,34,59.5,85,72.3,119.1c114.8,68,416.7,212.6,646.3,216.9c0-17,4.3-25.5,25.5-46.8
					c34-34,89.3-42.5,123.3-51s63.8-8.5,106.3-55.3C17511.2-112.5,17477.2-193.3,17409.2-163.6z"/>
			</g>
		</g>
	</g>
	<g>
		<path style="fill:#E4F0F6;" d="M16422.7,36.3c4.3,0,17,4.3,29.8,4.3c17,0,34-4.3,46.8-12.8c34-17,55.3-25.5,51-80.8
			c-4.3-46.8-42.5-136.1-63.8-165.8c-4.3-4.3-21.3-8.5-42.5-12.8c-25.5,0-68,8.5-80.8,12.8l-25.5,17c-17,17-55.3,76.5-59.5,127.6
			c-4.3,29.8,8.5,34,17,42.5c4.3,0,8.5,0,12.8,0C16354.7-27.5,16410,23.5,16422.7,36.3z M16448.2,66.1c-21.3,0-38.3-4.3-38.3-4.3
			h-4.3v-4.3c0,0-59.5-59.5-106.3-59.5c-4.3,0-8.5,0-12.8,0h-4.3l-4.3-4.3c0,0-42.5-4.3-29.8-80.8c8.5-46.8,63.8-110.6,68-114.8
			l34-38.3h4.3c0,0,55.3-17,85-12.8c42.5,4.3,55.3,17,55.3,17l4.3,4.3c8.5,8.5,85,102,76.5,157.3c-8.5,51-21.3,97.8-63.8,123.3
			C16490.8,57.6,16469.5,66.1,16448.2,66.1z"/>
	</g>
	<g>
		<g>
			<path style="fill:#E4F0F6;" d="M16569.8,207.5c4.3-72.3-15.2-192.5,1.8-281.8c0,0-17,110.6-97.8,123.3
				c-38.3,4.3-42.5-8.5-42.5-8.5l21.3,233.9L16569.8,207.5z"/>
		</g>
		<g>
			<path style="fill:#E4F0F6;" d="M16482.3,333.9l102-42.5l0,0c-4.3-12.8-4.3-17-8.5-34c0-8.5-4.3-12.8-4.3-25.5l-115.8,68.7
				l-3.3-13.4l0,0C16452.5,299.9,16461,312.7,16482.3,333.9L16482.3,333.9z"/>
		</g>
	</g>
	<path style="fill:#3166B1;" d="M16439.7-252.8c-8.5,0-53.7,6.9-53.7,6.9s41-40.9,75-45.2s63.8,25.5,34,25.5
		C16465.3-261.3,16439.7-252.8,16439.7-252.8z"/>
	<path style="fill:#EFB77F;" d="M16363.2,172.4c-12.8,29.8-80.8,72.3-85,85c-8.5,17-8.5,17-8.5,17s-17,0-42.5,8.5
		s-72.3,42.5-225.4,63.8c-42.5,4.3-68,0-80.8,8.5s-29.8,29.8-80.8,42.5c-51,12.8-102-12.8-102-25.5c4.3-12.8,8.5-8.5,12.8-12.8
		s-12.8-4.3-12.8-25.5c0-12.8,12.8-4.3,12.8-12.8s-21.3-17,4.3-29.8c12.8-4.3-12.8-25.5,4.3-34c17-8.5,68-8.5,68-8.5
		s12.8-21.3,4.3-21.3s25.5-17,46.8,12.8s0,34,21.3,29.8c25.5-4.3,68-8.5,89.3-21.3c51-29.8,191.3-97.8,212.6-102L16278.4-2
		c0,0,59.5-25.5,127.6,59.5C16410,57.6,16376,142.6,16363.2,172.4z"/>
	<path style="fill:#EFB77F;" d="M16091.1-167.8c0,0-12.8,55.3-8.5,80.8s42.5,59.5,46.8,68c4.3,12.8-136.1-12.8-153.1-4.3
		c-12.8,8.5-29.8,12.8-46.8,4.3c-8.5-4.3-17-21.3-29.8-38.3c-34-38.3-80.8-110.6-102-216.9l-4.3-80.8c0,0,25.5-29.8,29.8-55.3
		c4.3-12.8-17-29.8-12.8-38.3c8.5-38.3-4.3-46.8-4.3-46.8s25.5-12.8,42.5,29.8c8.5,17,12.8,25.5,12.8,72.3s42.5,97.8,68,144.6
		s29.8,85,55.3,93.5C16014.5-150.8,16091.1-167.8,16091.1-167.8z"/>
	<g>
		<path style="fill:#EFB77F;" d="M15755.2-495.2L15755.2-495.2l8.5,8.5c4.3,0,8.5,0,12.8,0c21.3,0,34,8.5,34,17
			c0,4.3-8.5,12.8-17,12.8c-12.8,0-29.8,0-42.5-4.3v8.5c12.8,0,25.5,0,38.3,0c8.5,4.3,12.8,8.5,12.8,12.8s-4.3,8.5-12.8,12.8
			c-12.8,4.3-29.8,0-42.5-4.3l-4.3,8.5c12.8,0,29.8,0,46.8,0c8.5,4.3,12.8,8.5,12.8,12.8c0,12.8-25.5,12.8-34,12.8
			c-4.3,0-12.8,0-17,0v4.3h4.3c4.3,0,8.5,0,12.8,0c21.3,0,34,4.3,34,12.8s-17,17-34,17c-4.3,0-12.8,0-17-4.3l-8.5,4.3
			c4.3,0,29.8,12.8,38.3,12.8c0,8.5,0,25.5,0,25.5c-34-12.8-72.3-42.5-59.5-102c8.5-21.3,17-38.3,25.5-59.5
			C15746.7-491,15750.9-491,15755.2-495.2L15755.2-495.2z"/>
	</g>
	<g>
		<g>
			<path style="fill:#FEBE10;" d="M15793.4-499.5h-21.3v-12.8l-12.8-259.4l-59.5-63.8l12.8-29.8l42.5,46.8l-4.3-72.3l-80.8,4.3
				v-25.4h4.3l72.3-4.3v-34l-46.8,4.3v-25.5l46.8-4.3l-4.3-51h21.3l4.3,51l38.3-4.3l8.5,25.5h-42.5v34l89.3-8.5l8.5,25.5l-93.5,4.3
				l8.5,102l59.5,63.8l-12.8,25.5l-42.5-46.8L15793.4-499.5z"/>
		</g>
	</g>
	<g>
		<polygon style="fill:#FEBE10;" points="15772.2,-350.6 15789.2,23.5 15823.2,53.3 15797.7,-354.9 		"/>
	</g>
	<g>
		<path style="fill:#E4F0F6;" d="M16159.1-2c0,0-106.3,0-72.3-170.1l17,4.3c-34,127.6,68,102,68,114.8L16159.1-2z"/>
	</g>
	<path style="fill:#E4F0F6;" d="M16265.4-269.9c-8.5-8.5-55.3-8.5-131.8,29.8c-17,8.5-38.3,29.8-51,55.3l1.4,33.4
		c4.3,0,7.1-12.1,7.1-12.1h8.5l4.3-4.3c8.5-21.3,29.8-42.5,42.5-46.8c72.3-38.3,110.6-34,110.6-34l-1.9-3.4l6.2,3.4l12.3,13.1
		l4.7-34.4H16265.4z"/>
</g>
</svg>
