<svg width="24" height="24" viewBox="0 0 24 24" fill="none" xmlns="http://www.w3.org/2000/svg">
<path d="M14.7936 22.6948C14.6728 22.7968 14.5512 22.8958 14.4288 22.9868C14.5516 22.8948 14.6728 22.7958 14.7936 22.6948Z" fill="#F9EDE0"/>
<path d="M15.3996 22.1389C15.2692 22.2689 15.1388 22.3969 15.006 22.5149C15.1388 22.3959 15.2696 22.2689 15.3996 22.1389Z" fill="#F9EDE0"/>
<circle cx="12" cy="12" r="12" fill="#FF5145"/>
<path d="M14.2757 22.6785C14.1519 22.7137 14.0273 22.7471 13.9014 22.7785C14.0273 22.7471 14.1519 22.7137 14.2757 22.6785Z" fill="#F9EDE0"/>
<path d="M10.1613 23.0286C10.0133 23.0086 9.86562 22.987 9.71967 22.9566C9.86604 22.987 10.0137 23.0086 10.1613 23.0286Z" fill="#F9EDE0"/>
<path d="M8.17814 22.778C8.05267 22.7466 7.92804 22.7132 7.80383 22.678C7.92804 22.7136 8.05267 22.7471 8.17814 22.778Z" fill="#F9EDE0"/>
<path d="M9.46875 22.9833C9.33617 22.9529 9.20401 22.9211 9.07269 22.8833C9.2036 22.9211 9.33617 22.9522 9.46875 22.9833Z" fill="#F9EDE0"/>
<path d="M11.04 23.0433C10.8167 23.0433 10.5955 23.0297 10.3751 23.0073C10.5955 23.0297 10.8167 23.0433 11.04 23.0433Z" fill="#F9EDE0"/>
<path d="M8.81383 22.8932C8.68669 22.8624 8.55997 22.8295 8.43451 22.7932C8.55997 22.8295 8.68669 22.8624 8.81383 22.8932Z" fill="#F9EDE0"/>
<path d="M6.36684 22.3152C6.17823 22.2572 5.9917 22.1963 5.80811 22.1318C5.99212 22.1963 6.17865 22.2575 6.36684 22.3152Z" fill="#F9EDE0"/>
<path d="M6.95572 22.4825C6.81729 22.4459 6.68053 22.4069 6.54419 22.3669C6.68053 22.4069 6.81729 22.4459 6.95572 22.4825Z" fill="#F9EDE0"/>
<path d="M11.7049 23.0073C11.4845 23.0297 11.2633 23.0433 11.04 23.0433C11.2633 23.0433 11.4845 23.0297 11.7049 23.0073Z" fill="#F9EDE0"/>
<path d="M12.3603 22.9566C12.214 22.987 12.0663 23.0086 11.9187 23.0286C12.0663 23.0086 12.214 22.987 12.3603 22.9566Z" fill="#F9EDE0"/>
<path d="M13.6459 22.7932C13.52 22.8295 13.3937 22.8624 13.2666 22.8932C13.3933 22.8624 13.52 22.8295 13.6459 22.7932Z" fill="#F9EDE0"/>
<path d="M13.0077 22.8831C12.8764 22.9208 12.7443 22.9527 12.6117 22.9831C12.7439 22.9527 12.8764 22.9216 13.0077 22.8831Z" fill="#F9EDE0"/>
<path d="M16.2694 22.1326C16.0867 22.1968 15.901 22.2576 15.7132 22.3154C15.901 22.2576 16.0867 22.1971 16.2694 22.1326Z" fill="#F9EDE0"/>
<path d="M7.55958 22.6376C7.43118 22.6061 7.30446 22.5722 7.17816 22.5376C7.30446 22.5722 7.43118 22.6061 7.55958 22.6376Z" fill="#F9EDE0"/>
<path d="M15.7132 22.3152C15.6546 22.3505 15.5948 22.3817 15.5358 22.4152C15.5944 22.3817 15.6542 22.3505 15.7132 22.3152Z" fill="#F9EDE0"/>
<path d="M16.3176 22.1534C16.3072 22.1582 16.296 22.163 16.2856 22.1678C16.296 22.163 16.3072 22.159 16.3176 22.1534Z" fill="#F9EDE0"/>
<path d="M8.43411 22.85C8.34838 22.8181 8.26306 22.7848 8.17816 22.75C8.26306 22.7848 8.34838 22.8181 8.43411 22.85Z" fill="#F9EDE0"/>
<path d="M9.07229 22.9409C8.98572 22.9137 8.89957 22.8833 8.81342 22.8529C8.89999 22.8833 8.98572 22.9145 9.07229 22.9409Z" fill="#F9EDE0"/>
<path d="M10.375 23.028C10.3035 23.0208 10.2324 23.0064 10.1613 22.9968C10.2328 23.0064 10.3035 23.0208 10.375 23.028Z" fill="#F9EDE0"/>
<path d="M9.71968 22.9976C9.63562 22.98 9.55239 22.9576 9.46875 22.9368C9.55239 22.9576 9.63562 22.98 9.71968 22.9976Z" fill="#F9EDE0"/>
<path d="M5.83887 22.1664C5.83007 22.1624 5.82047 22.1584 5.81167 22.1544C5.82047 22.1584 5.83007 22.1624 5.83887 22.1664Z" fill="#F9EDE0"/>
<path d="M11.9187 22.9968C11.8472 23.0064 11.7765 23.0208 11.705 23.028C11.7765 23.0208 11.8472 23.0064 11.9187 22.9968Z" fill="#F9EDE0"/>
<path d="M14.5204 22.6274C14.4393 22.6624 14.3577 22.6949 14.2758 22.7274C14.3577 22.6949 14.4393 22.6624 14.5204 22.6274Z" fill="#F9EDE0"/>
<path d="M15.1243 22.4824C15.0507 22.5174 14.9762 22.5491 14.9022 22.5824C14.9762 22.5491 15.0507 22.5174 15.1243 22.4824Z" fill="#F9EDE0"/>
<path d="M6.54457 22.4157C6.4856 22.3821 6.4258 22.3504 6.36725 22.3157C6.4258 22.3504 6.4856 22.3815 6.54457 22.4157Z" fill="#F9EDE0"/>
<path d="M7.17819 22.5824C7.10416 22.5491 7.0293 22.5174 6.95612 22.4824C7.0293 22.5174 7.10375 22.5491 7.17819 22.5824Z" fill="#F9EDE0"/>
<path d="M12.6112 22.9368C12.5276 22.9576 12.4444 22.9808 12.3603 22.9976C12.4444 22.98 12.5276 22.9576 12.6112 22.9368Z" fill="#F9EDE0"/>
<path d="M13.9019 22.7498C13.817 22.7845 13.7317 22.8178 13.6459 22.8498C13.7317 22.8186 13.817 22.7852 13.9019 22.7498Z" fill="#F9EDE0"/>
<path d="M13.2662 22.8529C13.18 22.8833 13.0943 22.9145 13.0073 22.9409C13.0943 22.9145 13.18 22.8833 13.2662 22.8529Z" fill="#F9EDE0"/>
<path d="M7.80423 22.7274C7.72268 22.6949 7.6407 22.6624 7.55957 22.6274C7.6407 22.6624 7.72226 22.6949 7.80423 22.7274Z" fill="#F9EDE0"/>
<path d="M14.8238 12.426C16.1983 11.5041 17.1048 9.93086 17.1048 8.14286C17.1048 5.30271 14.8191 3 12 3C9.18088 3 6.89522 5.30271 6.89522 8.14286C6.89522 9.93086 7.80174 11.5041 9.1762 12.426C9.1762 12.426 9.17663 12.4264 9.17706 12.4264C9.17663 12.4264 9.17663 12.426 9.17663 12.426C5.8866 13.425 3.32485 16.1151 2.5 19.4996L2.50043 19.5C2.63485 19.6633 2.77438 19.8227 2.91689 19.9791C2.95135 20.0173 2.98751 20.0537 3.02281 20.091C3.13257 20.2084 3.2436 20.3241 3.3576 20.4373C3.40482 20.484 3.45289 20.529 3.50096 20.5749C3.60646 20.676 3.71324 20.7759 3.82214 20.8731C3.87616 20.9211 3.93104 20.9687 3.98549 21.0159C4.09227 21.108 4.20032 21.1984 4.3105 21.2867C4.36835 21.3334 4.42663 21.3793 4.48491 21.4251C4.59636 21.5117 4.70952 21.5957 4.82395 21.678C4.88308 21.7204 4.94136 21.7637 5.00134 21.8053C5.12216 21.8893 5.2451 21.9699 5.36889 22.0496C5.42461 22.0851 5.47907 22.122 5.53522 22.1571C5.67815 22.2459 5.82364 22.3307 5.9704 22.4139C6.00911 22.4357 6.04697 22.4593 6.08611 22.4807C6.27584 22.5853 6.46854 22.6856 6.66423 22.7803C6.66891 22.7824 6.67401 22.7846 6.67869 22.7867C6.86544 22.8767 7.05517 22.962 7.24702 23.0426C7.30658 23.0679 7.36741 23.0901 7.42739 23.1141C7.56607 23.1699 7.70475 23.2247 7.84598 23.2753C7.92085 23.3023 7.99657 23.3267 8.07187 23.3524C8.20034 23.3961 8.32966 23.4386 8.45983 23.4776C8.54236 23.5024 8.62531 23.5256 8.70869 23.5487C8.83461 23.5839 8.96138 23.6173 9.08942 23.6486C9.17578 23.6696 9.26256 23.6897 9.34977 23.709C9.47781 23.7373 9.60628 23.763 9.7356 23.787C9.82324 23.8033 9.91044 23.82 9.99893 23.8341C10.1325 23.856 10.2669 23.8744 10.4018 23.892C10.4869 23.9031 10.5715 23.9156 10.657 23.9246C10.8059 23.9409 10.9561 23.9524 11.1062 23.9631C11.179 23.9683 11.2509 23.976 11.3236 23.9799C11.5478 23.9927 11.7728 24 12 24C12.2272 24 12.4522 23.9927 12.6764 23.9807C12.7491 23.9769 12.8214 23.9691 12.8938 23.964C13.0444 23.9533 13.1945 23.9417 13.343 23.9254C13.4285 23.916 13.5131 23.904 13.5982 23.8929C13.7331 23.8753 13.8675 23.8569 14.0011 23.835C14.0891 23.8204 14.1768 23.8041 14.2644 23.7879C14.3937 23.7639 14.5226 23.7381 14.6502 23.7099C14.7374 23.6906 14.8242 23.6704 14.9106 23.6494C15.0382 23.6181 15.165 23.5847 15.2913 23.5496C15.3743 23.5264 15.4576 23.5033 15.5402 23.4784C15.6708 23.439 15.7997 23.3966 15.9281 23.3533C16.0034 23.3276 16.0796 23.3031 16.154 23.2761C16.2948 23.2251 16.4339 23.1707 16.5726 23.115C16.6326 23.091 16.6934 23.0683 16.753 23.0434C16.944 22.9629 17.1329 22.8784 17.3188 22.7884C17.3243 22.7859 17.3302 22.7833 17.3358 22.7807C17.5315 22.686 17.7242 22.5857 17.9139 22.4811C17.953 22.4597 17.9909 22.4361 18.0296 22.4143C18.1764 22.3311 18.3218 22.2463 18.4648 22.1576C18.5209 22.1229 18.5758 22.086 18.6311 22.05C18.7549 21.9703 18.8778 21.8893 18.9987 21.8057C19.0582 21.7641 19.1169 21.7213 19.176 21.6784C19.2905 21.5957 19.4036 21.5117 19.5151 21.4256C19.5738 21.3801 19.6317 21.3339 19.6895 21.2871C19.7993 21.1989 19.9077 21.1084 20.0145 21.0163C20.0694 20.9691 20.1243 20.9216 20.1779 20.8736C20.2868 20.7763 20.3935 20.6764 20.499 20.5753C20.5467 20.5294 20.5952 20.484 20.6424 20.4377C20.7564 20.3246 20.8679 20.2089 20.9772 20.0914C21.0121 20.0537 21.0482 20.0173 21.0831 19.9796C21.2256 19.8231 21.3651 19.6637 21.4996 19.5004L21.5 19.5C20.6756 16.1151 18.1138 13.425 14.8238 12.426Z" fill="#F4F4F4"/>
</svg>
