<svg width="36" height="40" viewBox="0 0 36 40" fill="none" xmlns="http://www.w3.org/2000/svg" id="icon">
<path fill-rule="evenodd" clip-rule="evenodd" d="M30.8594 0H4.29688C1.92749 0 0 1.92749 0 4.29688V35.7031C0 38.0725 1.92749 40 4.29688 40H30.8594C33.2288 40 35.1562 38.0725 35.1562 35.7031V4.29688C35.1562 1.92749 33.2288 0 30.8594 0ZM4.29688 37.6562C3.21991 37.6562 2.34375 36.7801 2.34375 35.7031V4.29688C2.34375 3.21991 3.21991 2.34375 4.29688 2.34375H26.1719C27.2488 2.34375 28.125 3.21991 28.125 4.29688V35.7031C28.125 36.7801 27.2488 37.6562 26.1719 37.6562H4.29688ZM30.8594 37.6562C31.9363 37.6562 32.8125 36.7801 32.8125 35.7031V4.29688C32.8125 3.21991 31.9363 2.34375 30.8594 2.34375H29.9973C30.2979 2.9303 30.4688 3.59375 30.4688 4.29688V35.7031C30.4688 36.4062 30.2979 37.0697 29.9973 37.6562H30.8594Z" fill="#FF5145"/>
<path d="M20.9375 26.5625H9.53125C8.88397 26.5625 8.35938 27.0871 8.35938 27.7344C8.35938 28.3817 8.88397 28.9062 9.53125 28.9062H20.9375C21.5848 28.9062 22.1094 28.3817 22.1094 27.7344C22.1094 27.0871 21.5848 26.5625 20.9375 26.5625Z" fill="#FF5145"/>
<path d="M19.0625 31.25H11.5625C10.9152 31.25 10.3906 31.7746 10.3906 32.4219C10.3906 33.0692 10.9152 33.5938 11.5625 33.5938H19.0625C19.7098 33.5938 20.2344 33.0692 20.2344 32.4219C20.2344 31.7746 19.7098 31.25 19.0625 31.25Z" fill="#FF5145"/>
<path fill-rule="evenodd" clip-rule="evenodd" d="M15.2344 5C10.4095 5 6.48438 8.92517 6.48438 13.75C6.48438 18.5748 10.4095 22.5 15.2344 22.5C20.0592 22.5 23.9844 18.5748 23.9844 13.75C23.9844 8.92517 20.0592 5 15.2344 5ZM21.5314 12.5781H19.187C19.0979 10.9433 18.8232 9.41895 18.3908 8.17871C20.004 9.09637 21.1813 10.6931 21.5314 12.5781ZM14.2542 18.4448C14.6628 19.6692 15.0995 20.079 15.2344 20.1492C15.3693 20.079 15.806 19.6692 16.2146 18.4448C16.5442 17.4576 16.7584 16.2357 16.839 14.9219H13.6301C13.7103 16.2357 13.9246 17.4576 14.2542 18.4448ZM13.6301 12.5781C13.7103 11.2643 13.9246 10.0424 14.2542 9.05518C14.6628 7.83081 15.0995 7.42096 15.2344 7.35077C15.3693 7.42096 15.806 7.83081 16.2146 9.05518C16.5442 10.0424 16.7584 11.2643 16.8387 12.5781H13.6301ZM11.2817 12.5781C11.3708 10.9433 11.6455 9.41895 12.0779 8.17871C10.4648 9.09637 9.28741 10.6931 8.93738 12.5781H11.2817ZM8.93738 14.9219H11.2817C11.3708 16.5567 11.6455 18.0811 12.0779 19.3213C10.4648 18.4036 9.28741 16.8069 8.93738 14.9219ZM19.187 14.9219C19.0979 16.5567 18.8232 18.0811 18.3908 19.3213C20.004 18.4036 21.1813 16.8069 21.5314 14.9219H19.187Z" fill="#FF5145"/>
</svg>
