<svg width="242" height="250" viewBox="0 0 242 250" fill="none" xmlns="http://www.w3.org/2000/svg">
<path fill-rule="evenodd" clip-rule="evenodd" d="M241.855 241.78C241.855 246.048 188.302 249.509 122.243 249.509C56.184 249.509 2.63184 246.048 2.63184 241.78C2.63184 237.51 56.184 234.049 122.243 234.049C188.302 234.049 241.855 237.51 241.855 241.78Z" fill="#D06F57"/>
<path fill-rule="evenodd" clip-rule="evenodd" d="M23.7641 173.82C1.53227 133.492 -24.206 57.1972 45.7616 13.1118C115.729 -30.9735 146.141 49.9224 193.411 54.7533C250.143 60.5511 242.575 128.571 231.993 160.512C221.993 190.699 200.632 204.951 170.824 218.296C148.601 228.244 122.578 226.383 99.2177 223.438C68.4755 219.563 40.2499 203.724 23.7641 173.82Z" fill="white" fill-opacity="0.15"/>
<path fill-rule="evenodd" clip-rule="evenodd" d="M123.53 98.3178H121.789C115.363 85.9088 105.401 72.3536 105.268 68.7654C105.266 68.724 105.265 68.6828 105.264 68.6422C105.23 67.0326 106.543 65.9729 107.894 65.9729C108.589 65.9729 109.292 66.2518 109.829 66.8785C118.044 76.4635 121.916 90.5122 123.53 98.3178Z" fill="#FFD5CB"/>
<path fill-rule="evenodd" clip-rule="evenodd" d="M119.723 98.3179H114.562C103.381 87.2841 91.0681 77.1287 89.8902 73.3987C89.2844 71.4777 89.5267 70.2473 90.0676 69.4598C90.5847 68.7059 91.4303 68.3113 92.2934 68.3113C92.8156 68.3113 93.3439 68.4553 93.8098 68.7511C105.416 76.121 114.271 88.81 119.723 98.3179Z" fill="#FFD5CB"/>
<path fill-rule="evenodd" clip-rule="evenodd" d="M136.805 97.7579C136.805 97.7579 133.494 85.1415 136.824 75.5141C137.046 74.8704 137.615 74.5476 138.184 74.5476C138.746 74.5476 139.31 74.8621 139.543 75.4928C139.551 75.514 139.558 75.5355 139.567 75.5573C140.334 77.738 137.006 89.5329 136.805 97.7579Z" fill="#FFD5CB"/>
<path fill-rule="evenodd" clip-rule="evenodd" d="M138.494 98.3179H137.595C138.055 92.7719 139.691 81.1746 145.488 73.2068C145.79 72.7915 146.27 72.5603 146.752 72.5603C147.034 72.5603 147.318 72.6398 147.567 72.8082C148.007 73.105 148.383 73.6915 148.462 74.8088C148.648 77.4859 142.058 88.6914 138.494 98.3179Z" fill="#FFD5CB"/>
<path fill-rule="evenodd" clip-rule="evenodd" d="M69.3038 130.783C65.9267 130.085 62.7133 129.056 60.2122 127.905C52.1582 124.2 56.3984 122.668 61.8512 119.849C63.5778 118.956 65.6904 118.671 67.8725 118.671C68.3474 118.671 68.8257 118.685 69.3038 118.709V130.783ZM57.2203 118.254C56.2957 118.254 55.3147 118.192 54.2691 118.051C44.9602 116.802 41.9994 98.0262 41.9994 98.0262C44.823 99.6802 49.1078 100.334 52.8861 100.334C56.9161 100.334 60.3697 99.5895 60.8535 98.5204C61.7908 96.4491 45.0436 92.7818 42.5925 91.5247C40.1414 90.2677 36.7963 83.9949 42.0323 74.2237C44.124 70.3204 48.0623 69.1484 52.0382 69.1484C58.0153 69.1484 64.0773 71.7972 64.0773 71.7972C64.0773 71.7972 71.7736 92.819 75.1424 94.0605C75.2423 94.097 75.3322 94.1147 75.4147 94.1147C78.1377 94.1135 72.0659 74.8003 72.0659 74.8003C78.9383 75.7125 94.1558 87.9524 94.1558 87.9524C94.1558 87.9524 92.6881 93.0807 91.6327 98.3178H69.3038V115.448C68.0576 115.753 66.8061 116.21 65.4634 116.668C63.1368 117.461 60.5377 118.254 57.2203 118.254ZM103.75 98.3178H95.4536C95.932 94.1797 96.0881 90.4624 96.0881 90.4624C99.232 92.2644 101.906 95.5634 103.75 98.3178Z" fill="#FFE1DA"/>
<path fill-rule="evenodd" clip-rule="evenodd" d="M215.724 95.5813C215.245 85.5122 198.585 84.9499 198.585 84.9499C198.585 84.9499 184.06 99.1806 180.812 98.8789C177.563 98.5772 190.858 84.2828 190.858 84.2828C184.864 82.3373 167.598 86.4153 167.598 86.4153C167.598 86.4153 164.32 106.034 161.246 104.94C158.171 103.847 165.032 87.7172 165.032 87.7172C158.712 88.1909 151.656 93.8988 151.656 93.8988C142.259 103.657 155.251 115.241 155.251 115.241C155.251 115.241 153.969 122.016 148.122 128.82L148.121 128.821C148.121 128.821 146.872 130.039 145.387 132.252L147.003 132.609C147.23 132.204 147.468 131.816 147.717 131.449L147.722 131.442L147.734 131.426C147.9 131.201 148.137 130.88 148.431 130.49L148.432 130.488L148.433 130.487C149.14 129.627 149.631 128.985 149.954 128.515L149.957 128.511C152.105 125.798 155.108 122.308 156.712 121.791C156.712 121.791 156.588 121.499 156.53 120.972C156.587 121.233 156.648 121.505 156.712 121.791C158.172 128.34 171.788 132.382 179.844 132.499C187.898 132.615 185.017 129.697 181.645 125.247C178.272 120.797 169.373 119.81 167.108 117.857C164.843 115.905 168.903 115.347 173.954 116.877C179.004 118.407 180.442 124.121 188.567 126.744C196.694 129.367 206.455 115.123 206.455 115.123C200.332 115.64 190.753 110.206 190.793 108.139C190.833 106.072 206.005 109.627 208.507 109.556C211.009 109.486 216.204 105.65 215.724 95.5813Z" fill="#FBCEC3"/>
<path fill-rule="evenodd" clip-rule="evenodd" d="M205.934 230.106C201.511 230.106 197.003 229.166 194.9 225.845C190.063 218.205 192.754 212.583 189.68 207.916C187.577 204.724 185.192 202.641 184.062 202.641C183.54 202.641 183.285 203.085 183.45 204.073C183.973 207.196 190.544 214.03 190.282 219.935C190.105 223.917 190.216 227.181 188.322 227.181C187.408 227.181 186.026 226.421 183.918 224.611C182.614 223.491 181.233 222.089 179.885 220.51V177.236C181.587 175.629 183.908 174.463 187.064 174.115C187.064 174.115 196.659 174.257 202.118 178.154C202.118 178.154 185.644 186.622 187.407 189.595C187.579 189.885 187.885 190.017 188.3 190.017C192.127 190.015 205.084 178.835 205.084 178.835C205.084 178.835 221.879 187.22 225.441 192.866C225.441 192.866 204.974 195.48 207.412 197.927C208.424 198.942 212.694 199.239 217.352 199.239C223.93 199.239 231.274 198.646 231.274 198.646C231.274 198.646 244.442 210.395 238.032 218.909C233.725 224.629 229.236 226.324 226.122 226.324C224.6 226.324 223.408 225.92 222.724 225.382C220.764 223.84 211.846 212.08 209.613 212.08C209.474 212.08 209.36 212.126 209.275 212.223C207.848 213.876 211.967 224.789 217.296 228.518C217.296 228.518 211.686 230.106 205.934 230.106Z" fill="#FFE1DA"/>
<path fill-rule="evenodd" clip-rule="evenodd" d="M44.2578 234.385C38.639 234.385 33.5476 233.2 33.5476 233.2C39.1562 228.868 43.0831 216.781 41.444 215.054C41.3544 214.96 41.2391 214.915 41.101 214.915C38.7182 214.915 29.5424 228.279 27.4793 230.066C26.6992 230.74 25.2532 231.275 23.3788 231.275C20.0082 231.275 15.2519 229.547 10.4893 223.803C3.07821 214.866 16.81 201.405 16.81 201.405C16.81 201.405 19.8413 201.506 23.8383 201.506C30.9506 201.506 41.1238 201.186 42.7427 199.4C45.2715 196.612 22.8637 194.816 22.8637 194.816C26.4518 188.489 44.3023 178.502 44.3023 178.502C44.3023 178.502 58.7277 189.814 63.0314 189.814C63.5382 189.814 63.904 189.658 64.09 189.307C65.8557 185.981 47.4953 177.61 47.4953 177.61C53.2382 173.088 63.672 172.444 63.672 172.444C65.8871 172.582 67.7454 173.106 69.3038 173.901V227.582C67.2486 229.468 65.8716 230.262 64.9308 230.262C62.9497 230.263 62.9004 226.742 62.5098 222.474C61.9229 216.061 68.7256 208.287 69.1349 204.862C69.2609 203.807 68.9803 203.333 68.4409 203.333C67.2272 203.333 64.7032 205.737 62.5515 209.363C59.4436 214.6 62.6582 220.58 57.7846 229.144C55.4103 233.315 49.596 234.384 44.2578 234.385Z" fill="#FFE1DA"/>
<path fill-rule="evenodd" clip-rule="evenodd" d="M32.357 141.065C31.8787 140.142 42.7898 136.815 42.9626 145.933C42.9626 145.933 63.4021 145.429 53.6428 134.017C50.2641 130.066 50.6117 126.799 50.7129 123.758C50.8157 120.717 48.6085 111.878 41.043 112.768C41.043 112.768 39.0617 111.96 36.5893 113.246C30.9662 116.168 18.3699 144.429 32.357 141.065Z" fill="#602916"/>
<path fill-rule="evenodd" clip-rule="evenodd" d="M65.7728 149.8C65.7728 149.8 67.1034 147.771 68.1756 147.732C69.2479 147.692 71.2336 147.135 71.0747 147.532C70.9159 147.93 69.6848 147.97 69.5656 148.209C69.4464 148.448 71.3924 148.805 71.9485 148.845C72.5044 148.885 73.815 148.845 73.7753 149.124C73.7355 149.402 71.4132 150.557 69.7746 150.397C68.1359 150.238 66.1104 150.875 66.1104 150.875L65.7728 149.8Z" fill="#F0B389"/>
<path fill-rule="evenodd" clip-rule="evenodd" d="M46.5316 150.456C46.5316 150.456 47.2547 151.892 48.5664 153.54C50.1475 155.523 52.5851 157.814 55.6459 158.267C57.1078 158.484 58.5375 158.168 59.8517 157.584L59.8564 157.582C63.5736 155.929 66.3688 152.128 66.3688 152.128C67.0239 150.337 65.9517 149.124 65.9517 149.124C65.9517 149.124 58.4458 150.815 57.7309 150.456C57.0161 150.098 52.8461 138.064 51.8536 136.552C50.8601 135.039 47.4764 134.254 47.4764 134.254L46.5316 150.456Z" fill="#B2AEFF"/>
<path fill-rule="evenodd" clip-rule="evenodd" d="M48.5664 153.54C50.1474 155.523 52.585 157.814 55.6458 158.267C57.1077 158.483 58.5375 158.168 59.8516 157.584C59.7063 157.602 55.9938 158.062 54.514 155.41C53.0046 152.704 51.3723 148.408 49.13 149.839C48.1625 150.457 48.2055 151.994 48.5664 153.54Z" fill="#9893F6"/>
<path fill-rule="evenodd" clip-rule="evenodd" d="M18.5283 231.623C18.5283 231.623 16.2379 233.717 16.6848 235.205C17.1317 236.693 19.1986 237.685 19.4778 239.504C19.7571 241.321 20.8745 242.313 21.8799 242.313C22.8854 242.313 26.6738 242.313 26.6738 242.313C26.6738 242.313 27.414 241.034 25.6264 240.648C23.8387 240.262 23.1649 238.126 23.2765 236.141C23.3882 234.158 23.1089 231.513 23.1089 231.513L19.3102 230.632L18.5283 231.623Z" fill="#4A2E1F"/>
<path fill-rule="evenodd" clip-rule="evenodd" d="M37.9136 232.512C37.9136 232.512 37.0897 241.384 38.0952 241.879L50.9636 241.852C50.9636 241.852 50.9636 240.365 48.8967 240.034C46.8298 239.703 43.1987 238.491 42.5842 235.791C41.9697 233.092 37.9136 232.512 37.9136 232.512Z" fill="#4A2E1F"/>
<path fill-rule="evenodd" clip-rule="evenodd" d="M28.0147 144.473C28.0147 144.473 27.8229 147.182 28.0147 150.432C28.1422 152.586 30.3175 155.472 30.6262 156.185C31.4005 157.976 32.2738 158.267 32.2738 158.267L39.0304 159.926L41.406 160.509L48.8977 158.267C48.8977 158.267 52.3099 148.726 50.9399 143.355C49.5697 137.984 47.4764 134.254 47.4764 134.254C47.4764 134.254 41.7246 133.056 33.4033 133.747L28.0147 144.473Z" fill="#B2AEFF"/>
<path fill-rule="evenodd" clip-rule="evenodd" d="M29.9923 151.31C30.1198 153.466 30.3175 155.472 30.6262 156.185C31.4005 157.976 32.2738 158.267 32.2738 158.267L39.0304 159.926L41.9649 159.062C41.9649 159.062 32.169 157.575 33.2544 149.132L29.9923 151.31Z" fill="#F2CCAA"/>
<path fill-rule="evenodd" clip-rule="evenodd" d="M48.4212 159.716C48.4212 159.716 52.1312 171.283 52.3694 175.223C52.6078 179.161 45.2775 231.175 44.9827 232.99C44.7047 234.7 42.5841 235.791 42.5841 235.791C42.5841 235.791 41.6089 236.368 40.2169 235.973C38.2857 235.427 37.6753 234.774 37.6753 234.774C37.6753 234.774 34.7875 197.678 36.5747 184.426C38.3616 171.175 38.3827 159.716 38.3827 159.716H48.4212Z" fill="#ED7D2B"/>
<path fill-rule="evenodd" clip-rule="evenodd" d="M32.7024 159.37C32.7024 159.37 27.0433 166.978 26.5156 172.119C25.9881 177.261 25.6879 195.324 24.5639 200.336C23.44 205.349 19.3102 214.996 19.3102 230.632C19.3102 230.632 19.7394 231.527 21.0649 232.005C21.4888 232.158 22.0567 232.305 22.608 232.433C23.7011 232.683 24.8226 232.148 25.3213 231.143C28.1134 225.511 37.007 207.348 37.463 203.578C37.7856 200.91 40.5938 183.252 46.719 172.889C48.1896 170.401 45.8166 160.509 45.8166 160.509L32.7024 159.37Z" fill="#F99746"/>
<path fill-rule="evenodd" clip-rule="evenodd" d="M49.0138 157.929C49.0138 157.929 47.5243 159.11 44.5656 159.169C41.0315 159.24 32.2742 158.267 32.2742 158.267C32.2742 158.267 31.885 159.356 31.901 160.506C31.901 160.506 42.5966 163.209 48.7936 160.901C48.7936 160.901 49.5929 159.394 49.0138 157.929Z" fill="#233862"/>
<path fill-rule="evenodd" clip-rule="evenodd" d="M44.3355 160.392C44.3355 161.105 44.8191 161.685 45.4135 161.685C46.0081 161.685 46.4917 161.105 46.4917 160.392C46.4917 159.679 46.0081 159.099 45.4135 159.099C44.8191 159.099 44.3355 159.679 44.3355 160.392ZM43.8009 160.392C43.8009 159.385 44.5243 158.564 45.4135 158.564C46.3028 158.564 47.0262 159.385 47.0262 160.392C47.0262 161.4 46.3028 162.221 45.4135 162.221C44.5243 162.221 43.8009 161.4 43.8009 160.392Z" fill="white"/>
<path fill-rule="evenodd" clip-rule="evenodd" d="M20.7603 160.022L31.7181 169.58L44.7792 154.555L33.8212 144.996L20.7603 160.022Z" fill="#B5453C"/>
<path fill-rule="evenodd" clip-rule="evenodd" d="M34.7457 160.058C34.7457 160.058 38.7608 160.527 38.7482 161.482C38.7356 162.437 37.7476 164.399 37.2518 164.485C36.7559 164.573 33.9843 161.833 33.9843 161.833L34.7457 160.058Z" fill="#F0B389"/>
<path fill-rule="evenodd" clip-rule="evenodd" d="M33.4033 133.747C33.4033 133.747 28.0429 134.123 25.9882 139.126C23.9334 144.13 20.0349 152.531 20.0349 153.944C20.0349 155.359 22.2125 159.716 33.9082 162.221C33.9082 162.221 35.1179 160.946 35.0446 159.938C35.0446 159.938 27.7437 153.656 27.7633 152.922C27.8006 151.533 28.9603 149.699 35.3701 143.276C37.1127 141.529 33.4033 133.747 33.4033 133.747Z" fill="#B2AEFF"/>
<path fill-rule="evenodd" clip-rule="evenodd" d="M36.8373 134.331C37.2879 133.066 37.8603 129.758 37.852 127.417L38.1911 127.484L43.8948 128.616C43.8948 128.616 43.765 130.414 43.7612 132.109C43.7612 132.123 43.7611 132.137 43.7611 132.15C43.754 133.621 43.767 134.805 43.6128 135.205C43.0702 136.618 36.4631 135.38 36.8373 134.331Z" fill="#F0B389"/>
<path fill-rule="evenodd" clip-rule="evenodd" d="M43.8948 128.616C43.8948 128.616 43.765 130.414 43.7612 132.109C40.5695 132.018 38.8825 129.101 38.1912 127.484L43.8948 128.616Z" fill="#EC9F75"/>
<path fill-rule="evenodd" clip-rule="evenodd" d="M44.9608 130.22C44.9608 130.22 37.4094 130.345 37.4042 125.632C37.3989 120.92 36.4209 117.763 41.242 117.484C46.0631 117.205 47.0018 119.002 47.3854 120.574C47.7691 122.147 46.9248 130.066 44.9608 130.22Z" fill="#F0B389"/>
<path fill-rule="evenodd" clip-rule="evenodd" d="M44.6812 117.368C44.6812 117.368 42.6137 122.897 39.4407 123.714C36.2677 124.532 34.8912 123.68 34.8912 123.68C34.8912 123.68 37.3251 121.743 37.8302 118.362C37.8302 118.362 43.1216 114.737 44.6812 117.368Z" fill="#602916"/>
<path fill-rule="evenodd" clip-rule="evenodd" d="M44.1687 117.817C44.1687 117.817 45.702 118.391 46.333 119.512C46.9501 120.607 47.4757 122.058 47.3537 123.838C47.3537 123.838 48.9115 120.08 47.1609 117.954C45.3045 115.7 44.1687 117.817 44.1687 117.817Z" fill="#602916"/>
<path fill-rule="evenodd" clip-rule="evenodd" d="M43.4855 127.423C43.4855 127.423 43.6159 127.978 44.995 127.892C44.995 127.892 46.1529 127.821 46.1174 127.21C46.1174 127.21 44.9948 126.776 43.4855 127.423Z" fill="white"/>
<path fill-rule="evenodd" clip-rule="evenodd" d="M180.803 139.499C180.752 138.408 180.57 136.323 179.94 135.057C179.055 133.285 176.563 131.353 175.517 131.997C174.472 132.641 177.045 135.621 176.643 136.749C176.241 137.877 177.771 139.801 179.016 141.174L180.824 140.212C180.824 140.212 180.824 139.934 180.803 139.499Z" fill="#FFB27D"/>
<path fill-rule="evenodd" clip-rule="evenodd" d="M204.101 141.897C202.478 144.915 200.453 147.964 198.379 150.445V150.446C196.207 153.044 193.983 155.021 192.106 155.688L192.092 155.693C191.994 155.727 191.898 155.76 191.8 155.784L191.786 155.789L191.785 155.79C191.404 155.898 191.04 155.946 190.695 155.931C184.536 155.653 178.045 142.419 178.045 142.419C178.045 142.419 178.214 140.85 179.411 139.741C180.456 138.775 181.262 138.522 181.262 138.522C181.262 138.522 187.894 145.346 189.514 145.837C190.534 146.144 191.873 141.38 193.793 135.396C195.715 129.412 202.46 127.936 202.46 127.936C202.46 127.936 209.288 132.265 204.101 141.897Z" fill="#B2AEFF"/>
<path fill-rule="evenodd" clip-rule="evenodd" d="M198.379 150.445V150.446C196.206 153.044 193.983 155.021 192.106 155.688L192.092 155.693L191.8 155.784L191.785 155.79L191.786 155.789C191.854 155.743 193.862 154.699 194.177 152.763C194.5 150.784 192.409 149.165 197.661 146.104C200.723 144.321 198.379 150.445 198.379 150.445Z" fill="#9893F6"/>
<path fill-rule="evenodd" clip-rule="evenodd" d="M193.57 241.215H208.005C209.039 240.513 207.727 233.644 207.727 233.644C207.727 233.644 203.787 232.147 203.106 235.192C202.424 238.235 198.088 239.202 195.794 239.574C194.224 239.829 193.727 240.694 193.57 241.215Z" fill="#4A2E1F"/>
<path fill-rule="evenodd" clip-rule="evenodd" d="M215.583 170.017C215.583 170.017 215.127 178.452 214.558 188.226C214.148 195.234 213.682 202.933 213.281 208.697C213.229 209.463 213.175 210.193 213.125 210.886C213.11 211.099 213.095 211.312 213.079 211.524C212.045 224.451 208.588 235.776 208.588 235.776C204.53 236.634 202.698 235.066 202.698 235.066C202.698 235.066 199.901 202.237 198.866 188.996C198.103 179.249 197.454 165.058 197.454 165.058L215.583 170.017Z" fill="#2B478B"/>
<path fill-rule="evenodd" clip-rule="evenodd" d="M214.558 188.226C214.148 195.234 213.682 202.933 213.281 208.697C210.628 202.428 205.208 177.993 205.208 177.993L214.558 188.226Z" fill="#233862"/>
<path fill-rule="evenodd" clip-rule="evenodd" d="M214.978 241.215H229.413C230.446 240.513 229.133 233.644 229.133 233.644C229.133 233.644 225.194 232.147 224.514 235.192C223.831 238.235 219.496 239.202 217.201 239.574C215.631 239.829 215.135 240.694 214.978 241.215Z" fill="#4A2E1F"/>
<path fill-rule="evenodd" clip-rule="evenodd" d="M201.375 168.339C201.375 168.339 211.683 194.042 214.978 203.785C217.325 210.726 223.945 235.072 223.945 235.072C223.945 235.072 226.823 235.949 229.242 234.253C229.242 234.253 231.706 209.379 226.731 202.365C224.091 198.645 226.074 163.683 215.373 163.384C204.672 163.085 201.375 168.339 201.375 168.339Z" fill="#2B478B"/>
<path fill-rule="evenodd" clip-rule="evenodd" d="M222.482 160.072C222.438 163.726 222.398 166.41 222.407 167.088C222.436 169.3 221.025 169.799 219.569 170.136C219.569 170.136 218.225 170.425 216.53 170.713C214.868 170.992 212.865 171.268 211.45 171.258C204.212 171.2 198.156 169.065 198.156 169.065C196.793 169.065 196.172 166.956 195.949 164.01C195.798 162.016 196.412 142.128 196.49 137.163C196.542 133.601 198.494 130.31 199.039 129.829C204.093 125.352 219.007 125.916 221.69 129.004C222.355 129.768 222.548 137.131 222.57 145.195C222.585 150.387 222.531 155.87 222.482 160.072Z" fill="#B2AEFF"/>
<path fill-rule="evenodd" clip-rule="evenodd" d="M213.527 127.232C211.624 129.299 205.228 128.993 205.418 127.189C205.444 126.967 205.486 125.646 205.506 125.441C205.523 125.277 205.539 125.116 205.552 124.964C205.594 124.52 205.63 124.127 205.659 123.787C205.744 122.798 205.772 122.261 205.772 122.261H205.779C205.962 122.21 210.074 121.04 212.118 120.556C212.805 120.393 213.26 120.308 213.252 120.367C212.624 124.969 214.151 126.554 213.527 127.232Z" fill="#F0B389"/>
<path fill-rule="evenodd" clip-rule="evenodd" d="M212.335 121.913C212.335 121.913 210.619 123.661 205.659 123.787C205.745 122.798 205.772 122.261 205.772 122.261H205.779C205.962 122.21 210.074 121.04 212.118 120.556C212.479 120.704 212.001 121.665 212.335 121.913Z" fill="#EC9F75"/>
<path fill-rule="evenodd" clip-rule="evenodd" d="M204.515 122.017C204.515 122.017 205.771 122.468 207.372 122.684C209.712 123 212.79 122.814 213.757 119.977C215.386 115.201 217.466 112.338 212.673 110.388C210.108 109.344 208.466 109.288 207.351 109.687C206.383 110.031 205.812 110.718 205.38 111.397C204.449 112.859 202.577 121.181 204.515 122.017Z" fill="#F0B389"/>
<path fill-rule="evenodd" clip-rule="evenodd" d="M205.74 107.701C204.028 108.828 204.587 111.467 206.605 111.823C207.813 112.036 208.828 112.078 209.414 112.34C210.606 112.87 211.63 113.433 211.35 115.285C211.253 115.915 210.946 116.683 212.565 116.302C212.831 116.24 213.022 116.258 213.153 116.337C213.825 116.736 212.967 118.67 212.708 119.089C212.708 119.089 212.335 120.475 213.163 121.149C213.262 121.23 214.886 121.941 218.798 115.942C219.413 115.001 220.001 112.879 219.051 110.837C218.103 108.794 215.456 106.211 210.471 106.211C209.173 106.211 207.223 106.726 205.74 107.701Z" fill="#A9453D"/>
<path fill-rule="evenodd" clip-rule="evenodd" d="M204.478 118.934C204.478 118.934 204.379 119.552 205.813 120.045C205.813 120.045 207.018 120.46 207.238 119.826C207.238 119.826 206.281 118.913 204.478 118.934Z" fill="white"/>
<path fill-rule="evenodd" clip-rule="evenodd" d="M222.482 160.072C221.754 163.463 220.57 164.636 219.904 163.372C217.573 158.942 217.601 157.085 218.611 153.944C219.623 150.802 216.073 145.89 218.611 143.796C221.094 141.749 222.509 145.049 222.57 145.195C222.585 150.387 222.531 155.87 222.482 160.072Z" fill="#9893F6"/>
<path fill-rule="evenodd" clip-rule="evenodd" d="M222.37 159.636C222.37 159.636 220.655 162.446 219.529 162.347C218.404 162.248 216.886 161.827 216.011 162.666C215.134 163.503 213.721 165.664 214.117 166.24C214.51 166.815 216.097 166.305 217.239 165.675C218.378 165.044 220.175 165.985 221.131 165.269C222.088 164.553 224.38 161.711 224.38 161.711L222.37 159.636Z" fill="#FFB27D"/>
<path fill-rule="evenodd" clip-rule="evenodd" d="M221.692 129.004C221.692 129.004 235.93 142.426 234.082 151.355C233.239 155.425 230.624 158.857 223.656 164.414C223.656 164.414 220.36 162.132 219.636 160.28C219.636 160.28 225.962 151.355 225.717 149.837C225.418 147.977 221.1 143.313 219.551 142.588C218.002 141.864 218.144 130.562 221.692 129.004Z" fill="#B2AEFF"/>
<path fill-rule="evenodd" clip-rule="evenodd" d="M219.529 162.347C219.529 162.347 218.029 161.689 217.547 161.407C217.064 161.125 217.171 161.582 217.318 161.809C217.466 162.038 217.868 162.549 218.458 162.602C219.047 162.656 219.529 162.347 219.529 162.347Z" fill="#FFB27D"/>
<path fill-rule="evenodd" clip-rule="evenodd" d="M172.614 241.534H69.3038V98.3179H172.801C176.713 98.3179 179.885 101.495 179.885 105.414V234.249C179.885 238.272 176.63 241.534 172.614 241.534Z" fill="#B04714"/>
<path fill-rule="evenodd" clip-rule="evenodd" d="M127.43 110.392C127.199 110.564 126.921 110.65 126.597 110.65C126.269 110.65 125.99 110.565 125.758 110.395C125.527 110.224 125.409 109.993 125.405 109.702H125.632C125.636 109.94 125.73 110.122 125.915 110.247C126.099 110.372 126.327 110.435 126.597 110.435C126.864 110.435 127.089 110.372 127.274 110.247C127.458 110.122 127.556 109.94 127.569 109.702H127.796C127.784 109.989 127.662 110.219 127.43 110.392ZM107.687 120.147C108.33 120.147 108.806 119.942 109.113 119.531C109.42 119.121 109.574 118.583 109.574 117.918V113.428C109.574 113.108 109.538 112.816 109.467 112.553C109.395 112.291 109.286 112.056 109.141 111.848C108.995 111.641 108.798 111.48 108.551 111.365C108.303 111.25 108.015 111.192 107.687 111.192C107.056 111.192 106.587 111.399 106.282 111.811C105.977 112.224 105.824 112.763 105.824 113.428V117.918C105.824 118.583 105.977 119.121 106.282 119.531C106.587 119.942 107.056 120.147 107.687 120.147ZM101.594 116.341V120.086H101.318V111.254H103.057C104.275 111.254 104.883 111.966 104.883 113.391V114.272C104.883 114.974 104.718 115.494 104.388 115.833C104.059 116.172 103.547 116.341 102.855 116.341H101.594ZM101.594 116.076H102.855C103.469 116.076 103.914 115.935 104.189 115.651C104.463 115.368 104.601 114.912 104.601 114.284V113.373C104.601 112.785 104.484 112.33 104.25 112.005C104.017 111.681 103.619 111.519 103.057 111.519H101.594V116.076ZM106.482 119.356C106.736 119.715 107.138 119.895 107.687 119.895C108.244 119.895 108.652 119.715 108.91 119.356C109.168 118.996 109.297 118.521 109.297 117.93V113.416C109.297 112.824 109.168 112.348 108.91 111.987C108.652 111.625 108.244 111.445 107.687 111.445C107.138 111.445 106.736 111.625 106.482 111.987C106.228 112.348 106.101 112.824 106.101 113.416V117.93C106.101 118.521 106.228 118.996 106.482 119.356ZM112.396 120.147C112.724 120.147 113.009 120.09 113.25 119.975C113.492 119.86 113.685 119.699 113.828 119.491C113.972 119.284 114.077 119.049 114.145 118.786C114.213 118.523 114.246 118.234 114.246 117.918V116.957H113.97V117.93C113.97 118.209 113.942 118.463 113.887 118.691C113.831 118.918 113.744 119.124 113.626 119.306C113.507 119.489 113.344 119.631 113.137 119.731C112.93 119.832 112.687 119.882 112.408 119.882C112.125 119.882 111.88 119.832 111.671 119.731C111.461 119.631 111.298 119.489 111.179 119.306C111.06 119.124 110.973 118.918 110.917 118.691C110.862 118.463 110.834 118.209 110.834 117.93V113.416C110.834 113.136 110.862 112.882 110.917 112.652C110.973 112.422 111.06 112.215 111.179 112.03C111.298 111.845 111.461 111.701 111.671 111.599C111.88 111.496 112.125 111.445 112.408 111.445C112.949 111.445 113.345 111.627 113.595 111.99C113.845 112.353 113.97 112.828 113.97 113.416V114.105H114.246V113.428C114.246 113.112 114.213 112.822 114.145 112.56C114.077 112.297 113.972 112.062 113.828 111.854C113.685 111.647 113.492 111.485 113.25 111.368C113.009 111.251 112.724 111.192 112.396 111.192C112.072 111.192 111.789 111.251 111.548 111.368C111.306 111.485 111.114 111.647 110.973 111.854C110.831 112.062 110.727 112.297 110.659 112.56C110.592 112.822 110.558 113.112 110.558 113.428V117.918C110.558 118.234 110.592 118.523 110.659 118.786C110.727 119.049 110.831 119.284 110.973 119.491C111.114 119.699 111.306 119.86 111.548 119.975C111.789 120.09 112.072 120.147 112.396 120.147ZM117.904 119.975C117.663 120.09 117.378 120.147 117.05 120.147C116.726 120.147 116.443 120.09 116.201 119.975C115.96 119.86 115.768 119.699 115.627 119.491C115.485 119.284 115.381 119.049 115.313 118.786C115.245 118.523 115.212 118.234 115.212 117.918V113.428C115.212 113.112 115.245 112.822 115.313 112.56C115.381 112.297 115.485 112.062 115.627 111.854C115.768 111.647 115.96 111.485 116.201 111.368C116.443 111.251 116.726 111.192 117.05 111.192C117.378 111.192 117.663 111.251 117.904 111.368C118.146 111.485 118.339 111.647 118.482 111.854C118.626 112.062 118.731 112.297 118.799 112.56C118.866 112.822 118.9 113.112 118.9 113.428V114.105H118.624V113.416C118.624 112.828 118.499 112.353 118.249 111.99C117.999 111.627 117.603 111.445 117.062 111.445C116.779 111.445 116.533 111.496 116.324 111.599C116.115 111.701 115.951 111.845 115.833 112.03C115.714 112.215 115.627 112.422 115.571 112.652C115.516 112.882 115.488 113.136 115.488 113.416V117.93C115.488 118.209 115.516 118.463 115.571 118.691C115.627 118.918 115.714 119.124 115.833 119.306C115.951 119.489 116.115 119.631 116.324 119.731C116.533 119.832 116.779 119.882 117.062 119.882C117.341 119.882 117.584 119.832 117.791 119.731C117.998 119.631 118.161 119.489 118.279 119.306C118.398 119.124 118.485 118.918 118.541 118.691C118.596 118.463 118.624 118.209 118.624 117.93V116.957H118.9V117.918C118.9 118.234 118.866 118.523 118.799 118.786C118.731 119.049 118.626 119.284 118.482 119.491C118.339 119.699 118.146 119.86 117.904 119.975ZM120.216 120.086L121.765 115.898L123.364 111.685V120.086H123.628V111.254H123.253L120.142 119.556V111.254H119.878V120.086H120.216ZM124.974 120.086L126.61 115.682L128.122 111.685V120.086H128.386V111.254H128.011L124.901 119.556V111.254H124.636V120.086H124.974ZM132.075 119.975C131.833 120.09 131.548 120.147 131.22 120.147C130.897 120.147 130.614 120.09 130.372 119.975C130.13 119.86 129.939 119.699 129.797 119.491C129.656 119.284 129.551 119.049 129.484 118.786C129.416 118.523 129.382 118.234 129.382 117.918V113.428C129.382 113.112 129.416 112.822 129.484 112.56C129.551 112.297 129.656 112.062 129.797 111.854C129.939 111.647 130.13 111.485 130.372 111.368C130.614 111.251 130.897 111.192 131.22 111.192C131.548 111.192 131.833 111.251 132.075 111.368C132.317 111.485 132.509 111.647 132.653 111.854C132.796 112.062 132.902 112.297 132.97 112.56C133.037 112.822 133.071 113.112 133.071 113.428V114.105H132.794V113.416C132.794 112.828 132.669 112.353 132.419 111.99C132.169 111.627 131.774 111.445 131.233 111.445C130.95 111.445 130.704 111.496 130.495 111.599C130.286 111.701 130.122 111.845 130.003 112.03C129.884 112.215 129.797 112.422 129.742 112.652C129.687 112.882 129.659 113.136 129.659 113.416V117.93C129.659 118.209 129.687 118.463 129.742 118.691C129.797 118.918 129.884 119.124 130.003 119.306C130.122 119.489 130.286 119.631 130.495 119.731C130.704 119.832 130.95 119.882 131.233 119.882C131.511 119.882 131.754 119.832 131.961 119.731C132.168 119.631 132.331 119.489 132.45 119.306C132.569 119.124 132.656 118.918 132.711 118.691C132.767 118.463 132.794 118.209 132.794 117.93V116.957H133.071V117.918C133.071 118.234 133.037 118.523 132.97 118.786C132.902 119.049 132.796 119.284 132.653 119.491C132.509 119.699 132.317 119.86 132.075 119.975ZM134.325 120.086V116.704L134.995 115.694L137.823 120.086H138.124L135.167 115.43L137.903 111.254H137.596L134.325 116.236V111.254H134.048V120.086H134.325ZM139.827 118.004L139.311 120.086H139.059L141.186 111.242H141.573L143.756 120.086H143.479L142.963 118.004H139.827ZM142.907 117.751H139.877L141.377 111.574L142.907 117.751ZM145.213 119.039C145.213 119.515 145.141 119.864 144.998 120.086H144.696C144.856 119.868 144.936 119.519 144.936 119.039V117.653C144.936 116.618 145.401 116.029 146.332 115.885C145.848 115.795 145.495 115.6 145.271 115.3C145.048 115 144.936 114.578 144.936 114.031V113.237C144.936 111.915 145.541 111.254 146.75 111.254H148.496V120.086H148.219V116.008H147.137C146.514 116.008 146.038 116.13 145.708 116.372C145.378 116.614 145.213 117.041 145.213 117.653V119.039ZM148.219 115.744H147.137C146.813 115.744 146.54 115.72 146.316 115.673C146.093 115.626 145.894 115.541 145.72 115.42C145.546 115.299 145.418 115.127 145.336 114.903C145.254 114.679 145.213 114.401 145.213 114.068V113.262C145.213 112.699 145.335 112.268 145.579 111.968C145.823 111.669 146.217 111.519 146.762 111.519H148.219V115.744ZM104.908 131.75V132.699H104.644V131.75H103.851C103.141 131.75 102.628 131.56 102.31 131.18C101.993 130.801 101.834 130.247 101.834 129.521V127.113C101.834 126.386 101.993 125.832 102.31 125.45C102.628 125.068 103.141 124.877 103.851 124.877H104.644V123.867H104.908V124.877H105.701C106.406 124.877 106.919 125.069 107.241 125.453C107.563 125.837 107.724 126.39 107.724 127.113V129.521C107.724 130.243 107.563 130.796 107.241 131.177C106.919 131.559 106.406 131.75 105.701 131.75H104.908ZM104.644 131.498H103.851C103.232 131.498 102.787 131.331 102.516 130.999C102.246 130.666 102.111 130.178 102.111 129.533V127.1C102.111 126.456 102.246 125.966 102.516 125.631C102.787 125.297 103.232 125.13 103.851 125.13H104.644V131.498ZM104.908 131.498H105.701C106.32 131.498 106.766 131.33 107.038 130.996C107.311 130.661 107.447 130.174 107.447 129.533V127.1C107.447 126.456 107.312 125.966 107.041 125.631C106.771 125.297 106.324 125.13 105.701 125.13H104.908V131.498ZM112.082 132.699V132.434H108.996V128.344H111.591V128.092H108.996V124.132H112.082V123.867H108.72V132.699H112.082ZM113.3 132.699V133.936H113.023V132.434H113.65C113.826 132.257 113.944 132.05 114.004 131.812C114.063 131.574 114.101 131.276 114.117 130.919L114.48 123.867H117.468V132.434H118.249V133.936H117.972V132.699H113.3ZM117.191 132.434H113.964C114.078 132.306 114.167 132.153 114.228 131.972C114.289 131.791 114.328 131.636 114.345 131.507C114.361 131.378 114.378 131.186 114.394 130.931L114.744 124.132H117.191V132.434ZM122.589 132.434V132.699H119.226V123.867H122.589V124.132H119.503V128.092H122.097V128.344H119.503V132.434H122.589ZM123.843 132.699V128.954H125.103C125.796 128.954 126.307 128.785 126.637 128.446C126.967 128.107 127.132 127.587 127.132 126.885V126.004C127.132 124.579 126.524 123.867 125.306 123.867H123.566V132.699H123.843ZM123.843 128.689H125.103C125.718 128.689 126.163 128.548 126.437 128.264C126.712 127.981 126.849 127.525 126.849 126.897V125.986C126.849 125.398 126.733 124.943 126.499 124.618C126.265 124.294 125.868 124.132 125.306 124.132H123.843V128.689ZM128.3 132.699L128.817 130.617H131.952L132.468 132.699H132.745L130.563 123.855H130.175L128.048 132.699H128.3ZM128.866 130.364H131.897L130.366 124.187L128.866 130.364ZM138.444 133.887V132.434H137.663V123.867H137.374V132.434H134.202V123.867H133.938V132.699H138.167V133.887H138.444ZM141.321 128.511L139.772 132.699H139.434V123.867H139.698V132.169L142.809 123.867H143.184V132.699H142.92V124.298L141.321 128.511ZM144.469 132.699C144.612 132.477 144.684 132.128 144.684 131.652V130.266C144.684 129.654 144.849 129.227 145.179 128.985C145.509 128.743 145.985 128.622 146.608 128.622H147.69V132.699H147.967V123.867H146.221C145.012 123.867 144.407 124.528 144.407 125.85V126.645C144.407 127.191 144.519 127.614 144.743 127.913C144.966 128.213 145.319 128.408 145.803 128.498C144.873 128.642 144.407 129.231 144.407 130.266V131.652C144.407 132.132 144.328 132.481 144.168 132.699H144.469ZM146.608 128.357H147.69V124.132H146.233C145.688 124.132 145.294 124.282 145.05 124.581C144.806 124.881 144.684 125.312 144.684 125.875V126.682C144.684 127.014 144.725 127.292 144.807 127.516C144.889 127.74 145.017 127.912 145.191 128.033C145.366 128.154 145.564 128.239 145.788 128.286C146.011 128.333 146.285 128.357 146.608 128.357Z" fill="#F99746"/>
<path d="M127.43 110.392L127.371 110.311V110.311L127.43 110.392ZM125.758 110.395L125.817 110.314V110.314L125.758 110.395ZM125.405 109.702V109.602H125.303L125.305 109.703L125.405 109.702ZM125.632 109.702L125.732 109.7L125.73 109.602H125.632V109.702ZM125.915 110.247L125.971 110.164V110.164L125.915 110.247ZM127.274 110.247L127.33 110.33V110.33L127.274 110.247ZM127.569 109.702V109.602H127.474L127.469 109.697L127.569 109.702ZM127.796 109.702L127.896 109.706L127.901 109.602H127.796V109.702ZM109.113 119.531L109.193 119.591L109.113 119.531ZM109.467 112.553L109.37 112.58V112.58L109.467 112.553ZM109.141 111.848L109.223 111.791L109.141 111.848ZM106.282 111.811L106.202 111.752L106.282 111.811ZM101.594 120.086V120.186H101.694V120.086H101.594ZM101.594 116.341V116.241H101.494V116.341H101.594ZM101.318 120.086H101.218V120.186H101.318V120.086ZM101.318 111.254V111.154H101.218V111.254H101.318ZM101.594 116.076H101.494V116.176H101.594V116.076ZM104.189 115.651L104.26 115.721L104.189 115.651ZM104.25 112.005L104.169 112.064V112.064L104.25 112.005ZM101.594 111.519V111.419H101.494V111.519H101.594ZM106.482 119.356L106.563 119.298L106.482 119.356ZM108.91 119.356L108.991 119.414L108.91 119.356ZM108.91 111.987L108.992 111.929V111.929L108.91 111.987ZM106.482 111.987L106.564 112.044L106.564 112.044L106.482 111.987ZM113.25 119.975L113.208 119.884H113.208L113.25 119.975ZM113.828 119.491L113.746 119.434L113.828 119.491ZM114.145 118.786L114.242 118.811L114.145 118.786ZM114.246 116.957H114.346V116.857H114.246V116.957ZM113.97 116.957V116.857H113.87V116.957H113.97ZM113.137 119.731L113.093 119.641H113.093L113.137 119.731ZM111.671 119.731L111.714 119.641V119.641L111.671 119.731ZM111.671 111.599L111.715 111.689L111.671 111.599ZM113.97 114.105H113.87V114.205H113.97V114.105ZM114.246 114.105V114.205H114.346V114.105H114.246ZM113.828 111.854L113.746 111.911L113.828 111.854ZM111.548 111.368L111.504 111.278L111.548 111.368ZM110.973 111.854L111.055 111.911V111.911L110.973 111.854ZM110.659 118.786L110.562 118.811L110.659 118.786ZM110.973 119.491L111.055 119.435L110.973 119.491ZM111.548 119.975L111.59 119.884L111.548 119.975ZM117.904 119.975L117.861 119.884L117.904 119.975ZM116.201 119.975L116.244 119.884L116.201 119.975ZM115.627 119.491L115.709 119.435L115.627 119.491ZM115.313 118.786L115.216 118.811L115.313 118.786ZM115.627 111.854L115.709 111.911V111.911L115.627 111.854ZM116.201 111.368L116.158 111.278L116.201 111.368ZM118.482 111.854L118.4 111.911L118.482 111.854ZM118.799 112.56L118.702 112.584V112.584L118.799 112.56ZM118.9 114.105V114.205H119V114.105H118.9ZM118.624 114.105H118.524V114.205H118.624V114.105ZM116.324 111.599L116.368 111.689L116.324 111.599ZM116.324 119.731L116.368 119.641V119.641L116.324 119.731ZM117.791 119.731L117.834 119.821L117.791 119.731ZM118.541 118.691L118.638 118.714L118.638 118.714L118.541 118.691ZM118.624 116.957V116.857H118.524V116.957H118.624ZM118.9 116.957H119V116.857H118.9V116.957ZM118.799 118.786L118.702 118.761L118.799 118.786ZM118.482 119.491L118.4 119.434V119.434L118.482 119.491ZM121.765 115.898L121.672 115.862L121.671 115.863L121.765 115.898ZM120.216 120.086V120.186H120.286L120.31 120.12L120.216 120.086ZM123.364 111.685H123.464L123.27 111.65L123.364 111.685ZM123.364 120.086H123.264V120.186H123.364V120.086ZM123.628 120.086V120.186H123.728V120.086H123.628ZM123.628 111.254H123.728V111.154H123.628V111.254ZM123.253 111.254V111.154H123.184L123.159 111.219L123.253 111.254ZM120.142 119.556H120.042L120.236 119.591L120.142 119.556ZM120.142 111.254H120.242V111.154H120.142V111.254ZM119.878 111.254V111.154H119.778V111.254H119.878ZM119.878 120.086H119.778V120.186H119.878V120.086ZM126.61 115.682L126.516 115.647L126.516 115.647L126.61 115.682ZM124.974 120.086V120.186H125.044L125.068 120.12L124.974 120.086ZM128.122 111.685H128.222L128.028 111.65L128.122 111.685ZM128.122 120.086H128.022V120.186H128.122V120.086ZM128.386 120.086V120.186H128.486V120.086H128.386ZM128.386 111.254H128.486V111.154H128.386V111.254ZM128.011 111.254V111.154H127.942L127.918 111.219L128.011 111.254ZM124.901 119.556H124.801L124.994 119.591L124.901 119.556ZM124.901 111.254H125.001V111.154H124.901V111.254ZM124.636 111.254V111.154H124.536V111.254H124.636ZM124.636 120.086H124.536V120.186H124.636V120.086ZM132.075 119.975L132.032 119.884L132.075 119.975ZM130.372 119.975L130.415 119.884L130.372 119.975ZM129.797 119.491L129.88 119.435L129.797 119.491ZM129.484 118.786L129.387 118.811L129.484 118.786ZM129.797 111.854L129.88 111.911L129.797 111.854ZM132.653 111.854L132.571 111.911L132.653 111.854ZM132.97 112.56L133.066 112.535V112.535L132.97 112.56ZM133.071 114.105V114.205H133.171V114.105H133.071ZM132.794 114.105H132.694V114.205H132.794V114.105ZM130.495 111.599L130.451 111.509V111.509L130.495 111.599ZM130.003 112.03L129.919 111.976V111.976L130.003 112.03ZM130.003 119.306L129.919 119.361L130.003 119.306ZM130.495 119.731L130.452 119.821V119.821L130.495 119.731ZM131.961 119.731L132.005 119.821L131.961 119.731ZM132.711 118.691L132.614 118.667L132.614 118.667L132.711 118.691ZM132.794 116.957V116.857H132.694V116.957H132.794ZM133.071 116.957H133.171V116.857H133.071V116.957ZM132.97 118.786L133.066 118.811V118.811L132.97 118.786ZM132.653 119.491L132.571 119.434V119.434L132.653 119.491ZM134.325 116.704L134.242 116.649L134.225 116.674V116.704H134.325ZM134.325 120.086V120.186H134.425V120.086H134.325ZM134.995 115.694L135.079 115.64L134.996 115.512L134.912 115.639L134.995 115.694ZM137.823 120.086L137.739 120.14L137.769 120.186H137.823V120.086ZM138.124 120.086V120.186H138.306L138.209 120.032L138.124 120.086ZM135.167 115.43L135.084 115.375L135.048 115.429L135.083 115.483L135.167 115.43ZM137.903 111.254L137.987 111.309L138.088 111.154H137.903V111.254ZM137.596 111.254V111.154H137.542L137.512 111.199L137.596 111.254ZM134.325 116.236H134.225V116.571L134.409 116.291L134.325 116.236ZM134.325 111.254H134.425V111.154H134.325V111.254ZM134.048 111.254V111.154H133.948V111.254H134.048ZM134.048 120.086H133.948V120.186H134.048V120.086ZM139.311 120.086V120.186H139.389L139.408 120.11L139.311 120.086ZM139.827 118.004V117.904H139.749L139.73 117.98L139.827 118.004ZM139.059 120.086L138.962 120.062L138.932 120.186H139.059V120.086ZM141.186 111.242V111.142H141.107L141.089 111.218L141.186 111.242ZM141.573 111.242L141.67 111.218L141.652 111.142H141.573V111.242ZM143.756 120.086V120.186H143.883L143.853 120.062L143.756 120.086ZM143.479 120.086L143.382 120.11L143.401 120.186H143.479V120.086ZM142.963 118.004L143.06 117.98L143.041 117.904H142.963V118.004ZM139.877 117.751L139.779 117.728L139.749 117.851H139.877V117.751ZM142.907 117.751V117.851H143.035L143.004 117.727L142.907 117.751ZM141.377 111.574L141.474 111.55L141.279 111.551L141.377 111.574ZM144.998 120.086V120.186H145.052L145.082 120.14L144.998 120.086ZM144.696 120.086L144.616 120.026L144.499 120.186H144.696V120.086ZM146.332 115.885L146.347 115.984L146.35 115.787L146.332 115.885ZM148.496 111.254H148.596V111.154H148.496V111.254ZM148.496 120.086V120.186H148.596V120.086H148.496ZM148.219 120.086H148.119V120.186H148.219V120.086ZM148.219 116.008H148.319V115.908H148.219V116.008ZM145.708 116.372L145.649 116.291L145.649 116.291L145.708 116.372ZM148.219 115.744V115.844H148.319V115.744H148.219ZM145.72 115.42L145.777 115.338V115.338L145.72 115.42ZM145.336 114.903L145.43 114.869L145.336 114.903ZM145.579 111.968L145.501 111.905L145.579 111.968ZM148.219 111.519H148.319V111.419H148.219V111.519ZM104.908 132.699V132.799H105.008V132.699H104.908ZM104.908 131.75V131.65H104.808V131.75H104.908ZM104.644 132.699H104.544V132.799H104.644V132.699ZM104.644 131.75H104.744V131.65H104.644V131.75ZM102.31 131.18L102.234 131.245H102.234L102.31 131.18ZM102.31 125.45L102.387 125.514H102.387L102.31 125.45ZM104.644 124.877V124.977H104.744V124.877H104.644ZM104.644 123.867V123.767H104.544V123.867H104.644ZM104.908 123.867H105.008V123.767H104.908V123.867ZM104.908 124.877H104.808V124.977H104.908V124.877ZM107.241 125.453L107.318 125.389L107.241 125.453ZM107.241 131.177L107.165 131.113H107.165L107.241 131.177ZM104.644 131.498V131.598H104.744V131.498H104.644ZM102.516 130.999L102.594 130.936L102.516 130.999ZM102.516 125.631L102.594 125.694L102.516 125.631ZM104.644 125.13H104.744V125.03H104.644V125.13ZM104.908 131.498H104.808V131.598H104.908V131.498ZM107.038 130.996L106.961 130.933H106.961L107.038 130.996ZM104.908 125.13V125.03H104.808V125.13H104.908ZM112.082 132.434H112.182V132.334H112.082V132.434ZM112.082 132.699V132.799H112.182V132.699H112.082ZM108.996 132.434H108.896V132.534H108.996V132.434ZM108.996 128.344V128.244H108.896V128.344H108.996ZM111.591 128.344V128.444H111.691V128.344H111.591ZM111.591 128.092H111.691V127.992H111.591V128.092ZM108.996 128.092H108.896V128.192H108.996V128.092ZM108.996 124.132V124.032H108.896V124.132H108.996ZM112.082 124.132V124.232H112.182V124.132H112.082ZM112.082 123.867H112.182V123.767H112.082V123.867ZM108.72 123.867V123.767H108.62V123.867H108.72ZM108.72 132.699H108.62V132.799H108.72V132.699ZM113.3 133.936V134.036H113.4V133.936H113.3ZM113.3 132.699V132.599H113.2V132.699H113.3ZM113.023 133.936H112.923V134.036H113.023V133.936ZM113.023 132.434V132.334H112.923V132.434H113.023ZM113.65 132.434V132.534H113.692L113.721 132.504L113.65 132.434ZM114.004 131.812L114.101 131.836V131.836L114.004 131.812ZM114.117 130.919L114.017 130.914L114.017 130.914L114.117 130.919ZM114.48 123.867V123.767H114.385L114.38 123.862L114.48 123.867ZM117.468 123.867H117.568V123.767H117.468V123.867ZM117.468 132.434H117.368V132.534H117.468V132.434ZM118.249 132.434H118.349V132.334H118.249V132.434ZM118.249 133.936V134.036H118.349V133.936H118.249ZM117.972 133.936H117.872V134.036H117.972V133.936ZM117.972 132.699H118.072V132.599H117.972V132.699ZM113.964 132.434L113.889 132.367L113.739 132.534H113.964V132.434ZM117.191 132.434V132.534H117.291V132.434H117.191ZM114.228 131.972L114.133 131.94V131.94L114.228 131.972ZM114.345 131.507L114.246 131.494L114.345 131.507ZM114.394 130.931L114.494 130.937L114.494 130.936L114.394 130.931ZM114.744 124.132V124.032H114.649L114.645 124.127L114.744 124.132ZM117.191 124.132H117.291V124.032H117.191V124.132ZM122.589 132.699V132.799H122.689V132.699H122.589ZM122.589 132.434H122.689V132.334H122.589V132.434ZM119.226 132.699H119.126V132.799H119.226V132.699ZM119.226 123.867V123.767H119.126V123.867H119.226ZM122.589 123.867H122.689V123.767H122.589V123.867ZM122.589 124.132V124.232H122.689V124.132H122.589ZM119.503 124.132V124.032H119.403V124.132H119.503ZM119.503 128.092H119.403V128.192H119.503V128.092ZM122.097 128.092H122.197V127.992H122.097V128.092ZM122.097 128.344V128.444H122.197V128.344H122.097ZM119.503 128.344V128.244H119.403V128.344H119.503ZM119.503 132.434H119.403V132.534H119.503V132.434ZM123.843 128.954V128.854H123.743V128.954H123.843ZM123.843 132.699V132.799H123.943V132.699H123.843ZM126.637 128.446L126.709 128.516L126.637 128.446ZM123.566 123.867V123.767H123.466V123.867H123.566ZM123.566 132.699H123.466V132.799H123.566V132.699ZM123.843 128.689H123.743V128.789H123.843V128.689ZM126.437 128.264L126.509 128.334L126.437 128.264ZM126.499 124.618L126.58 124.56L126.499 124.618ZM123.843 124.132V124.032H123.743V124.132H123.843ZM128.817 130.617V130.517H128.738L128.72 130.593L128.817 130.617ZM128.3 132.699V132.799H128.379L128.397 132.723L128.3 132.699ZM131.952 130.617L132.049 130.593L132.03 130.517H131.952V130.617ZM132.468 132.699L132.371 132.723L132.39 132.799H132.468V132.699ZM132.745 132.699V132.799H132.873L132.842 132.675L132.745 132.699ZM130.563 123.855L130.66 123.831L130.641 123.755H130.563V123.855ZM130.175 123.855V123.755H130.097L130.078 123.831L130.175 123.855ZM128.048 132.699L127.951 132.675L127.921 132.799H128.048V132.699ZM131.897 130.364V130.464H132.025L131.994 130.34L131.897 130.364ZM128.866 130.364L128.769 130.341L128.739 130.464H128.866V130.364ZM130.366 124.187L130.463 124.163L130.269 124.164L130.366 124.187ZM138.444 132.434H138.544V132.334H138.444V132.434ZM138.444 133.887V133.987H138.544V133.887H138.444ZM137.663 132.434H137.563V132.534H137.663V132.434ZM137.663 123.867H137.763V123.767H137.663V123.867ZM137.374 123.867V123.767H137.274V123.867H137.374ZM137.374 132.434V132.534H137.474V132.434H137.374ZM134.202 132.434H134.102V132.534H134.202V132.434ZM134.202 123.867H134.302V123.767H134.202V123.867ZM133.938 123.867V123.767H133.838V123.867H133.938ZM133.938 132.699H133.838V132.799H133.938V132.699ZM138.167 132.699H138.267V132.599H138.167V132.699ZM138.167 133.887H138.067V133.987H138.167V133.887ZM139.772 132.699V132.799H139.842L139.866 132.733L139.772 132.699ZM141.321 128.511L141.228 128.475L141.228 128.476L141.321 128.511ZM139.434 132.699H139.334V132.799H139.434V132.699ZM139.434 123.867V123.767H139.334V123.867H139.434ZM139.698 123.867H139.798V123.767H139.698V123.867ZM139.698 132.169H139.598L139.792 132.204L139.698 132.169ZM142.809 123.867V123.767H142.74L142.715 123.832L142.809 123.867ZM143.184 123.867H143.284V123.767H143.184V123.867ZM143.184 132.699V132.799H143.284V132.699H143.184ZM142.92 132.699H142.82V132.799H142.92V132.699ZM142.92 124.298H143.02L142.826 124.263L142.92 124.298ZM144.469 132.699V132.799H144.523L144.553 132.753L144.469 132.699ZM145.179 128.985L145.12 128.904H145.12L145.179 128.985ZM147.69 128.622H147.79V128.522H147.69V128.622ZM147.69 132.699H147.59V132.799H147.69V132.699ZM147.967 132.699V132.799H148.067V132.699H147.967ZM147.967 123.867H148.067V123.767H147.967V123.867ZM145.803 128.498L145.818 128.597L145.821 128.4L145.803 128.498ZM144.168 132.699L144.087 132.639L143.97 132.799H144.168V132.699ZM147.69 128.357V128.457H147.79V128.357H147.69ZM147.69 124.132H147.79V124.032H147.69V124.132ZM144.807 127.516L144.713 127.55L144.807 127.516ZM145.191 128.033L145.248 127.951L145.191 128.033ZM126.597 110.75C126.94 110.75 127.239 110.659 127.49 110.472L127.371 110.311C127.158 110.47 126.902 110.55 126.597 110.55V110.75ZM125.699 110.475C125.95 110.66 126.251 110.75 126.597 110.75V110.55C126.288 110.55 126.029 110.47 125.817 110.314L125.699 110.475ZM125.305 109.703C125.309 110.026 125.442 110.286 125.699 110.475L125.817 110.314C125.611 110.163 125.508 109.961 125.505 109.7L125.305 109.703ZM125.632 109.602H125.405V109.802H125.632V109.602ZM125.971 110.164C125.816 110.059 125.736 109.908 125.732 109.7L125.532 109.704C125.537 109.972 125.645 110.185 125.859 110.33L125.971 110.164ZM126.597 110.335C126.343 110.335 126.136 110.276 125.971 110.164L125.859 110.33C126.063 110.468 126.311 110.535 126.597 110.535V110.335ZM127.217 110.164C127.053 110.276 126.848 110.335 126.597 110.335V110.535C126.88 110.535 127.126 110.468 127.33 110.33L127.217 110.164ZM127.469 109.697C127.458 109.906 127.374 110.058 127.217 110.164L127.33 110.33C127.542 110.185 127.655 109.974 127.669 109.707L127.469 109.697ZM127.796 109.602H127.569V109.802H127.796V109.602ZM127.49 110.472C127.746 110.282 127.882 110.024 127.896 109.706L127.696 109.698C127.685 109.955 127.578 110.157 127.371 110.311L127.49 110.472ZM109.033 119.471C108.749 119.85 108.308 120.047 107.687 120.047V120.247C108.353 120.247 108.862 120.033 109.193 119.591L109.033 119.471ZM109.474 117.918C109.474 118.568 109.324 119.083 109.033 119.471L109.193 119.591C109.517 119.159 109.674 118.598 109.674 117.918H109.474ZM109.474 113.428V117.918H109.674V113.428H109.474ZM109.37 112.58C109.439 112.833 109.474 113.115 109.474 113.428H109.674C109.674 113.1 109.637 112.8 109.563 112.527L109.37 112.58ZM109.059 111.906C109.197 112.103 109.301 112.327 109.37 112.58L109.563 112.527C109.488 112.254 109.375 112.008 109.223 111.791L109.059 111.906ZM108.508 111.455C108.742 111.564 108.924 111.714 109.059 111.906L109.223 111.791C109.066 111.568 108.855 111.396 108.593 111.274L108.508 111.455ZM107.687 111.292C108.003 111.292 108.276 111.348 108.508 111.455L108.593 111.274C108.329 111.152 108.026 111.092 107.687 111.092V111.292ZM106.362 111.871C106.644 111.49 107.079 111.292 107.687 111.292V111.092C107.032 111.092 106.53 111.308 106.202 111.752L106.362 111.871ZM105.924 113.428C105.924 112.778 106.073 112.262 106.362 111.871L106.202 111.752C105.88 112.186 105.724 112.748 105.724 113.428H105.924ZM105.924 117.918V113.428H105.724V117.918H105.924ZM106.362 119.472C106.073 119.083 105.924 118.568 105.924 117.918H105.724C105.724 118.598 105.88 119.159 106.202 119.591L106.362 119.472ZM107.687 120.047C107.079 120.047 106.644 119.851 106.362 119.472L106.202 119.591C106.53 120.033 107.032 120.247 107.687 120.247V120.047ZM101.694 120.086V116.341H101.494V120.086H101.694ZM101.318 120.186H101.594V119.986H101.318V120.186ZM101.218 111.254V120.086H101.418V111.254H101.218ZM103.057 111.154H101.318V111.354H103.057V111.154ZM104.983 113.391C104.983 112.667 104.829 112.105 104.503 111.723C104.174 111.339 103.686 111.154 103.057 111.154V111.354C103.646 111.354 104.071 111.525 104.351 111.853C104.633 112.184 104.783 112.691 104.783 113.391H104.983ZM104.983 114.272V113.391H104.783V114.272H104.983ZM104.46 115.903C104.815 115.538 104.983 114.987 104.983 114.272H104.783C104.783 114.96 104.621 115.45 104.317 115.763L104.46 115.903ZM102.855 116.441C103.562 116.441 104.104 116.268 104.46 115.903L104.317 115.763C104.013 116.075 103.533 116.241 102.855 116.241V116.441ZM101.594 116.441H102.855V116.241H101.594V116.441ZM102.855 115.976H101.594V116.176H102.855V115.976ZM104.117 115.582C103.869 115.837 103.457 115.976 102.855 115.976V116.176C103.482 116.176 103.959 116.032 104.26 115.721L104.117 115.582ZM104.501 114.284C104.501 114.901 104.365 115.325 104.117 115.582L104.26 115.721C104.561 115.41 104.701 114.923 104.701 114.284H104.501ZM104.501 113.373V114.284H104.701V113.373H104.501ZM104.169 112.064C104.386 112.365 104.501 112.797 104.501 113.373H104.701C104.701 112.774 104.582 112.294 104.331 111.947L104.169 112.064ZM103.057 111.619C103.601 111.619 103.961 111.775 104.169 112.064L104.331 111.947C104.072 111.587 103.637 111.419 103.057 111.419V111.619ZM101.594 111.619H103.057V111.419H101.594V111.619ZM101.694 116.076V111.519H101.494V116.076H101.694ZM107.687 119.795C107.161 119.795 106.794 119.624 106.563 119.298L106.4 119.413C106.678 119.806 107.114 119.995 107.687 119.995V119.795ZM108.829 119.297C108.594 119.624 108.221 119.795 107.687 119.795V119.995C108.267 119.995 108.71 119.806 108.991 119.414L108.829 119.297ZM109.197 117.93C109.197 118.507 109.071 118.96 108.829 119.297L108.991 119.414C109.265 119.033 109.397 118.535 109.397 117.93H109.197ZM109.197 113.416V117.93H109.397V113.416H109.197ZM108.829 112.045C109.071 112.384 109.197 112.838 109.197 113.416H109.397C109.397 112.81 109.265 112.312 108.992 111.929L108.829 112.045ZM107.687 111.545C108.221 111.545 108.594 111.717 108.829 112.045L108.992 111.929C108.71 111.534 108.267 111.345 107.687 111.345V111.545ZM106.564 112.044C106.794 111.716 107.161 111.545 107.687 111.545V111.345C107.114 111.345 106.677 111.535 106.4 111.929L106.564 112.044ZM106.201 113.416C106.201 112.838 106.325 112.384 106.564 112.044L106.4 111.929C106.131 112.312 106.001 112.811 106.001 113.416H106.201ZM106.201 117.93V113.416H106.001V117.93H106.201ZM106.563 119.298C106.325 118.961 106.201 118.508 106.201 117.93H106.001C106.001 118.535 106.131 119.032 106.4 119.413L106.563 119.298ZM113.208 119.884C112.982 119.992 112.712 120.047 112.396 120.047V120.247C112.735 120.247 113.036 120.188 113.293 120.065L113.208 119.884ZM113.746 119.434C113.613 119.626 113.435 119.776 113.208 119.884L113.293 120.065C113.55 119.943 113.757 119.771 113.911 119.548L113.746 119.434ZM114.048 118.761C113.983 119.013 113.882 119.237 113.746 119.434L113.911 119.548C114.061 119.33 114.171 119.084 114.242 118.811L114.048 118.761ZM114.146 117.918C114.146 118.227 114.113 118.508 114.048 118.761L114.242 118.811C114.312 118.539 114.346 118.241 114.346 117.918H114.146ZM114.146 116.957V117.918H114.346V116.957H114.146ZM113.97 117.057H114.246V116.857H113.97V117.057ZM114.07 117.93V116.957H113.87V117.93H114.07ZM113.984 118.714C114.041 118.477 114.07 118.216 114.07 117.93H113.87C113.87 118.203 113.843 118.448 113.79 118.667L113.984 118.714ZM113.709 119.361C113.835 119.168 113.926 118.952 113.984 118.714L113.79 118.667C113.737 118.885 113.654 119.079 113.542 119.252L113.709 119.361ZM113.18 119.821C113.403 119.713 113.58 119.56 113.709 119.361L113.542 119.252C113.433 119.419 113.285 119.548 113.093 119.641L113.18 119.821ZM112.408 119.982C112.699 119.982 112.957 119.93 113.18 119.821L113.093 119.641C112.902 119.734 112.675 119.782 112.408 119.782V119.982ZM111.627 119.821C111.852 119.93 112.114 119.982 112.408 119.982V119.782C112.137 119.782 111.907 119.734 111.714 119.641L111.627 119.821ZM111.095 119.361C111.224 119.56 111.403 119.713 111.627 119.821L111.714 119.641C111.52 119.548 111.371 119.418 111.263 119.252L111.095 119.361ZM110.82 118.714C110.878 118.952 110.969 119.168 111.095 119.361L111.263 119.252C111.15 119.079 111.067 118.885 111.015 118.667L110.82 118.714ZM110.734 117.93C110.734 118.216 110.763 118.477 110.82 118.714L111.015 118.667C110.961 118.448 110.934 118.203 110.934 117.93H110.734ZM110.734 113.416V117.93H110.934V113.416H110.734ZM110.82 112.629C110.763 112.867 110.734 113.13 110.734 113.416H110.934C110.934 113.143 110.961 112.896 111.015 112.675L110.82 112.629ZM111.095 111.976C110.969 112.171 110.878 112.389 110.82 112.629L111.015 112.675C111.068 112.455 111.15 112.259 111.263 112.084L111.095 111.976ZM111.626 111.509C111.402 111.619 111.224 111.775 111.095 111.976L111.263 112.084C111.371 111.915 111.521 111.784 111.715 111.689L111.626 111.509ZM112.408 111.345C112.113 111.345 111.852 111.398 111.626 111.509L111.715 111.689C111.907 111.594 112.137 111.545 112.408 111.545V111.345ZM113.677 111.933C113.404 111.536 112.974 111.345 112.408 111.345V111.545C112.925 111.545 113.285 111.717 113.512 112.047L113.677 111.933ZM114.07 113.416C114.07 112.815 113.942 112.318 113.677 111.933L113.512 112.047C113.748 112.389 113.87 112.842 113.87 113.416H114.07ZM114.07 114.105V113.416H113.87V114.105H114.07ZM114.246 114.005H113.97V114.205H114.246V114.005ZM114.146 113.428V114.105H114.346V113.428H114.146ZM114.048 112.584C114.113 112.838 114.146 113.119 114.146 113.428H114.346C114.346 113.105 114.312 112.807 114.242 112.535L114.048 112.584ZM113.746 111.911C113.882 112.108 113.983 112.332 114.048 112.584L114.242 112.535C114.171 112.261 114.061 112.015 113.911 111.797L113.746 111.911ZM113.207 111.458C113.434 111.568 113.613 111.719 113.746 111.911L113.911 111.797C113.757 111.575 113.55 111.402 113.294 111.278L113.207 111.458ZM112.396 111.292C112.712 111.292 112.981 111.349 113.207 111.458L113.294 111.278C113.036 111.153 112.736 111.092 112.396 111.092V111.292ZM111.591 111.458C111.817 111.349 112.084 111.292 112.396 111.292V111.092C112.06 111.092 111.762 111.153 111.504 111.278L111.591 111.458ZM111.055 111.911C111.186 111.719 111.364 111.568 111.591 111.458L111.504 111.278C111.248 111.402 111.042 111.575 110.89 111.798L111.055 111.911ZM110.756 112.584C110.821 112.332 110.921 112.108 111.055 111.911L110.89 111.798C110.742 112.016 110.633 112.262 110.562 112.535L110.756 112.584ZM110.658 113.428C110.658 113.119 110.691 112.838 110.756 112.584L110.562 112.535C110.492 112.807 110.458 113.105 110.458 113.428H110.658ZM110.658 117.918V113.428H110.458V117.918H110.658ZM110.756 118.761C110.691 118.508 110.658 118.227 110.658 117.918H110.458C110.458 118.241 110.492 118.539 110.562 118.811L110.756 118.761ZM111.055 119.435C110.921 119.238 110.821 119.014 110.756 118.761L110.562 118.811C110.633 119.084 110.742 119.33 110.89 119.548L111.055 119.435ZM111.59 119.884C111.364 119.776 111.186 119.627 111.055 119.435L110.89 119.548C111.042 119.771 111.248 119.943 111.505 120.065L111.59 119.884ZM112.396 120.047C112.084 120.047 111.816 119.992 111.59 119.884L111.505 120.065C111.762 120.188 112.06 120.247 112.396 120.247V120.047ZM117.05 120.247C117.389 120.247 117.689 120.188 117.947 120.065L117.861 119.884C117.636 119.992 117.366 120.047 117.05 120.047V120.247ZM116.158 120.065C116.416 120.188 116.714 120.247 117.05 120.247V120.047C116.738 120.047 116.47 119.992 116.244 119.884L116.158 120.065ZM115.544 119.548C115.696 119.771 115.902 119.943 116.158 120.065L116.244 119.884C116.017 119.776 115.84 119.627 115.709 119.435L115.544 119.548ZM115.216 118.811C115.287 119.084 115.396 119.33 115.544 119.548L115.709 119.435C115.575 119.238 115.475 119.014 115.41 118.761L115.216 118.811ZM115.112 117.918C115.112 118.241 115.146 118.539 115.216 118.811L115.41 118.761C115.345 118.508 115.312 118.227 115.312 117.918H115.112ZM115.112 113.428V117.918H115.312V113.428H115.112ZM115.216 112.535C115.146 112.807 115.112 113.105 115.112 113.428H115.312C115.312 113.119 115.345 112.838 115.41 112.584L115.216 112.535ZM115.544 111.798C115.396 112.016 115.287 112.262 115.216 112.535L115.41 112.584C115.475 112.332 115.575 112.108 115.709 111.911L115.544 111.798ZM116.158 111.278C115.901 111.402 115.696 111.575 115.544 111.798L115.709 111.911C115.84 111.719 116.018 111.568 116.245 111.458L116.158 111.278ZM117.05 111.092C116.714 111.092 116.416 111.153 116.158 111.278L116.245 111.458C116.471 111.349 116.738 111.292 117.05 111.292V111.092ZM117.948 111.278C117.69 111.153 117.39 111.092 117.05 111.092V111.292C117.366 111.292 117.635 111.349 117.861 111.458L117.948 111.278ZM118.564 111.797C118.411 111.575 118.204 111.402 117.948 111.278L117.861 111.458C118.088 111.568 118.267 111.719 118.4 111.911L118.564 111.797ZM118.896 112.535C118.825 112.261 118.715 112.015 118.564 111.797L118.4 111.911C118.536 112.108 118.637 112.332 118.702 112.584L118.896 112.535ZM119 113.428C119 113.105 118.966 112.807 118.896 112.535L118.702 112.584C118.767 112.838 118.8 113.119 118.8 113.428H119ZM119 114.105V113.428H118.8V114.105H119ZM118.624 114.205H118.9V114.005H118.624V114.205ZM118.524 113.416V114.105H118.724V113.416H118.524ZM118.166 112.047C118.402 112.389 118.524 112.842 118.524 113.416H118.724C118.724 112.815 118.596 112.318 118.331 111.933L118.166 112.047ZM117.062 111.545C117.579 111.545 117.939 111.717 118.166 112.047L118.331 111.933C118.058 111.536 117.628 111.345 117.062 111.345V111.545ZM116.368 111.689C116.561 111.594 116.791 111.545 117.062 111.545V111.345C116.767 111.345 116.506 111.398 116.28 111.509L116.368 111.689ZM115.917 112.084C116.025 111.915 116.175 111.784 116.368 111.689L116.28 111.509C116.056 111.619 115.878 111.775 115.748 111.976L115.917 112.084ZM115.669 112.675C115.721 112.455 115.804 112.259 115.917 112.084L115.748 111.976C115.623 112.171 115.532 112.389 115.474 112.629L115.669 112.675ZM115.588 113.416C115.588 113.143 115.615 112.896 115.669 112.675L115.474 112.629C115.417 112.867 115.388 113.13 115.388 113.416H115.588ZM115.588 117.93V113.416H115.388V117.93H115.588ZM115.668 118.667C115.615 118.448 115.588 118.203 115.588 117.93H115.388C115.388 118.216 115.417 118.477 115.474 118.714L115.668 118.667ZM115.916 119.252C115.804 119.079 115.721 118.885 115.668 118.667L115.474 118.714C115.532 118.952 115.623 119.168 115.749 119.361L115.916 119.252ZM116.368 119.641C116.174 119.548 116.025 119.418 115.916 119.252L115.749 119.361C115.878 119.56 116.057 119.713 116.281 119.821L116.368 119.641ZM117.062 119.782C116.791 119.782 116.561 119.734 116.368 119.641L116.281 119.821C116.506 119.93 116.768 119.982 117.062 119.982V119.782ZM117.747 119.641C117.556 119.734 117.329 119.782 117.062 119.782V119.982C117.353 119.982 117.611 119.93 117.834 119.821L117.747 119.641ZM118.196 119.252C118.087 119.419 117.939 119.548 117.747 119.641L117.834 119.821C118.057 119.713 118.234 119.56 118.363 119.361L118.196 119.252ZM118.443 118.667C118.391 118.885 118.308 119.079 118.196 119.252L118.363 119.361C118.489 119.168 118.58 118.952 118.638 118.714L118.443 118.667ZM118.524 117.93C118.524 118.203 118.497 118.448 118.443 118.667L118.638 118.714C118.695 118.477 118.724 118.216 118.724 117.93H118.524ZM118.524 116.957V117.93H118.724V116.957H118.524ZM118.9 116.857H118.624V117.057H118.9V116.857ZM119 117.918V116.957H118.8V117.918H119ZM118.896 118.811C118.966 118.539 119 118.241 119 117.918H118.8C118.8 118.227 118.767 118.508 118.702 118.761L118.896 118.811ZM118.564 119.548C118.715 119.33 118.825 119.084 118.896 118.811L118.702 118.761C118.637 119.013 118.536 119.237 118.4 119.434L118.564 119.548ZM117.947 120.065C118.204 119.943 118.41 119.771 118.564 119.548L118.4 119.434C118.267 119.626 118.088 119.776 117.861 119.884L117.947 120.065ZM121.671 115.863L120.122 120.051L120.31 120.12L121.859 115.932L121.671 115.863ZM123.27 111.65L121.672 115.862L121.859 115.933L123.457 111.72L123.27 111.65ZM123.464 120.086V111.685H123.264V120.086H123.464ZM123.628 119.986H123.364V120.186H123.628V119.986ZM123.528 111.254V120.086H123.728V111.254H123.528ZM123.253 111.354H123.628V111.154H123.253V111.354ZM120.236 119.591L123.347 111.289L123.159 111.219L120.049 119.521L120.236 119.591ZM120.042 111.254V119.556H120.242V111.254H120.042ZM119.878 111.354H120.142V111.154H119.878V111.354ZM119.978 120.086V111.254H119.778V120.086H119.978ZM120.216 119.986H119.878V120.186H120.216V119.986ZM126.516 115.647L124.881 120.051L125.068 120.12L126.703 115.717L126.516 115.647ZM128.028 111.65L126.516 115.647L126.703 115.717L128.216 111.72L128.028 111.65ZM128.222 120.086V111.685H128.022V120.086H128.222ZM128.386 119.986H128.122V120.186H128.386V119.986ZM128.286 111.254V120.086H128.486V111.254H128.286ZM128.011 111.354H128.386V111.154H128.011V111.354ZM124.994 119.591L128.105 111.289L127.918 111.219L124.807 119.521L124.994 119.591ZM124.801 111.254V119.556H125.001V111.254H124.801ZM124.636 111.354H124.901V111.154H124.636V111.354ZM124.736 120.086V111.254H124.536V120.086H124.736ZM124.974 119.986H124.636V120.186H124.974V119.986ZM131.22 120.247C131.56 120.247 131.86 120.188 132.118 120.065L132.032 119.884C131.806 119.992 131.537 120.047 131.22 120.047V120.247ZM130.329 120.065C130.587 120.188 130.885 120.247 131.22 120.247V120.047C130.908 120.047 130.641 119.992 130.415 119.884L130.329 120.065ZM129.715 119.548C129.867 119.771 130.072 119.943 130.329 120.065L130.415 119.884C130.188 119.776 130.011 119.627 129.88 119.435L129.715 119.548ZM129.387 118.811C129.457 119.084 129.566 119.33 129.715 119.548L129.88 119.435C129.746 119.238 129.646 119.014 129.581 118.761L129.387 118.811ZM129.282 117.918C129.282 118.241 129.317 118.539 129.387 118.811L129.581 118.761C129.515 118.508 129.482 118.227 129.482 117.918H129.282ZM129.282 113.428V117.918H129.482V113.428H129.282ZM129.387 112.535C129.317 112.807 129.282 113.105 129.282 113.428H129.482C129.482 113.119 129.515 112.838 129.581 112.584L129.387 112.535ZM129.715 111.798C129.566 112.016 129.457 112.262 129.387 112.535L129.581 112.584C129.646 112.332 129.746 112.108 129.88 111.911L129.715 111.798ZM130.329 111.278C130.072 111.402 129.867 111.575 129.715 111.798L129.88 111.911C130.011 111.719 130.188 111.568 130.416 111.458L130.329 111.278ZM131.22 111.092C130.885 111.092 130.586 111.153 130.329 111.278L130.416 111.458C130.641 111.349 130.909 111.292 131.22 111.292V111.092ZM132.119 111.278C131.861 111.153 131.56 111.092 131.22 111.092V111.292C131.537 111.292 131.806 111.349 132.031 111.458L132.119 111.278ZM132.735 111.797C132.581 111.575 132.375 111.402 132.119 111.278L132.031 111.458C132.259 111.568 132.438 111.719 132.571 111.911L132.735 111.797ZM133.066 112.535C132.996 112.261 132.886 112.015 132.735 111.797L132.571 111.911C132.707 112.108 132.808 112.332 132.873 112.584L133.066 112.535ZM133.171 113.428C133.171 113.105 133.136 112.807 133.066 112.535L132.873 112.584C132.938 112.838 132.971 113.119 132.971 113.428H133.171ZM133.171 114.105V113.428H132.971V114.105H133.171ZM132.794 114.205H133.071V114.005H132.794V114.205ZM132.694 113.416V114.105H132.894V113.416H132.694ZM132.337 112.047C132.572 112.389 132.694 112.842 132.694 113.416H132.894C132.894 112.815 132.766 112.318 132.502 111.933L132.337 112.047ZM131.233 111.545C131.749 111.545 132.11 111.717 132.337 112.047L132.502 111.933C132.229 111.536 131.798 111.345 131.233 111.345V111.545ZM130.539 111.689C130.732 111.594 130.962 111.545 131.233 111.545V111.345C130.938 111.345 130.676 111.398 130.451 111.509L130.539 111.689ZM130.087 112.084C130.196 111.915 130.345 111.784 130.539 111.689L130.451 111.509C130.227 111.619 130.048 111.775 129.919 111.976L130.087 112.084ZM129.839 112.675C129.892 112.455 129.975 112.259 130.087 112.084L129.919 111.976C129.794 112.171 129.702 112.389 129.645 112.629L129.839 112.675ZM129.759 113.416C129.759 113.143 129.786 112.896 129.839 112.675L129.645 112.629C129.587 112.867 129.559 113.13 129.559 113.416H129.759ZM129.759 117.93V113.416H129.559V117.93H129.759ZM129.839 118.667C129.786 118.448 129.759 118.203 129.759 117.93H129.559C129.559 118.216 129.587 118.477 129.645 118.714L129.839 118.667ZM130.087 119.252C129.975 119.079 129.892 118.885 129.839 118.667L129.645 118.714C129.703 118.952 129.794 119.168 129.919 119.361L130.087 119.252ZM130.538 119.641C130.345 119.548 130.195 119.418 130.087 119.252L129.919 119.361C130.049 119.56 130.227 119.713 130.452 119.821L130.538 119.641ZM131.233 119.782C130.962 119.782 130.731 119.734 130.538 119.641L130.452 119.821C130.677 119.93 130.938 119.982 131.233 119.982V119.782ZM131.918 119.641C131.727 119.734 131.499 119.782 131.233 119.782V119.982C131.523 119.982 131.782 119.93 132.005 119.821L131.918 119.641ZM132.366 119.252C132.258 119.419 132.109 119.548 131.918 119.641L132.005 119.821C132.227 119.713 132.405 119.56 132.534 119.361L132.366 119.252ZM132.614 118.667C132.561 118.885 132.478 119.079 132.366 119.252L132.534 119.361C132.659 119.168 132.751 118.952 132.808 118.714L132.614 118.667ZM132.694 117.93C132.694 118.203 132.667 118.448 132.614 118.667L132.808 118.714C132.866 118.477 132.894 118.216 132.894 117.93H132.694ZM132.694 116.957V117.93H132.894V116.957H132.694ZM133.071 116.857H132.794V117.057H133.071V116.857ZM133.171 117.918V116.957H132.971V117.918H133.171ZM133.066 118.811C133.136 118.539 133.171 118.241 133.171 117.918H132.971C132.971 118.227 132.938 118.508 132.873 118.761L133.066 118.811ZM132.735 119.548C132.886 119.33 132.996 119.084 133.066 118.811L132.873 118.761C132.808 119.013 132.707 119.237 132.571 119.434L132.735 119.548ZM132.118 120.065C132.375 119.943 132.581 119.771 132.735 119.548L132.571 119.434C132.438 119.626 132.259 119.776 132.032 119.884L132.118 120.065ZM134.225 116.704V120.086H134.425V116.704H134.225ZM134.912 115.639L134.242 116.649L134.408 116.76L135.079 115.75L134.912 115.639ZM137.907 120.031L135.079 115.64L134.911 115.748L137.739 120.14L137.907 120.031ZM138.124 119.986H137.823V120.186H138.124V119.986ZM135.083 115.483L138.04 120.139L138.209 120.032L135.252 115.376L135.083 115.483ZM137.819 111.199L135.084 115.375L135.251 115.484L137.987 111.309L137.819 111.199ZM137.596 111.354H137.903V111.154H137.596V111.354ZM134.409 116.291L137.679 111.309L137.512 111.199L134.242 116.181L134.409 116.291ZM134.225 111.254V116.236H134.425V111.254H134.225ZM134.048 111.354H134.325V111.154H134.048V111.354ZM134.148 120.086V111.254H133.948V120.086H134.148ZM134.325 119.986H134.048V120.186H134.325V119.986ZM139.408 120.11L139.924 118.028L139.73 117.98L139.214 120.061L139.408 120.11ZM139.059 120.186H139.311V119.986H139.059V120.186ZM141.089 111.218L138.962 120.062L139.156 120.109L141.283 111.265L141.089 111.218ZM141.573 111.142H141.186V111.342H141.573V111.142ZM143.853 120.062L141.67 111.218L141.476 111.266L143.659 120.109L143.853 120.062ZM143.479 120.186H143.756V119.986H143.479V120.186ZM142.866 118.028L143.382 120.11L143.576 120.061L143.06 117.98L142.866 118.028ZM139.827 118.104H142.963V117.904H139.827V118.104ZM139.877 117.851H142.907V117.651H139.877V117.851ZM141.279 111.551L139.779 117.728L139.974 117.775L141.474 111.598L141.279 111.551ZM143.004 117.727L141.474 111.55L141.28 111.598L142.81 117.775L143.004 117.727ZM145.082 120.14C145.241 119.894 145.313 119.521 145.313 119.039H145.113C145.113 119.509 145.041 119.834 144.914 120.031L145.082 120.14ZM144.696 120.186H144.998V119.986H144.696V120.186ZM144.836 119.039C144.836 119.512 144.757 119.835 144.616 120.026L144.777 120.145C144.956 119.901 145.036 119.526 145.036 119.039H144.836ZM144.836 117.653V119.039H145.036V117.653H144.836ZM146.316 115.786C145.833 115.861 145.459 116.054 145.207 116.373C144.956 116.691 144.836 117.121 144.836 117.653H145.036C145.036 117.15 145.149 116.768 145.364 116.497C145.577 116.227 145.9 116.053 146.347 115.984L146.316 115.786ZM145.191 115.36C145.434 115.686 145.813 115.89 146.313 115.984L146.35 115.787C145.883 115.7 145.556 115.514 145.351 115.24L145.191 115.36ZM144.836 114.031C144.836 114.59 144.95 115.037 145.191 115.36L145.351 115.24C145.146 114.964 145.036 114.566 145.036 114.031H144.836ZM144.836 113.237V114.031H145.036V113.237H144.836ZM146.75 111.154C146.127 111.154 145.643 111.324 145.316 111.682C144.99 112.038 144.836 112.563 144.836 113.237H145.036C145.036 112.589 145.184 112.122 145.463 111.817C145.741 111.514 146.163 111.354 146.75 111.354V111.154ZM148.496 111.154H146.75V111.354H148.496V111.154ZM148.596 120.086V111.254H148.396V120.086H148.596ZM148.219 120.186H148.496V119.986H148.219V120.186ZM148.119 116.008V120.086H148.319V116.008H148.119ZM147.137 116.108H148.219V115.908H147.137V116.108ZM145.767 116.452C146.073 116.228 146.525 116.108 147.137 116.108V115.908C146.503 115.908 146.003 116.031 145.649 116.291L145.767 116.452ZM145.313 117.653C145.313 117.056 145.473 116.668 145.767 116.452L145.649 116.291C145.282 116.56 145.113 117.026 145.113 117.653H145.313ZM145.313 119.039V117.653H145.113V119.039H145.313ZM147.137 115.844H148.219V115.644H147.137V115.844ZM146.296 115.771C146.528 115.82 146.809 115.844 147.137 115.844V115.644C146.818 115.644 146.551 115.62 146.337 115.575L146.296 115.771ZM145.663 115.502C145.849 115.632 146.06 115.721 146.296 115.771L146.337 115.575C146.126 115.53 145.94 115.451 145.777 115.338L145.663 115.502ZM145.242 114.937C145.33 115.178 145.47 115.368 145.663 115.502L145.777 115.338C145.622 115.23 145.506 115.075 145.43 114.869L145.242 114.937ZM145.113 114.068C145.113 114.408 145.155 114.699 145.242 114.937L145.43 114.869C145.353 114.659 145.313 114.394 145.313 114.068H145.113ZM145.113 113.262V114.068H145.313V113.262H145.113ZM145.501 111.905C145.237 112.229 145.113 112.686 145.113 113.262H145.313C145.313 112.712 145.432 112.307 145.656 112.031L145.501 111.905ZM146.762 111.419C146.2 111.419 145.771 111.574 145.501 111.905L145.656 112.031C145.874 111.764 146.234 111.619 146.762 111.619V111.419ZM148.219 111.419H146.762V111.619H148.219V111.419ZM148.319 115.744V111.519H148.119V115.744H148.319ZM105.008 132.699V131.75H104.808V132.699H105.008ZM104.644 132.799H104.908V132.599H104.644V132.799ZM104.544 131.75V132.699H104.744V131.75H104.544ZM103.851 131.85H104.644V131.65H103.851V131.85ZM102.234 131.245C102.578 131.656 103.125 131.85 103.851 131.85V131.65C103.158 131.65 102.679 131.465 102.387 131.116L102.234 131.245ZM101.734 129.521C101.734 130.26 101.895 130.84 102.234 131.245L102.387 131.116C102.09 130.761 101.934 130.235 101.934 129.521H101.734ZM101.734 127.113V129.521H101.934V127.113H101.734ZM102.234 125.386C101.895 125.792 101.734 126.373 101.734 127.113H101.934C101.934 126.399 102.09 125.871 102.387 125.514L102.234 125.386ZM103.851 124.777C103.125 124.777 102.577 124.973 102.234 125.386L102.387 125.514C102.679 125.163 103.158 124.977 103.851 124.977V124.777ZM104.644 124.777H103.851V124.977H104.644V124.777ZM104.544 123.867V124.877H104.744V123.867H104.544ZM104.908 123.767H104.644V123.967H104.908V123.767ZM105.008 124.877V123.867H104.808V124.877H105.008ZM105.701 124.777H104.908V124.977H105.701V124.777ZM107.318 125.389C106.97 124.974 106.423 124.777 105.701 124.777V124.977C106.389 124.977 106.868 125.164 107.164 125.517L107.318 125.389ZM107.824 127.113C107.824 126.377 107.66 125.797 107.318 125.389L107.164 125.517C107.466 125.876 107.624 126.403 107.624 127.113H107.824ZM107.824 129.521V127.113H107.624V129.521H107.824ZM107.317 131.242C107.66 130.835 107.824 130.257 107.824 129.521H107.624C107.624 130.23 107.466 130.756 107.165 131.113L107.317 131.242ZM105.701 131.85C106.423 131.85 106.97 131.654 107.317 131.242L107.165 131.113C106.869 131.464 106.389 131.65 105.701 131.65V131.85ZM104.908 131.85H105.701V131.65H104.908V131.85ZM103.851 131.598H104.644V131.398H103.851V131.598ZM102.439 131.062C102.736 131.427 103.215 131.598 103.851 131.598V131.398C103.248 131.398 102.838 131.236 102.594 130.936L102.439 131.062ZM102.011 129.533C102.011 130.189 102.148 130.704 102.439 131.062L102.594 130.936C102.344 130.628 102.211 130.166 102.211 129.533H102.011ZM102.011 127.1V129.533H102.211V127.1H102.011ZM102.439 125.569C102.148 125.928 102.011 126.444 102.011 127.1H102.211C102.211 126.468 102.344 126.004 102.594 125.694L102.439 125.569ZM103.851 125.03C103.215 125.03 102.735 125.202 102.439 125.569L102.594 125.694C102.839 125.392 103.248 125.23 103.851 125.23V125.03ZM104.644 125.03H103.851V125.23H104.644V125.03ZM104.744 131.498V125.13H104.544V131.498H104.744ZM105.701 131.398H104.908V131.598H105.701V131.398ZM106.961 130.933C106.714 131.235 106.303 131.398 105.701 131.398V131.598C106.336 131.598 106.817 131.426 107.116 131.059L106.961 130.933ZM107.347 129.533C107.347 130.161 107.213 130.623 106.961 130.933L107.116 131.059C107.408 130.7 107.547 130.186 107.547 129.533H107.347ZM107.347 127.1V129.533H107.547V127.1H107.347ZM106.963 125.694C107.214 126.004 107.347 126.468 107.347 127.1H107.547C107.547 126.444 107.41 125.928 107.119 125.569L106.963 125.694ZM105.701 125.23C106.308 125.23 106.719 125.392 106.963 125.694L107.119 125.569C106.822 125.201 106.34 125.03 105.701 125.03V125.23ZM104.908 125.23H105.701V125.03H104.908V125.23ZM105.008 131.498V125.13H104.808V131.498H105.008ZM111.982 132.434V132.699H112.182V132.434H111.982ZM108.996 132.534H112.082V132.334H108.996V132.534ZM108.896 128.344V132.434H109.096V128.344H108.896ZM111.591 128.244H108.996V128.444H111.591V128.244ZM111.491 128.092V128.344H111.691V128.092H111.491ZM108.996 128.192H111.591V127.992H108.996V128.192ZM108.896 124.132V128.092H109.096V124.132H108.896ZM112.082 124.032H108.996V124.232H112.082V124.032ZM111.982 123.867V124.132H112.182V123.867H111.982ZM108.72 123.967H112.082V123.767H108.72V123.967ZM108.82 132.699V123.867H108.62V132.699H108.82ZM112.082 132.599H108.72V132.799H112.082V132.599ZM113.4 133.936V132.699H113.2V133.936H113.4ZM113.023 134.036H113.3V133.836H113.023V134.036ZM112.923 132.434V133.936H113.123V132.434H112.923ZM113.65 132.334H113.023V132.534H113.65V132.334ZM113.907 131.788C113.852 132.008 113.743 132.199 113.579 132.363L113.721 132.504C113.91 132.315 114.037 132.092 114.101 131.836L113.907 131.788ZM114.017 130.914C114.001 131.267 113.964 131.558 113.907 131.788L114.101 131.836C114.162 131.589 114.201 131.284 114.217 130.923L114.017 130.914ZM114.38 123.862L114.017 130.914L114.217 130.924L114.58 123.872L114.38 123.862ZM117.468 123.767H114.48V123.967H117.468V123.767ZM117.568 132.434V123.867H117.368V132.434H117.568ZM118.249 132.334H117.468V132.534H118.249V132.334ZM118.349 133.936V132.434H118.149V133.936H118.349ZM117.972 134.036H118.249V133.836H117.972V134.036ZM117.872 132.699V133.936H118.072V132.699H117.872ZM113.3 132.799H117.972V132.599H113.3V132.799ZM113.964 132.534H117.191V132.334H113.964V132.534ZM114.133 131.94C114.076 132.109 113.994 132.251 113.889 132.367L114.038 132.501C114.163 132.362 114.257 132.196 114.323 132.004L114.133 131.94ZM114.246 131.494C114.23 131.615 114.194 131.763 114.133 131.94L114.323 132.004C114.385 131.82 114.426 131.658 114.444 131.519L114.246 131.494ZM114.294 130.925C114.278 131.179 114.262 131.368 114.246 131.494L114.444 131.519C114.461 131.387 114.477 131.193 114.494 130.937L114.294 130.925ZM114.645 124.127L114.294 130.926L114.494 130.936L114.844 124.137L114.645 124.127ZM117.191 124.032H114.744V124.232H117.191V124.032ZM117.291 132.434V124.132H117.091V132.434H117.291ZM122.689 132.699V132.434H122.489V132.699H122.689ZM119.226 132.799H122.589V132.599H119.226V132.799ZM119.126 123.867V132.699H119.326V123.867H119.126ZM122.589 123.767H119.226V123.967H122.589V123.767ZM122.689 124.132V123.867H122.489V124.132H122.689ZM119.503 124.232H122.589V124.032H119.503V124.232ZM119.603 128.092V124.132H119.403V128.092H119.603ZM122.097 127.992H119.503V128.192H122.097V127.992ZM122.197 128.344V128.092H121.997V128.344H122.197ZM119.503 128.444H122.097V128.244H119.503V128.444ZM119.603 132.434V128.344H119.403V132.434H119.603ZM122.589 132.334H119.503V132.534H122.589V132.334ZM123.743 128.954V132.699H123.943V128.954H123.743ZM125.103 128.854H123.843V129.054H125.103V128.854ZM126.566 128.376C126.262 128.688 125.782 128.854 125.103 128.854V129.054C125.81 129.054 126.353 128.881 126.709 128.516L126.566 128.376ZM127.032 126.885C127.032 127.573 126.87 128.064 126.566 128.376L126.709 128.516C127.064 128.151 127.232 127.6 127.232 126.885H127.032ZM127.032 126.004V126.885H127.232V126.004H127.032ZM125.306 123.967C125.895 123.967 126.32 124.139 126.6 124.466C126.882 124.797 127.032 125.304 127.032 126.004H127.232C127.232 125.28 127.078 124.718 126.752 124.336C126.423 123.952 125.935 123.767 125.306 123.767V123.967ZM123.566 123.967H125.306V123.767H123.566V123.967ZM123.666 132.699V123.867H123.466V132.699H123.666ZM123.843 132.599H123.566V132.799H123.843V132.599ZM125.103 128.589H123.843V128.789H125.103V128.589ZM126.366 128.195C126.118 128.45 125.706 128.589 125.103 128.589V128.789C125.73 128.789 126.208 128.645 126.509 128.334L126.366 128.195ZM126.749 126.897C126.749 127.514 126.614 127.938 126.366 128.195L126.509 128.334C126.81 128.024 126.949 127.536 126.949 126.897H126.749ZM126.749 125.986V126.897H126.949V125.986H126.749ZM126.418 124.677C126.635 124.978 126.749 125.41 126.749 125.986H126.949C126.949 125.387 126.831 124.908 126.58 124.56L126.418 124.677ZM125.306 124.232C125.85 124.232 126.21 124.388 126.418 124.677L126.58 124.56C126.321 124.2 125.886 124.032 125.306 124.032V124.232ZM123.843 124.232H125.306V124.032H123.843V124.232ZM123.943 128.689V124.132H123.743V128.689H123.943ZM128.72 130.593L128.203 132.674L128.397 132.723L128.914 130.641L128.72 130.593ZM131.952 130.517H128.817V130.717H131.952V130.517ZM132.566 132.674L132.049 130.593L131.855 130.641L132.371 132.723L132.566 132.674ZM132.745 132.599H132.468V132.799H132.745V132.599ZM130.466 123.879L132.648 132.723L132.842 132.675L130.66 123.831L130.466 123.879ZM130.175 123.955H130.563V123.755H130.175V123.955ZM128.145 132.722L130.273 123.878L130.078 123.831L127.951 132.675L128.145 132.722ZM128.3 132.599H128.048V132.799H128.3V132.599ZM131.897 130.264H128.866V130.464H131.897V130.264ZM130.269 124.211L131.8 130.388L131.994 130.34L130.463 124.163L130.269 124.211ZM128.963 130.388L130.463 124.211L130.269 124.164L128.769 130.341L128.963 130.388ZM138.344 132.434V133.887H138.544V132.434H138.344ZM137.663 132.534H138.444V132.334H137.663V132.534ZM137.563 123.867V132.434H137.763V123.867H137.563ZM137.374 123.967H137.663V123.767H137.374V123.967ZM137.474 132.434V123.867H137.274V132.434H137.474ZM134.202 132.534H137.374V132.334H134.202V132.534ZM134.102 123.867V132.434H134.302V123.867H134.102ZM133.938 123.967H134.202V123.767H133.938V123.967ZM134.038 132.699V123.867H133.838V132.699H134.038ZM138.167 132.599H133.938V132.799H138.167V132.599ZM138.267 133.887V132.699H138.067V133.887H138.267ZM138.444 133.787H138.167V133.987H138.444V133.787ZM139.866 132.733L141.415 128.545L141.228 128.476L139.678 132.664L139.866 132.733ZM139.434 132.799H139.772V132.599H139.434V132.799ZM139.334 123.867V132.699H139.534V123.867H139.334ZM139.698 123.767H139.434V123.967H139.698V123.767ZM139.798 132.169V123.867H139.598V132.169H139.798ZM142.715 123.832L139.605 132.134L139.792 132.204L142.903 123.902L142.715 123.832ZM143.184 123.767H142.809V123.967H143.184V123.767ZM143.284 132.699V123.867H143.084V132.699H143.284ZM142.92 132.799H143.184V132.599H142.92V132.799ZM142.82 124.298V132.699H143.02V124.298H142.82ZM141.415 128.546L143.013 124.334L142.826 124.263L141.228 128.475L141.415 128.546ZM144.584 131.652C144.584 132.122 144.513 132.447 144.385 132.644L144.553 132.753C144.712 132.507 144.784 132.134 144.784 131.652H144.584ZM144.584 130.266V131.652H144.784V130.266H144.584ZM145.12 128.904C144.753 129.173 144.584 129.639 144.584 130.266H144.784C144.784 129.67 144.945 129.281 145.238 129.065L145.12 128.904ZM146.608 128.522C145.975 128.522 145.474 128.644 145.12 128.904L145.238 129.065C145.544 128.841 145.996 128.722 146.608 128.722V128.522ZM147.69 128.522H146.608V128.722H147.69V128.522ZM147.79 132.699V128.622H147.59V132.699H147.79ZM147.967 132.599H147.69V132.799H147.967V132.599ZM147.867 123.867V132.699H148.067V123.867H147.867ZM146.221 123.967H147.967V123.767H146.221V123.967ZM144.507 125.85C144.507 125.202 144.656 124.735 144.935 124.43C145.212 124.127 145.634 123.967 146.221 123.967V123.767C145.599 123.767 145.114 123.938 144.787 124.295C144.461 124.651 144.307 125.176 144.307 125.85H144.507ZM144.507 126.645V125.85H144.307V126.645H144.507ZM144.823 127.853C144.617 127.577 144.507 127.179 144.507 126.645H144.307C144.307 127.203 144.421 127.65 144.662 127.973L144.823 127.853ZM145.821 128.4C145.354 128.313 145.027 128.127 144.823 127.853L144.662 127.973C144.905 128.299 145.284 128.503 145.785 128.597L145.821 128.4ZM144.507 130.266C144.507 129.763 144.621 129.381 144.835 129.11C145.048 128.84 145.371 128.666 145.818 128.597L145.788 128.4C145.304 128.474 144.93 128.667 144.678 128.986C144.427 129.304 144.307 129.734 144.307 130.266H144.507ZM144.507 131.652V130.266H144.307V131.652H144.507ZM144.248 132.758C144.427 132.514 144.507 132.139 144.507 131.652H144.307C144.307 132.125 144.228 132.448 144.087 132.639L144.248 132.758ZM144.469 132.599H144.168V132.799H144.469V132.599ZM147.69 128.257H146.608V128.457H147.69V128.257ZM147.59 124.132V128.357H147.79V124.132H147.59ZM146.233 124.232H147.69V124.032H146.233V124.232ZM145.127 124.644C145.345 124.377 145.705 124.232 146.233 124.232V124.032C145.671 124.032 145.242 124.187 144.972 124.518L145.127 124.644ZM144.784 125.875C144.784 125.325 144.903 124.92 145.127 124.644L144.972 124.518C144.709 124.842 144.584 125.299 144.584 125.875H144.784ZM144.784 126.682V125.875H144.584V126.682H144.784ZM144.901 127.482C144.824 127.272 144.784 127.007 144.784 126.682H144.584C144.584 127.022 144.626 127.312 144.713 127.55L144.901 127.482ZM145.248 127.951C145.093 127.843 144.977 127.689 144.901 127.482L144.713 127.55C144.801 127.791 144.941 127.981 145.134 128.115L145.248 127.951ZM145.808 128.188C145.597 128.143 145.411 128.064 145.248 127.951L145.134 128.115C145.32 128.245 145.532 128.334 145.767 128.384L145.808 128.188ZM146.608 128.257C146.289 128.257 146.023 128.233 145.808 128.188L145.767 128.384C145.999 128.433 146.28 128.457 146.608 128.457V128.257Z" fill="#F99746"/>
<path fill-rule="evenodd" clip-rule="evenodd" d="M118.473 229.157C117.985 229.693 117.265 229.96 116.314 229.96C115.362 229.96 114.642 229.693 114.154 229.157C113.667 228.621 113.423 227.853 113.423 226.853V220.425C113.423 219.424 113.667 218.656 114.154 218.121C114.642 217.585 115.362 217.317 116.314 217.317C117.265 217.317 117.985 217.585 118.473 218.121C118.961 218.656 119.204 219.424 119.204 220.425V221.626H117.371V220.301C117.371 219.854 117.28 219.539 117.098 219.357C116.916 219.174 116.672 219.083 116.366 219.083C116.061 219.083 115.817 219.174 115.635 219.357C115.453 219.539 115.362 219.854 115.362 220.301V226.976C115.362 227.424 115.453 227.736 115.635 227.912C115.817 228.089 116.061 228.177 116.366 228.177C116.672 228.177 116.916 228.089 117.098 227.912C117.28 227.736 117.371 227.424 117.371 226.976V225.21H119.204V226.853C119.204 227.853 118.961 228.621 118.473 229.157ZM97.9346 219.224V229.819H95.9956V217.458H102.112V229.819H100.138V219.224H97.9346ZM106.578 227.577L106.243 229.819H104.462L106.437 217.458H109.275L111.249 229.819H109.292L108.957 227.577H106.578ZM106.824 225.899L107.759 219.648L108.693 225.899H106.824ZM123.846 229.819V219.224H126.05V229.819H128.024V217.458H121.907V229.819H123.846ZM135.856 229.157C135.351 229.693 134.622 229.96 133.67 229.96C132.718 229.96 131.99 229.693 131.485 229.157C130.979 228.621 130.727 227.853 130.727 226.853V220.425C130.727 219.424 130.979 218.656 131.485 218.121C131.99 217.585 132.718 217.317 133.67 217.317C134.622 217.317 135.351 217.585 135.856 218.121C136.361 218.656 136.614 219.424 136.614 220.425V226.853C136.614 227.853 136.361 228.621 135.856 229.157ZM133.67 228.195C133.365 228.195 133.121 228.103 132.939 227.921C132.757 227.738 132.666 227.424 132.666 226.976V220.301C132.666 219.854 132.757 219.539 132.939 219.357C133.121 219.174 133.365 219.083 133.67 219.083C133.976 219.083 134.22 219.174 134.402 219.357C134.584 219.539 134.675 219.854 134.675 220.301V226.976C134.675 227.424 134.584 227.738 134.402 227.921C134.22 228.103 133.976 228.195 133.67 228.195ZM141.256 225.175V229.819H139.317V217.458H142.172C143.148 217.458 143.873 217.717 144.349 218.235C144.825 218.753 145.063 219.513 145.063 220.513V222.12C145.063 223.121 144.825 223.88 144.349 224.398C143.873 224.916 143.148 225.175 142.172 225.175H141.256ZM142.172 223.409H141.256V219.224H142.172C142.478 219.224 142.713 219.307 142.877 219.471C143.042 219.636 143.124 219.942 143.124 220.39V222.244C143.124 222.691 143.042 222.997 142.877 223.162C142.713 223.327 142.478 223.409 142.172 223.409ZM150.851 219.224V229.819H148.912V219.224H146.885V217.458H152.878V219.224H150.851Z" fill="#F99746"/>
<path fill-rule="evenodd" clip-rule="evenodd" d="M124.985 142.878L126.203 144.44V144.473L124.985 146.113L123.767 144.44L124.985 142.878ZM137.82 150.966C137.743 150.689 140.378 150.678 140.378 152.417C140.378 152.959 140.002 153.382 139.617 153.814C139.216 154.265 138.806 154.726 138.806 155.342C138.836 155.79 139.134 156.175 139.559 156.317C139.149 154.378 140.832 155.387 141.286 155.752C140.726 154.146 141.278 153.535 141.742 153.022C142.03 152.703 142.285 152.422 142.217 151.963C142.129 151.455 141.436 151.353 140.764 151.254C140.337 151.191 139.919 151.129 139.67 150.966C139.379 150.768 139.07 150.421 138.757 150.07C137.878 149.084 136.968 148.063 136.347 150.212C137.113 150.796 137.414 151.807 137.093 152.714C136.772 153.622 135.902 154.218 134.941 154.19C134.93 154.312 134.93 154.434 134.941 154.556C135.847 154.607 136.723 154.218 137.292 153.51C137.861 152.802 138.054 151.863 137.809 150.988L137.82 150.966ZM131.354 155.881C133.956 155.875 136.405 155.869 136.713 157.614L136.668 157.592C136.753 158.235 136.587 158.886 136.203 159.409C136.017 158.873 135.538 158.492 134.974 158.434C130.467 157.724 126.713 165.015 130.101 167.962C130.126 167.973 130.141 167.997 130.141 168.023C130.141 168.05 130.126 168.073 130.101 168.084H119.935C119.902 168.099 119.862 168.084 119.847 168.051C119.831 168.017 119.846 167.977 119.88 167.962C123.28 165.015 119.514 157.724 115.018 158.434C114.452 158.487 113.97 158.869 113.789 159.409C113.41 158.896 113.24 158.258 113.313 157.625C113.628 155.869 116.09 155.876 118.697 155.884C120.4 155.889 122.166 155.895 123.435 155.409C123.241 156.575 122.499 157.576 121.441 158.101C123.616 160.447 124.884 163.491 125.018 166.688C125.145 163.486 126.414 160.436 128.595 158.09C127.538 157.562 126.794 156.563 126.591 155.398C127.869 155.89 129.644 155.885 131.354 155.881ZM131.674 160.107C132.55 159.82 133.512 160.004 134.221 160.594C134.206 159.957 133.89 159.365 133.368 158.999C132.713 159.205 132.126 159.589 131.674 160.107ZM108.77 155.716C108.742 155.737 108.717 155.757 108.695 155.774H108.75C108.757 155.755 108.764 155.736 108.77 155.716ZM110.434 156.34C110.813 154.496 109.309 155.317 108.77 155.716C109.295 154.159 108.752 153.555 108.297 153.049C108.008 152.728 107.754 152.446 107.831 151.985C107.912 151.477 108.606 151.375 109.277 151.276C109.704 151.213 110.122 151.152 110.367 150.988C110.659 150.789 110.967 150.44 111.278 150.087C112.145 149.102 113.037 148.09 113.689 150.235C112.928 150.816 112.626 151.82 112.941 152.725C113.256 153.63 114.116 154.23 115.074 154.212V154.578C114.154 154.647 113.26 154.261 112.679 153.545C112.098 152.829 111.905 151.874 112.161 150.988C112.239 150.711 109.603 150.7 109.603 152.439C109.603 153.016 109.989 153.442 110.378 153.873C110.775 154.312 111.176 154.755 111.176 155.365C111.147 155.809 110.854 156.193 110.434 156.34ZM115.782 160.594C116.495 160.002 117.461 159.818 118.341 160.107C117.884 159.588 117.294 159.205 116.635 158.999C116.129 159.353 115.814 159.921 115.782 160.539V160.594ZM133.147 149.149L132.283 148.041L131.419 149.149L132.283 150.257L133.147 149.149ZM139.06 179.961L140.168 181.18L139.06 182.288L137.953 181.18L139.06 179.961ZM118.551 149.149L117.687 148.041L116.823 149.149L117.687 150.257L118.551 149.149ZM119.304 154.589H116.07H116.059C115.788 154.208 115.551 153.804 115.351 153.381C114.852 151.941 115.506 151.276 116.458 151.276L117.687 152.451L118.95 151.332C119.913 151.332 120.555 151.996 120.057 153.437C119.954 153.677 119.828 153.908 119.681 154.124C121.155 153.941 122.342 152.826 122.615 151.365C122.206 150.727 121.836 150.064 121.508 149.381C120.744 147.332 121.718 146.49 123.147 146.49L124.985 148.706L126.846 146.434C128.274 146.434 129.249 147.276 128.485 149.326C128.156 150.009 127.786 150.671 127.377 151.309C127.654 152.768 128.839 153.883 130.312 154.068C130.171 153.85 130.049 153.62 129.946 153.381C129.459 151.941 130.101 151.276 131.054 151.276L132.283 152.451L133.501 151.287C134.465 151.287 135.118 151.952 134.609 153.392C134.409 153.812 134.171 154.212 133.9 154.589H130.677C128.613 154.712 126.775 153.293 126.369 151.265H123.601C123.196 153.289 121.364 154.706 119.304 154.589ZM149.448 165.104C146.674 166.474 143.554 166.984 140.489 166.566C140.489 166.422 140.523 166.274 140.557 166.126C140.578 166.036 140.598 165.946 140.611 165.857C143.129 165.68 145.592 165.038 147.876 163.962C149.744 162.799 150.475 160.439 149.592 158.423C149.582 158.398 149.558 158.383 149.531 158.383C149.505 158.383 149.481 158.398 149.47 158.423C147.182 161.093 144.121 162.986 140.711 163.84C140.711 163.564 140.711 163.287 140.644 163.021C142.895 161.805 144.918 160.208 146.624 158.301C148.341 155.974 148.186 153.016 146.547 151.498C146.026 152.395 141.176 160.627 135.849 164.184L135.65 164.317C135.58 164.367 135.539 164.447 135.539 164.533C135.539 164.619 135.58 164.699 135.65 164.749C136.283 165.344 136.644 166.173 136.646 167.043C136.633 168.607 135.506 169.939 133.966 170.211C132.971 170.377 131.949 170.285 130.998 169.945C130.977 169.938 130.954 169.942 130.936 169.955C130.918 169.968 130.909 169.99 130.91 170.012V174.987C130.91 175.023 130.94 175.053 130.976 175.053C131.013 175.053 131.043 175.023 131.043 174.987C131.636 173.608 133.009 172.73 134.509 172.771C134.663 174.354 135.203 175.876 136.082 177.203C136.512 177.813 137.184 178.208 137.927 178.286C138.669 178.365 139.409 178.119 139.957 177.613C139.481 177.313 136.713 175.53 136.159 172.616C136.375 172.537 136.586 172.444 136.79 172.339C137.552 173.754 138.671 174.946 140.035 175.796C141.785 176.682 143.357 176.25 144.11 174.953C144.125 174.941 144.133 174.923 144.133 174.904C144.133 174.885 144.125 174.866 144.11 174.854C143.003 174.754 139.681 173.746 138.263 171.308C138.43 171.15 138.589 170.984 138.739 170.81C140.155 171.965 141.813 172.787 143.59 173.214C145.351 173.458 147.344 172.87 147.399 170.721C147.394 170.676 147.356 170.643 147.311 170.643C147.264 170.643 147.197 170.645 147.112 170.646L147.112 170.646C146.072 170.667 142.323 170.741 139.559 169.092C139.666 168.891 139.762 168.684 139.847 168.472C139.847 168.472 144.276 169.58 146.425 169.214C147.376 169.096 148.24 168.599 148.822 167.836C149.403 167.073 149.653 166.108 149.515 165.159C149.517 165.132 149.503 165.106 149.478 165.093C149.454 165.081 149.424 165.085 149.404 165.104H149.448ZM110.096 168.47C110.177 168.667 110.267 168.86 110.367 169.048C107.41 170.832 103.28 170.643 102.615 170.599C102.572 170.599 102.538 170.634 102.538 170.677C102.538 172.826 104.575 173.413 106.336 173.17C108.214 172.778 109.974 171.951 111.475 170.754C111.625 170.928 111.784 171.095 111.951 171.253C110.533 173.701 107.2 174.699 106.115 174.787C106.089 174.788 106.065 174.803 106.052 174.825C106.038 174.847 106.037 174.875 106.048 174.898C106.768 176.194 108.374 176.626 110.135 175.74C111.493 174.887 112.607 173.696 113.368 172.283C113.574 172.387 113.784 172.479 113.999 172.56C113.43 174.656 112.068 176.448 110.201 177.557C110.751 178.064 111.493 178.31 112.237 178.232C112.981 178.153 113.656 177.758 114.088 177.147C114.962 175.82 115.498 174.298 115.65 172.715C117.15 172.672 118.525 173.55 119.116 174.931C119.128 174.961 119.156 174.98 119.188 174.98C119.219 174.98 119.248 174.961 119.26 174.931V170.034C119.257 170.011 119.245 169.99 119.226 169.977C119.206 169.964 119.182 169.961 119.16 169.968C118.209 170.307 117.188 170.399 116.192 170.233C114.657 169.957 113.536 168.626 113.523 167.065C113.523 166.197 113.879 165.368 114.509 164.771C114.578 164.721 114.62 164.641 114.62 164.555C114.62 164.469 114.578 164.389 114.509 164.339L114.31 164.206C108.905 160.661 104.066 152.428 103.545 151.52C103.525 151.508 103.499 151.508 103.479 151.52C101.84 153.038 101.685 155.952 103.401 158.323C105.11 160.218 107.133 161.803 109.382 163.01C109.382 163.156 109.365 163.305 109.348 163.456L109.348 163.456C109.334 163.58 109.32 163.705 109.315 163.829C105.907 162.968 102.848 161.076 100.555 158.411C100.541 158.393 100.518 158.382 100.494 158.382C100.471 158.382 100.448 158.393 100.434 158.411C99.5509 160.428 100.282 162.788 102.15 163.951C104.434 165.027 106.897 165.669 109.415 165.846C109.415 166.011 109.454 166.182 109.492 166.35C109.508 166.419 109.524 166.487 109.537 166.555C106.471 166.973 103.351 166.463 100.577 165.093C100.557 165.074 100.528 165.07 100.503 165.082C100.479 165.095 100.464 165.121 100.467 165.148C100.325 166.099 100.575 167.068 101.16 167.832C101.744 168.596 102.613 169.091 103.568 169.203C105.558 169.549 109.658 168.576 110.096 168.47ZM139.072 183.784L137.455 182.443C136.794 182.847 136.32 183.496 136.137 184.249C135.162 184.393 132.493 183.762 132.759 183.352C135.683 179.042 133.446 176.471 130.755 176.615V179.507C130.752 179.959 130.569 180.39 130.247 180.707C129.925 181.023 129.49 181.197 129.038 181.191H127.178C126.262 181.294 125.445 181.813 124.963 182.598C124.481 181.813 123.664 181.294 122.748 181.191H120.932C120.013 181.198 119.257 180.47 119.227 179.552V176.66C116.535 176.516 114.298 179.086 117.222 183.396C117.477 183.806 114.741 184.504 113.457 184.294C113.103 183.911 112.605 183.693 112.084 183.695C111.853 183.696 111.624 183.737 111.408 183.817C111.408 183.817 106.347 178.798 106.259 178.754V178.654C106.546 178.089 106.104 177.469 105.827 177.546C106.069 177.013 106.048 176.396 105.77 175.881C105.492 175.365 104.988 175.01 104.409 174.92C104.409 175.275 104.487 176.028 104.487 176.028C104.487 176.028 103.102 175.242 102.405 175.928C101.707 176.615 102.615 178.023 102.615 178.023H101.508C101.586 178.62 101.958 179.14 102.498 179.407C103.039 179.674 103.677 179.653 104.199 179.352C104.199 179.64 104.797 180.05 105.306 179.718L105.539 179.607C105.539 179.662 110.5 184.537 110.5 184.537C110.264 184.909 110.173 185.355 110.245 185.789C110.369 186.522 110.926 187.106 111.652 187.263C112.131 187.363 112.63 187.276 113.047 187.019L114.343 188.293C114.465 188.409 114.629 188.469 114.797 188.46C115.111 188.436 115.347 188.165 115.328 187.85C115.316 187.717 115.252 187.594 115.151 187.507L113.822 186.21C115.254 185.333 116.905 184.876 118.584 184.892C118.709 184.892 118.826 184.829 118.894 184.723C118.961 184.617 118.97 184.485 118.916 184.371C118.163 182.465 119.78 181.047 121.452 182.155C122.448 182.928 123.164 184.006 123.49 185.224C120.744 185.922 117.289 187.85 116.591 189.955C116.314 190.764 117.211 191.872 118.285 192.094C118.99 189.333 121.045 187.118 123.745 186.21L123.878 186.609C121.846 187.638 120.354 189.49 119.78 191.695C119.548 192.736 120.655 193.678 121.563 193.911C121.585 193.918 121.609 193.914 121.629 193.901C121.648 193.888 121.661 193.867 121.663 193.844C121.759 191.491 122.622 189.234 124.121 187.418C124.154 187.635 124.177 187.853 124.188 188.072C123.573 189.884 123.201 191.769 123.08 193.678C123.08 194.786 124.642 195.551 124.874 195.65C125.151 195.551 126.713 194.775 126.713 193.678C126.592 191.769 126.22 189.884 125.605 188.072C125.616 187.853 125.639 187.635 125.672 187.418C127.179 189.229 128.044 191.489 128.13 193.844H128.197C129.105 193.59 130.212 192.648 129.98 191.628C129.41 189.422 127.916 187.568 125.882 186.543C125.926 186.427 125.94 186.385 125.954 186.343L125.954 186.343C125.968 186.302 125.982 186.26 126.026 186.144C128.72 187.056 130.77 189.27 131.475 192.027C131.477 192.048 131.488 192.066 131.505 192.077C131.523 192.087 131.544 192.09 131.563 192.083C132.671 191.861 133.534 190.753 133.258 189.944C132.571 187.839 129.105 185.911 126.358 185.213C126.692 183.999 127.406 182.923 128.396 182.144C130.068 181.036 131.718 182.399 130.932 184.36C130.832 184.499 130.842 184.69 130.957 184.817C131.071 184.945 131.259 184.976 131.408 184.892C133.258 184.851 135.066 185.441 136.536 186.565C137.231 187.605 138.493 188.114 139.715 187.847C140.938 187.581 141.873 186.593 142.073 185.357C142.202 184.223 141.662 183.117 140.688 182.521L139.072 183.784ZM128.551 176.006C128.584 175.175 127.676 174.942 127.1 175.175L127.056 175.131C126.879 175.197 126.812 175.275 126.812 175.496C126.917 176.048 127.011 176.599 127.109 177.171L127.109 177.172C127.156 177.45 127.205 177.733 127.255 178.023C127.732 177.48 128.717 177.247 128.717 177.945C128.596 178.879 127.977 179.673 127.1 180.017L123.833 170.621C124.12 170.579 124.411 170.579 124.697 170.621C124.647 170.526 124.62 170.419 124.62 170.311C124.604 170.151 124.656 169.991 124.764 169.871C124.871 169.751 125.024 169.682 125.184 169.68C125.299 169.67 125.412 169.709 125.496 169.787C125.58 169.865 125.628 169.975 125.627 170.089C125.603 170.303 125.495 170.498 125.328 170.632C125.184 170.765 125.207 170.854 125.328 170.998C125.503 171.202 125.642 171.434 125.738 171.685C126.26 171.097 127.104 170.917 127.82 171.242C128.085 171.504 128.233 171.861 128.233 172.233C128.233 172.606 128.085 172.963 127.82 173.225C127.811 173.237 127.803 173.249 127.793 173.262C127.732 173.349 127.656 173.456 127.521 173.447C127.366 173.436 127.3 173.347 127.311 173.103C127.313 173.063 127.316 173.015 127.32 172.963C127.34 172.696 127.368 172.316 127.211 172.316C126.857 172.316 126.879 172.837 126.978 173.225C127.038 173.458 127.094 173.695 127.153 173.946C127.193 174.112 127.233 174.285 127.277 174.466C128.163 174.311 129.005 174.688 128.828 176.006C128.845 176.065 128.823 176.128 128.773 176.163C128.723 176.198 128.656 176.198 128.606 176.163C128.556 176.128 128.534 176.065 128.551 176.006ZM122.549 168.782L123.235 170.787C122.648 170.932 121.696 171.386 121.696 171.973C121.696 172.771 123.036 173.28 123.811 173.225C123.768 173.398 123.813 173.581 123.933 173.713C123.578 173.716 123.232 173.832 122.947 174.045C122.622 173.641 122.061 173.517 121.596 173.746C121.297 173.99 121.286 174.399 121.596 174.854C121.829 175.154 121.829 175.573 121.596 175.873C122.172 175.873 122.26 175.39 122.327 175.021C122.369 174.794 122.402 174.61 122.538 174.61C122.499 174.894 122.53 175.183 122.626 175.452C122.706 175.644 122.677 175.864 122.549 176.028C122.081 176.852 121.837 177.784 121.84 178.732C121.541 178.732 121.386 178.654 121.497 178.211C121.497 178.056 121.441 177.934 121.308 178.133C121.179 178.368 121.107 178.63 121.098 178.898C121.137 179.231 121.324 179.529 121.609 179.708C121.893 179.887 122.243 179.927 122.56 179.817C123.723 181.003 126.015 180.693 126.79 180.294L122.748 168.66C122.728 168.607 122.682 168.568 122.625 168.558C122.569 168.549 122.512 168.57 122.476 168.614C122.44 168.658 122.429 168.718 122.449 168.771L122.549 168.782ZM123.767 176.205C122.959 177.025 122.327 177.89 122.405 178.366C122.902 178.09 123.466 177.96 124.033 177.989C123.683 177.464 123.585 176.81 123.767 176.205Z" fill="#F99746"/>
</svg>
