<svg width="40" height="40" viewBox="0 0 40 40" fill="none" xmlns="http://www.w3.org/2000/svg">
<rect width="40" height="40" rx="6" fill="#FC4E43"/>
<path fill-rule="evenodd" clip-rule="evenodd" d="M34.8001 29.8401V20.0801C34.8001 19.6383 34.4419 19.2801 34.0001 19.2801H25.7601V16.3342L26.8001 16.6401V15.4401L20.4001 13.5578V7.12012H19.6001V7.52341C19.2683 7.53793 19.0544 7.55861 18.9581 7.58547C18.6372 7.67505 18.433 7.76296 18.2481 7.84257C18.0384 7.93283 17.8535 8.01242 17.5514 8.07171C17.3487 8.11147 17.0183 8.15694 16.5601 8.20812V10.9601C16.997 10.9133 17.3074 10.8722 17.4914 10.8369C17.8611 10.7661 18.0579 10.6852 18.3111 10.5813C18.4885 10.5084 18.6935 10.4242 19.0051 10.3241C19.0916 10.2963 19.2899 10.2794 19.6001 10.2734V13.5578L13.2001 15.4401V16.6401L14.3201 16.3107V19.2801H6.0001C5.55827 19.2801 5.2001 19.6383 5.2001 20.0801V29.8401H3.6001V30.6401H36.4001V29.8401H34.8001ZM34.0001 20.0801V20.4801V29.8401H25.7601V20.0801H33.6001H34.0001ZM6.0001 20.4801V29.8401H14.3201V20.0801H6.4001H6.0001V20.4801ZM15.1201 16.0752L20.0001 14.6399L24.9601 16.0987V29.8399H15.1201V16.0752ZM3.6001 31.2001H36.4001V32.0001H3.6001V31.2001ZM8.6401 21.6801H7.2001V24.6401H8.6401V21.6801ZM17.0401 21.6801H18.4801V24.6401H17.0401V21.6801ZM18.4801 17.9201H17.0401V20.8801H18.4801V17.9201ZM26.8801 21.6801H28.3201V24.6401H26.8801V21.6801ZM8.6401 25.4401H7.2001V28.4001H8.6401V25.4401ZM17.0401 25.4401H18.4801V28.4001H17.0401V25.4401ZM28.3201 25.4401H26.8801V28.4001H28.3201V25.4401ZM9.4401 21.6801H10.8801V24.6401H9.4401V21.6801ZM20.7201 21.6801H19.2801V24.6401H20.7201V21.6801ZM19.2801 17.9201H20.7201V20.8801H19.2801V17.9201ZM30.5601 21.6801H29.1201V24.6401H30.5601V21.6801ZM9.4401 25.4401H10.8801V28.4001H9.4401V25.4401ZM20.7201 25.4401H19.2801V28.4001H20.7201V25.4401ZM29.1201 25.4401H30.5601V28.4001H29.1201V25.4401ZM13.1201 21.6801H11.6801V24.6401H13.1201V21.6801ZM21.5201 21.6801H22.9601V24.6401H21.5201V21.6801ZM22.9601 17.9201H21.5201V20.8801H22.9601V17.9201ZM31.3601 21.6801H32.8001V24.6401H31.3601V21.6801ZM13.1201 25.4401H11.6801V28.4001H13.1201V25.4401ZM21.5201 25.4401H22.9601V28.4001H21.5201V25.4401ZM32.8001 25.4401H31.3601V28.4001H32.8001V25.4401Z" fill="white"/>
</svg>
