<svg width="220" height="160" viewBox="0 0 220 160" fill="none" xmlns="http://www.w3.org/2000/svg">
<g clip-path="url(#clip0_803_3194)">
<path d="M156.604 55.7859H144.118C143.67 55.786 143.234 55.9283 142.871 56.1923C142.509 56.4562 142.24 56.8284 142.102 57.2553L138.268 69.1975H179.401L175.567 57.2553C175.43 56.8288 175.161 56.4568 174.8 56.1928C174.439 55.9288 174.004 55.7863 173.557 55.7859H156.604Z" fill="#EBBF00"/>
<path d="M151.687 58.2781H149.874C149.29 58.2781 148.817 58.7523 148.817 59.3373V61.1546C148.817 61.7396 149.29 62.2138 149.874 62.2138H151.687C152.271 62.2138 152.744 61.7396 152.744 61.1546V59.3373C152.744 58.7523 152.271 58.2781 151.687 58.2781Z" fill="#464F5D"/>
<path d="M159.671 58.2781H157.858C157.274 58.2781 156.801 58.7523 156.801 59.3373V61.1546C156.801 61.7396 157.274 62.2138 157.858 62.2138H159.671C160.255 62.2138 160.728 61.7396 160.728 61.1546V59.3373C160.728 58.7523 160.255 58.2781 159.671 58.2781Z" fill="#464F5D"/>
<path d="M155.744 62.7849H153.93C153.347 62.7849 152.874 63.2591 152.874 63.8441V65.6614C152.874 66.2464 153.347 66.7206 153.93 66.7206H155.744C156.328 66.7206 156.801 66.2464 156.801 65.6614V63.8441C156.801 63.2591 156.328 62.7849 155.744 62.7849Z" fill="#464F5D"/>
<path d="M163.598 62.7849H161.785C161.201 62.7849 160.728 63.2591 160.728 63.8441V65.6614C160.728 66.2464 161.201 66.7206 161.785 66.7206H163.598C164.182 66.7206 164.655 66.2464 164.655 65.6614V63.8441C164.655 63.2591 164.182 62.7849 163.598 62.7849Z" fill="#464F5D"/>
<path d="M167.795 58.2781H165.982C165.398 58.2781 164.925 58.7523 164.925 59.3373V61.1546C164.925 61.7396 165.398 62.2138 165.982 62.2138H167.795C168.379 62.2138 168.852 61.7396 168.852 61.1546V59.3373C168.852 58.7523 168.379 58.2781 167.795 58.2781Z" fill="#464F5D"/>
<path d="M215.695 94.6863H100.809C98.4311 94.6863 96.5034 96.6181 96.5034 99.0011V103.804C96.5034 106.187 98.4311 108.119 100.809 108.119H215.695C218.073 108.119 220 106.187 220 103.804V99.0011C220 96.6181 218.073 94.6863 215.695 94.6863Z" fill="#EBBF00"/>
<path d="M152.884 108.119H107.13L117.166 72.105C117.398 71.2716 117.895 70.5372 118.583 70.0141C119.271 69.4909 120.11 69.2077 120.974 69.2078H195.986C196.85 69.2074 197.69 69.4904 198.379 70.0136C199.067 70.5367 199.566 71.2712 199.799 72.105L209.83 108.119H152.884Z" fill="#E6E7E8"/>
<path d="M200.933 76.1863L209.829 108.119H168.852L200.933 76.1863Z" fill="#E0E0E2"/>
<path d="M115.461 78.2425L117.166 72.1312C117.397 71.2978 117.895 70.5634 118.583 70.0402C119.271 69.517 120.11 69.2338 120.974 69.2339H195.986C196.85 69.2336 197.69 69.5165 198.379 70.0397C199.067 70.5628 199.566 71.2974 199.799 72.1312L201.586 78.5333L115.461 78.2425Z" fill="white"/>
<path d="M192.447 144.693H218.124V154.771C218.124 155.434 217.994 156.09 217.741 156.703C217.488 157.315 217.117 157.871 216.649 158.34C216.182 158.809 215.627 159.18 215.016 159.434C214.405 159.688 213.75 159.818 213.088 159.818H197.493C196.832 159.818 196.177 159.688 195.566 159.434C194.955 159.18 194.4 158.809 193.932 158.34C193.465 157.871 193.094 157.315 192.84 156.703C192.587 156.09 192.457 155.434 192.457 154.771V144.693H192.447Z" fill="#313232"/>
<path d="M218.114 145.264H192.447V150.934H218.114V145.264Z" fill="#2C2E30"/>
<path d="M98.7051 144.693H124.372V154.771C124.372 155.434 124.242 156.09 123.989 156.703C123.736 157.315 123.365 157.871 122.897 158.34C122.43 158.809 121.874 159.18 121.263 159.434C120.652 159.688 119.998 159.818 119.336 159.818H103.741C103.08 159.818 102.425 159.688 101.814 159.434C101.203 159.18 100.648 158.809 100.18 158.34C99.7125 157.871 99.3415 157.315 99.0884 156.703C98.8353 156.09 98.7051 155.434 98.7051 154.771V144.693Z" fill="#313232"/>
<path d="M124.372 145.264H98.7051V150.934H124.372V145.264Z" fill="#2C2E30"/>
<path d="M164.925 84.2759H152.402V88.6634H164.925V84.2759Z" fill="#C6C5CA"/>
<path d="M145.584 108.119H141.439C141.439 105.778 140.511 103.533 138.859 101.877C137.207 100.222 134.967 99.292 132.631 99.292C130.295 99.292 128.055 100.222 126.403 101.877C124.751 103.533 123.823 105.778 123.823 108.119H119.678C119.678 104.676 121.043 101.374 123.472 98.9401C125.901 96.5058 129.196 95.1382 132.631 95.1382C136.066 95.1382 139.361 96.5058 141.79 98.9401C144.219 101.374 145.584 104.676 145.584 108.119Z" fill="#C6C5CA"/>
<path d="M104.171 108.119H212.327C214.358 108.119 216.307 108.926 217.745 110.364C219.184 111.801 219.995 113.752 220 115.788V143.675C220 144.484 219.68 145.259 219.109 145.831C218.539 146.402 217.765 146.723 216.959 146.723H99.5447C98.7381 146.723 97.9646 146.402 97.3942 145.831C96.8238 145.259 96.5034 144.484 96.5034 143.675V115.788C96.5089 113.753 97.319 111.803 98.7563 110.365C100.194 108.928 102.141 108.12 104.171 108.119Z" fill="white"/>
<path d="M220 143.691C220 144.499 219.68 145.275 219.109 145.846C218.539 146.418 217.765 146.739 216.959 146.739H99.5447C98.7381 146.739 97.9646 146.418 97.3942 145.846C96.8238 145.275 96.5034 144.499 96.5034 143.691V138.395H220V143.691Z" fill="#D1D3D4"/>
<path d="M220 114.843H96.5034V131.406H220V114.843Z" fill="#EBBF00"/>
<path d="M177.556 118.597H139.387V121.364H177.556V118.597Z" fill="#757583"/>
<path d="M177.556 124.35H139.387V127.117H177.556V124.35Z" fill="#757583"/>
<path d="M115.523 129.345C118.951 129.345 121.73 126.56 121.73 123.124C121.73 119.689 118.951 116.904 115.523 116.904C112.095 116.904 109.316 119.689 109.316 123.124C109.316 126.56 112.095 129.345 115.523 129.345Z" fill="#F08B06"/>
<path d="M200.897 129.345C204.325 129.345 207.104 126.56 207.104 123.124C207.104 119.689 204.325 116.904 200.897 116.904C197.469 116.904 194.69 119.689 194.69 123.124C194.69 126.56 197.469 129.345 200.897 129.345Z" fill="#F08B06"/>
<path d="M19.5533 55.5937V62.785H8.26369C8.2618 59.7038 8.43478 56.625 8.7818 53.5635C10.685 54.0342 12.7488 54.4669 14.9732 54.8615C16.4343 55.1264 17.9627 55.3652 19.5533 55.5937Z" fill="#7F5B53"/>
<path d="M63.3701 99.7695V107.106C60.6511 107.594 57.8943 107.839 55.1321 107.838C52.389 107.841 49.6511 107.597 46.9512 107.111V99.7695H63.3701Z" fill="#F09372"/>
<path d="M102.332 62.785H91.0425V55.547C92.5139 55.3358 93.9318 55.1074 95.2962 54.8616C97.6432 54.4462 99.8193 53.9893 101.804 53.4805C102.157 56.5693 102.333 59.6759 102.332 62.785Z" fill="#7F5B53"/>
<path d="M102.265 60.7913H8.05165C5.01279 60.7913 2.54932 63.2589 2.54932 66.3029C2.54932 69.3468 5.01279 71.8145 8.05165 71.8145H102.265C105.304 71.8145 107.767 69.3468 107.767 66.3029C107.767 63.2589 105.304 60.7913 102.265 60.7913Z" fill="#F09372"/>
<path d="M67.3958 28.7651C63.4323 28.5003 59.3237 28.3549 55.1166 28.3549C50.9096 28.3549 46.8009 28.5003 42.8374 28.7651C50.8743 26.5496 59.3589 26.5496 67.3958 28.7651Z" fill="#FDD7AD"/>
<path d="M96.6897 64.4881C96.6897 85.1378 78.0843 101.873 55.132 101.873C32.1798 101.873 13.5796 85.1378 13.5796 64.4881C13.5796 63.9169 13.5796 63.3458 13.621 62.785C13.7539 60.1043 14.2079 57.4493 14.9733 54.8772C16.4344 55.142 17.9628 55.3964 19.5534 55.6093C29.4959 57.0216 41.8321 57.7693 55.132 57.7693C68.6029 57.7693 81.0376 57.006 91.0423 55.5626C92.5137 55.3514 93.9316 55.123 95.296 54.8772C96.0626 57.4543 96.5166 60.1146 96.6482 62.8006C96.6741 63.3458 96.6897 63.9169 96.6897 64.4881Z" fill="#FDD7AD"/>
<path d="M55.1321 53.2001C85.5807 53.2001 110.264 41.2908 110.264 26.6C110.264 11.9092 85.5807 0 55.1321 0C24.6835 0 0 11.9092 0 26.6C0 41.2908 24.6835 53.2001 55.1321 53.2001Z" fill="#F0C419"/>
<path d="M45.2102 9.97437H41.5472C40.9634 9.97437 40.4902 10.4486 40.4902 11.0336V14.7045C40.4902 15.2895 40.9634 15.7638 41.5472 15.7638H45.2102C45.794 15.7638 46.2672 15.2895 46.2672 14.7045V11.0336C46.2672 10.4486 45.794 9.97437 45.2102 9.97437Z" fill="#464F5D"/>
<path d="M19.5533 43.0543V45.1676C17.5408 48.1508 15.9962 51.4253 14.9732 54.8772C12.7522 54.4895 10.6884 54.0568 8.78174 53.5791C9.21384 49.6015 10.0081 45.6719 11.1547 41.8394L19.5533 43.0543Z" fill="#59474E"/>
<path d="M19.5532 45.1677C17.5408 48.1509 15.9962 51.4254 14.9731 54.8773C16.4342 55.1421 17.9626 55.3965 19.5532 55.6094C29.4958 57.0217 41.832 57.7694 55.1319 57.7694C68.6027 57.7694 81.0374 57.0061 91.0421 55.5627C92.5135 55.3515 93.9314 55.123 95.2958 54.8773C94.3291 51.6221 92.8963 48.5247 91.0421 45.6818L19.5532 45.1677Z" fill="#F09372"/>
<path d="M101.804 53.4804C99.8193 53.9997 97.6588 54.4462 95.2962 54.8616C94.3295 51.6064 92.8966 48.509 91.0425 45.6661V43.0699L99.4411 41.8394C100.577 45.6403 101.368 49.5366 101.804 53.4804Z" fill="#59474E"/>
<path d="M100.332 43.693C100.332 49.7368 80.0948 53.2 55.1323 53.2C30.1697 53.2 9.9375 49.7368 9.9375 43.693C9.9375 37.6492 30.1697 30.9927 55.1323 30.9927C80.0948 30.9927 100.332 37.6492 100.332 43.693Z" fill="#2C3E50"/>
<path d="M56.9612 9.97437H53.2982C52.7144 9.97437 52.2412 10.4486 52.2412 11.0336V14.7045C52.2412 15.2895 52.7144 15.7638 53.2982 15.7638H56.9612C57.5449 15.7638 58.0181 15.2895 58.0181 14.7045V11.0336C58.0181 10.4486 57.5449 9.97437 56.9612 9.97437Z" fill="#464F5D"/>
<path d="M51.1843 16.5996H47.5213C46.9376 16.5996 46.4644 17.0738 46.4644 17.6588V21.3298C46.4644 21.9148 46.9376 22.389 47.5213 22.389H51.1843C51.7681 22.389 52.2413 21.9148 52.2413 21.3298V17.6588C52.2413 17.0738 51.7681 16.5996 51.1843 16.5996Z" fill="#464F5D"/>
<path d="M62.7429 16.5996H59.0799C58.4962 16.5996 58.0229 17.0738 58.0229 17.6588V21.3298C58.0229 21.9148 58.4962 22.389 59.0799 22.389H62.7429C63.3267 22.389 63.7999 21.9148 63.7999 21.3298V17.6588C63.7999 17.0738 63.3267 16.5996 62.7429 16.5996Z" fill="#464F5D"/>
<path d="M68.9192 9.97437H65.2562C64.6724 9.97437 64.1992 10.4486 64.1992 11.0336V14.7045C64.1992 15.2895 64.6724 15.7638 65.2562 15.7638H68.9192C69.5029 15.7638 69.9761 15.2895 69.9761 14.7045V11.0336C69.9761 10.4486 69.5029 9.97437 68.9192 9.97437Z" fill="#464F5D"/>
<path d="M72.1467 116.785H79.8303C83.8284 116.784 87.7875 117.573 91.4812 119.106C95.1749 120.64 98.5309 122.888 101.357 125.722C104.184 128.556 106.425 131.92 107.953 135.622C109.482 139.325 110.267 143.293 110.264 147.3V154.995C110.264 156.328 109.736 157.606 108.795 158.549C107.855 159.491 106.579 160.021 105.249 160.021H5.42449C4.09435 160.021 2.81868 159.491 1.87813 158.549C0.937578 157.606 0.40918 156.328 0.40918 154.995V147.3C0.410554 139.212 3.61757 131.455 9.32487 125.737C15.0322 120.018 22.7723 116.805 30.843 116.805H72.1467V116.785Z" fill="#F0C419"/>
<path d="M68.4683 115.668H39.0552V129.407H68.4683V115.668Z" fill="#BDC3C6"/>
<path d="M63.3701 107.106V135.077H46.9512V107.111C49.6511 107.597 52.389 107.841 55.1321 107.838C57.8943 107.839 60.6511 107.594 63.3701 107.106Z" fill="#FDD7AD"/>
<path d="M27.9262 145.861H13.8957C12.4135 145.861 11.2119 147.065 11.2119 148.551C11.2119 150.036 12.4135 151.241 13.8957 151.241H27.9262C29.4084 151.241 30.61 150.036 30.61 148.551C30.61 147.065 29.4084 145.861 27.9262 145.861Z" fill="#F29C1F"/>
<path d="M58.1372 134.199H52.1841V160H58.1372V134.199Z" fill="#2C3E50"/>
<path d="M53.2358 136.396L43.6559 142.108C43.3815 142.272 43.0774 142.381 42.7611 142.427C42.4447 142.474 42.1223 142.457 41.8123 142.378C41.5024 142.3 41.2109 142.161 40.9547 141.969C40.6985 141.777 40.4826 141.537 40.3193 141.261L26.465 117.927C26.2929 117.639 26.1821 117.318 26.1397 116.985C26.0972 116.651 26.1241 116.313 26.2185 115.991C26.3129 115.668 26.4728 115.369 26.6882 115.112C26.9036 114.854 27.1699 114.644 27.4702 114.495L36.5941 109.915C37.1272 109.653 37.7378 109.595 38.3106 109.753C38.8834 109.911 39.3787 110.273 39.7028 110.772L54.013 132.943C54.1974 133.218 54.3239 133.528 54.3847 133.854C54.4455 134.179 54.4393 134.514 54.3666 134.837C54.2938 135.161 54.156 135.466 53.9616 135.734C53.7671 136.002 53.5202 136.227 53.2358 136.396Z" fill="#ECF0F1"/>
<path d="M57.4379 136.396L67.0126 142.108C67.5679 142.439 68.2316 142.535 68.8581 142.377C69.4846 142.218 70.0227 141.817 70.3544 141.261L84.2138 117.937C84.3852 117.649 84.4954 117.328 84.5374 116.995C84.5794 116.662 84.5524 116.324 84.4581 116.002C84.3637 115.68 84.2041 115.38 83.9891 115.123C83.7741 114.866 83.5085 114.655 83.2087 114.505L74.0796 109.915C73.5465 109.653 72.9359 109.595 72.3631 109.753C71.7903 109.911 71.295 110.273 70.9709 110.772L56.6607 132.943C56.4763 133.218 56.3498 133.528 56.289 133.854C56.2282 134.179 56.2344 134.514 56.3071 134.837C56.3799 135.161 56.5177 135.466 56.7121 135.734C56.9066 136.002 57.1535 136.227 57.4379 136.396Z" fill="#ECF0F1"/>
</g>
<defs>
<clipPath id="clip0_803_3194">
<rect width="220" height="160" fill="white"/>
</clipPath>
</defs>
</svg>
