<svg width="197" height="200" viewBox="0 0 197 200" fill="none" xmlns="http://www.w3.org/2000/svg">
<g clip-path="url(#clip0_797_3065)">
<path d="M110.048 158.269H193.155C194.18 158.269 195.162 158.676 195.887 159.4C196.611 160.123 197.018 161.105 197.018 162.129V187.989C197.018 188.142 196.988 188.295 196.929 188.436C196.87 188.578 196.784 188.707 196.675 188.816C196.567 188.925 196.438 189.011 196.295 189.07C196.153 189.128 196.001 189.159 195.847 189.159H107.355C107.045 189.159 106.747 189.035 106.528 188.816C106.308 188.597 106.185 188.299 106.185 187.989V162.115C106.188 161.094 106.597 160.116 107.321 159.395C108.045 158.674 109.026 158.269 110.048 158.269Z" fill="#DC691D"/>
<path d="M106.18 162.129C106.181 161.105 106.589 160.123 107.315 159.399C108.04 158.676 109.023 158.269 110.048 158.269H193.132C194.157 158.269 195.139 158.676 195.864 159.4C196.588 160.123 196.995 161.105 196.995 162.129V171.091H106.18V162.129Z" fill="#C5411E"/>
<path d="M160.162 5.57739H81.3189C78.7958 5.57739 76.7505 7.6208 76.7505 10.1415V114.273C76.7505 116.793 78.7958 118.837 81.3189 118.837H160.162C162.685 118.837 164.731 116.793 164.731 114.273V10.1415C164.731 7.6208 162.685 5.57739 160.162 5.57739Z" fill="#EDF6FF"/>
<path d="M96.1029 28.7754H92.9543V22.5303C92.9543 22.2539 92.9543 21.9408 92.9543 21.6092C92.9543 21.2776 92.9544 20.9644 92.9866 20.6881C92.8529 20.8492 92.7239 20.992 92.6086 21.1072L92.2675 21.4249L90.9629 22.5026L89.354 20.5269L93.2955 17.303H96.0891L96.1029 28.7754Z" fill="#DD352E"/>
<path d="M96.7482 60.3694H94.1667V55.248C94.1667 55.0178 94.1667 54.7875 94.1667 54.4835C94.1667 54.1795 94.1667 53.9539 94.1989 53.7328C94.0837 53.8664 93.9823 53.9815 93.8854 54.0736C93.7886 54.1657 93.6964 54.2578 93.6042 54.3361L92.5347 55.2204L91.2163 53.5992L94.4432 50.9695H96.7482V60.3694Z" fill="#BECEDC"/>
<path d="M97.91 76.8573H91.0781V75.1854L93.383 72.8827C93.844 72.3853 94.2267 71.9846 94.4894 71.6852C94.706 71.4542 94.8933 71.1974 95.0472 70.9207C95.1518 70.7168 95.2071 70.4912 95.2086 70.2621C95.2192 70.1467 95.1997 70.0304 95.152 69.9247C95.1044 69.819 95.0301 69.7274 94.9366 69.6588C94.7493 69.5315 94.5269 69.4655 94.3004 69.47C93.9836 69.4773 93.674 69.5662 93.4015 69.7279C93.0362 69.9417 92.6934 70.1917 92.3781 70.474L90.9951 68.839C91.2763 68.5903 91.576 68.3462 91.894 68.1159C92.2398 67.8752 92.6187 67.686 93.0189 67.5541C93.5328 67.3991 94.068 67.3261 94.6047 67.3376C95.1771 67.3237 95.7455 67.437 96.2689 67.6692C96.7105 67.8707 97.0884 68.1893 97.3614 68.5903C97.62 68.9822 97.7549 69.4427 97.7486 69.9121C97.757 70.4148 97.6547 70.9132 97.449 71.3721C97.208 71.8428 96.8971 72.2744 96.527 72.6524C96.1244 73.0761 95.6265 73.5582 95.0334 74.0985L94.3419 74.7203V74.7848H97.9054L97.91 76.8573Z" fill="#BECEDC"/>
<path d="M97.5921 89.0479C97.6039 89.4521 97.5051 89.8518 97.3063 90.2039C97.1186 90.5241 96.858 90.7955 96.5456 90.9961C96.2272 91.2017 95.8789 91.357 95.513 91.4566V91.4935C96.1502 91.5397 96.7581 91.7791 97.2555 92.1797C97.4651 92.375 97.6287 92.6142 97.7347 92.8801C97.8407 93.1461 97.8865 93.4322 97.8687 93.7179C97.8742 94.2193 97.7315 94.7112 97.4584 95.1318C97.1431 95.5933 96.6991 95.952 96.1814 96.1635C95.47 96.4415 94.7092 96.5716 93.9456 96.5457C93.4231 96.5525 92.9012 96.5078 92.3875 96.4122C91.9619 96.3208 91.5442 96.196 91.1382 96.0391V93.9252C91.5385 94.1303 91.9628 94.285 92.4013 94.3857C92.7875 94.4815 93.1835 94.5325 93.5814 94.5377C94.0199 94.5793 94.4606 94.4861 94.8446 94.2706C94.9539 94.1892 95.0421 94.0827 95.1014 93.96C95.1608 93.8373 95.1897 93.7022 95.1857 93.566C95.1914 93.3708 95.1349 93.1789 95.0243 93.0179C94.8693 92.8385 94.6581 92.7167 94.4251 92.6725C94.0175 92.5762 93.599 92.5344 93.1804 92.5481H92.5995V90.6368H93.1942C93.5795 90.6492 93.9646 90.6057 94.3375 90.5079C94.5699 90.4525 94.7813 90.3309 94.946 90.1579C95.0677 90.0155 95.1332 89.8338 95.1304 89.6466C95.1365 89.5374 95.1132 89.4286 95.0629 89.3314C95.0127 89.2342 94.9373 89.1522 94.8446 89.094C94.6095 88.9641 94.343 88.9019 94.0747 88.9144C93.8045 88.9118 93.5356 88.9507 93.2772 89.0295C93.0541 89.0983 92.8367 89.1845 92.6272 89.2874C92.4428 89.3795 92.3045 89.4578 92.2077 89.5177L91.152 87.8228C91.5695 87.5427 92.0201 87.3153 92.4935 87.1458C93.1337 86.9417 93.8041 86.8483 94.4758 86.8695C95.2856 86.8214 96.0905 87.024 96.7807 87.4498C97.0409 87.6252 97.252 87.864 97.394 88.1437C97.536 88.4233 97.6042 88.7346 97.5921 89.0479Z" fill="#BECEDC"/>
<path d="M108.974 28.7755L108.411 26.6201H104.682L104.101 28.7663H100.694L104.438 17.2524H108.587L112.38 28.7663L108.974 28.7755ZM107.766 24.0871L107.273 22.208C107.217 22.0007 107.144 21.7106 107.042 21.3329C106.941 20.9553 106.844 20.5592 106.747 20.1539C106.65 19.7486 106.577 19.417 106.526 19.1545C106.48 19.417 106.411 19.7394 106.323 20.1263C106.235 20.5132 106.152 20.8908 106.06 21.2639C105.968 21.6369 105.885 21.9547 105.821 22.185L105.323 24.064L107.766 24.0871Z" fill="#DD352E"/>
<path d="M96.3473 41.3576H94.4802L91.6682 37.6179V41.3576H90.0225V33.9888H91.6682V37.5581L94.4341 33.9888H96.1813L93.3554 37.5304L96.3473 41.3576Z" fill="#DD352E"/>
<path d="M103.465 41.3576H101.824V35.2783H99.9243C99.8843 35.5853 99.8382 35.9307 99.786 36.3145L99.6339 37.4429C99.5785 37.8252 99.5232 38.1844 99.4679 38.5298C99.4126 38.8752 99.348 39.17 99.2927 39.4509C99.2169 39.8311 99.0913 40.1996 98.9193 40.547C98.7753 40.8319 98.553 41.0699 98.2785 41.2333C97.9529 41.4062 97.5867 41.4889 97.2183 41.4727C97.0793 41.474 96.9405 41.4632 96.8034 41.4405C96.6787 41.4234 96.5554 41.3972 96.4346 41.3622V40.0819C96.5268 40.1095 96.619 40.1325 96.7112 40.1509C96.8099 40.1701 96.9103 40.1794 97.0108 40.1786C97.0759 40.1811 97.1408 40.1706 97.2018 40.1476C97.2627 40.1247 97.3185 40.0898 97.3658 40.045C97.4833 39.9128 97.5685 39.7552 97.6147 39.5845C97.7128 39.2835 97.7883 38.9756 97.8406 38.6634C97.8729 38.4976 97.9143 38.2581 97.9651 37.9495C98.0158 37.6409 98.0803 37.2817 98.1448 36.8672C98.2094 36.4527 98.2831 35.9968 98.3569 35.4855C98.4307 34.9743 98.4998 34.4815 98.5643 33.9519H103.465V41.3576Z" fill="#DD352E"/>
<path d="M110.172 41.3576L109.61 39.6029H106.784L106.217 41.3576H104.447L107.185 33.9519H109.195L111.961 41.3576H110.172ZM109.218 38.2903L108.651 36.5771C108.62 36.4635 108.574 36.3099 108.513 36.1165C108.453 35.9369 108.397 35.7527 108.338 35.5684C108.278 35.3842 108.232 35.2184 108.199 35.0803C108.162 35.2184 108.112 35.3888 108.052 35.5915C107.992 35.7941 107.932 35.9876 107.872 36.1672L107.752 36.5586L107.194 38.2719L109.218 38.2903Z" fill="#DD352E"/>
<path d="M116.216 35.1724C115.926 35.1674 115.64 35.2272 115.377 35.3474C115.137 35.4642 114.928 35.6363 114.768 35.8494C114.594 36.0872 114.467 36.3561 114.395 36.6416C114.304 36.9825 114.261 37.3343 114.266 37.687C114.256 38.1391 114.324 38.5894 114.469 39.018C114.586 39.3592 114.809 39.6543 115.105 39.8608C115.437 40.0673 115.825 40.1685 116.216 40.151C116.533 40.1512 116.85 40.1172 117.161 40.0497C117.51 39.9753 117.855 39.88 118.193 39.7641V41.0767C117.865 41.2055 117.526 41.3026 117.179 41.3669C116.809 41.4267 116.434 41.456 116.059 41.4544C115.373 41.487 114.691 41.3275 114.091 40.9938C113.579 40.6858 113.178 40.2228 112.947 39.672C112.686 39.045 112.559 38.3705 112.574 37.6916C112.566 37.1706 112.647 36.652 112.814 36.158C112.961 35.7115 113.199 35.3005 113.514 34.9513C113.828 34.6049 114.218 34.3354 114.653 34.1638C115.151 33.9712 115.682 33.8773 116.216 33.8875C116.605 33.8882 116.994 33.9346 117.373 34.0256C117.755 34.1169 118.127 34.2449 118.484 34.4079L117.954 35.679C117.669 35.5472 117.376 35.4319 117.078 35.3336C116.801 35.2344 116.51 35.18 116.216 35.1724Z" fill="#DD352E"/>
<path d="M123.14 35.1724C122.851 35.1674 122.564 35.2272 122.301 35.3474C122.061 35.4642 121.853 35.6363 121.693 35.8494C121.519 36.0872 121.392 36.3561 121.319 36.6416C121.228 36.9825 121.185 37.3343 121.19 37.687C121.179 38.1395 121.25 38.5903 121.398 39.018C121.512 39.3596 121.733 39.6552 122.029 39.8608C122.362 40.0673 122.749 40.1685 123.14 40.151C123.45 40.1496 123.759 40.1156 124.062 40.0497C124.412 39.9753 124.757 39.88 125.095 39.7641V41.0767C124.767 41.206 124.427 41.3032 124.081 41.3669C123.71 41.4267 123.336 41.456 122.96 41.4544C122.274 41.487 121.592 41.3275 120.992 40.9938C120.48 40.6858 120.079 40.2228 119.849 39.672C119.588 39.045 119.461 38.3705 119.475 37.6916C119.468 37.1706 119.549 36.652 119.715 36.158C119.862 35.7115 120.101 35.3005 120.416 34.9513C120.73 34.6059 121.12 34.3365 121.554 34.1638C122.052 33.9712 122.583 33.8773 123.117 33.8875C123.507 33.8882 123.895 33.9346 124.274 34.0256C124.656 34.1169 125.028 34.2449 125.385 34.4079L124.855 35.679C124.57 35.5472 124.277 35.4319 123.979 35.3336C123.709 35.2368 123.426 35.1824 123.14 35.1724Z" fill="#DD352E"/>
<path d="M135.218 54.5388H107.614C106.315 54.5388 105.263 55.5894 105.263 56.8853C105.263 58.1813 106.315 59.2318 107.614 59.2318H135.218C136.516 59.2318 137.569 58.1813 137.569 56.8853C137.569 55.5894 136.516 54.5388 135.218 54.5388Z" fill="#BECEDC"/>
<path d="M135.218 71.5193H107.614C106.315 71.5193 105.263 72.5699 105.263 73.8658C105.263 75.1618 106.315 76.2123 107.614 76.2123H135.218C136.516 76.2123 137.569 75.1618 137.569 73.8658C137.569 72.5699 136.516 71.5193 135.218 71.5193Z" fill="#BECEDC"/>
<path d="M135.218 89.9414H107.614C106.315 89.9414 105.263 90.992 105.263 92.2879C105.263 93.5839 106.315 94.6344 107.614 94.6344H135.218C136.516 94.6344 137.569 93.5839 137.569 92.2879C137.569 90.992 136.516 89.9414 135.218 89.9414Z" fill="#BECEDC"/>
<path d="M159.028 108.645H155.34V101.916C155.358 101.425 155.276 100.935 155.1 100.475C154.923 100.016 154.656 99.5973 154.315 99.2435C153.973 98.8896 153.563 98.6082 153.11 98.416C152.657 98.2238 152.17 98.1247 151.678 98.1247C151.185 98.1247 150.698 98.2238 150.245 98.416C149.792 98.6082 149.382 98.8896 149.041 99.2435C148.699 99.5973 148.432 100.016 148.256 100.475C148.079 100.935 147.997 101.425 148.015 101.916V108.645H144.327V101.916C144.302 100.936 144.474 99.9613 144.833 99.0489C145.191 98.1364 145.729 97.3049 146.414 96.6032C147.099 95.9015 147.917 95.3439 148.821 94.9631C149.725 94.5824 150.696 94.3862 151.678 94.3862C152.659 94.3862 153.63 94.5824 154.534 94.9631C155.438 95.3439 156.256 95.9015 156.941 96.6032C157.626 97.3049 158.164 98.1364 158.522 99.0489C158.881 99.9613 159.053 100.936 159.028 101.916V108.645Z" fill="#DC691D"/>
<path d="M117 139.35H186.028V193.198C186.028 195.002 185.311 196.732 184.034 198.008C182.757 199.283 181.025 200 179.22 200H123.808C122.003 200 120.271 199.283 118.994 198.008C117.717 196.732 117 195.002 117 193.198V139.35Z" fill="#ED8A19"/>
<path d="M119.554 107.396H183.807C184.973 107.396 186.092 107.859 186.916 108.683C187.741 109.507 188.204 110.625 188.204 111.79V135.311C188.204 139.558 186.516 143.631 183.51 146.634C180.504 149.637 176.427 151.324 172.176 151.324H131.184C126.933 151.324 122.856 149.637 119.85 146.634C116.844 143.631 115.156 139.558 115.156 135.311V111.79C115.156 110.625 115.619 109.507 116.444 108.683C117.269 107.859 118.387 107.396 119.554 107.396Z" fill="#EBBA16"/>
<path d="M128.063 103.735H135.015V140.225C135.015 141.146 134.649 142.029 133.997 142.68C133.345 143.331 132.461 143.697 131.539 143.697C130.617 143.697 129.733 143.331 129.082 142.68C128.43 142.029 128.063 141.146 128.063 140.225V103.735Z" fill="#DD352E"/>
<path d="M168.299 103.735H175.251V140.225C175.251 141.146 174.884 142.029 174.233 142.68C173.581 143.331 172.697 143.697 171.775 143.697C170.853 143.697 169.969 143.331 169.317 142.68C168.665 142.029 168.299 141.146 168.299 140.225V103.735Z" fill="#DD352E"/>
<path d="M159.051 118.127H144.263V125.708H159.051V118.127Z" fill="white"/>
<path d="M137.694 129.195H125.385C124.7 129.195 124.145 129.749 124.145 130.433V135.076C124.145 135.76 124.7 136.315 125.385 136.315H137.694C138.378 136.315 138.934 135.76 138.934 135.076V130.433C138.934 129.749 138.378 129.195 137.694 129.195Z" fill="#B02721"/>
<path d="M177.929 129.195H165.62C164.936 129.195 164.38 129.749 164.38 130.433V135.076C164.38 135.76 164.936 136.315 165.62 136.315H177.929C178.614 136.315 179.169 135.76 179.169 135.076V130.433C179.169 129.749 178.614 129.195 177.929 129.195Z" fill="#B02721"/>
<path d="M126.146 161.834H177.26C177.768 161.834 178.254 162.035 178.613 162.394C178.972 162.752 179.173 163.238 179.173 163.745V172.814C179.173 173.785 178.787 174.716 178.1 175.403C177.413 176.089 176.48 176.475 175.508 176.475H127.897C126.925 176.475 125.993 176.089 125.306 175.403C124.619 174.716 124.232 173.785 124.232 172.814V163.75C124.232 163.498 124.281 163.249 124.377 163.017C124.473 162.785 124.613 162.573 124.791 162.395C124.969 162.217 125.18 162.076 125.412 161.98C125.645 161.884 125.894 161.834 126.146 161.834Z" fill="#DD352E"/>
<path d="M128.017 175.204H175.011V187.768C175.011 188.168 174.851 188.553 174.568 188.836C174.284 189.119 173.899 189.278 173.498 189.278H129.538C129.137 189.278 128.753 189.119 128.469 188.836C128.186 188.553 128.026 188.168 128.026 187.768V175.204H128.017Z" fill="#B02721"/>
<path d="M148.061 170.69H155.202V180.173C155.203 180.402 155.159 180.629 155.072 180.841C154.985 181.052 154.858 181.245 154.696 181.407C154.535 181.569 154.343 181.698 154.131 181.786C153.92 181.874 153.693 181.919 153.464 181.919H149.822C149.361 181.919 148.919 181.736 148.593 181.41C148.267 181.085 148.084 180.643 148.084 180.182V170.69H148.061Z" fill="#E7ECED"/>
<path d="M158.894 167.407H144.322C143.294 167.407 142.46 168.24 142.46 169.267C142.46 170.295 143.294 171.128 144.322 171.128H158.894C159.923 171.128 160.757 170.295 160.757 169.267C160.757 168.24 159.923 167.407 158.894 167.407Z" fill="#EBBC16"/>
<path d="M93.987 125.275L21.1504 151.527C20.1207 151.892 18.9883 151.837 17.9992 151.373C17.01 150.909 16.244 150.074 15.8675 149.049L0.244471 105.808C-0.122545 104.778 -0.0678751 103.646 0.396585 102.657C0.861045 101.667 1.69772 100.901 2.7246 100.525L75.3492 74.3242C76.3813 73.9599 77.5157 74.0178 78.5052 74.4853C79.4947 74.9529 80.2592 75.7922 80.6321 76.8204L96.2736 120.08C96.4893 120.569 96.6009 121.096 96.6013 121.63C96.6016 122.164 96.4908 122.692 96.2757 123.181C96.0606 123.67 95.746 124.108 95.352 124.469C94.958 124.829 94.4931 125.104 93.987 125.275Z" fill="#FF4F19"/>
<path d="M58.8155 128.649L50.6646 131.594L53.6128 139.737L61.7638 136.792L58.8155 128.649Z" fill="#E3001E"/>
<path d="M89.4968 120.752L21.5329 145.272C21.4062 145.327 21.2694 145.354 21.1315 145.352C20.9936 145.35 20.8577 145.319 20.7327 145.26C20.6078 145.202 20.4966 145.118 20.4064 145.014C20.3163 144.909 20.2493 144.787 20.2098 144.655L17.9694 138.447C17.9148 138.32 17.8877 138.184 17.8898 138.046C17.8918 137.908 17.9231 137.772 17.9814 137.648C18.0398 137.523 18.1239 137.412 18.2283 137.322C18.3327 137.232 18.455 137.165 18.5871 137.125L86.551 112.605C86.6779 112.55 86.8151 112.523 86.9535 112.525C87.0919 112.527 87.2283 112.558 87.3535 112.617C87.4787 112.676 87.5899 112.761 87.6797 112.866C87.7695 112.971 87.8358 113.094 87.8741 113.227L90.1191 119.435C90.1728 119.562 90.1992 119.698 90.1964 119.836C90.1936 119.973 90.1618 120.109 90.1031 120.233C90.0443 120.357 89.96 120.468 89.8555 120.557C89.751 120.647 89.6288 120.713 89.4968 120.752Z" fill="#E6BE8A"/>
<path d="M90.1193 119.435C90.1193 119.435 85.9335 113.909 70.398 119.532C54.8626 125.156 55.1853 132.045 55.1853 132.045L37.4233 82.9596C37.4233 82.9596 41.0145 77.7185 53.6364 73.1636C66.2583 68.6087 72.3757 70.3727 72.3757 70.3727L90.1193 119.435Z" fill="#FFD788"/>
<path d="M55.1528 132.045C55.1528 132.045 50.967 126.519 35.4362 132.142C19.9054 137.765 20.2235 144.655 20.2235 144.655L2.4707 95.5741C2.4707 95.5741 6.06182 90.3284 18.6838 85.7736C31.3057 81.2187 37.4231 82.9596 37.4231 82.9596L55.1528 132.045Z" fill="#FFEBB7"/>
<path d="M34.9525 92.5161C34.7956 92.5727 34.6306 92.6038 34.4638 92.6082C28.6745 92.7061 22.9822 94.1104 17.8128 96.7163C17.446 96.9044 17.0195 96.9393 16.627 96.8132C16.2345 96.6871 15.9082 96.4104 15.7199 96.0439C15.5316 95.6775 15.4968 95.2513 15.623 94.8592C15.7492 94.4671 16.0262 94.1411 16.393 93.953C21.9874 91.1379 28.1455 89.6203 34.4085 89.5133C34.7766 89.5032 35.1362 89.6246 35.4229 89.8555C35.7096 90.0864 35.9045 90.4118 35.9728 90.7733C36.041 91.1348 35.9782 91.5088 35.7954 91.8282C35.6126 92.1475 35.322 92.3914 34.9755 92.5161H34.9525Z" fill="#B4B6BC"/>
<path d="M10.6767 101.276C10.3218 101.4 9.93375 101.391 9.58494 101.251C9.23614 101.11 8.95041 100.848 8.78109 100.512C8.61177 100.177 8.57042 99.7911 8.66475 99.4273C8.75908 99.0636 8.98265 98.7466 9.29374 98.5354C9.29374 98.5354 9.98062 98.0749 10.9349 97.3196C11.0947 97.1938 11.2777 97.1007 11.4736 97.0455C11.6694 96.9904 11.8742 96.9744 12.0763 96.9983C12.2783 97.0223 12.4737 97.0858 12.6512 97.1851C12.8287 97.2845 12.9848 97.4178 13.1107 97.5775C13.2367 97.7372 13.3299 97.92 13.3851 98.1157C13.4402 98.3114 13.4563 98.516 13.4323 98.7178C13.4083 98.9197 13.3448 99.1148 13.2453 99.2922C13.1459 99.4695 13.0124 99.6255 12.8526 99.7513C11.7693 100.603 11.0086 101.101 11.0086 101.101C10.9053 101.172 10.7939 101.231 10.6767 101.276Z" fill="#B4B6BC"/>
<path d="M37.0359 97.688C36.8099 97.7676 36.5686 97.7944 36.3306 97.7663C35.6485 97.7249 34.964 97.7557 34.2884 97.8584L33.8643 97.8998C33.6624 97.9207 33.4584 97.9016 33.2639 97.8437C33.0694 97.7858 32.8882 97.6902 32.7306 97.5623C32.5731 97.4344 32.4423 97.2768 32.3458 97.0984C32.2492 96.9201 32.1888 96.7245 32.1679 96.5228C32.147 96.3211 32.1661 96.1172 32.224 95.9229C32.282 95.7286 32.3777 95.5475 32.5057 95.3901C32.6337 95.2328 32.7915 95.1021 32.97 95.0056C33.1485 94.9092 33.3443 94.8488 33.5462 94.8279L33.9427 94.7819C34.8586 94.6503 35.7863 94.621 36.7086 94.6944C37.0555 94.7352 37.3783 94.8919 37.6248 95.1391C37.8712 95.3863 38.0268 95.7095 38.0663 96.0561C38.1058 96.4028 38.0269 96.7526 37.8424 97.0488C37.6578 97.3451 37.3785 97.5703 37.0498 97.688H37.0359Z" fill="#B4B6BC"/>
<path d="M12.502 106.319C12.165 106.441 11.7963 106.442 11.4584 106.323C11.1206 106.203 10.8346 105.971 10.6492 105.664C10.4638 105.358 10.3905 104.997 10.4417 104.643C10.4929 104.288 10.6654 103.963 10.93 103.721C11.1835 103.486 17.2871 97.9873 27.6962 95.5832C28.0966 95.4879 28.5185 95.5555 28.8691 95.771C29.2197 95.9865 29.4702 96.3323 29.5656 96.7323C29.6609 97.1323 29.5933 97.5538 29.3776 97.904C29.1619 98.2543 28.8158 98.5046 28.4154 98.5998C18.7945 100.81 13.1013 105.969 13.0413 106.006C12.8836 106.144 12.7004 106.25 12.502 106.319Z" fill="#B4B6BC"/>
<path d="M38.6681 102.8C38.51 102.852 38.3457 102.883 38.1794 102.892C34.2008 102.959 30.2591 103.668 26.5071 104.992C26.123 105.122 25.7033 105.097 25.338 104.921C24.9727 104.745 24.691 104.433 24.5533 104.052C24.4157 103.671 24.4332 103.251 24.602 102.883C24.7708 102.514 25.0774 102.227 25.4561 102.082C29.5197 100.64 33.7896 99.8623 38.1011 99.7789C38.4692 99.7689 38.8288 99.8902 39.1155 100.121C39.4021 100.352 39.5971 100.677 39.6653 101.039C39.7336 101.4 39.6707 101.774 39.488 102.094C39.3052 102.413 39.0145 102.657 38.6681 102.782V102.8Z" fill="#B4B6BC"/>
<path d="M14.4659 111.749C14.1272 111.872 13.7561 111.873 13.4166 111.753C13.077 111.632 12.7902 111.396 12.6057 111.087C12.4211 110.778 12.3503 110.414 12.4054 110.058C12.4606 109.702 12.6382 109.377 12.9078 109.137C15.1395 107.298 17.5794 105.726 20.1776 104.454C20.3592 104.361 20.5573 104.306 20.7604 104.29C20.9635 104.274 21.1677 104.299 21.3614 104.362C21.5551 104.425 21.7345 104.525 21.8893 104.658C22.0441 104.79 22.1713 104.952 22.2636 105.133C22.3559 105.314 22.4116 105.512 22.4274 105.715C22.4432 105.918 22.4188 106.122 22.3557 106.316C22.2925 106.509 22.1918 106.688 22.0594 106.843C21.9269 106.998 21.7653 107.125 21.5837 107.217C19.2221 108.381 17.0011 109.81 14.9638 111.477C14.8152 111.596 14.6466 111.688 14.4659 111.749Z" fill="#B4B6BC"/>
<path d="M40.7515 107.967C40.5962 108.024 40.4328 108.055 40.2675 108.06C25.9952 108.414 16.8906 116.428 16.7938 116.492C16.4852 116.745 16.0909 116.869 15.6932 116.838C15.2954 116.808 14.9247 116.625 14.6585 116.328C14.3923 116.031 14.251 115.643 14.264 115.245C14.2771 114.846 14.4435 114.468 14.7286 114.19C15.1342 113.83 24.7874 105.356 40.1891 104.978C40.5568 104.97 40.9156 105.092 41.2014 105.323C41.4871 105.554 41.6812 105.88 41.7488 106.241C41.8165 106.602 41.7533 106.975 41.5706 107.294C41.3878 107.613 41.0975 107.857 40.7515 107.981V107.967Z" fill="#B4B6BC"/>
<path d="M42.4525 113.273C42.2956 113.33 42.1306 113.361 41.9638 113.365C40.1636 113.423 38.3678 113.577 36.5841 113.826C36.3781 113.861 36.1672 113.854 35.964 113.806C35.7608 113.757 35.5695 113.668 35.4016 113.544C35.2337 113.42 35.0927 113.263 34.9871 113.083C34.8814 112.903 34.8133 112.703 34.7869 112.496C34.7604 112.289 34.7762 112.079 34.8332 111.878C34.8902 111.678 34.9872 111.49 35.1185 111.328C35.2498 111.166 35.4126 111.031 35.5971 110.934C35.7816 110.836 35.9841 110.776 36.1922 110.759C38.0819 110.503 39.9839 110.349 41.8901 110.298C42.2591 110.286 42.6203 110.406 42.9084 110.636C43.1964 110.867 43.3922 111.193 43.4602 111.556C43.5282 111.918 43.4639 112.293 43.2791 112.612C43.0942 112.932 42.801 113.174 42.4525 113.296V113.273Z" fill="#B4B6BC"/>
<path d="M18.1813 122.033C17.843 122.154 17.473 122.153 17.1349 122.032C16.7967 121.91 16.5114 121.675 16.3278 121.366C16.1442 121.058 16.0737 120.695 16.1284 120.34C16.1832 119.985 16.3597 119.661 16.6278 119.421C16.8399 119.233 21.9476 114.728 30.6696 112.053C31.0621 111.933 31.4859 111.973 31.8487 112.165C32.2114 112.357 32.4836 112.684 32.6058 113.075C32.6683 113.269 32.6915 113.473 32.6739 113.676C32.6564 113.879 32.5984 114.076 32.5035 114.256C32.4086 114.436 32.2787 114.596 32.1213 114.725C31.9639 114.854 31.7822 114.951 31.587 115.009C23.5611 117.492 18.7299 121.701 18.6792 121.743C18.5336 121.871 18.3645 121.969 18.1813 122.033Z" fill="#B4B6BC"/>
<path d="M44.5501 118.44C44.3932 118.497 44.2282 118.528 44.0614 118.533C29.7707 118.887 20.68 126.887 20.5878 126.965C20.2792 127.218 19.8849 127.342 19.4871 127.311C19.0893 127.281 18.7187 127.098 18.4525 126.801C18.1862 126.504 18.0449 126.116 18.058 125.718C18.071 125.319 18.2374 124.941 18.5225 124.663C18.9282 124.299 28.5813 115.825 43.9831 115.452C44.3512 115.441 44.7108 115.563 44.9975 115.794C45.2841 116.025 45.4791 116.35 45.5473 116.712C45.6156 117.073 45.5527 117.447 45.37 117.766C45.1872 118.086 44.8965 118.33 44.5501 118.454V118.44Z" fill="#B4B6BC"/>
<path d="M46.5049 123.875C46.3566 123.928 46.2013 123.959 46.0439 123.967C40.6447 124.072 35.3224 125.267 30.3979 127.481C30.2139 127.569 30.0141 127.62 29.8103 127.63C29.6065 127.64 29.4027 127.61 29.2108 127.54C29.0189 127.471 28.8429 127.364 28.6929 127.226C28.5429 127.087 28.422 126.921 28.3373 126.735C28.1641 126.363 28.1454 125.938 28.2853 125.552C28.4253 125.166 28.7125 124.851 29.0841 124.677C34.0443 122.374 39.6869 121.084 45.9241 120.868C46.2935 120.854 46.6556 120.973 46.9451 121.203C47.2345 121.432 47.4321 121.758 47.5023 122.121C47.5724 122.483 47.5104 122.859 47.3275 123.18C47.1446 123.501 46.8529 123.746 46.5049 123.871V123.875Z" fill="#B4B6BC"/>
<path d="M37.6859 83.084L45.6104 105.006L40.5395 103.109L37.8473 107.811L28.9409 83.1715C34.7264 82.1813 37.6859 83.084 37.6859 83.084Z" fill="#5D647F"/>
<path d="M21.9616 132.506C21.6753 132.608 21.3653 132.625 21.0697 132.553C20.7741 132.482 20.5057 132.326 20.2974 132.105C20.1589 131.957 20.051 131.783 19.9799 131.592C19.9089 131.402 19.876 131.2 19.8833 130.997C19.8906 130.795 19.9378 130.595 20.0223 130.411C20.1069 130.226 20.227 130.06 20.3758 129.922C21.4312 128.992 22.5806 128.174 23.8056 127.481C23.9814 127.379 24.1757 127.312 24.3773 127.285C24.579 127.258 24.784 127.271 24.9807 127.323C25.1774 127.375 25.3619 127.465 25.5237 127.588C25.6856 127.711 25.8215 127.865 25.9238 128.041C26.0261 128.216 26.0928 128.411 26.12 128.612C26.1472 128.813 26.1345 129.018 26.0825 129.215C26.0305 129.411 25.9402 129.596 25.8169 129.757C25.6936 129.919 25.5396 130.055 25.3637 130.157C24.3436 130.737 23.3832 131.416 22.4963 132.183C22.3422 132.326 22.1601 132.436 21.9616 132.506Z" fill="#B4B6BC"/>
<path d="M170.301 38.5948L167.37 41.5225L171.627 45.7756L174.558 42.8479L170.301 38.5948Z" fill="#CAE9ED"/>
<path d="M190.076 61.2813C189.938 61.4189 189.793 61.5496 189.642 61.6727C188.566 62.5446 187.205 62.9872 185.822 62.9149C184.438 62.8426 183.13 62.2606 182.151 61.2813L168.474 47.6213L172.028 44.075L176.403 39.7043L190.076 53.3644C190.596 53.884 191.009 54.5011 191.291 55.1803C191.573 55.8595 191.718 56.5876 191.718 57.3228C191.718 58.0581 191.573 58.7861 191.291 59.4653C191.009 60.1445 190.596 60.7616 190.076 61.2813Z" fill="#9A9A9A"/>
<path d="M190.076 61.2813C189.938 61.4189 189.794 61.5496 189.643 61.6727L172.028 44.075L176.403 39.7043L190.076 53.3644C190.597 53.884 191.01 54.5011 191.292 55.1803C191.573 55.8595 191.718 56.5876 191.718 57.3228C191.718 58.0581 191.573 58.7861 191.292 59.4653C191.01 60.1445 190.597 60.7616 190.076 61.2813Z" fill="#B1B1B1"/>
<path d="M153.054 46.6034C165.363 46.6034 175.342 36.6338 175.342 24.3356C175.342 12.0375 165.363 2.06787 153.054 2.06787C140.744 2.06787 130.765 12.0375 130.765 24.3356C130.765 36.6338 140.744 46.6034 153.054 46.6034Z" fill="white"/>
<path d="M153.049 48.6713C148.232 48.6704 143.524 47.2428 139.519 44.5691C135.514 41.8953 132.393 38.0953 130.549 33.6496C128.706 29.2038 128.223 24.3118 129.162 19.592C130.101 14.8721 132.419 10.5363 135.824 7.13264C139.229 3.72897 143.568 1.41023 148.292 0.469524C153.016 -0.471178 157.913 0.00839038 162.364 1.84761C166.815 3.68683 170.62 6.80312 173.299 10.8026C175.977 14.802 177.409 19.5051 177.412 24.3172C177.41 30.7732 174.843 36.9642 170.275 41.5306C165.707 46.0969 159.511 48.6652 153.049 48.6713ZM153.049 4.14039C149.05 4.1413 145.142 5.32697 141.818 7.54743C138.494 9.76788 135.904 12.9234 134.375 16.6147C132.846 20.3061 132.447 24.3675 133.229 28.2852C134.011 32.2029 135.939 35.8009 138.768 38.624C141.597 41.4472 145.201 43.3687 149.123 44.1455C153.045 44.9223 157.11 44.5194 160.803 42.9879C164.496 41.4564 167.652 38.8651 169.871 35.5417C172.089 32.2183 173.272 28.3121 173.268 24.3172C173.257 18.9654 171.123 13.8362 167.333 10.054C163.542 6.27185 158.406 4.14525 153.049 4.14039Z" fill="#A5A5A5"/>
<path d="M163.408 17.7452C163.844 18.1814 164.089 18.7728 164.089 19.3894C164.089 20.0061 163.844 20.5975 163.408 21.0336L151.961 32.4876C151.616 32.8265 151.152 33.0164 150.668 33.0164C150.184 33.0164 149.72 32.8265 149.375 32.4876L157.535 40.6394C154.132 41.5707 150.522 41.4157 147.212 40.1961C143.901 38.9765 141.055 36.7533 139.072 33.8376C137.088 30.922 136.067 27.4598 136.151 23.9356C136.235 20.4115 137.42 17.0017 139.54 14.1836C141.659 11.3655 144.608 9.27996 147.973 8.219C151.338 7.15804 154.951 7.1747 158.306 8.26666C161.661 9.35861 164.59 11.4712 166.683 14.3088C168.777 17.1464 169.93 20.5669 169.981 24.0917L163.408 17.7452Z" fill="#32BA7C"/>
<path d="M163.408 21.0335L151.961 32.4874C151.616 32.8264 151.152 33.0163 150.668 33.0163C150.184 33.0163 149.72 32.8264 149.375 32.4874L143.046 26.1825C142.609 25.7463 142.364 25.1549 142.364 24.5383C142.364 23.9216 142.609 23.3302 143.046 22.8941L143.922 22.0237C144.136 21.805 144.392 21.6314 144.675 21.5128C144.957 21.3942 145.261 21.3332 145.567 21.3332C145.874 21.3332 146.177 21.3942 146.46 21.5128C146.742 21.6314 146.998 21.805 147.213 22.0237L150.652 25.4548L159.245 16.8747C159.459 16.6567 159.715 16.4837 159.997 16.3655C160.28 16.2474 160.582 16.1865 160.888 16.1865C161.194 16.1865 161.497 16.2474 161.779 16.3655C162.061 16.4837 162.317 16.6567 162.532 16.8747L163.408 17.7451C163.844 18.1813 164.089 18.7727 164.089 19.3893C164.089 20.0059 163.844 20.5973 163.408 21.0335Z" fill="white"/>
<path d="M169.968 24.3173C169.968 28.0221 168.75 31.6244 166.501 34.5701C164.253 37.5158 161.097 39.6417 157.521 40.6209L149.361 32.4691C149.706 32.8081 150.171 32.998 150.654 32.998C151.138 32.998 151.603 32.8081 151.947 32.4691L163.412 21.0152C163.849 20.579 164.094 19.9876 164.094 19.371C164.094 18.7543 163.849 18.1629 163.412 17.7268L169.968 24.0732C169.968 24.17 169.968 24.2529 169.968 24.3173Z" fill="#0AA06E"/>
<path d="M70.2918 79.7678C70.1343 79.8223 69.9696 79.8533 69.8031 79.8599C64.0109 79.9542 58.3152 81.3571 53.1429 83.9634C52.9613 84.0566 52.7631 84.1131 52.5596 84.1297C52.3561 84.1463 52.1514 84.1227 51.957 84.0603C51.7627 83.9978 51.5826 83.8978 51.4269 83.7658C51.2713 83.6338 51.1432 83.4725 51.05 83.291C50.9568 83.1096 50.9002 82.9116 50.8836 82.7083C50.867 82.505 50.8906 82.3005 50.9531 82.1063C51.0156 81.9122 51.1157 81.7322 51.2478 81.5767C51.3799 81.4212 51.5414 81.2933 51.723 81.2001C57.3138 78.383 63.4687 76.8623 69.7294 76.7512C70.097 76.7423 70.4559 76.8645 70.7416 77.0958C71.0274 77.3271 71.2215 77.6524 71.2891 78.0136C71.3567 78.3747 71.2936 78.7482 71.1108 79.067C70.9281 79.3859 70.6378 79.6294 70.2918 79.754V79.7678Z" fill="#868491"/>
<path d="M45.8227 88.5922C45.4673 88.7223 45.0764 88.7174 44.7244 88.5786C44.3723 88.4398 44.0835 88.1766 43.9129 87.839C43.7423 87.5015 43.7017 87.1131 43.7988 86.7477C43.8959 86.3822 44.124 86.065 44.4397 85.8565C44.4397 85.8565 45.122 85.3959 46.0762 84.6406C46.399 84.3866 46.8096 84.271 47.2176 84.3194C47.6257 84.3677 47.9978 84.5761 48.2521 84.8985C48.5064 85.221 48.6221 85.6312 48.5736 86.0389C48.5252 86.4465 48.3167 86.8183 47.9939 87.0724C46.9106 87.9244 46.15 88.4218 46.15 88.4218C46.049 88.4929 45.9389 88.5502 45.8227 88.5922Z" fill="#868491"/>
<path d="M72.1822 85.0045C71.9581 85.0856 71.7183 85.114 71.4815 85.0874C70.7995 85.0468 70.1152 85.0762 69.4393 85.1749L69.0106 85.221C68.804 85.2504 68.5936 85.2379 68.392 85.1841C68.1904 85.1303 68.0017 85.0364 67.8373 84.9079C67.673 84.7795 67.5363 84.6192 67.4355 84.4367C67.3346 84.2541 67.2718 84.0531 67.2506 83.8457C67.2295 83.6383 67.2505 83.4288 67.3125 83.2297C67.3744 83.0306 67.476 82.8461 67.6111 82.6872C67.7462 82.5283 67.912 82.3984 68.0986 82.3051C68.2852 82.2118 68.4888 82.1572 68.6971 82.1444L69.0981 82.103C70.006 81.9678 70.9264 81.9385 71.841 82.0155C72.1887 82.0542 72.513 82.2096 72.7607 82.4565C73.0085 82.7033 73.165 83.0268 73.2046 83.3741C73.2442 83.7214 73.1646 84.0718 72.9789 84.368C72.7932 84.6642 72.5122 84.8886 72.1822 85.0045Z" fill="#868491"/>
<path d="M47.648 93.6352C47.3121 93.7546 46.9451 93.7545 46.6092 93.6349C46.2732 93.5154 45.9889 93.2836 45.8041 92.9789C45.6194 92.6742 45.5456 92.3151 45.5951 91.9622C45.6446 91.6094 45.8145 91.2845 46.0761 91.0423C46.3296 90.8074 52.4331 85.3084 62.8423 82.9043C63.2427 82.8121 63.6634 82.8826 64.0118 83.1002C64.3602 83.3179 64.6078 83.6649 64.7001 84.0649C64.7924 84.4649 64.7219 84.8852 64.504 85.2333C64.2862 85.5814 63.9388 85.8287 63.5384 85.9209C53.959 88.1224 48.2243 93.2898 48.1644 93.322C48.0152 93.4602 47.8395 93.5667 47.648 93.6352Z" fill="#868491"/>
<path d="M74.0075 90.0474C73.8507 90.1044 73.6857 90.1355 73.5188 90.1395C69.5419 90.2081 65.602 90.9173 61.8512 92.2396C61.4708 92.3577 61.0595 92.325 60.7028 92.1481C60.346 91.9713 60.0711 91.6639 59.9352 91.2898C59.7993 90.9158 59.8129 90.5038 59.9731 90.1395C60.1333 89.7752 60.4278 89.4865 60.7955 89.3335C64.8612 87.8933 69.1322 87.1157 73.4451 87.0307C73.8128 87.0219 74.1716 87.1441 74.4573 87.3753C74.7431 87.6066 74.9372 87.932 75.0048 88.2931C75.0725 88.6543 75.0093 89.0277 74.8265 89.3466C74.6438 89.6654 74.3535 89.909 74.0075 90.0335V90.0474Z" fill="#868491"/>
<path d="M49.6212 99.0697C49.2825 99.1929 48.9114 99.1942 48.5718 99.0734C48.2323 98.9526 47.9455 98.7173 47.7609 98.4079C47.5764 98.0986 47.5056 97.7347 47.5607 97.3788C47.6159 97.0229 47.7935 96.6974 48.0631 96.4584C50.2945 94.6131 52.7344 93.0349 55.3329 91.7561C55.5158 91.6508 55.7184 91.5839 55.9281 91.5596C56.1378 91.5353 56.3503 91.5541 56.5525 91.6149C56.7547 91.6756 56.9423 91.777 57.1039 91.9128C57.2654 92.0487 57.3974 92.2161 57.4919 92.4047C57.5863 92.5934 57.6411 92.7994 57.6529 93.01C57.6648 93.2206 57.6334 93.4314 57.5607 93.6294C57.4881 93.8274 57.3756 94.0086 57.2303 94.1616C57.0851 94.3147 56.91 94.4364 56.7159 94.5194C54.3563 95.685 52.1356 97.1125 50.096 98.7749C49.957 98.9012 49.7961 99.0011 49.6212 99.0697Z" fill="#868491"/>
<path d="M75.8977 95.2839C75.7405 95.3398 75.5758 95.3724 75.4091 95.3806C61.1875 95.7306 52.023 103.735 51.9354 103.813C51.6268 104.066 51.2325 104.19 50.8348 104.159C50.437 104.129 50.0663 103.946 49.8001 103.649C49.5339 103.352 49.3926 102.964 49.4056 102.566C49.4187 102.167 49.5851 101.789 49.8702 101.511C50.2758 101.147 59.929 92.6725 75.3353 92.2995C75.7043 92.287 76.0656 92.407 76.3536 92.6377C76.6417 92.8685 76.8374 93.1947 76.9055 93.5572C76.9735 93.9198 76.9092 94.2947 76.7243 94.614C76.5395 94.9333 76.2462 95.1758 75.8977 95.2977V95.2839Z" fill="#868491"/>
<path d="M77.797 100.525C77.64 100.581 77.4751 100.612 77.3083 100.617C75.5065 100.672 73.709 100.826 71.924 101.078C71.7221 101.104 71.517 101.089 71.3206 101.036C71.1242 100.983 70.9402 100.891 70.7793 100.767C70.6183 100.642 70.4834 100.487 70.3824 100.311C70.2814 100.134 70.2163 99.9392 70.1906 99.7375C70.1434 99.331 70.2573 98.9221 70.508 98.5984C70.7588 98.2748 71.1264 98.0621 71.5321 98.0058C73.4217 97.7501 75.3238 97.5964 77.23 97.5453C77.5981 97.5352 77.9577 97.6566 78.2444 97.8875C78.531 98.1184 78.726 98.4438 78.7943 98.8053C78.8625 99.1668 78.7996 99.5408 78.6169 99.8601C78.4341 100.18 78.1434 100.423 77.797 100.548V100.525Z" fill="#868491"/>
<path d="M53.3092 109.349C52.9708 109.474 52.5995 109.476 52.2595 109.356C51.9195 109.236 51.6324 109.001 51.4479 108.691C51.2634 108.382 51.1931 108.017 51.2494 107.661C51.3056 107.305 51.4847 106.98 51.7557 106.743C51.9677 106.549 57.1078 102.04 65.8021 99.3737C65.9964 99.3133 66.2007 99.2918 66.4034 99.3105C66.606 99.3292 66.803 99.3878 66.9829 99.4828C67.1628 99.5778 67.3222 99.7074 67.4518 99.8642C67.5815 100.021 67.6788 100.202 67.7382 100.396C67.8013 100.59 67.8248 100.795 67.8072 100.998C67.7897 101.202 67.7315 101.399 67.636 101.58C67.5406 101.76 67.4099 101.919 67.2516 102.048C67.0934 102.177 66.9109 102.273 66.7148 102.33C58.6982 104.817 53.8578 109.022 53.8071 109.064C53.6615 109.191 53.4923 109.288 53.3092 109.349Z" fill="#868491"/>
<path d="M79.687 105.761C79.5316 105.818 79.3682 105.849 79.2029 105.854C64.9767 106.204 55.8168 114.208 55.7246 114.291C55.415 114.534 55.0242 114.651 54.6317 114.616C54.2392 114.582 53.8745 114.4 53.612 114.106C53.3494 113.813 53.2086 113.43 53.2182 113.037C53.2279 112.643 53.3873 112.268 53.664 111.988C54.0651 111.629 63.7182 103.155 79.1245 102.777C79.4922 102.768 79.851 102.89 80.1368 103.122C80.4226 103.353 80.6166 103.678 80.6843 104.039C80.7519 104.401 80.6887 104.774 80.506 105.093C80.3233 105.412 80.0329 105.655 79.687 105.78V105.761Z" fill="#868491"/>
<path d="M81.8442 111.122C81.6965 111.178 81.5408 111.209 81.3832 111.214C75.9894 111.324 70.6736 112.522 65.7556 114.738C65.3833 114.912 64.957 114.931 64.5706 114.791C64.1841 114.651 63.8692 114.363 63.6949 113.991C63.5207 113.62 63.5015 113.194 63.6416 112.808C63.7816 112.422 64.0695 112.107 64.4417 111.933C69.3974 109.63 75.0445 108.336 81.2817 108.124C81.6521 108.108 82.0159 108.225 82.3068 108.455C82.5977 108.684 82.7963 109.011 82.8662 109.374C82.9361 109.738 82.8727 110.115 82.6876 110.436C82.5025 110.757 82.208 111 81.858 111.122H81.8442Z" fill="#868491"/>
<path d="M57.117 119.827C56.8303 119.929 56.5199 119.945 56.2241 119.873C55.9284 119.801 55.6602 119.644 55.4528 119.421C55.3144 119.273 55.2066 119.1 55.1356 118.91C55.0646 118.72 55.0318 118.518 55.0391 118.316C55.0464 118.114 55.0936 117.915 55.178 117.731C55.2625 117.546 55.3825 117.381 55.5312 117.243C56.5848 116.313 57.7328 115.495 58.9563 114.802C59.3106 114.612 59.7251 114.566 60.1122 114.676C60.4993 114.785 60.8286 115.041 61.0305 115.388C61.2323 115.736 61.2909 116.148 61.1937 116.538C61.0965 116.928 60.8513 117.265 60.5099 117.478C59.4898 118.058 58.5294 118.736 57.6425 119.504C57.491 119.646 57.3122 119.756 57.117 119.827Z" fill="#868491"/>
</g>
<defs>
<clipPath id="clip0_797_3065">
<rect width="197" height="200" fill="white"/>
</clipPath>
</defs>
</svg>
