<svg width="199" height="168" viewBox="0 0 199 168" fill="none" xmlns="http://www.w3.org/2000/svg">
<mask id="mask0_374_3047" style="mask-type:alpha" maskUnits="userSpaceOnUse" x="0" y="0" width="136" height="136">
<path fill-rule="evenodd" clip-rule="evenodd" d="M136 106.781C136 122.918 122.918 136 106.781 136H29.2188C13.0818 136 0 122.918 0 106.781V29.2188C0 13.0818 13.0818 0 29.2188 0H106.781C122.918 0 136 13.0818 136 29.2188V106.781Z" fill="white"/>
</mask>
<g mask="url(#mask0_374_3047)">
<path d="M136 106.781C136 122.918 122.918 136 106.781 136H29.2188C13.0818 136 0 122.918 0 106.781V29.2188C0 13.0818 13.0818 0 29.2188 0H106.781C122.918 0 136 13.0818 136 29.2188V106.781Z" fill="white"/>
<path d="M136 106.781C136 122.918 122.918 136 106.781 136H29.2188C13.0818 136 0 122.918 0 106.781V29.2188C0 13.0818 13.0818 0 29.2188 0H106.781C122.918 0 136 13.0818 136 29.2188V106.781" stroke="#BEBEBE"/>
</g>
<path d="M59.18 68.6875H48.7738C48.6721 68.6875 48.5901 68.7671 48.584 68.8663C48.3228 73.5619 47.4372 78.6201 46.1553 82.7518C46.1372 82.808 46.1473 82.8711 46.1824 82.9197C46.2185 82.9671 46.2753 82.9966 46.335 82.9966H49.8962C49.978 82.9966 50.0515 82.9435 50.0764 82.8645C51.0735 79.6795 51.8742 75.5428 52.1792 72.0207H55.5938V82.8075C55.5938 82.9106 55.6791 82.9958 55.7837 82.9958H59.1795C59.2843 82.9958 59.3687 82.9106 59.3687 82.8075V68.8774C59.369 68.7729 59.2857 68.6875 59.18 68.6875Z" fill="#EF3E58"/>
<path d="M103.189 68.6875H99.7929C99.6888 68.6875 99.6028 68.7724 99.6028 68.8774V79.6549C98.8576 79.8644 98.1138 79.9644 97.2744 79.9644C95.0233 79.9644 94.5048 79.2771 94.5048 76.2935V68.8774C94.5048 68.7729 94.4201 68.6875 94.3155 68.6875H90.9203C90.8149 68.6875 90.7307 68.7724 90.7307 68.8774V76.6503C90.7307 81.5119 92.3731 83.4067 96.5887 83.4067C98.9888 83.4067 101.666 82.7955 103.256 82.1907C103.33 82.1608 103.379 82.0921 103.379 82.0143V68.8774C103.379 68.7729 103.293 68.6875 103.189 68.6875Z" fill="#EF3E58"/>
<path d="M31.187 68.7024H27.7357C27.6495 68.7024 27.5733 68.7602 27.5531 68.8451C27.006 70.9929 25.9109 74.5728 24.4381 78.3243L20.972 68.8122C20.9446 68.7382 20.8743 68.6875 20.7952 68.6875H17.3011C17.2398 68.6875 17.1822 68.718 17.1469 68.7687C17.1113 68.8191 17.1023 68.8846 17.123 68.9424L22.3134 83.1804C21.7708 84.2709 21.2839 85.1752 20.813 86.051C20.4671 86.6953 20.1291 87.3211 19.7893 87.988C19.7583 88.0458 19.7612 88.1169 19.7952 88.1728C19.8302 88.2285 19.8915 88.2622 19.9576 88.2622H23.737C23.8079 88.2622 23.8719 88.223 23.9054 88.1598C24.5462 86.928 25.3381 85.2173 26.075 83.4682C28.2805 78.2843 30.062 73.3972 31.3673 68.944C31.3848 68.8859 31.3734 68.8244 31.3375 68.7761C31.3025 68.7297 31.2462 68.7024 31.187 68.7024Z" fill="#EF3E58"/>
<path d="M43.5614 79.6639C43.5444 79.6167 43.5083 79.5777 43.4629 79.5573C43.4167 79.5353 43.3652 79.5337 43.3166 79.5517C42.4881 79.8568 40.9354 80.1067 39.8555 80.1067C37.4871 80.1067 36.3602 79.4687 36.3602 75.8395C36.3602 72.9381 36.7058 71.5728 39.8555 71.5728C40.7485 71.5728 41.5784 71.703 42.6294 72.0062C42.7156 72.0298 42.8072 71.9919 42.8497 71.9139C43.2434 71.1749 43.7194 70.2725 44.2551 69.1656C44.2787 69.1173 44.2795 69.0584 44.2575 69.0083C44.2365 68.9602 44.1929 68.9199 44.1414 68.9032C42.748 68.4608 41.0937 68.2053 39.6055 68.2053C34.6474 68.2053 32.4355 70.5428 32.4355 75.7843C32.4355 81.1035 34.6474 83.4739 39.6055 83.4739C40.8478 83.4739 43.2975 83.2134 44.4781 82.7412C44.5731 82.7038 44.6211 82.599 44.5861 82.5009L43.5614 79.6639Z" fill="#EF3E58"/>
<path d="M75.885 68.7024H72.4339C72.3469 68.7024 72.2715 68.7602 72.2497 68.8451C71.7036 70.9947 70.6083 74.5744 69.1363 78.3243L65.6694 68.8122C65.6423 68.7382 65.5725 68.6875 65.4921 68.6875H61.9991C61.938 68.6875 61.8794 68.718 61.8443 68.7687C61.8082 68.8191 61.8008 68.8846 61.8204 68.9424L67.01 83.1804C66.4692 84.2688 65.9845 85.1704 65.5133 86.0463C65.1653 86.6911 64.8289 87.3176 64.4878 87.9874C64.4565 88.0458 64.4594 88.1155 64.4939 88.172C64.5287 88.2277 64.5897 88.2622 64.6558 88.2622H68.435C68.5045 88.2622 68.5706 88.2224 68.6033 88.1585C69.2439 86.9293 70.0347 85.2192 70.7727 83.4672C72.975 78.2925 74.7562 73.4056 76.0652 68.9432C76.0827 68.8856 76.0716 68.8238 76.0368 68.7753C76.0004 68.7297 75.9431 68.7024 75.885 68.7024Z" fill="#EF3E58"/>
<path d="M88.6316 68.6875H78.5779C78.4739 68.6875 78.3887 68.7724 78.3887 68.8774V82.808C78.3887 82.9114 78.4739 82.9966 78.5779 82.9966H81.9732C82.0773 82.9966 82.1625 82.9114 82.1625 82.808V72.0215H87.4118C87.4885 72.0215 87.5573 71.9767 87.5859 71.9075C87.9852 70.9658 88.3956 69.9695 88.8068 68.948C88.8294 68.8902 88.8222 68.8233 88.7888 68.7729C88.7537 68.7201 88.6932 68.6875 88.6316 68.6875Z" fill="#EF3E58"/>
<path fill-rule="evenodd" clip-rule="evenodd" d="M28.394 54.7495C28.394 49.356 30.3056 47.2546 35.2106 47.2546C40.1565 47.2546 42.0824 49.3568 42.0824 54.7495C42.0824 60.2218 40.1565 62.3531 35.2106 62.3531C30.3056 62.3531 28.394 60.2223 28.394 54.7495ZM32.278 54.806C32.278 58.6061 32.9749 59.2141 35.2106 59.2141C37.488 59.2141 38.1979 58.6061 38.1979 54.806C38.1979 50.7574 37.4238 50.3958 35.2106 50.3958C33.0375 50.3958 32.278 50.7574 32.278 54.806Z" fill="#0F67B1"/>
<path d="M55.6321 58.6403C55.6149 58.5931 55.5801 58.5538 55.5336 58.5339C55.4872 58.5116 55.4354 58.5103 55.3882 58.5283C54.5594 58.8334 53.0054 59.0833 51.926 59.0833C49.5575 59.0833 48.4301 58.4453 48.4301 54.8161C48.4301 51.9144 48.7755 50.5494 51.926 50.5494C52.8179 50.5494 53.6486 50.6794 54.7006 50.9828C54.7858 51.0064 54.8777 50.9685 54.9204 50.8902C55.3146 50.1512 55.789 49.2488 56.3247 48.1419C56.3494 48.0936 56.3505 48.035 56.3279 47.9851C56.3064 47.9363 56.2639 47.8965 56.2127 47.8796C54.8179 47.4374 53.1654 47.1814 51.6759 47.1814C46.7176 47.1814 44.5073 49.5194 44.5073 54.7609C44.5073 60.0798 46.7176 62.4505 51.6759 62.4505C52.9188 62.4505 55.3677 62.19 56.5493 61.7178C56.6443 61.6804 56.6919 61.5754 56.6568 61.4772L55.6321 58.6403Z" fill="#0F67B1"/>
<path d="M27.3542 47.6633H17.3011C17.1965 47.6633 17.1118 47.7485 17.1118 47.8538V61.7841C17.1118 61.8878 17.1965 61.9727 17.3011 61.9727H20.6958C20.8012 61.9727 20.8862 61.8878 20.8862 61.7841V50.9979H26.136C26.2122 50.9979 26.2793 50.9528 26.3096 50.8838C26.7086 49.9419 27.1198 48.9456 27.5297 47.9243C27.5536 47.8663 27.5461 47.7994 27.5108 47.7493C27.4758 47.6965 27.4179 47.6633 27.3542 47.6633Z" fill="#0F67B1"/>
<path d="M119.06 81.5447C119.065 81.4752 119.07 81.4052 119.076 81.3344C119.085 81.21 119.093 81.0835 119.102 80.9545C119.237 79.0094 119.376 76.5841 119.468 73.8687C119.471 73.7955 119.473 73.722 119.475 73.6485C119.537 71.7851 119.575 69.7896 119.575 67.7219C119.575 65.6539 119.537 63.6586 119.475 61.7949C119.473 61.7215 119.471 61.648 119.468 61.575C119.376 58.8596 119.237 56.4343 119.102 54.4892C119.093 54.3603 119.085 54.2337 119.076 54.1093C119.07 54.0385 119.065 53.9682 119.06 53.8993C119.046 53.7006 119.032 53.508 119.018 53.3213C119.012 53.2412 119.006 53.1624 119 53.0847C118.842 51.0286 118.71 49.7612 118.696 49.6313C118.675 49.4323 118.65 49.2315 118.622 49.0297C118.615 48.9803 118.606 48.9304 118.598 48.8808C118.546 48.5254 118.483 48.1662 118.409 47.8034C118.398 47.7522 118.386 47.6999 118.374 47.6487C117.456 43.3494 115.065 38.6302 112.087 35.059C110.94 33.6818 109.705 32.4752 108.434 31.5292C108.308 31.4353 106.841 30.3465 104.481 28.722C101.77 26.8551 97.8811 24.2816 93.4911 21.6964C85.6716 17.0965 78.6759 13.8792 77.7566 13.4609C77.7558 13.4606 77.755 13.4601 77.7542 13.4599C77.7507 13.4585 77.7478 13.4572 77.7443 13.4556C77.7061 13.4381 77.6793 13.4259 77.666 13.4201H77.6658C77.6652 13.4198 77.6644 13.4193 77.6642 13.4193C75.6082 12.4932 73.0857 11.8744 70.3658 11.6105C69.8465 11.5598 69.3212 11.5213 68.7892 11.4972C68.3153 11.4757 67.837 11.4648 67.3559 11.4648C67.1154 11.4648 66.8755 11.4678 66.6365 11.4731C63.0525 11.554 59.671 12.2378 57.048 13.4193C57.0451 13.4206 57.0403 13.4227 57.036 13.4246C56.6193 13.6129 49.5361 16.8294 41.5091 21.529H41.5152C41.4172 21.5863 41.3195 21.6436 41.2216 21.7014C33.01 26.5326 26.5499 31.3274 26.2789 31.5292C24.26 33.0319 22.4652 34.9283 20.8321 37.3875C20.471 37.9307 20.4368 39.3228 22.0511 39.3228H26.1161C27.8698 39.3228 28.2836 38.257 30.2438 36.8469C32.4355 35.2707 36.701 32.0566 44.589 27.4156C50.2707 24.072 55.5906 21.4454 58.1629 20.2192C58.1698 20.2157 58.1765 20.2125 58.1834 20.2093C58.2298 20.1873 58.2755 20.1656 58.3201 20.1444C58.34 20.1348 58.3599 20.1253 58.3796 20.1162C58.4056 20.1038 58.4316 20.0913 58.4568 20.0794C58.4998 20.0589 58.542 20.0391 58.5832 20.0197C58.5848 20.0189 58.5863 20.0181 58.5879 20.0173C58.6339 19.9955 58.6785 19.9746 58.722 19.9542C58.7225 19.9539 58.7228 19.9536 58.7233 19.9534C59.3846 19.642 59.7597 19.4719 59.7756 19.4648C61.5856 18.6496 64.1271 18.1602 66.8163 18.1021C66.9954 18.0984 67.1754 18.0963 67.3559 18.0963C67.5365 18.0963 67.7162 18.0984 67.8956 18.1021C68.6902 18.1194 69.4709 18.1756 70.2245 18.2653C71.8516 18.4589 73.3496 18.8138 74.5646 19.3059C74.6912 19.3571 74.815 19.4099 74.9355 19.4642C74.9421 19.4672 75.0093 19.4977 75.1306 19.5534C76.3329 20.1062 82.9543 23.1959 90.1232 27.4154C94.3478 29.9006 98.1429 32.4149 100.767 34.2219C103.044 35.7906 104.44 36.827 104.47 36.849C105.479 37.5997 106.486 38.6374 107.423 39.8416C109.817 42.92 111.754 47.0853 112.096 50.3265C112.099 50.3586 112.236 51.6722 112.398 53.8335C112.409 53.9759 112.42 54.1218 112.43 54.2714C112.438 54.3727 112.445 54.4754 112.452 54.5799C112.466 54.7667 112.479 54.9587 112.493 55.1555C112.498 55.2317 112.503 55.308 112.508 55.3852C112.517 55.5147 112.526 55.646 112.534 55.7791C112.551 56.0378 112.568 56.303 112.584 56.5755C112.594 56.7407 112.605 56.9084 112.614 57.0786C112.616 57.1198 112.619 57.1611 112.622 57.2025C112.632 57.3954 112.644 57.5909 112.654 57.7898C112.662 57.9277 112.67 58.0673 112.677 58.2081C112.823 60.9729 112.938 64.2589 112.938 67.7219C112.938 71.1845 112.823 74.4708 112.677 77.2356C112.67 77.3762 112.662 77.516 112.654 77.6539C112.644 77.8526 112.632 78.0484 112.622 78.2409C112.619 78.2823 112.616 78.324 112.614 78.3648C112.605 78.5351 112.594 78.7028 112.584 78.868C112.568 79.1407 112.551 79.406 112.534 79.6643C112.526 79.7975 112.517 79.929 112.508 80.0585C112.503 80.1357 112.498 80.2121 112.493 80.2879C112.479 80.485 112.466 80.6771 112.452 80.8638C112.445 80.9681 112.438 81.071 112.43 81.1723C112.42 81.3217 112.409 81.4678 112.398 81.61C112.236 83.7716 112.099 85.0851 112.096 85.1172C111.754 88.3584 109.817 92.5238 107.423 95.6021C106.486 96.8061 105.479 97.8441 104.47 98.5947C104.44 98.6168 103.044 99.6531 100.767 101.222C98.1429 103.029 94.3478 105.543 90.1232 108.028C82.9543 112.248 76.3329 115.338 75.1306 115.89C75.0093 115.946 74.9421 115.977 74.9355 115.979C74.815 116.034 74.6912 116.086 74.5646 116.138C73.3496 116.63 71.8516 116.985 70.2245 117.178C69.4709 117.268 68.6902 117.324 67.8956 117.341C67.7162 117.345 67.5365 117.347 67.3559 117.347C67.1754 117.347 66.9954 117.345 66.8163 117.341C64.1271 117.284 61.5856 116.794 59.7756 115.979C59.7597 115.972 59.3843 115.802 58.7233 115.49C58.7162 115.487 58.709 115.483 58.7018 115.48C58.6323 115.447 58.5601 115.413 58.4841 115.377C58.4764 115.374 58.4682 115.37 58.4605 115.366C58.4029 115.339 58.3427 115.31 58.2816 115.281C58.25 115.266 58.2182 115.251 58.1855 115.235C58.1372 115.212 58.0867 115.188 58.036 115.164C57.9721 115.133 57.9065 115.102 57.8391 115.07C57.8247 115.063 57.8104 115.056 57.7961 115.049C55.1072 113.758 50.0132 111.22 44.589 108.028C36.701 103.387 32.4355 100.173 30.2438 98.5966C28.2836 97.1867 27.8698 96.1209 26.1161 96.1209H22.0511C20.4368 96.1209 20.471 97.5128 20.8321 98.0563C22.4652 100.515 24.26 102.412 26.2789 103.914C26.5499 104.116 33.01 108.911 41.2216 113.742C41.6598 114 42.0949 114.253 42.5268 114.502H42.521C50.1186 118.878 56.6296 121.835 57.0355 122.019C57.04 122.021 57.0451 122.023 57.048 122.024C59.671 123.206 63.0525 123.89 66.6365 123.971C66.8755 123.976 67.1154 123.979 67.3559 123.979C67.837 123.979 68.3153 123.968 68.7892 123.947C69.3212 123.922 69.8465 123.883 70.3658 123.833C73.0857 123.569 75.6082 122.95 77.6642 122.024C77.6644 122.024 77.6652 122.024 77.6658 122.024H77.666C77.6793 122.018 77.7061 122.006 77.7443 121.988C77.7478 121.987 77.7507 121.985 77.7542 121.984C77.755 121.983 77.7558 121.983 77.7566 121.983C78.6759 121.565 85.6716 118.347 93.4911 113.747C97.8811 111.162 101.77 108.589 104.481 106.722C106.841 105.097 108.308 104.008 108.434 103.914C109.705 102.968 110.94 101.762 112.087 100.385C115.065 96.8135 117.456 92.0943 118.374 87.795C118.386 87.7436 118.398 87.6916 118.409 87.6404C118.483 87.2775 118.546 86.9183 118.598 86.5626C118.606 86.5133 118.615 86.4634 118.622 86.4141C118.65 86.2122 118.675 86.0114 118.696 85.8125C118.71 85.6825 118.842 84.4151 119 82.3588C119.006 82.2814 119.012 82.2023 119.018 82.1225C119.032 81.9357 119.046 81.7431 119.06 81.5447Z" fill="url(#paint0_linear_374_3047)"/>
<path d="M197.125 87.7705L162.304 77.1065C162.036 77 161.768 77 161.5 77C161.232 77 160.964 77 160.696 77.1065L125.875 87.7705C124.75 88.1438 124 89.1569 124 90.3301V117.346C124 156.216 160.322 167.787 160.696 167.893C160.964 167.947 161.232 168 161.5 168C161.768 168 162.036 167.947 162.304 167.893C162.678 167.787 199 156.216 199 117.346V90.3301C199 89.1569 198.25 88.1438 197.125 87.7705Z" fill="#4086F4"/>
<path d="M199 90.3301V117.346C199 156.216 162.194 167.787 161.814 167.893C161.543 167.947 161.271 168 161 168V77C161.271 77 161.543 77 161.814 77.1065L197.1 87.7705C198.24 88.1438 199 89.1569 199 90.3301Z" fill="#4175DF"/>
<path d="M177.087 139.764C176.122 139.333 175.5 138.385 175.5 137.342V134.154C175.5 131.936 168.244 130.218 162 130.218C155.756 130.218 148.5 131.936 148.5 134.154V137.342C148.5 138.385 147.878 139.333 146.913 139.764C145.948 140.195 144.814 140.026 144.015 139.338C138.285 134.369 135 127.17 135 119.584C135 104.927 147.113 93 162 93C176.887 93 189 104.927 189 119.584C189 127.17 185.715 134.369 179.985 139.338C179.193 140.02 178.065 140.199 177.087 139.764Z" fill="#4175DF"/>
<path d="M175.5 134.154V137.342C175.5 138.385 176.122 139.333 177.087 139.764C178.065 140.199 179.193 140.02 179.985 139.338C185.715 134.369 189 127.17 189 119.584C189 104.927 176.887 93 162 93V130.218C168.244 130.218 175.5 131.936 175.5 134.154Z" fill="#4254B6"/>
<path d="M161.5 125C155.709 125 151 120.291 151 114.5C151 108.709 155.709 104 161.5 104C167.291 104 172 108.709 172 114.5C172 120.291 167.291 125 161.5 125Z" fill="#FFF5F5"/>
<path fill-rule="evenodd" clip-rule="evenodd" d="M143.885 140.279C148.805 144.613 155.238 147 162 147C168.762 147 175.195 144.613 180.115 140.279C180.679 139.781 181 139.076 181 138.338V135.136C181 126.256 163.946 126 162 126C160.054 126 143 126.256 143 135.136V138.338C143 139.076 143.321 139.781 143.885 140.279Z" fill="#FFF5F5"/>
<path d="M180.115 140.119C180.679 139.609 181 138.888 181 138.132V134.854C181 125.762 163.946 125.5 162 125.5V147C168.762 147 175.195 144.557 180.115 140.119Z" fill="#E3E7EA"/>
<path d="M172.857 114.75C172.857 108.821 167.988 104 162 104V125.5C167.988 125.5 172.857 120.679 172.857 114.75Z" fill="#E3E7EA"/>
<defs>
<linearGradient id="paint0_linear_374_3047" x1="52.0667" y1="47.5353" x2="52.0667" y2="88.5519" gradientUnits="userSpaceOnUse">
<stop stop-color="#0D67AF"/>
<stop offset="1" stop-color="#EF4158"/>
</linearGradient>
</defs>
</svg>
