<svg width="155" height="157" viewBox="0 0 155 157" fill="none" xmlns="http://www.w3.org/2000/svg">
<g clip-path="url(#clip0_125_3175)">
<path d="M122.462 119.913L118.01 124.375L124.475 130.857L128.926 126.394L122.462 119.913Z" fill="#CAE9ED"/>
<path d="M152.508 154.498C152.297 154.71 152.078 154.906 151.849 155.096C150.213 156.423 148.146 157.096 146.045 156.986C143.944 156.875 141.958 155.989 140.469 154.498L119.692 133.671L125.087 128.266L131.734 121.603L152.508 142.429C154.103 144.03 154.999 146.2 154.999 148.463C154.999 150.726 154.103 152.897 152.508 154.498Z" fill="#9A9A9A"/>
<path d="M152.508 154.498C152.297 154.709 152.079 154.906 151.849 155.096L125.087 128.266L131.734 121.603L152.508 142.429C154.103 144.03 155 146.2 155 148.463C155 150.726 154.103 152.897 152.508 154.498Z" fill="#B1B1B1"/>
<path d="M125.683 47.0247L94.2376 145.9C93.2634 149.011 91.0968 151.606 88.2143 153.115C85.3318 154.624 81.9694 154.924 78.8665 153.949L43.2844 142.578L9.73158 131.852C6.63814 130.849 4.06897 128.655 2.58915 125.752C1.10932 122.85 0.840025 119.477 1.84049 116.376L26.6913 38.2078L68.4796 15.7888L93.1934 23.6999L117.789 31.559C120.88 32.5619 123.448 34.754 124.929 37.6539C126.409 40.5538 126.68 43.9242 125.683 47.0247Z" fill="#BAC7D2"/>
<path d="M125.683 47.0245L94.2374 145.9C93.2632 149.01 91.0966 151.606 88.2141 153.115C85.3316 154.624 81.9692 154.924 78.8663 153.948L43.2842 142.577L93.1931 23.6997L117.788 31.5588C120.88 32.5617 123.448 34.7539 124.928 37.6538C126.409 40.5537 126.68 43.9241 125.683 47.0245Z" fill="#AABBC8"/>
<path d="M0.000109897 34.0944V116.138C-0.00671094 117.753 0.304037 119.354 0.914591 120.848C1.52514 122.343 2.42353 123.702 3.5584 124.849C4.69327 125.995 6.04237 126.906 7.52858 127.529C9.01479 128.153 10.609 128.476 12.22 128.482H84.7987C86.4097 128.476 88.0039 128.153 89.4901 127.529C90.9763 126.906 92.3254 125.995 93.4603 124.849C94.5952 123.702 95.4936 122.343 96.1041 120.848C96.7147 119.354 97.0254 117.753 97.0186 116.138V12.3474C97.0259 10.7319 96.7155 9.13092 96.1052 7.63586C95.4948 6.14079 94.5965 4.78101 93.4616 3.63425C92.3267 2.4875 90.9774 1.57627 89.491 0.952672C88.0045 0.329078 86.41 0.00535026 84.7987 0H33.0234L0.000109897 34.0944Z" fill="#4175DF"/>
<path d="M33.3122 0V27.4122C33.3122 29.2002 32.6037 30.9149 31.3426 32.1792C30.0814 33.4436 28.371 34.1538 26.5875 34.1538H0L33.3122 0Z" fill="#80AEF8"/>
<path d="M48.4946 128.467H84.784C86.395 128.461 87.9892 128.138 89.4754 127.514C90.9616 126.891 92.3107 125.98 93.4456 124.834C94.5805 123.687 95.4789 122.328 96.0894 120.833C96.7 119.339 97.0107 117.738 97.0039 116.123V12.3474C97.0112 10.7319 96.7008 9.13092 96.0905 7.63586C95.4801 6.14079 94.5818 4.78101 93.4469 3.63425C92.312 2.4875 90.9627 1.57627 89.4763 0.952672C87.9898 0.329078 86.3953 0.00535026 84.784 0H48.4946V128.467Z" fill="#4086F4"/>
<path d="M25.7727 61.1614L72.0601 61.1614C73.6328 61.1614 74.9077 59.8832 74.9077 58.3066V55.4814C74.9077 53.9048 73.6328 52.6266 72.0601 52.6266L25.7727 52.6266C24.2 52.6266 22.9251 53.9048 22.9251 55.4814V58.3066C22.9251 59.8832 24.2 61.1614 25.7727 61.1614Z" fill="#DBFFFC"/>
<path d="M25.7727 75.8401H72.0601C73.6328 75.8401 74.9077 74.5619 74.9077 72.9853V70.1602C74.9077 68.5835 73.6328 67.3054 72.0601 67.3054H25.7727C24.2 67.3054 22.9251 68.5835 22.9251 70.1602V72.9853C22.9251 74.5619 24.2 75.8401 25.7727 75.8401Z" fill="#DBFFFC"/>
<path d="M25.7727 90.5188H72.0601C73.6328 90.5188 74.9077 89.2407 74.9077 87.664V84.8389C74.9077 83.2622 73.6328 81.984 72.0601 81.984H25.7727C24.2 81.984 22.9251 83.2622 22.9251 84.8389V87.664C22.9251 89.2407 24.2 90.5188 25.7727 90.5188Z" fill="#DBFFFC"/>
<path d="M40.1886 105.198H72.064C73.6367 105.198 74.9116 103.919 74.9116 102.343V99.5176C74.9116 97.9409 73.6367 96.6628 72.064 96.6628H40.1886C38.6159 96.6628 37.341 97.9409 37.341 99.5176V102.343C37.341 103.919 38.6159 105.198 40.1886 105.198Z" fill="#DBFFFC"/>
<path d="M96.2593 132.12C114.958 132.12 130.116 116.923 130.116 98.1773C130.116 79.4316 114.958 64.2351 96.2593 64.2351C77.5609 64.2351 62.4028 79.4316 62.4028 98.1773C62.4028 116.923 77.5609 132.12 96.2593 132.12Z" fill="white"/>
<path d="M96.2596 135.275C88.9411 135.274 81.7871 133.098 75.7023 129.021C69.6175 124.944 64.8752 119.15 62.075 112.371C59.2748 105.593 58.5425 98.1337 59.9708 90.9377C61.399 83.7417 64.9236 77.1318 70.0988 71.944C75.2741 66.7561 81.8676 63.2233 89.0456 61.7922C96.2235 60.361 103.664 61.0959 110.425 63.9039C117.186 66.7118 122.965 71.4667 127.031 77.5673C131.097 83.668 133.267 90.8403 133.267 98.1774C133.26 108.015 129.359 117.447 122.42 124.403C115.481 131.359 106.072 135.269 96.2596 135.275ZM96.2596 67.3906C90.1861 67.3914 84.2492 69.1976 79.1997 72.5809C74.1501 75.9643 70.2146 80.7728 67.8909 86.3984C65.5672 92.024 64.9596 98.214 66.1449 104.186C67.3302 110.158 70.2553 115.643 74.5501 119.948C78.845 124.253 84.3168 127.185 90.2737 128.373C96.2305 129.56 102.405 128.95 108.016 126.62C113.627 124.29 118.423 120.344 121.797 115.281C125.171 110.218 126.972 104.266 126.972 98.1774C126.965 90.0137 123.727 82.1864 117.969 76.4142C112.211 70.6419 104.403 67.3965 96.2596 67.3906Z" fill="#A5A5A5"/>
<path d="M111.989 88.1318C112.318 88.461 112.579 88.8519 112.757 89.2822C112.934 89.7125 113.026 90.1737 113.026 90.6395C113.026 91.1052 112.934 91.5664 112.757 91.9967C112.579 92.427 112.318 92.8179 111.989 93.1472L94.5854 110.595C94.3274 110.855 94.0209 111.06 93.6835 111.201C93.3461 111.341 92.9844 111.413 92.6191 111.413C92.2538 111.413 91.8921 111.341 91.5547 111.201C91.2173 111.06 90.9108 110.855 90.6528 110.595L103.05 123.028C97.8804 124.448 92.3968 124.212 87.3671 122.353C82.3374 120.494 78.0134 117.105 75.0002 112.66C71.9871 108.215 70.4356 102.937 70.5629 97.5645C70.6902 92.1918 72.49 86.9935 75.7103 82.6971C78.9306 78.4007 83.4103 75.2212 88.5224 73.6037C93.6345 71.9862 99.1231 72.0116 104.22 73.6764C109.317 75.3412 113.767 78.562 116.948 82.888C120.128 87.2141 121.88 92.4288 121.958 97.8025L111.989 88.1318Z" fill="#32BA7C"/>
<path d="M112.012 93.1472L94.6077 110.595C94.3497 110.855 94.0433 111.06 93.7059 111.201C93.3685 111.341 93.0067 111.413 92.6414 111.413C92.2761 111.413 91.9144 111.341 91.577 111.201C91.2396 111.06 90.9331 110.855 90.6751 110.595L81.0622 100.991C80.4007 100.327 80.0293 99.4263 80.0293 98.4874C80.0293 97.5486 80.4007 96.6481 81.0622 95.9834L82.3952 94.6507C82.723 94.3215 83.1123 94.0603 83.5409 93.8821C83.9695 93.7039 84.4289 93.6121 84.8929 93.6121C85.3569 93.6121 85.8163 93.7039 86.2449 93.8821C86.6735 94.0603 87.0628 94.3215 87.3906 94.6507L92.6155 99.8851L105.669 86.8101C106.332 86.1471 107.23 85.7747 108.166 85.7747C109.103 85.7747 110.001 86.1471 110.664 86.8101L111.99 88.1429C112.653 88.8044 113.028 89.7025 113.032 90.6404C113.036 91.5784 112.669 92.4797 112.012 93.1472Z" fill="white"/>
<path d="M121.958 98.1738C121.962 103.825 120.113 109.32 116.696 113.814C113.279 118.309 108.483 121.552 103.047 123.047L90.6494 110.614C90.9074 110.873 91.2139 111.079 91.5513 111.219C91.8887 111.36 92.2504 111.432 92.6157 111.432C92.981 111.432 93.3427 111.36 93.6801 111.219C94.0175 111.079 94.324 110.873 94.582 110.614L111.986 93.1658C112.315 92.8366 112.575 92.4456 112.753 92.0154C112.931 91.5851 113.023 91.1239 113.023 90.6581C113.023 90.1923 112.931 89.7311 112.753 89.3009C112.575 88.8706 112.315 88.4796 111.986 88.1504L121.951 97.8248C121.958 97.9251 121.958 98.0513 121.958 98.1738Z" fill="#0AA06E"/>
</g>
<defs>
<clipPath id="clip0_125_3175">
<rect width="155" height="157" fill="white"/>
</clipPath>
</defs>
</svg>
