<svg width="193" height="131" viewBox="0 0 193 131" fill="none" xmlns="http://www.w3.org/2000/svg">
<g clip-path="url(#clip0_110_2911)">
<path d="M128.747 8.98291H28.1352C24.3903 8.98291 21.3545 12.0187 21.3545 15.7635V116.373C21.3545 120.118 24.3903 123.153 28.1352 123.153H128.747C132.491 123.153 135.527 120.118 135.527 116.373V15.7635C135.527 12.0187 132.491 8.98291 128.747 8.98291Z" fill="#EDF6FF"/>
<path d="M107.694 62.7728H90.3018V45.3772H107.694V62.7728ZM92.781 60.2936H105.214V47.8564H92.781V60.2936Z" fill="#D6E4F0"/>
<path d="M129.474 62.7728H112.082V45.3772H129.474V62.7728ZM114.561 60.2936H126.995V47.8564H114.561V60.2936Z" fill="#D6E4F0"/>
<path d="M129.474 87.0894H112.082V69.6938H129.474V87.0894ZM114.561 84.6103H126.995V72.173H114.561V84.6103Z" fill="#D6E4F0"/>
<path d="M177.575 128.843L110.805 62.0745L99.5493 38.2041L124.09 48.7902L190.843 115.542C192.218 116.917 192.994 118.781 192.999 120.726C193.004 122.671 192.24 124.539 190.872 125.922L188.017 128.814C187.334 129.503 186.522 130.051 185.627 130.426C184.732 130.801 183.772 130.995 182.802 130.998C181.832 131 180.87 130.811 179.973 130.442C179.076 130.072 178.261 129.529 177.575 128.843Z" fill="#E39700"/>
<path d="M182.383 107.084L169.101 120.367L175.742 127.008L189.024 113.726L182.383 107.084Z" fill="#F3EDBF"/>
<path d="M124.092 48.7935L110.809 62.0757L114.955 66.2216L128.238 52.9394L124.092 48.7935Z" fill="#F3EDC0"/>
<path d="M132.804 57.5046L128.238 62.0705C127.897 62.4112 127.627 62.8157 127.442 63.261C127.258 63.7062 127.163 64.1834 127.163 64.6653C127.163 65.1473 127.258 65.6245 127.442 66.0697C127.627 66.515 127.897 66.9195 128.238 67.2602L163.96 102.981C164.3 103.322 164.704 103.592 165.149 103.776C165.594 103.961 166.071 104.056 166.553 104.056C167.034 104.056 167.511 103.961 167.956 103.776C168.401 103.592 168.805 103.322 169.146 102.981L173.716 98.4153L132.804 57.5046Z" fill="#FFCB43"/>
<path d="M110.805 62.0745L124.09 48.7902L99.5493 38.2L110.805 62.0745Z" fill="#E0A370"/>
<path d="M28.1393 8.98291H128.747C129.638 8.98237 130.52 9.15749 131.344 9.49826C132.167 9.83903 132.915 10.3388 133.545 10.9689C134.176 11.599 134.675 12.3472 135.016 13.1706C135.357 13.994 135.532 14.8765 135.531 15.7676V32.2087H21.3545V15.7676C21.354 14.8765 21.5291 13.994 21.8699 13.1706C22.2106 12.3472 22.7104 11.599 23.3405 10.9689C23.9707 10.3388 24.7188 9.83903 25.5422 9.49826C26.3657 9.15749 27.2482 8.98237 28.1393 8.98291Z" fill="#FF5145"/>
<path d="M43.957 62.7728H26.561V45.3772H43.957V62.7728ZM29.0403 60.2936H41.4777V47.8564H29.0403V60.2936Z" fill="#D6E4F0"/>
<path d="M43.957 87.0894H26.561V69.6938H43.957V87.0894ZM29.0403 84.6103H41.4777V72.173H29.0403V84.6103Z" fill="#D6E4F0"/>
<path d="M43.957 111.406H26.561V94.0105H43.957V111.406ZM29.0403 108.927H41.4777V96.4897H29.0403V108.927Z" fill="#D6E4F0"/>
<path d="M65.1581 62.7728H47.7622V45.3772H65.1581V62.7728ZM50.2414 60.2936H62.6789V47.8564H50.2414V60.2936Z" fill="#D6E4F0"/>
<path d="M65.1581 87.0894H47.7622V69.6938H65.1581V87.0894ZM50.2414 84.6103H62.6789V72.173H50.2414V84.6103Z" fill="#D6E4F0"/>
<path d="M65.1581 111.406H47.7622V94.0105H65.1581V111.406ZM50.2414 108.927H62.6789V96.4897H50.2414V108.927Z" fill="#D6E4F0"/>
<path d="M86.3354 62.7728H68.9395V45.3772H86.3354V62.7728ZM71.4187 60.2936H83.8562V47.8564H71.4187V60.2936Z" fill="#D6E4F0"/>
<path d="M86.3354 87.0894H68.9395V69.6938H86.3354V87.0894ZM71.4187 84.6103H83.8562V72.173H71.4187V84.6103Z" fill="#D6E4F0"/>
<path d="M86.3354 111.406H68.9395V94.0105H86.3354V111.406ZM71.4187 108.927H83.8562V96.4897H71.4187V108.927Z" fill="#D6E4F0"/>
<path d="M106.458 70.9336H91.5415V85.85H106.458V70.9336Z" fill="#32BA7C"/>
<path d="M107.694 87.0894H90.3018V69.6938H107.694V87.0894ZM92.781 84.6103H105.214V72.173H92.781V84.6103Z" fill="#32BA7C"/>
<path d="M107.694 111.406H90.3018V94.0105H107.694V111.406ZM92.781 108.927H105.214V96.4897H92.781V108.927Z" fill="#D6E4F0"/>
<path d="M129.474 111.406H112.082V94.0105H129.474V111.406ZM114.561 108.927H126.995V96.4897H114.561V108.927Z" fill="#D6E4F0"/>
<path d="M45.684 0C47.6171 0 49.4711 0.767925 50.838 2.13484C52.205 3.50175 52.9729 5.35569 52.9729 7.2888V16.8667H38.395V7.2888C38.395 5.35569 39.163 3.50175 40.5299 2.13484C41.8968 0.767925 43.7508 0 45.684 0V0Z" fill="#303838"/>
<path d="M110.805 0C112.738 0 114.592 0.767925 115.959 2.13484C117.326 3.50175 118.094 5.35569 118.094 7.2888V16.8667H103.516V7.2888C103.516 5.35569 104.284 3.50175 105.651 2.13484C107.018 0.767925 108.872 0 110.805 0V0Z" fill="#303838"/>
<path d="M34.4324 97.2087C34.9829 97.7603 35.2922 98.5078 35.2922 99.2871C35.2922 100.066 34.9829 100.814 34.4324 101.365L19.9702 115.827C19.7559 116.043 19.5013 116.213 19.2208 116.33C18.9404 116.447 18.6397 116.507 18.3359 116.507C18.0322 116.507 17.7315 116.447 17.4511 116.33C17.1706 116.213 16.916 116.043 16.7017 115.827L27.0071 126.133C25.1674 126.641 23.2673 126.898 21.3585 126.897C17.1462 126.898 13.0274 125.654 9.5202 123.321C6.01297 120.988 3.27378 117.67 1.64703 113.784C0.0202716 109.899 -0.421423 105.619 0.377449 101.483C1.17632 97.3475 3.18009 93.5401 6.13688 90.5399C9.09367 87.5397 12.8715 85.4806 16.9953 84.6214C21.1191 83.7623 25.405 84.1415 29.3139 85.7113C33.2228 87.2811 36.5804 89.9715 38.9645 93.4442C41.3486 96.917 42.6527 101.017 42.713 105.229L34.4324 97.2087Z" fill="#32BA7C"/>
<path d="M34.4365 101.382L19.9743 115.844C19.7601 116.059 19.5054 116.23 19.225 116.347C18.9445 116.463 18.6438 116.523 18.3401 116.523C18.0364 116.523 17.7357 116.463 17.4552 116.347C17.1748 116.23 16.9201 116.059 16.7059 115.844L8.72687 107.869C8.17756 107.318 7.86914 106.571 7.86914 105.793C7.86914 105.015 8.17756 104.268 8.72687 103.717L9.83426 102.613C10.3837 102.068 11.1263 101.763 11.9003 101.763C12.6742 101.763 13.4168 102.068 13.9663 102.613L18.3091 106.952L29.1558 96.1055C29.7072 95.5562 30.4538 95.2478 31.2321 95.2478C32.0105 95.2478 32.7571 95.5562 33.3085 96.1055L34.4117 97.2088C34.6885 97.4805 34.9087 97.8044 35.0598 98.1616C35.211 98.5188 35.2899 98.9024 35.2922 99.2903C35.2945 99.6781 35.2201 100.063 35.0733 100.422C34.9264 100.781 34.71 101.107 34.4365 101.382Z" fill="white"/>
<path d="M42.717 105.535C42.7187 110.215 41.1831 114.767 38.3463 118.49C35.5095 122.212 31.5285 124.901 27.0152 126.141L16.6934 115.844C16.9076 116.059 17.1622 116.23 17.4427 116.347C17.7231 116.463 18.0239 116.523 18.3276 116.523C18.6313 116.523 18.932 116.463 19.2124 116.347C19.4929 116.23 19.7476 116.059 19.9618 115.844L34.424 101.382C34.9746 100.831 35.2838 100.083 35.2838 99.3037C35.2838 98.5244 34.9746 97.7769 34.424 97.2253L42.6881 105.245C42.717 105.328 42.717 105.431 42.717 105.535Z" fill="#0AA06E"/>
</g>
<defs>
<clipPath id="clip0_110_2911">
<rect width="193" height="131" fill="white"/>
</clipPath>
</defs>
</svg>
