<svg width="348" height="300" viewBox="0 0 348 300" fill="none" xmlns="http://www.w3.org/2000/svg">
<g clip-path="url(#clip0_2_1200)">
<rect x="122.432" y="64.6938" width="152" height="95" rx="6" transform="rotate(30 122.432 64.6938)" fill="#FF5145"/>
<path d="M94.4943 127.083L214.006 196.083L205.506 210.806C204.953 211.763 203.73 212.09 202.774 211.538L86.7263 144.538C85.7697 143.986 85.442 142.763 85.9943 141.806L94.4943 127.083Z" fill="#BAC7D2"/>
<path d="M132.494 61.2655C133.047 60.3089 134.27 59.9812 135.226 60.5334L193.25 94.0334L147.75 172.842L89.7263 139.342C88.7697 138.789 88.442 137.566 88.9943 136.61L132.494 61.2655Z" fill="#EDF6FF"/>
<path d="M252.006 130.265C252.558 129.309 252.23 128.086 251.274 127.533L193.25 94.0334L147.75 172.842L205.774 206.342C206.73 206.894 207.953 206.566 208.506 205.61L252.006 130.265Z" fill="#D6E4F0"/>
<path d="M196.073 178.675L195.171 180.238C195.513 180.322 195.816 180.412 196.078 180.51C196.341 180.607 196.576 180.716 196.783 180.836C197.595 181.304 198.097 181.952 198.287 182.777C198.481 183.599 198.326 184.445 197.823 185.315C197.256 186.299 196.515 186.872 195.603 187.037C194.692 187.197 193.653 186.94 192.485 186.265C191.646 185.781 191.061 185.32 190.73 184.882C190.404 184.448 190.345 184.05 190.553 183.689C190.678 183.472 190.862 183.332 191.104 183.267C191.348 183.198 191.576 183.224 191.788 183.346C191.919 183.422 192.163 183.65 192.521 184.031C192.883 184.414 193.219 184.696 193.531 184.876C194.04 185.17 194.511 185.267 194.941 185.167C195.375 185.062 195.731 184.768 196.009 184.286C196.28 183.817 196.362 183.368 196.254 182.939C196.154 182.508 195.879 182.163 195.428 181.902C195.139 181.736 194.743 181.63 194.239 181.586C193.735 181.542 193.411 181.478 193.267 181.395C193.01 181.246 192.868 181.071 192.84 180.868C192.815 180.662 192.902 180.387 193.1 180.044L194.99 176.769C195.131 176.526 195.251 176.391 195.351 176.364C195.455 176.34 195.586 176.373 195.744 176.465L200.175 179.023C200.455 179.185 200.616 179.353 200.659 179.528C200.71 179.702 200.651 179.933 200.485 180.221C200.321 180.505 200.153 180.67 199.983 180.716C199.812 180.762 199.584 180.703 199.3 180.539L196.073 178.675ZM205.145 186.665L207.391 187.962C207.603 188.084 207.739 188.25 207.799 188.459C207.866 188.666 207.841 188.871 207.724 189.074C207.607 189.277 207.44 189.403 207.225 189.453C207.014 189.506 206.803 189.471 206.591 189.349L204.344 188.052L202.993 190.393C202.871 190.605 202.701 190.742 202.485 190.803C202.276 190.863 202.068 190.833 201.861 190.713C201.667 190.601 201.541 190.433 201.485 190.208C201.433 189.985 201.464 189.775 201.579 189.576L202.93 187.235L200.684 185.938C200.472 185.816 200.334 185.649 200.27 185.438C200.21 185.229 200.239 185.023 200.356 184.82C200.465 184.63 200.629 184.508 200.847 184.454C201.069 184.402 201.282 184.434 201.485 184.551L203.731 185.848L205.083 183.507C205.208 183.291 205.375 183.153 205.584 183.093C205.795 183.029 206.005 183.056 206.212 183.176C206.42 183.296 206.548 183.464 206.599 183.679C206.653 183.897 206.619 184.112 206.497 184.324L205.145 186.665Z" fill="#FF5145"/>
<path d="M177.487 66.8627L177.174 68.64C177.524 68.6013 177.84 68.5829 178.12 68.5847C178.4 68.5864 178.658 68.6081 178.894 68.6497C179.817 68.8125 180.509 69.2493 180.971 69.9601C181.434 70.6657 181.578 71.5135 181.403 72.5034C181.206 73.6216 180.707 74.4141 179.905 74.881C179.104 75.3427 178.04 75.4564 176.711 75.2222C175.757 75.054 175.05 74.8209 174.59 74.5228C174.134 74.2257 173.943 73.872 174.015 73.4616C174.058 73.2154 174.183 73.0205 174.388 72.8769C174.594 72.7281 174.818 72.675 175.059 72.7175C175.207 72.7437 175.515 72.8746 175.981 73.1102C176.452 73.3466 176.865 73.4961 177.219 73.5585C177.798 73.6607 178.273 73.5911 178.644 73.3497C179.015 73.1031 179.249 72.7054 179.346 72.1566C179.44 71.6232 179.363 71.1733 179.116 70.8071C178.875 70.4366 178.497 70.2062 177.985 70.1157C177.656 70.0578 177.248 70.0942 176.759 70.225C176.271 70.3557 175.945 70.4065 175.781 70.3776C175.488 70.3261 175.294 70.2099 175.199 70.0292C175.105 69.8434 175.093 69.5555 175.161 69.1657L175.818 65.4419C175.867 65.1649 175.933 64.9969 176.018 64.9377C176.107 64.8795 176.242 64.8662 176.422 64.8978L181.461 65.7864C181.779 65.8425 181.988 65.9455 182.089 66.0955C182.195 66.2412 182.22 66.4782 182.162 66.8064C182.105 67.1296 182.004 67.3418 181.859 67.4432C181.714 67.5446 181.48 67.5668 181.157 67.5099L177.487 66.8627ZM188.745 71.2674L191.299 71.7178C191.54 71.7603 191.725 71.8695 191.852 72.0453C191.986 72.217 192.032 72.4182 191.992 72.649C191.951 72.8799 191.838 73.0556 191.653 73.1763C191.473 73.2979 191.262 73.3375 191.021 73.295L188.467 72.8446L187.997 75.5066C187.955 75.7477 187.843 75.9342 187.661 76.0661C187.485 76.1937 187.279 76.2367 187.043 76.1951C186.822 76.1562 186.647 76.0407 186.517 75.8485C186.392 75.6573 186.35 75.4488 186.389 75.2231L186.859 72.5611L184.304 72.1107C184.063 72.0681 183.876 71.9585 183.744 71.7817C183.616 71.6058 183.573 71.4025 183.613 71.1717C183.651 70.9562 183.763 70.7856 183.949 70.6598C184.141 70.5348 184.352 70.4927 184.583 70.5334L187.137 70.9838L187.606 68.3218C187.65 68.0756 187.759 67.8886 187.935 67.761C188.112 67.6282 188.318 67.5826 188.554 67.6242C188.79 67.6658 188.969 67.7792 189.089 67.9645C189.215 68.1506 189.257 68.3642 189.214 68.6053L188.745 71.2674Z" fill="#FF5145"/>
<path d="M60.9519 77.2059C60.9755 77.2187 60.999 77.2314 61.0225 77.2442C61.0475 77.2486 61.0892 77.2559 61.1476 77.2662C61.3143 77.2956 61.5243 77.2252 61.7778 77.0551C62.0327 76.8766 62.2352 76.8005 62.3852 76.827C62.7353 76.8887 62.9949 77.0247 63.1641 77.2351C63.3347 77.437 63.3929 77.6922 63.3385 78.0006C63.3238 78.0839 63.3 78.17 63.2672 78.2587C63.2427 78.349 63.2113 78.4294 63.1731 78.5L62.7349 79.3767C62.654 79.5429 62.5479 79.6574 62.4165 79.7201C62.2851 79.7829 62.1277 79.7981 61.9444 79.7658L60.5441 79.5189L60.2685 81.0817L61.0062 81.2118C61.0812 81.225 61.1763 81.2461 61.2915 81.275C61.4067 81.3039 61.481 81.3213 61.5144 81.3272C61.8144 81.3801 62.0488 81.5374 62.2175 81.7992C62.3876 82.0526 62.4426 82.3502 62.3823 82.692C62.3089 83.1087 62.1309 83.3867 61.8485 83.526C61.5745 83.6668 61.1541 83.6872 60.5873 83.5872L55.3113 82.6569C54.7445 82.557 54.3564 82.394 54.147 82.168C53.946 81.9435 53.8822 81.6229 53.9557 81.2061C54.0307 80.781 54.2052 80.4981 54.4792 80.3574C54.7547 80.2083 55.1717 80.183 55.7301 80.2815L57.5555 80.6033L57.8311 79.0405L52.0674 78.0242C51.8507 77.986 51.6958 77.8899 51.6026 77.736C51.5178 77.5835 51.4974 77.3823 51.5415 77.1322L51.676 76.3696C51.7303 76.0612 51.7931 75.8273 51.8641 75.668C51.945 75.5018 52.0565 75.3324 52.1987 75.1598L59.0237 67.1589C59.1855 66.9726 59.3083 66.861 59.3921 66.8242C59.4843 66.7889 59.6012 66.7838 59.7429 66.8087C59.8179 66.822 59.8797 66.8372 59.9282 66.8543C59.9866 66.8646 60.0359 66.8776 60.0761 66.8933L62.2332 67.6733C62.3538 67.7203 62.4379 67.8039 62.4855 67.924C62.533 68.0441 62.5406 68.1959 62.5083 68.3792L60.9519 77.2059ZM59.458 69.8137L54.3131 76.0353L58.2389 76.7276L59.458 69.8137Z" fill="#FF5145"/>
<path d="M209.894 252.405L210.704 254.631C211.077 254.357 211.423 254.129 211.743 253.947C212.062 253.765 212.37 253.621 212.665 253.513C213.821 253.092 214.895 253.134 215.886 253.639C216.875 254.138 217.595 255.007 218.047 256.247C218.556 257.647 218.509 258.875 217.904 259.932C217.297 260.982 216.161 261.81 214.498 262.416C213.303 262.851 212.346 263.05 211.627 263.013C210.915 262.974 210.465 262.698 210.278 262.184C210.165 261.876 210.179 261.573 210.318 261.275C210.454 260.97 210.674 260.763 210.975 260.653C211.162 260.586 211.597 260.533 212.282 260.494C212.972 260.454 213.54 260.353 213.983 260.192C214.709 259.927 215.203 259.537 215.466 259.019C215.726 258.495 215.731 257.889 215.481 257.202C215.238 256.534 214.855 256.073 214.334 255.819C213.816 255.557 213.236 255.542 212.594 255.776C212.183 255.926 211.742 256.235 211.273 256.704C210.804 257.173 210.466 257.445 210.261 257.52C209.894 257.653 209.598 257.648 209.371 257.505C209.142 257.356 208.939 257.037 208.761 256.549L207.064 251.885C206.938 251.538 206.903 251.304 206.96 251.181C207.024 251.056 207.168 250.953 207.393 250.871L213.704 248.574C214.103 248.429 214.408 248.408 214.621 248.513C214.837 248.609 215.02 248.862 215.17 249.273C215.317 249.678 215.342 249.985 215.244 250.196C215.146 250.406 214.895 250.585 214.49 250.732L209.894 252.405ZM221.105 253.377L229.093 250.469C229.247 250.413 229.376 250.41 229.482 250.459C229.593 250.505 229.676 250.602 229.73 250.75L230.168 251.955C230.217 252.09 230.21 252.23 230.147 252.377C230.091 252.521 230.004 252.614 229.889 252.656L221.901 255.564C221.772 255.611 221.652 255.6 221.54 255.531C221.434 255.461 221.352 255.345 221.294 255.185L220.855 253.98C220.806 253.845 220.805 253.722 220.852 253.611C220.898 253.499 220.983 253.421 221.105 253.377Z" fill="#FF5145"/>
<path d="M252.593 248.182C252.608 248.19 252.624 248.199 252.639 248.207C252.655 248.21 252.683 248.215 252.721 248.222C252.83 248.241 252.967 248.195 253.133 248.083C253.299 247.967 253.432 247.917 253.53 247.934C253.759 247.975 253.929 248.064 254.039 248.201C254.151 248.333 254.189 248.5 254.153 248.702C254.144 248.756 254.128 248.812 254.107 248.871C254.091 248.929 254.07 248.982 254.045 249.028L253.759 249.601C253.706 249.71 253.636 249.785 253.55 249.826C253.465 249.867 253.362 249.877 253.242 249.856L252.326 249.694L252.146 250.716L252.628 250.801C252.677 250.81 252.74 250.824 252.815 250.843C252.89 250.862 252.939 250.873 252.961 250.877C253.157 250.911 253.31 251.014 253.42 251.185C253.532 251.351 253.567 251.546 253.528 251.769C253.48 252.042 253.364 252.223 253.179 252.314C253 252.407 252.725 252.42 252.354 252.355L248.905 251.746C248.534 251.681 248.28 251.574 248.143 251.427C248.012 251.28 247.97 251.07 248.018 250.798C248.067 250.52 248.181 250.335 248.361 250.243C248.541 250.145 248.813 250.129 249.179 250.193L250.372 250.404L250.552 249.382L246.784 248.717C246.642 248.692 246.541 248.629 246.48 248.529C246.424 248.429 246.411 248.297 246.44 248.134L246.528 247.635C246.563 247.434 246.604 247.281 246.651 247.177C246.704 247.068 246.777 246.957 246.87 246.844L251.332 241.613C251.438 241.491 251.518 241.418 251.573 241.394C251.633 241.371 251.71 241.368 251.802 241.384C251.851 241.393 251.892 241.403 251.923 241.414C251.962 241.42 251.994 241.429 252.02 241.439L253.431 241.949C253.509 241.98 253.564 242.035 253.596 242.113C253.627 242.192 253.632 242.291 253.61 242.411L252.593 248.182ZM251.616 243.349L248.252 247.417L250.819 247.869L251.616 243.349Z" fill="#FF5145"/>
<path d="M82.3806 81.8069L83.0365 83.6088C83.3385 83.3869 83.6188 83.2025 83.8774 83.0554C84.136 82.9082 84.3849 82.7912 84.6241 82.7041C85.5601 82.3634 86.4293 82.3974 87.2318 82.8061C88.0323 83.2097 88.6152 83.9133 88.9805 84.9169C89.3931 86.0505 89.3546 87.045 88.8651 87.9004C88.3736 88.7507 87.4545 89.4209 86.1077 89.9111C85.1404 90.2631 84.3658 90.4243 83.7838 90.3947C83.207 90.3632 82.8429 90.1395 82.6915 89.7234C82.6006 89.4738 82.6114 89.2285 82.7239 88.9873C82.8344 88.7409 83.0119 88.5733 83.2563 88.4843C83.4071 88.4294 83.7596 88.3866 84.3137 88.3557C84.873 88.3229 85.332 88.2412 85.6908 88.1106C86.2785 87.8967 86.6786 87.5803 86.8912 87.1613C87.102 86.7372 87.1061 86.2469 86.9035 85.6905C86.7067 85.1497 86.3972 84.7765 85.9749 84.571C85.5559 84.3583 85.0865 84.3467 84.5664 84.5359C84.2336 84.6571 83.8772 84.9075 83.4972 85.2873C83.1172 85.667 82.844 85.8872 82.6776 85.9478C82.3812 86.0556 82.1412 86.0517 81.9578 85.9359C81.7724 85.8149 81.6078 85.5568 81.4639 85.1616L80.0899 81.3863C79.9877 81.1055 79.9597 80.9155 80.006 80.8162C80.0575 80.715 80.1743 80.6313 80.3563 80.565L85.4654 78.7055C85.7878 78.5881 86.0351 78.5717 86.2072 78.6563C86.3826 78.7338 86.5309 78.9389 86.652 79.2717C86.7713 79.5994 86.7912 79.8483 86.7118 80.0185C86.6324 80.1887 86.4289 80.3335 86.1013 80.4527L82.3806 81.8069ZM91.4563 82.5936L97.9227 80.24C98.0475 80.1946 98.1524 80.1917 98.2375 80.2314C98.3278 80.2692 98.3948 80.3479 98.4383 80.4675L98.7932 81.4425C98.8329 81.5517 98.8273 81.6657 98.7763 81.7844C98.7304 81.9012 98.6607 81.9766 98.5671 82.0106L92.1008 84.3642C91.9968 84.4021 91.8994 84.3933 91.8086 84.3381C91.723 84.2809 91.6565 84.1873 91.6092 84.0573L91.2543 83.0823C91.2146 82.9731 91.2136 82.8733 91.2514 82.783C91.2892 82.6927 91.3575 82.6295 91.4563 82.5936Z" fill="#FF5145"/>
<path d="M76.1093 115.849C76.5795 115.828 76.9695 115.923 77.2793 116.134C77.5877 116.342 77.8247 116.674 77.9904 117.129C78.2402 117.815 78.2056 118.445 77.8863 119.019C77.5695 119.587 77.0109 120.017 76.2107 120.308C75.5647 120.543 74.9918 120.631 74.4922 120.572C73.9926 120.513 73.6874 120.331 73.5765 120.026C73.511 119.846 73.5151 119.681 73.5888 119.529C73.6649 119.373 73.7983 119.259 73.9892 119.19C74.081 119.157 74.3441 119.154 74.7787 119.183C75.2132 119.212 75.5736 119.175 75.8599 119.07C76.205 118.945 76.4359 118.757 76.5526 118.506C76.6717 118.251 76.6684 117.951 76.5428 117.606C76.4079 117.235 76.2328 117 76.0175 116.899C75.8059 116.797 75.4765 116.818 75.0293 116.96C74.7954 117.036 74.6234 117.049 74.5132 116.998C74.4054 116.941 74.3127 116.807 74.2353 116.594C74.1284 116.3 74.2248 116.074 74.5244 115.915C74.5671 115.895 74.5988 115.88 74.6195 115.868C74.9959 115.669 75.2188 115.481 75.2881 115.306C75.3562 115.128 75.3354 114.888 75.2258 114.587C75.131 114.327 74.9859 114.151 74.7907 114.06C74.5977 113.964 74.3728 113.962 74.1159 114.056C73.8442 114.155 73.571 114.352 73.2961 114.647C73.0198 114.939 72.8174 115.108 72.689 115.155C72.5458 115.207 72.4135 115.203 72.292 115.144C72.1728 115.079 72.0872 114.975 72.0351 114.832C71.9215 114.52 72.0406 114.173 72.3922 113.792C72.7439 113.41 73.2372 113.104 73.8722 112.872C74.5109 112.64 75.0794 112.62 75.5777 112.813C76.0797 113.004 76.4303 113.373 76.6293 113.92C76.7603 114.28 76.7831 114.617 76.6977 114.931C76.6147 115.239 76.4186 115.546 76.1093 115.849ZM82.358 113.282L84.186 112.617C84.3585 112.554 84.5192 112.556 84.6681 112.622C84.8193 112.683 84.925 112.797 84.9851 112.962C85.0452 113.127 85.0377 113.284 84.9627 113.431C84.8913 113.578 84.7694 113.683 84.5968 113.745L82.7688 114.411L83.4622 116.316C83.525 116.488 83.5221 116.652 83.4534 116.805C83.387 116.954 83.2694 117.059 83.1005 117.121C82.9427 117.178 82.7855 117.169 82.629 117.093C82.4761 117.016 82.3703 116.896 82.3115 116.735L81.6181 114.83L79.7901 115.495C79.6176 115.558 79.455 115.557 79.3025 115.492C79.1536 115.425 79.0491 115.309 78.989 115.144C78.9329 114.99 78.9417 114.837 79.0154 114.686C79.0928 114.533 79.2141 114.426 79.3793 114.366L81.2073 113.701L80.5139 111.796C80.4497 111.62 80.4509 111.457 80.5172 111.308C80.5823 111.156 80.6992 111.049 80.8681 110.987C81.0369 110.926 81.1953 110.932 81.3431 111.008C81.4947 111.081 81.6018 111.204 81.6646 111.377L82.358 113.282Z" fill="#FF5145"/>
<path d="M247.08 264.639L246.077 267.395C246.649 267.432 247.159 267.492 247.606 267.573C248.054 267.655 248.461 267.763 248.826 267.896C250.258 268.417 251.243 269.311 251.781 270.579C252.322 271.839 252.314 273.236 251.755 274.771C251.124 276.505 250.101 277.632 248.687 278.153C247.275 278.666 245.539 278.548 243.479 277.798C242 277.26 240.934 276.687 240.281 276.08C239.637 275.476 239.43 274.856 239.662 274.22C239.8 273.838 240.054 273.561 240.423 273.389C240.795 273.209 241.168 273.187 241.541 273.323C241.772 273.407 242.227 273.704 242.907 274.212C243.594 274.724 244.212 275.079 244.761 275.279C245.66 275.606 246.44 275.629 247.101 275.347C247.765 275.057 248.251 274.487 248.561 273.636C248.862 272.809 248.866 272.067 248.574 271.411C248.292 270.75 247.753 270.275 246.958 269.985C246.449 269.8 245.785 269.743 244.967 269.815C244.148 269.886 243.612 269.875 243.357 269.783C242.904 269.618 242.627 269.377 242.525 269.061C242.427 268.737 242.488 268.273 242.708 267.669L244.81 261.895C244.966 261.465 245.12 261.215 245.272 261.144C245.432 261.076 245.651 261.093 245.929 261.194L253.743 264.038C254.236 264.218 254.542 264.442 254.66 264.71C254.79 264.973 254.762 265.359 254.577 265.868C254.394 266.369 254.173 266.681 253.913 266.802C253.652 266.923 253.271 266.893 252.77 266.711L247.08 264.639ZM263.853 274.865L267.814 276.306C268.187 276.442 268.452 276.669 268.606 276.987C268.772 277.299 268.789 277.634 268.659 277.992C268.529 278.35 268.299 278.599 267.968 278.74C267.646 278.884 267.297 278.888 266.924 278.752L262.963 277.31L261.461 281.438C261.324 281.812 261.092 282.079 260.764 282.238C260.446 282.393 260.105 282.404 259.739 282.271C259.397 282.146 259.149 281.912 258.995 281.568C258.849 281.226 258.84 280.881 258.967 280.531L260.47 276.403L256.509 274.961C256.135 274.825 255.867 274.597 255.704 274.277C255.55 273.959 255.537 273.622 255.668 273.264C255.789 272.93 256.017 272.688 256.35 272.539C256.692 272.393 257.041 272.386 257.399 272.516L261.36 273.957L262.862 269.83C263.001 269.448 263.229 269.18 263.547 269.025C263.867 268.862 264.21 268.848 264.576 268.981C264.942 269.114 265.195 269.346 265.336 269.676C265.485 270.01 265.491 270.363 265.355 270.737L263.853 274.865Z" fill="#FF5145"/>
<rect x="136.09" y="173.038" width="20" height="8" transform="rotate(30 136.09 173.038)" fill="#D54137"/>
<rect x="133.922" y="74.792" width="53" height="5" rx="2.5" transform="rotate(30 133.922 74.792)" fill="#D6E4F0"/>
<rect x="193.678" y="109.292" width="53" height="5" rx="2.5" transform="rotate(30 193.678 109.292)" fill="#BECEDC"/>
<rect x="126.422" y="87.7822" width="53" height="5" rx="2.5" transform="rotate(30 126.422 87.7822)" fill="#D6E4F0"/>
<rect x="186.178" y="122.282" width="53" height="5" rx="2.5" transform="rotate(30 186.178 122.282)" fill="#BECEDC"/>
<rect x="118.922" y="100.773" width="53" height="5" rx="2.5" transform="rotate(30 118.922 100.773)" fill="#D6E4F0"/>
<rect x="178.678" y="135.273" width="53" height="5" rx="2.5" transform="rotate(30 178.678 135.273)" fill="#BECEDC"/>
<rect x="111.422" y="113.763" width="53" height="5" rx="2.5" transform="rotate(30 111.422 113.763)" fill="#D6E4F0"/>
<rect x="171.178" y="148.263" width="53" height="5" rx="2.5" transform="rotate(30 171.178 148.263)" fill="#BECEDC"/>
<rect x="103.922" y="126.753" width="53" height="5" rx="2.5" transform="rotate(30 103.922 126.753)" fill="#D6E4F0"/>
<rect x="163.678" y="161.253" width="23" height="5" rx="2.5" transform="rotate(30 163.678 161.253)" fill="#BECEDC"/>
</g>
<defs>
<clipPath id="clip0_2_1200">
<rect width="302" height="171" fill="white" transform="translate(85.5065 0.650879) rotate(30)"/>
</clipPath>
</defs>
</svg>
