<svg width="167" height="154" viewBox="0 0 167 154" fill="none" xmlns="http://www.w3.org/2000/svg">
<g clip-path="url(#clip0_105_2323)">
<path d="M130.587 59.2322L144.514 73.2023L102.063 115.785C101.832 116.017 101.519 116.147 101.192 116.147C100.866 116.147 100.553 116.017 100.322 115.785L88.1358 103.561C87.9049 103.33 87.7752 103.016 87.7752 102.688C87.7752 102.361 87.9049 102.047 88.1358 101.815L130.587 59.2322Z" fill="#DBFFFC"/>
<path d="M91.8032 107.031L96.8692 112.112L92.9203 116.073C92.6894 116.305 92.3763 116.435 92.0498 116.435C91.7234 116.435 91.4103 116.305 91.1794 116.073L87.8543 112.738C87.6235 112.506 87.4938 112.192 87.4938 111.865C87.4938 111.537 87.6235 111.223 87.8543 110.992L91.8032 107.031Z" fill="#DBFFFC"/>
<path d="M86.3247 110.731L93.1838 117.611L83.5248 127.3C82.7245 128.103 81.6391 128.554 80.5073 128.554C79.3755 128.554 78.29 128.103 77.4897 127.3L76.6686 126.476C76.2724 126.079 75.958 125.607 75.7436 125.088C75.5291 124.568 75.4187 124.012 75.4187 123.45C75.4187 122.887 75.5291 122.331 75.7436 121.811C75.958 121.292 76.2724 120.82 76.6686 120.423L86.3276 110.734L86.3247 110.731Z" fill="#FE7665"/>
<path d="M75.819 125.369L78.5899 128.149L61.0012 145.792C60.678 146.116 60.2396 146.298 59.7826 146.298C59.3255 146.298 58.8871 146.116 58.5639 145.792L58.2187 145.445C57.8955 145.121 57.7139 144.681 57.7139 144.223C57.7139 143.764 57.8955 143.325 58.2187 143.001L75.8074 125.357L75.819 125.369Z" fill="white" fill-opacity="0.7"/>
<path d="M157.015 53.2957L147.263 43.5137L132.881 57.9408L142.633 67.7228L157.015 53.2957Z" fill="#66FCF1"/>
<path d="M104.417 85.4841L118.344 99.4543L102.063 115.785C101.833 116.016 101.519 116.146 101.193 116.146C100.866 116.146 100.553 116.016 100.323 115.785L88.1364 103.561C87.9055 103.329 87.7758 103.015 87.7758 102.688C87.7758 102.36 87.9055 102.046 88.1364 101.815L104.417 85.4841Z" fill="#4EF5E9"/>
<path d="M124.847 92.9471L110.908 78.9653L104.415 85.4789L118.353 99.4607L124.847 92.9471Z" fill="#414851"/>
<path d="M155.365 79.3925L122.674 46.6005C121.713 45.6361 120.154 45.6361 119.192 46.6005L118.528 47.267C117.566 48.2314 117.566 49.7951 118.528 50.7595L151.219 83.5516C152.18 84.516 153.739 84.516 154.7 83.5516L155.365 82.8851C156.326 81.9206 156.326 80.357 155.365 79.3925Z" fill="#9BFEF7"/>
<path d="M161.673 57.9843L142.494 38.7463C141.533 37.7818 139.974 37.7818 139.013 38.7463L138.348 39.4128C137.387 40.3772 137.387 41.9409 138.348 42.9053L157.527 62.1434C158.488 63.1078 160.047 63.1078 161.009 62.1434L161.673 61.4769C162.634 60.5124 162.634 58.9488 161.673 57.9843Z" fill="#9BFEF7"/>
<path d="M142.323 48.4653L146.304 52.4585C146.439 52.5938 146.546 52.7544 146.619 52.9312C146.692 53.1079 146.729 53.2974 146.729 53.4888C146.729 53.6801 146.692 53.8696 146.619 54.0464C146.546 54.2231 146.439 54.3838 146.304 54.5191L137.89 62.9594L132.882 57.9359L142.323 48.4653Z" fill="#DBFFFC"/>
<path opacity="0.1" d="M136.983 69.2693L142.72 75.0233L102.073 115.796C101.842 116.027 101.529 116.157 101.203 116.157C100.876 116.157 100.563 116.027 100.332 115.796L96.3368 111.788C96.1059 111.556 95.9762 111.242 95.9762 110.915C95.9762 110.587 96.1059 110.273 96.3368 110.042L136.983 69.2693Z" fill="black"/>
<path d="M36.9543 87.115H4.27152C3.01605 87.115 1.99829 88.1359 1.99829 89.3953V97.6149C1.99829 98.8743 3.01605 99.8952 4.27152 99.8952H36.9543C38.2097 99.8952 39.2275 98.8743 39.2275 97.6149V89.3953C39.2275 88.1359 38.2097 87.115 36.9543 87.115Z" fill="#FAC850"/>
<path d="M38.9526 105.818H2.27323C1.01776 105.818 0 106.839 0 108.098V151.72C0 152.979 1.01776 154 2.27323 154H38.9526C40.208 154 41.2258 152.979 41.2258 151.72V108.098C41.2258 106.839 40.208 105.818 38.9526 105.818Z" fill="#FAC852"/>
<path d="M36.228 99.8953H4.9978V106.662H36.228V99.8953Z" fill="#F29A49"/>
<path d="M2.27323 105.818H38.9526C39.2511 105.818 39.5467 105.877 39.8225 105.992C40.0983 106.106 40.3489 106.274 40.56 106.486C40.7711 106.698 40.9385 106.949 41.0528 107.226C41.167 107.502 41.2258 107.799 41.2258 108.098V112.931H0V108.098C0 107.799 0.0587987 107.502 0.173039 107.226C0.287279 106.949 0.454724 106.698 0.665812 106.486C0.876901 106.274 1.1275 106.106 1.4033 105.992C1.6791 105.877 1.9747 105.818 2.27323 105.818Z" fill="#FAC850"/>
<path d="M41.2258 112.927H0V116.874H41.2258V112.927Z" fill="#F29A49"/>
<path d="M41.2258 142.94H0V146.888H41.2258V142.94Z" fill="#F29A49"/>
<path d="M38.9526 154H2.2691C1.6662 154 1.088 153.76 0.66169 153.332C0.235378 152.904 -0.00412369 152.325 -0.00412369 151.72V146.904H41.2217V151.72C41.2217 152.325 40.9822 152.904 40.5559 153.332C40.1296 153.76 39.5514 154 38.9485 154H38.9526Z" fill="#FAC850"/>
<path d="M37.102 116.874H3.93506V142.94H37.102V116.874Z" fill="#FFFDFA"/>
<path d="M31.6076 122.389H9.18311V131.535H31.6076V122.389Z" fill="#79D8EB"/>
<path d="M20.3934 136.738H7.61987V140.998H20.3934V136.738Z" fill="#79D8EB"/>
<path d="M33.3885 136.738H24.6116V140.998H33.3885V136.738Z" fill="#79D8EB"/>
<path d="M58.0698 79.805C71.2976 79.805 82.0208 69.0486 82.0208 55.78C82.0208 42.5113 71.2976 31.7549 58.0698 31.7549C44.8421 31.7549 34.1189 42.5113 34.1189 55.78C34.1189 69.0486 44.8421 79.805 58.0698 79.805Z" fill="#F58A97"/>
<path d="M87.0144 46.5026C85.6665 42.0938 83.3325 38.0521 80.1906 34.6858C77.0487 31.3194 73.1819 28.7173 68.885 27.0779C64.5881 25.4386 59.9747 24.8053 55.3967 25.2264C50.8187 25.6474 46.3971 27.1118 42.469 29.5076C37.9483 32.2731 34.229 36.1786 31.6815 40.8349C29.2958 45.2151 28.0273 50.1192 27.9887 55.1104C27.9501 60.1016 29.1428 65.0248 31.4605 69.4416C33.7781 73.8585 37.1488 77.6317 41.2723 80.4254C45.3959 83.219 50.1442 84.9462 55.0943 85.4533C60.0445 85.9603 65.0428 85.2314 69.6441 83.3315C74.2455 81.4315 78.3069 78.4195 81.4667 74.5637C84.6265 70.708 86.7866 66.1282 87.7545 61.2322C88.7224 56.3362 88.4682 51.2761 87.0144 46.5026ZM58.1559 78.2493C53.6485 78.2493 49.2424 76.9085 45.4946 74.3966C41.7469 71.8847 38.8259 68.3144 37.101 64.1373C35.3761 59.9601 34.9248 55.3637 35.8041 50.9292C36.6835 46.4948 38.854 42.4215 42.0412 39.2244C45.2284 36.0273 49.2891 33.8501 53.7099 32.968C58.1306 32.086 62.7129 32.5387 66.8772 34.2689C71.0414 35.9992 74.6007 38.9292 77.1049 42.6886C79.609 46.4479 80.9456 50.8677 80.9456 55.389C80.9391 61.4499 78.536 67.2607 74.2635 71.5464C69.991 75.8321 64.1981 78.2427 58.1559 78.2493Z" fill="#EB5569"/>
<path d="M51.7222 54.8622C54.8948 54.8622 57.4668 52.2823 57.4668 49.0998C57.4668 45.9173 54.8948 43.3374 51.7222 43.3374C48.5495 43.3374 45.9775 45.9173 45.9775 49.0998C45.9775 52.2823 48.5495 54.8622 51.7222 54.8622Z" fill="#EB5569"/>
<path d="M31.2344 30.228C31.2344 30.3803 31.2344 30.5326 31.2344 30.6807C31.1752 32.3565 30.4624 33.9419 29.2495 35.0957C28.0365 36.2494 26.4204 36.8793 24.749 36.8496C23.0777 36.8199 21.4848 36.1331 20.3133 34.937C19.1418 33.7409 18.4854 32.1312 18.4854 30.4544C18.4854 28.7776 19.1418 27.1678 20.3133 25.9717C21.4848 24.7756 23.0777 24.0888 24.749 24.0591C26.4204 24.0294 28.0365 24.6593 29.2495 25.8131C30.4624 26.9668 31.1752 28.5522 31.2344 30.228Z" fill="#EB5569"/>
<path d="M37.3237 33.4712C35.0773 35.6205 33.1743 38.1042 31.6816 40.8347C31.3867 39.7302 30.8035 38.7245 29.9921 37.9215C29.1807 37.1184 28.1704 36.5469 27.0654 36.2659C28.2174 35.8341 29.2213 35.0792 29.9576 34.0911C30.6938 33.103 31.1313 31.9234 31.218 30.6929C31.8055 31.57 32.5997 32.2881 33.5302 32.7836C34.4608 33.279 35.4988 33.5364 36.5522 33.5329C36.8104 33.5283 37.0681 33.5077 37.3237 33.4712Z" fill="#EB5569"/>
<path d="M86.9653 78.3604C86.9653 78.2122 86.9448 78.0599 86.9407 77.9117C86.9145 76.6783 87.2421 75.4632 87.8844 74.411C88.5267 73.3588 89.4567 72.5138 90.5639 71.9765C91.2544 71.6459 91.9975 71.4397 92.7591 71.3673C94.0201 71.2516 95.287 71.5134 96.3997 72.1196C97.5125 72.7259 98.4211 73.6493 99.0108 74.7733C99.6006 75.8974 99.8449 77.1715 99.7131 78.4348C99.5812 79.6981 99.079 80.8938 98.2699 81.8709C97.4609 82.848 96.3812 83.5626 95.1675 83.9245C93.9537 84.2863 92.6602 84.2792 91.4505 83.904C90.2407 83.5287 89.169 82.8023 88.3707 81.8163C87.5724 80.8303 87.0833 79.6291 86.9653 78.3645V78.3604Z" fill="#EB5569"/>
<path d="M80.6052 75.6932C82.6447 73.3449 84.3124 70.6962 85.5497 67.8398C85.9449 68.9113 86.6179 69.8577 87.4993 70.5812C88.3807 71.3047 89.4387 71.7793 90.5639 71.9558C89.4568 72.4932 88.5267 73.3382 87.8844 74.3904C87.2421 75.4426 86.9146 76.6576 86.9407 77.8911C86.2778 77.0731 85.4239 76.4318 84.4548 76.024C83.4856 75.6162 82.4312 75.4545 81.3848 75.5532C81.1225 75.5848 80.8622 75.6315 80.6052 75.6932Z" fill="#EB5569"/>
<path d="M56.1741 15.6613C56.0264 15.8259 55.8745 15.9864 55.7145 16.1387C53.9602 17.8361 51.6117 18.7746 49.1744 18.7522C46.7372 18.7298 44.4061 17.7484 42.6831 16.0191C40.9601 14.2899 39.9828 11.9512 39.9618 9.50636C39.9407 7.06156 40.8775 4.70621 42.5705 2.94735C44.2634 1.18849 46.5772 0.166773 49.0137 0.10214C51.4502 0.0375078 53.8146 0.935129 55.5978 2.60177C57.3811 4.26842 58.4407 6.57082 58.5485 9.01332C58.6562 11.4558 57.8036 13.8431 56.1741 15.6613Z" fill="#EB5569"/>
<path d="M59.6496 25.1529C55.1138 25.2932 50.6268 26.1346 46.3467 27.6472C47.1022 26.1574 47.4476 24.4923 47.3474 22.8238C47.2471 21.1553 46.7048 19.5438 45.7764 18.1558C47.4539 18.816 49.2856 18.9769 51.052 18.6192C52.8183 18.2614 54.4443 17.4003 55.7351 16.1389C55.4908 17.8577 55.7274 19.6108 56.4187 21.2025C57.1099 22.7942 58.2285 24.1619 59.6496 25.1529Z" fill="#EB5569"/>
<path d="M97.8429 57.6692C97.6911 57.4963 97.5434 57.3234 97.4121 57.1423C95.9328 55.2044 95.2414 52.7758 95.4775 50.3465C95.7136 47.9173 96.8596 45.6683 98.6841 44.0535C99.2837 43.525 99.9451 43.0717 100.654 42.7034C102.255 41.8773 104.055 41.5187 105.85 41.6685C107.644 41.8182 109.361 42.4702 110.804 43.5504C112.247 44.6305 113.359 46.0953 114.014 47.7782C114.668 49.461 114.838 51.2943 114.504 53.0693C114.171 54.8444 113.348 56.4899 112.128 57.8186C110.908 59.1473 109.341 60.1059 107.605 60.5852C105.869 61.0645 104.033 61.0453 102.307 60.5298C100.582 60.0142 99.0348 59.0231 97.8429 57.6692Z" fill="#EB5569"/>
<path d="M87.7819 60.0772C88.1797 55.4214 87.8614 50.732 86.8381 46.1733C88.263 47.1279 89.9165 47.6828 91.6271 47.7805C93.3378 47.8782 95.0434 47.5152 96.5671 46.729C95.697 48.3617 95.314 50.2111 95.4639 52.0563C95.6138 53.9015 96.2902 55.6644 97.4123 57.1342C95.8871 56.7337 94.2871 56.7161 92.7535 57.0829C91.2198 57.4497 89.7999 58.1897 88.619 59.2375C88.3238 59.5007 88.0443 59.7811 87.7819 60.0772Z" fill="#EB5569"/>
<path d="M20.9145 14.6242C24.4543 14.6242 27.3238 11.7458 27.3238 8.19506C27.3238 4.64431 24.4543 1.76587 20.9145 1.76587C17.3747 1.76587 14.5051 4.64431 14.5051 8.19506C14.5051 11.7458 17.3747 14.6242 20.9145 14.6242Z" fill="#EB5569"/>
<path d="M19.2732 95.9932C21.4351 95.9932 23.1877 94.2352 23.1877 92.0666C23.1877 89.8979 21.4351 88.1399 19.2732 88.1399C17.1112 88.1399 15.3586 89.8979 15.3586 92.0666C15.3586 94.2352 17.1112 95.9932 19.2732 95.9932Z" fill="#EB5569"/>
<path d="M95.6559 105.176C99.1957 105.176 102.065 102.298 102.065 98.7468C102.065 95.1961 99.1957 92.3176 95.6559 92.3176C92.1161 92.3176 89.2466 95.1961 89.2466 98.7468C89.2466 102.298 92.1161 105.176 95.6559 105.176Z" fill="#EB5569"/>
<path d="M95.4017 21.9958C95.4016 23.2031 95.0485 24.3838 94.3863 25.3919C93.7241 26.4 92.7818 27.1912 91.6759 27.6677C90.9095 28.0015 90.0824 28.1725 89.2468 28.1698H88.9596C87.4802 28.1004 86.0754 27.4982 85.0029 26.4738C83.9304 25.4494 83.2621 24.0714 83.1206 22.5927C83.1007 22.3971 83.0911 22.2006 83.0918 22.0041C83.0918 20.3666 83.7403 18.7963 84.8946 17.6384C86.0489 16.4806 87.6144 15.8301 89.2468 15.8301C90.8792 15.8301 92.4447 16.4806 93.599 17.6384C94.7533 18.7963 95.4017 20.3666 95.4017 22.0041V21.9958Z" fill="#EB5569"/>
<path d="M88.9716 28.1616C87.0955 28.7811 85.4418 29.9392 84.2157 31.4926C82.9896 33.0459 82.2449 34.926 82.074 36.8999C79.812 33.9566 77.0304 31.4551 73.8674 29.5199C75.9327 29.4553 77.9281 28.7553 79.5833 27.5146C81.2385 26.274 82.4733 24.5528 83.1204 22.5845C83.2622 24.0652 83.9323 25.4448 85.0074 26.4695C86.0824 27.4942 87.4901 28.0951 88.9716 28.1616Z" fill="#EB5569"/>
<path d="M66.5145 108.107C65.3178 107.353 64.3686 106.262 63.7849 104.971C63.2012 103.68 63.0089 102.246 63.2318 100.846C63.3792 99.8742 63.7257 98.9437 64.2494 98.1129C64.311 98.0141 64.3766 97.9236 64.4382 97.8289C65.4319 96.3968 66.9073 95.3723 68.5935 94.9436C70.2797 94.5149 72.0634 94.7107 73.6173 95.4951C73.8226 95.5973 74.0225 95.71 74.2163 95.8327C75.0198 96.3394 75.7158 96.9999 76.2648 97.7765C76.8137 98.5531 77.2048 99.4305 77.4157 100.359C77.6266 101.287 77.6532 102.248 77.4939 103.186C77.3347 104.125 76.9927 105.022 76.4875 105.828C75.9823 106.634 75.3239 107.332 74.5497 107.883C73.7755 108.434 72.9008 108.826 71.9755 109.038C71.0501 109.249 70.0923 109.276 69.1567 109.116C68.2212 108.956 67.3261 108.613 66.5227 108.107H66.5145Z" fill="#EB5569"/>
<path d="M64.4299 97.829C64.991 95.5701 64.8783 93.1957 64.1058 91.0004C63.3333 88.8052 61.935 86.886 60.0845 85.481C64.409 85.078 68.6231 83.8824 72.5175 81.9536C71.2903 84.0535 70.7368 86.4811 70.932 88.9073C71.1273 91.3335 72.0618 93.6407 73.6089 95.5158C72.0574 94.7294 70.2753 94.5304 68.5893 94.9552C66.9034 95.3801 65.4266 96.4004 64.4299 97.829Z" fill="#EB5569"/>
<path d="M32.4078 99.7593C31.9832 98.5338 31.9264 97.2101 32.2444 95.9525C32.5624 94.6948 33.2412 93.5584 34.1968 92.6839C34.8593 92.0737 35.6402 91.6071 36.4906 91.3133L36.7819 91.2227C38.3063 90.7721 39.9416 90.8877 41.3878 91.5484C42.8341 92.2092 43.9945 93.3707 44.6561 94.8201C44.7457 95.0106 44.8251 95.2057 44.8941 95.4046C45.1978 96.2325 45.3339 97.1127 45.2946 97.9939C45.2553 98.8752 45.0413 99.7397 44.6651 100.537C44.2889 101.334 43.7581 102.049 43.1037 102.638C42.4493 103.227 41.6843 103.679 40.8536 103.969C40.0229 104.258 39.143 104.379 38.2653 104.323C37.3877 104.267 36.5299 104.037 35.7421 103.645C34.9542 103.253 34.2522 102.708 33.6769 102.04C33.1016 101.373 32.6646 100.598 32.3914 99.7593H32.4078Z" fill="#EB5569"/>
<path d="M36.782 91.2227C38.4717 89.9287 39.7455 88.1655 40.445 86.1518C41.1446 84.1381 41.2392 81.9626 40.717 79.8955C44.0436 82.0879 47.7432 83.649 51.6318 84.5013C49.5542 85.2957 47.7705 86.7119 46.5227 88.5579C45.2748 90.4038 44.6232 92.59 44.6562 94.8201C43.9945 93.3707 42.8342 92.2091 41.3879 91.5484C39.9416 90.8877 38.3064 90.772 36.782 91.2227Z" fill="#EB5569"/>
<path d="M5.06339 66.3417C5.80575 64.8806 6.95917 63.6701 8.38071 62.8602C9.80226 62.0503 11.4295 61.6766 13.0607 61.7853C14.1941 61.8533 15.3009 62.1575 16.3105 62.6785C16.4295 62.7361 16.5403 62.8019 16.6511 62.8637C18.4006 63.8617 19.7324 65.4594 20.4018 67.3634C21.0712 69.2673 21.0332 71.3496 20.2948 73.2278C20.199 73.4765 20.0894 73.7197 19.9666 73.9563C19.4363 75.0085 18.6878 75.9348 17.7713 76.6729C16.2828 77.8861 14.4238 78.5492 12.5058 78.551C10.5879 78.5529 8.7276 77.8934 7.23676 76.683C5.74593 75.4727 4.71516 73.7851 4.31724 71.903C3.91931 70.021 4.1784 68.059 5.05108 66.3458L5.06339 66.3417Z" fill="#EB5569"/>
<path d="M16.6511 62.8596C19.3033 63.2698 22.0172 62.8902 24.4563 61.7678C26.8954 60.6454 28.9525 58.8297 30.3725 56.5457C31.2984 61.5015 33.1232 66.2449 35.7561 70.54C33.216 69.3423 30.3703 68.957 27.6046 69.4363C24.8389 69.9156 22.287 71.2364 20.2948 73.2196C21.0321 71.3419 21.0695 69.2606 20.4002 67.3576C19.7308 65.4545 18.3997 63.8575 16.6511 62.8596Z" fill="#EB5569"/>
<path d="M56.3915 70.9144C58.5353 70.9144 60.2732 69.1711 60.2732 67.0207C60.2732 64.8702 58.5353 63.127 56.3915 63.127C54.2477 63.127 52.5098 64.8702 52.5098 67.0207C52.5098 69.1711 54.2477 70.9144 56.3915 70.9144Z" fill="#EB5569"/>
<path d="M68.5744 58.2826C70.3171 58.2826 71.7298 56.8655 71.7298 55.1174C71.7298 53.3693 70.3171 51.9521 68.5744 51.9521C66.8317 51.9521 65.4189 53.3693 65.4189 55.1174C65.4189 56.8655 66.8317 58.2826 68.5744 58.2826Z" fill="#EB5569"/>
</g>
<defs>
<clipPath id="clip0_105_2323">
<rect width="167" height="154" fill="white"/>
</clipPath>
</defs>
</svg>
