<svg width="25" height="40" viewBox="0 0 25 40" fill="none" xmlns="http://www.w3.org/2000/svg">
<path fill-rule="evenodd" clip-rule="evenodd" d="M22.436 0.854531L24.936 8.35453C25.0214 8.61148 25.0214 8.88852 24.936 9.14547L22.436 16.6455C22.2657 17.1558 21.7884 17.5 21.25 17.5H17.5V21.25C17.5 21.9403 16.9404 22.5 16.25 22.5H13.75V23.2373C13.75 24.248 14.3561 25.1666 15.2576 25.5237C18.1385 26.6632 20 29.4012 20 32.4994C20.0007 34.4671 19.2108 36.3409 17.7759 37.7759C16.3416 39.2102 14.4678 40 12.4994 40C8.36434 40 5.00004 36.6358 5.00004 32.5C5.00004 31.8097 5.55973 31.25 6.25004 31.25C6.94035 31.25 7.50004 31.8097 7.50004 32.5C7.50004 35.257 9.74246 37.5 12.4994 37.5C13.8001 37.5 15.0464 36.9702 16.0083 36.0077C16.9703 35.0458 17.5 33.8 17.5 32.4994C17.5 30.434 16.2592 28.6078 14.3384 27.848C12.4909 27.1173 11.25 25.2643 11.25 23.2373V22.5H8.75004C8.05973 22.5 7.50004 21.9403 7.50004 21.25V17.5H5.00395H5.00004H4.99629H3.75004C3.21168 17.5 2.73441 17.1558 2.5641 16.6455L0.0641016 9.14555C-0.0213672 8.88859 -0.0213672 8.61148 0.0641016 8.35453L2.5641 0.854531C2.73441 0.344219 3.21168 0 3.75004 0H21.25C21.7884 0 22.2657 0.344219 22.436 0.854531ZM11.7344 15H14.0989L18.2657 2.5H15.9011L11.7344 15ZM6.73441 15L10.9011 2.5H13.2657L9.09895 15H6.73441ZM4.6509 2.5L2.56777 8.75L4.37496 14.172L8.26566 2.5H4.6509ZM15 20H10V17.5H10.0039H14.9963C14.9975 17.5 15 17.5006 15 17.5006V20ZM16.7344 15H20.3492L22.4323 8.75L20.6251 3.32797L16.7344 15Z" fill="#FF5145"/>
</svg>
