<svg width="31" height="38" viewBox="0 0 31 38" fill="none" xmlns="http://www.w3.org/2000/svg">
<path fill-rule="evenodd" clip-rule="evenodd" d="M5.96875 9.85938H29.0703C29.6484 9.85938 30.1094 10.3281 30.1172 10.8984V36.8906C30.1172 37.4609 29.6562 37.9297 29.0781 37.9297H5.96875C2.67969 37.9297 0 35.25 0 31.9609V5.96875C0 2.67969 2.67969 0 5.96875 0H29.0781C29.6484 0 30.1172 0.460938 30.1172 1.03906C30.1172 1.60938 29.6562 2.07812 29.0781 2.07812H5.96875C3.82031 2.07812 2.07812 3.82812 2.07812 5.96875C2.07812 8.11719 3.82812 9.85938 5.96875 9.85938ZM5.96875 35.8516H28.0312V11.9453H5.96875C4.48438 11.9453 3.125 11.3984 2.07812 10.5V31.9609C2.07812 34.1094 3.82812 35.8516 5.96875 35.8516Z" fill="#FF5145"/>
<path d="M6.29688 5.02344C5.71875 5.02344 5.25781 5.49219 5.25781 6.0625C5.25781 6.63281 5.72656 7.10156 6.29688 7.10156H25.8125C26.3906 7.10156 26.8516 6.63281 26.8516 6.0625C26.8516 5.49219 26.3828 5.02344 25.8125 5.02344H6.29688Z" fill="#FF5145"/>
<path fill-rule="evenodd" clip-rule="evenodd" d="M10.3047 31.3672C10.1875 31.3672 10.0703 31.3438 9.95315 31.3047C9.41409 31.1094 9.13284 30.5156 9.30471 29.9688L14.0547 16.6953C14.0625 16.6641 14.0781 16.6328 14.0938 16.6016L14.1172 16.5547L14.1406 16.5078C14.1446 16.5 14.1504 16.4922 14.1563 16.4844C14.1621 16.4766 14.168 16.4688 14.1719 16.4609C14.1758 16.457 14.1797 16.4512 14.1836 16.4453C14.1875 16.4395 14.1914 16.4336 14.1953 16.4297C14.2031 16.4219 14.209 16.4141 14.2149 16.4062C14.2207 16.3984 14.2266 16.3906 14.2344 16.3828C14.2453 16.3774 14.2524 16.3681 14.2583 16.3604C14.2609 16.357 14.2633 16.3539 14.2656 16.3516L14.3047 16.3125L14.3438 16.2734C14.3492 16.2625 14.3585 16.2554 14.3662 16.2495C14.3696 16.2469 14.3727 16.2446 14.375 16.2422C14.3828 16.2344 14.3906 16.2285 14.3985 16.2227C14.4063 16.2168 14.4141 16.2109 14.4219 16.2031C14.4258 16.1992 14.4317 16.1953 14.4375 16.1914C14.4434 16.1875 14.4492 16.1836 14.4531 16.1797C14.4679 16.1748 14.4795 16.1668 14.49 16.1596C14.4962 16.1553 14.502 16.1513 14.5078 16.1484L14.5547 16.125L14.6016 16.1016C14.6328 16.0859 14.6641 16.0703 14.6953 16.0625H14.7031C14.7266 16.0547 14.7578 16.0469 14.7891 16.0391C14.7969 16.0391 14.8028 16.0371 14.8086 16.0352C14.8145 16.0332 14.8203 16.0312 14.8281 16.0312C14.833 16.0296 14.8376 16.028 14.8419 16.0264C14.8584 16.0205 14.8721 16.0156 14.8906 16.0156C14.9063 16.0078 14.9219 16.0078 14.9375 16.0078C14.9531 16 14.9766 16 14.9922 16H15.0469H15.0938C15.1016 16 15.1114 16.002 15.1211 16.0039C15.1309 16.0059 15.1406 16.0078 15.1485 16.0078C15.1641 16.0156 15.1797 16.0156 15.1953 16.0156C15.2071 16.0195 15.2168 16.0215 15.2266 16.0234C15.2364 16.0254 15.2461 16.0273 15.2578 16.0312C15.2656 16.0312 15.2715 16.0332 15.2774 16.0352C15.2832 16.0371 15.2891 16.0391 15.2969 16.0391L15.3906 16.0625H15.3985C15.4297 16.0703 15.461 16.0859 15.4922 16.1016L15.5391 16.125L15.586 16.1484C15.5938 16.1523 15.6016 16.1582 15.6094 16.1641C15.6172 16.1699 15.625 16.1758 15.6328 16.1797C15.6367 16.1836 15.6426 16.1875 15.6485 16.1914C15.6543 16.1953 15.6602 16.1992 15.6641 16.2031C15.6719 16.2109 15.6797 16.2168 15.6875 16.2227C15.6953 16.2285 15.7031 16.2344 15.711 16.2422C15.7164 16.2531 15.7257 16.2602 15.7334 16.2661C15.7368 16.2687 15.7398 16.2711 15.7422 16.2734L15.7813 16.3125C15.7868 16.318 15.7923 16.3226 15.7975 16.3269C15.807 16.3346 15.8153 16.3415 15.8203 16.3516C15.8312 16.357 15.8383 16.3663 15.8443 16.374C15.8469 16.3774 15.8492 16.3804 15.8516 16.3828C15.8672 16.3984 15.8828 16.4141 15.8906 16.4297C15.8946 16.4336 15.8985 16.4395 15.9024 16.4453C15.9063 16.4512 15.9102 16.457 15.9141 16.4609C15.919 16.4756 15.927 16.4873 15.9342 16.4978C15.9384 16.504 15.9424 16.5098 15.9453 16.5156L15.9688 16.5625L15.9922 16.6094C16.0078 16.6406 16.0235 16.6719 16.0313 16.7031L20.7656 29.9766C20.961 30.5156 20.6797 31.1094 20.1406 31.3047C20.0235 31.3438 19.9063 31.3672 19.7891 31.3672C19.3672 31.3672 18.961 31.1016 18.8125 30.6797L17.5469 27.1328C17.5078 27.1406 17.461 27.1406 17.4219 27.1406H12.5469L11.2813 30.6797C11.1328 31.1016 10.7344 31.3672 10.3047 31.3672ZM16.8125 25.0625L15.0547 20.1406L13.2891 25.0625H16.8125Z" fill="#FF5145"/>
</svg>
