<svg width="40" height="36" viewBox="0 0 40 36" fill="none" xmlns="http://www.w3.org/2000/svg">
<path fill-rule="evenodd" clip-rule="evenodd" d="M28.6557 0C33.7332 0 38.2258 3.70747 39.5811 9.01576C40.3061 11.8558 40.4466 16.3941 36.9974 21.8844C33.8112 26.9563 28.291 31.6547 20.5899 35.8488C20.405 35.9495 20.2008 36 19.9965 36C19.7921 36 19.588 35.9495 19.4029 35.8488C11.7042 31.6548 6.18542 26.9565 3.0005 21.8844C-0.447018 16.3941 -0.30605 11.8558 0.419283 9.01543C1.77476 3.7073 6.26624 0 11.3417 0C14.6805 0 17.7005 1.60231 19.997 4.55326C22.2948 1.60264 25.3161 0 28.6557 0ZM2.82136 9.62721C2.07339 12.5559 1.13238 22.8513 19.9967 33.3489C38.8664 22.8505 37.9267 12.5557 37.1791 9.62721C36.1039 5.41639 32.599 2.4755 28.6557 2.4755C25.6744 2.4755 22.9755 4.21693 21.0566 7.37896C20.8321 7.74913 20.4301 7.97523 19.9967 7.97523H19.9965C19.563 7.97523 19.1611 7.74897 18.9365 7.37863C17.0193 4.21693 14.3221 2.4755 11.3419 2.4755C7.40043 2.4755 3.89672 5.41639 2.82136 9.62721Z" fill="#FF5145"/>
<path d="M32.7443 18.8097H27.1003L25.0008 10.9402C24.8528 10.3853 24.3558 10 23.7885 10C23.7883 10 23.788 10 23.7877 10C23.2198 10.0003 22.723 10.3865 22.5756 10.9419L19.6883 21.8261L16.8009 10.9419C16.6549 10.3914 16.1651 10.0066 15.6023 10C15.5976 10 15.5928 10 15.5879 10C15.0311 10 14.54 10.3717 14.3829 10.9141L12.9214 15.963H7.25588C6.5623 15.963 6 16.5323 6 17.2349C6 17.9375 6.5623 18.5068 7.25588 18.5068H13.862C14.4196 18.5068 14.9102 18.1346 15.0671 17.5927L15.5353 15.9752L18.4754 27.0581C18.6228 27.6137 19.1203 28 19.6883 28C20.2565 28 20.7538 27.6138 20.9011 27.0581L23.7918 16.1612L24.9263 20.4135C25.0744 20.9683 25.5712 21.3537 26.1387 21.3537H32.7441C33.4377 21.3537 34 20.7844 34 20.0818C34.0002 19.3792 33.438 18.8097 32.7443 18.8097Z" fill="#FF5145"/>
</svg>
