<svg width="40" height="40" viewBox="0 0 40 40" fill="none" xmlns="http://www.w3.org/2000/svg" id="icon">
<path fill-rule="evenodd" clip-rule="evenodd" d="M37.8537 22.8426C37.8952 23.3811 37.9181 23.6779 38.5889 24.3488L40 25.7598L17.2648 34.2044L13.8404 37.6285C10.6782 40.7906 5.5334 40.7905 2.37145 37.6286C-0.790508 34.4666 -0.790508 29.3216 2.3716 26.1596L5.79566 22.7355L14.2401 0L15.6512 1.41094C16.3225 2.08219 16.6192 2.10508 17.1581 2.14656C18.0963 2.21883 19.0408 2.38609 20.2793 3.62453C21.5361 4.88148 21.8071 5.96477 22.0246 6.83523L22.0248 6.83572C22.2085 7.57031 22.3413 8.10102 23.0964 8.85617C23.8518 9.61141 24.3826 9.7443 25.1175 9.92797C25.9879 10.1455 27.0711 10.4165 28.3277 11.6731C29.5846 12.9298 29.8555 14.0133 30.0731 14.8836L30.0731 14.8837C30.2568 15.6185 30.3895 16.1493 31.1447 16.9045C31.8998 17.6597 32.4307 17.7924 33.1654 17.9759L33.1658 17.976C34.0362 18.1938 35.1192 18.4646 36.3757 19.7211C37.6142 20.9595 37.7815 21.9041 37.8537 22.8421L37.8537 22.8426ZM3.38363 28.9826C2.06535 31.1208 2.33059 33.9659 4.1823 35.8176C6.03402 37.6695 8.87926 37.9348 11.0175 36.6165L3.38363 28.9826ZM12.935 34.9123L5.08785 27.065L6.89871 25.2543L14.7459 33.1014L12.935 34.9123ZM8.38496 23.1188L16.8809 31.6148L35.6665 24.6371C35.408 24.0707 35.3397 23.5534 35.3 23.0384C35.2587 22.4998 35.2357 22.203 34.5648 21.532C33.8095 20.7768 33.2788 20.6441 32.5442 20.4604L32.544 20.4604C31.6736 20.2428 30.5904 19.9719 29.3336 18.7152C28.0769 17.4584 27.8061 16.3752 27.5885 15.5047L27.5883 15.5038C27.4045 14.7696 27.2718 14.2389 26.5168 13.4839C25.7615 12.7286 25.2307 12.5959 24.4959 12.4123C23.6256 12.1946 22.5422 11.9237 21.2854 10.6669C20.0286 9.41016 19.7577 8.3268 19.5401 7.45641L19.54 7.45585C19.3562 6.72129 19.2234 6.19051 18.4683 5.43531C17.7971 4.7643 17.5004 4.74141 16.9615 4.70008C16.4464 4.66031 15.9293 4.59203 15.3624 4.33313L8.38496 23.1188Z" fill="#FF5145"/>
</svg>
