<svg width="40" height="40" viewBox="0 0 40 40" fill="none" xmlns="http://www.w3.org/2000/svg">
<path fill-rule="evenodd" clip-rule="evenodd" d="M38.7487 19.7334C37.4113 18.6312 35.2974 18.5367 33.91 20.0256L30.4657 23.7231C30.0204 22.2919 28.6838 21.2498 27.1081 21.2498H20.9616C20.5575 21.2498 20.3863 21.116 19.8208 20.6743L19.8207 20.6743C19.7336 20.6062 19.6371 20.5308 19.5289 20.4475C16.44 17.7547 11.8005 17.7633 8.72094 20.4733L6.46172 22.4622C5.44617 21.9247 4.26031 21.9114 3.23922 22.4216L0.647969 23.7168C0.0690631 24.0067 -0.165234 24.7105 0.123751 25.2894L7.15461 39.351C7.44445 39.9299 8.14828 40.1642 8.72719 39.8752L11.3184 38.5792C12.5957 37.941 13.3066 36.6379 13.2605 35.3115H27.108C29.6759 35.3115 32.1296 34.085 33.6702 32.0305L39.2956 24.5294C40.387 23.0755 40.2143 20.9435 38.7487 19.7334ZM10.27 36.4832L8.72711 37.255L2.74391 25.2894L4.28758 24.5176C4.86648 24.2285 5.56953 24.4621 5.85938 25.0418L10.7942 34.9115C11.0833 35.4903 10.8489 36.1934 10.27 36.4832ZM31.7953 30.6242L37.4207 23.1231C37.7778 22.6481 37.7277 21.9536 37.2637 21.5474C36.82 21.1592 36.0966 21.117 35.6248 21.6232L30.4657 27.1612C29.8033 27.8728 28.8658 28.2806 27.8932 28.2806H21.1233C20.4765 28.2806 19.9515 27.7556 19.9515 27.1088C19.9515 26.462 20.4764 25.937 21.1233 25.937H27.108C27.7541 25.937 28.2798 25.4113 28.2798 24.7652C28.2798 24.1192 27.7541 23.5934 27.108 23.5934H20.9616C20.1194 23.5934 19.3109 23.377 18.0109 22.2326C15.8041 20.2913 12.4761 20.2913 10.2692 22.2326L8.05141 24.1848L12.4426 32.9678H27.1081C28.9423 32.9678 30.6946 32.0921 31.7953 30.6242Z" fill="#FF5145"/>
<path fill-rule="evenodd" clip-rule="evenodd" d="M24.6394 7.99738C25.4417 7.15605 25.9362 6.01863 25.9362 4.76629C25.9362 2.18676 23.852 0.000976562 21.249 0.000976562C18.6656 0.000976562 16.4837 2.18285 16.4837 4.76629C16.4837 5.98027 16.9595 7.12629 17.8235 8.00676C15.6807 9.20824 14.1401 11.5143 14.1401 14.2189V15.3907C14.1401 16.0375 14.6651 16.5625 15.3119 16.5625H27.1081C27.7549 16.5625 28.2799 16.0375 28.2799 15.3907V14.2189C28.2798 11.5675 26.8215 9.22543 24.6394 7.99738ZM21.249 2.34465C22.5193 2.34465 23.5926 3.45395 23.5926 4.76637C23.5926 6.05848 22.5412 7.10996 21.249 7.10996C19.9366 7.10996 18.8273 6.0366 18.8273 4.76637C18.8273 3.4766 19.9593 2.34465 21.249 2.34465ZM21.249 9.45356C18.6656 9.45356 16.4837 11.6354 16.4837 14.2189H25.9362C25.9362 11.5909 23.8333 9.45356 21.249 9.45356Z" fill="#FF5145"/>
</svg>
