<svg width="40" height="40" viewBox="0 0 40 40" fill="none" xmlns="http://www.w3.org/2000/svg">
<path fill-rule="evenodd" clip-rule="evenodd" d="M35.8878 3.55835H35.9656C38.1903 3.55835 40 5.36804 40 7.59247V12.6126C40 13.2764 39.462 13.8144 38.7982 13.8144H35.9137L35.9134 31.1545C35.9134 33.078 34.5508 34.6884 32.7405 35.0732V36.2668C32.7405 38.114 31.2378 39.6167 29.3906 39.6167H25.4355C23.5883 39.6167 22.0856 38.114 22.0856 36.2668V35.1611H18.187V36.2668C18.187 38.114 16.684 39.6167 14.837 39.6167H10.882C9.03473 39.6167 7.53174 38.114 7.53174 36.2668V35.1212C5.58746 34.8471 4.08661 33.1732 4.08661 31.1545V13.8147H1.20178C0.538025 13.8147 0 13.2764 0 12.6126V7.59247C0 5.36804 1.80969 3.55835 4.03442 3.55835H4.11224C4.33594 1.55945 6.03546 0 8.09296 0H31.907C33.9645 0 35.6641 1.55945 35.8878 3.55835ZM33.5092 4.00665C33.5092 3.12286 32.7902 2.40387 31.9067 2.40387H21.2021V17.1799H33.5092V4.00665ZM6.49048 4.00665C6.49048 3.12286 7.20947 2.40387 8.09296 2.40387H18.7979V17.1799H6.49048V4.00665ZM2.40387 7.59247V11.4108H4.08661V5.96191H4.03442C3.13538 5.96191 2.40387 6.69342 2.40387 7.59247ZM15.7831 36.2668C15.7831 36.7883 15.3586 37.2128 14.8367 37.2128H10.8817C10.3601 37.2128 9.93561 36.7886 9.93561 36.2668V35.1611H15.7831V36.2668ZM29.3903 37.2128C29.9121 37.2128 30.3366 36.7883 30.3366 36.2668V35.1611H24.4891V36.2668C24.4891 36.7886 24.9136 37.2128 25.4355 37.2128H29.3903ZM31.9067 32.7573H8.09296C7.20947 32.7573 6.49048 32.0383 6.49048 31.1545V19.5837H33.5092V31.1545C33.5095 32.0383 32.7905 32.7573 31.9067 32.7573ZM35.9134 11.4108H37.5961V7.59247C37.5961 6.69342 36.8646 5.96191 35.9656 5.96191H35.9134V11.4108Z" fill="#FF5145"/>
</svg>
