<svg width="270" height="270" viewBox="0 0 270 270" fill="none" xmlns="http://www.w3.org/2000/svg">
<path opacity="0.2" d="M135.7 254.6C175.078 254.6 207 251.869 207 248.5C207 245.131 175.078 242.4 135.7 242.4C96.322 242.4 64.3999 245.131 64.3999 248.5C64.3999 251.869 96.322 254.6 135.7 254.6Z" fill="black"/>
<path opacity="0.15" d="M194.4 160.7C176.2 129.9 270.1 123.5 236.2 67.5001C207.7 20.3001 96.5001 -7.59991 45.2001 70.9001C-3.49993 145.3 32.6001 221.4 93.5001 240.1C154.4 258.8 247.6 250.9 194.4 160.7Z" fill="white"/>
<path fill-rule="evenodd" clip-rule="evenodd" d="M53.6001 159.4H123.3V101.4H53.6001V159.4Z" fill="#1A282B"/>
<path fill-rule="evenodd" clip-rule="evenodd" d="M53.6001 153.4H119.4V109.3H53.6001V153.4ZM112 153.4H114.3V116.8H84.9001V153.4H112ZM61.6001 147.3H80.3001V116.9H61.6001V147.3Z" fill="#B7BCB9"/>
<path fill-rule="evenodd" clip-rule="evenodd" d="M84.9001 153.4H114.3V116.8H84.9001V153.4Z" fill="#426AA5"/>
<path fill-rule="evenodd" clip-rule="evenodd" d="M61.6001 147.3H80.3001V116.9H61.6001V147.3Z" fill="#426AA5"/>
<path fill-rule="evenodd" clip-rule="evenodd" d="M78.7 145.6H72.2L78.7 121.1V145.6ZM65.7 145.6H63.3V118.6H78.6H73L65.7 145.6Z" fill="#C0D2E3"/>
<path fill-rule="evenodd" clip-rule="evenodd" d="M72.1002 145.6H65.7002L72.9002 118.6H78.6002V121.1L72.1002 145.6Z" fill="#E0EAF1"/>
<path fill-rule="evenodd" clip-rule="evenodd" d="M87.2002 153.4H98.5002V119.2H87.2002V153.4Z" fill="#C0D2E3"/>
<path fill-rule="evenodd" clip-rule="evenodd" d="M100.7 153.4H112V119.2H100.7V153.4Z" fill="#C0D2E3"/>
<path fill-rule="evenodd" clip-rule="evenodd" d="M63.1001 102.2H121.6V74.9001H63.1001V102.2Z" fill="#1A282B"/>
<path fill-rule="evenodd" clip-rule="evenodd" d="M63.1001 93.5H119.4V81.5H63.1001V93.5ZM93.7001 91.7H112.4V83.5H93.7001V91.7ZM73.2001 91.7H92.0001V83.5H73.2001V91.7Z" fill="#B7BCB9"/>
<path fill-rule="evenodd" clip-rule="evenodd" d="M73.2002 91.7H92.0002V83.5H73.2002V91.7Z" fill="#426AA5"/>
<path fill-rule="evenodd" clip-rule="evenodd" d="M90.3 90.0002H85.2L86.5 85.2002H80L78.8 90.0002H75V85.2002H90.3V90.0002Z" fill="#C0D2E3"/>
<path fill-rule="evenodd" clip-rule="evenodd" d="M93.7002 91.7H112.4V83.5H93.7002V91.7Z" fill="#426AA5"/>
<path fill-rule="evenodd" clip-rule="evenodd" d="M110.8 90.0002H105.7L107 85.2002H100.6L99.3 90.0002H95.5V85.2002H110.8V90.0002Z" fill="#C0D2E3"/>
<path fill-rule="evenodd" clip-rule="evenodd" d="M85.1002 90.0002H78.7002L80.0002 85.2002H86.4002L85.1002 90.0002Z" fill="#E0EAF1"/>
<path fill-rule="evenodd" clip-rule="evenodd" d="M105.7 90.0002H99.3L100.6 85.2002H107L105.7 90.0002Z" fill="#E0EAF1"/>
<path fill-rule="evenodd" clip-rule="evenodd" d="M138.3 109.3H44.6001L52.8001 93.5H136L138.3 109.3Z" fill="#426AA5"/>
<path fill-rule="evenodd" clip-rule="evenodd" d="M119.4 109.3H44.6001L52.8001 93.5H119.4V109.3Z" fill="#0B2D50"/>
<path fill-rule="evenodd" clip-rule="evenodd" d="M124.6 81.6001H57L62.3 71.4001H123.1L124.6 81.6001Z" fill="#426AA5"/>
<path fill-rule="evenodd" clip-rule="evenodd" d="M119.4 81.6001H57L62.3 71.4001H119.4V81.6001Z" fill="#0B2D50"/>
<path fill-rule="evenodd" clip-rule="evenodd" d="M44.6001 159.4H119.4V153.4H44.6001V159.4Z" fill="#8A9392"/>
<path fill-rule="evenodd" clip-rule="evenodd" d="M119.4 59.5V106.2H206.1V59.5L162.8 36.5L119.4 59.5Z" fill="#426AA5"/>
<path fill-rule="evenodd" clip-rule="evenodd" d="M119.4 106.2V59.5L162.7 36.5L206 59.5V102.2H119.3V106.2H119.4ZM130.2 92.9H195.4V64.3L162.8 46.2L130.2 64.3V92.9Z" fill="#98B3D3"/>
<path fill-rule="evenodd" clip-rule="evenodd" d="M119.4 159.4H206.1V102.2H119.4V159.4Z" fill="#426AA5"/>
<path fill-rule="evenodd" clip-rule="evenodd" d="M206.1 159.4H197.7V116H127.9V159.4H119.5V102.2H206.2V159.4H206.1Z" fill="#98B3D3"/>
<path fill-rule="evenodd" clip-rule="evenodd" d="M195.3 92.9002H130.1V64.3002L162.7 46.2002L195.3 64.3002V92.9002Z" fill="#426AA5"/>
<path fill-rule="evenodd" clip-rule="evenodd" d="M195.3 92.9002H130.1V64.3002L162.7 46.2002L195.3 64.3002V92.9002ZM163.6 87.1002H182.3V68.3002H163.6V87.1002ZM143.1 87.1002H161.8V68.3002H143.1V87.1002Z" fill="#D5E3ED"/>
<path fill-rule="evenodd" clip-rule="evenodd" d="M143.1 87.1H161.8V68.3H143.1V87.1Z" fill="#426AA5"/>
<path fill-rule="evenodd" clip-rule="evenodd" d="M160.1 85.4H153.6L157.7 70.1H151.3L147.2 85.4H144.8V70H160.1V85.4Z" fill="#C0D2E3"/>
<path fill-rule="evenodd" clip-rule="evenodd" d="M163.6 87.1H182.3V68.3H163.6V87.1Z" fill="#426AA5"/>
<path fill-rule="evenodd" clip-rule="evenodd" d="M180.7 85.4H174.2L178.3 70.1H171.9L167.8 85.4H165.4V70H180.7V85.4Z" fill="#C0D2E3"/>
<path fill-rule="evenodd" clip-rule="evenodd" d="M127.8 159.4H197.6V116H127.8V159.4Z" fill="#1A282B"/>
<path fill-rule="evenodd" clip-rule="evenodd" d="M197.7 159.4H195.4V118.4H184V159.4H181.8V118.4H170.5V159.4H168.3V118.4H157V159.4H154.8V118.4H143.5V159.4H141.3V118.4H130V159.4H127.7V116H197.5V159.4H197.7Z" fill="#606A6B"/>
<path fill-rule="evenodd" clip-rule="evenodd" d="M153.6 85.4001H147.2L151.3 70.1001H157.7L153.6 85.4001Z" fill="#E0EAF1"/>
<path fill-rule="evenodd" clip-rule="evenodd" d="M174.1 85.4001H167.7L171.8 70.1001H178.2L174.1 85.4001Z" fill="#E0EAF1"/>
<path fill-rule="evenodd" clip-rule="evenodd" d="M214.3 68.8001L162.7 40.7001L111.1 68.8001L108.3 63.7001L162.7 34.1001L217.1 63.7001L214.3 68.8001Z" fill="#0E3C66"/>
<path fill-rule="evenodd" clip-rule="evenodd" d="M209.6 109.3H115.9L118.2 98.2002H207.2L209.6 109.3Z" fill="#0E3C66"/>
<path fill-rule="evenodd" clip-rule="evenodd" d="M198.2 68.3002L162.7 49.0002L127.3 68.3002L125.1 64.2002L162.8 43.7002L200.5 64.2002L198.2 68.3002Z" fill="#0E3C66"/>
<path fill-rule="evenodd" clip-rule="evenodd" d="M130.2 159.4H141.5V118.4H130.2V159.4Z" fill="#AEB3B1"/>
<path fill-rule="evenodd" clip-rule="evenodd" d="M143.6 159.4H154.9V118.4H143.6V159.4Z" fill="#AEB3B1"/>
<path fill-rule="evenodd" clip-rule="evenodd" d="M157.1 159.4H168.4V118.4H157.1V159.4Z" fill="#AEB3B1"/>
<path fill-rule="evenodd" clip-rule="evenodd" d="M170.6 159.4H181.9V118.4H170.6V159.4Z" fill="#AEB3B1"/>
<path fill-rule="evenodd" clip-rule="evenodd" d="M184 159.4H195.3V118.4H184V159.4Z" fill="#AEB3B1"/>
<path d="M71.6999 213.2C71.6999 213.2 66.6999 211.3 66.7999 209.1C66.8999 206.9 67.6999 206.2 66.2999 205C64.8999 203.8 61.4999 203.8 60.9999 201.2C60.4999 198.6 61.5999 197.7 60.3999 195.7C59.2999 193.7 55.3999 193 55.3999 189.6C55.3999 186.2 57.2999 187.9 56.9999 185.2C56.6999 182.5 51.6999 181.6 52.1999 178C52.7999 174.4 55.0999 175.8 55.1999 173.5C55.2999 171.1 54.1999 169.2 56.5999 168C58.9999 166.8 60.6999 170.4 63.4999 170.4C66.2999 170.4 68.1999 169.4 69.1999 170.7C70.1999 172 69.6999 175.8 71.6999 177.3C73.6999 178.8 76.1999 179.2 76.3999 182C76.5999 184.8 75.9999 188.5 77.2999 190.1C78.5999 191.7 81.4999 193.3 80.9999 196.8C80.4999 200.3 79.6999 202.5 81.0999 203.8C82.3999 205.1 83.1999 206.5 82.3999 209.1C81.5999 211.7 80.9999 213.4 80.9999 213.4H71.6999V213.2Z" fill="#4274BC"/>
<path d="M72.5001 179.1C74.0001 177.3 74.7001 176.5 73.8001 173.9C72.9001 171.3 70.6001 166 73.2001 163.2C75.7001 160.4 77.2001 160.9 77.4001 156.9C77.6001 152.9 77.1001 148.1 81.7001 148C86.3001 147.9 87.0001 147.4 88.6001 145.4C90.2001 143.4 92.1001 141.8 94.8001 142.6C97.5001 143.3 98.1001 145.5 98.0001 147.6C97.9001 149.6 98.7001 151.4 101 152.3C103.3 153.2 104 155.4 102.6 158.6C101.2 161.8 97.8001 164.2 99.7001 167.2C101.6 170.2 103.4 171.8 101.4 174.7C99.4001 177.6 96.6001 179.5 97.4001 184.2C98.2001 188.9 97.4001 189.9 95.2001 191.6C93.0001 193.3 90.4001 194.8 91.2001 197.8C92.0001 200.8 92.8001 201.8 90.2001 203.7C87.6001 205.7 83.4001 209.9 81.2001 213.9C79.0001 217.9 72.6001 205.6 72.6001 205.6L72.5001 179.1Z" fill="#4274BC"/>
<path d="M113.8 170.6C113.8 170.6 112.2 169.1 113.3 167.1C114.4 165.2 115.9 163.6 114.9 160.4C113.9 157.2 112.3 154.9 115.2 151.6C118.1 148.3 119.1 148.3 119.2 145.1C119.3 141.9 115.5 142.4 116.5 135.9C117.5 129.4 122 127.2 125.1 125.3C128.2 123.4 129.8 123.3 129.8 123.3C129.8 123.3 134 118.6 140.5 119.5C147 120.4 152.8 123.9 155.4 129.9C157.9 135.9 155 141 159.1 144.6C163.2 148.2 165 146.7 164.7 152C164.4 157.3 164.3 157.9 167.6 161.8C170.9 165.7 172.5 171.4 169.8 175.3C167.1 179.2 159.6 182.3 159.6 182.3L113.8 170.6Z" fill="#0B2D50"/>
<path d="M85 242.5H70.1L66.5 219.5H63.8V213.2H91.3001V219.6H88.6L85 242.5Z" fill="#EFB127"/>
<path d="M142 249.3C142 249.3 146 250.9 150.6 250.9C155.2 250.9 159 247.4 159 244.8C159 242.2 157.6 239.8 157.6 239.8L142 249.3Z" fill="#7E26A3"/>
<path d="M126 241.5L124.5 244.4C124.5 244.4 131 247.6 137.3 248.7C143.6 249.9 148.6 249.7 149.1 245.1C149.6 240.5 135.4 241.3 135.4 241.3L127.8 237.5L126 241.5Z" fill="#C9877F"/>
<path d="M135.2 241.3L127.9 237.5L126.1 241.6C126.1 241.6 133.3 249.7 111.7 242.5C90.2 235.3 85.9 231.3 82.1 227.7C78.3 224.1 78.9 214.9 87.5 214.9C96.1 214.9 106.8 217.6 106.8 217.6L162.9 217.4C162.9 217.4 174.5 212.9 183.5 214.5C191.9 216 192.2 224 188.3 227.6C184.4 231.2 180.2 235.3 158.7 242.4C152.7 244.4 149.4 245.4 146.4 245.9C145.1 243.2 142.5 237.5 142.5 237.5L135.6 241.2H135.2V241.3Z" fill="#0A2D4D"/>
<path d="M123.5 240.7C123.5 240.7 120.6 239.4 117 239.4C113.4 239.4 111 240.9 111 244.7C111 248.5 115.3 251 120.2 251C125.1 251 129.5 248.9 129.5 248.9L123.5 240.7Z" fill="#7E26A3"/>
<path d="M99.1 199.8C99.1 199.8 98.2 203.6 100 207.8C101.8 212 102.4 214.3 109.8 222.6C120.9 223.4 108.3 198.8 108.3 198.8L99.1 199.8Z" fill="#F8A07A"/>
<path d="M171 199.8C171 199.8 171.9 203.6 170.1 207.8C168.3 212 167.7 214.3 160.3 222.6C149.2 223.4 161.8 198.8 161.8 198.8L171 199.8Z" fill="#F8A07A"/>
<path d="M126.4 148.6C126.4 148.6 125.1 154.2 123.4 156.7C121.7 159.2 120.9 162.7 121.2 165.4C121.5 168.1 147.5 168.5 150.6 168.7C153.7 168.9 154 161.9 152.3 158.8C150.6 155.7 147.3 155 146 148.5C144.7 142 126.4 148.6 126.4 148.6Z" fill="#061429"/>
<path d="M130.6 161.3C130.6 161.3 122.9 162.6 119 163.5C115.1 164.4 113.1 169.4 111.1 173.1C109 176.8 101.4 190.8 100 193.4C98.7 196 98.3 200.4 98.3 200.4L111 202.2L117.4 189.2L121.8 199.2H150.3L153.1 189.5L159.2 202.5L172.2 200.2C172.2 200.2 172.1 198.7 170.8 195C169.5 191.3 160.6 176.1 158.3 171.5C156 166.9 154.3 164.7 151.3 163.8C148.3 162.9 142.3 161.6 142.3 161.6L130.6 161.3Z" fill="#7E26A3"/>
<path d="M140.6 155C140.6 155 140.1 158.4 141.1 160C142.1 161.6 143.3 162.8 143.3 166C143.3 169.2 140.2 171.8 135.7 171.8H135.5C131 171.8 128 169.3 128 166C128 162.7 129.3 161.6 130.2 160C131.2 158.4 130.7 155 130.7 155H140.6Z" fill="#FBA27A"/>
<path d="M126 241.5C126 241.5 124.9 241.3 123.8 240.8C122.7 240.3 120.8 241.2 120.8 244.4C120.8 247.6 122.9 249.9 127.6 249.4C132.4 248.9 133.7 248.6 137.2 248.3C140.7 248 146.1 245.9 146.1 245.9L142.2 237.5L135.3 241.2C134 241.7 134.2 241.6 132.7 241.6C131.4 241.7 126 241.5 126 241.5Z" fill="#FF9A87"/>
<path d="M130.8 155.3C130.8 155.3 131.9 159.9 135.7 159.9C139.5 159.9 140.6 155.3 140.6 155.3H130.8Z" fill="#E0785B"/>
<path d="M136.5 157.8C140.8 157.1 143.5 153.7 145.3 149.9C147.3 145.5 145.7 141.5 144.6 140.6C143.5 139.7 141.7 139.6 137.9 137.5C134.1 135.4 132.1 134.7 131.5 133.2C130.9 131.7 130.6 131.2 130 131.2C129 131.2 129.6 131.8 128.1 133C126.6 134.2 124.3 134.6 124.3 140.4C124.3 146.2 127.1 156.5 135.1 157.8H136.5Z" fill="#FBA27A"/>
<path d="M135 233H119.9L109.9 227.1C109.9 227.1 106.9 196.6 106.7 194.5C106.6 193.2 107.2 191.9 108.5 191.9C109.8 191.9 133.1 191.9 133.1 191.9H137.3C137.3 191.9 160.5 191.9 161.9 191.9C163.2 191.9 163.8 193.2 163.7 194.5C163.5 196.6 160.5 227.1 160.5 227.1L150.5 233H135.4H135Z" fill="#FEFEFE"/>
<path d="M163.6 193.4C163.4 192.6 162.8 191.9 161.9 191.9C160.6 191.9 137.3 191.9 137.3 191.9H133.1C133.1 191.9 109.9 191.9 108.5 191.9C107.6 191.9 107 192.6 106.8 193.4H163.6Z" fill="#B3D5CE"/>
<path d="M135.2 215.4C137.022 215.4 138.5 213.923 138.5 212.1C138.5 210.278 137.022 208.8 135.2 208.8C133.377 208.8 131.9 210.278 131.9 212.1C131.9 213.923 133.377 215.4 135.2 215.4Z" fill="#B2D4CD"/>
<path d="M203.3 242.2H197.4C195.6 242.2 194.1 240.7 194.1 238.9V224.3H206.7V238.9C206.6 240.7 205.1 242.2 203.3 242.2Z" fill="#FFC63C"/>
<path d="M207 239.5C204 239.5 201.5 237 201.5 234C201.5 231 204 228.5 207 228.5C210 228.5 212.5 231 212.5 234C212.5 237 210 239.5 207 239.5ZM207 230.5C205.1 230.5 203.5 232.1 203.5 234C203.5 235.9 205.1 237.5 207 237.5C208.9 237.5 210.5 235.9 210.5 234C210.5 232.1 208.9 230.5 207 230.5Z" fill="#FFC63C"/>
</svg>
