<svg width="24" height="24" viewBox="0 0 24 24" fill="none" xmlns="http://www.w3.org/2000/svg">
<path fill-rule="evenodd" clip-rule="evenodd" d="M4.92188 0H19.0781C21.792 0 24 2.20795 24 4.92188V19.0781C24 21.792 21.792 24 19.0781 24H4.92188C2.20795 24 0 21.792 0 19.0781V4.92188C0 2.20795 2.20795 0 4.92188 0ZM19.0781 22.5938C21.0166 22.5938 22.5938 21.0166 22.5938 19.0781V4.92188C22.5938 2.98336 21.0166 1.40625 19.0781 1.40625H4.92188C2.98336 1.40625 1.40625 2.98336 1.40625 4.92188V19.0781C1.40625 21.0166 2.98336 22.5938 4.92188 22.5938H19.0781Z" fill="black"/>
<path d="M14.3272 5.79046C14.2461 5.48811 14.0522 5.23536 13.7812 5.07889C13.2217 4.75583 12.5035 4.94816 12.1804 5.50785L12 5.82022L11.8196 5.5078C11.4965 4.94825 10.7784 4.75583 10.2188 5.07885H10.2188C9.6592 5.40196 9.46683 6.12003 9.78989 6.67968L10.6468 8.16393L7.48491 13.6406H5.17969C4.53352 13.6406 4.00781 14.1663 4.00781 14.8124C4.00781 15.4586 4.53352 15.9843 5.17969 15.9843H14.0794L12.7262 13.6406H10.1912L14.2101 6.67972C14.3666 6.40864 14.4082 6.0928 14.3272 5.79046Z" fill="black"/>
<path d="M18.8203 13.6407H16.515L13.8944 9.10156L12.5413 11.4453L16.6102 18.4929C16.7667 18.764 17.0194 18.9579 17.3218 19.039C17.4228 19.066 17.5252 19.0794 17.627 19.0794C17.8301 19.0794 18.0305 19.0262 18.2111 18.9219C18.7707 18.5988 18.9631 17.8806 18.64 17.3211L17.8682 15.9844H18.8203C19.4664 15.9844 19.9921 15.4587 19.9921 14.8125C19.9921 14.1664 19.4664 13.6407 18.8203 13.6407Z" fill="black"/>
<path d="M5.59061 16.9219L5.36012 17.3211C5.03706 17.8807 5.22948 18.5988 5.78908 18.9218C5.97316 19.0281 6.17434 19.0786 6.37305 19.0786C6.77833 19.0786 7.17306 18.8684 7.3899 18.4929L8.29694 16.9219H5.59061Z" fill="black"/>
</svg>
