<svg width="22" height="24" viewBox="0 0 22 24" fill="none" xmlns="http://www.w3.org/2000/svg">
<path fill-rule="evenodd" clip-rule="evenodd" d="M0.0622653 21.3542C0.0622653 22.0764 0.364086 22.7368 0.752569 23.1034C1.10519 23.5875 1.93395 23.969 2.6641 23.969C3.09542 23.969 3.53072 23.8614 3.93016 23.6403L15.8107 17.0002C15.8211 16.9942 15.8285 16.9861 15.8359 16.978L15.8359 16.978C15.8419 16.9714 15.8479 16.9648 15.8556 16.9594C16.235 16.7918 16.7994 16.4693 17.7085 15.95C18.4365 15.5341 19.3856 14.9919 20.6379 14.3017H20.6389C22.4199 13.3027 22.4219 10.7307 20.6379 9.72961C19.044 8.9158 17.9447 8.25454 17.1559 7.78003C16.6384 7.46871 16.2545 7.23777 15.9522 7.09689C15.4802 6.76218 14.5801 6.27025 13.0131 5.41383L13.0131 5.41382C11.9312 4.82257 10.5315 4.0576 8.73539 3.0507L8.32637 2.8215C3.10877 -0.102752 2.25408 -0.581768 0.944818 0.716814C-0.0215053 1.11627 -0.0040962 3.06804 0.0524855 9.41151C0.0787263 12.3534 0.113392 16.2399 0.0622653 21.3542ZM10.2993 11.9928C10.2176 12.0728 4.57098 18.1089 2.39644 20.4334L1.55643 21.3313C1.64331 12.6359 1.57975 8.35718 1.54365 5.92709C1.51891 4.26162 1.50706 3.46449 1.56539 2.70903C1.65803 2.80864 9.96259 11.67 10.2993 11.9928ZM11.4058 13.1507C11.3394 13.2269 10.5964 14.0071 6.55826 18.2471L2.53859 22.4678C2.93882 22.5148 2.97651 22.4934 5.45276 21.0858C7.07489 20.1637 9.74345 18.6467 14.2459 16.1645C14.3618 16.2872 13.2888 15.1487 12.4256 14.2329L12.4225 14.2295L11.4058 13.1507ZM11.4045 13.1494C11.4083 13.1458 11.4107 13.1438 11.411 13.144C11.4112 13.1442 11.4096 13.1463 11.4058 13.1507L11.4045 13.1494ZM11.4045 13.1494C11.3983 13.155 11.3883 13.1646 11.3774 13.175C11.3327 13.2177 11.2726 13.2753 11.395 13.1393L11.4045 13.1494ZM19.9077 12.9978L15.5906 15.4124L12.3891 12.0157L15.5906 8.61895L19.9077 11.0335C20.6728 11.4608 20.6718 12.5705 19.9077 12.9978ZM13.5196 8.63702C13.6494 8.49717 13.7925 8.34297 14.2429 7.86987C11.7346 6.47973 9.71356 5.3284 8.09591 4.40685C4.82552 2.54375 3.20372 1.61983 2.5366 1.56052L11.3482 10.91C13.1035 9.08543 13.2909 8.88351 13.5196 8.63702Z" fill="black"/>
</svg>
