<svg width="621" height="599" viewBox="0 0 621 599" fill="none" xmlns="http://www.w3.org/2000/svg">
<path d="M307.5 543C245.4 543 187 518.9 143.1 475.2C99.2 431.5 75 373.3 75 311.5C75 249.6 99.2 191.5 143.1 147.8C187 104.1 245.4 80 307.5 80C369.6 80 428 104.1 471.9 147.8C515.8 191.5 540 249.7 540 311.5C540 373.3 515.8 431.5 471.9 475.2C428 518.9 369.6 543 307.5 543ZM307.5 112C196.9 112 107 201.5 107 311.5C107 421.5 196.9 511 307.5 511C418.1 511 508 421.5 508 311.5C508 201.5 418.1 112 307.5 112Z" fill="url(#paint0_linear_784_2852)"/>
<path d="M306 472C394.366 472 466 400.366 466 312C466 223.634 394.366 152 306 152C217.634 152 146 223.634 146 312C146 400.366 217.634 472 306 472Z" fill="url(#paint1_linear_784_2852)"/>
<path d="M327 517C221.6 517 139 467.6 139 404.5C139 341.4 221.6 292 327 292C432.4 292 515 341.4 515 404.5C515 467.6 432.4 517 327 517ZM327 328C284.6 328 245 337 215.5 353.4C189.7 367.7 175 386.3 175 404.5C175 422.6 189.8 441.3 215.5 455.6C245 472 284.6 481 327 481C369.4 481 409 472 438.5 455.6C464.3 441.3 479 422.7 479 404.5C479 386.4 464.2 367.7 438.5 353.4C409 337 369.4 328 327 328Z" fill="url(#paint2_linear_784_2852)"/>
<path d="M320.1 560.4C317.9 560.4 316.1 558.7 316.1 556.5C316.1 554.3 317.8 552.5 320 552.4C325.6 552.3 331.2 552 336.7 551.6C338.9 551.4 340.8 553.1 341 555.3C341.2 557.5 339.5 559.4 337.3 559.6C331.6 560 325.8 560.3 320.1 560.4ZM301.1 560.1C301 560.1 301 560.1 300.9 560.1C295.2 559.8 289.4 559.3 283.7 558.7C281.5 558.5 279.9 556.5 280.2 554.3C280.4 552.1 282.4 550.5 284.6 550.8C290.1 551.4 295.8 551.9 301.3 552.2C303.5 552.3 305.2 554.2 305.1 556.4C305 558.4 303.2 560.1 301.1 560.1ZM355.9 557.5C353.9 557.5 352.2 556.1 351.9 554.1C351.6 551.9 353.1 549.9 355.3 549.6C360.8 548.8 366.3 547.8 371.8 546.7C374 546.2 376.1 547.6 376.5 549.8C376.9 552 375.6 554.1 373.4 554.5C367.8 555.7 362.1 556.7 356.4 557.5C356.3 557.5 356.1 557.5 355.9 557.5ZM265.3 556C265.1 556 264.8 556 264.6 555.9C259 554.9 253.3 553.7 247.7 552.4C245.6 551.9 244.2 549.7 244.7 547.6C245.2 545.5 247.4 544.1 249.5 544.6C254.9 545.9 260.4 547 265.9 548C268.1 548.4 269.5 550.5 269.1 552.6C268.9 554.6 267.2 556 265.3 556ZM391.1 550C389.4 550 387.8 548.8 387.3 547.1C386.7 545 387.9 542.8 390.1 542.2C395.4 540.7 400.8 539 406 537.2C408.1 536.5 410.4 537.6 411.1 539.7C411.8 541.8 410.7 544.1 408.6 544.8C403.2 546.7 397.7 548.4 392.2 550C391.8 550 391.4 550 391.1 550ZM230.4 547.5C230 547.5 229.6 547.4 229.2 547.3C223.7 545.6 218.3 543.7 212.9 541.7C210.8 540.9 209.8 538.6 210.6 536.5C211.4 534.4 213.7 533.4 215.8 534.2C221 536.2 226.3 538 231.6 539.7C233.7 540.4 234.9 542.6 234.2 544.7C233.7 546.4 232.1 547.5 230.4 547.5ZM424.9 538C423.4 538 421.9 537.1 421.2 535.6C420.3 533.6 421.3 531.2 423.3 530.3C428.4 528.1 433.5 525.7 438.4 523.2C440.4 522.2 442.8 523 443.8 525C444.8 527 444 529.4 442 530.4C436.9 533 431.7 535.4 426.4 537.7C426 537.9 425.5 538 424.9 538ZM196.8 534.6C196.2 534.6 195.7 534.5 195.1 534.2C189.9 531.8 184.7 529.2 179.7 526.5C177.8 525.5 177 523 178.1 521.1C179.1 519.2 181.6 518.4 183.5 519.5C188.4 522.1 193.5 524.6 198.5 526.9C200.5 527.8 201.4 530.2 200.5 532.2C199.8 533.7 198.3 534.6 196.8 534.6ZM456.9 521.6C455.5 521.6 454.2 520.9 453.5 519.7C452.4 517.8 453 515.3 454.9 514.2C459.7 511.3 464.4 508.3 469 505.1C470.8 503.8 473.3 504.3 474.6 506.1C475.9 507.9 475.4 510.4 473.6 511.7C468.9 514.9 464 518.1 459.1 521C458.3 521.4 457.6 521.6 456.9 521.6ZM165.1 517.5C164.4 517.5 163.6 517.3 163 516.9C158.1 513.9 153.3 510.6 148.7 507.3C146.9 506 146.5 503.5 147.8 501.7C149.1 499.9 151.6 499.5 153.4 500.8C157.9 504 162.6 507.2 167.3 510.1C169.2 511.3 169.7 513.7 168.6 515.6C167.8 516.9 166.5 517.5 165.1 517.5ZM486.4 501C485.2 501 484.1 500.5 483.3 499.5C481.9 497.8 482.2 495.3 483.9 493.9C488.2 490.4 492.5 486.7 496.6 483C498.2 481.5 500.8 481.6 502.3 483.2C503.8 484.8 503.7 487.4 502.1 488.9C497.9 492.8 493.5 496.5 489 500.1C488.2 500.8 487.3 501 486.4 501ZM135.9 496.4C135 496.4 134.1 496.1 133.4 495.5C129 491.8 124.6 488 120.4 484.1C118.8 482.6 118.7 480.1 120.2 478.4C121.7 476.8 124.2 476.7 125.9 478.2C130 482 134.2 485.7 138.5 489.3C140.2 490.7 140.4 493.2 139 494.9C138.2 495.9 137.1 496.4 135.9 496.4ZM512.8 476.6C511.8 476.6 510.8 476.2 510.1 475.5C508.5 474 508.4 471.5 509.9 469.8C513.7 465.7 517.4 461.5 520.9 457.2C522.3 455.5 524.8 455.2 526.5 456.6C528.2 458 528.5 460.5 527.1 462.2C523.5 466.6 519.6 471 515.7 475.2C515 476.2 513.9 476.6 512.8 476.6ZM109.8 471.7C108.7 471.7 107.7 471.3 106.9 470.4C103 466.2 99.1998 461.8 95.5998 457.4C94.1998 455.7 94.4998 453.2 96.1998 451.8C97.8998 450.4 100.4 450.7 101.8 452.4C105.3 456.7 109 461 112.8 465C114.3 466.6 114.2 469.2 112.6 470.7C111.7 471.4 110.8 471.7 109.8 471.7ZM535.5 448.7C534.7 448.7 533.9 448.5 533.2 448C531.4 446.7 531 444.2 532.2 442.4C535.4 437.8 538.5 433.1 541.3 428.4C542.4 426.5 544.9 425.9 546.8 427C548.7 428.1 549.3 430.6 548.2 432.5C545.2 437.4 542.1 442.3 538.8 447C538 448.1 536.8 448.7 535.5 448.7ZM87.1998 443.7C85.8998 443.7 84.6998 443.1 83.8998 442C80.5998 437.3 77.3998 432.4 74.3998 427.6C73.1998 425.7 73.7998 423.3 75.6998 422.1C77.5998 420.9 79.9998 421.5 81.1998 423.4C84.0998 428.1 87.1998 432.8 90.3998 437.4C91.6998 439.2 91.1998 441.7 89.3998 443C88.7998 443.5 87.9998 443.7 87.1998 443.7ZM554 417.9C553.4 417.9 552.8 417.8 552.2 417.5C550.2 416.5 549.4 414.1 550.4 412.1C552.9 407.1 555.2 402 557.4 396.9C558.3 394.9 560.6 393.9 562.6 394.8C564.6 395.7 565.6 398 564.7 400C562.5 405.3 560.1 410.6 557.5 415.7C556.9 417.1 555.5 417.9 554 417.9ZM68.5998 412.9C67.0998 412.9 65.6998 412.1 64.9998 410.7C62.3998 405.6 59.8998 400.3 57.5998 395.1C56.6998 393.1 57.6998 390.7 59.6998 389.8C61.6998 388.9 64.0998 389.9 64.9998 391.9C67.1998 397 69.5998 402.1 72.0998 407C73.0998 409 72.2998 411.4 70.3998 412.4C69.7998 412.8 69.1998 412.9 68.5998 412.9ZM567.7 384.6C567.3 384.6 566.9 384.5 566.4 384.4C564.3 383.7 563.2 381.4 563.9 379.4C565.6 374.1 567.2 368.7 568.6 363.4C569.1 361.3 571.3 360 573.5 360.5C575.6 361 576.9 363.2 576.4 365.4C575 371 573.4 376.5 571.6 382C571 383.5 569.4 384.6 567.7 384.6ZM54.3998 379.9C52.6998 379.9 51.1998 378.9 50.5998 377.2C48.6998 371.8 46.9998 366.2 45.4998 360.7C44.8998 358.6 46.1998 356.4 48.2998 355.8C50.3998 355.2 52.5998 356.5 53.1998 358.6C54.6998 363.9 56.2998 369.3 58.0998 374.6C58.7998 376.7 57.6998 379 55.5998 379.7C55.2998 379.8 54.8998 379.9 54.3998 379.9ZM576.5 349.7C576.3 349.7 576 349.7 575.8 349.6C573.6 349.2 572.2 347.2 572.5 345C573.5 339.5 574.2 334 574.8 328.4C575 326.2 577 324.6 579.2 324.8C581.4 325 583 327 582.8 329.2C582.2 334.9 581.4 340.7 580.4 346.3C580.1 348.4 578.4 349.7 576.5 349.7ZM45.0998 345.1C43.1998 345.1 41.4998 343.8 41.1998 341.8C40.0998 336.2 39.1998 330.4 38.5998 324.8C38.2998 322.6 39.8998 320.6 42.0998 320.4C44.2998 320.1 46.2998 321.7 46.4998 323.9C47.1998 329.4 47.9998 334.9 49.0998 340.4C49.4998 342.6 48.0998 344.7 45.8998 345.1C45.5998 345.1 45.3998 345.1 45.0998 345.1ZM580 313.9C577.7 313.8 575.9 312 576 309.8C576.1 307.8 576.1 305.7 576.1 303.6C576.1 300.1 576 296.5 575.9 293C575.8 290.8 577.5 288.9 579.7 288.8C581.9 288.7 583.8 290.4 583.9 292.6C584.1 296.2 584.1 299.9 584.1 303.5C584.1 305.6 584.1 307.8 584 309.9C583.9 312.2 582.2 313.9 580 313.9ZM40.9998 309.4C38.8998 309.4 37.0998 307.7 36.9998 305.6C36.8998 302.2 36.7998 298.7 36.7998 295.3C36.7998 293 36.7998 290.7 36.8998 288.4C36.9998 286.2 38.7998 284.5 40.9998 284.5C43.1998 284.6 44.8998 286.4 44.8998 288.6C44.7998 290.8 44.7998 293.1 44.7998 295.3C44.7998 298.6 44.8998 302 44.9998 305.3C45.0998 307.5 43.3998 309.4 41.1998 309.5C41.0998 309.4 41.0998 309.4 40.9998 309.4ZM578.3 278C576.3 278 574.6 276.5 574.3 274.5C573.6 269 572.8 263.4 571.7 258C571.3 255.8 572.7 253.7 574.9 253.3C577.1 252.9 579.2 254.3 579.6 256.5C580.7 262.1 581.6 267.9 582.3 273.5C582.6 275.7 581 277.7 578.8 278C578.6 278 578.4 278 578.3 278ZM42.1998 273.5C42.0998 273.5 41.8998 273.5 41.7998 273.5C39.5998 273.3 37.9998 271.3 38.1998 269.1C38.7998 263.4 39.5998 257.7 40.5998 252C40.9998 249.8 43.0998 248.4 45.1998 248.8C47.3998 249.2 48.7998 251.3 48.3998 253.4C47.3998 258.9 46.5998 264.5 46.0998 270C45.8998 272 44.1998 273.5 42.1998 273.5ZM571.3 242.8C569.5 242.8 567.9 241.6 567.4 239.9C565.9 234.6 564.3 229.2 562.4 223.9C561.7 221.8 562.8 219.5 564.9 218.8C567 218.1 569.3 219.2 570 221.3C571.9 226.7 573.6 232.3 575.1 237.8C575.7 239.9 574.4 242.1 572.3 242.7C572 242.7 571.7 242.8 571.3 242.8ZM48.4998 238.1C48.1998 238.1 47.7998 238.1 47.4998 238C45.3998 237.5 44.0998 235.3 44.5998 233.1C45.9998 227.5 47.6998 222 49.4998 216.5C50.1998 214.4 52.4998 213.3 54.5998 214C56.6998 214.7 57.7998 217 57.0998 219.1C55.3998 224.4 53.7998 229.8 52.3998 235.1C51.8998 236.9 50.2998 238.1 48.4998 238.1ZM559.4 208.9C557.9 208.9 556.4 208 555.7 206.5C553.5 201.4 551.1 196.3 548.5 191.4C547.5 189.4 548.3 187 550.2 186C552.2 185 554.6 185.8 555.6 187.7C558.2 192.8 560.7 198 563 203.3C563.9 205.3 563 207.7 560.9 208.6C560.4 208.8 559.9 208.9 559.4 208.9ZM59.9998 204C59.4998 204 58.9998 203.9 58.4998 203.7C56.4998 202.8 55.4998 200.5 56.3998 198.5C58.5998 193.2 61.0998 187.9 63.6998 182.8C64.6998 180.8 67.0998 180 69.0998 181C71.0998 182 71.8998 184.4 70.8998 186.4C68.3998 191.4 65.9998 196.5 63.8998 201.6C62.9998 203.1 61.5998 204 59.9998 204ZM542.7 177C541.4 177 540 176.3 539.3 175.1C536.4 170.4 533.3 165.7 530.1 161.1C528.8 159.3 529.3 156.8 531.1 155.5C532.9 154.2 535.4 154.7 536.7 156.5C540 161.2 543.2 166 546.2 170.9C547.4 172.8 546.8 175.2 544.9 176.4C544.2 176.8 543.4 177 542.7 177ZM76.3998 172C75.6998 172 74.9998 171.8 74.2998 171.4C72.3998 170.3 71.7998 167.8 72.9998 165.9C75.9998 161 79.1998 156.1 82.4998 151.4C83.7998 149.6 86.2998 149.2 88.0998 150.4C89.8998 151.7 90.2998 154.2 89.0998 156C85.8998 160.5 82.7998 165.3 79.8998 170C78.9998 171.3 77.6998 172 76.3998 172ZM521.9 147.6C520.7 147.6 519.6 147.1 518.8 146.1C515.3 141.8 511.6 137.6 507.8 133.5C506.3 131.9 506.4 129.4 508 127.8C509.6 126.2 512.1 126.4 513.7 128C517.6 132.2 521.4 136.6 525.1 141C526.5 142.7 526.2 145.2 524.5 146.6C523.7 147.3 522.8 147.6 521.9 147.6ZM97.1998 142.7C96.2998 142.7 95.3998 142.4 94.6998 141.8C92.9998 140.4 92.7998 137.9 94.1998 136.2C97.7998 131.8 101.7 127.4 105.6 123.3C107.1 121.7 109.6 121.6 111.3 123.1C112.9 124.6 113 127.1 111.5 128.8C107.7 132.8 104 137.1 100.4 141.3C99.4998 142.2 98.2998 142.7 97.1998 142.7ZM497.3 121.4C496.3 121.4 495.3 121 494.6 120.3C490.5 116.5 486.3 112.8 482 109.2C480.3 107.8 480.1 105.3 481.5 103.6C482.9 101.9 485.4 101.7 487.1 103.1C491.5 106.7 495.9 110.6 500.1 114.5C501.7 116 501.8 118.5 500.3 120.2C499.4 121 498.3 121.4 497.3 121.4ZM122 116.6C120.9 116.6 119.8 116.2 119 115.3C117.5 113.7 117.6 111.1 119.3 109.6C123.5 105.7 127.9 102 132.4 98.4001C134.1 97.0001 136.6 97.3001 138 99.0001C139.4 100.7 139.1 103.2 137.4 104.6C133.1 108.1 128.8 111.7 124.7 115.5C123.9 116.3 123 116.6 122 116.6ZM469.4 98.6001C468.6 98.6001 467.8 98.4001 467.1 97.9001C462.6 94.7001 457.9 91.5001 453.2 88.6001C451.3 87.4001 450.8 85.0001 451.9 83.1001C453.1 81.2001 455.5 80.7001 457.4 81.8001C462.3 84.8001 467.1 88.1001 471.8 91.4001C473.6 92.7001 474 95.2001 472.7 97.0001C471.9 98.0001 470.6 98.6001 469.4 98.6001ZM150.2 94.3001C148.9 94.3001 147.7 93.7001 146.9 92.6001C145.6 90.8001 146.1 88.3001 147.9 87.0001C152.6 83.8001 157.5 80.6001 162.4 77.7001C164.3 76.6001 166.8 77.2001 167.9 79.1001C169 81.0001 168.4 83.5001 166.5 84.6001C161.7 87.5001 157 90.5001 152.4 93.6001C151.7 94.0001 150.9 94.3001 150.2 94.3001ZM438.8 79.7001C438.2 79.7001 437.5 79.5001 436.9 79.2001C432 76.6001 426.9 74.1001 421.9 71.8001C419.9 70.9001 419 68.5001 419.9 66.5001C420.8 64.5001 423.2 63.6001 425.2 64.5001C430.4 66.9001 435.6 69.4001 440.7 72.1001C442.6 73.1001 443.4 75.6001 442.4 77.5001C441.6 78.9001 440.2 79.7001 438.8 79.7001ZM181.1 75.9001C179.6 75.9001 178.2 75.1001 177.5 73.7001C176.5 71.7001 177.3 69.3001 179.3 68.3001C184.4 65.7001 189.7 63.3001 194.9 61.0001C196.9 60.1001 199.3 61.1001 200.2 63.1001C201.1 65.1001 200.1 67.5001 198.1 68.4001C193 70.6001 187.9 73.0001 182.9 75.5001C182.3 75.8001 181.7 75.9001 181.1 75.9001ZM406 64.8001C405.5 64.8001 405.1 64.7001 404.6 64.5001C399.4 62.5001 394.1 60.7001 388.8 59.1001C386.7 58.4001 385.5 56.2001 386.2 54.1001C386.9 52.0001 389.1 50.8001 391.2 51.5001C396.7 53.2001 402.2 55.1001 407.5 57.1001C409.6 57.9001 410.6 60.2001 409.8 62.3001C409.2 63.9001 407.6 64.8001 406 64.8001ZM214.2 61.9001C212.5 61.9001 211 60.9001 210.4 59.2001C209.7 57.1001 210.8 54.8001 212.9 54.1001C218.3 52.2001 223.8 50.5001 229.3 48.9001C231.4 48.3001 233.6 49.5001 234.2 51.7001C234.8 53.8001 233.6 56.0001 231.4 56.6001C226.1 58.1001 220.7 59.8001 215.4 61.6001C215.1 61.8001 214.6 61.9001 214.2 61.9001ZM371.6 54.3001C371.3 54.3001 371 54.3001 370.7 54.2001C365.3 52.9001 359.8 51.8001 354.3 50.8001C352.1 50.4001 350.7 48.3001 351.1 46.2001C351.5 44.0001 353.6 42.6001 355.7 43.0001C361.3 44.0001 367 45.2001 372.6 46.5001C374.7 47.0001 376.1 49.2001 375.6 51.3001C375.1 53.1001 373.4 54.3001 371.6 54.3001ZM248.8 52.3001C246.9 52.3001 245.3 51.0001 244.9 49.1001C244.5 46.9001 245.8 44.8001 248 44.4001C253.6 43.2001 259.3 42.2001 265 41.4001C267.2 41.1001 269.2 42.6001 269.5 44.8001C269.8 47.0001 268.3 49.0001 266.1 49.3001C260.6 50.1001 255 51.1001 249.6 52.2001C249.3 52.3001 249.1 52.3001 248.8 52.3001ZM337.3 48.3001C337.1 48.3001 337 48.3001 336.8 48.3001C331.3 47.7001 325.6 47.2001 320.1 46.9001C317.9 46.8001 316.2 44.9001 316.3 42.7001C316.4 40.5001 318.3 38.8001 320.5 38.9001C326.2 39.2001 332 39.7001 337.7 40.3001C339.9 40.5001 341.5 42.5001 341.2 44.7001C341.1 46.8001 339.3 48.3001 337.3 48.3001ZM284.4 47.3001C282.3 47.3001 280.6 45.7001 280.4 43.6001C280.2 41.4001 281.9 39.5001 284.1 39.3001C289.8 38.9001 295.6 38.6001 301.3 38.5001C303.5 38.4001 305.3 40.2001 305.4 42.4001C305.4 44.6001 303.7 46.4001 301.5 46.5001C295.9 46.6001 290.3 46.8001 284.8 47.2001C284.6 47.3001 284.5 47.3001 284.4 47.3001Z" fill="url(#paint3_linear_784_2852)"/>
<path d="M311.2 48.7988C310.9 48.7988 310.7 48.5988 310.7 48.2988C310.7 47.9988 310.9 47.7988 311.2 47.7988C311.2 47.7988 311.7 47.7988 312.7 47.7988C313 47.7988 313.2 47.9988 313.2 48.2988C313.2 48.5988 313 48.7988 312.7 48.7988C311.8 48.7988 311.2 48.7988 311.2 48.7988Z" fill="#AFE4E9"/>
<path d="M345.3 126.399C345.1 126.399 344.9 126.199 344.8 125.999C344.7 125.699 344.9 125.499 345.2 125.399C346.2 125.199 347.1 124.999 348.1 124.699C348.4 124.599 348.6 124.799 348.7 125.099C348.8 125.399 348.6 125.599 348.3 125.699C347.3 125.999 346.4 126.199 345.4 126.399H345.3ZM351 124.799C350.8 124.799 350.6 124.699 350.5 124.499C350.4 124.199 350.6 123.999 350.8 123.899C351.7 123.599 352.7 123.199 353.6 122.899C353.9 122.799 354.1 122.899 354.3 123.199C354.4 123.499 354.3 123.699 354 123.899C353.1 124.299 352.1 124.599 351.2 124.899C351.1 124.799 351.1 124.799 351 124.799ZM356.5 122.599C356.3 122.599 356.1 122.499 356 122.299C355.9 122.099 356 121.799 356.2 121.599C357.1 121.199 358 120.699 358.8 120.199C359 120.099 359.3 120.099 359.5 120.399C359.6 120.599 359.6 120.899 359.3 121.099C358.4 121.599 357.6 122.099 356.6 122.499C356.7 122.599 356.6 122.599 356.5 122.599ZM361.7 119.599C361.5 119.599 361.4 119.499 361.3 119.399C361.2 119.199 361.2 118.899 361.4 118.699C362.3 118.099 363.1 117.599 363.8 116.999C364 116.799 364.3 116.899 364.5 117.099C364.7 117.299 364.6 117.599 364.4 117.799C363.7 118.299 362.9 118.899 361.9 119.499C361.9 119.599 361.8 119.599 361.7 119.599ZM366.5 116.099C366.4 116.099 366.2 115.999 366.1 115.899C365.9 115.699 365.9 115.399 366.1 115.199C366.9 114.499 367.5 113.799 368.1 113.099C368.3 112.899 368.6 112.899 368.8 112.999C369 113.199 369.1 113.499 368.9 113.699C368.3 114.499 367.6 115.199 366.8 115.899C366.7 115.999 366.6 116.099 366.5 116.099ZM370.1 111.399C370 111.399 370 111.399 369.9 111.299C369.7 111.199 369.5 110.899 369.7 110.599C370.1 109.799 370.4 108.899 370.7 107.899C370.8 107.599 371 107.499 371.3 107.499C371.6 107.599 371.7 107.799 371.7 108.099C371.4 109.099 371.1 110.099 370.7 110.999C370.5 111.299 370.3 111.399 370.1 111.399ZM371.6 105.699C371.3 105.699 371.1 105.399 371.1 105.199C371.2 104.299 371.2 103.399 371.2 102.399V102.299C371.2 101.999 371.4 101.799 371.7 101.799C372 101.799 372.2 101.999 372.2 102.299V102.399C372.2 103.399 372.2 104.399 372.1 105.299C372.1 105.499 371.9 105.699 371.6 105.699ZM371.6 99.7992C371.3 99.7992 371.1 99.5992 371.1 99.2992C371 98.3992 370.9 97.3992 370.8 96.3992C370.8 96.0992 371 95.8992 371.2 95.7992C371.5 95.7992 371.7 95.9992 371.8 96.1992C371.9 97.1992 372 98.1992 372.1 99.1992C372.1 99.4992 371.9 99.6992 371.6 99.7992C371.7 99.7992 371.6 99.7992 371.6 99.7992ZM336.1 94.5992C336.1 94.5992 336 94.5992 336.1 94.5992C335 94.4992 334 94.2992 333 93.9992C332.7 93.8992 332.6 93.5992 332.7 93.3992C332.8 93.0992 333.1 92.9992 333.3 93.0992C334.2 93.3992 335.1 93.5992 336.1 93.6992C336.4 93.6992 336.6 93.9992 336.6 94.1992C336.6 94.3992 336.3 94.5992 336.1 94.5992ZM339 94.3992C338.8 94.3992 338.6 94.1992 338.5 93.9992C338.4 93.6992 338.6 93.4992 338.9 93.3992C339.8 93.1992 340.7 92.9992 341.7 92.5992C342 92.4992 342.2 92.5992 342.3 92.8992C342.4 93.1992 342.3 93.3992 342 93.4992C341.1 93.8992 340.1 94.1992 339 94.3992C339.1 94.3992 339.1 94.3992 339 94.3992ZM370.9 93.8992C370.7 93.8992 370.5 93.6992 370.4 93.4992C370.2 92.4992 370 91.5992 369.7 90.6992C369.6 90.3992 369.8 90.1992 370 90.0992C370.3 89.9992 370.5 90.1992 370.6 90.3992C370.9 91.2992 371.1 92.2992 371.3 93.2992C371.5 93.4992 371.3 93.7992 370.9 93.8992C371 93.8992 371 93.8992 370.9 93.8992ZM330.5 92.5992C330.4 92.5992 330.3 92.5992 330.2 92.4992C329.4 91.8992 328.6 91.1992 327.9 90.3992C327.7 90.1992 327.7 89.8992 327.9 89.6992C328.1 89.4992 328.4 89.4992 328.6 89.6992C329.3 90.4992 330 91.0992 330.7 91.5992C330.9 91.7992 331 92.0992 330.8 92.2992C330.9 92.4992 330.7 92.5992 330.5 92.5992ZM344.6 92.2992C344.4 92.2992 344.3 92.1992 344.2 91.9992C344.1 91.7992 344.2 91.4992 344.4 91.2992C345.2 90.7992 346 90.2992 346.9 89.6992C347.1 89.4992 347.4 89.5992 347.6 89.7992C347.8 89.9992 347.7 90.2992 347.5 90.4992C346.7 91.0992 345.8 91.5992 344.9 92.0992C344.7 92.2992 344.7 92.2992 344.6 92.2992ZM349.4 88.8992C349.3 88.8992 349.1 88.7992 349 88.6992C348.8 88.4992 348.8 88.1992 349.1 87.9992C349.8 87.3992 350.6 86.6992 351.3 85.9992C351.5 85.7992 351.8 85.7992 352 85.9992C352.2 86.1992 352.2 86.4992 352 86.6992C351.3 87.3992 350.5 88.0992 349.8 88.6992C349.7 88.7992 349.5 88.8992 349.4 88.8992ZM369.2 88.1992C369 88.1992 368.8 88.0992 368.7 87.8992C368.3 86.9992 367.9 86.0992 367.4 85.2992C367.3 85.0992 367.3 84.7992 367.6 84.5992C367.8 84.4992 368.1 84.4992 368.3 84.7992C368.8 85.6992 369.3 86.5992 369.7 87.4992C369.8 87.7992 369.7 87.9992 369.4 88.1992C369.3 88.1992 369.3 88.1992 369.2 88.1992ZM326.7 88.0992C326.5 88.0992 326.3 87.9992 326.2 87.7992C325.9 86.9992 325.7 86.1992 325.7 85.2992C325.7 85.0992 325.7 84.7992 325.7 84.5992C325.7 84.2992 326 84.0992 326.3 84.1992C326.6 84.1992 326.8 84.4992 326.7 84.7992C326.7 84.9992 326.7 85.1992 326.7 85.3992C326.7 86.0992 326.8 86.7992 327.1 87.4992C327.2 87.7992 327.1 87.9992 326.8 88.1992C326.9 88.0992 326.8 88.0992 326.7 88.0992ZM353.7 84.6992C353.6 84.6992 353.5 84.6992 353.4 84.5992C353.2 84.3992 353.2 84.0992 353.4 83.8992C354.1 83.0992 354.7 82.3992 355.2 81.5992C355.4 81.3992 355.7 81.2992 355.9 81.4992C356.1 81.6992 356.2 81.9992 356 82.1992C355.4 82.9992 354.8 83.7992 354.1 84.5992C353.9 84.5992 353.8 84.6992 353.7 84.6992ZM366.2 83.0992C366.1 83.0992 365.9 82.9992 365.8 82.8992C365.2 82.0992 364.6 81.3992 363.9 80.6992C363.7 80.4992 363.7 80.1992 363.9 79.9992C364.1 79.7992 364.4 79.7992 364.6 79.9992C365.3 80.6992 366 81.4992 366.6 82.2992C366.8 82.4992 366.7 82.7992 366.5 82.9992C366.4 82.9992 366.3 83.0992 366.2 83.0992ZM327.3 82.3992C327.2 82.3992 327.1 82.3992 327 82.2992C326.8 82.1992 326.7 81.7992 326.8 81.5992C327.3 80.7992 328 79.9992 328.8 79.1992C329 78.9992 329.3 78.9992 329.5 79.1992C329.7 79.3992 329.7 79.6992 329.5 79.8992C328.8 80.5992 328.1 81.3992 327.7 82.0992C327.6 82.3992 327.5 82.3992 327.3 82.3992ZM357.1 79.7992C357 79.7992 356.9 79.7992 356.9 79.6992C356.7 79.5992 356.6 79.2992 356.7 78.9992C357.2 78.0992 357.5 77.2992 357.8 76.2992C357.9 75.9992 358.2 75.8992 358.4 75.9992C358.7 76.0992 358.8 76.3992 358.7 76.5992C358.4 77.5992 358 78.4992 357.5 79.3992C357.5 79.6992 357.3 79.7992 357.1 79.7992ZM362 78.8992C361.9 78.8992 361.8 78.8992 361.7 78.7992C360.9 78.1992 360.1 77.6992 359.3 77.1992C359.1 77.0992 359 76.7992 359.1 76.4992C359.2 76.2992 359.6 76.1992 359.8 76.2992C360.7 76.7992 361.5 77.3992 362.3 77.9992C362.5 78.1992 362.6 78.4992 362.4 78.6992C362.3 78.7992 362.2 78.8992 362 78.8992ZM331.5 78.2992C331.3 78.2992 331.2 78.1992 331.1 78.0992C330.9 77.8992 331 77.5992 331.2 77.3992C332 76.8992 332.9 76.2992 333.8 75.8992C334 75.7992 334.3 75.8992 334.5 76.0992C334.6 76.2992 334.5 76.5992 334.3 76.7992C333.4 77.2992 332.6 77.7992 331.8 78.2992C331.7 78.2992 331.6 78.2992 331.5 78.2992ZM356.9 75.7992C356.8 75.7992 356.8 75.7992 356.7 75.7992C355.8 75.3992 354.9 74.9992 354 74.6992C353.7 74.5992 353.6 74.2992 353.7 74.0992C353.8 73.7992 354.1 73.6992 354.3 73.7992C355.3 74.0992 356.2 74.4992 357.1 74.8992C357.4 74.9992 357.5 75.2992 357.3 75.5992C357.3 75.6992 357.1 75.7992 356.9 75.7992ZM336.8 75.5992C336.6 75.5992 336.4 75.4992 336.3 75.2992C336.2 74.9992 336.3 74.7992 336.6 74.6992C337.5 74.2992 338.5 73.9992 339.5 73.6992C339.8 73.5992 340 73.7992 340.1 73.9992C340.2 74.2992 340 74.4992 339.8 74.5992C338.9 74.8992 337.9 75.1992 337 75.5992C336.9 75.4992 336.8 75.5992 336.8 75.5992ZM358.9 74.1992C358.6 74.1992 358.4 73.8992 358.4 73.5992C358.5 72.9992 358.5 72.2992 358.5 71.6992C358.5 71.3992 358.5 71.0992 358.5 70.6992C358.5 70.3992 358.7 70.1992 359 70.1992C359.3 70.1992 359.5 70.3992 359.5 70.6992C359.5 70.9992 359.5 71.3992 359.5 71.6992C359.5 72.3992 359.5 73.0992 359.4 73.6992C359.4 73.9992 359.2 74.1992 358.9 74.1992ZM351.3 73.8992H351.2C350.8 73.7992 350.4 73.6992 350 73.5992C349.5 73.4992 348.9 73.3992 348.3 73.3992C348 73.3992 347.8 73.0992 347.8 72.8992C347.8 72.5992 348.1 72.3992 348.3 72.3992C348.9 72.3992 349.6 72.4992 350.1 72.5992C350.5 72.6992 350.9 72.7992 351.3 72.8992C351.6 72.9992 351.7 73.1992 351.7 73.4992C351.7 73.6992 351.5 73.8992 351.3 73.8992ZM342.5 73.7992C342.3 73.7992 342.1 73.5992 342 73.3992C341.9 73.0992 342.1 72.8992 342.4 72.7992C343.4 72.5992 344.4 72.3992 345.4 72.3992C345.7 72.3992 345.9 72.5992 345.9 72.8992C345.9 73.1992 345.7 73.3992 345.4 73.3992C344.5 73.4992 343.5 73.5992 342.5 73.7992ZM358.6 68.2992C358.4 68.2992 358.2 68.1992 358.1 67.8992C357.9 66.9992 357.5 66.0992 357.1 65.1992C357 64.8992 357.1 64.6992 357.4 64.4992C357.6 64.3992 357.9 64.4992 358.1 64.7992C358.5 65.6992 358.9 66.6992 359.1 67.6992C359.2 67.9992 359 68.1992 358.7 68.2992C358.6 68.2992 358.6 68.2992 358.6 68.2992ZM356.1 62.8992C355.9 62.8992 355.8 62.7992 355.7 62.6992C355.2 61.8992 354.6 61.0992 354 60.3992C353.8 60.1992 353.8 59.8992 354.1 59.6992C354.3 59.4992 354.6 59.4992 354.8 59.7992C355.5 60.5992 356.1 61.3992 356.6 62.1992C356.8 62.3992 356.7 62.6992 356.5 62.8992C356.3 62.8992 356.2 62.8992 356.1 62.8992ZM352.3 58.3992C352.2 58.3992 352.1 58.3992 352 58.2992C351.3 57.6992 350.6 56.9992 349.8 56.3992C349.6 56.1992 349.5 55.8992 349.7 55.6992C349.9 55.4992 350.2 55.3992 350.4 55.5992C351.2 56.1992 352 56.8992 352.7 57.4992C352.9 57.6992 352.9 57.9992 352.7 58.1992C352.6 58.2992 352.4 58.3992 352.3 58.3992ZM347.6 54.7992C347.5 54.7992 347.4 54.7992 347.3 54.6992C346.5 54.1992 345.6 53.7992 344.7 53.3992C344.4 53.2992 344.3 52.9992 344.4 52.6992C344.5 52.3992 344.8 52.2992 345.1 52.3992C346.1 52.7992 347 53.2992 347.8 53.7992C348 53.8992 348.1 54.1992 348 54.4992C347.9 54.6992 347.7 54.7992 347.6 54.7992ZM342.1 52.2992C342 52.2992 342 52.2992 341.9 52.2992C341 51.9992 340.1 51.6992 339.1 51.3992C338.8 51.2992 338.7 51.0992 338.7 50.7992C338.8 50.4992 339 50.3992 339.3 50.3992C340.3 50.6992 341.3 50.9992 342.2 51.2992C342.5 51.3992 342.6 51.6992 342.5 51.8992C342.5 52.1992 342.3 52.2992 342.1 52.2992ZM336.4 50.6992H336.3C335.3 50.4992 334.4 50.2992 333.4 50.0992C333.1 50.0992 332.9 49.7992 333 49.4992C333 49.1992 333.3 48.9992 333.6 49.0992C334.6 49.2992 335.6 49.4992 336.5 49.6992C336.8 49.7992 336.9 49.9992 336.9 50.2992C336.8 50.5992 336.6 50.6992 336.4 50.6992ZM330.5 49.6992C329.4 49.5992 328.5 49.3992 327.5 49.2992C327.2 49.2992 327 48.9992 327.1 48.7992C327.1 48.4992 327.4 48.2992 327.6 48.3992C328.6 48.4992 329.6 48.5992 330.6 48.7992C330.9 48.7992 331.1 49.0992 331 49.3992C331 49.4992 330.8 49.6992 330.5 49.6992ZM324.6 49.0992C323.5 48.9992 322.6 48.9992 321.6 48.8992C321.3 48.8992 321.1 48.6992 321.1 48.3992C321.1 48.0992 321.3 47.8992 321.6 47.8992C322.6 47.9992 323.6 47.9992 324.6 48.0992C324.9 48.0992 325.1 48.3992 325.1 48.5992C325.1 48.8992 324.9 49.0992 324.6 49.0992ZM318.7 48.7992C317.6 48.7992 316.6 48.7992 315.7 48.6992C315.4 48.6992 315.2 48.4992 315.2 48.1992C315.2 47.8992 315.4 47.6992 315.7 47.6992C316.6 47.6992 317.6 47.6992 318.7 47.7992C319 47.7992 319.2 47.9992 319.2 48.2992C319.2 48.5992 318.9 48.7992 318.7 48.7992Z" fill="#AFE4E9"/>
<path d="M340.8 127.098C340.5 127.098 340.3 126.898 340.3 126.598C340.3 126.298 340.5 126.098 340.8 126.098C340.8 126.098 341.3 126.098 342.3 125.898C342.6 125.898 342.8 126.098 342.9 126.298C342.9 126.598 342.7 126.798 342.5 126.898C341.4 126.998 340.8 127.098 340.8 127.098Z" fill="#AFE4E9"/>
<path d="M318.1 25.3008L273.7 45.8008L314 35.6008L318.1 25.3008Z" fill="#E5FAFC"/>
<path d="M314 35.5996L321 48.6996L311.2 42.8996L273.7 45.7996L314 35.5996Z" fill="#AFE4E9"/>
<path d="M311.2 42.9004L303.3 60.6004L273.7 45.8004L311.2 42.9004Z" fill="#E5FAFC"/>
<path d="M311.2 42.9004L308.5 49.1004L321 48.7004L311.2 42.9004Z" fill="#88C4CA"/>
<path d="M213.6 164.6C242.374 164.6 265.7 141.274 265.7 112.5C265.7 83.7264 242.374 60.4004 213.6 60.4004C184.826 60.4004 161.5 83.7264 161.5 112.5C161.5 141.274 184.826 164.6 213.6 164.6Z" fill="#E5FAFC"/>
<path d="M253.6 144L262.8 167L240.1 155.5L253.6 144Z" fill="#E5FAFC"/>
<path d="M220.2 134.201H206.6C201.3 134.201 190.2 113.401 190.2 103.201C190.2 90.3008 200.7 79.8008 213.6 79.8008C226.5 79.8008 237 90.3008 237 103.201C237 115.101 225.7 134.201 220.2 134.201ZM213.6 82.6008C202.3 82.6008 193 91.8008 193 103.201C193 113.101 203.7 131.201 206.5 131.301H220.1C222.6 131.201 234.1 115.501 234.1 103.201C234.2 91.9008 225 82.6008 213.6 82.6008Z" fill="#7EC2C9"/>
<path d="M215 104.4H212.2V132.7H215V104.4Z" fill="#7EC2C9"/>
<path d="M222.7 103H204.5V105.8H222.7V103Z" fill="#7EC2C9"/>
<path d="M222 142.1C222 146.7 218.2 150.5 213.6 150.5C209 150.5 205.2 146.7 205.2 142.1V136.5H222V142.1Z" fill="#7EC2C9"/>
<path d="M404.8 189.199C427.167 189.199 445.3 171.067 445.3 148.699C445.3 126.332 427.167 108.199 404.8 108.199C382.432 108.199 364.3 126.332 364.3 148.699C364.3 171.067 382.432 189.199 404.8 189.199Z" fill="#E5FAFC"/>
<path d="M373.8 172.8L367.4 190.5L384.8 181L373.8 172.8Z" fill="#E5FAFC"/>
<path d="M414.4 130.5L420.8 127.9C422.7 129.8 422.9 130 424.8 131.8L422.3 138.3C422.9 139.8 423.3 140.7 424 142.2L430.4 144.9C430.4 147.6 430.4 147.8 430.5 150.5L424.2 153.3C423.6 154.8 423.2 155.7 422.6 157.2L425.2 163.6C423.3 165.5 423.1 165.7 421.3 167.6L414.8 165.1C413.3 165.7 412.4 166.1 410.9 166.8L408.2 173.2C405.5 173.2 405.3 173.2 402.6 173.3L399.8 167C398.3 166.4 397.4 166 395.9 165.4L389.5 168C387.6 166.1 387.4 165.9 385.5 164.1L388 157.6C387.4 156.1 387 155.2 386.3 153.7L379.9 151C379.9 148.3 379.9 148.1 379.8 145.4L386.1 142.6C386.7 141.1 387.1 140.2 387.7 138.7L385.1 132.3C387 130.4 387.2 130.2 389 128.3L395.5 130.8C397 130.2 397.9 129.8 399.4 129.1L402.1 122.7C404.8 122.7 405 122.7 407.7 122.6L410.5 128.9C412 129.5 412.9 129.9 414.4 130.5ZM405.1 136.8C398.9 136.8 393.9 141.8 393.9 148C393.9 154.2 398.9 159.2 405.1 159.2C411.3 159.2 416.3 154.2 416.3 148C416.3 141.8 411.3 136.8 405.1 136.8Z" fill="#7EC2C9"/>
<path d="M437.2 215.8H200V236.2H437.2V215.8Z" fill="#E9B254"/>
<path d="M427.4 236.3H209.9V255H427.4V236.3Z" fill="#5986A0"/>
<path d="M429.1 255H216.4V273.7H429.1V255Z" fill="#DA5D2B"/>
<path d="M426.5 273.7H226.1V303.5H426.5V273.7Z" fill="#6A625C"/>
<path d="M429.7 303.5H212.2V322H429.7V303.5Z" fill="#FFFFFE"/>
<path d="M404.81 293.171V284.071H286.81V293.171H404.81Z" fill="#9F9D99"/>
<path d="M404.352 267.988V260.588L232.852 260.588V267.988L404.352 267.988Z" fill="#DC8A6E"/>
<path d="M421.757 249.376V241.976L315.757 241.976V249.376L421.757 249.376Z" fill="#F3F0DD"/>
<path d="M421.733 230.609V221.409L209.833 221.409V230.609L421.733 230.609Z" fill="#F3F0DD"/>
<path d="M273.207 293.174V284.074H249.407V293.174H273.207Z" fill="#9F9D99"/>
<path d="M285 322H154.7V422H285V322Z" fill="#E4932E"/>
<path d="M433.9 332.1H270.2V411.5H433.9V332.1Z" fill="#FFFFFE"/>
<path d="M447.8 422.1H284.9C271 422.1 259.6 410.8 259.6 396.8V347.2C259.6 333.3 270.9 321.9 284.9 321.9H447.8V336.9H284.9C279.3 336.9 274.7 341.5 274.7 347.1V396.7C274.7 402.3 279.3 406.9 284.9 406.9H447.8V422.1Z" fill="#E9B254"/>
<path d="M257.4 432.3H202.7V488.1H257.4V432.3Z" fill="#EFEEEB"/>
<path d="M449.1 432.3H257.3V488.1H449.1V432.3Z" fill="#FFFFFE"/>
<path d="M436.1 498.8H241.7V483.8H436.1C441.7 483.8 446.3 479.2 446.3 473.6V446.5C446.3 440.9 441.7 436.3 436.1 436.3H241.7V421.3H436.1C450 421.3 461.4 432.6 461.4 446.6V473.7C461.3 487.4 450 498.8 436.1 498.8Z" fill="#437DB3"/>
<path d="M433.9 345.2L318.6 347.7L433.9 351V345.2Z" fill="#E5E5E0"/>
<path d="M433.9 360.4L291.3 362.9L433.9 366.2V360.4Z" fill="#E5E5E0"/>
<path d="M433.9 381.3L302.3 383.8L433.9 387.1V381.3Z" fill="#E5E5E0"/>
<path d="M433.9 395.4L319.4 397.9L433.9 401.1V395.4Z" fill="#E5E5E0"/>
<path d="M244.6 421.2H175.2V436.2H244.6V421.2Z" fill="#2E5897"/>
<path d="M244.6 483.7H175.2V498.7H244.6V483.7Z" fill="#2E5897"/>
<path d="M207.4 450.4L404.8 447.9L207.4 444.7V450.4Z" fill="#E1E1DC"/>
<path d="M207.4 465.7L404.8 463.2L207.4 460V465.7Z" fill="#E1E1DC"/>
<path d="M207.4 479.4L404.8 476.9L207.4 473.6V479.4Z" fill="#E1E1DC"/>
<path d="M521.8 466.6H440.1C429.1 466.6 420.1 475.5 420.1 486.6H541.7C541.8 475.5 532.8 466.6 521.8 466.6Z" fill="#EEB24A"/>
<path d="M542.7 499.5H419.2C415.6 499.5 412.7 496.6 412.7 493C412.7 489.4 415.6 486.5 419.2 486.5H542.7C546.3 486.5 549.2 489.4 549.2 493C549.1 496.6 546.3 499.5 542.7 499.5Z" fill="#234A66"/>
<path d="M525.1 472.3H474.5C473.7 472.3 473.1 471.7 473.1 470.9C473.1 470.1 473.7 469.5 474.5 469.5H525.1C525.9 469.5 526.5 470.1 526.5 470.9C526.5 471.7 525.8 472.3 525.1 472.3Z" fill="#F7CB40"/>
<path d="M601.9 499.7C600.2 499.7 598.5 499.1 597.2 497.8L528 428.5C525.4 425.9 525.4 421.8 528 419.2C530.6 416.6 534.7 416.6 537.3 419.2L606.6 488.5C609.2 491.1 609.2 495.2 606.6 497.8C605.3 499 603.6 499.7 601.9 499.7Z" fill="#234A66"/>
<path d="M602.1 492.7C601.6 492.7 601.1 492.5 600.8 492.1L531.5 422.8C530.8 422.1 530.8 420.9 531.5 420.1C532.2 419.4 533.4 419.4 534.2 420.1L603.5 489.4C604.2 490.1 604.2 491.3 603.5 492.1C603.1 492.5 602.6 492.7 602.1 492.7Z" fill="#437DB2"/>
<path d="M514.204 363.209L470.718 406.695L512.366 448.344L555.853 404.857L514.204 363.209Z" fill="#EEB24A"/>
<path d="M463.76 413.547L460.013 417.295L501.661 458.943L505.409 455.196L463.76 413.547Z" fill="#142F3F"/>
<path d="M511.7 456C509.4 458.3 505.6 458.3 503.3 456L463.1 415.8C460.8 413.5 460.8 409.7 463.1 407.4C465.4 405.1 469.2 405.1 471.5 407.4L511.7 447.6C514 449.9 514 453.6 511.7 456Z" fill="#234A66"/>
<path d="M504.8 465.7C503.4 467.1 501.2 467.1 499.8 465.7L453.3 419.2C451.9 417.8 451.9 415.6 453.3 414.2C454.7 412.8 456.9 412.8 458.3 414.2L504.8 460.7C506.2 462.1 506.2 464.3 504.8 465.7Z" fill="#234A66"/>
<path d="M562.844 397.806L566.591 394.059L524.943 352.41L521.196 356.158L562.844 397.806Z" fill="#142F3F"/>
<path d="M514.9 355.5C517.2 353.2 521 353.2 523.3 355.5L563.5 395.7C565.8 398 565.8 401.8 563.5 404.1C561.2 406.4 557.4 406.4 555.1 404.1L514.9 363.9C512.6 361.5 512.6 357.8 514.9 355.5Z" fill="#234A66"/>
<path d="M521.8 345.7C523.2 344.3 525.4 344.3 526.8 345.7L573.3 392.2C574.7 393.6 574.7 395.8 573.3 397.2C571.9 398.6 569.7 398.6 568.3 397.2L521.8 350.7C520.4 349.3 520.4 347.1 521.8 345.7Z" fill="#234A66"/>
<path d="M521 369.977L477.514 413.464L485.716 421.666L529.203 378.18L521 369.977Z" fill="#F6BC62"/>
<path d="M216.4 275.9C216.4 275.9 219.9 282.6 219.9 306.3C219.9 330 202.6 348.3 189.2 356.8C175.9 365.2 157.2 364.6 157.2 379.6V385.5C157.2 400.5 175.9 399.9 189.2 408.3C202.6 416.8 219.9 435.1 219.9 458.8C219.9 482.5 216.4 489.2 216.4 489.2H89.3999C89.3999 489.2 85.8999 482.5 85.8999 458.8C85.8999 435.1 103.2 416.8 116.6 408.3C129.9 399.9 148.6 400.5 148.6 385.5V379.6C148.6 364.6 129.9 365.2 116.6 356.8C103.2 348.3 85.8999 330 85.8999 306.3C85.8999 282.6 89.3999 275.9 89.3999 275.9H216.4Z" fill="#EDF5F8"/>
<path d="M216.4 490H88.9L88.6 489.5C88.5 489.2 85 482.4 85 458.7C85 435.5 101.1 417 116.1 407.4C120.6 404.6 125.5 402.8 130.3 401C139.6 397.7 147.6 394.8 147.6 385.4V379.5C147.6 370.1 139.6 367.2 130.3 363.9C125.5 362.2 120.5 360.4 116.1 357.5C101 347.9 85 329.4 85 306.2C85 282.5 88.5 275.7 88.6 275.4L88.9 274.9H217L217.3 275.4C217.4 275.7 220.9 282.5 220.9 306.2C220.9 329.4 204.8 347.9 189.8 357.5C185.3 360.3 180.4 362.1 175.6 363.9C166.3 367.2 158.3 370.1 158.3 379.5V385.4C158.3 394.8 166.3 397.7 175.6 401C180.4 402.7 185.4 404.5 189.8 407.4C204.9 417 220.9 435.5 220.9 458.7C220.9 482.4 217.4 489.2 217.3 489.5L217 490H216.4ZM90 488.1H215.7C216.4 486.2 218.9 478.3 218.9 458.7C218.9 436.3 202.6 417.9 188.6 409C184.3 406.3 179.4 404.5 174.7 402.8C165.2 399.4 156.2 396.1 156.2 385.4V379.5C156.2 368.8 165.2 365.5 174.7 362.1C179.4 360.4 184.3 358.6 188.6 355.9C202.6 347 218.9 328.7 218.9 306.2C218.9 286.6 216.4 278.7 215.7 276.8H90C89.3 278.7 86.8 286.6 86.8 306.2C86.8 328.6 103.1 347 117.1 355.9C121.4 358.6 126.3 360.4 131 362.1C140.5 365.5 149.5 368.8 149.5 379.5V385.4C149.5 396.1 140.5 399.4 131 402.8C126.3 404.5 121.4 406.3 117.1 409C103.1 417.9 86.8 436.2 86.8 458.7C86.8 478.3 89.3 486.1 90 488.1Z" fill="#BAD1D7"/>
<path d="M315.7 202.1C315.7 202.1 332.4 202.1 337.6 202.1C342.8 202.1 344.6 208.4 344.6 212.6C344.6 216.7 340.3 226.7 337.8 232.9C335.3 239.1 330.1 256 330.1 256H325.1C325.1 256 326 235.2 327 229.6C327.9 224 332.2 217.7 332.4 215.5C332.5 213.3 329.2 213.8 326.6 214.6C324 215.5 318.2 215.6 318.2 215.6L313.4 209.7L315.7 202.1Z" fill="#1E2947"/>
<path d="M281 197.5C281 197.5 281 203.2 281 208C281 212.8 284.8 216.7 292.2 216.7C299.6 216.7 301 216.7 303.5 216.7C308.3 216.7 310.7 214.5 312.7 214.5C314.7 214.5 312.1 217.7 312.1 226.3C312.1 234.9 316.4 262.6 316.4 262.6H321.1C321.1 262.6 324.7 217 324.7 212.9C324.7 208.9 324.3 203.7 316.8 203.7C309.3 203.7 287.4 203.7 287.4 203.7L281 197.5Z" fill="#253358"/>
<path d="M312.3 132.001C312.3 132.001 312.9 134.701 312.9 140.101C312.9 145.501 311 149.801 306.9 150.101C302.9 150.301 295 146.101 294.4 141.901C293.8 137.701 299.3 128.801 299.3 128.801L312.3 132.001Z" fill="#EEA491"/>
<path d="M313.5 172L316.2 177.4C319.9 185.3 320.3 177.3 327.7 177.3C327 175.3 326.4 173.5 325.9 172.3C323.3 165.8 320.9 159.3 318.2 157C315.5 154.7 311.9 154.2 311.9 154.2L305.2 154.3L295.1 154.2C295.1 154.2 291.4 154.2 288.1 154.2C284.8 154.2 278.4 156.5 278.4 164.5C278.4 172.5 279.6 192 280.6 196.2C281.6 200.4 284.5 204.1 290.5 204.1C296.6 204.1 307.6 204.1 307.6 204.1V200H308.8L313.5 172Z" fill="#1D8AA9"/>
<path d="M295.1 143.6C295.1 143.6 295.1 152 295.1 154C295.1 156.5 299 158 302.2 158C305.4 158 305.2 154.3 305.2 154.3V147.3L295.1 143.6Z" fill="#EEA491"/>
<path d="M317.5 179.7L313.5 172L319.3 177.7L317.5 179.7Z" fill="#18728E"/>
<path d="M295.3 143.999C295.6 145.699 291 139.099 291.2 134.299C291.4 129.499 294.7 122.199 304 122.199C313.3 122.199 316.1 127.799 316.1 129.899C316.1 131.899 314.7 135.199 312.6 133.399C310.5 131.599 306.5 130.099 304.9 132.199C303.3 134.299 300.8 135.799 300.8 138.099C300.8 140.399 299.3 140.799 298.8 137.999C298.4 135.199 294.1 135.899 295.3 143.999Z" fill="#253358"/>
<path d="M307.6 200C307.6 200 291.7 196.1 290.1 195.3C288.5 194.4 288.3 193 288.1 188.4C287.9 183.8 287.8 164.1 287.8 164.1C287.8 164.1 289.8 185.6 290.1 188.8C290.5 192 290.9 192.8 293.1 194C295.4 195 307.6 200 307.6 200Z" fill="#18728E"/>
<path d="M310.6 202.1L318.6 176.1H359.4L352.3 202.1H310.6Z" fill="#DFE6EE"/>
<path d="M152.9 440.5C152.9 440.5 150.2 455.3 137.1 468.4C124 481.5 101.7 489 101.7 489H204.2C204.2 489 181.9 481.5 168.8 468.4C155.7 455.3 153 440.5 152.9 440.5Z" fill="#EC923F"/>
<path d="M231.5 499.2H74.4999C71.0999 499.2 68.3999 496.5 68.3999 493.1C68.3999 489.7 71.0999 487 74.4999 487H231.5C234.9 487 237.6 489.7 237.6 493.1C237.6 496.5 234.9 499.2 231.5 499.2Z" fill="#234A66"/>
<path d="M153.3 376.9H152.4V444.6H153.3V376.9Z" fill="#EC923F"/>
<path d="M218.1 319.5C213.3 336.7 200 349.8 189.2 356.7C175.9 365.1 153.4 365.3 153.4 380.3H152.3C152.3 365.3 129.9 365.1 116.6 356.7C109.7 352.3 101.7 345.3 95.6001 336.2C95.6001 336.2 98.1001 330.6 110.5 325.6C122.9 320.6 156.4 311.6 193 311.6C219 311.6 218.1 319.5 218.1 319.5Z" fill="#EC923F"/>
<path d="M218.1 319.5C218.1 319.5 219.1 311.6 193 311.6C156.4 311.6 122.9 320.6 110.5 325.6C98.1001 330.6 95.6001 336.2 95.6001 336.2L98.5001 340.2C98.5001 340.2 103.1 342.7 125.8 342.7C148.5 342.7 176.6 336.8 192.8 332C209 327.3 218 323.3 218.1 319.5Z" fill="#F7CB40"/>
<path opacity="0.7" d="M101.6 480.6C98.2999 480.6 95.3999 478.1 95.0999 474.7C94.5999 470.1 94.3999 464.7 94.3999 458.7C94.3999 449.6 97.5999 440.3 103.8 431.8C105.9 428.9 110 428.2 113 430.3C115.9 432.4 116.6 436.5 114.5 439.5C111.4 443.8 107.6 450.7 107.6 458.7C107.6 464.3 107.8 469.2 108.2 473.4C108.6 477 105.9 480.2 102.3 480.6C102 480.6 101.8 480.6 101.6 480.6ZM124.7 427.5C122.5 427.5 120.4 426.4 119.1 424.5C117.1 421.4 118.1 417.4 121.1 415.4C124.7 413.1 129 411.6 133.5 410C138.2 408.3 144.2 406.2 148.9 402.5C151.8 400.3 155.9 400.8 158.1 403.7C160.3 406.6 159.8 410.7 156.9 412.9C150.6 417.8 143.3 420.4 138 422.4C134.2 423.8 130.6 425.1 128.2 426.6C127.1 427.1 125.9 427.5 124.7 427.5ZM133.5 355C129 353.4 124.7 351.8 121.1 349.6C118 347.6 117.1 343.6 119.1 340.5C121.1 337.4 125.1 336.5 128.2 338.5C130.6 340 134.2 341.3 138 342.7C143 344.5 143.6 348.3 142.6 351.4C141.6 354.5 138.2 356.8 133.5 355ZM108.2 334.6C106.1 334.6 104 333.6 102.8 331.7C97.2999 323.6 94.3999 314.8 94.3999 306.2C94.3999 300.2 94.5999 294.8 95.0999 290.2C95.4999 286.6 98.6999 284 102.3 284.3C105.9 284.7 108.5 287.9 108.2 291.5C107.8 295.7 107.6 300.6 107.6 306.2C107.6 312.2 109.7 318.3 113.7 324.3C115.7 327.3 115 331.4 112 333.4C110.8 334.3 109.5 334.6 108.2 334.6Z" fill="#F8FBFC"/>
<path d="M307.6 204.1H318.6V202.2L312.5 200H307.6V204.1Z" fill="#EEA491"/>
<path d="M336.9 192.4C339.164 192.4 341 190.565 341 188.3C341 186.036 339.164 184.2 336.9 184.2C334.635 184.2 332.8 186.036 332.8 188.3C332.8 190.565 334.635 192.4 336.9 192.4Z" fill="#FFFFFE"/>
<path d="M320.6 262.4H317V265.7H320.6V262.4Z" fill="#EEA491"/>
<path d="M317 265.7L315.7 268.2L317 270.5L324.6 271.9H330.9V269.9L323.3 267.4L320.7 265.7H317Z" fill="#343533"/>
<path d="M325.7 255.6L325.3 258.1L328.7 258.6L329.5 255.6H325.7Z" fill="#EEA491"/>
<path d="M325.3 257.9L324.4 259.1L324.6 261.2L331.3 265.5L337.8 265.8L338.1 264L332.5 261.1L328.9 258.1L325.3 257.9Z" fill="#343533"/>
<path d="M231.5 283H74.4999C71.0999 283 68.3999 280.3 68.3999 276.9C68.3999 273.5 71.0999 270.8 74.4999 270.8H231.5C234.9 270.8 237.6 273.5 237.6 276.9C237.6 280.3 234.9 283 231.5 283Z" fill="#234A66"/>
<path d="M45.0999 427.1H47.0999V428.6H45.7999C45.7999 428.6 45.7999 504 45.7999 507C45.7999 510 53.5999 510.7 53.5999 510.7V512.5H44.9999H36.3999V510.7C36.3999 510.7 44.1999 510 44.1999 507C44.1999 504 44.1999 428.6 44.1999 428.6H42.8999V427.1C43.0999 427.1 45.0999 427.1 45.0999 427.1Z" fill="#285375"/>
<path d="M88.9002 422.9C61.7002 422.9 45.4002 409.9 45.2002 409.8L46.4002 408.3C46.6002 408.4 62.4002 421 88.9002 421C115.4 421 127.3 407.6 127.5 407.5L128.9 408.7C128.4 409.3 116.2 422.9 88.9002 422.9Z" fill="#46777D"/>
<path d="M171.2 422.9C144 422.9 127.7 409.9 127.5 409.8L128.7 408.3C128.9 408.4 144.7 421 171.2 421C197.6 421 209.6 407.6 209.8 407.5L211.2 408.7C210.7 409.3 198.5 422.9 171.2 422.9Z" fill="#46777D"/>
<path d="M254.4 422.9C227.2 422.9 210.9 409.9 210.7 409.8L211.9 408.3C212.1 408.4 227.9 421 254.4 421C280.8 421 292.8 407.6 293 407.5L294.4 408.7C293.9 409.3 281.7 422.9 254.4 422.9Z" fill="#46777D"/>
<path d="M44.1998 427.1V421C44.1998 421 41.7998 419 41.7998 413.9C41.7998 408.8 45.0998 407 45.0998 407C45.0998 407 48.2998 409.1 48.2998 413.9C48.2998 418.7 45.9998 421.1 45.9998 421.1V427.2H44.1998V427.1Z" fill="#4D8ABB"/>
<path d="M128.2 427.1H130.2V428.6H129C129 428.6 129 504 129 507C129 510 136.8 510.7 136.8 510.7V512.5H128.2H119.6V510.7C119.6 510.7 127.4 510 127.4 507C127.4 504 127.4 428.6 127.4 428.6H126.1V427.1C126.2 427.1 128.2 427.1 128.2 427.1Z" fill="#285375"/>
<path d="M127.3 427.1V421C127.3 421 124.9 419 124.9 413.9C124.9 408.8 128.2 407 128.2 407C128.2 407 131.4 409.1 131.4 413.9C131.4 418.7 129.1 421.1 129.1 421.1V427.2H127.3V427.1Z" fill="#4D8ABB"/>
<path d="M210 427.1H212V428.6H210.7C210.7 428.6 210.7 504 210.7 507C210.7 510 218.5 510.7 218.5 510.7V512.5H209.9H201.3V510.7C201.3 510.7 209.1 510 209.1 507C209.1 504 209.1 428.6 209.1 428.6H208V427.1H210Z" fill="#285375"/>
<path d="M209.1 427.1V421C209.1 421 206.7 419 206.7 413.9C206.7 408.8 210 407 210 407C210 407 213.2 409.1 213.2 413.9C213.2 418.7 210.9 421.1 210.9 421.1V427.2H209.1V427.1Z" fill="#4D8ABB"/>
<path d="M293.7 427.1H295.7V428.6H294.4C294.4 428.6 294.4 504 294.4 507C294.4 510 302.2 510.7 302.2 510.7V512.5H293.6H285V510.7C285 510.7 292.8 510 292.8 507C292.8 504 292.8 428.6 292.8 428.6H291.5V427.1C291.6 427.1 293.7 427.1 293.7 427.1Z" fill="#285375"/>
<path d="M292.7 427.1V421C292.7 421 290.3 419 290.3 413.9C290.3 408.8 293.6 407 293.6 407C293.6 407 296.8 409.1 296.8 413.9C296.8 418.7 294.5 421.1 294.5 421.1V427.2H292.7V427.1Z" fill="#4D8ABB"/>
<defs>
<linearGradient id="paint0_linear_784_2852" x1="133.3" y1="438.52" x2="496.216" y2="173.896" gradientUnits="userSpaceOnUse">
<stop stop-color="white" stop-opacity="0.1"/>
<stop offset="1" stop-color="white" stop-opacity="0.5"/>
</linearGradient>
<linearGradient id="paint1_linear_784_2852" x1="141.739" y1="156.489" x2="435.538" y2="434.638" gradientUnits="userSpaceOnUse">
<stop stop-color="white" stop-opacity="0.5"/>
<stop offset="1" stop-color="white" stop-opacity="0.2"/>
</linearGradient>
<linearGradient id="paint2_linear_784_2852" x1="404.434" y1="303.398" x2="243.131" y2="514.004" gradientUnits="userSpaceOnUse">
<stop stop-color="white" stop-opacity="0.1"/>
<stop offset="1" stop-color="white" stop-opacity="0.5"/>
</linearGradient>
<linearGradient id="paint3_linear_784_2852" x1="75.6633" y1="421.063" x2="564.72" y2="167.753" gradientUnits="userSpaceOnUse">
<stop stop-color="white" stop-opacity="0.7"/>
<stop offset="1" stop-color="white"/>
</linearGradient>
</defs>
</svg>
