<svg width="621" height="599" viewBox="0 0 621 599" fill="none" xmlns="http://www.w3.org/2000/svg">
<path d="M307.5 543C245.4 543 187 518.9 143.1 475.2C99.2 431.5 75 373.3 75 311.5C75 249.6 99.2 191.5 143.1 147.8C187 104.1 245.4 80 307.5 80C369.6 80 428 104.1 471.9 147.8C515.8 191.5 540 249.7 540 311.5C540 373.3 515.8 431.5 471.9 475.2C428 518.9 369.6 543 307.5 543ZM307.5 112C196.9 112 107 201.5 107 311.5C107 421.5 196.9 511 307.5 511C418.1 511 508 421.5 508 311.5C508 201.5 418.1 112 307.5 112Z" fill="url(#paint0_linear_532_667)"/>
<path d="M306 472C394.366 472 466 400.366 466 312C466 223.634 394.366 152 306 152C217.634 152 146 223.634 146 312C146 400.366 217.634 472 306 472Z" fill="url(#paint1_linear_532_667)"/>
<path d="M327 517C221.6 517 139 467.6 139 404.5C139 341.4 221.6 292 327 292C432.4 292 515 341.4 515 404.5C515 467.6 432.4 517 327 517ZM327 328C284.6 328 245 337 215.5 353.4C189.7 367.7 175 386.3 175 404.5C175 422.6 189.8 441.3 215.5 455.6C245 472 284.6 481 327 481C369.4 481 409 472 438.5 455.6C464.3 441.3 479 422.7 479 404.5C479 386.4 464.2 367.7 438.5 353.4C409 337 369.4 328 327 328Z" fill="url(#paint2_linear_532_667)"/>
<path d="M320.1 560.4C317.9 560.4 316.1 558.7 316.1 556.5C316.1 554.3 317.8 552.5 320 552.4C325.6 552.3 331.2 552 336.7 551.6C338.9 551.4 340.8 553.1 341 555.3C341.2 557.5 339.5 559.4 337.3 559.6C331.6 560 325.8 560.3 320.1 560.4ZM301.1 560.1C301 560.1 301 560.1 300.9 560.1C295.2 559.8 289.4 559.3 283.7 558.7C281.5 558.5 279.9 556.5 280.2 554.3C280.4 552.1 282.4 550.5 284.6 550.8C290.1 551.4 295.8 551.9 301.3 552.2C303.5 552.3 305.2 554.2 305.1 556.4C305 558.4 303.2 560.1 301.1 560.1ZM355.9 557.5C353.9 557.5 352.2 556.1 351.9 554.1C351.6 551.9 353.1 549.9 355.3 549.6C360.8 548.8 366.3 547.8 371.8 546.7C374 546.2 376.1 547.6 376.5 549.8C376.9 552 375.6 554.1 373.4 554.5C367.8 555.7 362.1 556.7 356.4 557.5C356.3 557.5 356.1 557.5 355.9 557.5ZM265.3 556C265.1 556 264.8 556 264.6 555.9C259 554.9 253.3 553.7 247.7 552.4C245.6 551.9 244.2 549.7 244.7 547.6C245.2 545.5 247.4 544.1 249.5 544.6C254.9 545.9 260.4 547 265.9 548C268.1 548.4 269.5 550.5 269.1 552.6C268.9 554.6 267.2 556 265.3 556ZM391.1 550C389.4 550 387.8 548.8 387.3 547.1C386.7 545 387.9 542.8 390.1 542.2C395.4 540.7 400.8 539 406 537.2C408.1 536.5 410.4 537.6 411.1 539.7C411.8 541.8 410.7 544.1 408.6 544.8C403.2 546.7 397.7 548.4 392.2 550C391.8 550 391.4 550 391.1 550ZM230.4 547.5C230 547.5 229.6 547.4 229.2 547.3C223.7 545.6 218.3 543.7 212.9 541.7C210.8 540.9 209.8 538.6 210.6 536.5C211.4 534.4 213.7 533.4 215.8 534.2C221 536.2 226.3 538 231.6 539.7C233.7 540.4 234.9 542.6 234.2 544.7C233.7 546.4 232.1 547.5 230.4 547.5ZM424.9 538C423.4 538 421.9 537.1 421.2 535.6C420.3 533.6 421.3 531.2 423.3 530.3C428.4 528.1 433.5 525.7 438.4 523.2C440.4 522.2 442.8 523 443.8 525C444.8 527 444 529.4 442 530.4C436.9 533 431.7 535.4 426.4 537.7C426 537.9 425.5 538 424.9 538ZM196.8 534.6C196.2 534.6 195.7 534.5 195.1 534.2C189.9 531.8 184.7 529.2 179.7 526.5C177.8 525.5 177 523 178.1 521.1C179.1 519.2 181.6 518.4 183.5 519.5C188.4 522.1 193.5 524.6 198.5 526.9C200.5 527.8 201.4 530.2 200.5 532.2C199.8 533.7 198.3 534.6 196.8 534.6ZM456.9 521.6C455.5 521.6 454.2 520.9 453.5 519.7C452.4 517.8 453 515.3 454.9 514.2C459.7 511.3 464.4 508.3 469 505.1C470.8 503.8 473.3 504.3 474.6 506.1C475.9 507.9 475.4 510.4 473.6 511.7C468.9 514.9 464 518.1 459.1 521C458.3 521.4 457.6 521.6 456.9 521.6ZM165.1 517.5C164.4 517.5 163.6 517.3 163 516.9C158.1 513.9 153.3 510.6 148.7 507.3C146.9 506 146.5 503.5 147.8 501.7C149.1 499.9 151.6 499.5 153.4 500.8C157.9 504 162.6 507.2 167.3 510.1C169.2 511.3 169.7 513.7 168.6 515.6C167.8 516.9 166.5 517.5 165.1 517.5ZM486.4 501C485.2 501 484.1 500.5 483.3 499.5C481.9 497.8 482.2 495.3 483.9 493.9C488.2 490.4 492.5 486.7 496.6 483C498.2 481.5 500.8 481.6 502.3 483.2C503.8 484.8 503.7 487.4 502.1 488.9C497.9 492.8 493.5 496.5 489 500.1C488.2 500.8 487.3 501 486.4 501ZM135.9 496.4C135 496.4 134.1 496.1 133.4 495.5C129 491.8 124.6 488 120.4 484.1C118.8 482.6 118.7 480.1 120.2 478.4C121.7 476.8 124.2 476.7 125.9 478.2C130 482 134.2 485.7 138.5 489.3C140.2 490.7 140.4 493.2 139 494.9C138.2 495.9 137.1 496.4 135.9 496.4ZM512.8 476.6C511.8 476.6 510.8 476.2 510.1 475.5C508.5 474 508.4 471.5 509.9 469.8C513.7 465.7 517.4 461.5 520.9 457.2C522.3 455.5 524.8 455.2 526.5 456.6C528.2 458 528.5 460.5 527.1 462.2C523.5 466.6 519.6 471 515.7 475.2C515 476.2 513.9 476.6 512.8 476.6ZM109.8 471.7C108.7 471.7 107.7 471.3 106.9 470.4C103 466.2 99.1998 461.8 95.5998 457.4C94.1998 455.7 94.4998 453.2 96.1998 451.8C97.8998 450.4 100.4 450.7 101.8 452.4C105.3 456.7 109 461 112.8 465C114.3 466.6 114.2 469.2 112.6 470.7C111.7 471.4 110.8 471.7 109.8 471.7ZM535.5 448.7C534.7 448.7 533.9 448.5 533.2 448C531.4 446.7 531 444.2 532.2 442.4C535.4 437.8 538.5 433.1 541.3 428.4C542.4 426.5 544.9 425.9 546.8 427C548.7 428.1 549.3 430.6 548.2 432.5C545.2 437.4 542.1 442.3 538.8 447C538 448.1 536.8 448.7 535.5 448.7ZM87.1998 443.7C85.8998 443.7 84.6998 443.1 83.8998 442C80.5998 437.3 77.3998 432.4 74.3998 427.6C73.1998 425.7 73.7998 423.3 75.6998 422.1C77.5998 420.9 79.9998 421.5 81.1998 423.4C84.0998 428.1 87.1998 432.8 90.3998 437.4C91.6998 439.2 91.1998 441.7 89.3998 443C88.7998 443.5 87.9998 443.7 87.1998 443.7ZM554 417.9C553.4 417.9 552.8 417.8 552.2 417.5C550.2 416.5 549.4 414.1 550.4 412.1C552.9 407.1 555.2 402 557.4 396.9C558.3 394.9 560.6 393.9 562.6 394.8C564.6 395.7 565.6 398 564.7 400C562.5 405.3 560.1 410.6 557.5 415.7C556.9 417.1 555.5 417.9 554 417.9ZM68.5998 412.9C67.0998 412.9 65.6998 412.1 64.9998 410.7C62.3998 405.6 59.8998 400.3 57.5998 395.1C56.6998 393.1 57.6998 390.7 59.6998 389.8C61.6998 388.9 64.0998 389.9 64.9998 391.9C67.1998 397 69.5998 402.1 72.0998 407C73.0998 409 72.2998 411.4 70.3998 412.4C69.7998 412.8 69.1998 412.9 68.5998 412.9ZM567.7 384.6C567.3 384.6 566.9 384.5 566.4 384.4C564.3 383.7 563.2 381.4 563.9 379.4C565.6 374.1 567.2 368.7 568.6 363.4C569.1 361.3 571.3 360 573.5 360.5C575.6 361 576.9 363.2 576.4 365.4C575 371 573.4 376.5 571.6 382C571 383.5 569.4 384.6 567.7 384.6ZM54.3998 379.9C52.6998 379.9 51.1998 378.9 50.5998 377.2C48.6998 371.8 46.9998 366.2 45.4998 360.7C44.8998 358.6 46.1998 356.4 48.2998 355.8C50.3998 355.2 52.5998 356.5 53.1998 358.6C54.6998 363.9 56.2998 369.3 58.0998 374.6C58.7998 376.7 57.6998 379 55.5998 379.7C55.2998 379.8 54.8998 379.9 54.3998 379.9ZM576.5 349.7C576.3 349.7 576 349.7 575.8 349.6C573.6 349.2 572.2 347.2 572.5 345C573.5 339.5 574.2 334 574.8 328.4C575 326.2 577 324.6 579.2 324.8C581.4 325 583 327 582.8 329.2C582.2 334.9 581.4 340.7 580.4 346.3C580.1 348.4 578.4 349.7 576.5 349.7ZM45.0998 345.1C43.1998 345.1 41.4998 343.8 41.1998 341.8C40.0998 336.2 39.1998 330.4 38.5998 324.8C38.2998 322.6 39.8998 320.6 42.0998 320.4C44.2998 320.1 46.2998 321.7 46.4998 323.9C47.1998 329.4 47.9998 334.9 49.0998 340.4C49.4998 342.6 48.0998 344.7 45.8998 345.1C45.5998 345.1 45.3998 345.1 45.0998 345.1ZM580 313.9C577.7 313.8 575.9 312 576 309.8C576.1 307.8 576.1 305.7 576.1 303.6C576.1 300.1 576 296.5 575.9 293C575.8 290.8 577.5 288.9 579.7 288.8C581.9 288.7 583.8 290.4 583.9 292.6C584.1 296.2 584.1 299.9 584.1 303.5C584.1 305.6 584.1 307.8 584 309.9C583.9 312.2 582.2 313.9 580 313.9ZM40.9998 309.4C38.8998 309.4 37.0998 307.7 36.9998 305.6C36.8998 302.2 36.7998 298.7 36.7998 295.3C36.7998 293 36.7998 290.7 36.8998 288.4C36.9998 286.2 38.7998 284.5 40.9998 284.5C43.1998 284.6 44.8998 286.4 44.8998 288.6C44.7998 290.8 44.7998 293.1 44.7998 295.3C44.7998 298.6 44.8998 302 44.9998 305.3C45.0998 307.5 43.3998 309.4 41.1998 309.5C41.0998 309.4 41.0998 309.4 40.9998 309.4ZM578.3 278C576.3 278 574.6 276.5 574.3 274.5C573.6 269 572.8 263.4 571.7 258C571.3 255.8 572.7 253.7 574.9 253.3C577.1 252.9 579.2 254.3 579.6 256.5C580.7 262.1 581.6 267.9 582.3 273.5C582.6 275.7 581 277.7 578.8 278C578.6 278 578.4 278 578.3 278ZM42.1998 273.5C42.0998 273.5 41.8998 273.5 41.7998 273.5C39.5998 273.3 37.9998 271.3 38.1998 269.1C38.7998 263.4 39.5998 257.7 40.5998 252C40.9998 249.8 43.0998 248.4 45.1998 248.8C47.3998 249.2 48.7998 251.3 48.3998 253.4C47.3998 258.9 46.5998 264.5 46.0998 270C45.8998 272 44.1998 273.5 42.1998 273.5ZM571.3 242.8C569.5 242.8 567.9 241.6 567.4 239.9C565.9 234.6 564.3 229.2 562.4 223.9C561.7 221.8 562.8 219.5 564.9 218.8C567 218.1 569.3 219.2 570 221.3C571.9 226.7 573.6 232.3 575.1 237.8C575.7 239.9 574.4 242.1 572.3 242.7C572 242.7 571.7 242.8 571.3 242.8ZM48.4998 238.1C48.1998 238.1 47.7998 238.1 47.4998 238C45.3998 237.5 44.0998 235.3 44.5998 233.1C45.9998 227.5 47.6998 222 49.4998 216.5C50.1998 214.4 52.4998 213.3 54.5998 214C56.6998 214.7 57.7998 217 57.0998 219.1C55.3998 224.4 53.7998 229.8 52.3998 235.1C51.8998 236.9 50.2998 238.1 48.4998 238.1ZM559.4 208.9C557.9 208.9 556.4 208 555.7 206.5C553.5 201.4 551.1 196.3 548.5 191.4C547.5 189.4 548.3 187 550.2 186C552.2 185 554.6 185.8 555.6 187.7C558.2 192.8 560.7 198 563 203.3C563.9 205.3 563 207.7 560.9 208.6C560.4 208.8 559.9 208.9 559.4 208.9ZM59.9998 204C59.4998 204 58.9998 203.9 58.4998 203.7C56.4998 202.8 55.4998 200.5 56.3998 198.5C58.5998 193.2 61.0998 187.9 63.6998 182.8C64.6998 180.8 67.0998 180 69.0998 181C71.0998 182 71.8998 184.4 70.8998 186.4C68.3998 191.4 65.9998 196.5 63.8998 201.6C62.9998 203.1 61.5998 204 59.9998 204ZM542.7 177C541.4 177 540 176.3 539.3 175.1C536.4 170.4 533.3 165.7 530.1 161.1C528.8 159.3 529.3 156.8 531.1 155.5C532.9 154.2 535.4 154.7 536.7 156.5C540 161.2 543.2 166 546.2 170.9C547.4 172.8 546.8 175.2 544.9 176.4C544.2 176.8 543.4 177 542.7 177ZM76.3998 172C75.6998 172 74.9998 171.8 74.2998 171.4C72.3998 170.3 71.7998 167.8 72.9998 165.9C75.9998 161 79.1998 156.1 82.4998 151.4C83.7998 149.6 86.2998 149.2 88.0998 150.4C89.8998 151.7 90.2998 154.2 89.0998 156C85.8998 160.5 82.7998 165.3 79.8998 170C78.9998 171.3 77.6998 172 76.3998 172ZM521.9 147.6C520.7 147.6 519.6 147.1 518.8 146.1C515.3 141.8 511.6 137.6 507.8 133.5C506.3 131.9 506.4 129.4 508 127.8C509.6 126.2 512.1 126.4 513.7 128C517.6 132.2 521.4 136.6 525.1 141C526.5 142.7 526.2 145.2 524.5 146.6C523.7 147.3 522.8 147.6 521.9 147.6ZM97.1998 142.7C96.2998 142.7 95.3998 142.4 94.6998 141.8C92.9998 140.4 92.7998 137.9 94.1998 136.2C97.7998 131.8 101.7 127.4 105.6 123.3C107.1 121.7 109.6 121.6 111.3 123.1C112.9 124.6 113 127.1 111.5 128.8C107.7 132.8 104 137.1 100.4 141.3C99.4998 142.2 98.2998 142.7 97.1998 142.7ZM497.3 121.4C496.3 121.4 495.3 121 494.6 120.3C490.5 116.5 486.3 112.8 482 109.2C480.3 107.8 480.1 105.3 481.5 103.6C482.9 101.9 485.4 101.7 487.1 103.1C491.5 106.7 495.9 110.6 500.1 114.5C501.7 116 501.8 118.5 500.3 120.2C499.4 121 498.3 121.4 497.3 121.4ZM122 116.6C120.9 116.6 119.8 116.2 119 115.3C117.5 113.7 117.6 111.1 119.3 109.6C123.5 105.7 127.9 102 132.4 98.4001C134.1 97.0001 136.6 97.3001 138 99.0001C139.4 100.7 139.1 103.2 137.4 104.6C133.1 108.1 128.8 111.7 124.7 115.5C123.9 116.3 123 116.6 122 116.6ZM469.4 98.6001C468.6 98.6001 467.8 98.4001 467.1 97.9001C462.6 94.7001 457.9 91.5001 453.2 88.6001C451.3 87.4001 450.8 85.0001 451.9 83.1001C453.1 81.2001 455.5 80.7001 457.4 81.8001C462.3 84.8001 467.1 88.1001 471.8 91.4001C473.6 92.7001 474 95.2001 472.7 97.0001C471.9 98.0001 470.6 98.6001 469.4 98.6001ZM150.2 94.3001C148.9 94.3001 147.7 93.7001 146.9 92.6001C145.6 90.8001 146.1 88.3001 147.9 87.0001C152.6 83.8001 157.5 80.6001 162.4 77.7001C164.3 76.6001 166.8 77.2001 167.9 79.1001C169 81.0001 168.4 83.5001 166.5 84.6001C161.7 87.5001 157 90.5001 152.4 93.6001C151.7 94.0001 150.9 94.3001 150.2 94.3001ZM438.8 79.7001C438.2 79.7001 437.5 79.5001 436.9 79.2001C432 76.6001 426.9 74.1001 421.9 71.8001C419.9 70.9001 419 68.5001 419.9 66.5001C420.8 64.5001 423.2 63.6001 425.2 64.5001C430.4 66.9001 435.6 69.4001 440.7 72.1001C442.6 73.1001 443.4 75.6001 442.4 77.5001C441.6 78.9001 440.2 79.7001 438.8 79.7001ZM181.1 75.9001C179.6 75.9001 178.2 75.1001 177.5 73.7001C176.5 71.7001 177.3 69.3001 179.3 68.3001C184.4 65.7001 189.7 63.3001 194.9 61.0001C196.9 60.1001 199.3 61.1001 200.2 63.1001C201.1 65.1001 200.1 67.5001 198.1 68.4001C193 70.6001 187.9 73.0001 182.9 75.5001C182.3 75.8001 181.7 75.9001 181.1 75.9001ZM406 64.8001C405.5 64.8001 405.1 64.7001 404.6 64.5001C399.4 62.5001 394.1 60.7001 388.8 59.1001C386.7 58.4001 385.5 56.2001 386.2 54.1001C386.9 52.0001 389.1 50.8001 391.2 51.5001C396.7 53.2001 402.2 55.1001 407.5 57.1001C409.6 57.9001 410.6 60.2001 409.8 62.3001C409.2 63.9001 407.6 64.8001 406 64.8001ZM214.2 61.9001C212.5 61.9001 211 60.9001 210.4 59.2001C209.7 57.1001 210.8 54.8001 212.9 54.1001C218.3 52.2001 223.8 50.5001 229.3 48.9001C231.4 48.3001 233.6 49.5001 234.2 51.7001C234.8 53.8001 233.6 56.0001 231.4 56.6001C226.1 58.1001 220.7 59.8001 215.4 61.6001C215.1 61.8001 214.6 61.9001 214.2 61.9001ZM371.6 54.3001C371.3 54.3001 371 54.3001 370.7 54.2001C365.3 52.9001 359.8 51.8001 354.3 50.8001C352.1 50.4001 350.7 48.3001 351.1 46.2001C351.5 44.0001 353.6 42.6001 355.7 43.0001C361.3 44.0001 367 45.2001 372.6 46.5001C374.7 47.0001 376.1 49.2001 375.6 51.3001C375.1 53.1001 373.4 54.3001 371.6 54.3001ZM248.8 52.3001C246.9 52.3001 245.3 51.0001 244.9 49.1001C244.5 46.9001 245.8 44.8001 248 44.4001C253.6 43.2001 259.3 42.2001 265 41.4001C267.2 41.1001 269.2 42.6001 269.5 44.8001C269.8 47.0001 268.3 49.0001 266.1 49.3001C260.6 50.1001 255 51.1001 249.6 52.2001C249.3 52.3001 249.1 52.3001 248.8 52.3001ZM337.3 48.3001C337.1 48.3001 337 48.3001 336.8 48.3001C331.3 47.7001 325.6 47.2001 320.1 46.9001C317.9 46.8001 316.2 44.9001 316.3 42.7001C316.4 40.5001 318.3 38.8001 320.5 38.9001C326.2 39.2001 332 39.7001 337.7 40.3001C339.9 40.5001 341.5 42.5001 341.2 44.7001C341.1 46.8001 339.3 48.3001 337.3 48.3001ZM284.4 47.3001C282.3 47.3001 280.6 45.7001 280.4 43.6001C280.2 41.4001 281.9 39.5001 284.1 39.3001C289.8 38.9001 295.6 38.6001 301.3 38.5001C303.5 38.4001 305.3 40.2001 305.4 42.4001C305.4 44.6001 303.7 46.4001 301.5 46.5001C295.9 46.6001 290.3 46.8001 284.8 47.2001C284.6 47.3001 284.5 47.3001 284.4 47.3001Z" fill="url(#paint3_linear_532_667)"/>
<path d="M364 121.2H356V91.0002C356 77.1002 344.7 65.7002 330.7 65.7002C316.7 65.7002 305.5 77.1002 305.5 91.0002V121.1H297.5V91.0002C297.5 72.7002 312.4 57.7002 330.8 57.7002C349.2 57.7002 364 72.7002 364 91.0002V121.2Z" fill="#424A60"/>
<path d="M534.7 435.2H119.7C114.7 435.2 110.7 431.2 110.7 426.2V143.9C110.7 138.9 114.7 134.9 119.7 134.9H534.7C539.7 134.9 543.7 138.9 543.7 143.9V426.2C543.8 431.2 539.7 435.2 534.7 435.2Z" fill="#41494A"/>
<path d="M154.4 407.2V162.8C154.4 161.2 155.7 159.8 157.4 159.8H514.1C515.7 159.8 517.1 161.1 517.1 162.8V407.2C517.1 408.8 515.8 410.2 514.1 410.2H157.3C155.7 410.2 154.4 408.9 154.4 407.2Z" fill="#EAF6F6"/>
<path d="M381.4 117.8H280.2V194.4H381.4V117.8Z" fill="#EBBA16"/>
<path d="M381.4 181.1H280.2V194.5H381.4V181.1Z" fill="#38454F"/>
<path d="M330.8 165.6C327.2 165.6 324.3 162.7 324.3 159.1V143.2C324.3 139.6 327.2 136.7 330.8 136.7C334.4 136.7 337.3 139.6 337.3 143.2V159.1C337.3 162.7 334.4 165.6 330.8 165.6Z" fill="#424A60"/>
<path d="M132.6 304.8C124.5 304.8 118 298.3 118 290.2V284C118 275.9 124.5 269.4 132.6 269.4C140.7 269.4 147.2 275.9 147.2 284V290.2C147.2 298.2 140.7 304.8 132.6 304.8Z" fill="#27292A"/>
<path d="M116.4 481.2C57.3 462.6 44.1 417.7 41.3 396.8C38.5 375.9 38.5 355.8 38.5 342.1C38.5 328.4 48.8 321.2 56.6 321.2C64.4 321.2 71.8 323.5 88.6 314.5C105.4 305.5 110.8 296.7 116.5 296.7V481.2H116.4Z" fill="#00DD7A"/>
<path d="M116.4 481.2C175.5 462.6 188.7 417.7 191.5 396.8C194.3 375.9 194.3 355.8 194.3 342.1C194.3 328.4 184 321.2 176.2 321.2C168.5 321.2 161 323.5 144.2 314.5C127.4 305.5 122 296.7 116.3 296.7V481.2H116.4Z" fill="#00AA5C"/>
<path d="M116.4 434.6C141.64 434.6 162.1 414.14 162.1 388.9C162.1 363.661 141.64 343.2 116.4 343.2C91.1608 343.2 70.7002 363.661 70.7002 388.9C70.7002 414.14 91.1608 434.6 116.4 434.6Z" fill="white"/>
<path d="M116.4 434.6C141.6 434.6 162.1 414.1 162.1 388.9C162.1 363.7 141.6 343.2 116.4 343.2V434.6Z" fill="#DEEBF1"/>
<path d="M109.3 408C108 408 106.7 407.5 105.8 406.5L96.1001 396.8C94.1001 394.8 94.1001 391.7 96.1001 389.7C98.1001 387.7 101.2 387.7 103.2 389.7L109.4 395.9L131.1 374.2C133.1 372.2 136.2 372.2 138.2 374.2C140.2 376.2 140.2 379.3 138.2 381.3L112.9 406.6C111.8 407.5 110.5 408 109.3 408Z" fill="#4DA6AB"/>
<path d="M205.3 264.4C213.6 257.6 222.2 251.2 230.9 244.9C239.6 238.6 248.6 232.7 257.8 227.1C262.4 224.3 267.1 221.7 272 219.3C276.9 216.9 281.8 214.7 287 212.9C289.6 212 292.2 211.2 294.9 210.6C297.6 210 300.4 209.6 303.3 209.6C306.2 209.6 309.2 210.1 312 211.8C313.3 212.6 314.6 213.7 315.5 215C316.4 216.3 317.1 217.7 317.5 219.2C318.4 222.1 318.5 225 318.4 227.8C318.3 229.2 318.2 230.6 318 231.9C317.8 233.2 317.7 234.6 317.4 235.9C316.5 241.3 315.3 246.5 313.9 251.8C311.1 262.2 307.5 272.4 303.3 282.4C301.2 287.4 299 292.3 296.6 297.1C294.2 301.9 291.6 306.7 288.9 311.3C286.2 315.9 283.4 320.6 280 324.9C278.3 327.1 276.5 329.2 274.3 331.1C273.8 331.6 273.2 332 272.6 332.5C272 332.9 271.4 333.3 270.7 333.7C270 334 269.4 334.4 268.6 334.6L267.5 335L266.4 335.2L265.8 335.3H265.2L264 335.4C263.1 335.4 262.2 335.2 261.3 334.9C260.4 334.5 259.7 334 259.1 333.3C258.5 332.7 258 332 257.7 331.2C257 329.8 256.6 328.3 256.3 326.9C256 325.5 255.9 324 255.8 322.6C255.7 319.8 255.9 317 256.3 314.3C256.8 311.6 257.3 308.8 258.6 306.1C259.9 303.5 261.7 301.2 263.7 299.2C265.7 297.2 268 295.5 270.5 294.1C273 292.7 275.7 291.7 278.6 291.3C280 291.1 281.6 291 283 291.2C283.7 291.3 284.4 291.3 285.1 291.4C285.8 291.5 286.5 291.6 287.2 291.8C290 292.4 292.8 293.4 295.2 295.1C296.4 296 297.6 297 298.5 298.3C299 298.9 299.3 299.6 299.7 300.3C300 301 300.3 301.8 300.4 302.5C300.6 303.3 300.7 304 300.7 304.8C300.7 305.6 300.7 306.3 300.6 307.1C300.5 308.5 300.2 309.9 300 311.2C299.7 312.5 299.4 313.9 299.1 315.2C298.8 316.5 298.5 317.8 298.4 318.9C298.4 319.2 298.4 319.4 298.4 319.6C298.4 319.8 298.5 319.9 298.4 319.8C298.3 319.7 298.1 319.6 298.1 319.6C298.1 319.6 298.3 319.6 298.5 319.5C299.4 319.3 300.6 318.6 301.7 318C303.9 316.7 305.8 315.1 307.6 313.3C309.4 311.4 311 309.4 312.6 307.2L315.1 304C316 302.9 317.1 301.8 318.3 300.9C319.5 300 320.9 299.3 322.5 298.9C323.3 298.7 324.2 298.7 325 298.8C325.9 299 326.8 299.2 327.6 299.9C328 300.2 328.3 300.6 328.6 301C328.8 301.4 329.1 301.8 329.2 302.3L329.4 303C329.4 303.2 329.5 303.4 329.5 303.6C329.5 303.8 329.6 304.1 329.6 304.2V304.7C329.6 306.1 329.6 307.5 329.5 308.8C329.5 309.5 329.5 310.1 329.5 310.7C329.5 311 329.5 311.3 329.5 311.6C329.5 311.7 329.5 311.8 329.5 311.9C329.5 312 329.6 312 329.5 311.9C329.5 311.9 329.5 311.8 329.4 311.8C329.3 311.7 329.3 311.7 329.1 311.6C328.9 311.5 328.5 311.4 328.4 311.5C328.1 311.6 328.1 311.6 328.1 311.6C328.2 311.5 328.4 311.3 328.6 311.1L329.9 309.6C331.7 307.6 333.4 305.5 335.3 303.6C335.8 303.1 336.3 302.6 336.9 302.1C337.2 301.9 337.5 301.6 337.8 301.4C338 301.3 338.2 301.2 338.4 301.1C338.5 301 338.6 301 338.8 300.9C338.9 300.8 339.1 300.8 339.3 300.8C339.4 300.8 339.5 300.8 339.6 300.8C339.8 300.8 339.9 300.8 340.1 300.9C340.4 300.9 340.8 301.2 341.1 301.5C341.3 301.7 341.4 302 341.5 302.2C341.5 302.4 341.6 302.6 341.6 302.7C341.6 303.3 341.6 303.6 341.6 303.9L341.5 305.9C341.4 307.2 341.3 308.5 341.4 309.8C341.4 310.1 341.4 310.4 341.5 310.7C341.5 310.9 341.6 311.2 341.6 311.2C341.6 311.2 341.6 311 341.1 310.8C340.7 310.6 340.4 310.8 340.4 310.8C340.4 310.8 340.6 310.7 340.7 310.4C341 310 341.4 309.4 341.7 308.9L342.7 307.2C343.4 306 344.1 304.9 344.8 303.7C345.5 302.6 346.3 301.4 347.1 300.3C347.5 299.7 348 299.2 348.5 298.7C349 298.2 349.5 297.6 350.4 297.1C350.8 296.9 351.5 296.6 352.3 296.8C352.7 296.9 353.1 297.2 353.3 297.4C353.4 297.5 353.5 297.6 353.6 297.8C353.7 297.9 353.8 298.1 353.8 298.2C354.2 299.1 354.3 299.9 354.4 300.5L355 304.5C355.2 305.8 355.4 307.1 355.7 308.3C356 309.5 356.5 310.7 357.1 311.3C357.2 311.4 357.3 311.5 357.4 311.5C357.5 311.5 357.6 311.5 357.8 311.5C358.1 311.4 358.6 311.1 359.1 310.8C359.5 310.4 360 310 360.5 309.5L361.9 308.1C363.8 306.2 365.8 304.4 367.8 302.6C371.9 299 376.1 295.6 381.1 293.2C382.3 292.6 383.6 292.1 385 291.7C386.4 291.3 387.8 291.1 389.3 291.1C390.8 291.1 392.3 291.4 393.6 292.1C394.9 292.8 396.1 293.8 397 294.9C397.4 295.3 397.3 296 396.9 296.3C396.5 296.7 395.9 296.6 395.5 296.2C394.7 295.3 393.8 294.5 392.7 294C391.7 293.5 390.5 293.2 389.3 293.2C386.9 293.2 384.4 294 382.1 295.2C377.5 297.5 373.3 300.9 369.4 304.4C367.4 306.2 365.5 308 363.7 309.9L362.3 311.3C361.8 311.8 361.4 312.3 360.8 312.8C360.2 313.3 359.5 313.8 358.6 314C358.1 314.1 357.6 314.2 357 314C356.4 313.9 356 313.6 355.6 313.3C354.9 312.6 354.5 311.9 354.2 311.2C353.9 310.5 353.7 309.8 353.5 309.1C353.1 307.7 352.9 306.4 352.7 305L352.1 301C352 300.3 351.9 299.7 351.7 299.4C351.6 299.3 351.6 299.3 351.8 299.4C352 299.4 352 299.4 351.8 299.5C351.5 299.7 351 300.1 350.6 300.5C350.2 300.9 349.8 301.4 349.4 302C348.6 303 347.9 304.1 347.2 305.2C346.5 306.3 345.8 307.5 345.2 308.6L344.2 310.3C343.8 310.9 343.5 311.5 343 312.2C342.7 312.5 342.5 312.9 341.9 313.2C341.7 313.4 341 313.7 340.2 313.4C339.4 313.1 339.2 312.6 339.1 312.3C338.8 311.7 338.8 311.3 338.7 310.9C338.6 310.5 338.6 310.1 338.6 309.8C338.6 308.4 338.6 307 338.7 305.6L338.8 303.6C338.8 303.3 338.8 302.9 338.8 302.8C338.8 302.8 338.8 302.8 338.8 302.9C338.8 303 338.9 303.1 339 303.2C339.1 303.4 339.4 303.5 339.5 303.5C339.6 303.5 339.7 303.5 339.8 303.5H339.9C340.1 303.5 339.8 303.5 339.6 303.7C339.4 303.8 339.2 304 338.9 304.2C338.4 304.6 338 305 337.5 305.5C335.7 307.3 334 309.4 332.2 311.4L330.9 312.9C330.6 313.2 330.5 313.4 330 313.8C329.8 314 329.5 314.2 328.9 314.3C328.6 314.4 328 314.3 327.7 314.1C327.5 314 327.3 313.9 327.2 313.7C327.1 313.6 327 313.4 326.9 313.4C326.6 313 326.6 312.7 326.5 312.5C326.4 312.3 326.4 312 326.4 311.8C326.4 311.4 326.3 311 326.3 310.7C326.3 310 326.3 309.3 326.3 308.6C326.3 307.3 326.4 305.9 326.3 304.7V304.2C326.3 304 326.3 304 326.3 303.8V303.5C326.3 303.4 326.2 303.3 326.2 303.2C326.2 303 326 302.9 325.9 302.7C325.8 302.6 325.7 302.4 325.5 302.3C325.2 302 324.8 302 324.4 301.9C323.9 301.9 323.5 301.9 322.9 302C321.9 302.2 320.8 302.8 319.9 303.4C319 304.1 318.1 305 317.4 305.9L315 309.1C313.4 311.2 311.7 313.4 309.8 315.5C307.9 317.5 305.7 319.4 303.3 320.8C302.1 321.5 300.9 322.2 299.3 322.7C298.8 322.8 298.4 322.9 297.7 322.8C297.5 322.8 297.4 322.8 297.2 322.7C297 322.6 296.8 322.6 296.6 322.5C296.2 322.3 295.9 322 295.6 321.7C295.1 321 295.1 320.5 295 320C294.9 319.5 295 319.1 295 318.7C295.1 317.1 295.4 315.8 295.7 314.5C296 313.2 296.3 311.9 296.5 310.6C296.8 309.3 297 308 297.1 306.8C297.1 306.2 297.2 305.6 297.1 305.1C297 304.5 297 304 296.8 303.4C296.7 302.8 296.5 302.3 296.3 301.8C296 301.3 295.8 300.8 295.4 300.4C294.8 299.5 293.9 298.7 292.9 298C291 296.7 288.6 295.8 286.1 295.3C285.5 295.2 284.9 295.1 284.2 295C283.6 294.9 282.9 294.9 282.3 294.8C281 294.7 279.9 294.8 278.7 294.9C276.3 295.3 274 296.1 271.8 297.4C267.5 299.8 263.6 303.5 261.4 307.9C260.4 310 259.8 312.6 259.4 315.1C259 317.6 258.8 320.2 258.9 322.8C259 325.3 259.4 327.9 260.4 329.8C260.6 330.3 260.9 330.7 261.2 331C261.5 331.3 261.9 331.6 262.2 331.7C262.6 331.9 263 331.9 263.4 331.9L264.2 331.8H264.6L265 331.7C267.2 331.3 269.3 330.1 271.1 328.5C273 326.9 274.7 324.9 276.2 322.8C279.4 318.7 282.1 314.1 284.8 309.5C287.5 304.9 290 300.3 292.4 295.5C294.7 290.7 296.9 285.9 299 281C303.1 271.2 306.6 261.1 309.3 250.9C310.7 245.8 311.9 240.6 312.7 235.4C312.9 234.1 313.1 232.8 313.3 231.5C313.5 230.2 313.6 228.9 313.7 227.7C313.8 225.2 313.7 222.7 313 220.4C312.6 219.3 312.2 218.3 311.6 217.4C311 216.5 310.2 215.8 309.2 215.2C307.3 214 304.9 213.6 302.5 213.6C297.5 213.6 292.4 214.9 287.5 216.6C282.5 218.3 277.7 220.4 272.9 222.8C268.2 225.2 263.5 227.6 258.9 230.3C249.7 235.6 240.7 241.5 231.9 247.5C223.1 253.5 214.4 259.8 205.9 266.2C205.5 266.5 204.8 266.4 204.5 266C204.9 265.3 204.9 264.7 205.3 264.4Z" fill="#636768"/>
<path d="M452.8 290.7L433.6 267.7C433.6 267.7 421.7 270.1 414.1 265.8C406.6 261.5 401.3 256.3 401.3 256.3L399.6 258L398.3 259.9L396.9 261.9C396.9 261.9 402.9 266.2 408.4 272.9C413.9 279.6 413.6 291.8 413.6 291.8L439.5 306.8L452.8 290.7Z" fill="#BEBEC0"/>
<path d="M425.967 279.81L424.133 282.184L442.884 296.676L444.719 294.303L425.967 279.81Z" fill="#000008"/>
<path d="M423.7 283.4C425.522 283.4 427 281.922 427 280.1C427 278.277 425.522 276.8 423.7 276.8C421.877 276.8 420.4 278.277 420.4 280.1C420.4 281.922 421.877 283.4 423.7 283.4Z" fill="#000008"/>
<path d="M452.8 284C456.4 281.5 458.3 281.8 460 284C461.7 286.2 466.7 292.5 466.7 292.5L477.8 283.5C477.8 283.5 477.8 283.5 474.7 279.1C471.6 274.7 474.7 269.3 477.5 266.2C480.3 263.1 481.5 262.1 486.9 261.6C492.3 261.1 514.9 259.9 520.2 259.3C525.5 258.7 527 258.1 530.3 259.3C533.5 260.5 550.9 266.8 555.6 268.2C560.2 269.6 563.7 271.6 565.3 275.2C566.9 278.8 584 319.2 586.8 325.4C589.6 331.6 592 332.9 589.6 337.3C587.3 341.7 552.3 423.7 552.3 423.7L553.7 451.8H472.4C472.4 451.8 471.2 439.7 465 427.5C459.4 416.4 456.2 404.5 452.2 398.9C448.2 393.3 420.2 359.8 416.7 356.1C413.2 352.4 410.8 349.1 412.3 344.9C413.8 340.6 424.3 312.6 425.7 308C427.1 303.4 427.8 302.8 431.5 299.6C431.7 299.5 449.2 286.5 452.8 284ZM509.3 380.8C513.9 376.4 533.6 347.3 537 342.5C540.5 337.7 541.5 332.6 539.1 330.5C536.6 328.4 521.2 311.7 518.3 308.6C515.5 305.5 506.8 312.7 498.7 316.6C490.6 320.5 465.2 344.2 463.1 347.1C461 350 461.7 352.8 464.4 355.3C467.1 357.8 501.2 383 501.3 383.4C501.4 383.2 504.7 385.2 509.3 380.8Z" fill="#FBDDBC"/>
<path d="M504 371.5L494.7 378.1L542 422.7L547.8 416.4L553.2 421.9L575 400.1L538.9 364.8H526.1L504 371.5Z" fill="#292E2D"/>
<path d="M534.9 366.5L492.6 321.9C492.6 321.9 487.2 325.4 484.8 326.5C482.4 327.6 478.2 326.4 476.2 324.8C474.3 323.3 474.1 323.2 472.1 324.5C470.1 325.9 466.9 327.1 463.2 327.1C459.5 327.1 458.6 329.4 462 333.2C465.4 337 514.7 386.1 514.7 386.1L534.9 366.5Z" fill="#3F4A54"/>
<path d="M575 449.9H459.4V482.9H575V449.9Z" fill="white"/>
<path d="M452.4 483C452.4 483 455.5 498 455.5 520.2C455.5 542.4 455.5 568.2 455.5 568.2C455.5 568.2 472 588.6 499.1 588.6C513.7 588.6 528.9 588.6 547.4 588.6C575.5 588.6 590.7 567.2 590.7 567.2V483H452.4Z" fill="#3A424F"/>
<path d="M476.8 515.3C482.323 515.3 486.8 510.823 486.8 505.3C486.8 499.777 482.323 495.3 476.8 495.3C471.277 495.3 466.8 499.777 466.8 505.3C466.8 510.823 471.277 515.3 476.8 515.3Z" fill="#FFFEFF"/>
<path d="M452.8 284C449.2 286.5 431.7 299.5 431.7 299.5C429.5 301.7 431.4 302.9 434.1 303.2C436.7 303.5 446.5 306.5 452.5 302.6C458.5 298.7 460.5 294.7 459 290C457.4 285.2 452.8 284 452.8 284Z" fill="#FDFDFD"/>
<path d="M587 326.5L537.3 281L531.1 275.3L528 272.4L526.5 270.9L525.7 270.1C525.5 269.9 525.3 269.6 525 269.4C524.5 269 524 268.8 523.4 268.6C522.8 268.5 522.2 268.5 521.5 268.6C520.2 268.8 518.9 269.2 517.6 269.6C515 270.5 512.3 271.5 509.7 272.5L478.1 284.3L477.4 282.4L509.1 271C511.8 270.1 514.4 269.1 517.1 268.2C518.5 267.8 519.8 267.3 521.3 267.1C522 267 522.8 267 523.6 267.1C524.4 267.3 525.2 267.7 525.8 268.2C526.1 268.5 526.4 268.7 526.6 269L527.3 269.7L528.8 271.2L531.8 274.1L537.9 279.9L587.1 326.1L587 326.5Z" fill="#F4C89E"/>
<defs>
<linearGradient id="paint0_linear_532_667" x1="133.3" y1="438.52" x2="496.216" y2="173.896" gradientUnits="userSpaceOnUse">
<stop stop-color="white" stop-opacity="0.1"/>
<stop offset="1" stop-color="white" stop-opacity="0.5"/>
</linearGradient>
<linearGradient id="paint1_linear_532_667" x1="141.739" y1="156.489" x2="435.538" y2="434.638" gradientUnits="userSpaceOnUse">
<stop stop-color="white" stop-opacity="0.5"/>
<stop offset="1" stop-color="white" stop-opacity="0.2"/>
</linearGradient>
<linearGradient id="paint2_linear_532_667" x1="404.434" y1="303.398" x2="243.131" y2="514.004" gradientUnits="userSpaceOnUse">
<stop stop-color="white" stop-opacity="0.1"/>
<stop offset="1" stop-color="white" stop-opacity="0.5"/>
</linearGradient>
<linearGradient id="paint3_linear_532_667" x1="75.6633" y1="421.063" x2="564.72" y2="167.753" gradientUnits="userSpaceOnUse">
<stop stop-color="white" stop-opacity="0.7"/>
<stop offset="1" stop-color="white"/>
</linearGradient>
</defs>
</svg>
