<svg width="621" height="599" viewBox="0 0 621 599" fill="none" xmlns="http://www.w3.org/2000/svg">
<ellipse cx="307.5" cy="311.488" rx="216.5" ry="215.5" stroke="url(#paint0_linear_389_676)" stroke-width="32"/>
<circle cx="306" cy="311.988" r="160" fill="url(#paint1_linear_389_676)"/>
<ellipse cx="327" cy="404.488" rx="170" ry="94.5" transform="rotate(-180 327 404.488)" stroke="url(#paint2_linear_389_676)" stroke-width="36"/>
<ellipse cx="310.439" cy="299.488" rx="270" ry="256.5" transform="rotate(10 310.439 299.488)" stroke="url(#paint3_linear_389_676)" stroke-width="8" stroke-linecap="round" stroke-linejoin="round" stroke-dasharray="0 19"/>
<path fill-rule="evenodd" clip-rule="evenodd" d="M495.613 274.743L501.723 275.52C504.16 275.813 506.003 277.889 506 280.347V287.627C506 290.087 504.157 292.164 501.71 292.457L495.613 293.233C495.109 294.78 494.491 296.279 493.763 297.699L497.537 302.555C499.064 304.524 498.885 307.297 497.124 309.006L492.005 314.125C490.315 315.87 487.539 316.049 485.573 314.522L480.714 310.748C479.294 311.473 477.799 312.094 476.248 312.598L475.471 318.708C475.179 321.145 473.102 322.988 470.642 322.988H463.361C460.904 322.988 458.824 321.145 458.532 318.698L457.755 312.601C456.205 312.1 454.71 311.48 453.289 310.752L448.434 314.525C446.464 316.049 443.692 315.874 441.982 314.115L436.863 308.996C435.118 307.303 434.939 304.528 436.467 302.561L440.24 297.702C439.515 296.282 438.894 294.787 438.391 293.237L432.28 292.46C429.843 292.167 428 290.09 428 287.63V280.35C428 277.889 429.843 275.813 432.29 275.52L438.391 274.743C438.894 273.193 439.512 271.698 440.24 270.278L436.467 265.422C434.939 263.452 435.118 260.677 436.879 258.967L441.998 253.851C443.692 252.106 446.467 251.931 448.43 253.455L453.286 257.228C454.706 256.5 456.201 255.883 457.755 255.379L458.532 249.269C458.824 246.831 460.901 244.988 463.361 244.988H470.642C473.102 244.988 475.179 246.831 475.471 249.278L476.248 255.379C477.802 255.883 479.297 256.504 480.717 257.228L485.57 253.455C487.539 251.931 490.315 252.106 492.021 253.868L497.14 258.987C498.885 260.677 499.064 263.452 497.537 265.419L493.763 270.278C494.488 271.698 495.109 273.193 495.613 274.743ZM450.751 283.99C450.751 292.951 458.041 300.241 467.002 300.241C475.962 300.241 483.252 292.951 483.252 283.99C483.252 275.029 475.962 267.739 467.002 267.739C458.041 267.739 450.751 275.029 450.751 283.99Z" fill="#39758D"/>
<path d="M467 244.988H463.36C460.9 244.988 458.823 246.831 458.531 249.269L457.754 255.379C456.2 255.882 454.705 256.5 453.285 257.228L448.43 253.455C447.533 252.759 446.47 252.418 445.413 252.418C444.159 252.418 442.918 252.902 441.998 253.851L436.879 258.967C435.117 260.676 434.939 263.452 436.466 265.421L440.24 270.277C439.512 271.697 438.894 273.192 438.39 274.742L432.29 275.519C429.843 275.811 428 277.888 428 280.348V287.628C428 290.089 429.843 292.165 432.28 292.458L438.39 293.235C438.894 294.785 439.515 296.28 440.24 297.7L436.466 302.559C434.939 304.525 435.118 307.301 436.863 308.994L441.981 314.113C442.911 315.071 444.159 315.559 445.42 315.559C446.473 315.559 447.536 315.218 448.433 314.525L453.288 310.752C454.708 311.48 456.203 312.101 457.754 312.601L458.531 318.698C458.823 321.146 460.903 322.988 463.36 322.988H467V300.238C458.04 300.238 450.75 292.949 450.75 283.988C450.75 275.028 458.04 267.738 467 267.738V244.988Z" fill="#1C5570"/>
<path fill-rule="evenodd" clip-rule="evenodd" d="M548.14 284.773L551.587 285.211C552.962 285.376 554.002 286.548 554 287.934V292.041C554 293.429 552.96 294.6 551.58 294.765L548.14 295.203C547.856 296.076 547.508 296.921 547.097 297.723L549.226 300.462C550.087 301.573 549.987 303.137 548.993 304.101L546.105 306.989C545.152 307.973 543.586 308.074 542.477 307.212L539.736 305.084C538.935 305.493 538.091 305.843 537.217 306.127L536.779 309.574C536.614 310.949 535.442 311.988 534.054 311.988H529.947C528.561 311.988 527.388 310.949 527.223 309.568L526.785 306.129C525.91 305.846 525.067 305.496 524.266 305.085L521.527 307.214C520.416 308.074 518.852 307.975 517.887 306.983L515 304.095C514.015 303.14 513.914 301.575 514.776 300.465L516.905 297.724C516.496 296.923 516.146 296.08 515.861 295.205L512.415 294.767C511.04 294.602 510 293.431 510 292.043V287.936C510 286.548 511.04 285.376 512.42 285.211L515.861 284.773C516.146 283.899 516.494 283.055 516.905 282.254L514.776 279.515C513.914 278.404 514.015 276.838 515.009 275.874L517.896 272.988C518.852 272.003 520.417 271.904 521.525 272.764L524.264 274.893C525.065 274.482 525.908 274.134 526.785 273.85L527.223 270.403C527.388 269.028 528.56 267.988 529.947 267.988H534.054C535.442 267.988 536.614 269.028 536.779 270.408L537.217 273.85C538.093 274.134 538.937 274.484 539.738 274.893L542.475 272.764C543.586 271.904 545.152 272.003 546.114 272.997L549.002 275.885C549.987 276.838 550.087 278.404 549.226 279.513L547.097 282.254C547.506 283.055 547.856 283.899 548.14 284.773ZM522.834 289.989C522.834 295.044 526.946 299.156 532.001 299.156C537.056 299.156 541.168 295.044 541.168 289.989C541.168 284.934 537.056 280.822 532.001 280.822C526.946 280.822 522.834 284.934 522.834 289.989Z" fill="#39758D"/>
<path d="M533 267.988H530.853C529.402 267.988 528.178 269.028 528.005 270.403L527.547 273.849C526.631 274.134 525.749 274.482 524.912 274.893L522.048 272.764C521.519 272.372 520.892 272.179 520.269 272.179C519.53 272.179 518.797 272.452 518.255 272.988L515.236 275.873C514.198 276.838 514.092 278.403 514.993 279.514L517.218 282.253C516.789 283.055 516.425 283.898 516.128 284.772L512.53 285.211C511.087 285.376 510 286.547 510 287.935V292.042C510 293.429 511.087 294.601 512.524 294.766L516.128 295.204C516.425 296.079 516.791 296.922 517.218 297.723L514.993 300.464C514.092 301.573 514.197 303.139 515.227 304.094L518.245 306.981C518.794 307.522 519.53 307.797 520.273 307.797C520.894 307.797 521.521 307.605 522.05 307.214L524.914 305.086C525.751 305.496 526.633 305.847 527.547 306.129L528.005 309.568C528.178 310.949 529.404 311.988 530.853 311.988H533V299.155C527.716 299.155 523.417 295.043 523.417 289.988C523.417 284.934 527.716 280.822 533 280.822V267.988Z" fill="#1C5570"/>
<path fill-rule="evenodd" clip-rule="evenodd" d="M520.005 238.433L522.355 238.731C523.292 238.844 524.001 239.643 524 240.588V243.388C524 244.334 523.291 245.133 522.35 245.245L520.005 245.544C519.811 246.139 519.574 246.715 519.294 247.262L520.745 249.129C521.332 249.887 521.264 250.953 520.586 251.611L518.617 253.579C517.967 254.251 516.9 254.319 516.143 253.732L514.275 252.281C513.728 252.559 513.153 252.798 512.557 252.992L512.258 255.342C512.146 256.28 511.347 256.988 510.401 256.988H507.601C506.656 256.988 505.855 256.28 505.743 255.338L505.444 252.993C504.848 252.801 504.273 252.562 503.727 252.282L501.859 253.733C501.102 254.319 500.035 254.252 499.378 253.576L497.409 251.607C496.738 250.956 496.669 249.888 497.256 249.132L498.708 247.263C498.429 246.717 498.19 246.142 497.996 245.545L495.646 245.247C494.709 245.134 494 244.335 494 243.389V240.589C494 239.643 494.709 238.844 495.65 238.731L497.996 238.433C498.19 237.836 498.428 237.261 498.708 236.715L497.256 234.847C496.669 234.09 496.738 233.022 497.415 232.365L499.384 230.397C500.035 229.726 501.103 229.658 501.858 230.245L503.725 231.696C504.272 231.416 504.847 231.178 505.444 230.985L505.743 228.635C505.855 227.697 506.654 226.988 507.601 226.988H510.401C511.347 226.988 512.146 227.697 512.258 228.638L512.557 230.985C513.155 231.178 513.73 231.417 514.276 231.696L516.142 230.245C516.9 229.658 517.967 229.726 518.624 230.403L520.592 232.372C521.264 233.022 521.332 234.09 520.745 234.846L519.294 236.715C519.572 237.261 519.811 237.836 520.005 238.433ZM502.75 241.989C502.75 245.435 505.554 248.239 509.001 248.239C512.447 248.239 515.251 245.435 515.251 241.989C515.251 238.543 512.447 235.739 509.001 235.739C505.554 235.739 502.75 238.543 502.75 241.989Z" fill="#39758D"/>
<path d="M509 226.988H507.6C506.654 226.988 505.855 227.697 505.743 228.635L505.444 230.985C504.846 231.178 504.271 231.416 503.725 231.696L501.858 230.245C501.513 229.977 501.104 229.846 500.698 229.846C500.215 229.846 499.738 230.032 499.384 230.397L497.415 232.365C496.737 233.022 496.669 234.09 497.256 234.847L498.707 236.715C498.427 237.261 498.19 237.836 497.996 238.432L495.65 238.731C494.709 238.843 494 239.642 494 240.588V243.388C494 244.335 494.709 245.133 495.646 245.246L497.996 245.545C498.19 246.141 498.429 246.716 498.707 247.262L497.256 249.131C496.669 249.887 496.738 250.955 497.409 251.606L499.378 253.575C499.735 253.943 500.215 254.131 500.7 254.131C501.105 254.131 501.514 254 501.859 253.733L503.726 252.282C504.273 252.562 504.848 252.801 505.444 252.993L505.743 255.338C505.855 256.28 506.655 256.988 507.6 256.988H509V248.238C505.554 248.238 502.75 245.435 502.75 241.988C502.75 238.542 505.554 235.738 509 235.738V226.988Z" fill="#1C5570"/>
<path d="M486.666 445.789V347.988H477.4C476.63 347.988 476 348.625 476 349.404V454.578C476 456.036 477.086 457.988 479.361 457.988H566.6C567.37 457.988 568 457.351 568 456.573V447.205L488.067 447.205C487.296 447.205 486.666 446.568 486.666 445.789Z" fill="#FFC240"/>
<path d="M480.542 349.404C480.542 348.625 481.198 347.988 482 347.988H476.458C475.656 347.988 475 348.625 475 349.404V454.724C475 456.599 476.763 457.988 478.5 457.988C480.156 457.988 480.542 457.988 480.542 457.988V349.404Z" fill="#FF984C"/>
<path d="M496.437 436.993C495.667 436.993 495.036 436.356 495.036 435.577V337.988H486.4C485.63 337.988 485 338.625 485 339.404V446.573C485 447.351 485.63 447.988 486.4 447.988H575.6C576.37 447.988 577 447.351 577 446.573V436.993H496.437Z" fill="#FF984C"/>
<path d="M489.696 446.573V339.404C489.696 338.625 490.283 337.988 491 337.988H486.304C485.587 337.988 485 338.625 485 339.404V446.573C485 447.351 485.587 447.988 486.304 447.988H491C490.283 447.988 489.696 447.351 489.696 446.573Z" fill="#EE8639"/>
<path d="M587 436.573C587 437.351 586.37 437.988 585.6 437.988H496.4C495.63 437.988 495 437.351 495 436.573V329.404C495 328.625 495.63 327.988 496.4 327.988H585.6C586.37 327.988 587 328.625 587 329.404V436.573Z" fill="#F9FCFC"/>
<path d="M500.591 436.573V329.404C500.591 328.625 501.225 327.988 502 327.988H496.409C495.634 327.988 495 328.625 495 329.404V436.573C495 437.351 495.634 437.988 496.409 437.988H502C501.225 437.988 500.591 437.351 500.591 436.573Z" fill="#ECF0F3"/>
<path d="M575.682 342.398H556.118C554.952 342.398 554.008 341.46 554.008 340.304C554.008 339.147 554.952 338.21 556.118 338.21H575.682C576.847 338.21 577.791 339.147 577.791 340.304C577.791 341.46 576.847 342.398 575.682 342.398Z" fill="#FF984C"/>
<path d="M575.682 349.516H556.118C554.952 349.516 554.008 348.579 554.008 347.422C554.008 346.266 554.952 345.329 556.118 345.329H575.682C576.847 345.329 577.791 346.266 577.791 347.422C577.791 348.579 576.847 349.516 575.682 349.516Z" fill="#FF984C"/>
<path d="M575.682 356.635H556.118C554.952 356.635 554.008 355.698 554.008 354.541C554.008 353.385 554.952 352.447 556.118 352.447H575.682C576.847 352.447 577.791 353.385 577.791 354.541C577.791 355.698 576.847 356.635 575.682 356.635Z" fill="#FF984C"/>
<path d="M575.682 363.754H556.118C554.952 363.754 554.008 362.817 554.008 361.66C554.008 360.504 554.952 359.566 556.118 359.566H575.682C576.847 359.566 577.791 360.504 577.791 361.66C577.791 362.817 576.847 363.754 575.682 363.754Z" fill="#FF984C"/>
<path d="M538.901 414.241H506.293C505.14 414.241 504.206 413.307 504.206 412.154C504.206 411.001 505.14 410.066 506.293 410.066H538.9C540.054 410.066 540.988 411.001 540.988 412.154C540.988 413.307 540.054 414.241 538.901 414.241Z" fill="#0A89BE"/>
<path d="M538.901 421.338H506.293C505.14 421.338 504.206 420.404 504.206 419.25C504.206 418.098 505.14 417.163 506.293 417.163H538.9C540.054 417.163 540.988 418.098 540.988 419.25C540.988 420.404 540.054 421.338 538.901 421.338Z" fill="#0A89BE"/>
<path d="M538.901 428.435H506.293C505.14 428.435 504.206 427.5 504.206 426.347C504.206 425.194 505.14 424.26 506.293 424.26H538.9C540.054 424.26 540.988 425.194 540.988 426.347C540.988 427.5 540.054 428.435 538.901 428.435Z" fill="#0A89BE"/>
<path d="M575.623 376.396H545.526C544.358 376.396 543.412 375.459 543.412 374.302C543.412 373.146 544.358 372.208 545.526 372.208H575.623C576.791 372.208 577.738 373.146 577.738 374.302C577.738 375.459 576.791 376.396 575.623 376.396Z" fill="#EC5353"/>
<path d="M575.623 383.515H545.526C544.358 383.515 543.412 382.577 543.412 381.421C543.412 380.265 544.358 379.327 545.526 379.327H575.623C576.791 379.327 577.738 380.265 577.738 381.421C577.738 382.577 576.791 383.515 575.623 383.515Z" fill="#EC5353"/>
<path d="M575.623 390.634H545.526C544.358 390.634 543.412 389.696 543.412 388.54C543.412 387.383 544.358 386.446 545.526 386.446H575.623C576.791 386.446 577.738 387.383 577.738 388.54C577.738 389.696 576.791 390.634 575.623 390.634Z" fill="#EC5353"/>
<path d="M575.623 397.752H545.526C544.358 397.752 543.412 396.815 543.412 395.658C543.412 394.502 544.358 393.564 545.526 393.564H575.623C576.791 393.564 577.738 394.502 577.738 395.658C577.738 396.815 576.791 397.752 575.623 397.752Z" fill="#EC5353"/>
<path d="M502.217 388.671H510.463C510.463 384.162 514.154 380.507 518.708 380.507V372.344C509.601 372.344 502.217 379.654 502.217 388.671Z" fill="#EC5353"/>
<path d="M523 367.988V375.988C527.418 375.988 531 379.57 531 383.988H539C539 375.151 531.836 367.988 523 367.988Z" fill="#A5E1E9"/>
<path d="M527.185 389.155C527.185 393.724 523.46 397.429 518.864 397.429C514.267 397.429 510.542 393.724 510.542 389.155H502.219C502.219 398.294 509.672 405.703 518.863 405.703C528.056 405.703 535.508 398.294 535.508 389.155H527.185Z" fill="#FFC240"/>
<path d="M511.779 360.68V340.919C511.779 340.452 511.394 340.07 510.925 340.07H505.75C505.281 340.07 504.896 340.452 504.896 340.919V360.68H511.779Z" fill="#FFC240"/>
<path d="M523 359.988V345.824C523 345.364 522.609 344.988 522.132 344.988H516.868C516.391 344.988 516 345.364 516 345.824V359.988H523Z" fill="#EC5353"/>
<path d="M534 360.988V352.864C534 352.382 533.609 351.988 533.132 351.988H527.868C527.391 351.988 527 352.382 527 352.864V360.988H534Z" fill="#5FDAAD"/>
<path d="M545 360.988V340.853C545 340.378 544.609 339.988 544.132 339.988H538.868C538.391 339.988 538 340.378 538 340.853V360.988H545Z" fill="#A5E1E9"/>
<path d="M566.193 418.052C566.193 417.572 566.584 417.181 567.064 417.181H571V407.44C571 406.641 570.347 405.988 569.549 405.988H556.451C555.653 405.988 555 406.641 555 407.44V420.537C555 421.335 555.653 421.988 556.451 421.988H566.193V418.052Z" fill="#EC5353"/>
<path d="M576 426.522C576 427.328 575.34 427.988 574.533 427.988H566.467C565.66 427.988 565 427.328 565 426.522V418.455C565 417.648 565.66 416.988 566.467 416.988H574.533C575.34 416.988 576 417.648 576 418.455V426.522Z" fill="#5FDAAD"/>
<path d="M546.888 363.988H504.112C502.946 363.988 502 363.093 502 361.988C502 360.883 502.946 359.988 504.112 359.988H546.888C548.054 359.988 549 360.883 549 361.988C549 363.093 548.054 363.988 546.888 363.988Z" fill="#0A89BE"/>
<path fill-rule="evenodd" clip-rule="evenodd" d="M156.103 284.444H455.897C462.029 284.444 467 289.421 467 295.56V473.41H145V295.56C145 289.421 149.971 284.444 156.103 284.444ZM450.345 456.736V334.464V301.118H161.655V334.464V456.736H450.345Z" fill="#184D5D"/>
<path d="M162.71 456.447H450.9V300.106H162.71V456.447Z" fill="#D1F6FB"/>
<path d="M162.71 456.447H450.9V300.106L162.71 456.447Z" fill="#A5E1E9"/>
<path fill-rule="evenodd" clip-rule="evenodd" d="M156.103 506.756C149.971 506.756 145 501.779 145 495.641V473.41H466.999V495.641C466.999 501.779 462.029 506.756 455.896 506.756H350.413H261.586H156.103ZM314.327 490.083C314.327 485.479 310.599 481.746 306 481.746C301.401 481.746 297.673 485.479 297.673 490.083C297.673 494.686 301.401 498.419 306 498.419C310.599 498.419 314.327 494.686 314.327 490.083Z" fill="#EEEFF3"/>
<path d="M256.729 545.662H355.272L351.802 517.873H260.198L256.729 545.662Z" fill="#D4D7DE"/>
<path d="M256.035 545.662C252.969 545.662 250.483 548.15 250.483 551.22C250.483 554.289 252.969 556.778 256.035 556.778H355.966C359.032 556.778 361.518 554.289 361.518 551.22C361.518 548.15 359.032 545.662 355.966 545.662H355.273H256.729H256.035Z" fill="#B6BEC1"/>
<path d="M260.198 517.872H351.802L350.414 506.757H261.586L260.198 517.872Z" fill="#B4B9C6"/>
<ellipse cx="306" cy="490.084" rx="8.32735" ry="8.33648" fill="#96A5B9"/>
<rect x="213" y="307.988" width="188" height="139" rx="7" fill="white"/>
<path d="M213 325.768H401V314.989C401 311.123 397.866 307.989 394 307.989H220C216.134 307.989 213 311.123 213 314.989V325.768Z" fill="#184D5D"/>
<rect x="264.419" y="314.454" width="122.12" height="4.84884" rx="1.5" fill="white"/>
<rect x="317.444" y="348.395" width="70.7009" height="75.9651" rx="1" fill="#FFAF10"/>
<rect x="225.854" y="350.012" width="38.5641" height="6.46512" rx="1.5" fill="#184D5D"/>
<rect x="225.854" y="416.279" width="38.5641" height="8.0814" rx="1.5" fill="#0A89BE"/>
<rect x="225.854" y="366.174" width="57.8462" height="4.84884" rx="1.5" fill="#184D5D"/>
<rect x="225.854" y="377.488" width="83.5556" height="4.84884" rx="1.5" fill="#184D5D"/>
<rect x="225.854" y="388.802" width="64.2735" height="4.84884" rx="1.5" fill="#184D5D"/>
<rect x="225.854" y="400.116" width="43.3846" height="4.84884" rx="1.5" fill="#184D5D"/>
<rect x="225.854" y="332.232" width="41.7778" height="4.84884" rx="1.5" fill="#0A89BE"/>
<rect x="291.735" y="332.232" width="25.7094" height="4.84884" rx="1.5" fill="#0A89BE"/>
<rect x="327.085" y="332.232" width="25.7094" height="4.84884" rx="1.5" fill="#0A89BE"/>
<rect x="362.436" y="332.232" width="25.7094" height="4.84884" rx="1.5" fill="#0A89BE"/>
<ellipse cx="226.658" cy="316.878" rx="2.41026" ry="2.42442" fill="white"/>
<ellipse cx="234.692" cy="316.878" rx="2.41026" ry="2.42442" fill="white"/>
<ellipse cx="242.727" cy="316.878" rx="2.41026" ry="2.42442" fill="white"/>
<path d="M414.593 442.246L399.175 426.838L406.681 419.39C407.315 418.756 407.58 417.805 407.368 416.907C407.157 416.009 406.523 415.322 405.624 415.005L360.796 400.056C359.844 399.739 358.787 400.003 358.1 400.742C357.36 401.429 357.096 402.486 357.413 403.437L372.373 448.233C372.69 449.131 373.377 449.765 374.276 449.976C375.175 450.188 376.126 449.924 376.761 449.29L384.214 441.788L399.633 457.196C400.69 458.252 402.382 458.252 403.386 457.196L414.593 445.997C415.65 444.993 415.65 443.303 414.593 442.246Z" fill="#646464" fill-opacity="0.2"/>
<path d="M416.207 434.182L400.788 418.774L408.295 411.326C408.929 410.692 409.194 409.741 408.982 408.843C408.771 407.945 408.136 407.258 407.237 406.941L362.41 391.991C361.458 391.674 360.401 391.938 359.714 392.678C358.974 393.365 358.709 394.421 359.026 395.372L373.987 440.169C374.304 441.067 374.991 441.701 375.89 441.912C376.789 442.123 377.74 441.859 378.375 441.225L385.828 433.724L401.246 449.132C402.304 450.188 403.995 450.188 405 449.132L416.207 437.932C417.264 436.929 417.264 435.238 416.207 434.182Z" fill="#F9FCFC"/>
<path d="M359.702 378.956C358.364 378.956 357.281 377.784 357.281 376.335V360.609C357.281 359.161 358.364 357.988 359.702 357.988C361.04 357.988 362.123 359.161 362.123 360.609V376.335C362.123 377.784 361.04 378.956 359.702 378.956Z" fill="white"/>
<path d="M349.972 382.942C348.891 384.079 347.072 384.079 345.992 382.942L333.881 370.897C332.8 369.817 332.8 367.999 333.881 366.862C335.018 365.783 336.837 365.783 337.917 366.862L349.972 378.965C351.109 380.045 351.109 381.863 349.972 382.942Z" fill="white"/>
<path d="M333.903 416.833C332.793 415.723 332.793 413.925 333.903 412.815L345.97 400.756C347.081 399.646 348.881 399.646 349.992 400.756C351.102 401.866 351.102 403.665 349.992 404.775L337.925 416.833C336.814 417.943 335.014 417.943 333.903 416.833Z" fill="#EEEEEE"/>
<path d="M367.798 382.962C366.687 381.852 366.687 380.054 367.798 378.944L379.865 366.885C380.976 365.775 382.775 365.775 383.886 366.885C384.997 367.995 384.997 369.794 383.886 370.904L371.819 382.962C370.709 384.072 368.909 384.072 367.798 382.962Z" fill="white"/>
<path d="M343.36 395.085H327.623C326.173 395.085 325 394.003 325 392.666C325 391.329 326.173 390.247 327.623 390.247H343.36C344.809 390.247 345.982 391.329 345.982 392.666C345.982 394.003 344.809 395.085 343.36 395.085Z" fill="#EEEEEE"/>
<path d="M333.844 367.666L349.211 382.983C348.179 384.065 346.441 384.065 345.41 382.983L333.844 371.508C332.812 370.48 332.812 368.748 333.844 367.666Z" fill="#EEEEEE"/>
<path d="M410.544 443.621L404.947 449.142C403.943 450.184 402.254 450.184 401.198 449.142L385.797 433.949L378.352 441.346C377.718 441.971 376.768 442.231 375.87 442.023C374.973 441.815 374.286 441.189 373.969 440.304L359.026 396.129C358.709 395.191 358.974 394.149 359.713 393.472L410.544 443.621Z" fill="#ECF0F3"/>
<circle cx="120" cy="125.988" r="32" fill="#D1F6FB"/>
<path d="M145.089 122.313C145.089 122.233 144.771 122.091 144.478 122.034L121.596 119.119C120.754 118.957 119.366 118.939 118.524 119.102L95.6151 121.975C95.3281 122.031 95 122.101 95 122.192V122.445V122.569V122.7V122.823V122.963V123.035V123.077V123.218V123.254V123.288V123.471V123.508V123.56L104.016 131.649L105.001 137.013L127.096 156.988C127.096 156.988 127.622 156.868 127.882 156.803C138.66 154.123 147.268 146.042 150.604 135.638C150.604 135.638 151.04 134.236 151.442 132.571C151.843 130.906 152 128.527 152 128.527L145.089 122.313Z" fill="#A5E1E9"/>
<path d="M104 121.988V135.664C104.549 138.595 111.542 140.988 120 140.988C128.458 140.988 135.375 138.595 135.923 135.664H136V121.988H104Z" fill="#2D424D"/>
<path d="M134.48 121.988V135.677C133.942 138.61 127.207 140.825 119 140.964C119.261 140.968 119.524 140.988 119.789 140.988C128.358 140.988 135.444 138.61 136 135.677V121.988H134.48Z" fill="#253740"/>
<path d="M144 121.42V122.069L121.46 119.115C120.619 118.946 119.402 118.946 118.562 119.115L96.5 121.99V121.936H95V122.346V122.42V122.649C95 122.748 95.2955 122.849 95.554 122.94L114.223 128.726C115.034 129.012 116.388 129.074 117.219 128.863L144.401 122.803C144.685 122.73 145 122.647 145 122.561V122.42V122.331V121.936L144 121.42Z" fill="#1E2C33"/>
<path d="M145 122.331C145 122.248 144.682 122.171 144.389 122.112L121.549 119.115C120.708 118.946 119.322 118.946 118.482 119.115L95.614 122.112C95.3275 122.17 95 122.253 95 122.346V122.739C95 122.839 95.2955 122.85 95.554 122.941L114.223 128.725C115.033 129.012 116.388 129.074 117.219 128.863C117.219 128.863 145 122.826 145 122.74L145 122.331Z" fill="#2D424D"/>
<path d="M126.779 141.988C126.359 141.988 126.046 141.642 126.046 141.213V127.425L117.495 124.5C117.096 124.365 116.91 123.926 117.042 123.519C117.175 123.112 117.622 122.892 118.019 123.029L127.07 126.131C127.381 126.237 128 126.559 128 126.893V141.334C128 141.762 127.198 141.988 126.779 141.988Z" fill="#FFD464"/>
<path d="M130 142.988C130 142.988 130 141.482 130 141.171C130 139.966 129.075 138.988 128 138.988C126.925 138.988 126 139.965 126 141.171C126 141.482 126 142.988 126 142.988H130Z" fill="#E16B5A"/>
<rect x="126" y="141.988" width="4" height="5" fill="#FFD464"/>
<rect x="126" y="141.988" width="0.6" height="5" fill="#FFE399"/>
<rect x="127.2" y="141.988" width="0.6" height="5" fill="#FFE399"/>
<rect x="128.4" y="141.988" width="0.6" height="5" fill="#FFE399"/>
<circle cx="306" cy="246.988" r="32" fill="#D1F6FB"/>
<path d="M338 247.186C338 246.224 337.955 245.273 337.873 244.334L326.052 232.434C325.163 231.467 324.131 230.699 322.992 230.177C313.8 225.968 307.198 234.199 306.314 235.379L304.641 233.694C302.067 231.082 296.519 226.932 289.432 230.177C284.197 232.574 281.24 240.172 283.857 248.292H281V250.043L309.753 278.988C325.642 277.215 338 263.654 338 247.186Z" fill="#A5E1E9"/>
<path d="M323.406 230.181C313.444 225.636 306.5 235.543 306.5 235.543C306.5 235.543 299.556 225.636 289.594 230.181C279.65 234.718 277.86 257.815 306.5 267.988C335.14 257.815 333.35 234.718 323.406 230.181Z" fill="#F074A5"/>
<path d="M306 267.988V235.544C306 235.544 312.797 225.637 322.547 230.181C332.277 234.718 334.032 257.815 306 267.988Z" fill="#D84B82"/>
<path d="M301.02 258.988L298.371 245.349L295.995 250.084H281V248.303H294.917L299.112 239.94L301.719 253.363L304.1 248.303H311.253L315.704 234.988L318.281 252.73L321.051 248.298L332 248.424L331.98 250.205L322.012 250.09L317.232 257.739L315.028 242.565L312.514 250.084H305.21L301.02 258.988Z" fill="white"/>
<path d="M331 247.981L330.98 249.703L321.208 249.592L316.521 256.988L314.36 242.315L311.895 249.586H306V247.864H310.659L315.024 234.988L317.551 252.145L320.266 247.859L331 247.981Z" fill="#E4E1D3"/>
<circle cx="375" cy="233.988" r="24" fill="#FFC240"/>
<path d="M399 233.907C399 232.946 398.944 231.997 398.836 231.065L395.357 227.556L393.471 228.453L388.054 222.988L363 249.781L370.731 257.58C372.156 257.848 373.627 257.988 375.129 257.988C388.313 257.988 399 247.207 399 233.907Z" fill="#FF984C"/>
<path d="M363.085 217.012H375.492V249.965H363.085V217.012Z" fill="white"/>
<path d="M387.964 223.11L381.975 217.012H375.141V249.965H387.964V223.11Z" fill="#E9EDF5"/>
<path d="M381.975 223.11H387.964L381.975 217.012V223.11Z" fill="#CDD2E1"/>
<path d="M367 222.988H373V225.988H367V222.988Z" fill="#CDD2E1"/>
<path d="M367 229.988H383V232.988H367V229.988Z" fill="#CDD2E1"/>
<path d="M375 229.988H383V232.988H375V229.988Z" fill="#AFB4C8"/>
<path d="M367 234.988H383V237.988H367V234.988Z" fill="#CDD2E1"/>
<path d="M375 234.988H383V237.988H375V234.988Z" fill="#AFB4C8"/>
<path d="M380.075 239.992C378.129 239.907 377.076 241.416 376.307 242.517C375.596 243.537 375.225 243.987 374.659 244.014C374.324 244.03 373.779 243.25 373.34 242.623C372.724 241.743 372.035 240.76 371 240.239V244.25C371.036 244.301 371.072 244.352 371.108 244.403C371.916 245.558 372.917 246.988 374.633 246.988C374.683 246.988 374.733 246.987 374.784 246.985C376.729 246.892 377.777 245.39 378.542 244.294C379.25 243.28 379.554 242.947 379.962 242.963C380.938 243.006 382.772 245.015 383.72 246.448L386 244.738C385.492 243.966 382.816 240.11 380.075 239.992Z" fill="#CDD2E1"/>
<path d="M380.215 239.992C378.315 239.907 377.288 241.416 376.537 242.518C375.873 243.493 375.513 243.946 375 244.008V246.988C375.017 246.988 375.033 246.988 375.05 246.987C376.949 246.894 377.972 245.392 378.719 244.295C379.41 243.281 379.707 242.948 380.105 242.964C381.058 243.007 382.849 245.017 383.774 246.451L386 244.74C385.503 243.967 382.892 240.11 380.215 239.992Z" fill="#AFB4C8"/>
<path d="M387.017 245.104L383.479 246.988L383 243.298L390.983 225.988L395 227.794L387.017 245.104Z" fill="#555A66"/>
<path d="M395 227.859L393.143 226.988L384 246.988L387.376 245.113L395 227.859Z" fill="#333940"/>
<path d="M389.474 237.1L392.917 229.532L395.476 230.696L392.033 238.264L389.474 237.1Z" fill="#F2F6FC"/>
<circle cx="434" cy="178.988" r="40" fill="#D1F6FB"/>
<path d="M473 186.676L462.389 175.961L460.003 177.493L446.63 163.988L404 190.526L432.143 218.944C432.749 218.972 433.359 218.988 433.973 218.988C453.282 218.988 469.377 205.1 473 186.676Z" fill="#A5E1E9"/>
<path d="M452.51 172.589C448.901 164.326 440.76 158.988 431.765 158.988H430.914C421.92 158.988 413.778 164.326 410.17 172.589H409.117C406.291 172.589 404 174.887 404 177.721V190.988H466V185.35C466 178.303 460.303 172.589 453.276 172.589H452.51Z" fill="#EC5353"/>
<path d="M465.887 184.794C465.887 177.653 460.203 171.865 453.192 171.865H452.427C448.827 163.493 440.704 158.084 431.73 158.084H431.401V190.506H465.887V184.794Z" fill="#D13135"/>
<path d="M404.027 183.871V190.506H465.887V184.794C465.887 184.483 465.872 184.176 465.851 183.871L404.027 183.871Z" fill="#D13135"/>
<path d="M466 184.961C466 184.634 465.985 184.31 465.964 183.988H431V190.988H466V184.961Z" fill="#BE1D21"/>
<path d="M429 160.988C422.75 160.988 417.093 164.769 414.586 170.621L414 171.988H429V160.988Z" fill="white"/>
<path d="M449.621 171.128C446.904 164.968 440.773 160.988 434 160.988V171.988H450L449.621 171.128Z" fill="#EDF0F2"/>
<circle cx="415" cy="189.988" r="7" fill="#595959"/>
<circle cx="415" cy="189.988" r="3" fill="#969696"/>
<circle cx="455" cy="189.988" r="7" fill="#303030"/>
<circle cx="455" cy="189.988" r="3" fill="#828282"/>
<path d="M463.392 177.988H458.572C457.704 177.988 457 178.66 457 179.488C457 180.317 457.704 180.988 458.572 180.988H465C464.616 179.908 464.071 178.9 463.392 177.988Z" fill="#E5E5E5"/>
<circle cx="339" cy="165.988" r="32" fill="#FFC240"/>
<path d="M371 166.072C371 164.348 370.861 162.656 370.597 161.006L352.51 142.988L351.037 144.456L353.109 146.519L350.047 149.569L347.062 146.595L344.934 148.716L347.049 150.822L332.078 165.736L333.076 166.731L331.388 168.412L332.715 169.734L330.708 171.733L331.809 172.83L320 184.593L332.864 197.408C334.838 197.787 336.877 197.988 338.963 197.988C356.656 197.988 371 183.699 371 166.072Z" fill="#FF984C"/>
<path d="M320.847 185.346L320.059 184.558L332.407 172.211L333.194 172.998L320.847 185.346Z" fill="white"/>
<path d="M332.861 172.662L320.474 184.97L320.079 184.578L332.466 172.27L332.861 172.662Z" fill="#FFF5CB"/>
<path d="M355.618 155.139L349.708 149.266L352.967 146.028L358.878 151.901L355.618 155.139Z" fill="#FFF5CB"/>
<path d="M359.128 152.169L355.88 155.418L352.934 152.472L356.182 149.223L359.128 152.169Z" fill="#FFE670"/>
<path d="M333.741 174.651L330.755 171.665L333.036 169.383L336.022 172.369L333.741 174.651Z" fill="#5FDAAD"/>
<path d="M336.022 172.369L333.741 174.65L332.248 173.158L334.53 170.876L336.022 172.369Z" fill="#3CB98B"/>
<path d="M337.071 173.97L331.435 168.334L333.278 166.491L338.914 172.127L337.071 173.97Z" fill="#0A89BE"/>
<path d="M338.913 172.128L337.071 173.97L334.253 171.152L336.095 169.31L338.913 172.128Z" fill="#14789C"/>
<path d="M339.754 173.281L332.124 165.651L347.245 150.53L354.876 158.16L339.754 173.281Z" fill="white"/>
<path d="M354.876 158.161L339.755 173.282L335.94 169.467L351.061 154.345L354.876 158.161Z" fill="#FFF5CB"/>
<path d="M356.819 160.44L344.964 148.585L347.09 146.459L358.945 158.315L356.819 160.44Z" fill="#0A89BE"/>
<path d="M358.944 158.315L356.819 160.441L350.891 154.513L353.017 152.388L358.944 158.315Z" fill="#14789C"/>
<path d="M361.091 154.345L351.061 144.315L352.532 142.843L362.563 152.873L361.091 154.345Z" fill="#0A89BE"/>
<path d="M362.563 152.874L361.091 154.345L356.076 149.33L357.548 147.859L362.563 152.874Z" fill="#14789C"/>
<path d="M339.814 171.068L334.337 165.59L344.749 155.178L350.226 160.656L339.814 171.068Z" fill="#F074A5"/>
<path d="M350.227 160.657L339.815 171.069L337.075 168.33L347.487 157.918L350.227 160.657Z" fill="#D84B82"/>
<path fill-rule="evenodd" clip-rule="evenodd" d="M524.987 185.988H532.009C535.864 185.988 539 189.123 539 192.975C539 196.828 535.864 199.962 532.009 199.962H526.962V202.03H531.006C532.097 202.03 532.981 202.914 532.981 204.004C532.981 205.094 532.097 205.978 531.006 205.978H526.962V208.014C526.962 209.105 526.078 209.988 524.987 209.988C523.897 209.988 523.012 209.105 523.012 208.014V205.978H520.975C519.884 205.978 519 205.094 519 204.004C519 202.914 519.884 202.03 520.975 202.03H523.012V199.962H520.975C519.884 199.962 519 199.078 519 197.988C519 196.898 519.884 196.014 520.975 196.014H523.012V187.962C523.012 186.872 523.897 185.988 524.987 185.988ZM526.962 196.014H532.009C533.686 196.014 535.05 194.651 535.05 192.975C535.05 191.299 533.686 189.936 532.009 189.936H526.962V196.014Z" fill="white"/>
<path fill-rule="evenodd" clip-rule="evenodd" d="M98.9874 190.988H106.009C109.864 190.988 113 194.123 113 197.975C113 201.828 109.864 204.962 106.009 204.962H100.962V207.03H105.006C106.097 207.03 106.981 207.914 106.981 209.004C106.981 210.094 106.097 210.978 105.006 210.978H100.962V213.014C100.962 214.105 100.078 214.988 98.9874 214.988C97.8967 214.988 97.0125 214.105 97.0125 213.014V210.978H94.9749C93.8842 210.978 93 210.094 93 209.004C93 207.914 93.8842 207.03 94.9749 207.03H97.0125V204.962H94.9749C93.8842 204.962 93 204.078 93 202.988C93 201.898 93.8842 201.014 94.9749 201.014H97.0125V192.962C97.0125 191.872 97.8967 190.988 98.9874 190.988ZM100.962 201.014H106.009C107.686 201.014 109.05 199.651 109.05 197.975C109.05 196.299 107.686 194.936 106.009 194.936H100.962V201.014Z" fill="white"/>
<path fill-rule="evenodd" clip-rule="evenodd" d="M125.191 230.988H130.107C132.805 230.988 135 233.078 135 235.646C135 238.215 132.805 240.304 130.107 240.304H126.574V241.683H129.404C130.168 241.683 130.787 242.272 130.787 242.999C130.787 243.725 130.168 244.315 129.404 244.315H126.574V245.672C126.574 246.399 125.955 246.988 125.191 246.988C124.428 246.988 123.809 246.399 123.809 245.672V244.315H122.382C121.619 244.315 121 243.725 121 242.999C121 242.272 121.619 241.683 122.382 241.683H123.809V240.304H122.382C121.619 240.304 121 239.715 121 238.988C121 238.262 121.619 237.672 122.382 237.672H123.809V232.304C123.809 231.577 124.428 230.988 125.191 230.988ZM126.574 237.672H130.107C131.28 237.672 132.235 236.763 132.235 235.646C132.235 234.529 131.28 233.62 130.107 233.62H126.574V237.672Z" fill="white"/>
<path d="M497.883 100.988L496.015 100.114C494.01 98.1647 492.005 96.2148 490 94.2649C491.808 92.5061 493.617 90.7472 495.426 88.9883H499.777L501 94.341L499.777 99.6938L497.883 100.988Z" fill="#D1F6FB"/>
<path d="M500.937 100.988L502.848 100.114C504.899 98.1647 506.949 96.2148 509 94.265C507.15 92.5061 505.3 90.7472 503.45 88.9883C501.967 88.9883 500.483 88.9883 499 88.9883V99.6936L500.937 100.988Z" fill="#A5E1E9"/>
<path d="M486.714 117.488C486.714 110.079 492.658 103.877 499.758 103.877L501 101.933L499.758 99.9883C492.307 99.9883 485.568 105.344 483.588 112.841C481.588 120.408 484.821 128.631 491.3 132.596C493.856 134.16 496.795 134.988 499.758 134.988L501 133.044L499.758 131.099C492.658 131.099 486.714 124.897 486.714 117.488Z" fill="#FFC240"/>
<path d="M499 99.9883V103.877C506.626 103.877 513.01 110.079 513.01 117.488C513.01 124.897 506.626 131.099 499 131.099V134.988C507.003 134.988 514.241 129.632 516.369 122.135C518.516 114.568 515.044 106.346 508.085 102.381C505.339 100.817 502.182 99.9883 499 99.9883Z" fill="#FF984C"/>
<path d="M506.714 117.488C506.714 110.079 512.658 103.877 519.758 103.877L521 101.933L519.758 99.9883C512.307 99.9883 505.568 105.344 503.588 112.841C501.588 120.408 504.821 128.631 511.3 132.596C513.856 134.16 516.795 134.988 519.758 134.988L521 133.044L519.758 131.099C512.658 131.099 506.714 124.897 506.714 117.488C506.714 121.241 506.714 113.736 506.714 117.488Z" fill="#FFC240"/>
<path d="M519 99.9883V103.877C526.626 103.877 533.01 110.079 533.01 117.488C533.01 124.897 526.626 131.099 519 131.099V134.988C527.003 134.988 534.241 129.632 536.369 122.135C538.516 114.568 535.044 106.346 528.085 102.381C525.339 100.817 522.182 99.9883 519 99.9883Z" fill="#FF984C"/>
<circle cx="57" cy="273.988" r="36" fill="#FFC240"/>
<ellipse cx="65.5" cy="280.488" rx="27.5" ry="29.5" fill="#FF984C"/>
<path d="M68.6997 247.988H57.074L55.978 273.488L57.074 298.988H68.6997C73.1541 298.988 76.778 295.475 76.778 291.157V255.82C76.778 251.502 73.1541 247.988 68.6997 247.988Z" fill="#852B18"/>
<path d="M38.3779 247.988H57.5779V298.988H38.3779V247.988Z" fill="#AC4732"/>
<path d="M64.1997 255.957V254.363H57.5331L56.1997 255.16L57.5331 255.957H64.1997Z" fill="#FDB902"/>
<path d="M72.2 259.145V257.551H56.2001L53 258.348L56.2001 259.145H72.2Z" fill="#FDB902"/>
<path d="M68.2001 290.958H57.8001L56.6445 292.565L57.8001 294.171H68.2001V290.958Z" fill="#FDB902"/>
<path d="M51.3999 254.363H57.7999V255.957H51.3999V254.363Z" fill="#FDD902"/>
<path d="M43.3999 257.551H57.7999V259.145H43.3999V257.551Z" fill="#FDD902"/>
<path d="M47.3999 290.958H57.7999V294.171H47.3999V290.958Z" fill="#FDD902"/>
<path fill-rule="evenodd" clip-rule="evenodd" d="M57.9889 263.988L58.4771 264.58V264.593L57.9889 265.214L57.5007 264.58L57.9889 263.988ZM63.1328 267.054C63.1018 266.949 64.1581 266.944 64.1581 267.604C64.1581 267.809 64.0072 267.969 63.8532 268.133C63.6923 268.304 63.5279 268.478 63.5279 268.712C63.5401 268.882 63.6593 269.028 63.8297 269.082C63.6654 268.347 64.3401 268.729 64.522 268.868C64.2975 268.259 64.5188 268.027 64.7047 267.833C64.8202 267.712 64.922 267.605 64.8948 267.431C64.8595 267.239 64.5818 267.2 64.3126 267.163C64.1416 267.139 63.974 267.116 63.874 267.054C63.7575 266.979 63.6337 266.847 63.5082 266.714C63.1559 266.34 62.7913 265.954 62.5426 266.768C62.8492 266.989 62.97 267.372 62.8414 267.716C62.7128 268.06 62.3643 268.286 61.9789 268.275C61.9746 268.322 61.9746 268.368 61.9789 268.414C62.3422 268.434 62.6931 268.286 62.9212 268.018C63.1492 267.749 63.2264 267.394 63.1284 267.062L63.1328 267.054ZM60.5414 268.916C61.5843 268.914 62.5658 268.912 62.689 269.573L62.6713 269.565C62.7053 269.808 62.6385 270.055 62.4849 270.253C62.4103 270.05 62.2183 269.906 61.9922 269.884C60.1858 269.615 58.6813 272.378 60.0394 273.495C60.0491 273.499 60.0554 273.508 60.0554 273.518C60.0554 273.528 60.0491 273.537 60.0394 273.541H55.9651C55.9516 273.547 55.9357 273.541 55.9296 273.528C55.9234 273.516 55.9294 273.501 55.9429 273.495C57.3054 272.378 55.7964 269.615 53.9945 269.884C53.7675 269.904 53.5745 270.049 53.5018 270.253C53.3499 270.059 53.2817 269.817 53.311 269.577C53.4372 268.912 54.4239 268.915 55.4688 268.918C56.1515 268.92 56.859 268.922 57.3675 268.737C57.2899 269.179 56.9927 269.559 56.5687 269.758C57.4401 270.647 57.9483 271.801 58.0022 273.012C58.0532 271.799 58.5617 270.643 59.4358 269.754C59.0119 269.553 58.7137 269.175 58.6325 268.733C59.1446 268.92 59.8562 268.918 60.5414 268.916ZM60.6696 270.518C61.0208 270.409 61.4064 270.479 61.6904 270.703C61.6845 270.461 61.5577 270.237 61.3487 270.098C61.0859 270.176 60.8509 270.321 60.6696 270.518ZM51.4904 268.854C51.4793 268.862 51.4691 268.869 51.4602 268.876H51.4824L51.4904 268.854ZM52.157 269.09C52.309 268.391 51.7063 268.703 51.4904 268.854C51.7008 268.264 51.4831 268.035 51.3006 267.843C51.1849 267.721 51.0833 267.615 51.114 267.44C51.1466 267.247 51.4246 267.209 51.6936 267.171C51.8647 267.147 52.0321 267.124 52.1304 267.062C52.2475 266.987 52.3708 266.854 52.4954 266.72L52.4954 266.72C52.843 266.347 53.2005 265.964 53.4619 266.776C53.1567 266.997 53.0356 267.377 53.1618 267.72C53.2881 268.063 53.6329 268.291 54.0167 268.284V268.422C53.6483 268.449 53.2897 268.302 53.0569 268.031C52.8241 267.76 52.7466 267.398 52.8494 267.062C52.8805 266.957 51.8242 266.953 51.8242 267.612C51.8242 267.83 51.9788 267.992 52.1349 268.155C52.2939 268.322 52.4544 268.49 52.4544 268.721C52.4428 268.889 52.3257 269.035 52.157 269.09ZM54.3007 270.703C54.5861 270.478 54.9734 270.408 55.3259 270.518C55.143 270.321 54.9066 270.176 54.6425 270.098C54.4395 270.232 54.3134 270.448 54.3007 270.682V270.703ZM61.2599 266.365L60.9137 265.945L60.5675 266.365L60.9137 266.785L61.2599 266.365ZM63.6299 278.042L64.0738 278.504L63.6299 278.924L63.1861 278.504L63.6299 278.042ZM55.4103 266.365L55.0641 265.945L54.7179 266.365L55.0641 266.785L55.4103 266.365ZM55.7121 268.427H54.4161H54.4117C54.303 268.282 54.208 268.129 54.1276 267.969C53.9279 267.423 54.1898 267.171 54.5714 267.171L55.0641 267.616L55.5701 267.192C55.9562 267.192 56.2136 267.444 56.0139 267.99C55.9727 268.081 55.9222 268.168 55.863 268.25C56.4539 268.181 56.9296 267.758 57.0391 267.205C56.8752 266.963 56.727 266.712 56.5953 266.453C56.2891 265.676 56.6796 265.357 57.2522 265.357L57.9889 266.197L58.7345 265.336C59.3071 265.336 59.6976 265.655 59.3914 266.432C59.2597 266.691 59.1115 266.942 58.9476 267.184C59.0584 267.737 59.5335 268.159 60.1237 268.229C60.0674 268.146 60.0184 268.059 59.9772 267.969C59.782 267.423 60.0394 267.171 60.4211 267.171L60.9137 267.616L61.4019 267.175C61.7881 267.175 62.0499 267.427 61.8458 267.973C61.7656 268.132 61.6706 268.284 61.5617 268.427H60.2702C59.443 268.473 58.7062 267.936 58.5437 267.167H57.4341C57.2719 267.934 56.5376 268.471 55.7121 268.427ZM67.793 272.412C66.6814 272.931 65.431 273.124 64.2025 272.966C64.2025 272.911 64.2161 272.855 64.2296 272.799L64.2296 272.799L64.2297 272.799L64.2297 272.799L64.2297 272.799L64.2297 272.799C64.238 272.765 64.2462 272.731 64.2513 272.697C65.2604 272.63 66.2476 272.387 67.1628 271.979C67.9115 271.538 68.2045 270.644 67.8507 269.88C67.8465 269.87 67.8369 269.864 67.8263 269.864C67.8157 269.864 67.8061 269.87 67.8019 269.88C66.8848 270.892 65.6581 271.609 64.2912 271.933C64.2912 271.828 64.2912 271.723 64.2646 271.622C65.1667 271.161 65.9776 270.556 66.6613 269.833C67.3492 268.952 67.2871 267.83 66.6302 267.255C66.4216 267.595 64.4776 270.715 62.3428 272.063L62.2629 272.113C62.2351 272.132 62.2185 272.163 62.2185 272.195C62.2185 272.228 62.2351 272.258 62.2629 272.277C62.5169 272.503 62.6614 272.817 62.6624 273.146C62.657 273.739 62.2054 274.244 61.5883 274.347C61.1892 274.41 60.7799 274.375 60.3989 274.247C60.3905 274.244 60.3811 274.245 60.374 274.25C60.3668 274.255 60.3629 274.263 60.3633 274.272V276.157C60.3633 276.171 60.3753 276.182 60.39 276.182C60.4047 276.182 60.4166 276.171 60.4166 276.157C60.6544 275.635 61.2047 275.302 61.8058 275.317C61.8675 275.917 62.0839 276.494 62.436 276.997C62.6085 277.228 62.878 277.378 63.1755 277.408C63.473 277.437 63.7697 277.344 63.9894 277.152C63.7986 277.039 62.689 276.363 62.4671 275.258C62.5537 275.229 62.6382 275.194 62.7201 275.154C63.0254 275.69 63.4737 276.142 64.0205 276.464C64.7217 276.8 65.352 276.636 65.6538 276.144C65.6595 276.14 65.6628 276.133 65.6628 276.126C65.6628 276.118 65.6595 276.111 65.6538 276.107C65.21 276.069 63.8785 275.687 63.3104 274.763C63.3773 274.703 63.441 274.64 63.5012 274.574C64.0688 275.012 64.7332 275.323 65.4452 275.485C66.1509 275.578 66.9498 275.355 66.9719 274.54C66.9697 274.524 66.9544 274.511 66.9364 274.511C66.9177 274.511 66.8909 274.512 66.8568 274.512C66.4398 274.52 64.9375 274.548 63.8297 273.923C63.8726 273.847 63.9111 273.768 63.945 273.688C63.945 273.688 65.7204 274.108 66.5814 273.969C66.9628 273.925 67.309 273.736 67.542 273.447C67.775 273.158 67.8751 272.792 67.8197 272.433C67.8207 272.422 67.8149 272.412 67.805 272.408C67.7952 272.403 67.7834 272.405 67.7753 272.412H67.793ZM52.0219 273.687C52.0541 273.762 52.0903 273.835 52.1304 273.906C50.9454 274.582 49.2899 274.511 49.0236 274.494C49.0065 274.494 48.9926 274.507 48.9926 274.524C48.9926 275.338 49.8092 275.561 50.5149 275.468C51.2676 275.32 51.973 275.007 52.5742 274.553C52.6344 274.619 52.6981 274.682 52.7651 274.742C52.197 275.67 50.8611 276.048 50.4261 276.082C50.4157 276.082 50.4062 276.087 50.4009 276.096C50.3955 276.104 50.395 276.115 50.3995 276.123C50.688 276.615 51.3315 276.779 52.0372 276.443C52.5816 276.119 53.0281 275.668 53.3332 275.133C53.4154 275.172 53.4999 275.207 53.5862 275.237C53.3578 276.032 52.8119 276.711 52.0638 277.131C52.2844 277.323 52.5817 277.417 52.8799 277.387C53.1781 277.357 53.4483 277.207 53.6217 276.976C53.972 276.473 54.1869 275.896 54.2475 275.296C54.8489 275.28 55.3999 275.613 55.6366 276.136C55.6413 276.147 55.6528 276.155 55.6655 276.155C55.6782 276.155 55.6896 276.147 55.6943 276.136V274.28C55.6934 274.271 55.6884 274.263 55.6806 274.259C55.6729 274.254 55.6633 274.252 55.6544 274.255C55.2734 274.384 54.864 274.418 54.4649 274.356C53.8496 274.251 53.4003 273.746 53.3953 273.155C53.3952 272.826 53.538 272.512 53.7903 272.286C53.8182 272.267 53.8347 272.236 53.8347 272.204C53.8347 272.171 53.8182 272.141 53.7903 272.122L53.7104 272.071C51.5446 270.728 49.605 267.608 49.3964 267.264C49.3882 267.259 49.378 267.259 49.3698 267.264C48.7129 267.839 48.6508 268.943 49.3387 269.842C50.0235 270.56 50.8344 271.161 51.7354 271.618C51.7354 271.673 51.7287 271.73 51.7219 271.787C51.7164 271.834 51.7108 271.881 51.7088 271.929C50.3431 271.602 49.1171 270.885 48.1981 269.875C48.1922 269.868 48.1832 269.864 48.1737 269.864C48.1642 269.864 48.1552 269.868 48.1493 269.875C47.7955 270.64 48.0885 271.534 48.8372 271.975C49.7524 272.382 50.7396 272.626 51.7487 272.693C51.7487 272.755 51.7644 272.82 51.7798 272.884L51.7798 272.884C51.7861 272.91 51.7924 272.936 51.7975 272.962C50.569 273.12 49.3186 272.927 48.207 272.407C48.1988 272.4 48.187 272.399 48.1772 272.403C48.1674 272.408 48.1616 272.418 48.1626 272.428C48.1059 272.789 48.2061 273.156 48.4403 273.446C48.6744 273.735 49.0226 273.923 49.4053 273.965C50.2029 274.096 51.8463 273.728 52.0219 273.687ZM63.6344 279.491L62.9864 278.983C62.7215 279.136 62.5315 279.382 62.4582 279.667C62.0677 279.722 60.998 279.483 61.1046 279.327C62.2763 277.694 61.3797 276.72 60.3012 276.774V277.87C60.3001 278.041 60.2268 278.205 60.0976 278.325C59.9685 278.445 59.7942 278.511 59.6133 278.509H58.8677C58.5008 278.547 58.1733 278.744 57.98 279.042C57.7868 278.744 57.4593 278.547 57.0924 278.509H56.3645C55.9962 278.511 55.693 278.235 55.681 277.887V276.791C54.6025 276.737 53.706 277.711 54.8777 279.344C54.9798 279.5 53.8835 279.764 53.3687 279.684C53.2269 279.539 53.0273 279.457 52.8183 279.458C52.7259 279.458 52.6343 279.473 52.5476 279.504C52.5476 279.504 50.5193 277.602 50.4838 277.585V277.547C50.5992 277.333 50.4217 277.098 50.3107 277.127C50.4079 276.925 50.3995 276.691 50.2879 276.496C50.1764 276.301 49.9746 276.166 49.7426 276.132C49.7426 276.266 49.7737 276.552 49.7737 276.552C49.7737 276.552 49.2189 276.254 48.9393 276.514C48.6597 276.774 49.0236 277.308 49.0236 277.308H48.5798C48.6112 277.534 48.7602 277.731 48.9767 277.832C49.1933 277.933 49.449 277.926 49.6583 277.812C49.6583 277.921 49.898 278.076 50.1021 277.95L50.1953 277.908C50.1953 277.929 52.1837 279.777 52.1837 279.777C52.0889 279.917 52.0525 280.086 52.0816 280.251C52.1311 280.529 52.3543 280.75 52.6452 280.81C52.8373 280.848 53.0374 280.814 53.2045 280.717L53.7237 281.2C53.7726 281.244 53.8385 281.267 53.9057 281.263C54.0315 281.254 54.1264 281.151 54.1187 281.032C54.1136 280.982 54.0882 280.935 54.0477 280.902L53.5151 280.411C54.0891 280.078 54.7505 279.905 55.4236 279.911C55.4738 279.911 55.5206 279.887 55.5476 279.847C55.5746 279.807 55.578 279.757 55.5567 279.714C55.2549 278.991 55.9029 278.454 56.5731 278.874C56.9723 279.167 57.2591 279.575 57.3897 280.037C56.2891 280.302 54.9043 281.032 54.6247 281.83C54.5137 282.137 54.8732 282.556 55.3038 282.64C55.5861 281.594 56.4099 280.755 57.4918 280.411L57.5451 280.562C56.7309 280.952 56.1329 281.654 55.9029 282.489C55.8097 282.884 56.2535 283.241 56.6175 283.329C56.6264 283.332 56.636 283.33 56.6437 283.325C56.6515 283.32 56.6565 283.313 56.6574 283.304C56.6959 282.412 57.0419 281.557 57.6427 280.868C57.656 280.951 57.6649 281.033 57.6693 281.116C57.423 281.803 57.2738 282.517 57.2255 283.241C57.2255 283.661 57.8513 283.95 57.9445 283.988C58.0555 283.95 58.6813 283.657 58.6813 283.241C58.633 282.517 58.4838 281.803 58.2374 281.116C58.2419 281.033 58.2508 280.951 58.2641 280.868C58.8684 281.555 59.2149 282.411 59.2494 283.304H59.276C59.6399 283.207 60.0838 282.85 59.9906 282.464C59.7622 281.628 59.1637 280.925 58.3484 280.537C58.3662 280.493 58.3717 280.477 58.3773 280.461C58.3828 280.445 58.3883 280.43 58.4061 280.386C59.4858 280.731 60.3075 281.57 60.5897 282.615C60.5906 282.623 60.5952 282.63 60.6021 282.634C60.609 282.638 60.6175 282.639 60.6252 282.636C61.0691 282.552 61.4152 282.132 61.3043 281.826C61.0291 281.028 59.6399 280.297 58.5392 280.033C58.6731 279.572 58.9593 279.165 59.3559 278.87C60.0261 278.45 60.6874 278.966 60.3723 279.709C60.3322 279.762 60.3363 279.834 60.3821 279.883C60.428 279.931 60.5032 279.943 60.5631 279.911C61.3043 279.896 62.0289 280.119 62.618 280.545C62.8969 280.939 63.4023 281.132 63.8923 281.031C64.3822 280.93 64.757 280.556 64.8371 280.087C64.8888 279.657 64.6724 279.238 64.2824 279.012L63.6344 279.491ZM59.418 276.543C59.4313 276.228 59.0674 276.14 58.8366 276.228L58.8189 276.212C58.7478 276.237 58.7212 276.266 58.7212 276.35C58.763 276.559 58.8008 276.768 58.8399 276.985C58.859 277.09 58.8784 277.198 58.8987 277.308C59.0896 277.102 59.4846 277.014 59.4846 277.278C59.4362 277.632 59.1878 277.933 58.8366 278.063L57.5273 274.503C57.6421 274.487 57.7587 274.487 57.8735 274.503C57.8534 274.466 57.8427 274.426 57.8424 274.385C57.8362 274.324 57.8572 274.264 57.9002 274.218C57.9432 274.173 58.0043 274.147 58.0688 274.146C58.1146 274.142 58.1599 274.157 58.1936 274.187C58.2274 274.216 58.2465 274.258 58.2463 274.301C58.2364 274.382 58.1934 274.456 58.1265 274.507C58.0688 274.557 58.0777 274.591 58.1265 274.645C58.1965 274.723 58.252 274.811 58.2907 274.906C58.4999 274.683 58.8381 274.615 59.1251 274.738C59.2311 274.837 59.2907 274.972 59.2907 275.114C59.2907 275.255 59.2311 275.39 59.1251 275.489C59.1216 275.494 59.1181 275.499 59.1144 275.503C59.0898 275.536 59.0593 275.577 59.0053 275.573C58.9431 275.569 58.9165 275.536 58.9209 275.443C58.9217 275.428 58.9231 275.41 58.9247 275.39C58.9327 275.289 58.9441 275.145 58.881 275.145C58.739 275.145 58.7478 275.342 58.7878 275.489C58.8118 275.578 58.8342 275.668 58.8579 275.762L58.8579 275.763L58.8579 275.763L58.858 275.763L58.858 275.763C58.8737 275.826 58.89 275.891 58.9076 275.96C59.2627 275.901 59.6 276.044 59.529 276.543C59.5357 276.566 59.5268 276.59 59.5069 276.603C59.4869 276.616 59.4601 276.616 59.4402 276.603C59.4202 276.59 59.4113 276.566 59.418 276.543ZM57.0125 273.806L57.2877 274.566C57.0524 274.62 56.6707 274.792 56.6707 275.015C56.6707 275.317 57.2078 275.51 57.5184 275.489C57.501 275.555 57.5193 275.624 57.5673 275.674C57.4248 275.675 57.2864 275.72 57.1723 275.8C57.042 275.647 56.8171 275.6 56.6308 275.687C56.511 275.779 56.5065 275.935 56.6308 276.107C56.7241 276.22 56.7241 276.379 56.6308 276.493C56.8613 276.493 56.8967 276.31 56.9237 276.17C56.9404 276.084 56.9538 276.014 57.008 276.014C56.9926 276.122 57.0048 276.231 57.0436 276.333C57.0756 276.406 57.0637 276.49 57.0125 276.552C56.8251 276.864 56.7272 277.217 56.7284 277.576C56.6086 277.576 56.5465 277.547 56.5909 277.379C56.5909 277.32 56.5687 277.274 56.5154 277.35C56.4635 277.439 56.4346 277.538 56.4311 277.639C56.4466 277.766 56.5218 277.879 56.6357 277.946C56.7496 278.014 56.8898 278.029 57.0169 277.988C57.4829 278.437 58.4017 278.32 58.7123 278.168L57.0924 273.759C57.0844 273.739 57.0657 273.724 57.0432 273.721C57.0207 273.717 56.9979 273.725 56.9833 273.742C56.9687 273.758 56.9646 273.781 56.9725 273.801L57.0125 273.806ZM57.5007 276.619C57.1767 276.93 56.9237 277.257 56.9548 277.438C57.1539 277.333 57.3799 277.284 57.6072 277.295C57.4669 277.096 57.4278 276.848 57.5007 276.619Z" fill="#FDD902"/>
<path d="M263 186.988C263 212.945 241.509 233.988 215 233.988C188.491 233.988 167 212.945 167 186.988C167 161.03 188.491 139.988 215 139.988C241.509 139.988 263 161.03 263 186.988Z" fill="#FFC240"/>
<path d="M188 225.988C195.883 231.065 205.121 233.988 215 233.988C224.879 233.988 234.117 231.065 242 225.988H188Z" fill="#FF984C"/>
<path d="M165.977 219.988C165.439 219.988 165 220.369 165 220.834V225.143C165 225.608 165.439 225.988 165.977 225.988H264.023C264.561 225.988 265 225.608 265 225.143V220.834C265 220.369 264.561 219.988 264.023 219.988H165.977Z" fill="#994334"/>
<path d="M170.143 225.143V220.834C170.143 220.369 170.529 219.988 171 219.988H165.857C165.386 219.988 165 220.369 165 220.834V225.143C165 225.608 165.386 225.988 165.857 225.988H171C170.529 225.988 170.143 225.608 170.143 225.143Z" fill="#87352A"/>
<path d="M190.056 205.988C186.717 205.988 184 208.68 184 211.988C184 214.379 185.42 216.447 187.467 217.411V212.471H197.223V217.988H249V205.988H190.056Z" fill="white"/>
<path d="M186.69 212.798H187.577C187.568 212.631 187.564 212.461 187.564 212.291C187.564 209.687 188.527 207.385 190 205.988H188.7C186.108 205.988 184 208.816 184 212.291C184 214.803 185.102 216.976 186.69 217.988V212.798Z" fill="#EEF6FF"/>
<path d="M188.174 216.936C186.215 215.99 184.861 213.988 184.861 211.677C184.861 208.458 187.49 205.839 190.721 205.839H249.57C250.36 205.839 251 205.201 251 204.414C251 203.626 250.36 202.988 249.57 202.988H190.721C185.912 202.988 182 206.886 182 211.677C182 215.587 184.604 218.9 188.174 219.988V216.936Z" fill="#D13135"/>
<path d="M250.549 218.988H198V220.988H250.549C251.351 220.988 252 220.541 252 219.988C252 219.436 251.351 218.988 250.549 218.988Z" fill="#D13135"/>
<path d="M190.056 200.988H249V188.988H190.056C186.717 188.988 184 191.679 184 194.988C184 198.296 186.717 200.988 190.056 200.988Z" fill="white"/>
<path d="M188.7 200.988H190C188.527 199.658 187.564 197.467 187.564 194.988C187.564 192.509 188.527 190.318 190 188.988H188.7C186.108 188.988 184 191.679 184 194.988C184 198.296 186.108 200.988 188.7 200.988Z" fill="#EEF6FF"/>
<path d="M249.57 202.988H190.721C185.912 202.988 182 199.175 182 194.488C182 189.801 185.912 185.988 190.721 185.988H249.57C250.36 185.988 251 186.612 251 187.383C251 188.152 250.36 188.777 249.57 188.777H190.721C187.49 188.777 184.861 191.339 184.861 194.488C184.861 197.637 187.49 200.2 190.721 200.2H249.57C250.36 200.2 251 200.824 251 201.594C251 202.364 250.36 202.988 249.57 202.988Z" fill="#3CB98B"/>
<path d="M248 185.084C248 185.582 247.596 185.988 247.103 185.988H179.897C179.404 185.988 179 185.582 179 185.084V171.892C179 171.395 179.404 170.988 179.897 170.988H247.103C247.596 170.988 248 171.394 248 171.892V185.084Z" fill="#0A89BE"/>
<path d="M181.082 185.084V171.892C181.082 171.395 181.495 170.988 182 170.988H178.919C178.414 170.988 178 171.394 178 171.892V185.084C178 185.582 178.414 185.988 178.919 185.988H182C181.495 185.988 181.082 185.582 181.082 185.084Z" fill="#14789C"/>
<path d="M217.564 171.05H235.929V185.93H217.564V171.05Z" fill="#184D5D"/>
<path d="M189.736 179.051C189.736 179.58 189.302 180.013 188.771 180.013H183.123C182.593 180.013 182.159 179.58 182.159 179.051V178.044C182.159 177.515 182.593 177.083 183.123 177.083H188.771C189.302 177.083 189.736 177.515 189.736 178.044V179.051Z" fill="#184D5D"/>
<path d="M213.995 179.051C213.995 179.58 213.561 180.013 213.031 180.013H193.179C192.649 180.013 192.215 179.58 192.215 179.051V178.044C192.215 177.515 192.649 177.083 193.179 177.083H213.031C213.561 177.083 213.995 177.515 213.995 178.044V179.051Z" fill="#184D5D"/>
<path d="M186 212.988V224.478C186 224.978 186.389 225.139 186.864 224.834L191.135 222.097C191.611 221.792 192.389 221.792 192.864 222.097L197.136 224.834C197.611 225.139 198 224.978 198 224.478V212.988H186Z" fill="#2DA1DC"/>
<path d="M191 212.988H187V224.478C187 224.978 187.435 225.139 187.966 224.834L191 222.79V212.988Z" fill="#1E8BC2"/>
<path d="M254 169.084C254 169.084 254 159.403 254 156.225C254 155.285 253.598 154.988 252.608 154.988C231.23 154.988 185.897 154.988 185.897 154.988C185.403 154.988 185 155.395 185 155.892V169.084C185 169.582 185.404 169.988 185.897 169.988H253.103C253.596 169.988 254 169.582 254 169.084Z" fill="#EC5353"/>
<path d="M185.068 169.084V155.892C185.068 155.395 185.488 154.988 186 154.988H182.933C182.419 154.988 182 155.395 182 155.892V169.084C182 169.582 182.42 169.988 182.933 169.988H186C185.488 169.988 185.068 169.582 185.068 169.084Z" fill="#D13135"/>
<path d="M227 154.988H246V169.988H227V154.988Z" fill="#BE1D21"/>
<path d="M200 163.676C200 164.398 199.656 164.988 199.236 164.988H194.764C194.344 164.988 194 164.398 194 163.676V162.3C194 161.579 194.344 160.988 194.764 160.988H199.236C199.656 160.988 200 161.579 200 162.3V163.676Z" fill="white"/>
<path d="M221 163.676C221 164.398 220.621 164.988 220.159 164.988H202.841C202.379 164.988 202 164.398 202 163.676V162.3C202 161.579 202.379 160.988 202.841 160.988H220.159C220.621 160.988 221 161.579 221 162.3V163.676Z" fill="white"/>
<path d="M182.056 140.988C178.717 140.988 176 143.68 176 146.988C176 150.296 178.717 152.988 182.056 152.988H241V140.988H182.056Z" fill="#FFE2B8"/>
<path d="M181.533 146.988C181.533 144.509 182.508 142.318 184 140.988H182.759C180.134 140.988 178 143.68 178 146.988C178 150.296 180.134 152.988 182.759 152.988H184C182.508 151.658 181.533 149.468 181.533 146.988Z" fill="#FFD782"/>
<path d="M242.568 154.988H183.731C178.917 154.988 175 151.175 175 146.488C175 141.801 178.917 137.988 183.731 137.988H242.568C243.359 137.988 244 138.613 244 139.383C244 140.153 243.359 140.777 242.568 140.777H183.731C180.496 140.777 177.864 143.339 177.864 146.488C177.864 149.638 180.496 152.2 183.731 152.2H242.568C243.359 152.2 244 152.824 244 153.594C244 154.364 243.359 154.988 242.568 154.988Z" fill="#5FDAAD"/>
<defs>
<linearGradient id="paint0_linear_389_676" x1="272.7" y1="629.641" x2="635.558" y2="365.06" gradientUnits="userSpaceOnUse">
<stop stop-color="white" stop-opacity="0.1"/>
<stop offset="1" stop-color="white" stop-opacity="0.5"/>
</linearGradient>
<linearGradient id="paint1_linear_389_676" x1="6.92517" y1="298.888" x2="300.724" y2="577.037" gradientUnits="userSpaceOnUse">
<stop stop-color="white" stop-opacity="0.5"/>
<stop offset="1" stop-color="white" stop-opacity="0.2"/>
</linearGradient>
<linearGradient id="paint2_linear_389_676" x1="299.674" y1="544.003" x2="461.024" y2="333.336" gradientUnits="userSpaceOnUse">
<stop stop-color="white" stop-opacity="0.1"/>
<stop offset="1" stop-color="white" stop-opacity="0.5"/>
</linearGradient>
<linearGradient id="paint3_linear_389_676" x1="267.039" y1="678.172" x2="704.703" y2="343.8" gradientUnits="userSpaceOnUse">
<stop stop-color="white" stop-opacity="0.7"/>
<stop offset="1" stop-color="white"/>
</linearGradient>
</defs>
</svg>
