<svg width="621" height="599" viewBox="0 0 621 599" fill="none" xmlns="http://www.w3.org/2000/svg">
<path d="M355.8 476.5C367.2 476.5 373.6 468 373.6 457.9C373.6 447.8 373.6 370.5 373.6 370.5H335.1V474.4L355.8 476.5Z" fill="#A4B131"/>
<path d="M501.4 464.6C501.4 464.6 537.8 365.2 545.6 321.1C553.4 277 557 256.8 550.2 256.1C543.5 255.3 536.3 276 523.4 313.1C510.5 350.3 491.4 393.4 491.4 393.4C491.4 393.4 503.3 347.7 500.9 320.6C498.5 293.5 482.3 289.1 477.9 306.4C473.5 323.7 470.9 357.7 453.9 384.7C436.9 411.7 368.7 464.6 368.7 464.6H501.4Z" fill="#D3E08C"/>
<path d="M404.6 467.9C412.5 467.9 416.9 460.1 416.9 450.8C416.9 441.4 416.9 370.4 416.9 370.4H390.2V466L404.6 467.9Z" fill="#A4B131"/>
<path d="M404.6 467.9H363.4V360.4L398.4 389.2C398.4 389.2 398.4 447.3 398.4 456.9C398.4 466.5 404.6 467.9 404.6 467.9Z" fill="#A4B131"/>
<path d="M373.1 466.1C373.1 466.1 398.5 449.6 398.5 426.2C398.4 402.8 393.4 390.2 393.4 390.2C393.4 390.2 376.1 412.8 373.7 426.8C371.3 440.9 373.1 466.1 373.1 466.1Z" fill="#D59449"/>
<path d="M368.6 419C367.8 419 367.1 418.3 367.1 417.5V375.4C367.1 374.6 367.8 373.9 368.6 373.9C369.4 373.9 370.1 374.6 370.1 375.4V417.5C370.1 418.3 369.5 419 368.6 419Z" fill="#EAEEC3"/>
<path d="M413.5 415.2C412.7 415.2 412 414.5 412 413.7V375C412 374.2 412.7 373.5 413.5 373.5C414.3 373.5 415 374.2 415 375V413.7C415 414.6 414.3 415.2 413.5 415.2Z" fill="#EAEEC3"/>
<path d="M307.5 543C245.4 543 187 518.9 143.1 475.2C99.2 431.5 75 373.3 75 311.5C75 249.6 99.2 191.5 143.1 147.8C187 104.1 245.4 80 307.5 80C369.6 80 428 104.1 471.9 147.8C515.8 191.5 540 249.7 540 311.5C540 373.3 515.8 431.5 471.9 475.2C428 518.9 369.6 543 307.5 543ZM307.5 112C196.9 112 107 201.5 107 311.5C107 421.5 196.9 511 307.5 511C418.1 511 508 421.5 508 311.5C508 201.5 418.1 112 307.5 112Z" fill="url(#paint0_linear_514_569)"/>
<path d="M306 472C394.366 472 466 400.366 466 312C466 223.634 394.366 152 306 152C217.634 152 146 223.634 146 312C146 400.366 217.634 472 306 472Z" fill="url(#paint1_linear_514_569)"/>
<path d="M327 517C221.6 517 139 467.6 139 404.5C139 341.4 221.6 292 327 292C432.4 292 515 341.4 515 404.5C515 467.6 432.4 517 327 517ZM327 328C284.6 328 245 337 215.5 353.4C189.7 367.7 175 386.3 175 404.5C175 422.6 189.8 441.3 215.5 455.6C245 472 284.6 481 327 481C369.4 481 409 472 438.5 455.6C464.3 441.3 479 422.7 479 404.5C479 386.4 464.2 367.7 438.5 353.4C409 337 369.4 328 327 328Z" fill="url(#paint2_linear_514_569)"/>
<path d="M320.1 560.4C317.9 560.4 316.1 558.7 316.1 556.5C316.1 554.3 317.8 552.5 320 552.4C325.6 552.3 331.2 552 336.7 551.6C338.9 551.4 340.8 553.1 341 555.3C341.2 557.5 339.5 559.4 337.3 559.6C331.6 560 325.8 560.3 320.1 560.4ZM301.1 560.1C301 560.1 301 560.1 300.9 560.1C295.2 559.8 289.4 559.3 283.7 558.7C281.5 558.5 279.9 556.5 280.2 554.3C280.4 552.1 282.4 550.5 284.6 550.8C290.1 551.4 295.8 551.9 301.3 552.2C303.5 552.3 305.2 554.2 305.1 556.4C305 558.4 303.2 560.1 301.1 560.1ZM355.9 557.5C353.9 557.5 352.2 556.1 351.9 554.1C351.6 551.9 353.1 549.9 355.3 549.6C360.8 548.8 366.3 547.8 371.8 546.7C374 546.2 376.1 547.6 376.5 549.8C376.9 552 375.6 554.1 373.4 554.5C367.8 555.7 362.1 556.7 356.4 557.5C356.3 557.5 356.1 557.5 355.9 557.5ZM265.3 556C265.1 556 264.8 556 264.6 555.9C259 554.9 253.3 553.7 247.7 552.4C245.6 551.9 244.2 549.7 244.7 547.6C245.2 545.5 247.4 544.1 249.5 544.6C254.9 545.9 260.4 547 265.9 548C268.1 548.4 269.5 550.5 269.1 552.6C268.9 554.6 267.2 556 265.3 556ZM391.1 550C389.4 550 387.8 548.8 387.3 547.1C386.7 545 387.9 542.8 390.1 542.2C395.4 540.7 400.8 539 406 537.2C408.1 536.5 410.4 537.6 411.1 539.7C411.8 541.8 410.7 544.1 408.6 544.8C403.2 546.7 397.7 548.4 392.2 550C391.8 550 391.4 550 391.1 550ZM230.4 547.5C230 547.5 229.6 547.4 229.2 547.3C223.7 545.6 218.3 543.7 212.9 541.7C210.8 540.9 209.8 538.6 210.6 536.5C211.4 534.4 213.7 533.4 215.8 534.2C221 536.2 226.3 538 231.6 539.7C233.7 540.4 234.9 542.6 234.2 544.7C233.7 546.4 232.1 547.5 230.4 547.5ZM424.9 538C423.4 538 421.9 537.1 421.2 535.6C420.3 533.6 421.3 531.2 423.3 530.3C428.4 528.1 433.5 525.7 438.4 523.2C440.4 522.2 442.8 523 443.8 525C444.8 527 444 529.4 442 530.4C436.9 533 431.7 535.4 426.4 537.7C426 537.9 425.5 538 424.9 538ZM196.8 534.6C196.2 534.6 195.7 534.5 195.1 534.2C189.9 531.8 184.7 529.2 179.7 526.5C177.8 525.5 177 523 178.1 521.1C179.1 519.2 181.6 518.4 183.5 519.5C188.4 522.1 193.5 524.6 198.5 526.9C200.5 527.8 201.4 530.2 200.5 532.2C199.8 533.7 198.3 534.6 196.8 534.6ZM456.9 521.6C455.5 521.6 454.2 520.9 453.5 519.7C452.4 517.8 453 515.3 454.9 514.2C459.7 511.3 464.4 508.3 469 505.1C470.8 503.8 473.3 504.3 474.6 506.1C475.9 507.9 475.4 510.4 473.6 511.7C468.9 514.9 464 518.1 459.1 521C458.3 521.4 457.6 521.6 456.9 521.6ZM165.1 517.5C164.4 517.5 163.6 517.3 163 516.9C158.1 513.9 153.3 510.6 148.7 507.3C146.9 506 146.5 503.5 147.8 501.7C149.1 499.9 151.6 499.5 153.4 500.8C157.9 504 162.6 507.2 167.3 510.1C169.2 511.3 169.7 513.7 168.6 515.6C167.8 516.9 166.5 517.5 165.1 517.5ZM486.4 501C485.2 501 484.1 500.5 483.3 499.5C481.9 497.8 482.2 495.3 483.9 493.9C488.2 490.4 492.5 486.7 496.6 483C498.2 481.5 500.8 481.6 502.3 483.2C503.8 484.8 503.7 487.4 502.1 488.9C497.9 492.8 493.5 496.5 489 500.1C488.2 500.8 487.3 501 486.4 501ZM135.9 496.4C135 496.4 134.1 496.1 133.4 495.5C129 491.8 124.6 488 120.4 484.1C118.8 482.6 118.7 480.1 120.2 478.4C121.7 476.8 124.2 476.7 125.9 478.2C130 482 134.2 485.7 138.5 489.3C140.2 490.7 140.4 493.2 139 494.9C138.2 495.9 137.1 496.4 135.9 496.4ZM512.8 476.6C511.8 476.6 510.8 476.2 510.1 475.5C508.5 474 508.4 471.5 509.9 469.8C513.7 465.7 517.4 461.5 520.9 457.2C522.3 455.5 524.8 455.2 526.5 456.6C528.2 458 528.5 460.5 527.1 462.2C523.5 466.6 519.6 471 515.7 475.2C515 476.2 513.9 476.6 512.8 476.6ZM109.8 471.7C108.7 471.7 107.7 471.3 106.9 470.4C103 466.2 99.1998 461.8 95.5998 457.4C94.1998 455.7 94.4998 453.2 96.1998 451.8C97.8998 450.4 100.4 450.7 101.8 452.4C105.3 456.7 109 461 112.8 465C114.3 466.6 114.2 469.2 112.6 470.7C111.7 471.4 110.8 471.7 109.8 471.7ZM535.5 448.7C534.7 448.7 533.9 448.5 533.2 448C531.4 446.7 531 444.2 532.2 442.4C535.4 437.8 538.5 433.1 541.3 428.4C542.4 426.5 544.9 425.9 546.8 427C548.7 428.1 549.3 430.6 548.2 432.5C545.2 437.4 542.1 442.3 538.8 447C538 448.1 536.8 448.7 535.5 448.7ZM87.1998 443.7C85.8998 443.7 84.6998 443.1 83.8998 442C80.5998 437.3 77.3998 432.4 74.3998 427.6C73.1998 425.7 73.7998 423.3 75.6998 422.1C77.5998 420.9 79.9998 421.5 81.1998 423.4C84.0998 428.1 87.1998 432.8 90.3998 437.4C91.6998 439.2 91.1998 441.7 89.3998 443C88.7998 443.5 87.9998 443.7 87.1998 443.7ZM554 417.9C553.4 417.9 552.8 417.8 552.2 417.5C550.2 416.5 549.4 414.1 550.4 412.1C552.9 407.1 555.2 402 557.4 396.9C558.3 394.9 560.6 393.9 562.6 394.8C564.6 395.7 565.6 398 564.7 400C562.5 405.3 560.1 410.6 557.5 415.7C556.9 417.1 555.5 417.9 554 417.9ZM68.5998 412.9C67.0998 412.9 65.6998 412.1 64.9998 410.7C62.3998 405.6 59.8998 400.3 57.5998 395.1C56.6998 393.1 57.6998 390.7 59.6998 389.8C61.6998 388.9 64.0998 389.9 64.9998 391.9C67.1998 397 69.5998 402.1 72.0998 407C73.0998 409 72.2998 411.4 70.3998 412.4C69.7998 412.8 69.1998 412.9 68.5998 412.9ZM567.7 384.6C567.3 384.6 566.9 384.5 566.4 384.4C564.3 383.7 563.2 381.4 563.9 379.4C565.6 374.1 567.2 368.7 568.6 363.4C569.1 361.3 571.3 360 573.5 360.5C575.6 361 576.9 363.2 576.4 365.4C575 371 573.4 376.5 571.6 382C571 383.5 569.4 384.6 567.7 384.6ZM54.3998 379.9C52.6998 379.9 51.1998 378.9 50.5998 377.2C48.6998 371.8 46.9998 366.2 45.4998 360.7C44.8998 358.6 46.1998 356.4 48.2998 355.8C50.3998 355.2 52.5998 356.5 53.1998 358.6C54.6998 363.9 56.2998 369.3 58.0998 374.6C58.7998 376.7 57.6998 379 55.5998 379.7C55.2998 379.8 54.8998 379.9 54.3998 379.9ZM576.5 349.7C576.3 349.7 576 349.7 575.8 349.6C573.6 349.2 572.2 347.2 572.5 345C573.5 339.5 574.2 334 574.8 328.4C575 326.2 577 324.6 579.2 324.8C581.4 325 583 327 582.8 329.2C582.2 334.9 581.4 340.7 580.4 346.3C580.1 348.4 578.4 349.7 576.5 349.7ZM45.0998 345.1C43.1998 345.1 41.4998 343.8 41.1998 341.8C40.0998 336.2 39.1998 330.4 38.5998 324.8C38.2998 322.6 39.8998 320.6 42.0998 320.4C44.2998 320.1 46.2998 321.7 46.4998 323.9C47.1998 329.4 47.9998 334.9 49.0998 340.4C49.4998 342.6 48.0998 344.7 45.8998 345.1C45.5998 345.1 45.3998 345.1 45.0998 345.1ZM580 313.9C577.7 313.8 575.9 312 576 309.8C576.1 307.8 576.1 305.7 576.1 303.6C576.1 300.1 576 296.5 575.9 293C575.8 290.8 577.5 288.9 579.7 288.8C581.9 288.7 583.8 290.4 583.9 292.6C584.1 296.2 584.1 299.9 584.1 303.5C584.1 305.6 584.1 307.8 584 309.9C583.9 312.2 582.2 313.9 580 313.9ZM40.9998 309.4C38.8998 309.4 37.0998 307.7 36.9998 305.6C36.8998 302.2 36.7998 298.7 36.7998 295.3C36.7998 293 36.7998 290.7 36.8998 288.4C36.9998 286.2 38.7998 284.5 40.9998 284.5C43.1998 284.6 44.8998 286.4 44.8998 288.6C44.7998 290.8 44.7998 293.1 44.7998 295.3C44.7998 298.6 44.8998 302 44.9998 305.3C45.0998 307.5 43.3998 309.4 41.1998 309.5C41.0998 309.4 41.0998 309.4 40.9998 309.4ZM578.3 278C576.3 278 574.6 276.5 574.3 274.5C573.6 269 572.8 263.4 571.7 258C571.3 255.8 572.7 253.7 574.9 253.3C577.1 252.9 579.2 254.3 579.6 256.5C580.7 262.1 581.6 267.9 582.3 273.5C582.6 275.7 581 277.7 578.8 278C578.6 278 578.4 278 578.3 278ZM42.1998 273.5C42.0998 273.5 41.8998 273.5 41.7998 273.5C39.5998 273.3 37.9998 271.3 38.1998 269.1C38.7998 263.4 39.5998 257.7 40.5998 252C40.9998 249.8 43.0998 248.4 45.1998 248.8C47.3998 249.2 48.7998 251.3 48.3998 253.4C47.3998 258.9 46.5998 264.5 46.0998 270C45.8998 272 44.1998 273.5 42.1998 273.5ZM571.3 242.8C569.5 242.8 567.9 241.6 567.4 239.9C565.9 234.6 564.3 229.2 562.4 223.9C561.7 221.8 562.8 219.5 564.9 218.8C567 218.1 569.3 219.2 570 221.3C571.9 226.7 573.6 232.3 575.1 237.8C575.7 239.9 574.4 242.1 572.3 242.7C572 242.7 571.7 242.8 571.3 242.8ZM48.4998 238.1C48.1998 238.1 47.7998 238.1 47.4998 238C45.3998 237.5 44.0998 235.3 44.5998 233.1C45.9998 227.5 47.6998 222 49.4998 216.5C50.1998 214.4 52.4998 213.3 54.5998 214C56.6998 214.7 57.7998 217 57.0998 219.1C55.3998 224.4 53.7998 229.8 52.3998 235.1C51.8998 236.9 50.2998 238.1 48.4998 238.1ZM559.4 208.9C557.9 208.9 556.4 208 555.7 206.5C553.5 201.4 551.1 196.3 548.5 191.4C547.5 189.4 548.3 187 550.2 186C552.2 185 554.6 185.8 555.6 187.7C558.2 192.8 560.7 198 563 203.3C563.9 205.3 563 207.7 560.9 208.6C560.4 208.8 559.9 208.9 559.4 208.9ZM59.9998 204C59.4998 204 58.9998 203.9 58.4998 203.7C56.4998 202.8 55.4998 200.5 56.3998 198.5C58.5998 193.2 61.0998 187.9 63.6998 182.8C64.6998 180.8 67.0998 180 69.0998 181C71.0998 182 71.8998 184.4 70.8998 186.4C68.3998 191.4 65.9998 196.5 63.8998 201.6C62.9998 203.1 61.5998 204 59.9998 204ZM542.7 177C541.4 177 540 176.3 539.3 175.1C536.4 170.4 533.3 165.7 530.1 161.1C528.8 159.3 529.3 156.8 531.1 155.5C532.9 154.2 535.4 154.7 536.7 156.5C540 161.2 543.2 166 546.2 170.9C547.4 172.8 546.8 175.2 544.9 176.4C544.2 176.8 543.4 177 542.7 177ZM76.3998 172C75.6998 172 74.9998 171.8 74.2998 171.4C72.3998 170.3 71.7998 167.8 72.9998 165.9C75.9998 161 79.1998 156.1 82.4998 151.4C83.7998 149.6 86.2998 149.2 88.0998 150.4C89.8998 151.7 90.2998 154.2 89.0998 156C85.8998 160.5 82.7998 165.3 79.8998 170C78.9998 171.3 77.6998 172 76.3998 172ZM521.9 147.6C520.7 147.6 519.6 147.1 518.8 146.1C515.3 141.8 511.6 137.6 507.8 133.5C506.3 131.9 506.4 129.4 508 127.8C509.6 126.2 512.1 126.4 513.7 128C517.6 132.2 521.4 136.6 525.1 141C526.5 142.7 526.2 145.2 524.5 146.6C523.7 147.3 522.8 147.6 521.9 147.6ZM97.1998 142.7C96.2998 142.7 95.3998 142.4 94.6998 141.8C92.9998 140.4 92.7998 137.9 94.1998 136.2C97.7998 131.8 101.7 127.4 105.6 123.3C107.1 121.7 109.6 121.6 111.3 123.1C112.9 124.6 113 127.1 111.5 128.8C107.7 132.8 104 137.1 100.4 141.3C99.4998 142.2 98.2998 142.7 97.1998 142.7ZM497.3 121.4C496.3 121.4 495.3 121 494.6 120.3C490.5 116.5 486.3 112.8 482 109.2C480.3 107.8 480.1 105.3 481.5 103.6C482.9 101.9 485.4 101.7 487.1 103.1C491.5 106.7 495.9 110.6 500.1 114.5C501.7 116 501.8 118.5 500.3 120.2C499.4 121 498.3 121.4 497.3 121.4ZM122 116.6C120.9 116.6 119.8 116.2 119 115.3C117.5 113.7 117.6 111.1 119.3 109.6C123.5 105.7 127.9 102 132.4 98.4001C134.1 97.0001 136.6 97.3001 138 99.0001C139.4 100.7 139.1 103.2 137.4 104.6C133.1 108.1 128.8 111.7 124.7 115.5C123.9 116.3 123 116.6 122 116.6ZM469.4 98.6001C468.6 98.6001 467.8 98.4001 467.1 97.9001C462.6 94.7001 457.9 91.5001 453.2 88.6001C451.3 87.4001 450.8 85.0001 451.9 83.1001C453.1 81.2001 455.5 80.7001 457.4 81.8001C462.3 84.8001 467.1 88.1001 471.8 91.4001C473.6 92.7001 474 95.2001 472.7 97.0001C471.9 98.0001 470.6 98.6001 469.4 98.6001ZM150.2 94.3001C148.9 94.3001 147.7 93.7001 146.9 92.6001C145.6 90.8001 146.1 88.3001 147.9 87.0001C152.6 83.8001 157.5 80.6001 162.4 77.7001C164.3 76.6001 166.8 77.2001 167.9 79.1001C169 81.0001 168.4 83.5001 166.5 84.6001C161.7 87.5001 157 90.5001 152.4 93.6001C151.7 94.0001 150.9 94.3001 150.2 94.3001ZM438.8 79.7001C438.2 79.7001 437.5 79.5001 436.9 79.2001C432 76.6001 426.9 74.1001 421.9 71.8001C419.9 70.9001 419 68.5001 419.9 66.5001C420.8 64.5001 423.2 63.6001 425.2 64.5001C430.4 66.9001 435.6 69.4001 440.7 72.1001C442.6 73.1001 443.4 75.6001 442.4 77.5001C441.6 78.9001 440.2 79.7001 438.8 79.7001ZM181.1 75.9001C179.6 75.9001 178.2 75.1001 177.5 73.7001C176.5 71.7001 177.3 69.3001 179.3 68.3001C184.4 65.7001 189.7 63.3001 194.9 61.0001C196.9 60.1001 199.3 61.1001 200.2 63.1001C201.1 65.1001 200.1 67.5001 198.1 68.4001C193 70.6001 187.9 73.0001 182.9 75.5001C182.3 75.8001 181.7 75.9001 181.1 75.9001ZM406 64.8001C405.5 64.8001 405.1 64.7001 404.6 64.5001C399.4 62.5001 394.1 60.7001 388.8 59.1001C386.7 58.4001 385.5 56.2001 386.2 54.1001C386.9 52.0001 389.1 50.8001 391.2 51.5001C396.7 53.2001 402.2 55.1001 407.5 57.1001C409.6 57.9001 410.6 60.2001 409.8 62.3001C409.2 63.9001 407.6 64.8001 406 64.8001ZM214.2 61.9001C212.5 61.9001 211 60.9001 210.4 59.2001C209.7 57.1001 210.8 54.8001 212.9 54.1001C218.3 52.2001 223.8 50.5001 229.3 48.9001C231.4 48.3001 233.6 49.5001 234.2 51.7001C234.8 53.8001 233.6 56.0001 231.4 56.6001C226.1 58.1001 220.7 59.8001 215.4 61.6001C215.1 61.8001 214.6 61.9001 214.2 61.9001ZM371.6 54.3001C371.3 54.3001 371 54.3001 370.7 54.2001C365.3 52.9001 359.8 51.8001 354.3 50.8001C352.1 50.4001 350.7 48.3001 351.1 46.2001C351.5 44.0001 353.6 42.6001 355.7 43.0001C361.3 44.0001 367 45.2001 372.6 46.5001C374.7 47.0001 376.1 49.2001 375.6 51.3001C375.1 53.1001 373.4 54.3001 371.6 54.3001ZM248.8 52.3001C246.9 52.3001 245.3 51.0001 244.9 49.1001C244.5 46.9001 245.8 44.8001 248 44.4001C253.6 43.2001 259.3 42.2001 265 41.4001C267.2 41.1001 269.2 42.6001 269.5 44.8001C269.8 47.0001 268.3 49.0001 266.1 49.3001C260.6 50.1001 255 51.1001 249.6 52.2001C249.3 52.3001 249.1 52.3001 248.8 52.3001ZM337.3 48.3001C337.1 48.3001 337 48.3001 336.8 48.3001C331.3 47.7001 325.6 47.2001 320.1 46.9001C317.9 46.8001 316.2 44.9001 316.3 42.7001C316.4 40.5001 318.3 38.8001 320.5 38.9001C326.2 39.2001 332 39.7001 337.7 40.3001C339.9 40.5001 341.5 42.5001 341.2 44.7001C341.1 46.8001 339.3 48.3001 337.3 48.3001ZM284.4 47.3001C282.3 47.3001 280.6 45.7001 280.4 43.6001C280.2 41.4001 281.9 39.5001 284.1 39.3001C289.8 38.9001 295.6 38.6001 301.3 38.5001C303.5 38.4001 305.3 40.2001 305.4 42.4001C305.4 44.6001 303.7 46.4001 301.5 46.5001C295.9 46.6001 290.3 46.8001 284.8 47.2001C284.6 47.3001 284.5 47.3001 284.4 47.3001Z" fill="url(#paint3_linear_514_569)"/>
<path d="M369.7 458.3C372.2 455.3 374.6 451.9 376.7 448.5C378.8 445 380.8 441.5 382.4 437.8C382.8 436.9 383.3 436 383.6 435C384 434.1 384.4 433.1 384.8 432.2C385.5 430.3 386.2 428.4 386.8 426.4C388.1 422.5 388.9 418.5 389.7 414.5C389.8 414.2 390 414.1 390.3 414.1C390.6 414.1 390.7 414.4 390.7 414.7C390.1 418.8 389.5 422.9 388.4 426.9C387.9 428.9 387.3 430.9 386.6 432.9C386.3 433.9 385.9 434.9 385.6 435.8C385.3 436.8 384.9 437.7 384.5 438.7C383 442.6 381.2 446.3 379.1 450C377.1 453.7 374.9 457.2 372.3 460.6C371.7 461.3 370.7 461.5 369.9 460.9C369.1 460.3 369 459.3 369.6 458.5C369.6 458.4 369.6 458.4 369.7 458.3Z" fill="#C2974B"/>
<path d="M506.9 157.7L559.4 153L537.5 181.9L506.9 157.7Z" fill="#FDC34C"/>
<path d="M521 177C521 177 519.2 167.4 519.2 167.5L559.4 153L523.7 170.7L521 177Z" fill="#FA913F"/>
<path d="M242.1 184.5C222.5 183.9 207.4 183.2 207.8 177.5C208.2 171.8 218.3 171.9 224.8 171.4C231.4 170.9 238.5 171.5 242.1 167.5C245.7 163.5 249.8 162.1 257.3 162C264.8 161.9 269.4 161.2 272.9 157C276.4 152.7 282.7 146.8 288.6 146.9C294.5 147 299.8 153.9 301.6 161.4C303.4 168.9 311.9 172 318 173.3C324.1 174.6 328.6 177.6 329.2 181.8C329.8 186.1 319.8 187.3 301.3 187.2C283 187 242.1 184.5 242.1 184.5Z" fill="#D4DCC5"/>
<path d="M251.1 249.4C251.1 249.4 230.5 234.2 221.4 218.7C212.3 203.2 210.6 175.3 199.2 156.2C187.8 137.1 168.5 126.3 150.4 126C132.3 125.7 111.2 146.1 108.1 166.9C105 187.7 109.4 208.8 120.5 232.1C131.6 255.4 132.4 277.5 121.3 320.9C110.2 364.3 244.7 326.3 244.7 326.3L251.1 249.4Z" fill="#D3E08C"/>
<path d="M158.2 321.4C158.2 321.4 137.1 322.8 117.4 311.3C97.7002 299.9 100.9 278.2 63.1002 276.1C25.3002 274 26.4002 312.5 32.4002 325.3C38.4002 338.1 45.4002 346 56.0002 354.5C66.6002 363 81.2002 370 87.2002 392.6C93.2002 415.2 106.2 437.9 128.2 449.7C150.3 461.5 157.8 459.8 176.6 463.1C195.4 466.4 190.7 471 227.5 470.8C264.3 470.6 217 379.1 217 379.1L158.2 321.4Z" fill="#D3E08C"/>
<path d="M502 464.6C502 464.6 530.9 436 551.3 393.9C571.7 351.8 573.2 306.4 566.5 304.9C559.8 303.4 534.8 379.7 528.6 393.2C522.4 406.6 491.4 445.1 491.4 445.1L502 464.6Z" fill="#D3E08C"/>
<path d="M470.8 462.6C478.2 448.4 485.1 433.9 491.7 419.3C493.3 415.6 495 412 496.5 408.3L498.9 402.8L501.2 397.2C504.2 389.8 507.1 382.3 509.9 374.8L526 329.4C531.4 314.3 536.9 299.2 542.5 284.1C542.6 283.8 542.9 283.7 543.1 283.8C543.3 283.9 543.5 284.1 543.4 284.4C541.6 292.3 539.5 300 537.3 307.8C535.1 315.5 532.7 323.2 530.4 330.9C527.9 338.6 525.5 346.2 522.9 353.8L519 365.2C517.7 369 516.2 372.8 514.9 376.6C513.4 380.4 512 384.1 510.5 387.9C508.9 391.6 507.4 395.4 505.8 399.1C502.6 406.5 499.2 413.8 495.6 421.1C488.4 435.5 480.7 449.7 471.8 463.2C471.6 463.4 471.3 463.5 471.1 463.3C470.8 463.1 470.7 462.8 470.8 462.6Z" fill="#EEF3D4"/>
<path d="M435 462.5C441.6 451.4 447.9 440.3 454 429C460 417.7 465.8 406.3 470.9 394.6C476 382.9 480.5 371 483.9 358.8L485.1 354.2L486.1 349.6C486.5 348.1 486.7 346.5 487 344.9L487.4 342.6L487.7 340.2C488.5 333.9 488.8 327.6 488.2 321.2C488.2 320.9 488.4 320.7 488.6 320.7C488.8 320.7 489.1 320.8 489.1 321.1C490.8 327.4 491.2 334 491 340.6C490.8 347.1 489.9 353.7 488.5 360.1C487.8 363.3 487.1 366.5 486.1 369.6C485.2 372.8 484.2 375.8 483.2 379C481.1 385.2 478.7 391.2 476.1 397.2C473.4 403.1 470.6 409 467.6 414.7C464.6 420.4 461.4 426.1 458 431.6C451.2 442.6 444 453.3 435.7 463.3C435.5 463.5 435.2 463.5 435 463.4C434.9 463 434.9 462.8 435 462.5Z" fill="#EEF3D4"/>
<path d="M437.1 401.1C447.483 401.1 455.9 347.33 455.9 281C455.9 214.671 447.483 160.9 437.1 160.9C426.717 160.9 418.3 214.671 418.3 281C418.3 347.33 426.717 401.1 437.1 401.1Z" fill="#769050"/>
<path d="M457.6 281C457.6 270.6 457.5 260.3 457.1 249.9C457 246.2 456.8 242.4 456.6 238.7H452.9C453.2 242.5 453.4 246.3 453.6 250.1C454.1 260.4 454.3 270.7 454.3 281.1C454.3 291.4 454 301.7 453.6 312.1C453.6 312.4 453.6 312.8 453.5 313.1H457.1C457.1 312.8 457.1 312.5 457.1 312.3C457.4 301.8 457.6 291.4 457.6 281Z" fill="#F5CB47"/>
<path d="M432.4 316C453.111 316 469.9 299.211 469.9 278.5C469.9 257.789 453.111 241 432.4 241C411.689 241 394.9 257.789 394.9 278.5C394.9 299.211 411.689 316 432.4 316Z" fill="#134C32"/>
<path d="M463.8 277.9C462.8 277.9 461.9 277.1 461.8 276.1C460.6 260.9 447.7 249 432.4 249C431.1 249 429.9 249.1 428.6 249.2C427.5 249.3 426.5 248.6 426.4 247.5C426.3 246.4 427 245.4 428.1 245.3C429.5 245.1 430.9 245 432.4 245C449.7 245 464.4 258.5 465.8 275.8C465.9 276.9 465.1 277.9 464 278C463.9 277.9 463.8 277.9 463.8 277.9Z" fill="#AEC0B8"/>
<path d="M437.1 160.9L206 252L213.2 345.4L437.1 401.1L424.5 373.2L416.9 290.4L418.8 231.7L424.5 185.6L437.1 160.9Z" fill="#88A54F"/>
<path d="M246.5 244.4C245.9 244.4 245.3 244 245.1 243.4C244.8 242.6 245.2 241.8 246 241.5L412.8 178C413.6 177.7 414.4 178.1 414.7 178.9C415 179.7 414.6 180.5 413.8 180.8L247 244.3C246.9 244.3 246.7 244.4 246.5 244.4Z" fill="#D6E1BE"/>
<path d="M222.7 253.4C222.1 253.4 221.5 253 221.3 252.4C221 251.6 221.4 250.8 222.2 250.5L232.7 246.5C233.5 246.2 234.3 246.6 234.6 247.4C234.9 248.2 234.5 249 233.7 249.3L223.2 253.3C223 253.4 222.9 253.4 222.7 253.4Z" fill="#D6E1BE"/>
<path d="M192.1 247.8L160.6 164.2C160.4 163.7 160.7 163.1 161.2 162.9C161.7 162.7 162.3 163 162.5 163.5L195.7 246.4C196.1 247.4 195.6 248.5 194.6 248.9C193.6 249.3 192.5 248.8 192.1 247.8Z" fill="#E3E6C8"/>
<path d="M190.1 415C171.1 396.8 151.9 378.7 132.6 360.9C122.9 352 113.2 343.1 103.3 334.4C98.3999 330 93.3999 325.7 88.3999 321.5C85.8999 319.4 83.2999 317.3 80.7999 315.3C78.1999 313.3 75.5999 311.3 72.8999 309.7C72.3999 309.4 72.2999 308.8 72.4999 308.3C72.7999 307.8 73.3999 307.7 73.8999 307.9C76.8999 309.6 79.4999 311.6 82.0999 313.6C84.6999 315.6 87.2999 317.7 89.8999 319.8C94.9999 324 99.9999 328.2 105 332.5C115 341.1 124.9 349.9 134.7 358.7C154.3 376.3 173.7 394.1 193 412.1C193.8 412.9 193.9 414.2 193.1 415C192.3 415.8 191 415.8 190.1 415C190.1 415.1 190.1 415.1 190.1 415Z" fill="#E3E6C8"/>
<path d="M7.29988 472.8C7.19988 472.8 6.99988 472.8 6.89988 472.7C6.39988 472.5 6.19988 471.9 6.39988 471.4L46.9999 387C47.1999 386.5 47.7999 386.3 48.2999 386.5C48.7999 386.7 48.9999 387.3 48.7999 387.8L8.19988 472.2C7.99988 472.6 7.59988 472.8 7.29988 472.8Z" fill="#877C54"/>
<path d="M32.6998 472.8C32.5998 472.8 32.3998 472.8 32.2998 472.7C31.7998 472.5 31.5998 471.9 31.7998 471.4L72.3998 387C72.5998 386.5 73.1998 386.3 73.6998 386.5C74.1998 386.7 74.3998 387.3 74.1998 387.8L33.5998 472.2C33.3998 472.6 32.9998 472.8 32.6998 472.8Z" fill="#877C54"/>
<path d="M81.8002 388.4H45.2002C44.6002 388.4 44.2002 388 44.2002 387.4C44.2002 386.8 44.6002 386.4 45.2002 386.4H81.8002C82.4002 386.4 82.8002 386.8 82.8002 387.4C82.8002 388 82.4002 388.4 81.8002 388.4Z" fill="#775034"/>
<path d="M80.8999 472.8C80.2999 472.8 79.8999 472.4 79.8999 471.8V387.4C79.8999 386.8 80.2999 386.4 80.8999 386.4C81.4999 386.4 81.8999 386.8 81.8999 387.4V471.8C81.8999 472.4 81.4999 472.8 80.8999 472.8Z" fill="#775034"/>
<path d="M66.8999 401.8H41.3999C40.7999 401.8 40.3999 401.4 40.3999 400.8C40.3999 400.2 40.7999 399.8 41.3999 399.8H66.7999C67.3999 399.8 67.7999 400.2 67.7999 400.8C67.7999 401.4 67.3999 401.8 66.8999 401.8Z" fill="#877C54"/>
<path d="M59.6001 417H34.1001C33.5001 417 33.1001 416.6 33.1001 416C33.1001 415.4 33.5001 415 34.1001 415H59.5001C60.1001 415 60.5001 415.4 60.5001 416C60.5001 416.6 60.1001 417 59.6001 417Z" fill="#877C54"/>
<path d="M60 472.8C59.4 472.8 59 472.4 59 471.8V387.4C59 386.8 59.4 386.4 60 386.4C60.6 386.4 61 386.8 61 387.4V471.8C61 472.4 60.6 472.8 60 472.8Z" fill="#775034"/>
<path d="M61.2002 269.7C61.2002 269.7 61.2002 275.2 61.2002 278.1C61.2002 281 62.8002 281.7 65.0002 281.7C67.1002 281.7 68.8002 281.1 68.8002 278.2C68.8002 275.3 68.8002 270.7 68.8002 270.7L61.2002 269.7Z" fill="#F58A66"/>
<path d="M51.5001 433.8H26.1001C25.5001 433.8 25.1001 433.4 25.1001 432.8C25.1001 432.2 25.5001 431.8 26.1001 431.8H51.5001C52.1001 431.8 52.5001 432.2 52.5001 432.8C52.5001 433.4 52.1001 433.8 51.5001 433.8Z" fill="#877C54"/>
<path d="M44.1998 448.9H18.7998C18.1998 448.9 17.7998 448.5 17.7998 447.9C17.7998 447.3 18.1998 446.9 18.7998 446.9H44.1998C44.7998 446.9 45.1998 447.3 45.1998 447.9C45.1998 448.5 44.7998 448.9 44.1998 448.9Z" fill="#877C54"/>
<path d="M72.0001 264.7C72.0001 264.7 73.2001 270.2 72.0001 272.6C70.8001 275 66.3001 275.2 63.7001 273.2C61.1001 271.2 59.7001 268.7 59.0001 265.9C58.3001 263.1 72.0001 264.7 72.0001 264.7Z" fill="#FAAF73"/>
<path d="M36.4 465.1H11C10.4 465.1 10 464.7 10 464.1C10 463.5 10.4 463.1 11 463.1H36.4C37 463.1 37.4 463.5 37.4 464.1C37.4 464.7 36.9 465.1 36.4 465.1Z" fill="#877C54"/>
<path d="M58.0998 266.4H55.6998L53.7998 263.2L67.7998 250.2H70.4998L72.3998 252.3V259.1L58.0998 266.4Z" fill="#29693E"/>
<path d="M72.4001 259.1L74.7001 264.4L58.1001 266.4L72.4001 259.1Z" fill="#F4CE46"/>
<path d="M72.3998 268.5C72.3998 268.5 75.5998 272.7 72.9998 274.5C70.3998 276.3 66.0998 275.4 63.0998 272.7C61.3998 271.2 61.3998 269.4 61.3998 269.4L61.2998 267.1C61.2998 267.1 65.6998 271.7 69.1998 271.2C72.4998 270.7 69.1998 268 72.3998 268.5Z" fill="#68281E"/>
<path d="M250.2 471.8C250.2 471.8 243.8 471.8 234.1 471.8C224.4 471.8 214 466.4 207.6 452.4C201.2 438.5 162.7 345.4 162.7 345.4H237L279.3 431.3L250.2 471.8Z" fill="#124B32"/>
<path d="M113.4 271.2L90.2998 278.1L68.6998 278.2L61.1998 278.1C61.1998 278.1 57.8998 278.2 54.3998 278.2C50.8998 278.2 49.1998 280.4 48.1998 284.6C47.1998 288.9 45.3998 295.5 45.6998 304.1C45.9998 312.6 51.5998 330.2 51.5998 330.2H54.3998C54.3998 330.2 52.8998 316.8 53.1998 310.3C53.5998 303.7 53.5998 303.7 53.5998 303.7H55.5998L57.9998 383.9H62.9998L64.0998 340.7L64.8998 383.9H70.2998C70.2998 383.9 73.0998 327.6 73.2998 319.8C73.4998 311.9 77.3998 306.3 78.9998 299.6C80.6998 292.9 81.8998 291.1 87.6998 288.4C93.4998 285.7 113.3 275.2 113.3 275.2V271.2H113.4Z" fill="#29683E"/>
<path d="M113.4 271.2L124.2 266.6L124.5 267.9L120.3 269.7L119 273.6L113.4 275.1V271.2Z" fill="#FAAF73"/>
<path d="M51.6001 330.2V337.1L53.3001 339.9H55.5001V332.3L54.4001 330.2H51.6001Z" fill="#FAAF73"/>
<path d="M56.1001 317.5L73.4001 318.2L73.3001 321.2L56.2001 320.6L56.1001 317.5Z" fill="#D87556"/>
<path d="M62.1998 383.9H58.7998V385.2H62.1998V383.9Z" fill="#7C8345"/>
<path d="M69.1998 383.9H65.7998V385.2H69.1998V383.9Z" fill="#7C8345"/>
<path d="M65.7998 385.1L65.2998 386.1V388.3C65.2998 388.3 75.6998 388.4 75.5998 388.3C75.4998 388.2 75.5998 386.8 75.5998 386.8L69.2998 385.2H65.7998V385.1Z" fill="#EB745D"/>
<path d="M58.7998 385.1L58.2998 386.1V388.3C58.2998 388.3 68.6998 388.4 68.5998 388.3C68.4998 388.2 68.5998 386.8 68.5998 386.8L62.2998 385.2H58.7998V385.1Z" fill="#FAAE51"/>
<path d="M182.4 360.2C181.8 360.2 181.3 359.9 181 359.3C179.9 356.6 178.8 354 177.8 351.7C177.5 350.9 177.8 350.1 178.6 349.7C179.4 349.4 180.2 349.7 180.6 350.5C181.6 352.8 182.6 355.4 183.8 358.1C184.1 358.9 183.8 359.7 183 360.1C182.7 360.1 182.5 360.2 182.4 360.2Z" fill="#B9CCC4"/>
<path d="M357.4 316C364.1 316 365.8 323.8 365.8 323.8C365.8 323.8 358 327.6 346.4 327.8C334.9 328 343.5 316.1 343.5 316.1L357.4 316Z" fill="#F6C649"/>
<path d="M243 459.3H234.1C227.8 459.3 222.6 455.1 218.9 447.2C215.3 439.3 198.4 400.5 186.2 371.7C185.9 370.9 186.2 370.1 187 369.7C187.8 369.4 188.6 369.7 189 370.5C201.2 399.3 218 438 221.7 445.9C223.9 450.6 227.8 456.2 234.1 456.2H243C243.8 456.2 244.5 456.9 244.5 457.7C244.5 458.5 243.8 459.3 243 459.3Z" fill="#B9CCC4"/>
<path d="M221 345.4C221 345.4 171.8 345.4 164.1 345.4C156.4 345.4 150.9 337.1 149.6 320.2C148.3 303.3 146.9 287 147.7 270.8C148.5 254.6 159.5 242.8 177.8 242.8C196.1 242.8 223.8 245 223.8 245C223.8 245 215.5 257.6 215.5 290.5C215.3 329.5 221 345.4 221 345.4Z" fill="#0E422B"/>
<path d="M202.1 268.9H160.3C157.8 268.9 155.8 266.9 155.8 264.4C155.8 259.8 159.5 256.1 164.1 256.1H202C204.5 256.1 206.5 258.1 206.5 260.6V264.5C206.6 266.9 204.6 268.9 202.1 268.9ZM164.2 259C161.3 259 158.9 261.4 158.9 264.3C158.9 265.1 159.6 265.8 160.4 265.8H202.2C203 265.8 203.7 265.1 203.7 264.3V260.4C203.7 259.6 203 258.9 202.2 258.9H164.2V259Z" fill="#B4C6BE"/>
<path d="M198.6 287.4H156.8C154.3 287.4 152.3 285.4 152.3 282.9C152.3 278.3 156 274.6 160.6 274.6H198.5C201 274.6 203 276.6 203 279.1V283C203 285.4 201 287.4 198.6 287.4ZM160.6 277.6C157.7 277.6 155.3 280 155.3 282.9C155.3 283.7 156 284.4 156.8 284.4H198.6C199.4 284.4 200.1 283.7 200.1 282.9V279C200.1 278.2 199.4 277.5 198.6 277.5H160.6V277.6Z" fill="#B4C6BE"/>
<path d="M202.1 308.6H160.3C157.8 308.6 155.8 306.6 155.8 304.1C155.8 299.5 159.5 295.8 164.1 295.8H202C204.5 295.8 206.5 297.8 206.5 300.3V304.2C206.6 306.6 204.6 308.6 202.1 308.6ZM164.2 298.8C161.3 298.8 158.9 301.2 158.9 304.1C158.9 304.9 159.6 305.6 160.4 305.6H202.2C203 305.6 203.7 304.9 203.7 304.1V300.2C203.7 299.4 203 298.7 202.2 298.7H164.2V298.8Z" fill="#B4C6BE"/>
<path d="M205.7 332.2H163.9C161.4 332.2 159.4 330.2 159.4 327.7C159.4 323.1 163.1 319.4 167.7 319.4H205.6C208.1 319.4 210.1 321.4 210.1 323.9V327.8C210.2 330.2 208.2 332.2 205.7 332.2ZM167.8 322.4C164.9 322.4 162.5 324.8 162.5 327.7C162.5 328.5 163.2 329.2 164 329.2H205.8C206.6 329.2 207.3 328.5 207.3 327.7V323.8C207.3 323 206.6 322.3 205.8 322.3H167.8V322.4Z" fill="#B4C6BE"/>
<path d="M251.1 317.5C238.9 318.3 229.8 323.3 231.2 336.9C232.6 350.4 241.8 450.5 243 460.2C244.2 469.9 252.5 474.1 262.8 474.5C273.1 474.9 355.9 476.4 355.9 476.4C355.9 476.4 347.8 475.6 347.8 460.7C347.8 445.8 348 334.5 348 326.6C348 318.7 351.5 316 357.5 316C338.4 316 251.1 317.5 251.1 317.5Z" fill="#A4B131"/>
<path d="M345.8 472.3C323.4 471.9 270.9 470.9 262.9 470.6C256.2 470.3 248 468.3 247 459.8C246.2 453.6 242 408.8 239 376C237.3 357.4 235.7 341.4 235.3 336.6C234.9 332.3 235.6 329.1 237.6 326.8C240.1 323.8 244.8 322.1 251.4 321.7C254.2 321.7 315.2 320.6 344.9 320.2C344.3 322 344 324.1 344 326.8C344 330.1 344 351.9 343.9 377C343.8 411.5 343.8 452.3 343.8 460.9C343.7 465.8 344.5 469.5 345.8 472.3Z" fill="#DBE19F"/>
<path d="M368.6 432.3C367.8 432.3 367.1 431.6 367.1 430.8V424.8C367.1 424 367.8 423.3 368.6 423.3C369.4 423.3 370.1 424 370.1 424.8V430.8C370.1 431.6 369.5 432.3 368.6 432.3Z" fill="#EAEEC3"/>
<path d="M413.5 427.4C412.7 427.4 412 426.7 412 425.9V420.4C412 419.6 412.7 418.9 413.5 418.9C414.3 418.9 415 419.6 415 420.4V425.9C415 426.8 414.3 427.4 413.5 427.4Z" fill="#EAEEC3"/>
<path d="M259.6 377.8H250.2C248.6 377.8 247.3 376.5 247.3 374.9V364.1C247.3 362.5 248.6 361.2 250.2 361.2H259.6C261.2 361.2 262.5 362.5 262.5 364.1V374.9C262.5 376.5 261.2 377.8 259.6 377.8Z" fill="#F3F5E9"/>
<path d="M259.6 407.6H250.2C248.6 407.6 247.3 406.3 247.3 404.7V393.9C247.3 392.3 248.6 391 250.2 391H259.6C261.2 391 262.5 392.3 262.5 393.9V404.7C262.5 406.3 261.2 407.6 259.6 407.6Z" fill="#F3F5E9"/>
<path d="M253.3 372.4C252.7 372.4 252 372.1 251.7 371.6L244.6 361.6C244 360.7 244.2 359.5 245.1 358.8C246 358.2 247.2 358.4 247.9 359.3L252.8 366.2L257.6 353.3C258 352.3 259.1 351.7 260.2 352.1C261.2 352.5 261.8 353.6 261.4 354.7L255.3 371.2C255 371.9 254.4 372.4 253.7 372.5C253.5 372.4 253.4 372.4 253.3 372.4Z" fill="#F77735"/>
<path d="M253.3 403.1C252.7 403.1 252 402.8 251.7 402.3L244.6 392.3C244 391.4 244.2 390.2 245.1 389.5C246 388.9 247.2 389.1 247.9 390L252.8 396.9L257.6 384C258 383 259.1 382.4 260.2 382.8C261.2 383.2 261.8 384.3 261.4 385.4L255.3 401.9C255 402.6 254.4 403.1 253.7 403.2C253.5 403.1 253.4 403.1 253.3 403.1Z" fill="#F77735"/>
<path d="M259.6 437.5H250.2C248.6 437.5 247.3 436.2 247.3 434.6V423.8C247.3 422.2 248.6 420.9 250.2 420.9H259.6C261.2 420.9 262.5 422.2 262.5 423.8V434.6C262.5 436.1 261.2 437.5 259.6 437.5Z" fill="#F3F5E9"/>
<path d="M269.5 365.2C268.4 365.2 267.5 364.3 267.5 363.3C267.5 362.2 268.3 361.3 269.4 361.2L329.7 359.1C330.9 359.1 331.7 359.9 331.8 361C331.9 362.1 331 363 329.9 363.1L269.5 365.2Z" fill="#F3F5E9"/>
<path d="M269.5 376.5C268.4 376.5 267.5 375.6 267.5 374.6C267.5 373.5 268.3 372.6 269.4 372.5L310.9 371.1C312 371.1 312.9 371.9 313 373C313 374.1 312.2 375 311.1 375.1L269.5 376.5Z" fill="#F3F5E9"/>
<path d="M269.5 395C268.4 395 267.5 394.1 267.5 393.1C267.5 392 268.3 391.1 269.4 391L329.7 388.9C330.9 388.9 331.7 389.7 331.8 390.8C331.9 391.9 331 392.8 329.9 392.9L269.5 395Z" fill="#F3F5E9"/>
<path d="M269.5 406.3C268.4 406.3 267.5 405.4 267.5 404.4C267.5 403.3 268.3 402.4 269.4 402.3L310.9 400.9C312 400.9 312.9 401.7 313 402.8C313 403.9 312.2 404.8 311.1 404.9L269.5 406.3Z" fill="#F3F5E9"/>
<path d="M269.5 425.2C268.4 425.2 267.5 424.3 267.5 423.3C267.5 422.2 268.3 421.3 269.4 421.2L329.7 419.1C330.9 419.1 331.7 419.9 331.8 421C331.9 422.1 331 423 329.9 423.1L269.5 425.2Z" fill="#F3F5E9"/>
<path d="M269.5 436.4C268.4 436.4 267.5 435.5 267.5 434.5C267.5 433.4 268.3 432.5 269.4 432.4L310.9 431C312 430.9 312.9 431.8 313 432.9C313 434 312.2 434.9 311.1 435L269.5 436.4Z" fill="#F3F5E9"/>
<path d="M373.1 466.1C373.1 466.1 398.1 457.7 410.4 444.8C422.7 431.9 423.8 417.5 423.8 417.5C423.8 417.5 403.4 422.5 389 439.1C374.5 455.6 373.1 466.1 373.1 466.1Z" fill="#B6D686"/>
<path d="M586.4 344.699C586.4 344.699 592.2 344.999 596 345.699C599.9 346.399 602.1 350.699 602.9 358.799C603.7 366.899 602.7 381.899 601.1 387.799C599.5 393.699 597.6 398.199 597.6 398.199H594.8L595.5 371.499H594L593.3 384.799C593.3 384.799 594.1 403.899 593.5 416.599C592.9 429.199 590.5 451.099 590.5 451.099H586.5L585.8 415.399C585.8 415.399 585.1 432.799 584 439.299C582.9 445.799 582.8 451.199 582.8 451.199H579.2L576 387.099C576 387.099 572.2 376.499 571.2 367.899C570.2 359.299 569 346.599 573.5 346.399C578 346.199 579.3 345.399 579.3 345.399L586.4 344.699Z" fill="#13301B"/>
<path d="M579.6 338.7C579.6 338.7 579.2 344.4 579.1 346.1C579.1 347.7 581 347.6 582.9 347.6C584.9 347.5 586.3 346.5 586.3 344.3C586.3 342.1 585.8 336.1 585.8 336.1L579.6 338.7Z" fill="#FD8365"/>
<path d="M579.2 326.199C579.2 326.199 575.4 331.599 575.2 335.299C575 339.099 580.2 339.699 583 339.399C585.8 339.099 589.1 332.799 589.1 332.799L579.2 326.199Z" fill="#F8AD73"/>
<path d="M586.2 331.699C586.2 331.699 582.4 336.199 584.7 337.499C587 338.799 590.5 336.899 590.4 334.799C590.4 332.699 586.2 331.699 586.2 331.699Z" fill="#87271C"/>
<path d="M590.7 336C590.7 336 599.5 329 593.2 322.7C585.7 315.2 575.9 323.9 575.9 323.9L590.7 336Z" fill="#235A35"/>
<path d="M593.3 385.1H576V388.8H593.3C593.4 388.8 593.3 385.1 593.3 385.1Z" fill="#CB6E51"/>
<path d="M594.8 398.199L593.8 399.799L591.8 401.699L592.5 403.199L595.5 402.099L595.4 404.599L594.2 406.099H591.6C591.6 406.099 591.6 407.499 591.6 407.699C591.6 407.899 595.3 407.699 595.3 407.699L597.5 404.999V398.199H594.8Z" fill="#FD8365"/>
<path d="M578.7 451L578.3 452.3L573.3 453.6V455.5H583.4V452.7L582.8 451H578.7Z" fill="#E7715C"/>
<path d="M586.4 451L586 452.3L580.9 453.6V455.5H591.1V452.7L590.5 451H586.4Z" fill="#FEB055"/>
<path d="M529.3 349.699C529.3 349.699 535.1 349.999 538.9 350.699C542.8 351.399 545 355.699 545.8 363.799C546.6 371.899 545.6 386.899 544 392.799C542.4 398.699 540.5 403.199 540.5 403.199H537.7L538.4 376.499H536.9L536.2 389.799C536.2 389.799 537 408.899 536.4 421.599C535.8 434.199 533.4 456.099 533.4 456.099H529.4L528.7 420.399C528.7 420.399 528 437.799 526.9 444.299C525.8 450.799 525.7 456.199 525.7 456.199H522L518.8 392.099C518.8 392.099 515 381.499 514 372.899C513 364.299 511.8 351.599 516.3 351.399C520.8 351.099 522.1 350.399 522.1 350.399L529.3 349.699Z" fill="#13301B"/>
<path d="M522.5 343.7C522.5 343.7 522.1 349.4 522 351.1C522 352.7 523.9 352.6 525.8 352.6C527.8 352.5 529.2 351.5 529.2 349.3C529.2 347.1 528.7 341.1 528.7 341.1L522.5 343.7Z" fill="#FD8365"/>
<path d="M522.1 331.199C522.1 331.199 518.3 336.599 518.1 340.299C517.9 344.099 523.1 344.699 525.9 344.399C528.7 344.099 532 337.799 532 337.799L522.1 331.199Z" fill="#F8AD73"/>
<path d="M529 336.699C529 336.699 525.2 341.199 527.5 342.499C529.8 343.799 533.3 341.899 533.2 339.799C533.3 337.699 529 336.699 529 336.699Z" fill="#87271C"/>
<path d="M533.6 341C533.6 341 542.4 334 536.1 327.7C528.6 320.2 518.8 328.9 518.8 328.9L533.6 341Z" fill="#235A35"/>
<path d="M536.1 390.1H518.9V393.8H536.2C536.3 393.8 536.1 390.1 536.1 390.1Z" fill="#CB6E51"/>
<path d="M537.7 403.199L536.7 404.799L534.7 406.699L535.4 408.199L538.4 407.099L538.3 409.599L537.1 411.099H534.5C534.5 411.099 534.5 412.499 534.5 412.699C534.5 412.899 538.2 412.699 538.2 412.699L540.4 409.999V403.199H537.7Z" fill="#FD8365"/>
<path d="M521.6 456L521.2 457.3L516.1 458.6V460.5H526.3V457.7L525.6 456H521.6Z" fill="#E7715C"/>
<path d="M529.3 456L528.9 457.3L523.8 458.6V460.5H533.9V457.7L533.3 456H529.3Z" fill="#FEB055"/>
<path d="M485.4 384.399C485.6 386.499 487.2 388.999 487.4 390.899C488.4 399.499 492.2 410.099 492.2 410.099L495.4 474.199H499C499 474.199 499.1 468.799 500.2 462.299C501.3 455.799 502 438.399 502 438.399L502.7 474.099H506.7C506.7 474.099 509.1 452.299 509.7 439.599C510.3 426.999 509.5 407.799 509.5 407.799L510.2 394.499H511.7L511 421.199H513.8C513.8 421.199 515.7 416.699 517.3 410.799C518.9 404.899 519.9 389.899 519.1 381.799C518.3 373.699 516.1 369.399 512.2 368.699C508.3 367.999 502.6 367.699 502.6 367.699L495.4 367.999C495.4 367.999 494.1 368.299 489.6 368.999C484.1 369.999 477.2 371.699 478.1 368.999C479 366.299 488.3 358.999 488.3 358.999L487.4 355.199C487.4 355.199 473.2 362.499 468 367.399C462.8 372.299 465 378.299 469.5 380.399C474.2 382.699 485.4 384.399 485.4 384.399Z" fill="#26633A"/>
<path d="M495.9 361.9C495.9 361.9 495.5 367.6 495.4 369.3C495.4 370.9 497.3 370.8 499.2 370.8C501.2 370.7 502.6 369.7 502.6 367.5C502.7 365.3 502.1 359.3 502.1 359.3L495.9 361.9Z" fill="#FD8365"/>
<path d="M495.5 349.399C495.5 349.399 491.7 354.799 491.5 358.499C491.3 362.299 496.5 362.899 499.3 362.599C502.1 362.299 505.4 355.999 505.4 355.999L495.5 349.399Z" fill="#F8AD73"/>
<path d="M501.8 354.5C501.8 354.5 498 359 500.3 360.3C502.6 361.6 506.1 359.7 506 357.6C505.9 355.5 501.8 354.5 501.8 354.5Z" fill="#87271C"/>
<path d="M507 359.299C507 359.299 515.8 352.3 509.5 346C502 338.5 492.2 347.2 492.2 347.2L507 359.299Z" fill="#235A35"/>
<path d="M509.5 408.3H492.3V412H509.6C509.7 412 509.5 408.3 509.5 408.3Z" fill="#CB6E51"/>
<path d="M511.1 421.399L510.1 422.999L508.1 424.899L508.8 426.399L511.8 425.299L511.7 427.799L510.5 429.299H507.9C507.9 429.299 507.9 430.699 507.9 430.899C507.9 431.099 511.6 430.899 511.6 430.899L513.8 428.199V421.399H511.1Z" fill="#FD8365"/>
<path d="M495 474.199L494.6 475.499L489.5 476.799V478.699H499.6V475.899L499 474.199H495Z" fill="#E7715C"/>
<path d="M502.7 474.199L502.3 475.499L497.2 476.799V478.699H507.3V475.899L506.7 474.199H502.7Z" fill="#FEB055"/>
<path d="M487.5 355.5L495.8 350.3L496.6 351.8L491.5 356L491.1 357.8L488.3 358.8L487.5 355.5Z" fill="#FD8365"/>
<path d="M542.5 379.399C542.7 381.499 544.3 383.999 544.5 385.899C545.5 394.499 549.3 405.099 549.3 405.099L552.5 469.199H556.1C556.1 469.199 556.2 463.799 557.3 457.299C558.4 450.799 559.1 433.399 559.1 433.399L559.8 469.099H563.8C563.8 469.099 566.2 447.299 566.8 434.599C567.4 421.999 566.6 402.799 566.6 402.799L567.3 389.499H568.8L568.1 416.199H570.9C570.9 416.199 572.8 411.699 574.4 405.799C576 399.899 577 384.899 576.2 376.799C575.4 368.699 573.2 364.399 569.3 363.699C565.4 362.999 559.7 362.699 559.7 362.699L552.5 362.999C552.5 362.999 551.2 363.299 546.7 363.999C541.2 364.999 534.3 366.699 535.2 363.999C536.1 361.299 545.4 353.999 545.4 353.999L544.5 350.199C544.5 350.199 530.3 357.499 525.1 362.399C519.9 367.299 522.1 373.299 526.6 375.399C531.1 377.499 542.5 379.399 542.5 379.399Z" fill="#26633A"/>
<path d="M553 356.9C553 356.9 552.6 362.6 552.5 364.3C552.5 365.9 554.4 365.8 556.3 365.8C558.2 365.8 559.7 364.7 559.7 362.5C559.8 360.3 559.2 354.3 559.2 354.3L553 356.9Z" fill="#FD8365"/>
<path d="M552.6 344.399C552.6 344.399 548.8 349.799 548.6 353.499C548.4 357.299 553.6 357.899 556.4 357.599C559.2 357.299 562.5 350.999 562.5 350.999L552.6 344.399Z" fill="#F8AD73"/>
<path d="M558.9 349.5C558.9 349.5 555.1 354 557.4 355.3C559.7 356.6 563.2 354.7 563.1 352.6C563.2 350.6 558.9 349.5 558.9 349.5Z" fill="#87271C"/>
<path d="M564.1 354.299C564.1 354.299 572.9 347.3 566.6 341C559.1 333.5 549.3 342.2 549.3 342.2L564.1 354.299Z" fill="#235A35"/>
<path d="M566.7 403.3H549.5V407H566.8L566.7 403.3Z" fill="#CB6E51"/>
<path d="M568.2 416.399L567.2 417.999L565.2 419.899L565.9 421.399L568.9 420.299L568.8 422.799L567.6 424.299H565C565 424.299 565 425.699 565 425.899C565 426.099 568.7 425.899 568.7 425.899L570.9 423.199V416.399H568.2Z" fill="#FD8365"/>
<path d="M552.1 469.199L551.7 470.499L546.7 471.799V473.699H556.8V470.899L556.2 469.199H552.1Z" fill="#E7715C"/>
<path d="M559.8 469.199L559.4 470.499L554.3 471.799V473.699H564.5V470.899L563.8 469.199H559.8Z" fill="#FEB055"/>
<path d="M544.6 350.5L552.9 345.3L553.7 346.8L548.6 351L548.2 352.8L545.4 353.8L544.6 350.5Z" fill="#FD8365"/>
<path d="M451.2 342.8C450.1 353 448.6 363.2 446.6 373.3C445.6 378.3 444.4 383.3 442.8 388C442 390.4 441.1 392.7 440 394.7C439.5 395.7 438.8 396.6 438.2 397.3C437.9 397.6 437.6 397.9 437.4 398C437.2 398.1 437.1 398.1 437.1 398.1C437.1 398.1 437.1 398.1 436.9 398C436.7 397.9 436.4 397.6 436.2 397.3C435.6 396.6 435.1 395.7 434.6 394.7C433.6 392.7 432.8 390.3 432.1 388C430.7 383.2 429.7 378.3 428.8 373.3C427.1 363.3 426 353.1 425.2 342.8C424.3 332.6 423.8 322.3 423.4 312C423 301.7 422.8 291.4 422.9 281.2C422.9 270.9 423 260.6 423.4 250.4C423.8 240.1 424.3 229.9 425.2 219.6C426.1 209.4 427.1 199.2 428.8 189.1C429.7 184.1 430.7 179.1 432.1 174.4C432.8 172 433.6 169.7 434.6 167.7C435.1 166.7 435.7 165.7 436.2 165.1C436.5 164.8 436.8 164.5 436.9 164.4C437.1 164.3 437.1 164.3 437.1 164.3C437.1 164.3 437.1 164.3 437.4 164.4C437.6 164.5 437.9 164.8 438.2 165.1C438.8 165.8 439.4 166.7 440 167.7C441.1 169.7 442 172 442.8 174.4C444.4 179.1 445.6 184.1 446.6 189.1C448.6 199.1 450.1 209.3 451.2 219.6C451.9 226.1 452.4 232.6 452.9 239.1H456.6C456.3 232.5 455.9 225.9 455.3 219.2C454.4 208.8 453.4 198.5 451.6 188.2C450.7 183 449.6 177.9 448.1 172.8C447.3 170.2 446.4 167.7 445.2 165.1C444.5 163.8 443.8 162.5 442.7 161.2C442.1 160.6 441.5 159.9 440.6 159.3C439.7 158.7 438.5 158.3 437.2 158.3C435.9 158.3 434.7 158.7 433.8 159.3C432.9 159.9 432.2 160.5 431.6 161.1C430.5 162.4 429.7 163.7 429 164.9C427.6 167.5 426.7 170 425.8 172.6C424.1 177.7 422.9 182.9 421.8 188C419.7 198.3 418.2 208.7 417.1 219C416 229.4 415.2 239.8 414.8 250.2C414.3 260.6 414.1 271 414.1 281.4C414.1 291.8 414.4 302.2 414.8 312.6C415.3 323 416.1 333.4 417.1 343.8C418.2 354.2 419.7 364.5 421.8 374.8C422.9 380 424.1 385.1 425.8 390.2C426.7 392.8 427.6 395.3 429 397.9C429.7 399.2 430.5 400.5 431.6 401.7C432.2 402.3 432.9 403 433.8 403.5C434.7 404.1 435.9 404.5 437.2 404.5C438.5 404.5 439.7 404 440.6 403.5C441.5 402.9 442.1 402.3 442.7 401.6C443.8 400.3 444.5 399 445.2 397.7C446.5 395.1 447.4 392.6 448.1 390C449.6 384.9 450.7 379.7 451.6 374.6C453.4 364.3 454.4 353.9 455.3 343.6C456.2 333.5 456.7 323.4 457.1 313.4H453.5C453 322.9 452.2 332.9 451.2 342.8Z" fill="#F5CB47"/>
<path d="M133 361C133 361 129.7 361.7 125.5 363.1C121.3 364.5 122.5 374.9 122.5 380C122.5 385.1 121.8 425.6 122.4 435.6C123 445.6 125.1 462.2 125.1 462.2H131.2V418.6C131.2 418.6 133.5 439.4 135.7 448.3C137.9 457.2 140 462.2 140 462.2H145.2C145.2 462.2 141.1 443.4 140.8 434.1C140.5 424.8 140 391.8 142.6 385.1C145.2 378.4 150.3 374.5 149.8 368.5C149.3 362.5 146.3 360.5 142 360.5C137.7 360.5 133 361 133 361Z" fill="#26633A"/>
<path d="M510.5 188.6C510.4 188.6 510.3 188.6 510.2 188.6C510.1 188.6 510 188.6 509.9 188.5C509.8 188.5 509.7 188.4 509.6 188.4C509.5 188.4 509.4 188.3 509.4 188.2C509.1 187.9 509 187.5 509 187.1C509 187 509 186.9 509 186.8C509 186.7 509 186.6 509.1 186.5C509.1 186.4 509.2 186.3 509.2 186.2C509.2 186.1 509.3 186.1 509.4 186C509.5 185.9 509.5 185.9 509.6 185.8C509.7 185.8 509.8 185.7 509.9 185.7C510 185.7 510.1 185.6 510.2 185.6C510.7 185.5 511.2 185.7 511.6 186C511.7 186.1 511.7 186.1 511.8 186.2C511.9 186.3 511.9 186.4 511.9 186.5C511.9 186.6 512 186.7 512 186.8C512 186.9 512 187 512 187.1C512 187.2 512 187.3 512 187.4C512 187.5 512 187.6 511.9 187.7C511.9 187.8 511.8 187.9 511.8 188C511.8 188.1 511.7 188.2 511.6 188.2C511.3 188.4 510.9 188.6 510.5 188.6Z" fill="#D4DCC5"/>
<path d="M483.7 442C483.7 441.2 484.4 440.5 485.2 440.5C486 440.5 486.7 441.2 486.7 442C486.7 442.8 486 443.5 485.2 443.5C484.4 443.5 483.7 442.8 483.7 442ZM489.8 442C489.8 441.2 490.4 440.5 491.3 440.4C492.1 440.4 492.8 441 492.8 441.8C492.8 442.6 492.2 443.3 491.4 443.4C490.5 443.4 489.8 442.8 489.8 442ZM479.2 443.4C478.4 443.4 477.7 442.7 477.7 441.9C477.7 441.1 478.4 440.4 479.3 440.4C480.1 440.4 480.8 441.1 480.7 441.9C480.7 442.7 480 443.4 479.2 443.4ZM495.8 441.7C495.7 440.9 496.4 440.2 497.2 440.1C498 440 498.7 440.7 498.8 441.5C498.9 442.3 498.2 443 497.4 443.1H497.3C496.5 443.1 495.8 442.5 495.8 441.7ZM473.1 443.1C472.3 443 471.6 442.3 471.7 441.5C471.8 440.7 472.5 440 473.3 440.1C474.1 440.2 474.8 440.9 474.7 441.7C474.6 442.5 474 443.1 473.2 443.1H473.1ZM467 442.5C466.2 442.4 465.6 441.7 465.7 440.9C465.8 440.1 466.5 439.5 467.3 439.6C468.1 439.7 468.7 440.4 468.6 441.3C468.5 442.1 467.9 442.6 467.1 442.6C467.1 442.5 467.1 442.5 467 442.5ZM501.8 441.2C501.7 440.4 502.3 439.6 503.1 439.5C503.9 439.4 504.7 440 504.8 440.8C504.9 441.6 504.3 442.4 503.5 442.5C503.4 442.5 503.4 442.5 503.3 442.5C502.5 442.5 501.9 442 501.8 441.2ZM461 441.8C460.2 441.7 459.6 440.9 459.7 440.1C459.8 439.3 460.6 438.7 461.4 438.8C462.2 438.9 462.8 439.7 462.7 440.5C462.6 441.3 461.9 441.8 461.2 441.8C461.2 441.8 461.1 441.8 461 441.8ZM507.7 440.5C507.6 439.7 508.1 438.9 509 438.8C509.8 438.7 510.6 439.2 510.7 440C510.8 440.8 510.3 441.6 509.5 441.7C509.4 441.7 509.3 441.7 509.3 441.7C508.5 441.7 507.9 441.2 507.7 440.5ZM455 440.9C454.2 440.8 453.6 440 453.8 439.2C453.9 438.4 454.7 437.8 455.5 438C456.3 438.1 456.9 438.9 456.7 439.7C456.6 440.4 455.9 441 455.2 441C455.2 441 455.1 441 455 440.9ZM513.7 439.5C513.5 438.7 514.1 437.9 514.9 437.7C515.7 437.5 516.5 438.1 516.7 438.9C516.9 439.7 516.3 440.5 515.5 440.7C515.4 440.7 515.3 440.7 515.2 440.7C514.5 440.7 513.8 440.2 513.7 439.5ZM449 439.9C448.2 439.7 447.7 439 447.8 438.1C448 437.3 448.8 436.7 449.6 436.9C450.4 437.1 450.9 437.8 450.8 438.7C450.7 439.4 450 439.9 449.3 439.9C449.2 439.9 449.1 439.9 449 439.9ZM519.6 438.2C519.4 437.4 519.9 436.6 520.7 436.4C521.5 436.2 522.3 436.7 522.5 437.5C522.7 438.3 522.2 439.1 521.4 439.3C521.3 439.3 521.2 439.3 521 439.3C520.4 439.3 519.7 438.9 519.6 438.2ZM443.1 438.6C442.3 438.4 441.8 437.6 442 436.8C442.2 436 443 435.5 443.8 435.7C444.6 435.9 445.1 436.7 444.9 437.5C444.8 438.2 444.1 438.7 443.4 438.7C443.3 438.7 443.2 438.7 443.1 438.6ZM525.4 436.7C525.2 435.9 525.6 435.1 526.4 434.8C527.2 434.6 528 435 528.3 435.8C528.5 436.6 528.1 437.4 527.3 437.7C527.2 437.7 527 437.8 526.9 437.8C526.2 437.7 525.6 437.3 525.4 436.7ZM437.2 437.2C436.4 437 435.9 436.2 436.1 435.4C436.3 434.6 437.1 434.1 437.9 434.3C438.7 434.5 439.2 435.3 439 436.1C438.8 436.8 438.2 437.2 437.5 437.2C437.5 437.3 437.3 437.3 437.2 437.2ZM531.1 434.9C530.8 434.1 531.2 433.3 532 433C532.8 432.7 533.6 433.1 533.9 433.9C534.2 434.7 533.8 435.5 533 435.8C532.8 435.9 532.7 435.9 532.5 435.9C531.9 435.9 531.4 435.5 531.1 434.9ZM431.4 435.6C430.6 435.4 430.1 434.6 430.4 433.8C430.6 433 431.5 432.5 432.3 432.8C433.1 433 433.5 433.8 433.3 434.7C433.1 435.4 432.5 435.8 431.9 435.8C431.6 435.7 431.5 435.7 431.4 435.6ZM425.5 433.9C424.7 433.7 424.3 432.8 424.5 432C424.7 431.2 425.6 430.8 426.4 431C427.2 431.2 427.6 432.1 427.4 432.9C427.2 433.5 426.6 433.9 426 433.9C425.8 434 425.7 434 425.5 433.9ZM536.8 432.8C536.5 432 536.8 431.1 537.6 430.8C538.4 430.5 539.2 430.8 539.6 431.6C539.9 432.4 539.6 433.2 538.8 433.6C538.6 433.7 538.4 433.7 538.2 433.7C537.6 433.7 537 433.3 536.8 432.8ZM419.8 432C419 431.7 418.6 430.9 418.9 430.1C419.2 429.3 420 428.9 420.8 429.2C421.6 429.5 422 430.3 421.7 431.1C421.5 431.7 420.9 432.1 420.3 432.1C420.1 432.1 420 432 419.8 432ZM542.3 430.4C541.9 429.6 542.3 428.8 543 428.4C543.8 428 544.6 428.4 545 429.1C545.4 429.9 545 430.7 544.3 431.1C544.1 431.2 543.9 431.3 543.7 431.3C543.1 431.2 542.6 430.9 542.3 430.4ZM414.1 429.9C413.3 429.6 412.9 428.7 413.3 428C413.6 427.2 414.5 426.8 415.2 427.1C416 427.4 416.4 428.3 416.1 429C415.9 429.6 415.3 430 414.7 430C414.5 430 414.3 430 414.1 429.9ZM547.7 427.7C547.3 427 547.5 426.1 548.3 425.7C549 425.3 549.9 425.5 550.3 426.2C550.7 426.9 550.5 427.8 549.8 428.2C549.6 428.3 549.3 428.4 549 428.4C548.5 428.4 548 428.2 547.7 427.7ZM408.5 427.6C407.7 427.3 407.4 426.4 407.7 425.6C408 424.8 408.9 424.5 409.7 424.8C410.5 425.1 410.8 426 410.5 426.8C410.3 427.4 409.7 427.7 409.1 427.7C408.9 427.7 408.7 427.7 408.5 427.6ZM402.9 425.1C402.1 424.7 401.8 423.8 402.2 423.1C402.6 422.4 403.5 422.1 404.2 422.4C405 422.8 405.3 423.7 404.9 424.4C404.6 424.9 404.1 425.2 403.6 425.2C403.4 425.2 403.1 425.2 402.9 425.1ZM552.8 424.6C552.3 423.9 552.5 423 553.2 422.5C553.9 422 554.8 422.2 555.3 422.9C555.8 423.6 555.6 424.5 554.9 425C554.6 425.2 554.3 425.3 554 425.3C553.6 425.2 553.1 425 552.8 424.6ZM397.5 422.2C396.8 421.8 396.5 420.9 396.9 420.2C397.3 419.5 398.2 419.2 398.9 419.6C399.6 420 399.9 420.9 399.5 421.6C399.2 422.1 398.7 422.4 398.2 422.4C398 422.4 397.7 422.4 397.5 422.2ZM557.7 421C557.2 420.4 557.3 419.4 557.9 418.9C558.5 418.4 559.5 418.4 560 419.1C560.5 419.7 560.4 420.7 559.8 421.2C559.5 421.4 559.2 421.5 558.8 421.5C558.4 421.6 558 421.4 557.7 421ZM392.3 419.2C391.6 418.8 391.3 417.8 391.8 417.1C392.2 416.4 393.1 416.1 393.8 416.6C394.5 417 394.8 417.9 394.3 418.6C394 419.1 393.5 419.3 393 419.3C392.8 419.4 392.5 419.3 392.3 419.2ZM562.2 417.1C561.6 416.5 561.6 415.6 562.2 415C562.8 414.4 563.7 414.4 564.3 415C564.9 415.6 564.9 416.5 564.3 417.1C564 417.4 563.6 417.5 563.2 417.5C562.9 417.5 562.5 417.4 562.2 417.1ZM387.1 416.1C386.4 415.7 386.2 414.7 386.6 414C387 413.3 388 413.1 388.7 413.5C389.4 413.9 389.6 414.9 389.2 415.6C388.9 416.1 388.4 416.3 387.9 416.3C387.6 416.3 387.3 416.2 387.1 416.1ZM382 412.9C381.3 412.4 381.1 411.5 381.5 410.8C381.9 410.1 382.9 409.9 383.6 410.3C384.3 410.7 384.5 411.7 384.1 412.4C383.8 412.8 383.3 413.1 382.8 413.1C382.5 413.1 382.2 413 382 412.9ZM566.4 412.7C565.8 412.2 565.7 411.2 566.2 410.6C566.7 410 567.7 409.9 568.3 410.4C568.9 410.9 569 411.9 568.5 412.5C568.2 412.9 567.8 413 567.3 413C567 413.1 566.7 413 566.4 412.7ZM376.9 409.6C376.2 409.2 376 408.2 376.5 407.5C377 406.8 377.9 406.6 378.6 407.1C379.3 407.6 379.5 408.5 379 409.2C378.7 409.6 378.2 409.9 377.7 409.9C377.5 409.8 377.2 409.7 376.9 409.6ZM570.1 408C569.4 407.5 569.2 406.6 569.7 405.9C570.2 405.2 571.1 405 571.8 405.5C572.5 406 572.7 406.9 572.2 407.6C571.9 408 571.4 408.3 571 408.3C570.6 408.2 570.4 408.2 570.1 408ZM371.9 406.2C371.2 405.7 371 404.8 371.5 404.1C372 403.4 372.9 403.2 373.6 403.7C374.3 404.2 374.5 405.1 374 405.8C373.7 406.2 373.2 406.5 372.8 406.5C372.5 406.5 372.1 406.4 371.9 406.2ZM573.3 402.9C572.6 402.5 572.3 401.6 572.7 400.9C573.1 400.2 574 399.9 574.7 400.3C575.4 400.7 575.7 401.6 575.3 402.3C575 402.8 574.5 403.1 574 403.1C573.8 403.1 573.6 403 573.3 402.9ZM366.9 402.8C366.2 402.3 366.1 401.4 366.5 400.7C367 400 367.9 399.9 368.6 400.3C369.3 400.8 369.4 401.7 369 402.4C368.7 402.8 368.2 403 367.8 403C367.5 403 367.2 402.9 366.9 402.8ZM362 399.2C361.3 398.7 361.2 397.8 361.7 397.1C362.2 396.4 363.1 396.3 363.8 396.8C364.5 397.3 364.6 398.2 364.1 398.9C363.8 399.3 363.3 399.5 362.9 399.5C362.6 399.5 362.3 399.4 362 399.2ZM576.1 397.6C575.3 397.3 575 396.4 575.3 395.6C575.6 394.8 576.5 394.5 577.3 394.8C578.1 395.1 578.4 396 578.1 396.8C577.9 397.4 577.3 397.7 576.7 397.7C576.5 397.7 576.3 397.7 576.1 397.6ZM357.2 395.6C356.5 395.1 356.4 394.2 356.9 393.5C357.4 392.8 358.3 392.7 359 393.2C359.7 393.7 359.8 394.6 359.3 395.3C359 395.7 358.6 395.9 358.1 395.9C357.8 396 357.4 395.8 357.2 395.6ZM352.3 392C351.7 391.5 351.5 390.5 352 389.9C352.5 389.2 353.5 389.1 354.1 389.6C354.8 390.1 354.9 391.1 354.4 391.7C354.1 392.1 353.7 392.3 353.2 392.3C353 392.3 352.6 392.2 352.3 392ZM578.4 392C577.6 391.7 577.2 390.9 577.4 390.1C577.7 389.3 578.5 388.9 579.3 389.1C580.1 389.4 580.5 390.2 580.2 391C580 391.6 579.4 392 578.8 392C578.7 392.1 578.5 392 578.4 392ZM347.6 388.3C347 387.8 346.8 386.8 347.4 386.2C347.9 385.5 348.9 385.4 349.5 386C350.1 386.5 350.3 387.5 349.7 388.1C349.4 388.5 349 388.7 348.5 388.7C348.2 388.6 347.9 388.5 347.6 388.3ZM580.2 386.2C579.4 386 578.9 385.2 579.1 384.4C579.3 383.6 580.1 383.1 580.9 383.3C581.7 383.5 582.2 384.3 582 385.1C581.8 385.8 581.2 386.3 580.6 386.3C580.4 386.3 580.3 386.3 580.2 386.2ZM342.9 384.5C342.3 384 342.2 383 342.7 382.4C343.2 381.8 344.2 381.6 344.8 382.2C345.4 382.7 345.5 383.7 345 384.3C344.7 384.7 344.3 384.9 343.8 384.9C343.5 384.8 343.2 384.7 342.9 384.5ZM338.2 380.7C337.6 380.2 337.5 379.2 338 378.6C338.5 378 339.5 377.9 340.1 378.4C340.7 378.9 340.8 379.9 340.3 380.5C340 380.9 339.6 381.1 339.1 381.1C338.8 381 338.5 380.9 338.2 380.7ZM581.5 380.4C580.7 380.3 580.1 379.5 580.3 378.7C580.4 377.9 581.2 377.3 582 377.5C582.8 377.6 583.4 378.4 583.2 379.2C583.1 379.9 582.4 380.4 581.7 380.4C581.7 380.4 581.6 380.4 581.5 380.4ZM333.6 376.8C333 376.3 332.9 375.3 333.4 374.7C333.9 374.1 334.9 374 335.5 374.5C336.1 375 336.2 376 335.7 376.6C335.4 376.9 335 377.1 334.5 377.1C334.2 377.2 333.9 377 333.6 376.8ZM582.4 374.4C581.6 374.3 581 373.6 581.1 372.8C581.2 372 581.9 371.4 582.7 371.4C583.5 371.5 584.1 372.2 584.1 373C584 373.8 583.4 374.3 582.6 374.3C582.5 374.4 582.4 374.4 582.4 374.4ZM329 372.9C328.4 372.4 328.3 371.4 328.8 370.8C329.3 370.2 330.3 370.1 330.9 370.6C331.5 371.2 331.6 372.1 331 372.7C330.7 373 330.3 373.2 329.9 373.2C329.6 373.2 329.3 373.1 329 372.9ZM324.5 368.9C323.9 368.4 323.8 367.4 324.4 366.8C324.9 366.2 325.9 366.1 326.5 366.7C327.1 367.2 327.2 368.2 326.6 368.8C326.3 369.1 325.9 369.3 325.5 369.3C325.1 369.3 324.7 369.2 324.5 368.9ZM582.9 368.4C582.1 368.4 581.4 367.7 581.5 366.9C581.5 366.1 582.2 365.4 583.1 365.5C583.9 365.5 584.6 366.2 584.5 367C584.4 367.8 583.7 368.4 582.9 368.4ZM319.9 364.9C319.3 364.4 319.2 363.4 319.8 362.8C320.4 362.2 321.3 362.1 321.9 362.7C322.5 363.3 322.6 364.2 322 364.8C321.7 365.1 321.3 365.3 320.9 365.3C320.6 365.3 320.2 365.2 319.9 364.9ZM581.5 360.9C581.5 360.1 582.1 359.4 583 359.4C583.8 359.4 584.5 360 584.5 360.9C584.5 361.7 583.9 362.4 583 362.4C582.1 362.4 581.5 361.8 581.5 360.9ZM315.5 360.9C314.9 360.4 314.8 359.4 315.4 358.8C316 358.2 316.9 358.1 317.5 358.7C318.1 359.2 318.2 360.2 317.6 360.8C317.3 361.1 316.9 361.3 316.5 361.3C316.1 361.3 315.7 361.2 315.5 360.9ZM310.9 357C310.3 356.5 310.2 355.5 310.8 354.9C311.3 354.3 312.3 354.2 312.9 354.8C313.5 355.3 313.6 356.3 313.1 356.9C312.8 357.2 312.4 357.4 312 357.4C311.6 357.3 311.2 357.2 310.9 357ZM581.1 355C581 354.2 581.7 353.5 582.5 353.4C583.3 353.3 584 353.9 584.1 354.8C584.2 355.6 583.5 356.3 582.7 356.4H582.6C581.9 356.4 581.2 355.8 581.1 355ZM306.4 353C305.8 352.5 305.7 351.5 306.2 350.9C306.7 350.3 307.7 350.2 308.3 350.7C308.9 351.2 309 352.2 308.5 352.8C308.2 353.1 307.8 353.3 307.4 353.3C307 353.4 306.7 353.3 306.4 353ZM580.5 349.1C580.4 348.3 581 347.5 581.8 347.4C582.6 347.3 583.4 347.9 583.5 348.7C583.6 349.5 583 350.3 582.2 350.4C582.1 350.4 582.1 350.4 582 350.4C581.3 350.4 580.6 349.8 580.5 349.1ZM301.8 349.2C301.2 348.7 301.1 347.7 301.6 347.1C302.1 346.5 303.1 346.4 303.7 346.9C304.3 347.4 304.4 348.4 303.9 349C303.6 349.3 303.2 349.5 302.7 349.5C302.4 349.5 302.1 349.4 301.8 349.2ZM297.2 345.4C296.6 344.9 296.4 343.9 297 343.3C297.5 342.7 298.5 342.6 299.1 343.1C299.7 343.6 299.9 344.6 299.3 345.2C299 345.6 298.6 345.7 298.1 345.7C297.8 345.7 297.4 345.6 297.2 345.4ZM579.6 343.2C579.4 342.4 580 341.6 580.8 341.5C581.6 341.4 582.4 341.9 582.5 342.7C582.6 343.5 582.1 344.3 581.3 344.4C581.2 344.4 581.1 344.4 581 344.4C580.4 344.5 579.8 343.9 579.6 343.2ZM292.5 341.6C291.8 341.1 291.7 340.1 292.2 339.5C292.7 338.8 293.6 338.7 294.3 339.3C295 339.8 295.1 340.8 294.6 341.4C294.3 341.8 293.9 342 293.4 342C293.1 342 292.7 341.9 292.5 341.6ZM578.5 337.4C578.3 336.6 578.8 335.8 579.6 335.6C580.4 335.4 581.2 335.9 581.4 336.7C581.6 337.5 581.1 338.3 580.3 338.5C580.2 338.5 580.1 338.5 580 338.5C579.2 338.5 578.6 338.1 578.5 337.4ZM287.7 338C287 337.5 286.9 336.6 287.4 335.9C287.9 335.2 288.8 335.1 289.5 335.6C290.2 336.1 290.3 337 289.8 337.7C289.5 338.1 289.1 338.3 288.6 338.3C288.3 338.3 288 338.2 287.7 338ZM282.9 334.4C282.2 333.9 282.1 333 282.6 332.3C283.1 331.6 284 331.5 284.7 332C285.4 332.5 285.5 333.4 285 334.1C284.7 334.5 284.2 334.7 283.8 334.7C283.5 334.7 283.2 334.6 282.9 334.4ZM577 331.6C576.8 330.8 577.2 330 578 329.8C578.8 329.6 579.6 330.1 579.8 330.9C580 331.7 579.6 332.5 578.8 332.7C578.7 332.7 578.5 332.7 578.4 332.7C577.8 332.7 577.2 332.3 577 331.6ZM278 331C277.3 330.5 277.1 329.6 277.6 328.9C278.1 328.2 279 328.1 279.7 328.5C280.4 329 280.6 329.9 280.1 330.6C279.8 331 279.3 331.3 278.9 331.3C278.6 331.2 278.3 331.2 278 331ZM273 327.6C272.3 327.1 272.1 326.2 272.6 325.5C273.1 324.8 274 324.6 274.7 325.1C275.4 325.6 275.6 326.5 275.1 327.2C274.8 327.6 274.3 327.9 273.9 327.9C273.6 327.9 273.3 327.8 273 327.6ZM575.3 325.9C575.1 325.1 575.5 324.3 576.3 324C577.1 323.8 577.9 324.2 578.2 325C578.4 325.8 578 326.6 577.2 326.9C577 326.9 576.9 327 576.7 327C576.1 326.9 575.5 326.5 575.3 325.9ZM268 324.4C267.3 324 267.1 323 267.5 322.3C267.9 321.6 268.9 321.4 269.6 321.8C270.3 322.2 270.5 323.2 270.1 323.9C269.8 324.4 269.3 324.6 268.8 324.6C268.5 324.6 268.3 324.6 268 324.4ZM262.9 321.3C262.2 320.9 261.9 320 262.4 319.2C262.8 318.5 263.7 318.2 264.5 318.7C265.2 319.1 265.4 320 265 320.8C264.7 321.3 264.2 321.5 263.7 321.5C263.4 321.5 263.1 321.5 262.9 321.3ZM573.4 320.3C573.1 319.5 573.5 318.7 574.3 318.4C575.1 318.1 575.9 318.5 576.2 319.3C576.5 320.1 576.1 320.9 575.3 321.2C575.1 321.3 575 321.3 574.8 321.3C574.2 321.2 573.6 320.9 573.4 320.3ZM257.7 318.3C257 317.9 256.7 317 257.1 316.3C257.5 315.6 258.4 315.3 259.1 315.7C259.8 316.1 260.1 317 259.7 317.7C259.4 318.2 258.9 318.5 258.4 318.5C258.2 318.5 257.9 318.5 257.7 318.3ZM252.4 315.5C251.7 315.1 251.4 314.2 251.8 313.5C252.2 312.8 253.1 312.5 253.8 312.9C254.5 313.3 254.8 314.2 254.4 314.9C254.1 315.4 253.6 315.7 253.1 315.7C252.9 315.7 252.7 315.6 252.4 315.5ZM571.2 314.7C570.9 313.9 571.2 313.1 572 312.7C572.8 312.4 573.6 312.7 574 313.5C574.3 314.3 574 315.1 573.2 315.5C573 315.6 572.8 315.6 572.6 315.6C572 315.6 571.5 315.3 571.2 314.7ZM247.1 312.8C246.4 312.4 246.1 311.5 246.4 310.8C246.8 310.1 247.7 309.8 248.4 310.1C249.2 310.5 249.5 311.4 249.1 312.1C248.8 312.6 248.3 312.9 247.7 312.9C247.5 313 247.3 312.9 247.1 312.8ZM241.7 310.2C240.9 309.8 240.6 309 241 308.2C241.4 307.4 242.2 307.1 243 307.5C243.8 307.8 244.1 308.7 243.7 309.5C243.5 310 242.9 310.4 242.3 310.4C242.1 310.4 241.9 310.3 241.7 310.2ZM568.8 309.2C568.5 308.4 568.8 307.5 569.5 307.2C570.3 306.9 571.1 307.2 571.5 307.9C571.8 308.7 571.5 309.6 570.8 309.9C570.6 310 570.4 310 570.2 310C569.6 310.1 569.1 309.8 568.8 309.2ZM236.2 307.8C235.4 307.5 235.1 306.6 235.4 305.8C235.7 305 236.6 304.7 237.4 305C238.2 305.3 238.5 306.2 238.2 307C238 307.6 237.4 307.9 236.8 307.9C236.6 307.9 236.4 307.9 236.2 307.8ZM230.7 305.4C229.9 305.1 229.6 304.2 229.9 303.4C230.2 302.6 231.1 302.3 231.9 302.6C232.7 302.9 233 303.8 232.7 304.6C232.5 305.2 231.9 305.5 231.3 305.5C231.1 305.5 230.9 305.5 230.7 305.4ZM566.2 303.9C565.8 303.2 566.1 302.3 566.8 301.9C567.5 301.5 568.4 301.8 568.8 302.5C569.2 303.2 568.9 304.1 568.2 304.5C568 304.6 567.7 304.7 567.5 304.7C567 304.7 566.5 304.4 566.2 303.9ZM225.2 302.9C224.4 302.6 224.1 301.7 224.4 300.9C224.7 300.1 225.6 299.8 226.4 300.1C227.2 300.4 227.5 301.3 227.2 302.1C227 302.7 226.4 303 225.8 303C225.6 303.1 225.4 303 225.2 302.9ZM219.7 300.5C218.9 300.2 218.6 299.3 218.9 298.5C219.2 297.7 220.1 297.4 220.9 297.7C221.7 298 222 298.9 221.7 299.7C221.5 300.3 220.9 300.6 220.3 300.6C220.1 300.7 219.9 300.6 219.7 300.5ZM563.4 298.7C563 298 563.2 297.1 563.9 296.6C564.6 296.2 565.5 296.4 565.9 297.1C566.3 297.8 566.1 298.7 565.4 299.2C565.2 299.3 564.9 299.4 564.6 299.4C564.1 299.4 563.6 299.2 563.4 298.7ZM214.2 298.2C213.4 297.9 213.1 297 213.4 296.2C213.7 295.4 214.6 295.1 215.4 295.4C216.2 295.7 216.5 296.6 216.2 297.4C216 298 215.4 298.3 214.8 298.3C214.6 298.3 214.4 298.3 214.2 298.2ZM208.6 296C207.8 295.7 207.5 294.8 207.7 294C208 293.2 208.9 292.9 209.7 293.1C210.5 293.4 210.8 294.3 210.5 295.1C210.3 295.7 209.7 296.1 209.1 296.1C209 296.1 208.8 296 208.6 296ZM139.4 295C138.9 294.4 138.9 293.4 139.6 292.9C140.2 292.4 141.2 292.4 141.7 293.1C142.3 293.7 142.2 294.7 141.6 295.2C141.3 295.4 141 295.6 140.6 295.6C140.2 295.5 139.8 295.3 139.4 295ZM560.2 293.7C559.7 293 559.9 292.1 560.6 291.6C561.3 291.1 562.2 291.3 562.7 292C563.2 292.7 563 293.6 562.3 294.1C562.1 294.3 561.8 294.3 561.5 294.3C561 294.3 560.5 294.1 560.2 293.7ZM203.1 293.9C202.3 293.6 201.9 292.8 202.2 292C202.5 291.2 203.3 290.8 204.1 291.1C204.9 291.4 205.3 292.2 205 293C204.8 293.6 204.2 294 203.6 294C203.4 293.9 203.2 293.9 203.1 293.9ZM197.4 291.9C196.6 291.7 196.2 290.8 196.4 290C196.6 289.2 197.5 288.8 198.3 289C199.1 289.2 199.5 290.1 199.3 290.9C199.1 291.5 198.5 292 197.9 292C197.7 292 197.6 292 197.4 291.9ZM144.2 291.2C143.8 290.5 144 289.6 144.7 289.1C145.4 288.7 146.3 288.9 146.8 289.6C147.2 290.3 147 291.2 146.3 291.7C146.1 291.8 145.8 291.9 145.5 291.9C144.9 291.9 144.4 291.7 144.2 291.2ZM191.7 290.3C190.9 290.1 190.4 289.3 190.6 288.5C190.8 287.7 191.6 287.2 192.4 287.4C193.2 287.6 193.7 288.4 193.5 289.2C193.3 289.9 192.7 290.3 192.1 290.3C192 290.3 191.8 290.3 191.7 290.3ZM556.8 288.8C556.3 288.1 556.4 287.2 557.1 286.7C557.8 286.2 558.7 286.3 559.2 287C559.7 287.7 559.6 288.6 558.9 289.1C558.6 289.3 558.3 289.4 558 289.4C557.5 289.4 557 289.2 556.8 288.8ZM149.4 288.3C149.1 287.5 149.4 286.7 150.2 286.3C151 286 151.8 286.3 152.2 287.1C152.5 287.9 152.2 288.7 151.4 289.1C151.2 289.2 151 289.2 150.8 289.2C150.2 289.2 149.6 288.8 149.4 288.3ZM185.9 288.9C185.1 288.7 184.6 287.9 184.8 287.1C185 286.3 185.8 285.8 186.6 286C187.4 286.2 187.9 287 187.7 287.8C187.5 288.5 186.9 289 186.2 289C186.1 288.9 186 288.9 185.9 288.9ZM180.1 287.7C179.3 287.5 178.7 286.8 178.9 286C179 285.2 179.8 284.6 180.6 284.8C181.4 284.9 182 285.7 181.8 286.5C181.7 287.2 181 287.7 180.3 287.7C180.3 287.8 180.2 287.7 180.1 287.7ZM155 286.1C154.8 285.3 155.3 284.5 156.1 284.3C156.9 284.1 157.7 284.6 157.9 285.4C158.1 286.2 157.6 287 156.8 287.2C156.7 287.2 156.6 287.2 156.4 287.2C155.8 287.3 155.2 286.8 155 286.1ZM174.2 286.8C173.4 286.7 172.8 285.9 172.9 285.1C173 284.3 173.8 283.7 174.6 283.8C175.4 283.9 176 284.7 175.9 285.5C175.8 286.3 175.1 286.8 174.4 286.8C174.3 286.8 174.3 286.8 174.2 286.8ZM160.9 284.9C160.8 284.1 161.4 283.3 162.3 283.3C163.1 283.2 163.9 283.8 163.9 284.7C164 285.5 163.4 286.3 162.6 286.3C162.5 286.3 162.5 286.3 162.5 286.3C161.6 286.3 161 285.7 160.9 284.9ZM166.9 284.6C166.9 283.8 167.7 283.1 168.5 283.2C169.3 283.2 170 284 169.9 284.8C169.9 285.6 169.2 286.3 168.3 286.2C167.5 286.1 166.9 285.4 166.9 284.6ZM553.1 284.2C552.6 283.6 552.7 282.6 553.3 282.1C553.9 281.6 554.9 281.7 555.4 282.3C555.9 282.9 555.9 283.9 555.2 284.4C554.9 284.6 554.6 284.8 554.2 284.8C553.8 284.7 553.3 284.5 553.1 284.2ZM549.1 279.7C548.6 279.1 548.6 278.1 549.2 277.6C549.8 277.1 550.8 277.1 551.3 277.7C551.9 278.3 551.8 279.3 551.2 279.8C550.9 280.1 550.6 280.2 550.2 280.2C549.9 280.2 549.5 280 549.1 279.7ZM545.1 275.4C544.5 274.8 544.5 273.9 545.1 273.3C545.7 272.7 546.6 272.7 547.2 273.3C547.8 273.9 547.8 274.8 547.2 275.4C546.9 275.7 546.5 275.8 546.2 275.8C545.7 275.8 545.3 275.7 545.1 275.4ZM540.8 271.2C540.2 270.6 540.2 269.7 540.7 269.1C541.3 268.5 542.2 268.5 542.8 269C543.4 269.6 543.4 270.5 542.9 271.1C542.6 271.4 542.2 271.6 541.8 271.6C541.5 271.6 541.1 271.5 540.8 271.2ZM536.4 267.2C535.8 266.7 535.7 265.7 536.3 265.1C536.9 264.5 537.8 264.4 538.4 265C539 265.5 539.1 266.5 538.5 267.1C538.2 267.4 537.8 267.6 537.4 267.6C537 267.6 536.6 267.4 536.4 267.2ZM531.8 263.3C531.2 262.8 531.1 261.8 531.6 261.2C532.1 260.6 533.1 260.5 533.7 261C534.3 261.5 534.4 262.5 533.9 263.1C533.6 263.5 533.2 263.6 532.7 263.6C532.4 263.7 532.1 263.5 531.8 263.3ZM527.1 259.6C526.4 259.1 526.3 258.2 526.8 257.5C527.3 256.8 528.3 256.7 528.9 257.2C529.6 257.7 529.7 258.7 529.2 259.3C528.9 259.7 528.5 259.9 528 259.9C527.7 259.9 527.4 259.8 527.1 259.6ZM522.3 256C521.6 255.5 521.5 254.6 522 253.9C522.5 253.2 523.4 253.1 524.1 253.6C524.8 254.1 524.9 255 524.4 255.7C524.1 256.1 523.6 256.3 523.2 256.3C522.9 256.3 522.6 256.2 522.3 256ZM517.5 252.5C516.8 252 516.6 251.1 517.1 250.4C517.6 249.7 518.5 249.5 519.2 250C519.9 250.5 520 251.4 519.6 252.1C519.3 252.5 518.8 252.7 518.4 252.7C518 252.8 517.7 252.7 517.5 252.5ZM512.5 249.2C511.8 248.7 511.6 247.8 512.1 247.1C512.6 246.4 513.5 246.2 514.2 246.7C514.9 247.1 515.1 248.1 514.6 248.8C514.3 249.2 513.8 249.5 513.3 249.5C513 249.5 512.7 249.4 512.5 249.2ZM507.4 246C506.7 245.6 506.5 244.6 506.9 243.9C507.3 243.2 508.3 243 509 243.4C509.7 243.8 509.9 244.8 509.5 245.5C509.2 246 508.7 246.2 508.2 246.2C507.9 246.2 507.7 246.2 507.4 246ZM502.3 242.9C501.6 242.5 501.3 241.6 501.8 240.9C502.2 240.2 503.1 239.9 503.8 240.4C504.5 240.8 504.8 241.7 504.3 242.4C504 242.9 503.5 243.2 503 243.2C502.8 243.2 502.5 243.1 502.3 242.9ZM497.1 240C496.4 239.6 496.1 238.7 496.5 238C496.9 237.3 497.8 237 498.5 237.4C499.2 237.8 499.5 238.7 499.1 239.4C498.8 239.9 498.3 240.2 497.8 240.2C497.5 240.2 497.3 240.1 497.1 240ZM491.8 237.2C491.1 236.8 490.8 235.9 491.2 235.2C491.6 234.5 492.5 234.2 493.2 234.6C493.9 235 494.2 235.9 493.8 236.6C493.5 237.1 493 237.4 492.5 237.4C492.2 237.3 492 237.3 491.8 237.2ZM486.4 234.5C485.6 234.1 485.3 233.3 485.7 232.5C486.1 231.7 487 231.4 487.7 231.8C488.4 232.2 488.8 233 488.4 233.8C488.1 234.3 487.6 234.7 487 234.7C486.9 234.6 486.6 234.6 486.4 234.5ZM481 231.3C480.3 230.8 480.2 229.9 480.7 229.2C481.2 228.5 482.1 228.4 482.8 228.9C483.5 229.4 483.6 230.3 483.1 231C482.8 231.4 482.4 231.6 481.9 231.6C481.6 231.6 481.3 231.5 481 231.3ZM476.4 226.9C475.9 226.3 476 225.3 476.6 224.8C477.2 224.3 478.2 224.4 478.7 225C479.2 225.6 479.1 226.6 478.5 227.1C478.2 227.3 477.9 227.4 477.5 227.4C477.1 227.5 476.7 227.3 476.4 226.9ZM473 221.4C472.7 220.6 473 219.8 473.8 219.4C474.6 219.1 475.4 219.4 475.8 220.2C476.1 221 475.8 221.8 475 222.2C474.8 222.3 474.6 222.3 474.4 222.3C473.8 222.4 473.3 222 473 221.4ZM473.1 216.5C472.3 216.5 471.6 215.8 471.6 215C471.6 214.2 472.3 213.5 473.1 213.5C473.9 213.5 474.6 214.2 474.6 215C474.6 215.8 474 216.5 473.1 216.5ZM474 210.6C473.3 210.1 473.1 209.2 473.6 208.5C474.1 207.8 475 207.6 475.7 208.1C476.4 208.6 476.6 209.5 476.1 210.2C475.8 210.6 475.3 210.9 474.9 210.9C474.5 210.8 474.2 210.8 474 210.6ZM478.1 206.2C477.7 205.5 477.9 204.6 478.6 204.1C479.3 203.7 480.2 203.9 480.7 204.6C481.1 205.3 480.9 206.2 480.2 206.7C480 206.8 479.7 206.9 479.4 206.9C478.8 207 478.3 206.7 478.1 206.2ZM483.2 203.1C482.8 202.4 483 201.5 483.7 201C484.4 200.6 485.3 200.8 485.7 201.5C486.1 202.2 485.9 203.1 485.2 203.5C485 203.6 484.7 203.7 484.4 203.7C484 203.9 483.5 203.6 483.2 203.1ZM488.4 200.1C488 199.4 488.2 198.5 488.9 198C489.6 197.6 490.5 197.8 491 198.5C491.4 199.2 491.2 200.1 490.5 200.5C490.3 200.6 490 200.7 489.7 200.7C489.2 200.8 488.7 200.5 488.4 200.1ZM493.6 197C493.2 196.3 493.4 195.4 494.1 194.9C494.8 194.5 495.7 194.7 496.1 195.4C496.5 196.1 496.3 197 495.6 197.4C495.4 197.5 495.1 197.6 494.8 197.6C494.4 197.7 493.9 197.5 493.6 197ZM498.8 193.9C498.4 193.2 498.6 192.3 499.3 191.8C500 191.4 500.9 191.6 501.4 192.3C501.8 193 501.6 193.9 500.9 194.4C500.7 194.5 500.4 194.6 500.1 194.6C499.6 194.7 499.1 194.4 498.8 193.9ZM504 190.9C503.6 190.2 503.8 189.3 504.5 188.9C505.2 188.5 506.1 188.7 506.6 189.4C507 190.1 506.8 191 506.1 191.4C505.9 191.5 505.6 191.6 505.3 191.6C504.8 191.6 504.3 191.4 504 190.9Z" fill="#D4DCC5"/>
<path d="M136.3 299.901C135.9 299.901 135.5 299.701 135.2 299.501C134.9 299.201 134.8 298.801 134.8 298.401C134.8 298.001 135 297.601 135.2 297.301C135.8 296.701 136.8 296.701 137.3 297.301C137.6 297.601 137.7 298.001 137.7 298.401C137.7 298.801 137.5 299.201 137.3 299.501C137.1 299.701 136.8 299.901 136.3 299.901Z" fill="#D4DCC5"/>
<path d="M134 353.4C134 353.4 134 359.5 132.9 361C131.8 362.5 131.6 364.2 134.4 364.5C137.2 364.8 141.3 364.6 141.7 362.1C142.1 359.6 141.1 354.6 141.1 354.6L134 353.4Z" fill="#FD8365"/>
<path d="M60.6001 266.4C60.5001 265.6 57.3001 265 57.9001 266.8C58.4001 268.6 60.0001 269.8 60.9001 269.6C61.8001 269.3 60.6001 266.4 60.6001 266.4Z" fill="#FAAF73"/>
<path d="M133 351.3C133 351.3 135.1 355.5 139.5 355.5C143.9 355.5 146.3 353 145.5 349.6C144.7 346.2 141.3 341.6 141.3 341.6L133 351.3Z" fill="#F8AD73"/>
<path d="M134.6 349.5L132 351.6C132 351.6 134 355.6 135.7 355.2C137.4 354.8 137.1 353.1 136.7 352.1C136.2 350.9 134.6 349.5 134.6 349.5Z" fill="#87271C"/>
<path d="M131.4 352.6L145.1 341.1C145.1 341.1 135.9 334.9 130.1 339.4C124.3 344 131.4 352.6 131.4 352.6Z" fill="#235A35"/>
<path d="M129.6 462.2H126.2V465.1H129.6V462.2Z" fill="#FD8365"/>
<path d="M143.5 462.2H140.1V465.1H143.5V462.2Z" fill="#FD8365"/>
<path d="M126.2 465.1L125.4 467.2V471H130.7V467.4L129.6 465.1H126.2Z" fill="#193B21"/>
<path d="M140.1 465.1L139.5 466.5V470.6H155.3V468.6L147.4 467L143.5 465.1H140.1Z" fill="#193B21"/>
<path d="M125.5 363.1C125.5 363.1 114.9 371.7 112.9 375.5C111.2 378.7 110.3 386.1 113.5 389.6C116.7 393.1 124 394.1 127.7 392.8C131.5 391.5 137 386.4 137 386.4L135.9 382.4C135.9 382.4 130.1 387.2 126 387.6C121.9 388 118.5 386.9 118.9 382.2C119.3 377.5 126.1 375.8 128.9 374.1C131.7 372.4 131.6 369.4 130.4 366.3C129.4 363.1 126.9 362.1 125.5 363.1Z" fill="#15361F"/>
<path d="M141.9 370.7L135.3 393.3H150.5L163.7 370.7H141.9Z" fill="#F2BF79"/>
<path d="M152.5 367H154.2V368.5L157.1 369.5C157.1 369.5 157 371.9 157.1 371.9C157.2 371.9 147.9 371.9 147.9 371.9V369.4L151.2 368.6V367H152.5Z" fill="#8B5E58"/>
<path d="M135.9 382.4C135.9 382.4 138.8 381.3 139 381.3C139.2 381.3 143.7 381.1 143.7 381.3C143.7 381.5 144.3 383.2 144.4 383.4C144.5 383.6 143.5 385.3 143.5 385.3H140.4L139.3 383.2L136.8 385.5L135.9 382.4Z" fill="#FD8365"/>
<path d="M122.9 400L140.2 400.6L140.1 403.7L123 403L122.9 400Z" fill="#D87556"/>
<defs>
<linearGradient id="paint0_linear_514_569" x1="133.3" y1="438.52" x2="496.216" y2="173.896" gradientUnits="userSpaceOnUse">
<stop stop-color="white" stop-opacity="0.1"/>
<stop offset="1" stop-color="white" stop-opacity="0.5"/>
</linearGradient>
<linearGradient id="paint1_linear_514_569" x1="141.739" y1="156.489" x2="435.538" y2="434.638" gradientUnits="userSpaceOnUse">
<stop stop-color="white" stop-opacity="0.5"/>
<stop offset="1" stop-color="white" stop-opacity="0.2"/>
</linearGradient>
<linearGradient id="paint2_linear_514_569" x1="404.434" y1="303.398" x2="243.131" y2="514.004" gradientUnits="userSpaceOnUse">
<stop stop-color="white" stop-opacity="0.1"/>
<stop offset="1" stop-color="white" stop-opacity="0.5"/>
</linearGradient>
<linearGradient id="paint3_linear_514_569" x1="75.6633" y1="421.063" x2="564.72" y2="167.753" gradientUnits="userSpaceOnUse">
<stop stop-color="white" stop-opacity="0.7"/>
<stop offset="1" stop-color="white"/>
</linearGradient>
</defs>
</svg>
