<svg width="621" height="599" viewBox="0 0 621 599" fill="none" xmlns="http://www.w3.org/2000/svg">
<path d="M307.5 543C245.4 543 187 518.9 143.1 475.2C99.2 431.5 75 373.3 75 311.5C75 249.6 99.2 191.5 143.1 147.8C187 104.1 245.4 80 307.5 80C369.6 80 428 104.1 471.9 147.8C515.8 191.5 540 249.7 540 311.5C540 373.3 515.8 431.5 471.9 475.2C428 518.9 369.6 543 307.5 543ZM307.5 112C196.9 112 107 201.5 107 311.5C107 421.5 196.9 511 307.5 511C418.1 511 508 421.5 508 311.5C508 201.5 418.1 112 307.5 112Z" fill="url(#paint0_linear_526_426)"/>
<path d="M306 472C394.366 472 466 400.366 466 312C466 223.634 394.366 152 306 152C217.634 152 146 223.634 146 312C146 400.366 217.634 472 306 472Z" fill="url(#paint1_linear_526_426)"/>
<path d="M327 517C221.6 517 139 467.6 139 404.5C139 341.4 221.6 292 327 292C432.4 292 515 341.4 515 404.5C515 467.6 432.4 517 327 517ZM327 328C284.6 328 245 337 215.5 353.4C189.7 367.7 175 386.3 175 404.5C175 422.6 189.8 441.3 215.5 455.6C245 472 284.6 481 327 481C369.4 481 409 472 438.5 455.6C464.3 441.3 479 422.7 479 404.5C479 386.4 464.2 367.7 438.5 353.4C409 337 369.4 328 327 328Z" fill="url(#paint2_linear_526_426)"/>
<path d="M320.1 560.4C317.9 560.4 316.1 558.7 316.1 556.5C316.1 554.3 317.8 552.5 320 552.4C325.6 552.3 331.2 552 336.7 551.6C338.9 551.4 340.8 553.1 341 555.3C341.2 557.5 339.5 559.4 337.3 559.6C331.6 560 325.8 560.3 320.1 560.4ZM301.1 560.1C301 560.1 301 560.1 300.9 560.1C295.2 559.8 289.4 559.3 283.7 558.7C281.5 558.5 279.9 556.5 280.2 554.3C280.4 552.1 282.4 550.5 284.6 550.8C290.1 551.4 295.8 551.9 301.3 552.2C303.5 552.3 305.2 554.2 305.1 556.4C305 558.4 303.2 560.1 301.1 560.1ZM355.9 557.5C353.9 557.5 352.2 556.1 351.9 554.1C351.6 551.9 353.1 549.9 355.3 549.6C360.8 548.8 366.3 547.8 371.8 546.7C374 546.2 376.1 547.6 376.5 549.8C376.9 552 375.6 554.1 373.4 554.5C367.8 555.7 362.1 556.7 356.4 557.5C356.3 557.5 356.1 557.5 355.9 557.5ZM265.3 556C265.1 556 264.8 556 264.6 555.9C259 554.9 253.3 553.7 247.7 552.4C245.6 551.9 244.2 549.7 244.7 547.6C245.2 545.5 247.4 544.1 249.5 544.6C254.9 545.9 260.4 547 265.9 548C268.1 548.4 269.5 550.5 269.1 552.6C268.9 554.6 267.2 556 265.3 556ZM391.1 550C389.4 550 387.8 548.8 387.3 547.1C386.7 545 387.9 542.8 390.1 542.2C395.4 540.7 400.8 539 406 537.2C408.1 536.5 410.4 537.6 411.1 539.7C411.8 541.8 410.7 544.1 408.6 544.8C403.2 546.7 397.7 548.4 392.2 550C391.8 550 391.4 550 391.1 550ZM230.4 547.5C230 547.5 229.6 547.4 229.2 547.3C223.7 545.6 218.3 543.7 212.9 541.7C210.8 540.9 209.8 538.6 210.6 536.5C211.4 534.4 213.7 533.4 215.8 534.2C221 536.2 226.3 538 231.6 539.7C233.7 540.4 234.9 542.6 234.2 544.7C233.7 546.4 232.1 547.5 230.4 547.5ZM424.9 538C423.4 538 421.9 537.1 421.2 535.6C420.3 533.6 421.3 531.2 423.3 530.3C428.4 528.1 433.5 525.7 438.4 523.2C440.4 522.2 442.8 523 443.8 525C444.8 527 444 529.4 442 530.4C436.9 533 431.7 535.4 426.4 537.7C426 537.9 425.5 538 424.9 538ZM196.8 534.6C196.2 534.6 195.7 534.5 195.1 534.2C189.9 531.8 184.7 529.2 179.7 526.5C177.8 525.5 177 523 178.1 521.1C179.1 519.2 181.6 518.4 183.5 519.5C188.4 522.1 193.5 524.6 198.5 526.9C200.5 527.8 201.4 530.2 200.5 532.2C199.8 533.7 198.3 534.6 196.8 534.6ZM456.9 521.6C455.5 521.6 454.2 520.9 453.5 519.7C452.4 517.8 453 515.3 454.9 514.2C459.7 511.3 464.4 508.3 469 505.1C470.8 503.8 473.3 504.3 474.6 506.1C475.9 507.9 475.4 510.4 473.6 511.7C468.9 514.9 464 518.1 459.1 521C458.3 521.4 457.6 521.6 456.9 521.6ZM165.1 517.5C164.4 517.5 163.6 517.3 163 516.9C158.1 513.9 153.3 510.6 148.7 507.3C146.9 506 146.5 503.5 147.8 501.7C149.1 499.9 151.6 499.5 153.4 500.8C157.9 504 162.6 507.2 167.3 510.1C169.2 511.3 169.7 513.7 168.6 515.6C167.8 516.9 166.5 517.5 165.1 517.5ZM486.4 501C485.2 501 484.1 500.5 483.3 499.5C481.9 497.8 482.2 495.3 483.9 493.9C488.2 490.4 492.5 486.7 496.6 483C498.2 481.5 500.8 481.6 502.3 483.2C503.8 484.8 503.7 487.4 502.1 488.9C497.9 492.8 493.5 496.5 489 500.1C488.2 500.8 487.3 501 486.4 501ZM135.9 496.4C135 496.4 134.1 496.1 133.4 495.5C129 491.8 124.6 488 120.4 484.1C118.8 482.6 118.7 480.1 120.2 478.4C121.7 476.8 124.2 476.7 125.9 478.2C130 482 134.2 485.7 138.5 489.3C140.2 490.7 140.4 493.2 139 494.9C138.2 495.9 137.1 496.4 135.9 496.4ZM512.8 476.6C511.8 476.6 510.8 476.2 510.1 475.5C508.5 474 508.4 471.5 509.9 469.8C513.7 465.7 517.4 461.5 520.9 457.2C522.3 455.5 524.8 455.2 526.5 456.6C528.2 458 528.5 460.5 527.1 462.2C523.5 466.6 519.6 471 515.7 475.2C515 476.2 513.9 476.6 512.8 476.6ZM109.8 471.7C108.7 471.7 107.7 471.3 106.9 470.4C103 466.2 99.1998 461.8 95.5998 457.4C94.1998 455.7 94.4998 453.2 96.1998 451.8C97.8998 450.4 100.4 450.7 101.8 452.4C105.3 456.7 109 461 112.8 465C114.3 466.6 114.2 469.2 112.6 470.7C111.7 471.4 110.8 471.7 109.8 471.7ZM535.5 448.7C534.7 448.7 533.9 448.5 533.2 448C531.4 446.7 531 444.2 532.2 442.4C535.4 437.8 538.5 433.1 541.3 428.4C542.4 426.5 544.9 425.9 546.8 427C548.7 428.1 549.3 430.6 548.2 432.5C545.2 437.4 542.1 442.3 538.8 447C538 448.1 536.8 448.7 535.5 448.7ZM87.1998 443.7C85.8998 443.7 84.6998 443.1 83.8998 442C80.5998 437.3 77.3998 432.4 74.3998 427.6C73.1998 425.7 73.7998 423.3 75.6998 422.1C77.5998 420.9 79.9998 421.5 81.1998 423.4C84.0998 428.1 87.1998 432.8 90.3998 437.4C91.6998 439.2 91.1998 441.7 89.3998 443C88.7998 443.5 87.9998 443.7 87.1998 443.7ZM554 417.9C553.4 417.9 552.8 417.8 552.2 417.5C550.2 416.5 549.4 414.1 550.4 412.1C552.9 407.1 555.2 402 557.4 396.9C558.3 394.9 560.6 393.9 562.6 394.8C564.6 395.7 565.6 398 564.7 400C562.5 405.3 560.1 410.6 557.5 415.7C556.9 417.1 555.5 417.9 554 417.9ZM68.5998 412.9C67.0998 412.9 65.6998 412.1 64.9998 410.7C62.3998 405.6 59.8998 400.3 57.5998 395.1C56.6998 393.1 57.6998 390.7 59.6998 389.8C61.6998 388.9 64.0998 389.9 64.9998 391.9C67.1998 397 69.5998 402.1 72.0998 407C73.0998 409 72.2998 411.4 70.3998 412.4C69.7998 412.8 69.1998 412.9 68.5998 412.9ZM567.7 384.6C567.3 384.6 566.9 384.5 566.4 384.4C564.3 383.7 563.2 381.4 563.9 379.4C565.6 374.1 567.2 368.7 568.6 363.4C569.1 361.3 571.3 360 573.5 360.5C575.6 361 576.9 363.2 576.4 365.4C575 371 573.4 376.5 571.6 382C571 383.5 569.4 384.6 567.7 384.6ZM54.3998 379.9C52.6998 379.9 51.1998 378.9 50.5998 377.2C48.6998 371.8 46.9998 366.2 45.4998 360.7C44.8998 358.6 46.1998 356.4 48.2998 355.8C50.3998 355.2 52.5998 356.5 53.1998 358.6C54.6998 363.9 56.2998 369.3 58.0998 374.6C58.7998 376.7 57.6998 379 55.5998 379.7C55.2998 379.8 54.8998 379.9 54.3998 379.9ZM576.5 349.7C576.3 349.7 576 349.7 575.8 349.6C573.6 349.2 572.2 347.2 572.5 345C573.5 339.5 574.2 334 574.8 328.4C575 326.2 577 324.6 579.2 324.8C581.4 325 583 327 582.8 329.2C582.2 334.9 581.4 340.7 580.4 346.3C580.1 348.4 578.4 349.7 576.5 349.7ZM45.0998 345.1C43.1998 345.1 41.4998 343.8 41.1998 341.8C40.0998 336.2 39.1998 330.4 38.5998 324.8C38.2998 322.6 39.8998 320.6 42.0998 320.4C44.2998 320.1 46.2998 321.7 46.4998 323.9C47.1998 329.4 47.9998 334.9 49.0998 340.4C49.4998 342.6 48.0998 344.7 45.8998 345.1C45.5998 345.1 45.3998 345.1 45.0998 345.1ZM580 313.9C577.7 313.8 575.9 312 576 309.8C576.1 307.8 576.1 305.7 576.1 303.6C576.1 300.1 576 296.5 575.9 293C575.8 290.8 577.5 288.9 579.7 288.8C581.9 288.7 583.8 290.4 583.9 292.6C584.1 296.2 584.1 299.9 584.1 303.5C584.1 305.6 584.1 307.8 584 309.9C583.9 312.2 582.2 313.9 580 313.9ZM40.9998 309.4C38.8998 309.4 37.0998 307.7 36.9998 305.6C36.8998 302.2 36.7998 298.7 36.7998 295.3C36.7998 293 36.7998 290.7 36.8998 288.4C36.9998 286.2 38.7998 284.5 40.9998 284.5C43.1998 284.6 44.8998 286.4 44.8998 288.6C44.7998 290.8 44.7998 293.1 44.7998 295.3C44.7998 298.6 44.8998 302 44.9998 305.3C45.0998 307.5 43.3998 309.4 41.1998 309.5C41.0998 309.4 41.0998 309.4 40.9998 309.4ZM578.3 278C576.3 278 574.6 276.5 574.3 274.5C573.6 269 572.8 263.4 571.7 258C571.3 255.8 572.7 253.7 574.9 253.3C577.1 252.9 579.2 254.3 579.6 256.5C580.7 262.1 581.6 267.9 582.3 273.5C582.6 275.7 581 277.7 578.8 278C578.6 278 578.4 278 578.3 278ZM42.1998 273.5C42.0998 273.5 41.8998 273.5 41.7998 273.5C39.5998 273.3 37.9998 271.3 38.1998 269.1C38.7998 263.4 39.5998 257.7 40.5998 252C40.9998 249.8 43.0998 248.4 45.1998 248.8C47.3998 249.2 48.7998 251.3 48.3998 253.4C47.3998 258.9 46.5998 264.5 46.0998 270C45.8998 272 44.1998 273.5 42.1998 273.5ZM571.3 242.8C569.5 242.8 567.9 241.6 567.4 239.9C565.9 234.6 564.3 229.2 562.4 223.9C561.7 221.8 562.8 219.5 564.9 218.8C567 218.1 569.3 219.2 570 221.3C571.9 226.7 573.6 232.3 575.1 237.8C575.7 239.9 574.4 242.1 572.3 242.7C572 242.7 571.7 242.8 571.3 242.8ZM48.4998 238.1C48.1998 238.1 47.7998 238.1 47.4998 238C45.3998 237.5 44.0998 235.3 44.5998 233.1C45.9998 227.5 47.6998 222 49.4998 216.5C50.1998 214.4 52.4998 213.3 54.5998 214C56.6998 214.7 57.7998 217 57.0998 219.1C55.3998 224.4 53.7998 229.8 52.3998 235.1C51.8998 236.9 50.2998 238.1 48.4998 238.1ZM559.4 208.9C557.9 208.9 556.4 208 555.7 206.5C553.5 201.4 551.1 196.3 548.5 191.4C547.5 189.4 548.3 187 550.2 186C552.2 185 554.6 185.8 555.6 187.7C558.2 192.8 560.7 198 563 203.3C563.9 205.3 563 207.7 560.9 208.6C560.4 208.8 559.9 208.9 559.4 208.9ZM59.9998 204C59.4998 204 58.9998 203.9 58.4998 203.7C56.4998 202.8 55.4998 200.5 56.3998 198.5C58.5998 193.2 61.0998 187.9 63.6998 182.8C64.6998 180.8 67.0998 180 69.0998 181C71.0998 182 71.8998 184.4 70.8998 186.4C68.3998 191.4 65.9998 196.5 63.8998 201.6C62.9998 203.1 61.5998 204 59.9998 204ZM542.7 177C541.4 177 540 176.3 539.3 175.1C536.4 170.4 533.3 165.7 530.1 161.1C528.8 159.3 529.3 156.8 531.1 155.5C532.9 154.2 535.4 154.7 536.7 156.5C540 161.2 543.2 166 546.2 170.9C547.4 172.8 546.8 175.2 544.9 176.4C544.2 176.8 543.4 177 542.7 177ZM76.3998 172C75.6998 172 74.9998 171.8 74.2998 171.4C72.3998 170.3 71.7998 167.8 72.9998 165.9C75.9998 161 79.1998 156.1 82.4998 151.4C83.7998 149.6 86.2998 149.2 88.0998 150.4C89.8998 151.7 90.2998 154.2 89.0998 156C85.8998 160.5 82.7998 165.3 79.8998 170C78.9998 171.3 77.6998 172 76.3998 172ZM521.9 147.6C520.7 147.6 519.6 147.1 518.8 146.1C515.3 141.8 511.6 137.6 507.8 133.5C506.3 131.9 506.4 129.4 508 127.8C509.6 126.2 512.1 126.4 513.7 128C517.6 132.2 521.4 136.6 525.1 141C526.5 142.7 526.2 145.2 524.5 146.6C523.7 147.3 522.8 147.6 521.9 147.6ZM97.1998 142.7C96.2998 142.7 95.3998 142.4 94.6998 141.8C92.9998 140.4 92.7998 137.9 94.1998 136.2C97.7998 131.8 101.7 127.4 105.6 123.3C107.1 121.7 109.6 121.6 111.3 123.1C112.9 124.6 113 127.1 111.5 128.8C107.7 132.8 104 137.1 100.4 141.3C99.4998 142.2 98.2998 142.7 97.1998 142.7ZM497.3 121.4C496.3 121.4 495.3 121 494.6 120.3C490.5 116.5 486.3 112.8 482 109.2C480.3 107.8 480.1 105.3 481.5 103.6C482.9 101.9 485.4 101.7 487.1 103.1C491.5 106.7 495.9 110.6 500.1 114.5C501.7 116 501.8 118.5 500.3 120.2C499.4 121 498.3 121.4 497.3 121.4ZM122 116.6C120.9 116.6 119.8 116.2 119 115.3C117.5 113.7 117.6 111.1 119.3 109.6C123.5 105.7 127.9 102 132.4 98.4001C134.1 97.0001 136.6 97.3001 138 99.0001C139.4 100.7 139.1 103.2 137.4 104.6C133.1 108.1 128.8 111.7 124.7 115.5C123.9 116.3 123 116.6 122 116.6ZM469.4 98.6001C468.6 98.6001 467.8 98.4001 467.1 97.9001C462.6 94.7001 457.9 91.5001 453.2 88.6001C451.3 87.4001 450.8 85.0001 451.9 83.1001C453.1 81.2001 455.5 80.7001 457.4 81.8001C462.3 84.8001 467.1 88.1001 471.8 91.4001C473.6 92.7001 474 95.2001 472.7 97.0001C471.9 98.0001 470.6 98.6001 469.4 98.6001ZM150.2 94.3001C148.9 94.3001 147.7 93.7001 146.9 92.6001C145.6 90.8001 146.1 88.3001 147.9 87.0001C152.6 83.8001 157.5 80.6001 162.4 77.7001C164.3 76.6001 166.8 77.2001 167.9 79.1001C169 81.0001 168.4 83.5001 166.5 84.6001C161.7 87.5001 157 90.5001 152.4 93.6001C151.7 94.0001 150.9 94.3001 150.2 94.3001ZM438.8 79.7001C438.2 79.7001 437.5 79.5001 436.9 79.2001C432 76.6001 426.9 74.1001 421.9 71.8001C419.9 70.9001 419 68.5001 419.9 66.5001C420.8 64.5001 423.2 63.6001 425.2 64.5001C430.4 66.9001 435.6 69.4001 440.7 72.1001C442.6 73.1001 443.4 75.6001 442.4 77.5001C441.6 78.9001 440.2 79.7001 438.8 79.7001ZM181.1 75.9001C179.6 75.9001 178.2 75.1001 177.5 73.7001C176.5 71.7001 177.3 69.3001 179.3 68.3001C184.4 65.7001 189.7 63.3001 194.9 61.0001C196.9 60.1001 199.3 61.1001 200.2 63.1001C201.1 65.1001 200.1 67.5001 198.1 68.4001C193 70.6001 187.9 73.0001 182.9 75.5001C182.3 75.8001 181.7 75.9001 181.1 75.9001ZM406 64.8001C405.5 64.8001 405.1 64.7001 404.6 64.5001C399.4 62.5001 394.1 60.7001 388.8 59.1001C386.7 58.4001 385.5 56.2001 386.2 54.1001C386.9 52.0001 389.1 50.8001 391.2 51.5001C396.7 53.2001 402.2 55.1001 407.5 57.1001C409.6 57.9001 410.6 60.2001 409.8 62.3001C409.2 63.9001 407.6 64.8001 406 64.8001ZM214.2 61.9001C212.5 61.9001 211 60.9001 210.4 59.2001C209.7 57.1001 210.8 54.8001 212.9 54.1001C218.3 52.2001 223.8 50.5001 229.3 48.9001C231.4 48.3001 233.6 49.5001 234.2 51.7001C234.8 53.8001 233.6 56.0001 231.4 56.6001C226.1 58.1001 220.7 59.8001 215.4 61.6001C215.1 61.8001 214.6 61.9001 214.2 61.9001ZM371.6 54.3001C371.3 54.3001 371 54.3001 370.7 54.2001C365.3 52.9001 359.8 51.8001 354.3 50.8001C352.1 50.4001 350.7 48.3001 351.1 46.2001C351.5 44.0001 353.6 42.6001 355.7 43.0001C361.3 44.0001 367 45.2001 372.6 46.5001C374.7 47.0001 376.1 49.2001 375.6 51.3001C375.1 53.1001 373.4 54.3001 371.6 54.3001ZM248.8 52.3001C246.9 52.3001 245.3 51.0001 244.9 49.1001C244.5 46.9001 245.8 44.8001 248 44.4001C253.6 43.2001 259.3 42.2001 265 41.4001C267.2 41.1001 269.2 42.6001 269.5 44.8001C269.8 47.0001 268.3 49.0001 266.1 49.3001C260.6 50.1001 255 51.1001 249.6 52.2001C249.3 52.3001 249.1 52.3001 248.8 52.3001ZM337.3 48.3001C337.1 48.3001 337 48.3001 336.8 48.3001C331.3 47.7001 325.6 47.2001 320.1 46.9001C317.9 46.8001 316.2 44.9001 316.3 42.7001C316.4 40.5001 318.3 38.8001 320.5 38.9001C326.2 39.2001 332 39.7001 337.7 40.3001C339.9 40.5001 341.5 42.5001 341.2 44.7001C341.1 46.8001 339.3 48.3001 337.3 48.3001ZM284.4 47.3001C282.3 47.3001 280.6 45.7001 280.4 43.6001C280.2 41.4001 281.9 39.5001 284.1 39.3001C289.8 38.9001 295.6 38.6001 301.3 38.5001C303.5 38.4001 305.3 40.2001 305.4 42.4001C305.4 44.6001 303.7 46.4001 301.5 46.5001C295.9 46.6001 290.3 46.8001 284.8 47.2001C284.6 47.3001 284.5 47.3001 284.4 47.3001Z" fill="url(#paint3_linear_526_426)"/>
<path d="M460.9 517V520.8H467.4L467.6 517.7L466.4 511.4L460.9 517Z" fill="#FFB27D"/>
<path d="M477.8 517V520.8H484.3L484.6 517.7L483.4 511.4L477.8 517Z" fill="#FFB27D"/>
<path d="M398.2 527.6H228.9C216.4 527.6 206.2 517.4 206.2 504.9V180.3C206.2 167.8 216.4 157.6 228.9 157.6H398.2C410.7 157.6 420.9 167.8 420.9 180.3V504.9C420.9 517.4 410.8 527.6 398.2 527.6Z" fill="#2B478B"/>
<path d="M228.9 522.6C219.1 522.6 211.2 514.7 211.2 504.9V180.3C211.2 170.5 219.1 162.6 228.9 162.6H398.2C408 162.6 415.9 170.5 415.9 180.3V504.9C415.9 514.7 408 522.6 398.2 522.6H228.9Z" fill="#6376E5"/>
<path d="M235.2 274.8H232.2V245.2H261.8V248.2H235.2V274.8Z" fill="#A3AEEF"/>
<path d="M261.8 409H232.2V379.5H235.2V406H261.8V409Z" fill="#A3AEEF"/>
<path d="M394.8 409H365.3V406H391.8V379.5H394.8V409Z" fill="#A3AEEF"/>
<path d="M394.8 274.8H391.8V248.2H365.3V245.2H394.8V274.8Z" fill="#A3AEEF"/>
<path d="M382.3 257H244.5V394.8H382.3V257Z" fill="#E1E5FA"/>
<path d="M302.9 145.4C302.9 145.4 296.4 161 294.3 175.2C292.3 189.4 291.4 202.6 291.4 202.6L301.2 205.7L319.2 159.6L313.5 140.2L302.9 145.4Z" fill="#F99746"/>
<path d="M299.9 153.5C301.6 148.6 302.9 145.4 302.9 145.4L313.6 140.2L319.3 159.6L313 175.8L299.9 153.5Z" fill="#ED7D2B"/>
<path d="M241.2 121.5C241.2 121.5 236.7 127.4 236.3 139.8C235.9 152.2 237.7 161 253.3 160.7C268.9 160.4 285.3 155 291.5 152.7C297.7 150.4 306.1 144.4 308.4 149.3C310.7 154.2 318.5 169.2 329.6 179C340.7 188.8 351.1 197.8 351.1 197.8L360.3 195.7C360.3 195.7 334.5 148.6 329.8 140.7C325.2 132.8 314.7 121.4 314.7 121.4L252.1 119.3L241.2 121.5Z" fill="#F99746"/>
<path d="M296.2 264.6H290.6V270.2H296.2H301.7V264.6H296.2Z" fill="#2B478B"/>
<path d="M296.2 275.8H290.6V281.4V286.9H296.2H301.7V281.4H296.2V275.8Z" fill="#2B478B"/>
<path d="M335.2 359.5H329.6V365.1H335.2V359.5Z" fill="#2B478B"/>
<path d="M363.1 342.7V348.3H368.7H374.3V342.7H368.7H363.1Z" fill="#2B478B"/>
<path d="M273.8 286.9V281.4V275.8H268.3H262.7V281.4V286.9H268.3H273.8Z" fill="#2B478B"/>
<path d="M262.7 298.1H268.3H273.9H279.5H285.1V292.5V286.9V281.3V275.7V270.1V264.5H279.5H273.9H268.3H262.7H257.1H251.5V270.1V275.7V281.3V286.9V292.5V298.1H257.1H262.7ZM257.1 286.9V281.3V275.7V270.1H262.7H268.3H273.9H279.5V275.7V281.3V286.9V292.5H273.9H268.3H262.7H257.1V286.9Z" fill="#2B478B"/>
<path d="M273.8 353.9H268.2H262.6H257H251.4V359.5V365.1V370.7V376.3V381.9V387.5H257H262.6H268.2H273.8H279.4H285V381.9V376.3V370.7V365.1V359.5V353.9H279.4H273.8ZM279.4 365.1V370.7V376.3V381.9H273.8H268.2H262.6H257V376.3V370.7V365.1V359.5H262.6H268.2H273.8H279.4V365.1Z" fill="#2B478B"/>
<path d="M262.7 365.1V370.6V376.2H268.3H273.8V370.6V365.1H268.3H262.7Z" fill="#2B478B"/>
<path d="M363.1 353.9H357.5H352H346.4H340.8V359.5V365.1V370.7V376.3V381.9V387.5H346.4H352H357.6H363.2H368.8H374.4V381.9V376.3V370.7V365.1V359.5V353.9H368.8H363.1ZM368.7 365.1V370.7V376.3V381.9H363.1H357.5H352H346.4V376.3V370.7V365.1V359.5H352H357.6H363.2H368.8V365.1H368.7Z" fill="#2B478B"/>
<path d="M352 365.1V370.6V376.2H357.5H363.1V370.6V365.1H357.5H352Z" fill="#2B478B"/>
<path d="M357.6 292.5H352V298.1H357.6V292.5Z" fill="#2B478B"/>
<path d="M363.1 270.2V275.8H357.5V281.4H352V275.8H346.4H340.8V270.2V264.6H335.2V270.2H329.6V264.6H324V270.2H318.4V275.8H312.8V270.2H307.2H301.6V275.8V281.4H307.2V287H312.8H318.4V281.4H324V287V292.6H329.6H335.2V287H329.6V281.4V275.8H335.2V281.4H340.8H346.4V287H340.8V292.6H335.2V298.2H329.6H324V303.8H329.6V309.4H324V315H318.4V309.4H324V303.8H318.4V298.2V292.6H312.8V298.2H307.2V303.8H312.8V309.4H307.2V303.8H301.6V298.2V292.6H296H290.4V298.2H296V303.8V309.4H301.6V315H296V320.6H290.4V315V309.4V303.8H285H279.4V309.4V315H285V320.6H279.4V315H273.8V309.4H268.2V315H262.6V309.4V303.8H257H251.4V309.4V315H257V320.6H262.6H268.2V326.2H262.6H257V320.6H251.4V326.2V331.8V337.4H257H262.6V331.8H268.2V337.4H262.6V343H257V348.6H262.6H268.2H273.8H279.4V343H273.8V337.4H279.4H285V343H290.6V348.6H296.2H301.8H307.4V343V337.4H313H318.6V343H313V348.6H307.4V354.2H301.8V359.8H296.2V354.2H290.6V359.8V365.4V371V376.6H296.2V382.2H290.6V387.8H296.2H301.8V382.2V376.6H307.4V371V365.4V359.8H313V354.2H318.6V359.8H313V365.4V371V376.6H307.4V382.2H313V387.8H318.6V382.2H324.2V387.8H329.8H335.4V382.2H329.8V376.6H335.4V371H329.8H324.2H318.6V365.4H324.2V359.8V354.2V348.6H329.8V354.2H335.4V348.6H341H346.6H352.2H357.8V343V337.4H363.4V331.8H369V337.4H374.6V331.8V326H369H363.4V320.4V314.8H369V320.4H374.6V314.8V309.2H369H363.4V303.6H357.8H352H346.4H340.8V298H346.4V292.4H352V286.8H357.6V292.4H363.2H368.8V298H374.4V292.4V286.8H368.8H363.2V281.2H368.8H374.4V275.6H368.8V270H363.1V270.2ZM301.7 370.6H296.1V365H301.7V370.6ZM301.7 342.7H296.1V337.1H290.5V331.5H285H279.4H273.8V326H279.4H285H290.6V331.6H296.2V337.2H301.8V342.7H301.7ZM357.5 309.3V314.9H352V309.3H357.5ZM346.4 309.3V314.9H340.8V320.5H346.4H352H357.6V326.1H352V331.7V337.3H346.4V342.9H340.8V337.3H335.2H329.6V342.9H324V337.3H329.6V331.7H324V326H318.4V331.6H312.8H307.2H301.6V326V320.4H307.2V314.8H312.8V320.4V326H318.4V320.4H324H329.6V326H335.2V331.6H340.8H346.4V326H340.8V320.4H335.2V314.8H340.8V309.2H346.4V309.3Z" fill="#2B478B"/>
<path d="M374.3 264.6H368.7V270.2H374.3V264.6Z" fill="#2B478B"/>
<path d="M357.5 270.2V264.6H352H346.4V270.2H352H357.5Z" fill="#2B478B"/>
<path d="M378.8 453.5H248.7C246.4 453.5 244.5 451.6 244.5 449.3V446.8C244.5 444.5 246.4 442.6 248.7 442.6H378.8C381.1 442.6 383 444.5 383 446.8V449.3C383 451.7 381.1 453.5 378.8 453.5Z" fill="white"/>
<path d="M303.5 442.7L292.6 453.5H311.8L322.6 442.7H303.5Z" fill="#F99746"/>
<path d="M272.4 442.7L261.5 453.5H280.5L291.3 442.7H272.4Z" fill="#F99746"/>
<path d="M248.7 442.7C246.4 442.7 244.5 444.6 244.5 446.9V449.4C244.5 451.7 246.4 453.6 248.7 453.6H249.4L260.2 442.8H248.7V442.7Z" fill="#F99746"/>
<path d="M341.2 442.7H334.7L323.9 453.5H341.2V442.7Z" fill="#F99746"/>
<path d="M260.2 442.7L249.4 453.5H261.5L272.4 442.7H260.2Z" fill="#ED7D2B"/>
<path d="M291.3 442.7L280.5 453.5H292.6L303.5 442.7H291.3Z" fill="#ED7D2B"/>
<path d="M322.6 442.7L311.8 453.5H323.9L334.7 442.7H322.6Z" fill="#ED7D2B"/>
<path d="M275.3 75.0003C275.3 75.0003 283.8 67.8003 283.8 60.1003C283.8 52.4003 283 35.9003 277.4 29.3003C271.8 22.7003 258.4 20.2003 252.8 24.3003C247.2 28.4003 242.3 37.8003 241.4 44.6003C240.5 51.4003 238.2 52.7003 233.1 56.7003C228 60.7003 217.6 68.5003 217.6 75.7003C217.6 82.9003 219.7 89.9003 223.5 92.6003C227.5 95.4003 275.3 75.0003 275.3 75.0003Z" fill="#233862"/>
<path d="M264.6 62.3C264.6 62.3 266.6 63.6 270.2 63.8C273.8 64 278.9 67.8 280.2 72.8C281.5 77.8 287 90.9 287 90.9L281.1 115.6L272.5 122.4H257.8C257.8 122.4 237.8 123.9 228.7 123.1C219.6 122.3 218.2 115.6 218.6 107.9C219 100.2 224.2 84.6 227.4 76.1C230.6 67.6 238.1 62.2 241.9 61.8C245.6 61.4 250.3 61 250.3 61L264.6 62.3ZM237 99.7C237 99.7 233.1 104.9 233.2 107.8C233.3 110.7 237.7 110.9 237.7 110.9L237 99.7Z" fill="#AEC3FF"/>
<path d="M253.6 51C253 56.4 250.8 57.6 250.4 61.3C250.1 63.6 255.4 66 259.6 66C263.9 66 264.6 64.2 264.6 62.3C264.6 60.4 265.2 55.7 265.2 55.7L253.6 51Z" fill="#FFB27D"/>
<path d="M253.6 52.5C253.6 52.5 259 61.5 262 61.6C265 61.7 264.9 58.5 264.9 58.5L253.6 52.5Z" fill="#ED975D"/>
<path d="M271.5 36.9004C268.1 35.4004 267.2 39.9004 264 41.8004C260.8 43.7004 256.4 43.9004 254.9 43.7004C253.4 43.5004 251.7 44.3004 251.6 46.4004C251.5 48.5004 253.2 49.5004 253.2 51.8004C253.2 54.1004 256.5 58.3004 262 59.1004C267.5 59.9004 270.1 56.8004 272.4 53.0004C274.7 49.3004 276.2 38.9004 271.5 36.9004Z" fill="#FFB27D"/>
<path d="M237 99.7002L242 93.7002C242 93.7002 240.8 104.3 247 108.4C253.2 112.5 261.2 115.2 261.2 115.2L237.7 110.9L237 99.7002Z" fill="#94B0ED"/>
<path d="M257.8 115.5V121.4C257.8 121.4 262.7 121 265 120C267.3 119 268.5 116.9 269.7 118.4C270.9 119.9 270.9 119.8 271.4 119.8C271.9 119.8 273.6 120.1 273.5 118.8C273.4 117.4 271.4 115.5 269.6 115.4C267.6 115.5 257.8 115.5 257.8 115.5Z" fill="#FFB27D"/>
<path d="M284.9 89.7002L271.6 124.4H318L332 89.7002H284.9Z" fill="#2B478B"/>
<path d="M303.9 104.5L301.3 107.5L303.9 110.5L306.4 107.5L303.9 104.5Z" fill="#EBF3FA"/>
<path d="M305.5 104L304.2 105.6L305.5 107L306.7 105.5L305.5 104Z" fill="#EBF3FA"/>
<path d="M273.5 120.1C273.3 120.1 256 122.4 256 122.4V124.3H272.8L273.5 120.1Z" fill="#86829F"/>
<path d="M134.9 320C134.9 320 143.7 335.4 147.3 335.4C150.9 335.4 174.3 315.4 174.7 315.4C175.1 315.4 179.9 320.8 179.9 320.8C179.9 320.8 172.5 334.2 164.9 342.6C157.3 351 151.4 355.9 142.7 354.9C134.1 353.9 130.2 343.5 130.2 343.5L134.9 320Z" fill="#94B0ED"/>
<path d="M351.1 197.8L354.2 203.4V207.3H369.6L374.8 203.2L368.7 203.3C367.4 203.3 366.2 202.4 363 199.6C360.8 197.7 359.9 195.8 359.9 195.8L351.1 197.8Z" fill="#FFB27D"/>
<path d="M354.2 207.3V209.9H370.5L379.3 206L376.9 203.2L374.8 203.3L369.6 207.3H354.2Z" fill="#233862"/>
<path d="M103.2 287.6C103.2 287.6 97.6998 291.3 93.3998 301.5C89.0998 311.8 79.0998 327.8 74.7998 335C70.4998 342.2 69.5998 348.9 68.3998 357.1C67.1998 365.2 66.2998 376 66.2998 376H75.5998C75.5998 376 81.9998 354.5 84.7998 348.4C87.5998 342.3 91.9998 337.8 91.9998 337.8C91.9998 337.8 91.9998 357.8 91.4998 364.8C90.9998 371.8 90.0998 379 90.0998 379C90.0998 379 101.5 385.6 116.6 385.8C131.7 386 138.4 384.6 138.4 384.6C138.4 384.6 137.5 322.3 135.2 312.1C132.9 301.9 120.2 291.1 120.2 291.1L103.2 287.6Z" fill="#AEC3FF"/>
<path d="M291.5 202.6L290.9 208.5L286.9 210.8L283.9 213.1L297.2 230.4L299 229L297.2 216.5L300 205.3L291.5 202.6Z" fill="#FFB27D"/>
<path d="M283.9 213.1L280.8 215.3L294.3 232.8L299.9 234.8L302.3 233.7L299 229L297.2 230.4L283.9 213.1Z" fill="#233862"/>
<path d="M105.3 272.3C105.3 272.3 106.5 278.6 105.6 281.5C104.7 284.4 103.2 287.6 103.2 287.6C103.2 287.6 106.7 292.2 112.6 292.4C118.5 292.6 120.1 291.2 120.1 291.2C120.1 291.2 118.6 286.2 119.3 281.1C119.8 276 105.3 272.3 105.3 272.3Z" fill="#FFB27D"/>
<path d="M106.7 275.4C106.7 275.4 113 287.2 116 287.5C119 287.8 118.3 281.7 118.3 281.7L106.7 275.4Z" fill="#ED975D"/>
<path d="M124.3 261.7C124.3 261.7 125.2 267.2 125.2 272.4C125.2 277.6 123.4 281.6 118.9 281.8C114.4 282 104.7 277.7 104.7 270.4C104.7 263 105.2 257 105.2 257L120.6 254.5L124.3 261.7Z" fill="#FFB27D"/>
<path d="M91.8999 337.8L104.7 322.8C104.7 322.8 107 346.8 101.2 358C95.3999 369.2 90.8999 371 90.8999 371C90.8999 371 92.4999 353.2 91.8999 337.8Z" fill="#94B0ED"/>
<path d="M103.5 430.2C103.5 430.2 103.1 462.7 106.2 480.7C109.3 498.7 115.3 519.6 115.3 519.6L126.5 517.9L136.2 381.7L109.1 382.6L103.5 430.2Z" fill="#F99746"/>
<path d="M174.6 315.4L175 306.6H176.9L177.7 311.4L184.9 316.6L182.7 318.9L179.4 320.3L174.6 315.4Z" fill="#FFB27D"/>
<path d="M133.4 420.3L136.1 381.7L109 382.6L103.4 430.2C103.4 430.2 103.2 449.9 104.5 467.2L133.4 420.3Z" fill="#ED7D2B"/>
<path d="M90.8001 378.6C90.8001 378.6 91.4001 403.7 89.5001 412.8C87.6001 421.9 73.8001 434.5 69.4001 449.9C64.9001 465.3 59.1001 506.5 59.1001 506.5L69.4001 512.5C69.4001 512.5 104.4 448.4 114.3 425.2C124.2 402 133.3 380.7 133.3 380.7L90.8001 378.6Z" fill="#F99746"/>
<path d="M116.2 519.5L114.7 523.7V528.3H140.2V526.1L125.4 518L116.2 519.5Z" fill="#233862"/>
<path d="M59.7001 506.8L56.1001 508.5L52.6001 511.8L63.8001 528.3H75.2001V526.3L67.8001 521.5L68.8001 512.1L59.7001 506.8Z" fill="#233862"/>
<path d="M85.1002 423.5L42.6002 419.1C38.8002 418.7 36.1002 415.4 36.5002 411.6L38.4002 393.2C38.8002 389.4 42.1002 386.7 45.9002 387.1L88.4002 391.5C92.2002 391.9 94.9002 395.2 94.5002 399L92.6002 417.4C92.2002 421.1 88.9002 423.8 85.1002 423.5Z" fill="#2B478B"/>
<path d="M70.5002 396.7C70.3002 396.7 70.1002 396.7 70.0002 396.7L63.1002 396C61.7002 395.9 60.5002 395.2 59.6002 394.1C58.7002 393 58.3002 391.6 58.5002 390.3L58.8002 387C58.9002 385.6 59.6002 384.4 60.7002 383.5C61.8002 382.6 63.2002 382.2 64.5002 382.4L71.4002 383.1C74.3002 383.4 76.4002 386 76.1002 388.9L75.8002 392.2C75.5002 394.7 73.2002 396.7 70.5002 396.7ZM64.0002 384.2C63.3002 384.2 62.5002 384.5 62.0002 384.9C61.3002 385.4 60.9002 386.2 60.8002 387.1L60.5002 390.4C60.4002 391.3 60.7002 392.1 61.2002 392.8C61.7002 393.5 62.5002 393.9 63.4002 394L70.3002 394.7C71.2002 394.8 72.0002 394.5 72.7002 394C73.4002 393.5 73.8002 392.7 73.9002 391.8L74.2002 388.5C74.4002 386.7 73.1002 385.1 71.3002 384.9L64.4002 384.2C64.2002 384.2 64.1002 384.2 64.0002 384.2Z" fill="#2B478B"/>
<path d="M443.4 435.9C446.7 432.9 447.6 428.1 447.1 422.9C446.6 417.8 442.4 418.9 442.1 409.6C441.8 400.3 442.6 395.1 438.6 390.1C434.6 385.1 430.7 380.9 423.9 381C417.1 381.1 407.4 386.4 406.7 393.4C405.9 400.4 406.1 408.7 401.6 413.3C397.1 417.9 392.9 422.5 392.9 429.7C392.9 436.9 393.7 440.2 398.4 445.5C403.1 450.9 443.4 435.9 443.4 435.9Z" fill="#233862"/>
<path d="M417.2 410.2L415.2 420.8C414.8 423 415.5 425.2 417.2 426.8C419.6 429 423.4 431 426.4 431.1C431.3 431.2 430.6 429.2 430.1 426.7C429.6 424.2 430.4 416.4 430.4 416.4L417.2 410.2Z" fill="#FFB27D"/>
<path d="M417.5 411.5C417.5 411.5 420.6 421.5 424.1 422C427.6 422.4 428.4 417.5 428.4 417.5L417.5 411.5Z" fill="#ED975D"/>
<path d="M434.1 393.9C431.5 393.7 431.2 398.7 427.1 401.4C423 404.1 417.5 402.9 416.9 404.9C416.3 406.9 415.4 409 416.9 411.5C418.4 414 423.1 418.5 429.1 418.5C435.1 418.5 437.3 410.8 437.6 405.4C437.8 400.2 436.8 394.2 434.1 393.9Z" fill="#FFB27D"/>
<path d="M415.1 422.9C415.1 422.9 413.3 423.8 407.2 424.2C401.1 424.6 396.6 427.2 396.7 435.4C396.8 443.7 398.1 458.9 400.1 467.3C402.1 475.7 400.7 482.7 398 488.8C395.3 494.9 392.1 500.4 392.4 508.3C392.7 516.2 418.4 493.6 418.4 493.6L467.5 450.5L494 440.4H456.2C456.2 440.4 445.5 433.4 441.9 430.9C438.3 428.5 430.2 426.5 430.2 426.5L415.1 422.9Z" fill="#F99746"/>
<path d="M480.2 413.9L471.6 440.5H500.7L511.1 413.9H480.2Z" fill="#F78248"/>
<path d="M503.4 423.5L500.6 427.2V429L503.8 434.4L507.3 427.2L503.4 423.5Z" fill="#FFB27D"/>
<path d="M416.1 526.7C416.1 526.7 419.2 530.1 428.4 530.1C437.6 530.1 443.3 518.1 444.7 501.2C446.1 484.3 460.8 500.4 460.8 500.4L467.6 511.9L476.6 520L486 513.5C486 513.5 477.4 497 473.9 482.9C470.4 468.8 468.6 457.5 468.1 450.8C467.6 444.2 457.4 443 452 448C446.7 453 419 472.6 419 472.6L410.5 511.2L416.1 526.7Z" fill="#94B0ED"/>
<path d="M477.8 518.6L476.6 522.6V529.3H498.4V526.6L484.9 517L481.1 519.9L477.8 518.6Z" fill="#0D2644"/>
<path d="M460.5 518.6L459.4 522.6V529.3H481.2V526.6L467.6 517L463.8 519.9L460.5 518.6Z" fill="#0D2644"/>
<path d="M104.9 271.7C102.2 271.4 101 265 101.2 258.9C101.3 252.8 106 248.3 111.7 248.2C117.4 248.1 125.9 246.9 128.3 251.8C130.8 256.7 129.2 263.3 125.3 263.4C121.4 263.5 122.6 261.3 117.8 261.3C113 261.3 111.3 266 109.3 266.1C107.3 266.2 107.3 263 105.8 264.1C103 266.2 106.4 267.7 106.6 269.1C106.7 270.5 104.9 271.7 104.9 271.7Z" fill="#2B478B"/>
<path d="M176.4 313.1L186.9 299.5L193.5 305.5L183.2 318.9L176.4 313.1Z" fill="#2B478B"/>
<path d="M66.8002 376L67.3002 382.6L64.7002 385.3L66.0002 387.3H68.4002L71.6002 385.8L73.5002 382.7L74.0002 376H66.8002Z" fill="#FFB27D"/>
<path d="M403.8 443.8L431.1 449.8L427.5 458.9L405.2 446.7L403.8 443.8Z" fill="#ED7D2B"/>
<path d="M434.3 446.7C431.4 448.1 419 463.2 409.4 477C399.9 490.8 392.8 500 392.3 511.8C391.8 523.6 400.2 530 408.3 530C416.4 530 422.4 528.5 424.3 519.5C426.2 510.6 433.7 488.3 433.7 488.3C433.7 488.3 442.1 501.7 448.3 508.6C454.5 515.5 459.7 519.4 459.7 519.4L467.7 511.8C467.7 511.8 458 488.3 456.2 476.1C454.4 463.9 454.3 442 454.3 442L440.8 442.6L434.3 446.7Z" fill="#AEC3FF"/>
<path d="M421.4 434.1C421.4 434.1 420.5 437.2 418.4 439.8C416.2 442.4 409.5 444.8 409.5 444.8C409.5 444.8 431.4 451 441 450.9C450.6 450.8 464.5 441.9 464.5 441.9L477 434.1H487.8L493 430.5L494.6 427H493.1L491.6 429.4L489.6 430.3L491.5 428.8L491.4 427.3L483 427.5L484.7 425.1L484.2 423.5L481.8 425.1L477.6 427.7L475.4 429.7C475.4 429.7 448.7 441.1 441.9 440.9C435.1 440.7 421.4 434.1 421.4 434.1Z" fill="#FFB27D"/>
<defs>
<linearGradient id="paint0_linear_526_426" x1="133.3" y1="438.52" x2="496.216" y2="173.896" gradientUnits="userSpaceOnUse">
<stop stop-color="white" stop-opacity="0.1"/>
<stop offset="1" stop-color="white" stop-opacity="0.5"/>
</linearGradient>
<linearGradient id="paint1_linear_526_426" x1="141.739" y1="156.489" x2="435.538" y2="434.638" gradientUnits="userSpaceOnUse">
<stop stop-color="white" stop-opacity="0.5"/>
<stop offset="1" stop-color="white" stop-opacity="0.2"/>
</linearGradient>
<linearGradient id="paint2_linear_526_426" x1="404.434" y1="303.398" x2="243.131" y2="514.004" gradientUnits="userSpaceOnUse">
<stop stop-color="white" stop-opacity="0.1"/>
<stop offset="1" stop-color="white" stop-opacity="0.5"/>
</linearGradient>
<linearGradient id="paint3_linear_526_426" x1="75.6633" y1="421.063" x2="564.72" y2="167.753" gradientUnits="userSpaceOnUse">
<stop stop-color="white" stop-opacity="0.7"/>
<stop offset="1" stop-color="white"/>
</linearGradient>
</defs>
</svg>
