<svg width="621" height="599" viewBox="0 0 621 599" fill="none" xmlns="http://www.w3.org/2000/svg">
<path d="M307.5 543C245.4 543 187 518.9 143.1 475.2C99.2 431.5 75 373.3 75 311.5C75 249.6 99.2 191.5 143.1 147.8C187 104.1 245.4 80 307.5 80C369.6 80 428 104.1 471.9 147.8C515.8 191.5 540 249.7 540 311.5C540 373.3 515.8 431.5 471.9 475.2C428 518.9 369.6 543 307.5 543ZM307.5 112C196.9 112 107 201.5 107 311.5C107 421.5 196.9 511 307.5 511C418.1 511 508 421.5 508 311.5C508 201.5 418.1 112 307.5 112Z" fill="url(#paint0_linear_786_2948)"/>
<path d="M306 472C394.366 472 466 400.366 466 312C466 223.634 394.366 152 306 152C217.634 152 146 223.634 146 312C146 400.366 217.634 472 306 472Z" fill="url(#paint1_linear_786_2948)"/>
<path d="M327 517C221.6 517 139 467.6 139 404.5C139 341.4 221.6 292 327 292C432.4 292 515 341.4 515 404.5C515 467.6 432.4 517 327 517ZM327 328C284.6 328 245 337 215.5 353.4C189.7 367.7 175 386.3 175 404.5C175 422.6 189.8 441.3 215.5 455.6C245 472 284.6 481 327 481C369.4 481 409 472 438.5 455.6C464.3 441.3 479 422.7 479 404.5C479 386.4 464.2 367.7 438.5 353.4C409 337 369.4 328 327 328Z" fill="url(#paint2_linear_786_2948)"/>
<path d="M320.1 560.4C317.9 560.4 316.1 558.7 316.1 556.5C316.1 554.3 317.8 552.5 320 552.4C325.6 552.3 331.2 552 336.7 551.6C338.9 551.4 340.8 553.1 341 555.3C341.2 557.5 339.5 559.4 337.3 559.6C331.6 560 325.8 560.3 320.1 560.4ZM301.1 560.1C301 560.1 301 560.1 300.9 560.1C295.2 559.8 289.4 559.3 283.7 558.7C281.5 558.5 279.9 556.5 280.2 554.3C280.4 552.1 282.4 550.5 284.6 550.8C290.1 551.4 295.8 551.9 301.3 552.2C303.5 552.3 305.2 554.2 305.1 556.4C305 558.4 303.2 560.1 301.1 560.1ZM355.9 557.5C353.9 557.5 352.2 556.1 351.9 554.1C351.6 551.9 353.1 549.9 355.3 549.6C360.8 548.8 366.3 547.8 371.8 546.7C374 546.2 376.1 547.6 376.5 549.8C376.9 552 375.6 554.1 373.4 554.5C367.8 555.7 362.1 556.7 356.4 557.5C356.3 557.5 356.1 557.5 355.9 557.5ZM265.3 556C265.1 556 264.8 556 264.6 555.9C259 554.9 253.3 553.7 247.7 552.4C245.6 551.9 244.2 549.7 244.7 547.6C245.2 545.5 247.4 544.1 249.5 544.6C254.9 545.9 260.4 547 265.9 548C268.1 548.4 269.5 550.5 269.1 552.6C268.9 554.6 267.2 556 265.3 556ZM391.1 550C389.4 550 387.8 548.8 387.3 547.1C386.7 545 387.9 542.8 390.1 542.2C395.4 540.7 400.8 539 406 537.2C408.1 536.5 410.4 537.6 411.1 539.7C411.8 541.8 410.7 544.1 408.6 544.8C403.2 546.7 397.7 548.4 392.2 550C391.8 550 391.4 550 391.1 550ZM230.4 547.5C230 547.5 229.6 547.4 229.2 547.3C223.7 545.6 218.3 543.7 212.9 541.7C210.8 540.9 209.8 538.6 210.6 536.5C211.4 534.4 213.7 533.4 215.8 534.2C221 536.2 226.3 538 231.6 539.7C233.7 540.4 234.9 542.6 234.2 544.7C233.7 546.4 232.1 547.5 230.4 547.5ZM424.9 538C423.4 538 421.9 537.1 421.2 535.6C420.3 533.6 421.3 531.2 423.3 530.3C428.4 528.1 433.5 525.7 438.4 523.2C440.4 522.2 442.8 523 443.8 525C444.8 527 444 529.4 442 530.4C436.9 533 431.7 535.4 426.4 537.7C426 537.9 425.5 538 424.9 538ZM196.8 534.6C196.2 534.6 195.7 534.5 195.1 534.2C189.9 531.8 184.7 529.2 179.7 526.5C177.8 525.5 177 523 178.1 521.1C179.1 519.2 181.6 518.4 183.5 519.5C188.4 522.1 193.5 524.6 198.5 526.9C200.5 527.8 201.4 530.2 200.5 532.2C199.8 533.7 198.3 534.6 196.8 534.6ZM456.9 521.6C455.5 521.6 454.2 520.9 453.5 519.7C452.4 517.8 453 515.3 454.9 514.2C459.7 511.3 464.4 508.3 469 505.1C470.8 503.8 473.3 504.3 474.6 506.1C475.9 507.9 475.4 510.4 473.6 511.7C468.9 514.9 464 518.1 459.1 521C458.3 521.4 457.6 521.6 456.9 521.6ZM165.1 517.5C164.4 517.5 163.6 517.3 163 516.9C158.1 513.9 153.3 510.6 148.7 507.3C146.9 506 146.5 503.5 147.8 501.7C149.1 499.9 151.6 499.5 153.4 500.8C157.9 504 162.6 507.2 167.3 510.1C169.2 511.3 169.7 513.7 168.6 515.6C167.8 516.9 166.5 517.5 165.1 517.5ZM486.4 501C485.2 501 484.1 500.5 483.3 499.5C481.9 497.8 482.2 495.3 483.9 493.9C488.2 490.4 492.5 486.7 496.6 483C498.2 481.5 500.8 481.6 502.3 483.2C503.8 484.8 503.7 487.4 502.1 488.9C497.9 492.8 493.5 496.5 489 500.1C488.2 500.8 487.3 501 486.4 501ZM135.9 496.4C135 496.4 134.1 496.1 133.4 495.5C129 491.8 124.6 488 120.4 484.1C118.8 482.6 118.7 480.1 120.2 478.4C121.7 476.8 124.2 476.7 125.9 478.2C130 482 134.2 485.7 138.5 489.3C140.2 490.7 140.4 493.2 139 494.9C138.2 495.9 137.1 496.4 135.9 496.4ZM512.8 476.6C511.8 476.6 510.8 476.2 510.1 475.5C508.5 474 508.4 471.5 509.9 469.8C513.7 465.7 517.4 461.5 520.9 457.2C522.3 455.5 524.8 455.2 526.5 456.6C528.2 458 528.5 460.5 527.1 462.2C523.5 466.6 519.6 471 515.7 475.2C515 476.2 513.9 476.6 512.8 476.6ZM109.8 471.7C108.7 471.7 107.7 471.3 106.9 470.4C103 466.2 99.1998 461.8 95.5998 457.4C94.1998 455.7 94.4998 453.2 96.1998 451.8C97.8998 450.4 100.4 450.7 101.8 452.4C105.3 456.7 109 461 112.8 465C114.3 466.6 114.2 469.2 112.6 470.7C111.7 471.4 110.8 471.7 109.8 471.7ZM535.5 448.7C534.7 448.7 533.9 448.5 533.2 448C531.4 446.7 531 444.2 532.2 442.4C535.4 437.8 538.5 433.1 541.3 428.4C542.4 426.5 544.9 425.9 546.8 427C548.7 428.1 549.3 430.6 548.2 432.5C545.2 437.4 542.1 442.3 538.8 447C538 448.1 536.8 448.7 535.5 448.7ZM87.1998 443.7C85.8998 443.7 84.6998 443.1 83.8998 442C80.5998 437.3 77.3998 432.4 74.3998 427.6C73.1998 425.7 73.7998 423.3 75.6998 422.1C77.5998 420.9 79.9998 421.5 81.1998 423.4C84.0998 428.1 87.1998 432.8 90.3998 437.4C91.6998 439.2 91.1998 441.7 89.3998 443C88.7998 443.5 87.9998 443.7 87.1998 443.7ZM554 417.9C553.4 417.9 552.8 417.8 552.2 417.5C550.2 416.5 549.4 414.1 550.4 412.1C552.9 407.1 555.2 402 557.4 396.9C558.3 394.9 560.6 393.9 562.6 394.8C564.6 395.7 565.6 398 564.7 400C562.5 405.3 560.1 410.6 557.5 415.7C556.9 417.1 555.5 417.9 554 417.9ZM68.5998 412.9C67.0998 412.9 65.6998 412.1 64.9998 410.7C62.3998 405.6 59.8998 400.3 57.5998 395.1C56.6998 393.1 57.6998 390.7 59.6998 389.8C61.6998 388.9 64.0998 389.9 64.9998 391.9C67.1998 397 69.5998 402.1 72.0998 407C73.0998 409 72.2998 411.4 70.3998 412.4C69.7998 412.8 69.1998 412.9 68.5998 412.9ZM567.7 384.6C567.3 384.6 566.9 384.5 566.4 384.4C564.3 383.7 563.2 381.4 563.9 379.4C565.6 374.1 567.2 368.7 568.6 363.4C569.1 361.3 571.3 360 573.5 360.5C575.6 361 576.9 363.2 576.4 365.4C575 371 573.4 376.5 571.6 382C571 383.5 569.4 384.6 567.7 384.6ZM54.3998 379.9C52.6998 379.9 51.1998 378.9 50.5998 377.2C48.6998 371.8 46.9998 366.2 45.4998 360.7C44.8998 358.6 46.1998 356.4 48.2998 355.8C50.3998 355.2 52.5998 356.5 53.1998 358.6C54.6998 363.9 56.2998 369.3 58.0998 374.6C58.7998 376.7 57.6998 379 55.5998 379.7C55.2998 379.8 54.8998 379.9 54.3998 379.9ZM576.5 349.7C576.3 349.7 576 349.7 575.8 349.6C573.6 349.2 572.2 347.2 572.5 345C573.5 339.5 574.2 334 574.8 328.4C575 326.2 577 324.6 579.2 324.8C581.4 325 583 327 582.8 329.2C582.2 334.9 581.4 340.7 580.4 346.3C580.1 348.4 578.4 349.7 576.5 349.7ZM45.0998 345.1C43.1998 345.1 41.4998 343.8 41.1998 341.8C40.0998 336.2 39.1998 330.4 38.5998 324.8C38.2998 322.6 39.8998 320.6 42.0998 320.4C44.2998 320.1 46.2998 321.7 46.4998 323.9C47.1998 329.4 47.9998 334.9 49.0998 340.4C49.4998 342.6 48.0998 344.7 45.8998 345.1C45.5998 345.1 45.3998 345.1 45.0998 345.1ZM580 313.9C577.7 313.8 575.9 312 576 309.8C576.1 307.8 576.1 305.7 576.1 303.6C576.1 300.1 576 296.5 575.9 293C575.8 290.8 577.5 288.9 579.7 288.8C581.9 288.7 583.8 290.4 583.9 292.6C584.1 296.2 584.1 299.9 584.1 303.5C584.1 305.6 584.1 307.8 584 309.9C583.9 312.2 582.2 313.9 580 313.9ZM40.9998 309.4C38.8998 309.4 37.0998 307.7 36.9998 305.6C36.8998 302.2 36.7998 298.7 36.7998 295.3C36.7998 293 36.7998 290.7 36.8998 288.4C36.9998 286.2 38.7998 284.5 40.9998 284.5C43.1998 284.6 44.8998 286.4 44.8998 288.6C44.7998 290.8 44.7998 293.1 44.7998 295.3C44.7998 298.6 44.8998 302 44.9998 305.3C45.0998 307.5 43.3998 309.4 41.1998 309.5C41.0998 309.4 41.0998 309.4 40.9998 309.4ZM578.3 278C576.3 278 574.6 276.5 574.3 274.5C573.6 269 572.8 263.4 571.7 258C571.3 255.8 572.7 253.7 574.9 253.3C577.1 252.9 579.2 254.3 579.6 256.5C580.7 262.1 581.6 267.9 582.3 273.5C582.6 275.7 581 277.7 578.8 278C578.6 278 578.4 278 578.3 278ZM42.1998 273.5C42.0998 273.5 41.8998 273.5 41.7998 273.5C39.5998 273.3 37.9998 271.3 38.1998 269.1C38.7998 263.4 39.5998 257.7 40.5998 252C40.9998 249.8 43.0998 248.4 45.1998 248.8C47.3998 249.2 48.7998 251.3 48.3998 253.4C47.3998 258.9 46.5998 264.5 46.0998 270C45.8998 272 44.1998 273.5 42.1998 273.5ZM571.3 242.8C569.5 242.8 567.9 241.6 567.4 239.9C565.9 234.6 564.3 229.2 562.4 223.9C561.7 221.8 562.8 219.5 564.9 218.8C567 218.1 569.3 219.2 570 221.3C571.9 226.7 573.6 232.3 575.1 237.8C575.7 239.9 574.4 242.1 572.3 242.7C572 242.7 571.7 242.8 571.3 242.8ZM48.4998 238.1C48.1998 238.1 47.7998 238.1 47.4998 238C45.3998 237.5 44.0998 235.3 44.5998 233.1C45.9998 227.5 47.6998 222 49.4998 216.5C50.1998 214.4 52.4998 213.3 54.5998 214C56.6998 214.7 57.7998 217 57.0998 219.1C55.3998 224.4 53.7998 229.8 52.3998 235.1C51.8998 236.9 50.2998 238.1 48.4998 238.1ZM559.4 208.9C557.9 208.9 556.4 208 555.7 206.5C553.5 201.4 551.1 196.3 548.5 191.4C547.5 189.4 548.3 187 550.2 186C552.2 185 554.6 185.8 555.6 187.7C558.2 192.8 560.7 198 563 203.3C563.9 205.3 563 207.7 560.9 208.6C560.4 208.8 559.9 208.9 559.4 208.9ZM59.9998 204C59.4998 204 58.9998 203.9 58.4998 203.7C56.4998 202.8 55.4998 200.5 56.3998 198.5C58.5998 193.2 61.0998 187.9 63.6998 182.8C64.6998 180.8 67.0998 180 69.0998 181C71.0998 182 71.8998 184.4 70.8998 186.4C68.3998 191.4 65.9998 196.5 63.8998 201.6C62.9998 203.1 61.5998 204 59.9998 204ZM542.7 177C541.4 177 540 176.3 539.3 175.1C536.4 170.4 533.3 165.7 530.1 161.1C528.8 159.3 529.3 156.8 531.1 155.5C532.9 154.2 535.4 154.7 536.7 156.5C540 161.2 543.2 166 546.2 170.9C547.4 172.8 546.8 175.2 544.9 176.4C544.2 176.8 543.4 177 542.7 177ZM76.3998 172C75.6998 172 74.9998 171.8 74.2998 171.4C72.3998 170.3 71.7998 167.8 72.9998 165.9C75.9998 161 79.1998 156.1 82.4998 151.4C83.7998 149.6 86.2998 149.2 88.0998 150.4C89.8998 151.7 90.2998 154.2 89.0998 156C85.8998 160.5 82.7998 165.3 79.8998 170C78.9998 171.3 77.6998 172 76.3998 172ZM521.9 147.6C520.7 147.6 519.6 147.1 518.8 146.1C515.3 141.8 511.6 137.6 507.8 133.5C506.3 131.9 506.4 129.4 508 127.8C509.6 126.2 512.1 126.4 513.7 128C517.6 132.2 521.4 136.6 525.1 141C526.5 142.7 526.2 145.2 524.5 146.6C523.7 147.3 522.8 147.6 521.9 147.6ZM97.1998 142.7C96.2998 142.7 95.3998 142.4 94.6998 141.8C92.9998 140.4 92.7998 137.9 94.1998 136.2C97.7998 131.8 101.7 127.4 105.6 123.3C107.1 121.7 109.6 121.6 111.3 123.1C112.9 124.6 113 127.1 111.5 128.8C107.7 132.8 104 137.1 100.4 141.3C99.4998 142.2 98.2998 142.7 97.1998 142.7ZM497.3 121.4C496.3 121.4 495.3 121 494.6 120.3C490.5 116.5 486.3 112.8 482 109.2C480.3 107.8 480.1 105.3 481.5 103.6C482.9 101.9 485.4 101.7 487.1 103.1C491.5 106.7 495.9 110.6 500.1 114.5C501.7 116 501.8 118.5 500.3 120.2C499.4 121 498.3 121.4 497.3 121.4ZM122 116.6C120.9 116.6 119.8 116.2 119 115.3C117.5 113.7 117.6 111.1 119.3 109.6C123.5 105.7 127.9 102 132.4 98.4001C134.1 97.0001 136.6 97.3001 138 99.0001C139.4 100.7 139.1 103.2 137.4 104.6C133.1 108.1 128.8 111.7 124.7 115.5C123.9 116.3 123 116.6 122 116.6ZM469.4 98.6001C468.6 98.6001 467.8 98.4001 467.1 97.9001C462.6 94.7001 457.9 91.5001 453.2 88.6001C451.3 87.4001 450.8 85.0001 451.9 83.1001C453.1 81.2001 455.5 80.7001 457.4 81.8001C462.3 84.8001 467.1 88.1001 471.8 91.4001C473.6 92.7001 474 95.2001 472.7 97.0001C471.9 98.0001 470.6 98.6001 469.4 98.6001ZM150.2 94.3001C148.9 94.3001 147.7 93.7001 146.9 92.6001C145.6 90.8001 146.1 88.3001 147.9 87.0001C152.6 83.8001 157.5 80.6001 162.4 77.7001C164.3 76.6001 166.8 77.2001 167.9 79.1001C169 81.0001 168.4 83.5001 166.5 84.6001C161.7 87.5001 157 90.5001 152.4 93.6001C151.7 94.0001 150.9 94.3001 150.2 94.3001ZM438.8 79.7001C438.2 79.7001 437.5 79.5001 436.9 79.2001C432 76.6001 426.9 74.1001 421.9 71.8001C419.9 70.9001 419 68.5001 419.9 66.5001C420.8 64.5001 423.2 63.6001 425.2 64.5001C430.4 66.9001 435.6 69.4001 440.7 72.1001C442.6 73.1001 443.4 75.6001 442.4 77.5001C441.6 78.9001 440.2 79.7001 438.8 79.7001ZM181.1 75.9001C179.6 75.9001 178.2 75.1001 177.5 73.7001C176.5 71.7001 177.3 69.3001 179.3 68.3001C184.4 65.7001 189.7 63.3001 194.9 61.0001C196.9 60.1001 199.3 61.1001 200.2 63.1001C201.1 65.1001 200.1 67.5001 198.1 68.4001C193 70.6001 187.9 73.0001 182.9 75.5001C182.3 75.8001 181.7 75.9001 181.1 75.9001ZM406 64.8001C405.5 64.8001 405.1 64.7001 404.6 64.5001C399.4 62.5001 394.1 60.7001 388.8 59.1001C386.7 58.4001 385.5 56.2001 386.2 54.1001C386.9 52.0001 389.1 50.8001 391.2 51.5001C396.7 53.2001 402.2 55.1001 407.5 57.1001C409.6 57.9001 410.6 60.2001 409.8 62.3001C409.2 63.9001 407.6 64.8001 406 64.8001ZM214.2 61.9001C212.5 61.9001 211 60.9001 210.4 59.2001C209.7 57.1001 210.8 54.8001 212.9 54.1001C218.3 52.2001 223.8 50.5001 229.3 48.9001C231.4 48.3001 233.6 49.5001 234.2 51.7001C234.8 53.8001 233.6 56.0001 231.4 56.6001C226.1 58.1001 220.7 59.8001 215.4 61.6001C215.1 61.8001 214.6 61.9001 214.2 61.9001ZM371.6 54.3001C371.3 54.3001 371 54.3001 370.7 54.2001C365.3 52.9001 359.8 51.8001 354.3 50.8001C352.1 50.4001 350.7 48.3001 351.1 46.2001C351.5 44.0001 353.6 42.6001 355.7 43.0001C361.3 44.0001 367 45.2001 372.6 46.5001C374.7 47.0001 376.1 49.2001 375.6 51.3001C375.1 53.1001 373.4 54.3001 371.6 54.3001ZM248.8 52.3001C246.9 52.3001 245.3 51.0001 244.9 49.1001C244.5 46.9001 245.8 44.8001 248 44.4001C253.6 43.2001 259.3 42.2001 265 41.4001C267.2 41.1001 269.2 42.6001 269.5 44.8001C269.8 47.0001 268.3 49.0001 266.1 49.3001C260.6 50.1001 255 51.1001 249.6 52.2001C249.3 52.3001 249.1 52.3001 248.8 52.3001ZM337.3 48.3001C337.1 48.3001 337 48.3001 336.8 48.3001C331.3 47.7001 325.6 47.2001 320.1 46.9001C317.9 46.8001 316.2 44.9001 316.3 42.7001C316.4 40.5001 318.3 38.8001 320.5 38.9001C326.2 39.2001 332 39.7001 337.7 40.3001C339.9 40.5001 341.5 42.5001 341.2 44.7001C341.1 46.8001 339.3 48.3001 337.3 48.3001ZM284.4 47.3001C282.3 47.3001 280.6 45.7001 280.4 43.6001C280.2 41.4001 281.9 39.5001 284.1 39.3001C289.8 38.9001 295.6 38.6001 301.3 38.5001C303.5 38.4001 305.3 40.2001 305.4 42.4001C305.4 44.6001 303.7 46.4001 301.5 46.5001C295.9 46.6001 290.3 46.8001 284.8 47.2001C284.6 47.3001 284.5 47.3001 284.4 47.3001Z" fill="url(#paint3_linear_786_2948)"/>
<path d="M172.4 383.899C172.4 383.899 173.2 410.199 174.3 417.299C175.4 424.499 177.3 426.899 179.4 433.499C181.6 440.099 187.2 462.199 187.2 462.199L174.7 469.699C174.7 469.699 159.9 439.899 156.3 429.399C152.7 418.899 145.1 398.399 145.1 398.399C145.1 398.399 133.1 419.299 131.6 421.599C130.1 423.899 135 432.199 137.8 437.699C140.6 443.199 145.2 450.499 145.2 450.499L134.7 461.599C134.7 461.599 111.2 434.499 109.3 429.999C107.4 425.499 109.9 419.099 110.7 414.299C111.5 409.499 120.4 376.199 120.4 376.199L172.4 383.899Z" fill="#35488B"/>
<path d="M145.3 398.5L141 382.6H137.8L137.3 412.3L145.3 398.5Z" fill="#2C3A64"/>
<path d="M144.7 451.199L149.2 454.099L136.8 472.099L134.5 469.699L135.8 460.599L144.7 451.199Z" fill="#2C3A64"/>
<path d="M186.3 462.801L190.8 467.801L177.2 482.901L174.9 479.601L178.7 467.401L186.3 462.801Z" fill="#2C3A64"/>
<path d="M177.3 308.1C177.3 308.1 191 295.4 193.5 292.2C196 289 203.4 272.4 204.5 269.2C205.5 266 205.4 263.3 205.6 261.3C205.8 259.3 206.7 258.3 207.5 258.3C208.3 258.3 207.4 261.3 208.5 261.3C209.6 261.3 211.9 259.1 212.4 257.5C212.9 255.9 215.3 253.7 215.1 256.8C214.9 259.9 213.2 265.9 210.7 269.3C208.3 272.7 206.1 288.3 203 295.8C199.9 303.3 185.9 321.3 185.9 321.3L177.3 308.1Z" fill="#FFB27D"/>
<path d="M126.2 304.501C126.2 304.501 119.4 296.601 117.8 295.001C116.2 293.401 115.2 293.301 114.8 288.201C114.4 283.101 112.2 274.401 112.6 270.401C113 266.401 114.1 264.701 114.1 262.501C114.1 260.301 113.4 259.401 112.5 260.201C111.6 261.001 110.2 260.901 109.9 258.901C109.6 256.901 109.3 255.001 108 255.801C106.7 256.601 103.9 260.801 105.4 265.901C106.9 270.901 107.3 270.601 107.3 275.201C107.3 279.801 106.6 295.201 106.9 298.501C107.3 301.801 108.4 302.701 110 304.201C111.5 305.801 117.1 313.001 118.9 314.801C120.9 316.501 126.2 304.501 126.2 304.501Z" fill="#FFB27D"/>
<path d="M142.5 311.1C142.5 311.1 138.3 311.5 135.7 310.3C133.2 309.1 129.1 305.7 127.7 304.5C126.3 303.3 124.2 303.7 123 305.3C121.8 307 119.4 311.5 118.6 313.2C117.8 314.9 117.6 317.5 119.2 318.4C120.8 319.3 125.8 321.3 125.8 324.7C125.8 328.1 119 369.1 118 374.6C117 380.1 121.3 380.8 124.5 382.3C127.7 383.8 148.3 387.2 159 387.4C169.6 387.6 173.5 386.6 173.3 383.4C173.1 380.2 169.8 362.8 171 353.6C172.2 344.4 174.2 332.5 178.7 328.5C183.2 324.5 184.4 323.4 185.9 322.1C187.4 320.8 187.8 317.7 186.3 315.4C184.7 313.1 182.2 310.1 180.7 308.4C179.2 306.8 176.8 306.7 174.9 308.1C173 309.5 169.8 313.1 166.4 313.1C163.1 313.1 157.1 310.5 157.1 310.5L142.5 311.1Z" fill="#F99746"/>
<path d="M143.2 303.201C143.2 303.201 142.6 308.001 142 310.701C141.4 313.501 142.2 315.501 148.2 315.501C154.2 315.501 157.9 313.601 156.9 310.001C155.9 306.501 155.7 298.801 155.7 298.801L143.2 303.201Z" fill="#FFB27D"/>
<path d="M155.8 300.1C155.8 300.1 151.7 307.2 147.8 307.7C143.9 308.2 143.3 303.2 143.3 303.2L155.8 300.1Z" fill="#EA9C68"/>
<path d="M260.1 273.101L275.7 467.001C275.7 467.001 280.6 469.701 284.5 469.801C288.4 469.901 292.3 469.801 292.3 469.801C292.3 469.801 301.7 441.801 304.6 408.601C307.5 375.401 310.5 321.201 310.5 321.201L302 269.301L260.1 273.101Z" fill="#2B478B"/>
<path d="M264.8 331.799L260.1 273.099L301.9 269.199L310.4 321.099C310.4 321.099 308 363.699 305.5 396.499L264.8 331.799Z" fill="#233862"/>
<path d="M138.8 275.7C138.8 275.7 134.1 282.1 134.1 290.3C134.1 298.5 137.4 304.1 143.6 304.1C149.8 304.1 159.3 298.3 159.3 298.3L166.6 283.8L157.9 274L138.8 275.7Z" fill="#FFB27D"/>
<path d="M328.2 274.1C328.2 274.1 334.1 292.4 337.2 316.6C340.3 340.8 339.9 360.3 343.1 369.5C346.4 378.7 351.5 390.2 352.5 405C353.5 419.8 352.5 466.9 352.5 466.9H338.3C338.3 466.9 317.2 393.1 311.4 377.1C305.6 361.1 271.9 276.2 271.9 276.2L328.2 274.1Z" fill="#2B478B"/>
<path d="M157.9 298.9C157.9 298.9 172.6 294.3 172.6 279.4C172.6 262.5 157.3 262.5 149.8 262.5C142.3 262.5 135.7 269 135.7 273.2C135.7 277.4 139.7 277.9 142.9 277.1C146.1 276.3 154.7 275.5 155.4 278.8C156.1 282.1 156.1 285.1 158.1 285.2C160 285.3 162.2 284.8 162.2 287.6C162.2 290.4 158.3 295.3 157.8 297C157.3 298.7 157.9 298.9 157.9 298.9Z" fill="#2C3A64"/>
<path d="M307.5 153C307.5 153 307.4 153.7 317.6 155.7C327.8 157.7 337.4 168.7 342.2 179C347 189.3 355.4 216.2 356.4 224.2C357.3 232.2 357.1 236.4 353 238.6C348.9 240.8 330.8 247 330.8 247C330.8 247 332.3 268 331.7 273.5C331.1 278.9 315.4 282.6 302.1 282.6C288.8 282.6 267.3 278.9 261.1 275.6C254.8 272.3 256.8 263.8 257.1 255.1C257.4 246.4 249.5 243.1 243.9 238.6C238.3 234.1 238.8 224.7 241.1 217.1C243.4 209.5 254.8 180.2 257.6 174.4C260.4 168.7 264.2 162.8 269.7 160.7C275.2 158.5 284.7 156.3 284.7 156.3L307.5 153ZM330.3 216.9V225.8L335.2 222.1L330.3 216.9Z" fill="#F9DDBF"/>
<path d="M138.2 294.9H146L142.1 299.5V297H138.1L138.2 294.9Z" fill="#FFE5D4"/>
<path d="M284.5 141.8C284.5 141.8 284.5 152.6 284.5 155.3C284.5 158 287.1 159 292.1 159C297.1 159 307.5 157.2 307.5 153.1C307.5 149 305.3 143.5 305.6 137.6C305.8 131.7 284.5 141.8 284.5 141.8Z" fill="#FFB27D"/>
<path d="M305.2 139C305.2 139 296.7 149.1 290.9 149.9C285.1 150.7 284.5 141.8 284.5 141.8L305.2 139Z" fill="#EA9C68"/>
<path d="M283.2 111.5C283.2 111.5 279.7 119.7 279 125.6C278.3 131.5 277.2 143.1 285.5 143.1C293.8 143.1 303 143.2 306 137.8C309.1 132.4 309.6 114.6 309.6 114.6L295 108.1L283.2 111.5Z" fill="#FFB27D"/>
<path d="M303.6 138.9C306.7 139.5 308.4 137.4 313 131.8C317.6 126.3 321.3 124.1 321.3 116.1C321.3 108.1 314.2 97.0996 302.1 97.0996C290 97.0996 277 102.6 277 107.7C277 112.8 282 113 285.9 113C289.8 113 295.7 113.1 295.7 117.7C295.7 122.3 295.7 126.4 298.3 126.4C300.9 126.4 300.6 124.5 303.3 124.5C306 124.5 305.7 129.2 303.1 132.4C300.4 135.6 303.6 138.9 303.6 138.9Z" fill="#163560"/>
<path d="M288.9 135.9L282.4 131.5L281.4 135L288.9 135.9Z" fill="#FFE5D4"/>
<path d="M330.3 225.801V221.301L298.1 238.901L330.3 225.801Z" fill="#F2CCAA"/>
<path d="M330.8 247L331.6 260.6C331.6 260.6 315 258.4 308 255.8C301 253.2 298.1 251.2 298.1 251.2C298.1 251.2 310.5 251.2 317.8 250C325.1 248.8 330.8 247 330.8 247Z" fill="#F2CCAA"/>
<path d="M260 176.199C260 176.199 256.9 183.399 257 189.499C257.1 195.699 258.2 200.499 261 202.099C263.8 203.699 265.1 203.799 265.1 203.799V207.199C265.1 207.199 261.4 207.999 256.3 204.999C251.2 201.999 245.3 197.999 241.4 192.899C237.5 187.799 234.5 187.999 233.2 189.199C231.9 190.399 233.1 193.399 235.4 196.099C237.7 198.899 241.3 206.899 245.3 210.999C249.3 215.099 253.7 217.699 254.1 220.099C254.5 222.599 254.1 237.099 254.1 237.099C254.1 237.099 245.6 238.399 242.9 239.399C240.2 240.399 237.9 240.499 237.9 240.499L250.4 256.399C250.4 256.399 269.2 255.899 275 254.899C280.8 253.899 289.6 253.099 290.2 245.899C290.8 238.699 290.8 227.299 290.8 222.699C290.7 218.099 292 217.499 295.8 214.699C299.6 211.899 304.8 206.499 306.2 201.399C307.6 196.299 309 192.199 310.7 190.399C312.5 188.599 310.8 184.499 307.2 187.099C303.7 189.699 301.7 195.799 297.8 198.299C294 200.799 288.1 204.099 284.2 205.099C280.3 206.099 278.9 206.899 278.9 206.899V202.999C278.9 202.999 291.1 197.699 290.7 182.799C290.5 168.099 260 176.199 260 176.199Z" fill="#FFB27D"/>
<path d="M288.9 187C290.8 187 291.9 181.3 289.9 178.2C287.8 175.1 282.9 168.8 273.7 168.9C264.5 169 259.3 173 259.3 175.9C259.3 178.8 263.9 178.1 264.6 179.1C265.3 180.1 267.6 181.6 271.2 181.4C274.8 181.2 276.4 178 281.8 178.1C287.2 178.2 285.1 187 288.9 187Z" fill="#FF9843"/>
<path d="M267.3 197.799L261.5 194.199L262.2 195.999L261.3 198.099L267.3 197.799Z" fill="#FFE5D4"/>
<path d="M282.6 189.1L280.2 192.2L281 195.4L284 192.6L282.6 189.1Z" fill="#F19C63"/>
<path d="M247.9 230.701C247.4 227.801 251.2 224.001 254.9 223.601C258.6 223.201 263.8 220.701 265.3 221.501C266.8 222.301 266.2 223.901 264.4 224.201C262.6 224.401 260.6 226.401 262.6 227.301C264.6 228.101 272.3 227.701 272.4 231.601C272.5 235.601 270.3 237.501 266.2 237.401C262 237.301 257.4 234.501 254.3 234.101C251.1 233.701 248.3 233.101 247.9 230.701Z" fill="#ED975D"/>
<path d="M290 246.701C290 246.701 295.2 250.801 292.8 253.101C290.4 255.401 283.5 259.501 276.9 259.601C270.3 259.701 263.9 258.301 263.2 256.101C262.5 253.901 278.5 254.301 281.8 252.901C285.1 251.501 288.7 246.101 290 246.701Z" fill="#ED975D"/>
<path d="M254.8 234.701C254.8 234.701 251.1 236.901 252.5 239.401C253.9 241.901 255 245.001 258.8 244.101C262.6 243.201 265.7 237.401 272.4 237.401C279.1 237.401 285.1 240.401 285.1 244.601C285.2 248.801 283.3 252.701 281.1 253.101C278.9 253.501 286.7 254.101 288.4 251.101C290.1 248.001 290.6 244.201 290.7 240.001C290.8 235.901 289.9 229.401 283.4 230.601C276.9 231.801 267.2 234.601 263.7 234.701C260.2 234.801 254.8 234.701 254.8 234.701Z" fill="white"/>
<path d="M373.1 248.301C373.1 248.301 371.8 283.001 370.7 290.101C369.7 297.301 369.2 301.201 366.7 305.301C364.2 309.401 359.5 316.201 358.7 318.901C357.9 321.701 358.1 325.101 360.4 326.301C362.8 327.501 361.2 321.201 363.1 320.501C365 319.801 364.6 323.101 366.3 323.001C368 322.901 369.5 318.101 370 314.901C370.5 311.701 377.5 302.601 380.7 294.601C383.9 286.601 388.8 249.401 388.8 249.401L373.1 248.301Z" fill="#FFB27D"/>
<path d="M242.1 239.9C238.3 239.5 236.6 238.5 234.7 236.8C232.9 235.2 230.6 234.5 228.3 235.1C226 235.7 224.5 239.7 224.8 243.8C225.1 247.9 227.8 250.8 231.6 250.8C235.4 250.8 244.1 250.8 244.1 250.8C244.1 250.8 244.9 243.4 242.1 239.9Z" fill="white"/>
<path d="M234.7 241.999C235.1 244.999 235.1 250.899 231.6 250.899C227.8 250.899 225.1 247.999 224.8 243.899C224.5 239.799 226 235.699 228.3 235.199C229 234.999 229.6 234.999 230.3 234.999C233.3 234.899 234.7 241.999 234.7 241.999Z" fill="#AFCDFB"/>
<path d="M450.1 258.4C450.1 258.4 455.6 283.4 458.6 292.8C461.6 302.1 464.2 310.1 466.4 312.3C468.6 314.5 470.6 315.7 470.7 318.5C470.8 321.3 472 324.4 469.2 324.4C466.4 324.4 465.1 322.9 465.6 320.7C466.1 318.5 464 315.3 462.9 316.8C461.9 318.3 461.9 319.9 460.6 319.9C459.3 319.9 459.1 317.7 459.2 314.9C459.3 312 458.1 311.6 454.7 305.5C451.3 299.3 432.6 265.5 432.6 265.5L431.4 257L450.1 258.4Z" fill="#FFB27D"/>
<path d="M256 246.501C252.4 246.501 250.8 245.701 248.9 244.301C247.1 242.901 244.9 242.501 242.9 243.201C240.8 243.901 239.7 247.801 240.4 251.501C241 255.201 243.7 257.701 247.2 257.401C250.7 257.101 258.7 256.401 258.7 256.401C258.7 256.401 258.8 249.501 256 246.501Z" fill="white"/>
<path d="M378.6 306.799C378.6 306.799 379 340.299 384 362.099C389.1 383.899 396.5 402.699 397.4 413.899C398.3 425.099 398.3 438.699 398.3 438.699C398.3 438.699 400.6 440.399 405.2 440.499C409.8 440.699 412.7 438.299 412.7 438.299C412.7 438.299 416.7 421.499 416.9 412.599C417.1 403.699 417.5 400.799 417.5 400.799L439.7 429.299C439.7 429.299 445.9 428.499 449.5 426.199C453.2 423.899 456.1 418.699 456.1 418.699C456.1 418.699 447.2 399.199 442.7 392.899C438.2 386.599 433.5 384.399 433.5 382.299C433.5 380.099 442.6 353.999 443.7 339.699C444.8 325.399 443.5 309.099 443.5 309.099L429.8 292.199L378.6 306.799Z" fill="#F99746"/>
<path d="M390.2 313.699C390.2 313.699 401.2 361.399 402 368.499C402.8 375.599 403.7 382.699 405.2 385.799C406.6 388.999 415.9 407.399 416.5 410.499C417 413.599 417.4 404.599 417.4 404.599L417.7 400.899C417.7 400.899 408.2 388.899 407 383.099C405.8 377.299 403 360.899 403.2 348.299C403.4 335.699 402.6 313.699 402.6 313.699H390.2Z" fill="#E07D32"/>
<path d="M249.4 249.001C250 251.701 250.5 257.101 247.3 257.401C243.8 257.701 241.1 255.301 240.5 251.501C239.9 247.801 241 243.901 243 243.201C243.6 243.001 244.2 242.901 244.8 242.901C247.4 242.601 249.4 249.001 249.4 249.001Z" fill="#AFCDFB"/>
<path d="M402 206.3C402 206.3 398.1 207.4 393.2 207.6C388.3 207.8 386 209.4 383.4 214.4C380.7 219.4 378.6 225.1 376.2 232.2C373.9 239.3 372.1 248.7 372.1 248.7L383.2 254.3C383.2 254.3 381.1 267.4 379 279.7C376.9 292 377.6 301.4 377.6 304.2C377.6 307 384.8 315.4 395.3 315.4C405.7 315.4 410.9 315.4 416 315.4C421.1 315.4 423.6 310.2 425 307C426.4 303.8 428.7 301.8 428.7 301.8C428.7 301.8 429.2 306.6 430.1 309.5C431 312.4 434.4 314.1 437.9 314.1C441.4 314.1 445.7 312.7 444.9 308.7C444.1 304.7 439.4 283.8 437.6 276.9C435.9 270 435.2 262.1 435.2 262.1L451.7 259.1C451.7 259.1 446.1 234.4 443.6 225.2C441.1 216 438.8 207.6 431.4 206.4C424 205.2 420.6 204.6 420.6 204.6L402 206.3Z" fill="white"/>
<path d="M291 469.1L291.6 476.1L290.4 481.7H250.2V478.3L270.3 473.3L277.1 467L291 469.1Z" fill="#233862"/>
<path d="M401.5 194.2C401.5 194.2 402.3 203.8 401.1 207.1C399.9 210.4 395.1 214.8 395.3 217.8C395.5 220.8 399 221.4 405.5 221.4C412 221.4 416.5 221.7 419.3 217.8C422.1 213.9 424.5 211.4 423.5 207.8C422.5 204.2 419 205.4 418 199.8C417 194.2 418.6 186 418.6 186L401.5 194.2Z" fill="#FFB27D"/>
<path d="M417.7 189C417.7 189 410.7 200 406.7 200.2C402.7 200.4 401.7 194 401.7 194L417.7 189Z" fill="#EA9C68"/>
<path d="M351.5 466.6L353.7 473.9L352.6 481.1H312.6V477.7L334.4 471.8L339.3 466.6H351.5Z" fill="#233862"/>
<path d="M394.5 168.5C394.5 168.5 393.2 179.9 394.5 186.7C395.6 192.7 398.9 195.2 403.4 195C407.9 194.8 418.2 191.2 421.2 185.6C424.2 180 421.8 167.7 421.8 167.7L401.5 160L394.5 168.5Z" fill="#FFB27D"/>
<path d="M419.9 188.199C424.2 187.899 430.7 181.099 430.6 175.599C430.5 170.099 430.5 165.099 426.5 160.399C422.5 155.699 420.9 150.599 412.5 150.899C404.1 151.099 399.1 157.599 395.2 161.699C391.3 165.799 391 168.099 391.3 170.599C391.6 173.099 392.7 177.999 394.8 178.099C394 170.599 394.8 169.299 396.3 167.399C397.8 165.499 399.8 162.399 401.5 164.899C403.3 167.399 401.6 167.099 404.7 172.899C407.9 178.699 413.4 182.099 413.4 182.099C413.4 182.099 405 170.799 408.7 173.899C412.4 177.099 415.4 178.299 416.9 178.299C418.4 178.299 420.4 177.799 420 180.499C419.5 183.199 419.1 188.199 419.9 188.199Z" fill="#163560"/>
<path d="M419.6 153.199C419.6 153.199 423.9 143.599 431.4 146.899C438.9 150.199 440.1 157.7 436.9 161.3C433.7 164.899 432.6 166.9 427.1 167.1C421.6 167.3 419.6 153.199 419.6 153.199Z" fill="#163560"/>
<path d="M403.7 190.499L399.3 188.199L396.1 186.699L397 188.699L397.3 191.099L403.7 190.499Z" fill="#FFE5D4"/>
<path d="M398.4 438.801C398.4 438.801 398.2 456.501 397.3 460.501C396.4 464.501 388.7 474.001 383.3 476.501C377.9 479.001 384.8 480.801 390.8 480.301C396.8 479.801 405 475.401 405 475.401C405 475.401 402.8 471.901 403.9 466.601C405 461.301 411.9 443.301 413.2 437.201C414.5 431.001 398.4 438.801 398.4 438.801Z" fill="#FFB27D"/>
<path d="M383.3 476.501C383.3 476.501 378.9 475.901 377 477.601C375.2 479.201 374.4 479.201 374.4 481.201C374.4 483.201 377.6 483.501 381.7 483.501C385.8 483.501 394.2 482.301 398.6 482.401C403 482.501 407.4 480.701 407.2 477.601C407 474.501 404.5 473.901 402.5 474.401C400.4 474.901 396.8 477.301 392.2 477.601C387.6 477.901 383.3 476.501 383.3 476.501Z" fill="#233862"/>
<path d="M439.8 429.399C439.8 429.399 454.6 448.299 458 454.099C461.4 459.899 462.3 460.499 462.2 463.899C462.1 467.399 461.7 476.699 461.7 476.699L474.7 454.499C474.7 454.499 468.1 452.899 464.5 445.999C460.9 439.099 458.3 424.899 456.2 418.699C454.1 412.499 439.8 429.399 439.8 429.399Z" fill="#FFB27D"/>
<path d="M461.8 472.999C460.1 474.899 459.9 476.199 459.3 478.799C458.7 481.399 459.9 483.499 461.9 481.999C464 480.499 472.2 468.999 472.4 465.899C472.6 462.799 475.4 460.699 476.8 459.099C478.2 457.499 477.1 454.699 475.6 453.899C474.1 453.099 471.5 453.999 470.8 456.199C470.1 458.399 468.8 463.099 467.3 465.899C465.8 468.799 461.8 472.999 461.8 472.999Z" fill="#233862"/>
<path d="M502.1 335.801C502.1 335.801 499.8 341.301 499.8 348.301C499.8 355.201 504 359.801 509.5 359.901C515 360.101 521.6 355.901 523.5 352.401C525.4 348.901 527.1 339.801 527.1 339.801L502.1 335.801Z" fill="#FFB27D"/>
<path d="M527.9 359.699C526.5 362.199 531.4 366.399 538.1 366.399C544.8 366.399 546.5 363.999 546.5 360.599C546.5 357.099 541.8 354.299 540.5 352.999C539.2 351.699 537.7 348.099 538.1 343.899C538.5 339.699 539.6 335.299 536.3 332.599C533 329.899 528.4 330.299 524.9 328.499C521.4 326.699 518.7 325.199 513.7 325.199C508.7 325.199 500.4 328.099 499.8 332.699C499.2 337.299 505.5 339.799 509.2 339.399C512.9 338.999 516.4 338.699 517.4 341.199C518.4 343.699 517.5 345.599 519.6 345.799C521.7 345.999 524 345.399 523.8 347.299C523.6 349.199 520.4 351.699 521 353.299C521.5 354.899 524.7 353.499 525.5 351.399C526.3 349.299 526.1 344.599 528.5 346.399C530.7 348.199 530.5 355.199 527.9 359.699Z" fill="#163560"/>
<path d="M507.8 359.2C507.8 359.2 508 362.3 507.3 363.7C506.6 365.1 505.8 368.4 508.7 369C511.5 369.6 521.2 368.6 520.9 365C520.5 361.4 519.6 356.6 520.2 354.2C520.8 351.6 507.8 359.2 507.8 359.2Z" fill="#FFB27D"/>
<path d="M507.4 364.7L496.6 362.9L490.9 374C490.9 374 496.1 376.6 496 378.7C495.9 380.8 492.7 402.3 490.9 413.3C489.1 424.4 488.2 437.5 487.9 440.1C487.6 442.7 494.5 444.4 509.7 444.4C525 444.4 532.3 440.2 534.2 439.2C536.1 438.2 537.1 435.2 535.7 430.8C534.3 426.4 528.4 402.1 527.1 395.6C525.8 389.1 525.2 380.7 525.2 380.7L527.7 382L535.8 374.4C535.8 374.4 532.2 368.3 530 366.3C527.7 364.3 521 363.8 521 363.8L507.4 364.7Z" fill="#F99746"/>
<path d="M496.5 362.901C496.5 362.901 486.2 355.201 483.7 350.301C481.2 345.401 473.4 329.901 472.5 326.501C471.6 323.101 468.8 321.301 465.5 322.501C462.3 323.701 463.2 328.101 465.5 329.801C467.8 331.501 470.6 333.101 470.9 337.401C471.2 341.701 474.3 353.701 477.7 358.101C481.1 362.501 491 373.301 491 373.301L496.5 362.901Z" fill="#FFB27D"/>
<path d="M535.7 374.5C535.7 374.5 539.7 381 541.4 384.4C543.1 387.8 542.6 393 539.1 395.2C535.6 397.4 528.3 401.3 523.1 401.5C517.9 401.7 510.8 401.7 510.9 400C511 398.2 516.7 398.8 519.7 398.3C522.7 397.8 531.2 391.4 532 389.4C532.8 387.4 527.6 382.1 527.6 382.1L535.7 374.5Z" fill="#FFB27D"/>
<path d="M491.2 441.601L487.2 464.901L497.5 467.201C497.5 467.201 504.7 454.701 507.1 448.701C509.6 442.701 509.6 437.801 509.6 437.801L491.2 441.601Z" fill="#FFB27D"/>
<path d="M515.8 443.1C515.8 443.1 516.7 450.3 519.3 454.3C521.9 458.2 526.8 464.3 526.8 464.3L536.8 457.9C536.8 457.9 531.1 450.9 530.6 448.9C530.1 446.9 531.8 436.5 531.8 436.5L515.8 443.1Z" fill="#FFB27D"/>
<path d="M487.2 464.9L484.6 472.8L493.5 475L497.5 467.2L487.2 464.9Z" fill="white"/>
<path d="M484.6 472.801L473.7 479.201V482.901H493.7V475.001L484.6 472.801Z" fill="#AA443E"/>
<path d="M526.9 464.201L534.2 472.301L541.8 467.501L536.9 457.801L526.9 464.201Z" fill="white"/>
<path d="M534.2 472.3V475.4L529.9 480.5V482.9H540L546.8 475.7L545.7 471.5L541.8 467.5L534.2 472.3Z" fill="#AA443E"/>
<defs>
<linearGradient id="paint0_linear_786_2948" x1="133.3" y1="438.52" x2="496.216" y2="173.896" gradientUnits="userSpaceOnUse">
<stop stop-color="white" stop-opacity="0.1"/>
<stop offset="1" stop-color="white" stop-opacity="0.5"/>
</linearGradient>
<linearGradient id="paint1_linear_786_2948" x1="141.739" y1="156.489" x2="435.538" y2="434.638" gradientUnits="userSpaceOnUse">
<stop stop-color="white" stop-opacity="0.5"/>
<stop offset="1" stop-color="white" stop-opacity="0.2"/>
</linearGradient>
<linearGradient id="paint2_linear_786_2948" x1="404.434" y1="303.398" x2="243.131" y2="514.004" gradientUnits="userSpaceOnUse">
<stop stop-color="white" stop-opacity="0.1"/>
<stop offset="1" stop-color="white" stop-opacity="0.5"/>
</linearGradient>
<linearGradient id="paint3_linear_786_2948" x1="75.6633" y1="421.063" x2="564.72" y2="167.753" gradientUnits="userSpaceOnUse">
<stop stop-color="white" stop-opacity="0.7"/>
<stop offset="1" stop-color="white"/>
</linearGradient>
</defs>
</svg>
