<svg width="621" height="599" viewBox="0 0 621 599" fill="none" xmlns="http://www.w3.org/2000/svg">
<path d="M307.5 543C245.4 543 187 518.9 143.1 475.2C99.2 431.5 75 373.3 75 311.5C75 249.6 99.2 191.5 143.1 147.8C187 104.1 245.4 80 307.5 80C369.6 80 428 104.1 471.9 147.8C515.8 191.5 540 249.7 540 311.5C540 373.3 515.8 431.5 471.9 475.2C428 518.9 369.6 543 307.5 543ZM307.5 112C196.9 112 107 201.5 107 311.5C107 421.5 196.9 511 307.5 511C418.1 511 508 421.5 508 311.5C508 201.5 418.1 112 307.5 112Z" fill="url(#paint0_linear_514_711)"/>
<path d="M306 472C394.366 472 466 400.366 466 312C466 223.634 394.366 152 306 152C217.634 152 146 223.634 146 312C146 400.366 217.634 472 306 472Z" fill="url(#paint1_linear_514_711)"/>
<path d="M327 517C221.6 517 139 467.6 139 404.5C139 341.4 221.6 292 327 292C432.4 292 515 341.4 515 404.5C515 467.6 432.4 517 327 517ZM327 328C284.6 328 245 337 215.5 353.4C189.7 367.7 175 386.3 175 404.5C175 422.6 189.8 441.3 215.5 455.6C245 472 284.6 481 327 481C369.4 481 409 472 438.5 455.6C464.3 441.3 479 422.7 479 404.5C479 386.4 464.2 367.7 438.5 353.4C409 337 369.4 328 327 328Z" fill="url(#paint2_linear_514_711)"/>
<path d="M320.1 560.4C317.9 560.4 316.1 558.7 316.1 556.5C316.1 554.3 317.8 552.5 320 552.4C325.6 552.3 331.2 552 336.7 551.6C338.9 551.4 340.8 553.1 341 555.3C341.2 557.5 339.5 559.4 337.3 559.6C331.6 560 325.8 560.3 320.1 560.4ZM301.1 560.1C301 560.1 301 560.1 300.9 560.1C295.2 559.8 289.4 559.3 283.7 558.7C281.5 558.5 279.9 556.5 280.2 554.3C280.4 552.1 282.4 550.5 284.6 550.8C290.1 551.4 295.8 551.9 301.3 552.2C303.5 552.3 305.2 554.2 305.1 556.4C305 558.4 303.2 560.1 301.1 560.1ZM355.9 557.5C353.9 557.5 352.2 556.1 351.9 554.1C351.6 551.9 353.1 549.9 355.3 549.6C360.8 548.8 366.3 547.8 371.8 546.7C374 546.2 376.1 547.6 376.5 549.8C376.9 552 375.6 554.1 373.4 554.5C367.8 555.7 362.1 556.7 356.4 557.5C356.3 557.5 356.1 557.5 355.9 557.5ZM265.3 556C265.1 556 264.8 556 264.6 555.9C259 554.9 253.3 553.7 247.7 552.4C245.6 551.9 244.2 549.7 244.7 547.6C245.2 545.5 247.4 544.1 249.5 544.6C254.9 545.9 260.4 547 265.9 548C268.1 548.4 269.5 550.5 269.1 552.6C268.9 554.6 267.2 556 265.3 556ZM391.1 550C389.4 550 387.8 548.8 387.3 547.1C386.7 545 387.9 542.8 390.1 542.2C395.4 540.7 400.8 539 406 537.2C408.1 536.5 410.4 537.6 411.1 539.7C411.8 541.8 410.7 544.1 408.6 544.8C403.2 546.7 397.7 548.4 392.2 550C391.8 550 391.4 550 391.1 550ZM230.4 547.5C230 547.5 229.6 547.4 229.2 547.3C223.7 545.6 218.3 543.7 212.9 541.7C210.8 540.9 209.8 538.6 210.6 536.5C211.4 534.4 213.7 533.4 215.8 534.2C221 536.2 226.3 538 231.6 539.7C233.7 540.4 234.9 542.6 234.2 544.7C233.7 546.4 232.1 547.5 230.4 547.5ZM424.9 538C423.4 538 421.9 537.1 421.2 535.6C420.3 533.6 421.3 531.2 423.3 530.3C428.4 528.1 433.5 525.7 438.4 523.2C440.4 522.2 442.8 523 443.8 525C444.8 527 444 529.4 442 530.4C436.9 533 431.7 535.4 426.4 537.7C426 537.9 425.5 538 424.9 538ZM196.8 534.6C196.2 534.6 195.7 534.5 195.1 534.2C189.9 531.8 184.7 529.2 179.7 526.5C177.8 525.5 177 523 178.1 521.1C179.1 519.2 181.6 518.4 183.5 519.5C188.4 522.1 193.5 524.6 198.5 526.9C200.5 527.8 201.4 530.2 200.5 532.2C199.8 533.7 198.3 534.6 196.8 534.6ZM456.9 521.6C455.5 521.6 454.2 520.9 453.5 519.7C452.4 517.8 453 515.3 454.9 514.2C459.7 511.3 464.4 508.3 469 505.1C470.8 503.8 473.3 504.3 474.6 506.1C475.9 507.9 475.4 510.4 473.6 511.7C468.9 514.9 464 518.1 459.1 521C458.3 521.4 457.6 521.6 456.9 521.6ZM165.1 517.5C164.4 517.5 163.6 517.3 163 516.9C158.1 513.9 153.3 510.6 148.7 507.3C146.9 506 146.5 503.5 147.8 501.7C149.1 499.9 151.6 499.5 153.4 500.8C157.9 504 162.6 507.2 167.3 510.1C169.2 511.3 169.7 513.7 168.6 515.6C167.8 516.9 166.5 517.5 165.1 517.5ZM486.4 501C485.2 501 484.1 500.5 483.3 499.5C481.9 497.8 482.2 495.3 483.9 493.9C488.2 490.4 492.5 486.7 496.6 483C498.2 481.5 500.8 481.6 502.3 483.2C503.8 484.8 503.7 487.4 502.1 488.9C497.9 492.8 493.5 496.5 489 500.1C488.2 500.8 487.3 501 486.4 501ZM135.9 496.4C135 496.4 134.1 496.1 133.4 495.5C129 491.8 124.6 488 120.4 484.1C118.8 482.6 118.7 480.1 120.2 478.4C121.7 476.8 124.2 476.7 125.9 478.2C130 482 134.2 485.7 138.5 489.3C140.2 490.7 140.4 493.2 139 494.9C138.2 495.9 137.1 496.4 135.9 496.4ZM512.8 476.6C511.8 476.6 510.8 476.2 510.1 475.5C508.5 474 508.4 471.5 509.9 469.8C513.7 465.7 517.4 461.5 520.9 457.2C522.3 455.5 524.8 455.2 526.5 456.6C528.2 458 528.5 460.5 527.1 462.2C523.5 466.6 519.6 471 515.7 475.2C515 476.2 513.9 476.6 512.8 476.6ZM109.8 471.7C108.7 471.7 107.7 471.3 106.9 470.4C103 466.2 99.1998 461.8 95.5998 457.4C94.1998 455.7 94.4998 453.2 96.1998 451.8C97.8998 450.4 100.4 450.7 101.8 452.4C105.3 456.7 109 461 112.8 465C114.3 466.6 114.2 469.2 112.6 470.7C111.7 471.4 110.8 471.7 109.8 471.7ZM535.5 448.7C534.7 448.7 533.9 448.5 533.2 448C531.4 446.7 531 444.2 532.2 442.4C535.4 437.8 538.5 433.1 541.3 428.4C542.4 426.5 544.9 425.9 546.8 427C548.7 428.1 549.3 430.6 548.2 432.5C545.2 437.4 542.1 442.3 538.8 447C538 448.1 536.8 448.7 535.5 448.7ZM87.1998 443.7C85.8998 443.7 84.6998 443.1 83.8998 442C80.5998 437.3 77.3998 432.4 74.3998 427.6C73.1998 425.7 73.7998 423.3 75.6998 422.1C77.5998 420.9 79.9998 421.5 81.1998 423.4C84.0998 428.1 87.1998 432.8 90.3998 437.4C91.6998 439.2 91.1998 441.7 89.3998 443C88.7998 443.5 87.9998 443.7 87.1998 443.7ZM554 417.9C553.4 417.9 552.8 417.8 552.2 417.5C550.2 416.5 549.4 414.1 550.4 412.1C552.9 407.1 555.2 402 557.4 396.9C558.3 394.9 560.6 393.9 562.6 394.8C564.6 395.7 565.6 398 564.7 400C562.5 405.3 560.1 410.6 557.5 415.7C556.9 417.1 555.5 417.9 554 417.9ZM68.5998 412.9C67.0998 412.9 65.6998 412.1 64.9998 410.7C62.3998 405.6 59.8998 400.3 57.5998 395.1C56.6998 393.1 57.6998 390.7 59.6998 389.8C61.6998 388.9 64.0998 389.9 64.9998 391.9C67.1998 397 69.5998 402.1 72.0998 407C73.0998 409 72.2998 411.4 70.3998 412.4C69.7998 412.8 69.1998 412.9 68.5998 412.9ZM567.7 384.6C567.3 384.6 566.9 384.5 566.4 384.4C564.3 383.7 563.2 381.4 563.9 379.4C565.6 374.1 567.2 368.7 568.6 363.4C569.1 361.3 571.3 360 573.5 360.5C575.6 361 576.9 363.2 576.4 365.4C575 371 573.4 376.5 571.6 382C571 383.5 569.4 384.6 567.7 384.6ZM54.3998 379.9C52.6998 379.9 51.1998 378.9 50.5998 377.2C48.6998 371.8 46.9998 366.2 45.4998 360.7C44.8998 358.6 46.1998 356.4 48.2998 355.8C50.3998 355.2 52.5998 356.5 53.1998 358.6C54.6998 363.9 56.2998 369.3 58.0998 374.6C58.7998 376.7 57.6998 379 55.5998 379.7C55.2998 379.8 54.8998 379.9 54.3998 379.9ZM576.5 349.7C576.3 349.7 576 349.7 575.8 349.6C573.6 349.2 572.2 347.2 572.5 345C573.5 339.5 574.2 334 574.8 328.4C575 326.2 577 324.6 579.2 324.8C581.4 325 583 327 582.8 329.2C582.2 334.9 581.4 340.7 580.4 346.3C580.1 348.4 578.4 349.7 576.5 349.7ZM45.0998 345.1C43.1998 345.1 41.4998 343.8 41.1998 341.8C40.0998 336.2 39.1998 330.4 38.5998 324.8C38.2998 322.6 39.8998 320.6 42.0998 320.4C44.2998 320.1 46.2998 321.7 46.4998 323.9C47.1998 329.4 47.9998 334.9 49.0998 340.4C49.4998 342.6 48.0998 344.7 45.8998 345.1C45.5998 345.1 45.3998 345.1 45.0998 345.1ZM580 313.9C577.7 313.8 575.9 312 576 309.8C576.1 307.8 576.1 305.7 576.1 303.6C576.1 300.1 576 296.5 575.9 293C575.8 290.8 577.5 288.9 579.7 288.8C581.9 288.7 583.8 290.4 583.9 292.6C584.1 296.2 584.1 299.9 584.1 303.5C584.1 305.6 584.1 307.8 584 309.9C583.9 312.2 582.2 313.9 580 313.9ZM40.9998 309.4C38.8998 309.4 37.0998 307.7 36.9998 305.6C36.8998 302.2 36.7998 298.7 36.7998 295.3C36.7998 293 36.7998 290.7 36.8998 288.4C36.9998 286.2 38.7998 284.5 40.9998 284.5C43.1998 284.6 44.8998 286.4 44.8998 288.6C44.7998 290.8 44.7998 293.1 44.7998 295.3C44.7998 298.6 44.8998 302 44.9998 305.3C45.0998 307.5 43.3998 309.4 41.1998 309.5C41.0998 309.4 41.0998 309.4 40.9998 309.4ZM578.3 278C576.3 278 574.6 276.5 574.3 274.5C573.6 269 572.8 263.4 571.7 258C571.3 255.8 572.7 253.7 574.9 253.3C577.1 252.9 579.2 254.3 579.6 256.5C580.7 262.1 581.6 267.9 582.3 273.5C582.6 275.7 581 277.7 578.8 278C578.6 278 578.4 278 578.3 278ZM42.1998 273.5C42.0998 273.5 41.8998 273.5 41.7998 273.5C39.5998 273.3 37.9998 271.3 38.1998 269.1C38.7998 263.4 39.5998 257.7 40.5998 252C40.9998 249.8 43.0998 248.4 45.1998 248.8C47.3998 249.2 48.7998 251.3 48.3998 253.4C47.3998 258.9 46.5998 264.5 46.0998 270C45.8998 272 44.1998 273.5 42.1998 273.5ZM571.3 242.8C569.5 242.8 567.9 241.6 567.4 239.9C565.9 234.6 564.3 229.2 562.4 223.9C561.7 221.8 562.8 219.5 564.9 218.8C567 218.1 569.3 219.2 570 221.3C571.9 226.7 573.6 232.3 575.1 237.8C575.7 239.9 574.4 242.1 572.3 242.7C572 242.7 571.7 242.8 571.3 242.8ZM48.4998 238.1C48.1998 238.1 47.7998 238.1 47.4998 238C45.3998 237.5 44.0998 235.3 44.5998 233.1C45.9998 227.5 47.6998 222 49.4998 216.5C50.1998 214.4 52.4998 213.3 54.5998 214C56.6998 214.7 57.7998 217 57.0998 219.1C55.3998 224.4 53.7998 229.8 52.3998 235.1C51.8998 236.9 50.2998 238.1 48.4998 238.1ZM559.4 208.9C557.9 208.9 556.4 208 555.7 206.5C553.5 201.4 551.1 196.3 548.5 191.4C547.5 189.4 548.3 187 550.2 186C552.2 185 554.6 185.8 555.6 187.7C558.2 192.8 560.7 198 563 203.3C563.9 205.3 563 207.7 560.9 208.6C560.4 208.8 559.9 208.9 559.4 208.9ZM59.9998 204C59.4998 204 58.9998 203.9 58.4998 203.7C56.4998 202.8 55.4998 200.5 56.3998 198.5C58.5998 193.2 61.0998 187.9 63.6998 182.8C64.6998 180.8 67.0998 180 69.0998 181C71.0998 182 71.8998 184.4 70.8998 186.4C68.3998 191.4 65.9998 196.5 63.8998 201.6C62.9998 203.1 61.5998 204 59.9998 204ZM542.7 177C541.4 177 540 176.3 539.3 175.1C536.4 170.4 533.3 165.7 530.1 161.1C528.8 159.3 529.3 156.8 531.1 155.5C532.9 154.2 535.4 154.7 536.7 156.5C540 161.2 543.2 166 546.2 170.9C547.4 172.8 546.8 175.2 544.9 176.4C544.2 176.8 543.4 177 542.7 177ZM76.3998 172C75.6998 172 74.9998 171.8 74.2998 171.4C72.3998 170.3 71.7998 167.8 72.9998 165.9C75.9998 161 79.1998 156.1 82.4998 151.4C83.7998 149.6 86.2998 149.2 88.0998 150.4C89.8998 151.7 90.2998 154.2 89.0998 156C85.8998 160.5 82.7998 165.3 79.8998 170C78.9998 171.3 77.6998 172 76.3998 172ZM521.9 147.6C520.7 147.6 519.6 147.1 518.8 146.1C515.3 141.8 511.6 137.6 507.8 133.5C506.3 131.9 506.4 129.4 508 127.8C509.6 126.2 512.1 126.4 513.7 128C517.6 132.2 521.4 136.6 525.1 141C526.5 142.7 526.2 145.2 524.5 146.6C523.7 147.3 522.8 147.6 521.9 147.6ZM97.1998 142.7C96.2998 142.7 95.3998 142.4 94.6998 141.8C92.9998 140.4 92.7998 137.9 94.1998 136.2C97.7998 131.8 101.7 127.4 105.6 123.3C107.1 121.7 109.6 121.6 111.3 123.1C112.9 124.6 113 127.1 111.5 128.8C107.7 132.8 104 137.1 100.4 141.3C99.4998 142.2 98.2998 142.7 97.1998 142.7ZM497.3 121.4C496.3 121.4 495.3 121 494.6 120.3C490.5 116.5 486.3 112.8 482 109.2C480.3 107.8 480.1 105.3 481.5 103.6C482.9 101.9 485.4 101.7 487.1 103.1C491.5 106.7 495.9 110.6 500.1 114.5C501.7 116 501.8 118.5 500.3 120.2C499.4 121 498.3 121.4 497.3 121.4ZM122 116.6C120.9 116.6 119.8 116.2 119 115.3C117.5 113.7 117.6 111.1 119.3 109.6C123.5 105.7 127.9 102 132.4 98.4001C134.1 97.0001 136.6 97.3001 138 99.0001C139.4 100.7 139.1 103.2 137.4 104.6C133.1 108.1 128.8 111.7 124.7 115.5C123.9 116.3 123 116.6 122 116.6ZM469.4 98.6001C468.6 98.6001 467.8 98.4001 467.1 97.9001C462.6 94.7001 457.9 91.5001 453.2 88.6001C451.3 87.4001 450.8 85.0001 451.9 83.1001C453.1 81.2001 455.5 80.7001 457.4 81.8001C462.3 84.8001 467.1 88.1001 471.8 91.4001C473.6 92.7001 474 95.2001 472.7 97.0001C471.9 98.0001 470.6 98.6001 469.4 98.6001ZM150.2 94.3001C148.9 94.3001 147.7 93.7001 146.9 92.6001C145.6 90.8001 146.1 88.3001 147.9 87.0001C152.6 83.8001 157.5 80.6001 162.4 77.7001C164.3 76.6001 166.8 77.2001 167.9 79.1001C169 81.0001 168.4 83.5001 166.5 84.6001C161.7 87.5001 157 90.5001 152.4 93.6001C151.7 94.0001 150.9 94.3001 150.2 94.3001ZM438.8 79.7001C438.2 79.7001 437.5 79.5001 436.9 79.2001C432 76.6001 426.9 74.1001 421.9 71.8001C419.9 70.9001 419 68.5001 419.9 66.5001C420.8 64.5001 423.2 63.6001 425.2 64.5001C430.4 66.9001 435.6 69.4001 440.7 72.1001C442.6 73.1001 443.4 75.6001 442.4 77.5001C441.6 78.9001 440.2 79.7001 438.8 79.7001ZM181.1 75.9001C179.6 75.9001 178.2 75.1001 177.5 73.7001C176.5 71.7001 177.3 69.3001 179.3 68.3001C184.4 65.7001 189.7 63.3001 194.9 61.0001C196.9 60.1001 199.3 61.1001 200.2 63.1001C201.1 65.1001 200.1 67.5001 198.1 68.4001C193 70.6001 187.9 73.0001 182.9 75.5001C182.3 75.8001 181.7 75.9001 181.1 75.9001ZM406 64.8001C405.5 64.8001 405.1 64.7001 404.6 64.5001C399.4 62.5001 394.1 60.7001 388.8 59.1001C386.7 58.4001 385.5 56.2001 386.2 54.1001C386.9 52.0001 389.1 50.8001 391.2 51.5001C396.7 53.2001 402.2 55.1001 407.5 57.1001C409.6 57.9001 410.6 60.2001 409.8 62.3001C409.2 63.9001 407.6 64.8001 406 64.8001ZM214.2 61.9001C212.5 61.9001 211 60.9001 210.4 59.2001C209.7 57.1001 210.8 54.8001 212.9 54.1001C218.3 52.2001 223.8 50.5001 229.3 48.9001C231.4 48.3001 233.6 49.5001 234.2 51.7001C234.8 53.8001 233.6 56.0001 231.4 56.6001C226.1 58.1001 220.7 59.8001 215.4 61.6001C215.1 61.8001 214.6 61.9001 214.2 61.9001ZM371.6 54.3001C371.3 54.3001 371 54.3001 370.7 54.2001C365.3 52.9001 359.8 51.8001 354.3 50.8001C352.1 50.4001 350.7 48.3001 351.1 46.2001C351.5 44.0001 353.6 42.6001 355.7 43.0001C361.3 44.0001 367 45.2001 372.6 46.5001C374.7 47.0001 376.1 49.2001 375.6 51.3001C375.1 53.1001 373.4 54.3001 371.6 54.3001ZM248.8 52.3001C246.9 52.3001 245.3 51.0001 244.9 49.1001C244.5 46.9001 245.8 44.8001 248 44.4001C253.6 43.2001 259.3 42.2001 265 41.4001C267.2 41.1001 269.2 42.6001 269.5 44.8001C269.8 47.0001 268.3 49.0001 266.1 49.3001C260.6 50.1001 255 51.1001 249.6 52.2001C249.3 52.3001 249.1 52.3001 248.8 52.3001ZM337.3 48.3001C337.1 48.3001 337 48.3001 336.8 48.3001C331.3 47.7001 325.6 47.2001 320.1 46.9001C317.9 46.8001 316.2 44.9001 316.3 42.7001C316.4 40.5001 318.3 38.8001 320.5 38.9001C326.2 39.2001 332 39.7001 337.7 40.3001C339.9 40.5001 341.5 42.5001 341.2 44.7001C341.1 46.8001 339.3 48.3001 337.3 48.3001ZM284.4 47.3001C282.3 47.3001 280.6 45.7001 280.4 43.6001C280.2 41.4001 281.9 39.5001 284.1 39.3001C289.8 38.9001 295.6 38.6001 301.3 38.5001C303.5 38.4001 305.3 40.2001 305.4 42.4001C305.4 44.6001 303.7 46.4001 301.5 46.5001C295.9 46.6001 290.3 46.8001 284.8 47.2001C284.6 47.3001 284.5 47.3001 284.4 47.3001Z" fill="url(#paint3_linear_514_711)"/>
<path d="M130.998 171.968L129.003 172.113L136.619 276.94L138.614 276.795L130.998 171.968Z" fill="#E3A092"/>
<path d="M400.7 208.3C417 208.3 432.8 213.1 443.6 217.9C454.4 222.7 511.9 251.4 516.3 253.3C520.7 255.2 524.4 255.7 530.8 255.7C537.2 255.7 573.3 256.9 577.6 257.2C581.9 257.6 582.1 259.3 582.8 261.1C583.4 262.8 586 291.3 586 291.3C586 291.3 587.7 291.3 589.7 291.3C591.7 291.3 593.4 294.6 593.4 302.3C593.4 310 594.8 318.8 589.1 329.4C583.5 340 577.6 341.4 568.8 345.1C560 348.8 545 357.3 545 357.3H454C454 357.3 114.8 357.3 109.4 357.3C104 357.3 75.5002 349.9 66.4002 346.3C57.3002 342.7 55.1002 330.6 56.2002 317.7C57.3002 304.7 66.2002 288.4 76.9002 283.2C87.6002 278 109.4 275.1 130.1 272.4C150.8 269.7 198.7 263.1 198.7 263.1C198.7 263.1 210.6 253.9 221 247.1C231.5 240.3 261.5 222.6 272.5 216.3C283.5 210 301.8 208.4 308.1 208.4C315.8 208.3 384.4 208.3 400.7 208.3Z" fill="#F7CC7F"/>
<path d="M238.6 263.6C235.7 263.6 233.7 262.8 233.2 261.3C232.9 260.4 233 258.8 235.4 256.8C239.5 253.4 260.6 237.2 272.2 230.7C284 224 294.2 218.8 307.4 217.4C320.3 216 341.3 215.7 344.9 215.7H357.9C357.9 215.7 360 215.7 363.4 215.7C373.2 215.7 397.4 216 409.5 218.5C424.5 221.6 431.2 225.5 432 226L435.6 227.7C436.5 228 448 232 456 236.4C456.7 236.8 473.1 245.8 473.1 250.4V257.4L433.1 258L429.5 258.3L351.1 259.5L338 260C337.1 260 254.7 263.1 239.1 263.6C239 263.6 238.8 263.6 238.6 263.6Z" fill="#EAA93F"/>
<path d="M207.3 256.5C211.3 253.5 216.3 250 221 247C231.5 240.2 261.5 222.5 272.5 216.2C272.5 216.2 273.4 216.5 274.6 217.9C275.8 219.3 276.1 220.7 273.3 222.4C270.5 224.1 221.4 257 219.4 258.5C217.3 260 214.2 261.2 212.3 260.3C210.4 259.4 207.3 256.5 207.3 256.5Z" fill="#183658"/>
<path d="M230.9 262H225.9V268.3H230.9V262Z" fill="#EFB657"/>
<path d="M229.5 253V266.5C229.5 266.5 226 266.5 222.7 266.5C219.4 266.5 217.5 262.4 217.5 259.7C217.5 257 220.5 252.9 223.5 252.9C226.5 252.9 229.5 253 229.5 253Z" fill="#EAA93F"/>
<path d="M435.2 228.4L433.1 256.8L472.1 256.2C472.1 256.2 472.1 252.8 472.1 250.2C472.1 247.6 463.9 241.6 455.6 237C447.2 232.5 435.2 228.4 435.2 228.4Z" fill="#183658"/>
<path d="M438.4 215.7C440.3 216.4 442 217.1 443.7 217.9C452.9 221.9 495.9 243.4 511.2 250.8C511.2 250.8 507.4 250.8 502.9 250.8C498.4 250.8 496.4 248.9 491.4 246C486.4 243.1 440.7 220.3 438.4 219.4C436.1 218.5 435.8 217.7 437.1 216.7C438.4 215.7 438.4 215.7 438.4 215.7Z" fill="#183658"/>
<path d="M560 264.7C554.6 264.7 551.8 267 554.6 271.8C557.4 276.6 562.2 283.3 565.3 285.4C568.4 287.5 569.3 287.8 575.8 287.8C582.4 287.8 582.9 287.8 585 287.8C587.1 287.8 588.3 287.3 588.3 283.3C588.3 277.8 588.3 272 588.3 268.9C588.3 265.8 587.6 264.6 583.3 264.6C579 264.6 560 264.7 560 264.7Z" fill="#CF283C"/>
<path d="M586 291.2C586 291.2 587.7 291.2 589.7 291.2C591.7 291.2 593.4 294.5 593.4 302.2C593.4 309.9 594.8 318.7 589.1 329.3C583.5 339.9 577.6 341.3 568.8 345C560 348.7 545 357.2 545 357.2C545 357.2 537.1 326.4 537.1 316.4C537.1 306.4 541.7 298.6 554.4 295C567 291.4 586 291.2 586 291.2Z" fill="#EAA93F"/>
<path d="M448.4 341.7C448.4 315 470.1 293.3 496.8 293.3C523.5 293.3 545.2 315 545.2 341.7V357.2H448.4V341.7Z" fill="#183658"/>
<path d="M495.4 379.9C516.994 379.9 534.5 362.395 534.5 340.8C534.5 319.206 516.994 301.7 495.4 301.7C473.805 301.7 456.3 319.206 456.3 340.8C456.3 362.395 473.805 379.9 495.4 379.9Z" fill="#1A1A1A"/>
<path d="M495.4 368C510.422 368 522.6 355.822 522.6 340.8C522.6 325.777 510.422 313.6 495.4 313.6C480.378 313.6 468.2 325.777 468.2 340.8C468.2 355.822 480.378 368 495.4 368Z" fill="#9E9DA2"/>
<path d="M495.4 358.6C505.231 358.6 513.2 350.631 513.2 340.8C513.2 330.969 505.231 323 495.4 323C485.569 323 477.6 330.969 477.6 340.8C477.6 350.631 485.569 358.6 495.4 358.6Z" fill="#D8D9DD"/>
<path d="M106.1 341.7C106.1 315 127.8 293.3 154.5 293.3C181.2 293.3 202.9 315 202.9 341.7V357.2H106.1V341.7Z" fill="#183658"/>
<path d="M153.1 379.9C174.694 379.9 192.2 362.395 192.2 340.8C192.2 319.206 174.694 301.7 153.1 301.7C131.506 301.7 114 319.206 114 340.8C114 362.395 131.506 379.9 153.1 379.9Z" fill="#1A1A1A"/>
<path d="M153.1 368C168.122 368 180.3 355.822 180.3 340.8C180.3 325.777 168.122 313.6 153.1 313.6C138.078 313.6 125.9 325.777 125.9 340.8C125.9 355.822 138.078 368 153.1 368Z" fill="#9E9DA2"/>
<path d="M153.1 358.6C162.93 358.6 170.9 350.631 170.9 340.8C170.9 330.969 162.93 323 153.1 323C143.269 323 135.3 330.969 135.3 340.8C135.3 350.631 143.269 358.6 153.1 358.6Z" fill="#D8D9DD"/>
<path d="M56.1001 317.5C55.0001 330.5 57.2001 342.5 66.3001 346.1C75.4001 349.7 103.8 357.1 109.3 357.1C109.3 357.1 109.8 330.5 109.9 325.2C110 319.9 110.4 315.7 103.6 316C96.8001 316.5 56.1001 317.5 56.1001 317.5Z" fill="#EAA93F"/>
<path d="M85.2998 285.2C81.7998 285.2 78.2998 288.3 76.7998 290.4C75.2998 292.5 75.8998 294.7 75.5998 296C75.2998 297.2 76.8998 297.6 80.7998 297.6C84.6998 297.6 87.6998 297.6 90.1998 297.6C92.6998 297.6 94.5998 296 96.5998 293.4C98.7998 290.5 101.1 285.2 97.1998 285.2C93.3998 285.2 85.2998 285.2 85.2998 285.2Z" fill="#D03146"/>
<path d="M76.6999 283.1C72.3999 283.1 67.9 287 66.1 289.6C64.3 292.2 64.9 295 64.6 296.6C64.2 298.1 66.1999 298.6 71.1999 298.6C76.0999 298.6 79.9 298.6 83 298.6C86.1 298.6 88.5 296.6 91 293.4C93.8 289.8 96.6 283.1 91.8 283.1C87 283.1 76.6999 283.1 76.6999 283.1Z" fill="#EAFCFC"/>
<path d="M86.2002 281.5C86.2002 281.5 112.9 276 147.6 271.7C182.3 267.4 209.1 264.1 209.1 264.1L211.4 268.3L93.9002 281.5H86.2002Z" fill="#0C2E55"/>
<path d="M207.3 257.9C207.3 257.9 180.5 223.9 167.6 208.7C154.7 193.5 133 166.6 119 160.2C124.6 167.6 152.2 197 203 262.5C205.4 261.6 207.3 257.9 207.3 257.9Z" fill="#F7CC7F"/>
<path d="M329.9 278.3L301.6 279.8C300.5 279.9 299.6 279 299.6 278L299.5 276.7C299.4 275.6 300.3 274.7 301.3 274.7L329.6 273.2C330.7 273.1 331.6 274 331.6 275L331.7 276.3C331.8 277.4 331 278.3 329.9 278.3Z" fill="#EAA93F"/>
<path d="M453.3 272.1L424.9 272.9C423.8 272.9 423 272.1 422.9 271V269.7C422.9 268.6 423.7 267.8 424.8 267.7L453.2 266.9C454.3 266.9 455.1 267.7 455.2 268.8V270.1C455.2 271.2 454.3 272 453.3 272.1Z" fill="#EAA93F"/>
<path d="M223.1 349.8L223 349.4C223 349.3 220.5 341 218.9 324.1C217.4 307.2 216 270.3 216 269.9V269.4H216.5L474.4 257.6L467.7 284.2L467.5 284.3C467.3 284.4 447.1 298.7 439.5 313.7C431.9 328.7 433.5 346.6 433.5 346.8L433.6 347.3L223.1 349.8ZM217 270.4C217.2 274.9 218.5 308.3 219.9 324.1C221.2 338.9 223.4 347 223.8 348.8L432.5 346.5C432.3 343.4 431.6 327.2 438.6 313.4C446 298.9 464.9 285.1 466.8 283.7L473.1 258.7L217 270.4Z" fill="#EAA93F"/>
<path d="M346.3 348.1C346.2 347.9 340.9 329.4 339.9 308.1C338.9 286.8 341.8 264.9 341.8 264.7L342.8 264.8C342.8 265 339.9 286.9 340.9 308.1C341.9 329.3 347.2 347.7 347.3 347.8L346.3 348.1Z" fill="#EAA93F"/>
<path d="M294.1 221.3L300.9 260.4C304.1 260.3 307.2 260.2 310.2 260.1L303.1 219.1C300 219.5 297 220.3 294.1 221.3Z" fill="#183658"/>
<path d="M272.7 231.5C261 238.1 239.9 254.3 236.1 257.5C232.2 260.7 234.5 262.7 239.2 262.5C247.1 262.2 271.7 261.3 294.4 260.5L288 223.6C282.9 225.9 278 228.5 272.7 231.5Z" fill="#183658"/>
<path d="M316.7 217.6L324 259.5C332.5 259.2 338 259 338 259C338 259 343.9 226.2 344.3 223.4C344.7 220.6 344.7 220.2 344.9 216.7C342.8 216.6 328.9 216.8 316.7 217.6Z" fill="#183658"/>
<path d="M287.9 223.7L294.3 260.6C296.5 260.5 298.8 260.4 300.9 260.4L294.1 221.3C292 222 289.9 222.8 287.9 223.7Z" fill="#2D4A69"/>
<path d="M307.5 218.3C306 218.5 304.5 218.7 303.1 218.9L310.2 259.9C315.3 259.7 320 259.5 324 259.4L316.7 217.5C313.4 217.8 310.3 218 307.5 218.3Z" fill="#2D4A69"/>
<path d="M383.2 217L390.3 257.7L394.4 257.6L387.4 217.2C386 217.1 384.6 217 383.2 217Z" fill="#183658"/>
<path d="M358 216.6L351.2 258.1L383.7 257.6L376.6 216.6C366.2 216.5 358 216.6 358 216.6Z" fill="#183658"/>
<path d="M431.5 226.7C431.5 226.7 424.9 222.6 409.3 219.3C408.5 219.1 407.6 219 406.7 218.8L413.4 257.2L429.5 257L431.5 226.7Z" fill="#183658"/>
<path d="M376.5 216.8L383.6 257.8L390.3 257.7L383.2 217C380.9 216.9 378.7 216.8 376.5 216.8Z" fill="#2D4A69"/>
<path d="M387.4 217.101L394.4 257.501L413.4 257.201L406.7 218.801C401.4 218.001 394.4 217.501 387.4 217.101Z" fill="#2D4A69"/>
<path d="M149.8 219.4L147.6 221.6L151.2 225.2C151.2 225.2 150.6 227.5 151.9 229.6C153.3 231.7 155.6 231.4 155.6 231.4L153.9 229V226.7H156.2L158.4 228.9C158.4 228.9 159 226 157.3 224.5C155.5 222.9 153.7 223.3 153.7 223.3L149.8 219.4Z" fill="#14395E"/>
<path d="M121.8 186.6C121.8 186.6 122.7 192.2 121 196.3C119.4 200.4 112.7 207 108.6 204.8C104.5 202.6 102.1 199 102.2 195.2C102.2 191.4 104.4 182.8 108.3 182.7C112.3 182.6 121.8 186.6 121.8 186.6Z" fill="#F7A491"/>
<path d="M107.7 214.9L122 233.8L115.6 243.2L99.2998 227.7L102.2 216.9L107.7 214.9Z" fill="#B75742"/>
<path d="M107 211.8C108.3 213 107.7 214.9 107 217.2C106.3 219.5 88.0001 241.9 88.0001 241.9L64.6001 221.8C64.6001 221.8 80.8001 204.3 84.1001 201.3C87.8001 197.9 92.9001 197.9 95.6001 199.9C96.9001 200.9 98.1001 202.4 98.1001 202.4L105.1 209.6L107 211.8Z" fill="#F57458"/>
<path d="M121.7 234.2C121.7 234.2 122.8 235.2 123.7 235.8C124.6 236.4 126.2 234.6 128.4 232.3C130.6 230 138.8 223.5 140 221.5C141.3 219.5 139.7 216.3 141 214.9C142.3 213.5 145 210.4 146.6 212C148.2 213.5 149.5 215.2 150.6 216.4C151.7 217.6 151.4 218.3 149.9 220.4C148.4 222.5 146.6 223.3 145.4 224.7C144.2 226.1 129.7 244.6 127.7 247.1C125.7 249.5 123.6 247.9 121.4 246.6C119.2 245.3 116.1 242.6 116.1 242.6L121.7 234.2Z" fill="#F7A491"/>
<path d="M103.3 198.6C103.3 198.6 98.4001 202.3 95.0001 204C91.6001 205.7 97.0001 214.3 99.5001 214.6C102 214.9 109.4 203.4 109.4 203.4L103.3 198.6Z" fill="#F7A491"/>
<path d="M90.1001 239.6C90.1001 239.6 89.9001 242.7 90.1001 244.7C90.3001 246.7 91.3001 247.5 93.9001 250.5C96.5001 253.5 112.7 270.4 114 271.7C115.3 273 114.4 276.7 114.6 278.7C114.8 280.6 115.3 283.3 116.8 284.5C118.3 285.7 121.1 286.5 122.5 285.7C124 284.9 123.7 283 122.5 281.2C121.3 279.4 120.6 274.2 122 276.1C123.4 277.9 124.3 279.5 125.3 278.9C126.3 278.3 124.2 276 123.8 274.4C123.3 272.9 122.3 270.9 120.6 269.9C119 268.9 109.7 257.3 107 253.3C104.3 249.2 98.6001 244.6 98.1001 241.9C97.6001 239.2 97.8001 237.1 97.8001 237.1L90.1001 239.6Z" fill="#F7A491"/>
<path d="M143.3 217.8L145.5 215.6L141.9 212C141.9 212 142.5 209.7 141.2 207.6C139.8 205.5 137.5 205.8 137.5 205.8L139.2 208.2V210.5H136.9L134.7 208.3C134.7 208.3 134.1 211.2 135.8 212.7C137.6 214.3 139.4 213.9 139.4 213.9L143.3 217.8Z" fill="#14395E"/>
<path d="M38.2 264.1C38.2 264.1 36.9 295.5 35 313.1C33.1 330.7 26.5 364.6 26.5 364.6H35.4C35.4 364.6 46.6 329.3 48.5 316.4C50.5 303.5 53.7 284.5 53.7 284.5L38.2 264.1Z" fill="#0A253A"/>
<path d="M85.1 214.6L73.4 227.2L66.1 220.1C66.1 220.1 43.5 249.6 40.5 253.9C37.5 258.2 37.1 265.6 40.5 276.5C47 297 53.5 312.1 54.7 320.3C55.9 328.6 60 368.3 60 368.3H69C69 368.3 71.2 322.8 70.5 310.2C69.9 297.7 68 271.2 67.9 267.5C67.8 263.8 70 262.3 72.4 259.8C74.9 257.2 89.2 240.3 89.2 240.3L78.7 231.5L89.2 219.4L85.1 214.6Z" fill="#13375B"/>
<path d="M27.6999 364.6L26.3999 371.2H34.6999L34.3999 364.6H27.6999Z" fill="#F7A491"/>
<path d="M68.1999 368.4H60.3999V374H68.1999V368.4Z" fill="#F7A491"/>
<path d="M26.3999 371.2L25.3999 373.4V376L45.8999 378V375.9L34.6999 371.2H26.3999Z" fill="#0D345A"/>
<path d="M60.3999 374L59.3999 375.7V378.8H80.0999V376.5L68.1999 374H60.3999Z" fill="#0D345A"/>
<path d="M95.3998 199.9C92.8998 197.6 87.4998 197.8 83.8998 201.3C81.8998 203.3 83.5998 210.9 84.2998 217.1C84.9998 223.3 89.6998 239.7 89.6998 239.7L98.5998 236.7C98.5998 236.8 99.5998 203.9 95.3998 199.9Z" fill="#B75742"/>
<path d="M102.9 198.2C101.4 198.1 100.5 192.8 100.8 188.5C101.1 184.2 105 177.2 112.6 177C120.2 176.8 124.1 181.5 124.3 185C124.5 188.5 123 187.4 122.2 187.6C121.4 187.8 119.6 186.1 116 186.1C112.4 186.1 111.9 192.1 110.1 192.3C108.3 192.5 108.6 188.5 106.4 188.8C104.2 189.1 104.2 193.7 105.4 195.3C106.5 196.8 104.9 198.3 102.9 198.2Z" fill="#13375B"/>
<path d="M452 368.6H200.5C198.8 368.6 197.3 367.2 197.3 365.4V356.2C197.3 354.5 198.7 353 200.5 353H452C453.7 353 455.2 354.4 455.2 356.2V365.4C455.1 367.2 453.7 368.6 452 368.6Z" fill="#EAA93F"/>
<defs>
<linearGradient id="paint0_linear_514_711" x1="133.3" y1="438.52" x2="496.216" y2="173.896" gradientUnits="userSpaceOnUse">
<stop stop-color="white" stop-opacity="0.1"/>
<stop offset="1" stop-color="white" stop-opacity="0.5"/>
</linearGradient>
<linearGradient id="paint1_linear_514_711" x1="141.739" y1="156.489" x2="435.538" y2="434.638" gradientUnits="userSpaceOnUse">
<stop stop-color="white" stop-opacity="0.5"/>
<stop offset="1" stop-color="white" stop-opacity="0.2"/>
</linearGradient>
<linearGradient id="paint2_linear_514_711" x1="404.434" y1="303.398" x2="243.131" y2="514.004" gradientUnits="userSpaceOnUse">
<stop stop-color="white" stop-opacity="0.1"/>
<stop offset="1" stop-color="white" stop-opacity="0.5"/>
</linearGradient>
<linearGradient id="paint3_linear_514_711" x1="75.6633" y1="421.063" x2="564.72" y2="167.753" gradientUnits="userSpaceOnUse">
<stop stop-color="white" stop-opacity="0.7"/>
<stop offset="1" stop-color="white"/>
</linearGradient>
</defs>
</svg>
