<svg width="621" height="599" viewBox="0 0 621 599" fill="none" xmlns="http://www.w3.org/2000/svg">
<path d="M307.5 543C245.4 543 187 518.9 143.1 475.2C99.2 431.5 75 373.3 75 311.5C75 249.6 99.2 191.5 143.1 147.8C187 104.1 245.4 80 307.5 80C369.6 80 428 104.1 471.9 147.8C515.8 191.5 540 249.7 540 311.5C540 373.3 515.8 431.5 471.9 475.2C428 518.9 369.6 543 307.5 543ZM307.5 112C196.9 112 107 201.5 107 311.5C107 421.5 196.9 511 307.5 511C418.1 511 508 421.5 508 311.5C508 201.5 418.1 112 307.5 112Z" fill="url(#paint0_linear_639_652)"/>
<path d="M306 472C394.366 472 466 400.366 466 312C466 223.634 394.366 152 306 152C217.634 152 146 223.634 146 312C146 400.366 217.634 472 306 472Z" fill="url(#paint1_linear_639_652)"/>
<path d="M327 517C221.6 517 139 467.6 139 404.5C139 341.4 221.6 292 327 292C432.4 292 515 341.4 515 404.5C515 467.6 432.4 517 327 517ZM327 328C284.6 328 245 337 215.5 353.4C189.7 367.7 175 386.3 175 404.5C175 422.6 189.8 441.3 215.5 455.6C245 472 284.6 481 327 481C369.4 481 409 472 438.5 455.6C464.3 441.3 479 422.7 479 404.5C479 386.4 464.2 367.7 438.5 353.4C409 337 369.4 328 327 328Z" fill="url(#paint2_linear_639_652)"/>
<path d="M320.1 560.4C317.9 560.4 316.1 558.7 316.1 556.5C316.1 554.3 317.8 552.5 320 552.4C325.6 552.3 331.2 552 336.7 551.6C338.9 551.4 340.8 553.1 341 555.3C341.2 557.5 339.5 559.4 337.3 559.6C331.6 560 325.8 560.3 320.1 560.4ZM301.1 560.1C301 560.1 301 560.1 300.9 560.1C295.2 559.8 289.4 559.3 283.7 558.7C281.5 558.5 279.9 556.5 280.2 554.3C280.4 552.1 282.4 550.5 284.6 550.8C290.1 551.4 295.8 551.9 301.3 552.2C303.5 552.3 305.2 554.2 305.1 556.4C305 558.4 303.2 560.1 301.1 560.1ZM355.9 557.5C353.9 557.5 352.2 556.1 351.9 554.1C351.6 551.9 353.1 549.9 355.3 549.6C360.8 548.8 366.3 547.8 371.8 546.7C374 546.2 376.1 547.6 376.5 549.8C376.9 552 375.6 554.1 373.4 554.5C367.8 555.7 362.1 556.7 356.4 557.5C356.3 557.5 356.1 557.5 355.9 557.5ZM265.3 556C265.1 556 264.8 556 264.6 555.9C259 554.9 253.3 553.7 247.7 552.4C245.6 551.9 244.2 549.7 244.7 547.6C245.2 545.5 247.4 544.1 249.5 544.6C254.9 545.9 260.4 547 265.9 548C268.1 548.4 269.5 550.5 269.1 552.6C268.9 554.6 267.2 556 265.3 556ZM391.1 550C389.4 550 387.8 548.8 387.3 547.1C386.7 545 387.9 542.8 390.1 542.2C395.4 540.7 400.8 539 406 537.2C408.1 536.5 410.4 537.6 411.1 539.7C411.8 541.8 410.7 544.1 408.6 544.8C403.2 546.7 397.7 548.4 392.2 550C391.8 550 391.4 550 391.1 550ZM230.4 547.5C230 547.5 229.6 547.4 229.2 547.3C223.7 545.6 218.3 543.7 212.9 541.7C210.8 540.9 209.8 538.6 210.6 536.5C211.4 534.4 213.7 533.4 215.8 534.2C221 536.2 226.3 538 231.6 539.7C233.7 540.4 234.9 542.6 234.2 544.7C233.7 546.4 232.1 547.5 230.4 547.5ZM424.9 538C423.4 538 421.9 537.1 421.2 535.6C420.3 533.6 421.3 531.2 423.3 530.3C428.4 528.1 433.5 525.7 438.4 523.2C440.4 522.2 442.8 523 443.8 525C444.8 527 444 529.4 442 530.4C436.9 533 431.7 535.4 426.4 537.7C426 537.9 425.5 538 424.9 538ZM196.8 534.6C196.2 534.6 195.7 534.5 195.1 534.2C189.9 531.8 184.7 529.2 179.7 526.5C177.8 525.5 177 523 178.1 521.1C179.1 519.2 181.6 518.4 183.5 519.5C188.4 522.1 193.5 524.6 198.5 526.9C200.5 527.8 201.4 530.2 200.5 532.2C199.8 533.7 198.3 534.6 196.8 534.6ZM456.9 521.6C455.5 521.6 454.2 520.9 453.5 519.7C452.4 517.8 453 515.3 454.9 514.2C459.7 511.3 464.4 508.3 469 505.1C470.8 503.8 473.3 504.3 474.6 506.1C475.9 507.9 475.4 510.4 473.6 511.7C468.9 514.9 464 518.1 459.1 521C458.3 521.4 457.6 521.6 456.9 521.6ZM165.1 517.5C164.4 517.5 163.6 517.3 163 516.9C158.1 513.9 153.3 510.6 148.7 507.3C146.9 506 146.5 503.5 147.8 501.7C149.1 499.9 151.6 499.5 153.4 500.8C157.9 504 162.6 507.2 167.3 510.1C169.2 511.3 169.7 513.7 168.6 515.6C167.8 516.9 166.5 517.5 165.1 517.5ZM486.4 501C485.2 501 484.1 500.5 483.3 499.5C481.9 497.8 482.2 495.3 483.9 493.9C488.2 490.4 492.5 486.7 496.6 483C498.2 481.5 500.8 481.6 502.3 483.2C503.8 484.8 503.7 487.4 502.1 488.9C497.9 492.8 493.5 496.5 489 500.1C488.2 500.8 487.3 501 486.4 501ZM135.9 496.4C135 496.4 134.1 496.1 133.4 495.5C129 491.8 124.6 488 120.4 484.1C118.8 482.6 118.7 480.1 120.2 478.4C121.7 476.8 124.2 476.7 125.9 478.2C130 482 134.2 485.7 138.5 489.3C140.2 490.7 140.4 493.2 139 494.9C138.2 495.9 137.1 496.4 135.9 496.4ZM512.8 476.6C511.8 476.6 510.8 476.2 510.1 475.5C508.5 474 508.4 471.5 509.9 469.8C513.7 465.7 517.4 461.5 520.9 457.2C522.3 455.5 524.8 455.2 526.5 456.6C528.2 458 528.5 460.5 527.1 462.2C523.5 466.6 519.6 471 515.7 475.2C515 476.2 513.9 476.6 512.8 476.6ZM109.8 471.7C108.7 471.7 107.7 471.3 106.9 470.4C103 466.2 99.1998 461.8 95.5998 457.4C94.1998 455.7 94.4998 453.2 96.1998 451.8C97.8998 450.4 100.4 450.7 101.8 452.4C105.3 456.7 109 461 112.8 465C114.3 466.6 114.2 469.2 112.6 470.7C111.7 471.4 110.8 471.7 109.8 471.7ZM535.5 448.7C534.7 448.7 533.9 448.5 533.2 448C531.4 446.7 531 444.2 532.2 442.4C535.4 437.8 538.5 433.1 541.3 428.4C542.4 426.5 544.9 425.9 546.8 427C548.7 428.1 549.3 430.6 548.2 432.5C545.2 437.4 542.1 442.3 538.8 447C538 448.1 536.8 448.7 535.5 448.7ZM87.1998 443.7C85.8998 443.7 84.6998 443.1 83.8998 442C80.5998 437.3 77.3998 432.4 74.3998 427.6C73.1998 425.7 73.7998 423.3 75.6998 422.1C77.5998 420.9 79.9998 421.5 81.1998 423.4C84.0998 428.1 87.1998 432.8 90.3998 437.4C91.6998 439.2 91.1998 441.7 89.3998 443C88.7998 443.5 87.9998 443.7 87.1998 443.7ZM554 417.9C553.4 417.9 552.8 417.8 552.2 417.5C550.2 416.5 549.4 414.1 550.4 412.1C552.9 407.1 555.2 402 557.4 396.9C558.3 394.9 560.6 393.9 562.6 394.8C564.6 395.7 565.6 398 564.7 400C562.5 405.3 560.1 410.6 557.5 415.7C556.9 417.1 555.5 417.9 554 417.9ZM68.5998 412.9C67.0998 412.9 65.6998 412.1 64.9998 410.7C62.3998 405.6 59.8998 400.3 57.5998 395.1C56.6998 393.1 57.6998 390.7 59.6998 389.8C61.6998 388.9 64.0998 389.9 64.9998 391.9C67.1998 397 69.5998 402.1 72.0998 407C73.0998 409 72.2998 411.4 70.3998 412.4C69.7998 412.8 69.1998 412.9 68.5998 412.9ZM567.7 384.6C567.3 384.6 566.9 384.5 566.4 384.4C564.3 383.7 563.2 381.4 563.9 379.4C565.6 374.1 567.2 368.7 568.6 363.4C569.1 361.3 571.3 360 573.5 360.5C575.6 361 576.9 363.2 576.4 365.4C575 371 573.4 376.5 571.6 382C571 383.5 569.4 384.6 567.7 384.6ZM54.3998 379.9C52.6998 379.9 51.1998 378.9 50.5998 377.2C48.6998 371.8 46.9998 366.2 45.4998 360.7C44.8998 358.6 46.1998 356.4 48.2998 355.8C50.3998 355.2 52.5998 356.5 53.1998 358.6C54.6998 363.9 56.2998 369.3 58.0998 374.6C58.7998 376.7 57.6998 379 55.5998 379.7C55.2998 379.8 54.8998 379.9 54.3998 379.9ZM576.5 349.7C576.3 349.7 576 349.7 575.8 349.6C573.6 349.2 572.2 347.2 572.5 345C573.5 339.5 574.2 334 574.8 328.4C575 326.2 577 324.6 579.2 324.8C581.4 325 583 327 582.8 329.2C582.2 334.9 581.4 340.7 580.4 346.3C580.1 348.4 578.4 349.7 576.5 349.7ZM45.0998 345.1C43.1998 345.1 41.4998 343.8 41.1998 341.8C40.0998 336.2 39.1998 330.4 38.5998 324.8C38.2998 322.6 39.8998 320.6 42.0998 320.4C44.2998 320.1 46.2998 321.7 46.4998 323.9C47.1998 329.4 47.9998 334.9 49.0998 340.4C49.4998 342.6 48.0998 344.7 45.8998 345.1C45.5998 345.1 45.3998 345.1 45.0998 345.1ZM580 313.9C577.7 313.8 575.9 312 576 309.8C576.1 307.8 576.1 305.7 576.1 303.6C576.1 300.1 576 296.5 575.9 293C575.8 290.8 577.5 288.9 579.7 288.8C581.9 288.7 583.8 290.4 583.9 292.6C584.1 296.2 584.1 299.9 584.1 303.5C584.1 305.6 584.1 307.8 584 309.9C583.9 312.2 582.2 313.9 580 313.9ZM40.9998 309.4C38.8998 309.4 37.0998 307.7 36.9998 305.6C36.8998 302.2 36.7998 298.7 36.7998 295.3C36.7998 293 36.7998 290.7 36.8998 288.4C36.9998 286.2 38.7998 284.5 40.9998 284.5C43.1998 284.6 44.8998 286.4 44.8998 288.6C44.7998 290.8 44.7998 293.1 44.7998 295.3C44.7998 298.6 44.8998 302 44.9998 305.3C45.0998 307.5 43.3998 309.4 41.1998 309.5C41.0998 309.4 41.0998 309.4 40.9998 309.4ZM578.3 278C576.3 278 574.6 276.5 574.3 274.5C573.6 269 572.8 263.4 571.7 258C571.3 255.8 572.7 253.7 574.9 253.3C577.1 252.9 579.2 254.3 579.6 256.5C580.7 262.1 581.6 267.9 582.3 273.5C582.6 275.7 581 277.7 578.8 278C578.6 278 578.4 278 578.3 278ZM42.1998 273.5C42.0998 273.5 41.8998 273.5 41.7998 273.5C39.5998 273.3 37.9998 271.3 38.1998 269.1C38.7998 263.4 39.5998 257.7 40.5998 252C40.9998 249.8 43.0998 248.4 45.1998 248.8C47.3998 249.2 48.7998 251.3 48.3998 253.4C47.3998 258.9 46.5998 264.5 46.0998 270C45.8998 272 44.1998 273.5 42.1998 273.5ZM571.3 242.8C569.5 242.8 567.9 241.6 567.4 239.9C565.9 234.6 564.3 229.2 562.4 223.9C561.7 221.8 562.8 219.5 564.9 218.8C567 218.1 569.3 219.2 570 221.3C571.9 226.7 573.6 232.3 575.1 237.8C575.7 239.9 574.4 242.1 572.3 242.7C572 242.7 571.7 242.8 571.3 242.8ZM48.4998 238.1C48.1998 238.1 47.7998 238.1 47.4998 238C45.3998 237.5 44.0998 235.3 44.5998 233.1C45.9998 227.5 47.6998 222 49.4998 216.5C50.1998 214.4 52.4998 213.3 54.5998 214C56.6998 214.7 57.7998 217 57.0998 219.1C55.3998 224.4 53.7998 229.8 52.3998 235.1C51.8998 236.9 50.2998 238.1 48.4998 238.1ZM559.4 208.9C557.9 208.9 556.4 208 555.7 206.5C553.5 201.4 551.1 196.3 548.5 191.4C547.5 189.4 548.3 187 550.2 186C552.2 185 554.6 185.8 555.6 187.7C558.2 192.8 560.7 198 563 203.3C563.9 205.3 563 207.7 560.9 208.6C560.4 208.8 559.9 208.9 559.4 208.9ZM59.9998 204C59.4998 204 58.9998 203.9 58.4998 203.7C56.4998 202.8 55.4998 200.5 56.3998 198.5C58.5998 193.2 61.0998 187.9 63.6998 182.8C64.6998 180.8 67.0998 180 69.0998 181C71.0998 182 71.8998 184.4 70.8998 186.4C68.3998 191.4 65.9998 196.5 63.8998 201.6C62.9998 203.1 61.5998 204 59.9998 204ZM542.7 177C541.4 177 540 176.3 539.3 175.1C536.4 170.4 533.3 165.7 530.1 161.1C528.8 159.3 529.3 156.8 531.1 155.5C532.9 154.2 535.4 154.7 536.7 156.5C540 161.2 543.2 166 546.2 170.9C547.4 172.8 546.8 175.2 544.9 176.4C544.2 176.8 543.4 177 542.7 177ZM76.3998 172C75.6998 172 74.9998 171.8 74.2998 171.4C72.3998 170.3 71.7998 167.8 72.9998 165.9C75.9998 161 79.1998 156.1 82.4998 151.4C83.7998 149.6 86.2998 149.2 88.0998 150.4C89.8998 151.7 90.2998 154.2 89.0998 156C85.8998 160.5 82.7998 165.3 79.8998 170C78.9998 171.3 77.6998 172 76.3998 172ZM521.9 147.6C520.7 147.6 519.6 147.1 518.8 146.1C515.3 141.8 511.6 137.6 507.8 133.5C506.3 131.9 506.4 129.4 508 127.8C509.6 126.2 512.1 126.4 513.7 128C517.6 132.2 521.4 136.6 525.1 141C526.5 142.7 526.2 145.2 524.5 146.6C523.7 147.3 522.8 147.6 521.9 147.6ZM97.1998 142.7C96.2998 142.7 95.3998 142.4 94.6998 141.8C92.9998 140.4 92.7998 137.9 94.1998 136.2C97.7998 131.8 101.7 127.4 105.6 123.3C107.1 121.7 109.6 121.6 111.3 123.1C112.9 124.6 113 127.1 111.5 128.8C107.7 132.8 104 137.1 100.4 141.3C99.4998 142.2 98.2998 142.7 97.1998 142.7ZM497.3 121.4C496.3 121.4 495.3 121 494.6 120.3C490.5 116.5 486.3 112.8 482 109.2C480.3 107.8 480.1 105.3 481.5 103.6C482.9 101.9 485.4 101.7 487.1 103.1C491.5 106.7 495.9 110.6 500.1 114.5C501.7 116 501.8 118.5 500.3 120.2C499.4 121 498.3 121.4 497.3 121.4ZM122 116.6C120.9 116.6 119.8 116.2 119 115.3C117.5 113.7 117.6 111.1 119.3 109.6C123.5 105.7 127.9 102 132.4 98.4001C134.1 97.0001 136.6 97.3001 138 99.0001C139.4 100.7 139.1 103.2 137.4 104.6C133.1 108.1 128.8 111.7 124.7 115.5C123.9 116.3 123 116.6 122 116.6ZM469.4 98.6001C468.6 98.6001 467.8 98.4001 467.1 97.9001C462.6 94.7001 457.9 91.5001 453.2 88.6001C451.3 87.4001 450.8 85.0001 451.9 83.1001C453.1 81.2001 455.5 80.7001 457.4 81.8001C462.3 84.8001 467.1 88.1001 471.8 91.4001C473.6 92.7001 474 95.2001 472.7 97.0001C471.9 98.0001 470.6 98.6001 469.4 98.6001ZM150.2 94.3001C148.9 94.3001 147.7 93.7001 146.9 92.6001C145.6 90.8001 146.1 88.3001 147.9 87.0001C152.6 83.8001 157.5 80.6001 162.4 77.7001C164.3 76.6001 166.8 77.2001 167.9 79.1001C169 81.0001 168.4 83.5001 166.5 84.6001C161.7 87.5001 157 90.5001 152.4 93.6001C151.7 94.0001 150.9 94.3001 150.2 94.3001ZM438.8 79.7001C438.2 79.7001 437.5 79.5001 436.9 79.2001C432 76.6001 426.9 74.1001 421.9 71.8001C419.9 70.9001 419 68.5001 419.9 66.5001C420.8 64.5001 423.2 63.6001 425.2 64.5001C430.4 66.9001 435.6 69.4001 440.7 72.1001C442.6 73.1001 443.4 75.6001 442.4 77.5001C441.6 78.9001 440.2 79.7001 438.8 79.7001ZM181.1 75.9001C179.6 75.9001 178.2 75.1001 177.5 73.7001C176.5 71.7001 177.3 69.3001 179.3 68.3001C184.4 65.7001 189.7 63.3001 194.9 61.0001C196.9 60.1001 199.3 61.1001 200.2 63.1001C201.1 65.1001 200.1 67.5001 198.1 68.4001C193 70.6001 187.9 73.0001 182.9 75.5001C182.3 75.8001 181.7 75.9001 181.1 75.9001ZM406 64.8001C405.5 64.8001 405.1 64.7001 404.6 64.5001C399.4 62.5001 394.1 60.7001 388.8 59.1001C386.7 58.4001 385.5 56.2001 386.2 54.1001C386.9 52.0001 389.1 50.8001 391.2 51.5001C396.7 53.2001 402.2 55.1001 407.5 57.1001C409.6 57.9001 410.6 60.2001 409.8 62.3001C409.2 63.9001 407.6 64.8001 406 64.8001ZM214.2 61.9001C212.5 61.9001 211 60.9001 210.4 59.2001C209.7 57.1001 210.8 54.8001 212.9 54.1001C218.3 52.2001 223.8 50.5001 229.3 48.9001C231.4 48.3001 233.6 49.5001 234.2 51.7001C234.8 53.8001 233.6 56.0001 231.4 56.6001C226.1 58.1001 220.7 59.8001 215.4 61.6001C215.1 61.8001 214.6 61.9001 214.2 61.9001ZM371.6 54.3001C371.3 54.3001 371 54.3001 370.7 54.2001C365.3 52.9001 359.8 51.8001 354.3 50.8001C352.1 50.4001 350.7 48.3001 351.1 46.2001C351.5 44.0001 353.6 42.6001 355.7 43.0001C361.3 44.0001 367 45.2001 372.6 46.5001C374.7 47.0001 376.1 49.2001 375.6 51.3001C375.1 53.1001 373.4 54.3001 371.6 54.3001ZM248.8 52.3001C246.9 52.3001 245.3 51.0001 244.9 49.1001C244.5 46.9001 245.8 44.8001 248 44.4001C253.6 43.2001 259.3 42.2001 265 41.4001C267.2 41.1001 269.2 42.6001 269.5 44.8001C269.8 47.0001 268.3 49.0001 266.1 49.3001C260.6 50.1001 255 51.1001 249.6 52.2001C249.3 52.3001 249.1 52.3001 248.8 52.3001ZM337.3 48.3001C337.1 48.3001 337 48.3001 336.8 48.3001C331.3 47.7001 325.6 47.2001 320.1 46.9001C317.9 46.8001 316.2 44.9001 316.3 42.7001C316.4 40.5001 318.3 38.8001 320.5 38.9001C326.2 39.2001 332 39.7001 337.7 40.3001C339.9 40.5001 341.5 42.5001 341.2 44.7001C341.1 46.8001 339.3 48.3001 337.3 48.3001ZM284.4 47.3001C282.3 47.3001 280.6 45.7001 280.4 43.6001C280.2 41.4001 281.9 39.5001 284.1 39.3001C289.8 38.9001 295.6 38.6001 301.3 38.5001C303.5 38.4001 305.3 40.2001 305.4 42.4001C305.4 44.6001 303.7 46.4001 301.5 46.5001C295.9 46.6001 290.3 46.8001 284.8 47.2001C284.6 47.3001 284.5 47.3001 284.4 47.3001Z" fill="url(#paint3_linear_639_652)"/>
<path d="M259.3 464.4C293.5 464.4 321.4 436.4 321.4 402.3C321.4 367.9 293.7 340.2 259.3 340.2C225.1 340.2 197.2 368.2 197.2 402.3C197.2 436.4 224.9 464.4 259.3 464.4Z" fill="#F58A97"/>
<path d="M334.2 378.2C330.8 366.8 324.6 356.2 316.6 347.6C308.6 338.8 298.5 332.1 287.3 327.9C276.2 323.8 264.3 321.9 252.3 323C240.4 324 229 327.9 218.9 334.1C207.2 341.4 197.7 351.4 190.9 363.4C184.7 374.8 181.3 387.5 181.3 400.4C181.3 413.3 184.4 426 190.4 437.4C196.4 448.8 205.2 458.6 215.8 465.9C226.4 473.2 238.8 477.6 251.5 478.8C264.4 480.1 277.1 478.3 289 473.4C300.9 468.5 311.5 460.7 319.6 450.6C327.9 440.5 333.3 428.8 335.9 416.2C338.6 403.6 338.1 390.6 334.2 378.2ZM259.6 460.3C247.9 460.3 236.6 456.9 226.7 450.2C217.1 443.7 209.4 434.4 204.9 423.5C200.5 412.6 199.2 400.7 201.5 389.3C203.8 377.9 209.3 367.3 217.6 359C225.9 350.7 236.2 345 247.9 342.7C259.3 340.4 271.2 341.7 282.1 346.1C293 350.5 302 358.3 308.5 367.9C315 377.7 318.3 389.1 318.3 400.8C318.3 416.6 312.1 431.6 301 442.7C290.2 454.1 275.1 460.3 259.6 460.3Z" fill="#EB5569"/>
<path d="M242.8 400C251.1 400 257.6 393.3 257.6 385C257.6 376.7 250.9 370 242.8 370C234.5 370 228 376.7 228 385C228 393.2 234.5 400 242.8 400Z" fill="#EB5569"/>
<path d="M189.7 336C189.7 336.5 189.7 336.8 189.7 337.3C189.4 341.7 187.6 345.8 184.5 348.7C181.4 351.8 177.2 353.4 172.8 353.4C168.4 353.4 164.3 351.6 161.4 348.5C158.3 345.4 156.7 341.2 156.7 336.8C156.7 332.4 158.5 328.3 161.4 325.1C164.5 322 168.7 320.2 172.8 320.2C177.2 320.2 181.3 321.8 184.5 324.9C187.9 327.7 189.7 331.9 189.7 336Z" fill="#EB5569"/>
<path d="M205.5 344.5C199.8 349.9 194.9 356.4 191 363.7C190.2 360.9 188.7 358.3 186.6 356.2C184.5 354.1 181.9 352.6 179.1 351.8C182.2 350.8 184.8 348.7 186.6 346.1C188.4 343.5 189.7 340.4 190 337.3C191.6 339.6 193.6 341.4 196 342.7C198.3 344 201.2 344.8 203.8 344.5C204.2 344.5 205 344.5 205.5 344.5Z" fill="#EB5569"/>
<path d="M334.2 460.8C334.2 460.5 334.2 460 334.2 459.8C334.2 456.7 335 453.6 336.5 450.7C338.1 447.9 340.6 445.8 343.5 444.5C345.3 443.7 347.1 443.2 349.2 442.9C352.6 442.6 355.7 443.2 358.5 445C361.3 446.6 363.7 448.9 365.2 452C366.8 454.8 367.3 458.2 367 461.6C366.7 465 365.4 468.1 363.4 470.4C361.3 473 358.5 474.8 355.4 475.8C352.3 476.8 348.9 476.8 345.8 475.8C342.7 474.8 339.8 473 337.8 470.4C335.7 467 334.4 463.9 334.2 460.8Z" fill="#EB5569"/>
<path d="M317.6 453.8C322.8 447.8 327.2 440.9 330.3 433.3C331.3 436.1 333.1 438.5 335.2 440.3C337.3 442.1 340.1 443.4 343.2 443.9C340.4 445.2 338 447.5 336.2 450.1C334.6 452.9 333.6 456.1 333.9 459.2C332.1 457.1 330 455.3 327.4 454.3C324.8 453.3 322.2 452.7 319.4 453C318.9 453.6 318.4 453.6 317.6 453.8Z" fill="#EB5569"/>
<path d="M254.4 298.5C254.1 299 253.6 299.3 253.1 299.8C248.4 304.2 242.5 306.5 236.3 306.5C230.1 306.5 223.9 303.9 219.5 299.5C215.1 294.8 212.5 288.9 212.5 282.4C212.5 276.2 214.8 270 219.2 265.3C223.6 260.6 229.6 258 235.8 258C242 257.7 248.2 260.1 252.9 264.5C257.6 268.9 260.2 274.9 260.7 281.1C260.9 287.6 258.6 293.5 254.4 298.5Z" fill="#EB5569"/>
<path d="M263.2 323.1C251.5 323.4 239.9 325.7 228.8 329.6C230.9 325.7 231.6 321.3 231.4 317.2C231.1 312.8 229.8 308.7 227.3 305C231.7 306.8 236.4 307.1 241 306.3C245.7 305.3 249.8 303.2 253.2 299.8C252.7 304.2 253.2 308.9 255 313C256.8 316.8 259.6 320.5 263.2 323.1Z" fill="#EB5569"/>
<path d="M362.1 407.2C361.6 406.7 361.3 406.4 361.1 405.9C357.2 401 355.4 394.5 356.2 388.3C356.7 382.1 359.8 376.1 364.5 372C366.1 370.7 367.9 369.4 369.7 368.4C373.8 366.3 378.5 365.3 383.2 365.8C387.9 366.1 392.3 367.9 396.1 370.7C399.7 373.5 402.8 377.2 404.4 381.6C406.2 386 406.5 390.7 405.7 395.3C404.9 399.9 402.6 404.1 399.5 407.5C396.4 410.9 392.2 413.5 387.8 414.8C383.4 416.1 378.5 416.1 374.1 414.5C369.4 413.2 365.3 410.6 362.1 407.2Z" fill="#EB5569"/>
<path d="M336.3 413.4C337.3 401.2 336.6 389.3 334 377.4C337.6 380 342 381.3 346.4 381.5C350.8 381.8 355.2 380.7 359.1 378.7C356.8 382.8 355.7 387.8 356.3 392.4C356.6 397.1 358.4 401.7 361.2 405.6C357.3 404.6 353.2 404.6 349 405.3C345.1 406.3 341.2 408.1 338.4 411C337.5 411.9 336.8 412.6 336.3 413.4Z" fill="#EB5569"/>
<path d="M163 295.6C172.1 295.6 179.6 288.1 179.6 279C179.6 269.7 172.1 262.4 163 262.4C153.9 262.4 146.4 269.9 146.4 279C146.4 288.1 154 295.6 163 295.6Z" fill="#EB5569"/>
<path d="M158.9 506.4C164.6 506.4 169 501.7 169 496.3C169 490.6 164.3 486.2 158.9 486.2C153.2 486.2 148.8 490.9 148.8 496.3C148.8 501.7 153.2 506.4 158.9 506.4Z" fill="#EB5569"/>
<path d="M356.7 530.2C365.8 530.2 373.3 522.7 373.3 513.6C373.3 504.3 365.8 497 356.7 497C347.6 497 340.1 504.5 340.1 513.6C339.9 522.7 347.4 530.2 356.7 530.2Z" fill="#EB5569"/>
<path d="M355.9 314.8C355.9 317.9 354.9 321 353.3 323.6C351.5 326.2 349.2 328.3 346.3 329.6C344.2 330.4 342.2 330.9 340.1 330.9H339.3C335.4 330.6 331.8 329.1 328.9 326.5C326.1 323.9 324.5 320.3 324 316.4C324 315.9 324 315.4 324 314.8C324 310.7 325.6 306.5 328.7 303.4C331.8 300.3 335.7 298.7 340.1 298.7C344.5 298.7 348.4 300.5 351.5 303.4C354.4 306.5 355.9 310.6 355.9 314.8Z" fill="#EB5569"/>
<path d="M339.4 330.8C334.5 332.4 330.3 335.5 327 339.3C323.9 343.4 321.8 348.1 321.6 353.3C315.6 345.8 308.7 339.3 300.4 334.1C305.8 333.8 311 332 315.2 328.9C319.6 325.8 322.7 321.1 324.3 316.2C324.6 320.1 326.4 323.7 329.2 326.3C332 328.9 335.5 330.6 339.4 330.8Z" fill="#EB5569"/>
<path d="M281.1 537.7C278 535.6 275.7 533 274.1 529.7C272.5 526.4 272 522.7 272.5 519.1C272.8 516.5 273.8 514.2 275.1 512.1C275.4 511.8 275.4 511.6 275.6 511.3C278.2 507.7 282.1 504.8 286.5 503.8C290.9 502.8 295.6 503.3 299.4 505.4C299.9 505.7 300.4 505.9 301 506.2C303.1 507.5 304.9 509.3 306.2 511.1C307.5 513.2 308.5 515.5 309.3 517.8C309.8 520.1 309.8 522.7 309.6 525.1C309.1 527.4 308.3 529.8 307 531.8C305.7 533.9 303.9 535.7 302.1 537.2C300 538.8 298 539.5 295.4 540.3C293.1 540.8 290.5 540.8 288.1 540.6C285.5 540 283.2 539 281.1 537.7Z" fill="#EB5569"/>
<path d="M275.7 511C277.3 505 276.7 499.1 274.9 493.4C272.8 487.7 269.2 482.8 264.5 479.2C275.6 478.2 286.5 475.1 296.6 470.1C293.5 475.5 291.9 481.8 292.5 488.2C293 494.4 295.3 500.4 299.5 505.3C295.4 503.2 291 502.7 286.6 503.7C282.2 504.7 278.3 507.4 275.7 511Z" fill="#EB5569"/>
<path d="M192.8 516.2C191.8 513.1 191.5 509.7 192.3 506.4C193.1 503.1 194.9 500.2 197.5 497.9C199.3 496.3 201.1 495.1 203.5 494.3L204.3 494C208.2 492.7 212.6 493.2 216.2 494.8C219.8 496.6 222.9 499.5 224.7 503.3C225 503.8 225.2 504.3 225.2 504.9C226 507 226.2 509.3 226.2 511.6C226.2 513.9 225.4 516 224.6 518.1C223.6 520.2 222.3 522 220.5 523.5C218.7 525.1 216.9 526.1 214.5 526.9C212.4 527.7 210.1 527.9 207.8 527.9C205.5 527.6 203.4 527.1 201.3 526.1C199.2 525.1 197.4 523.8 195.9 522C194.6 520.4 193.6 518.3 192.8 516.2Z" fill="#EB5569"/>
<path d="M204.2 494C208.6 490.6 212 486 213.8 480.8C215.6 475.6 215.9 469.9 214.6 464.5C223.1 470.2 232.7 474.3 242.8 476.4C237.4 478.5 232.7 482.1 229.6 487C226.5 491.7 224.7 497.4 224.7 503.3C222.9 499.7 220 496.6 216.2 494.8C212.2 492.9 208.1 492.9 204.2 494Z" fill="#EB5569"/>
<path d="M122.1 429.5C123.9 425.6 127 422.5 130.6 420.4C134.2 418.3 138.4 417.3 142.8 417.6C145.6 417.9 148.5 418.6 151.1 419.9C151.4 420.2 151.6 420.2 151.9 420.4C156.3 423 159.9 427.1 161.7 432.1C163.5 437 163.3 442.5 161.4 447.4C161.1 447.9 160.9 448.7 160.6 449.2C159.3 452 157.2 454.4 154.9 456.2C151 459.3 146.4 461.1 141.2 461.1C136.3 461.1 131.4 459.3 127.5 456.2C123.6 453.1 121 448.7 120 443.8C119 439.1 119.8 434.1 122.1 429.5Z" fill="#EB5569"/>
<path d="M152.1 420.7C159.1 421.7 166.1 420.7 172.3 417.9C178.5 415.1 184 410.4 187.6 404.4C189.9 417.3 194.9 429.5 201.6 440.7C195.1 437.6 187.6 436.6 180.4 437.9C173.1 439.2 166.7 442.6 161.5 447.7C163.3 442.8 163.6 437.3 161.8 432.4C159.9 427.4 156.5 423.3 152.1 420.7Z" fill="#EB5569"/>
<path d="M254.9 441.4C260.3 441.4 265 437 265 431.3C265 425.6 260.6 421.2 254.9 421.2C249.5 421.2 244.8 425.6 244.8 431.3C244.8 437 249.2 441.4 254.9 441.4Z" fill="#EB5569"/>
<path d="M286.5 408.8C290.9 408.8 294.8 405.2 294.8 400.5C294.8 395.8 290.9 392.5 286.5 392.5C282.1 392.5 278.2 396.1 278.2 400.8C278.3 405.4 281.9 408.8 286.5 408.8Z" fill="#EB5569"/>
<path d="M446.4 331.7C494.67 331.7 533.8 292.57 533.8 244.3C533.8 196.03 494.67 156.9 446.4 156.9C398.13 156.9 359 196.03 359 244.3C359 292.57 398.13 331.7 446.4 331.7Z" fill="#FF6B6B"/>
<path d="M359 244.3C359 292.6 398.1 331.7 446.4 331.7C494.7 331.7 533.8 292.6 533.8 244.3H359Z" fill="#FF1F3D"/>
<path d="M416.4 288.4V200.3C416.4 195 422.4 191.9 426.7 195L487 239C490.6 241.6 490.6 246.9 487 249.5L426.7 293.6C422.4 296.8 416.4 293.7 416.4 288.4Z" fill="#F9F9F9"/>
<path d="M215.4 117.6L246.5 149L151.3 244.4C150.9 244.8 150.2 245.3 149.3 245.3C148.6 245.3 148 245.1 147.3 244.4L120 217.1C119.6 216.7 119.1 216 119.1 215.1C119.1 214.4 119.3 213.8 120 213.1L215.4 117.6Z" fill="#DBFFFC"/>
<path d="M128.4 224.7L139.8 236.1L131.1 245.1C130.7 245.5 130 246 129.1 246C128.4 246 127.8 245.8 127.1 245.1L119.7 237.7C119.3 237.3 118.8 236.6 118.8 235.7C118.8 235 119 234.4 119.7 233.7L128.4 224.7Z" fill="#DBFFFC"/>
<path d="M116.1 233L131.6 248.5L109.9 270.2C108.1 272 105.6 273.1 103.2 273.1C100.8 273.1 98.3 272 96.5 270.2L94.7 268.4C93.8 267.5 93.1 266.4 92.7 265.3C92.3 264.2 92 262.8 92 261.7C92 260.4 92.2 259.2 92.7 258.1C93.1 257 93.8 255.9 94.7 255L116.1 233Z" fill="#FE7665"/>
<path d="M92.5998 265.9L98.8998 272.2L59.4998 311.6C58.7998 312.3 57.6998 312.7 56.7998 312.7C55.6998 312.7 54.7998 312.3 54.0998 311.6L53.3998 310.9C52.6998 310.2 52.2998 309.1 52.2998 308.2C52.2998 307.1 52.6998 306.2 53.3998 305.5L92.5998 265.9Z" fill="white" fill-opacity="0.7"/>
<path d="M274.5 104.4L252.5 82.3999L220.2 114.7L242.2 136.7L274.5 104.4Z" fill="#66FCF1"/>
<path d="M156.7 176.5L187.8 207.9L151.3 244.4C150.9 244.8 150.2 245.3 149.3 245.3C148.6 245.3 148 245.1 147.3 244.4L120 217.1C119.6 216.7 119.1 216 119.1 215.1C119.1 214.4 119.3 213.8 120 213.1L156.7 176.5Z" fill="#4EF5E9"/>
<path d="M202.4 193.1L171.3 161.7L156.7 176.3L187.8 207.7L202.4 193.1Z" fill="#414851"/>
<path d="M270.9 162.9L197.7 89.4C195.5 87.2 192.1 87.2 189.9 89.4L188.3 91C186.1 93.2 186.1 96.6 188.3 98.8L261.5 172.3C263.7 174.5 267.1 174.5 269.3 172.3L270.9 170.7C272.9 168.5 272.9 165.1 270.9 162.9Z" fill="#9BFEF7"/>
<path d="M285 114.9L242 71.9C239.8 69.7 236.4 69.7 234.2 71.9L232.6 73.5C230.4 75.7 230.4 79.1 232.6 81.3L275.6 124.3C277.8 126.5 281.2 126.5 283.4 124.3L285 122.7C287 120.5 287 116.9 285 114.9Z" fill="#9BFEF7"/>
<path d="M241.6 93.6001L250.6 102.6C250.8 102.8 251 103.3 251.3 103.7C251.6 104.1 251.5 104.6 251.5 105C251.5 105.4 251.5 105.9 251.3 106.3C251.1 106.7 250.9 107 250.6 107.4L231.8 126.2L220.6 115L241.6 93.6001Z" fill="#DBFFFC"/>
<path opacity="0.1" d="M229.7 140.2L242.5 153.2L151.6 244.6C151.2 245 150.5 245.5 149.6 245.5C148.9 245.5 148.3 245.3 147.6 244.6L138.6 235.6C138.2 235.2 137.7 234.5 137.7 233.6C137.7 232.9 137.9 232.3 138.6 231.6L229.7 140.2Z" fill="black"/>
<path d="M376 140L349.6 113.6C348.4 112.4 346.5 112.4 345.2 113.6L331.6 127.2C330.4 128.4 330.4 130.3 331.6 131.6L358 158C359.2 159.2 361.1 159.2 362.4 158L376 144.4C377.2 143.2 377.2 141.2 376 140Z" fill="#FE7564"/>
<path d="M284.1 225.9L263.8 205.6C262.3 204.1 262.3 201.7 263.8 200.3L268.4 195.7L294.1 221.4L289.5 226C288 227.3 285.6 227.3 284.1 225.9Z" fill="#FFD4C4"/>
<path d="M325.952 189.316L300.285 163.648L268.394 195.539L294.062 221.206L325.952 189.316Z" fill="#FFA785"/>
<path d="M350.366 165.013L324.698 139.346L300.303 163.741L325.971 189.408L350.366 165.013Z" fill="#FFF9E8"/>
<path d="M357.717 157.545L332.049 131.878L324.625 139.302L350.292 164.97L357.717 157.545Z" fill="#9BFEF7"/>
<path d="M357.75 157.591L351.669 151.51L344.244 158.935L350.325 165.016L357.75 157.591Z" fill="#4EF5E9"/>
<path d="M350.328 164.989L344.247 158.907L319.852 183.302L325.933 189.383L350.328 164.989Z" fill="#FFEAA6"/>
<path d="M325.985 189.362L319.904 183.281L288.014 215.171L294.095 221.252L325.985 189.362Z" fill="#FA7A69"/>
<path d="M284.1 225.9L280.7 222.5L288 215.2L294.1 221.3L289.5 225.9C288 227.3 285.6 227.3 284.1 225.9Z" fill="#FFBFA5"/>
<path d="M311.699 175.062L300.88 185.881L303.708 188.709L314.527 177.89L311.699 175.062Z" fill="#FFF9E8"/>
<path d="M286.1 203.5C284.5 201.9 284.5 199.3 286.1 197.7L297.7 186.1C299.3 184.5 301.9 184.5 303.5 186.1C305.1 187.7 305.1 190.3 303.5 191.9L291.9 203.5C290.3 205.1 287.7 205.1 286.1 203.5Z" fill="#FFEAA6"/>
<path d="M353.4 117.4L349.7 113.7C348.5 112.5 346.6 112.5 345.3 113.7L331.7 127.3C330.5 128.5 330.5 130.4 331.7 131.7L335.4 135.4L353.4 117.4Z" fill="#FF4547"/>
<path d="M363.475 127.393L357.535 121.453L339.575 139.413L345.514 145.353L363.475 127.393Z" fill="#FF4547"/>
<path d="M376 140L372.3 136.3L354.4 154.2L358.1 157.9C359.3 159.1 361.2 159.1 362.5 157.9L376.1 144.3C377.2 143.2 377.2 141.2 376 140Z" fill="#EA1726"/>
<path d="M373.465 137.397L367.525 131.457L349.565 149.417L355.505 155.357L373.465 137.397Z" fill="#FF4547"/>
<path d="M365 155.4L334.2 124.6L331.6 127.2C330.4 128.4 330.4 130.3 331.6 131.6L358 158C359.2 159.2 361.1 159.2 362.4 158L365 155.4Z" fill="#FFA785"/>
<defs>
<linearGradient id="paint0_linear_639_652" x1="133.3" y1="438.52" x2="496.216" y2="173.896" gradientUnits="userSpaceOnUse">
<stop stop-color="white" stop-opacity="0.1"/>
<stop offset="1" stop-color="white" stop-opacity="0.5"/>
</linearGradient>
<linearGradient id="paint1_linear_639_652" x1="141.739" y1="156.489" x2="435.538" y2="434.638" gradientUnits="userSpaceOnUse">
<stop stop-color="white" stop-opacity="0.5"/>
<stop offset="1" stop-color="white" stop-opacity="0.2"/>
</linearGradient>
<linearGradient id="paint2_linear_639_652" x1="404.434" y1="303.398" x2="243.131" y2="514.004" gradientUnits="userSpaceOnUse">
<stop stop-color="white" stop-opacity="0.1"/>
<stop offset="1" stop-color="white" stop-opacity="0.5"/>
</linearGradient>
<linearGradient id="paint3_linear_639_652" x1="75.6633" y1="421.063" x2="564.72" y2="167.753" gradientUnits="userSpaceOnUse">
<stop stop-color="white" stop-opacity="0.7"/>
<stop offset="1" stop-color="white"/>
</linearGradient>
</defs>
</svg>
