<svg width="586" height="522" viewBox="0 0 586 522" fill="none" xmlns="http://www.w3.org/2000/svg">
<g clip-path="url(#clip0_496_424)">
<path d="M283.5 504.5C245.46 504.383 208.035 494.894 174.535 476.872C141.035 458.851 112.492 432.851 91.4308 401.174C70.3695 369.496 57.4389 333.117 53.7824 295.253C50.126 257.389 55.8565 219.208 70.467 184.085C85.0776 148.963 108.118 117.983 137.551 93.8834C166.983 69.7843 201.901 53.3094 239.215 45.9158C276.53 38.5222 315.091 40.4377 351.489 51.493C387.888 62.5482 421.001 82.4025 447.9 109.3C480.32 141.718 502.385 183.032 511.296 228.006C520.207 272.979 515.563 319.586 497.954 361.917C480.345 404.248 450.562 440.397 412.383 465.781C374.204 491.165 329.347 504.641 283.5 504.5ZM283.5 73.4999C172.9 73.4999 82.9999 163 82.9999 273C82.9999 383 172.9 472.5 283.5 472.5C394.1 472.5 484 383 484 273C484 163 394.1 73.4999 283.5 73.4999Z" fill="url(#paint0_linear_496_424)"/>
<path d="M282 433.5C370.366 433.5 442 361.866 442 273.5C442 185.134 370.366 113.5 282 113.5C193.634 113.5 122 185.134 122 273.5C122 361.866 193.634 433.5 282 433.5Z" fill="url(#paint1_linear_496_424)"/>
<path d="M303 478.5C197.6 478.5 115 429.1 115 366C115 302.9 197.6 253.5 303 253.5C408.4 253.5 491 302.9 491 366C491 429.1 408.4 478.5 303 478.5ZM303 289.5C260.6 289.5 221 298.5 191.5 314.9C165.7 329.2 151 347.8 151 366C151 384.2 165.8 402.8 191.5 417.1C221 433.5 260.6 442.5 303 442.5C345.4 442.5 385 433.5 414.5 417.1C440.3 402.8 455 384.2 455 366C455 347.8 440.2 329.2 414.5 314.9C385 298.5 345.4 289.5 303 289.5Z" fill="url(#paint2_linear_496_424)"/>
<path d="M296.1 521.9C295.58 521.91 295.064 521.816 294.581 521.624C294.098 521.433 293.658 521.147 293.286 520.785C292.914 520.422 292.618 519.989 292.414 519.511C292.211 519.033 292.104 518.52 292.1 518C292.094 516.945 292.496 515.929 293.224 515.164C293.951 514.4 294.946 513.947 296 513.9C301.6 513.8 307.2 513.5 312.7 513.1C313.225 513.061 313.753 513.125 314.253 513.29C314.754 513.455 315.217 513.716 315.616 514.06C316.015 514.403 316.343 514.822 316.581 515.292C316.818 515.763 316.96 516.275 317 516.8C317.039 517.326 316.975 517.854 316.81 518.354C316.646 518.854 316.384 519.317 316.04 519.717C315.697 520.116 315.278 520.444 314.808 520.681C314.337 520.918 313.825 521.061 313.3 521.1C307.6 521.5 301.8 521.8 296.1 521.9ZM277.1 521.6H276.9C271.2 521.3 265.4 520.8 259.7 520.2C258.74 519.982 257.895 519.417 257.325 518.614C256.756 517.81 256.503 516.826 256.614 515.848C256.726 514.869 257.194 513.967 257.929 513.312C258.665 512.658 259.615 512.298 260.6 512.3C266.1 512.9 271.8 513.4 277.3 513.7C278.237 513.872 279.082 514.373 279.683 515.113C280.284 515.853 280.6 516.783 280.576 517.736C280.552 518.688 280.189 519.601 279.551 520.31C278.914 521.018 278.045 521.476 277.1 521.6ZM331.9 519C330.937 518.939 330.029 518.532 329.342 517.854C328.656 517.176 328.237 516.273 328.164 515.311C328.091 514.349 328.368 513.393 328.944 512.619C329.521 511.845 330.357 511.306 331.3 511.1C336.8 510.3 342.3 509.3 347.8 508.2C348.313 508.078 348.846 508.062 349.366 508.153C349.885 508.245 350.381 508.442 350.821 508.733C351.261 509.023 351.638 509.401 351.926 509.843C352.215 510.284 352.41 510.78 352.5 511.3C352.612 511.813 352.62 512.343 352.524 512.859C352.429 513.375 352.23 513.866 351.941 514.304C351.652 514.742 351.279 515.118 350.842 515.409C350.406 515.701 349.915 515.902 349.4 516C343.8 517.2 338.1 518.2 332.4 519H331.9ZM241.3 517.5C241.062 517.516 240.824 517.482 240.6 517.4C235 516.4 229.3 515.2 223.7 513.9C222.665 513.662 221.768 513.022 221.206 512.122C220.643 511.221 220.461 510.135 220.7 509.1C220.938 508.066 221.578 507.169 222.478 506.606C223.379 506.044 224.465 505.862 225.5 506.1C230.9 507.4 236.4 508.5 241.9 509.5C242.929 509.695 243.841 510.286 244.44 511.146C245.038 512.007 245.275 513.067 245.1 514.1C245.003 515.038 244.56 515.906 243.857 516.535C243.154 517.164 242.243 517.508 241.3 517.5ZM367.1 511.5C366.241 511.483 365.409 511.192 364.726 510.671C364.043 510.149 363.544 509.424 363.3 508.6C363.155 508.095 363.113 507.565 363.176 507.043C363.239 506.521 363.405 506.016 363.666 505.56C363.927 505.103 364.277 504.703 364.695 504.384C365.113 504.065 365.591 503.832 366.1 503.7C371.4 502.2 376.8 500.5 382 498.7C382.499 498.53 383.027 498.459 383.553 498.492C384.079 498.525 384.594 498.662 385.068 498.894C385.541 499.126 385.964 499.449 386.313 499.845C386.662 500.241 386.929 500.701 387.1 501.2C387.271 501.699 387.341 502.227 387.308 502.753C387.275 503.28 387.138 503.794 386.906 504.268C386.674 504.742 386.351 505.165 385.955 505.514C385.559 505.862 385.099 506.13 384.6 506.3C379.2 508.2 373.7 509.9 368.2 511.5H367.1ZM206.4 509C205.993 508.983 205.59 508.916 205.2 508.8C199.7 507.1 194.3 505.2 188.9 503.2C188.407 503.01 187.957 502.724 187.575 502.36C187.193 501.996 186.886 501.56 186.673 501.077C186.459 500.594 186.343 500.074 186.33 499.546C186.318 499.018 186.409 498.493 186.6 498C186.79 497.508 187.076 497.058 187.44 496.676C187.805 496.293 188.241 495.987 188.723 495.773C189.206 495.56 189.727 495.443 190.254 495.431C190.782 495.418 191.307 495.51 191.8 495.7C197 497.7 202.3 499.5 207.6 501.2C208.5 501.496 209.266 502.101 209.761 502.908C210.256 503.716 210.449 504.673 210.305 505.609C210.161 506.545 209.69 507.4 208.974 508.021C208.259 508.642 207.347 508.989 206.4 509ZM400.9 499.5C400.12 499.49 399.358 499.259 398.704 498.834C398.049 498.409 397.528 497.808 397.2 497.1C396.786 496.118 396.774 495.012 397.167 494.021C397.56 493.03 398.325 492.233 399.3 491.8C404.4 489.6 409.5 487.2 414.4 484.7C415.355 484.223 416.46 484.144 417.473 484.482C418.485 484.819 419.322 485.546 419.8 486.5C420.277 487.455 420.356 488.56 420.018 489.573C419.681 490.586 418.955 491.423 418 491.9C412.9 494.5 407.7 496.9 402.4 499.2C401.93 499.415 401.416 499.518 400.9 499.5ZM172.8 496.1C172.209 496.111 171.624 495.974 171.1 495.7C165.9 493.3 160.7 490.7 155.7 488C155.188 487.782 154.727 487.458 154.347 487.051C153.967 486.644 153.676 486.162 153.493 485.636C153.31 485.111 153.239 484.552 153.284 483.997C153.329 483.442 153.49 482.903 153.756 482.413C154.021 481.924 154.386 481.496 154.827 481.155C155.268 480.815 155.775 480.571 156.315 480.438C156.856 480.305 157.419 480.286 157.967 480.383C158.515 480.48 159.037 480.69 159.5 481C164.4 483.6 169.5 486.1 174.5 488.4C174.98 488.616 175.412 488.925 175.772 489.309C176.133 489.692 176.414 490.143 176.6 490.635C176.785 491.128 176.872 491.652 176.855 492.178C176.838 492.704 176.717 493.221 176.5 493.7C176.172 494.408 175.651 495.009 174.996 495.434C174.341 495.859 173.58 496.09 172.8 496.1ZM432.9 483.1C432.216 483.109 431.542 482.939 430.946 482.605C430.349 482.272 429.85 481.787 429.5 481.2C429.229 480.748 429.05 480.246 428.974 479.724C428.898 479.202 428.925 478.67 429.055 478.159C429.186 477.648 429.416 477.167 429.732 476.745C430.049 476.323 430.445 475.968 430.9 475.7C435.7 472.8 440.4 469.8 445 466.6C445.433 466.298 445.922 466.085 446.438 465.971C446.954 465.858 447.487 465.848 448.007 465.941C448.527 466.033 449.024 466.228 449.468 466.513C449.913 466.797 450.298 467.167 450.6 467.6C450.902 468.034 451.116 468.522 451.229 469.038C451.342 469.554 451.352 470.087 451.26 470.607C451.167 471.127 450.972 471.624 450.688 472.069C450.403 472.514 450.033 472.898 449.6 473.2C444.9 476.4 440 479.6 435.1 482.5C434.424 482.872 433.67 483.077 432.9 483.1ZM141.1 479C140.357 479.002 139.629 478.794 139 478.4C134.1 475.4 129.3 472.1 124.7 468.8C123.838 468.177 123.259 467.237 123.09 466.187C122.921 465.137 123.177 464.062 123.8 463.2C124.423 462.338 125.363 461.759 126.413 461.591C127.464 461.422 128.538 461.677 129.4 462.3C133.9 465.5 138.6 468.7 143.3 471.6C144.201 472.158 144.844 473.05 145.087 474.081C145.331 475.113 145.156 476.198 144.6 477.1C144.233 477.695 143.717 478.184 143.103 478.517C142.489 478.85 141.798 479.017 141.1 479ZM462.4 462.5C461.802 462.506 461.212 462.373 460.674 462.113C460.137 461.853 459.666 461.472 459.3 461C458.641 460.176 458.335 459.126 458.447 458.077C458.56 457.028 459.082 456.066 459.9 455.4C464.2 451.9 468.5 448.2 472.6 444.5C473.382 443.771 474.422 443.382 475.491 443.42C476.56 443.457 477.57 443.918 478.3 444.7C479.029 445.483 479.418 446.523 479.38 447.592C479.343 448.661 478.882 449.671 478.1 450.4C473.9 454.3 469.5 458 465 461.6C464.278 462.218 463.349 462.54 462.4 462.5ZM111.9 457.9C110.986 457.907 110.099 457.588 109.4 457C105 453.3 100.6 449.5 96.3998 445.6C96.0124 445.239 95.6999 444.805 95.4802 444.323C95.2605 443.841 95.1379 443.321 95.1193 442.792C95.1007 442.262 95.1866 441.735 95.372 441.239C95.5574 440.742 95.8387 440.288 96.1998 439.9C96.5609 439.513 96.9949 439.2 97.4767 438.981C97.9586 438.761 98.4791 438.638 99.0084 438.62C99.5377 438.601 100.065 438.687 100.562 438.872C101.058 439.058 101.512 439.339 101.9 439.7C106 443.5 110.2 447.2 114.5 450.8C115.303 451.48 115.806 452.449 115.9 453.498C115.993 454.546 115.67 455.589 115 456.4C114.633 456.872 114.163 457.253 113.625 457.513C113.088 457.773 112.497 457.906 111.9 457.9ZM488.8 438.1C487.791 438.101 486.821 437.706 486.1 437C485.326 436.266 484.872 435.257 484.834 434.191C484.797 433.125 485.18 432.087 485.9 431.3C489.7 427.2 493.4 423 496.9 418.7C497.207 418.236 497.608 417.841 498.077 417.541C498.546 417.24 499.073 417.041 499.623 416.956C500.173 416.871 500.735 416.902 501.273 417.046C501.811 417.191 502.312 417.446 502.746 417.795C503.179 418.145 503.535 418.581 503.79 419.076C504.045 419.571 504.194 420.114 504.228 420.67C504.261 421.225 504.178 421.782 503.984 422.304C503.789 422.826 503.488 423.301 503.1 423.7C499.5 428.1 495.6 432.5 491.7 436.7C491.369 437.154 490.931 437.519 490.425 437.763C489.919 438.007 489.361 438.123 488.8 438.1ZM85.7998 433.2C85.2506 433.21 84.7061 433.098 84.2048 432.874C83.7036 432.649 83.2581 432.317 82.8998 431.9C78.9998 427.7 75.1998 423.3 71.5998 418.9C71.2112 418.501 70.9102 418.026 70.716 417.504C70.5219 416.982 70.4388 416.425 70.4721 415.87C70.5054 415.314 70.6544 414.771 70.9096 414.276C71.1648 413.781 71.5205 413.345 71.9539 412.995C72.3874 412.646 72.889 412.391 73.4268 412.246C73.9645 412.102 74.5265 412.071 75.0768 412.156C75.6271 412.241 76.1535 412.44 76.6224 412.741C77.0913 413.041 77.4923 413.436 77.7998 413.9C81.2998 418.2 84.9998 422.5 88.7998 426.5C89.5176 427.288 89.8986 428.326 89.8612 429.391C89.8239 430.456 89.3711 431.465 88.5998 432.2C87.8116 432.85 86.8212 433.204 85.7998 433.2ZM511.5 410.2C510.678 410.216 509.873 409.971 509.2 409.5C508.345 408.874 507.764 407.943 507.578 406.901C507.392 405.858 507.615 404.783 508.2 403.9C511.4 399.3 514.5 394.6 517.3 389.9C517.844 388.985 518.728 388.324 519.76 388.061C520.791 387.799 521.885 387.957 522.8 388.5C523.715 389.044 524.376 389.929 524.639 390.96C524.901 391.992 524.744 393.085 524.2 394C521.2 398.9 518.1 403.8 514.8 408.5C514.428 409.029 513.934 409.46 513.359 409.756C512.784 410.052 512.146 410.205 511.5 410.2ZM63.1998 405.2C62.5533 405.205 61.9154 405.052 61.3407 404.756C60.7659 404.46 60.2715 404.029 59.8998 403.5C56.5998 398.8 53.3998 393.9 50.3998 389.1C49.8966 388.201 49.7601 387.141 50.0189 386.143C50.2777 385.146 50.9118 384.286 51.7889 383.744C52.6659 383.203 53.7183 383.021 54.7264 383.236C55.7345 383.451 56.6206 384.048 57.1998 384.9C60.0998 389.6 63.1998 394.3 66.3998 398.9C66.7048 399.333 66.9209 399.821 67.0358 400.338C67.1506 400.854 67.1618 401.388 67.0688 401.909C66.9758 402.43 66.7804 402.927 66.4939 403.372C66.2074 403.817 65.8356 404.2 65.3998 404.5C64.7702 404.982 63.9922 405.23 63.1998 405.2ZM530 379.4C529.377 379.412 528.759 379.275 528.2 379C527.725 378.766 527.301 378.441 526.953 378.042C526.604 377.643 526.339 377.179 526.172 376.676C526.004 376.174 525.938 375.643 525.977 375.115C526.016 374.587 526.16 374.072 526.4 373.6C528.9 368.6 531.2 363.5 533.4 358.4C533.552 357.851 533.819 357.341 534.184 356.904C534.549 356.467 535.004 356.113 535.517 355.865C536.03 355.618 536.589 355.482 537.159 355.469C537.728 355.455 538.294 355.563 538.818 355.786C539.343 356.008 539.813 356.34 540.199 356.76C540.584 357.179 540.876 357.676 541.054 358.217C541.232 358.758 541.293 359.33 541.232 359.897C541.171 360.463 540.989 361.01 540.7 361.5C538.5 366.8 536.1 372.1 533.5 377.2C533.198 377.871 532.705 378.438 532.082 378.83C531.46 379.221 530.735 379.42 530 379.4ZM44.5998 374.4C43.8543 374.405 43.1223 374.202 42.4862 373.814C41.8501 373.425 41.3353 372.866 40.9998 372.2C38.3998 367.1 35.8998 361.8 33.5998 356.6C33.1755 355.619 33.1583 354.509 33.5521 353.515C33.946 352.521 34.7185 351.725 35.6998 351.3C36.6811 350.876 37.7908 350.859 38.7847 351.253C39.7787 351.646 40.5755 352.419 40.9998 353.4C43.1998 358.5 45.5998 363.6 48.0998 368.5C48.5753 369.445 48.6637 370.537 48.3462 371.545C48.0288 372.554 47.3305 373.399 46.3998 373.9C45.8658 374.249 45.237 374.423 44.5998 374.4ZM543.7 346.1C543.261 346.075 542.826 346.008 542.4 345.9C541.413 345.558 540.599 344.844 540.131 343.91C539.664 342.975 539.581 341.895 539.9 340.9C541.6 335.6 543.2 330.2 544.6 324.9C544.865 323.866 545.53 322.979 546.449 322.435C547.368 321.892 548.465 321.735 549.5 322C550.534 322.266 551.421 322.931 551.965 323.85C552.509 324.769 552.665 325.866 552.4 326.9C551 332.5 549.4 338 547.6 343.5C547.272 344.265 546.729 344.918 546.036 345.38C545.344 345.842 544.532 346.092 543.7 346.1ZM30.3998 341.4C29.5637 341.404 28.7474 341.145 28.0658 340.661C27.3842 340.177 26.8715 339.491 26.5998 338.7C24.6998 333.3 22.9998 327.7 21.4998 322.2C21.3196 321.682 21.2479 321.133 21.289 320.586C21.3301 320.039 21.4832 319.507 21.7388 319.022C21.9944 318.537 22.347 318.109 22.7748 317.766C23.2025 317.423 23.6962 317.171 24.2253 317.027C24.7543 316.883 25.3074 316.849 25.8501 316.927C26.3928 317.006 26.9136 317.195 27.3801 317.483C27.8466 317.771 28.2489 318.152 28.5619 318.603C28.875 319.053 29.0921 319.563 29.1998 320.1C30.6998 325.4 32.2998 330.8 34.0998 336.1C34.2727 336.599 34.3452 337.127 34.313 337.654C34.2808 338.181 34.1445 338.697 33.9121 339.171C33.6797 339.645 33.3557 340.069 32.9589 340.417C32.562 340.765 32.1001 341.031 31.5998 341.2C31.2134 341.332 30.8081 341.4 30.3998 341.4ZM552.5 311.2C552.262 311.216 552.024 311.182 551.8 311.1C551.281 311.015 550.784 310.829 550.337 310.552C549.89 310.274 549.503 309.912 549.196 309.485C548.89 309.057 548.67 308.574 548.551 308.062C548.431 307.55 548.414 307.019 548.5 306.5C549.5 301 550.2 295.5 550.8 289.9C550.906 288.839 551.429 287.864 552.254 287.189C553.079 286.514 554.139 286.194 555.2 286.3C556.261 286.406 557.236 286.93 557.911 287.755C558.586 288.58 558.906 289.639 558.8 290.7C558.2 296.4 557.4 302.2 556.4 307.8C556.282 308.747 555.819 309.618 555.099 310.245C554.38 310.873 553.454 311.213 552.5 311.2ZM21.0998 306.6C20.1604 306.616 19.2473 306.29 18.53 305.683C17.8128 305.076 17.3401 304.229 17.1998 303.3C16.0998 297.7 15.1998 291.9 14.5998 286.3C14.597 285.316 14.9574 284.365 15.6118 283.63C16.2663 282.894 17.1689 282.426 18.147 282.315C19.1251 282.203 20.1099 282.457 20.913 283.026C21.7161 283.595 22.2811 284.44 22.4998 285.4C23.1998 290.9 23.9998 296.4 25.0998 301.9C25.2011 302.419 25.1985 302.953 25.0922 303.471C24.9859 303.989 24.7779 304.481 24.4803 304.918C24.1827 305.355 23.8014 305.729 23.3585 306.017C22.9156 306.306 22.4198 306.504 21.8998 306.6H21.0998ZM556 275.4H555.9C555.375 275.387 554.857 275.271 554.376 275.058C553.896 274.845 553.462 274.539 553.1 274.158C552.738 273.778 552.455 273.329 552.266 272.839C552.077 272.348 551.987 271.826 552 271.3C552.1 269.3 552.1 267.2 552.1 265.1C552.1 261.6 552 258 551.9 254.5C551.847 253.439 552.217 252.401 552.93 251.613C553.643 250.826 554.639 250.353 555.7 250.3C556.761 250.247 557.799 250.618 558.587 251.33C559.374 252.043 559.847 253.039 559.9 254.1C560.1 257.7 560.1 261.4 560.1 265C560.1 267.1 560.1 269.3 560 271.4C560 271.926 559.896 272.446 559.695 272.931C559.494 273.416 559.2 273.857 558.828 274.229C558.457 274.6 558.016 274.895 557.531 275.096C557.045 275.297 556.525 275.4 556 275.4ZM16.9998 270.9C15.9727 270.902 14.9845 270.508 14.2398 269.8C13.4952 269.093 13.0512 268.126 12.9998 267.1C12.8998 263.7 12.7998 260.2 12.7998 256.8C12.7998 254.5 12.7998 252.2 12.8998 249.9C12.9263 248.839 13.3732 247.833 14.1421 247.101C14.911 246.37 15.9389 245.974 16.9998 246C18.0607 246.027 19.0676 246.474 19.7989 247.243C20.5303 248.011 20.9263 249.039 20.8998 250.1C20.7998 252.3 20.7998 254.6 20.7998 256.8C20.7998 260.1 20.8998 263.5 20.9998 266.8C21.0267 267.326 20.9497 267.851 20.7732 268.347C20.5967 268.843 20.3242 269.299 19.9712 269.689C19.6182 270.079 19.1917 270.396 18.7162 270.621C18.2406 270.846 17.7253 270.975 17.1998 271C17.0998 270.9 17.0998 270.9 16.9998 270.9ZM554.3 239.5C553.325 239.491 552.385 239.133 551.652 238.491C550.918 237.849 550.438 236.965 550.3 236C549.6 230.5 548.8 224.9 547.7 219.5C547.501 218.453 547.726 217.369 548.326 216.488C548.927 215.606 549.852 214.999 550.9 214.8C551.947 214.601 553.031 214.827 553.913 215.427C554.794 216.027 555.401 216.953 555.6 218C556.7 223.6 557.6 229.4 558.3 235C558.37 235.526 558.334 236.061 558.196 236.573C558.057 237.085 557.818 237.564 557.492 237.983C557.166 238.402 556.761 238.752 556.298 239.012C555.836 239.273 555.327 239.439 554.8 239.5H554.3ZM18.1998 235H17.7998C17.2735 234.95 16.7624 234.797 16.2959 234.548C15.8294 234.299 15.4168 233.96 15.0821 233.551C14.7473 233.142 14.497 232.671 14.3455 232.164C14.1941 231.658 14.1446 231.126 14.1998 230.6C14.7998 224.9 15.5998 219.2 16.5998 213.5C16.6228 212.929 16.7679 212.37 17.0254 211.859C17.2828 211.349 17.6467 210.9 18.0924 210.542C18.538 210.184 19.0552 209.926 19.6091 209.785C20.163 209.644 20.7407 209.623 21.3032 209.724C21.8658 209.825 22.4002 210.045 22.8704 210.37C23.3406 210.695 23.7358 211.117 24.0292 211.608C24.3226 212.098 24.5075 212.646 24.5715 213.214C24.6354 213.782 24.5769 214.357 24.3998 214.9C23.3998 220.4 22.5998 226 22.0998 231.5C21.9983 232.463 21.5433 233.354 20.8229 234C20.1025 234.647 19.1678 235.003 18.1998 235ZM547.3 204.3C546.425 204.299 545.573 204.017 544.871 203.494C544.169 202.972 543.653 202.238 543.4 201.4C541.9 196.1 540.3 190.7 538.4 185.4C538.229 184.901 538.158 184.374 538.192 183.847C538.225 183.321 538.361 182.806 538.594 182.333C538.826 181.859 539.149 181.436 539.545 181.087C539.94 180.738 540.401 180.471 540.9 180.3C541.399 180.13 541.927 180.059 542.453 180.092C542.979 180.125 543.494 180.262 543.968 180.494C544.441 180.726 544.864 181.049 545.213 181.445C545.562 181.841 545.829 182.301 546 182.8C547.9 188.2 549.6 193.8 551.1 199.3C551.376 200.321 551.236 201.41 550.711 202.328C550.187 203.247 549.32 203.92 548.3 204.2C548 204.2 547.7 204.3 547.3 204.3ZM24.4998 199.6C24.1634 199.617 23.8263 199.583 23.4998 199.5C22.4703 199.227 21.5894 198.56 21.0469 197.644C20.5044 196.727 20.3438 195.634 20.5998 194.6C21.9998 189 23.6998 183.5 25.4998 178C25.8446 176.992 26.5756 176.163 27.532 175.694C28.4885 175.225 29.592 175.156 30.5998 175.5C31.6076 175.845 32.4372 176.576 32.9061 177.533C33.3749 178.489 33.4446 179.592 33.0998 180.6C31.3998 185.9 29.7998 191.3 28.3998 196.6C28.1693 197.459 27.6625 198.218 26.9576 198.76C26.2528 199.303 25.3891 199.598 24.4998 199.6ZM535.4 170.4C534.62 170.39 533.858 170.159 533.204 169.734C532.549 169.309 532.028 168.708 531.7 168C529.5 162.9 527.1 157.8 524.5 152.9C524.257 152.434 524.108 151.925 524.062 151.401C524.016 150.877 524.074 150.35 524.231 149.848C524.389 149.347 524.644 148.881 524.982 148.479C525.32 148.076 525.734 147.743 526.2 147.5C526.666 147.257 527.175 147.109 527.699 147.063C528.223 147.017 528.75 147.074 529.252 147.232C529.753 147.39 530.219 147.645 530.622 147.983C531.024 148.32 531.357 148.734 531.6 149.2C534.2 154.3 536.7 159.5 539 164.8C539.263 165.404 539.374 166.063 539.321 166.72C539.269 167.376 539.055 168.01 538.699 168.564C538.343 169.118 537.855 169.575 537.28 169.896C536.704 170.216 536.058 170.389 535.4 170.4ZM35.9998 165.5C35.4852 165.498 34.9759 165.396 34.4998 165.2C33.5379 164.782 32.7787 164.003 32.3859 163.03C31.9931 162.057 31.9981 160.969 32.3998 160C34.5998 154.7 37.0998 149.4 39.6998 144.3C40.1772 143.346 41.0143 142.619 42.027 142.282C43.0397 141.944 44.145 142.023 45.0998 142.5C46.0546 142.978 46.7806 143.815 47.1182 144.828C47.4557 145.84 47.3772 146.946 46.8998 147.9C44.3998 152.9 41.9998 158 39.8998 163.1C39.5191 163.809 38.9578 164.404 38.2729 164.825C37.588 165.247 36.8038 165.48 35.9998 165.5ZM518.7 138.5C518.018 138.5 517.348 138.325 516.753 137.992C516.158 137.66 515.658 137.18 515.3 136.6C512.4 131.9 509.3 127.2 506.1 122.6C505.49 121.725 505.252 120.643 505.44 119.593C505.628 118.543 506.225 117.61 507.1 117C507.975 116.39 509.057 116.153 510.107 116.34C511.157 116.528 512.09 117.125 512.7 118C516 122.7 519.2 127.5 522.2 132.4C522.756 133.302 522.931 134.388 522.687 135.419C522.444 136.45 521.801 137.343 520.9 137.9C520.229 138.283 519.472 138.49 518.7 138.5ZM52.3998 133.5C51.6591 133.489 50.9347 133.282 50.2998 132.9C49.8465 132.631 49.4521 132.273 49.14 131.848C48.8279 131.423 48.6045 130.939 48.4832 130.426C48.3619 129.913 48.3452 129.38 48.4339 128.861C48.5227 128.341 48.7151 127.844 48.9998 127.4C51.9998 122.5 55.1998 117.6 58.4998 112.9C59.1098 112.025 60.0425 111.428 61.0927 111.241C62.1429 111.053 63.2246 111.29 64.0998 111.9C64.975 112.51 65.5721 113.443 65.7596 114.493C65.9471 115.543 65.7098 116.625 65.0998 117.5C61.8998 122 58.7998 126.8 55.8998 131.5C55.523 132.093 55.0073 132.585 54.3974 132.934C53.7875 133.282 53.1018 133.477 52.3998 133.5ZM497.9 109.1C497.303 109.106 496.712 108.973 496.174 108.713C495.637 108.453 495.166 108.072 494.8 107.6C491.3 103.3 487.6 99.1003 483.8 95.0003C483.082 94.2124 482.701 93.1748 482.738 92.1096C482.776 91.0443 483.229 90.036 484 89.3003C484.385 88.9351 484.839 88.6503 485.336 88.4624C485.832 88.2745 486.361 88.1873 486.892 88.2059C487.422 88.2246 487.944 88.3486 488.426 88.5708C488.908 88.793 489.341 89.109 489.7 89.5003C493.6 93.7003 497.4 98.1003 501.1 102.5C501.758 103.324 502.065 104.375 501.952 105.424C501.84 106.473 501.318 107.435 500.5 108.1C499.787 108.744 498.86 109.1 497.9 109.1ZM73.1998 104.2C72.2859 104.207 71.3995 103.888 70.6998 103.3C69.8965 102.62 69.3936 101.651 69.3 100.603C69.2064 99.5547 69.5297 98.5118 70.1998 97.7003C73.7998 93.3003 77.6998 88.9003 81.5998 84.8003C81.9609 84.4129 82.3948 84.1004 82.8767 83.8807C83.3586 83.661 83.8791 83.5384 84.4084 83.5198C84.9377 83.5012 85.4655 83.5871 85.9616 83.7725C86.4577 83.9579 86.9124 84.2392 87.2998 84.6003C87.6872 84.9614 87.9997 85.3953 88.2194 85.8772C88.4391 86.3591 88.5617 86.8796 88.5803 87.4089C88.5989 87.9382 88.513 88.466 88.3276 88.9621C88.1422 89.4582 87.8609 89.9129 87.4998 90.3003C83.6998 94.3003 79.9998 98.6003 76.3998 102.8C75.555 103.664 74.4076 104.166 73.1998 104.2ZM473.3 82.9003C472.291 82.9007 471.321 82.5058 470.6 81.8003C466.5 78.0003 462.3 74.3003 458 70.7003C457.319 69.9894 456.924 69.0523 456.891 68.0685C456.858 67.0846 457.188 66.1231 457.82 65.3679C458.451 64.6126 459.339 64.1168 460.313 63.9752C461.287 63.8335 462.28 64.0561 463.1 64.6003C467.5 68.2003 471.9 72.1003 476.1 76.0003C476.873 76.7347 477.328 77.7434 477.365 78.8094C477.403 79.8754 477.02 80.9135 476.3 81.7003C475.478 82.4499 474.412 82.8762 473.3 82.9003ZM97.9998 78.1003C97.4364 78.1071 96.8779 77.9949 96.3609 77.7708C95.8439 77.5468 95.3801 77.2161 94.9998 76.8003C94.6408 76.4086 94.3634 75.9492 94.1838 75.4491C94.0043 74.9489 93.9262 74.418 93.9541 73.8874C93.9821 73.3567 94.1154 72.837 94.3465 72.3584C94.5775 71.8799 94.9016 71.4522 95.2998 71.1003C99.4998 67.2003 103.9 63.5003 108.4 59.9003C109.23 59.3503 110.236 59.1299 111.22 59.2823C112.205 59.4346 113.097 59.9488 113.722 60.7242C114.347 61.4996 114.661 62.4803 114.601 63.4746C114.542 64.4689 114.113 65.4052 113.4 66.1003C109.1 69.6003 104.8 73.2003 100.7 77.0003C100.351 77.3608 99.9303 77.6448 99.4654 77.8341C99.0006 78.0235 98.5015 78.1141 97.9998 78.1003ZM445.4 60.1003C444.578 60.1157 443.773 59.8706 443.1 59.4003C438.6 56.2003 433.9 53.0003 429.2 50.1003C428.729 49.8368 428.316 49.4806 427.986 49.0532C427.656 48.6258 427.416 48.1361 427.281 47.6135C427.145 47.0909 427.117 46.5463 427.197 46.0125C427.278 45.4786 427.466 44.9666 427.749 44.5073C428.033 44.048 428.407 43.6509 428.848 43.3398C429.289 43.0288 429.789 42.8103 430.317 42.6975C430.845 42.5848 431.39 42.58 431.92 42.6836C432.45 42.7872 432.953 42.997 433.4 43.3003C438.3 46.3003 443.1 49.6003 447.8 52.9003C448.228 53.208 448.591 53.5973 448.868 54.0457C449.145 54.4941 449.33 54.9928 449.414 55.5132C449.498 56.0336 449.478 56.5654 449.355 57.078C449.232 57.5907 449.01 58.074 448.7 58.5003C448.299 58.9902 447.796 59.387 447.226 59.6632C446.656 59.9395 446.033 60.0886 445.4 60.1003ZM126.2 55.8003C125.342 55.8088 124.505 55.5415 123.811 55.0378C123.116 54.534 122.603 53.8205 122.345 53.0025C122.087 52.1845 122.099 51.3054 122.379 50.4948C122.659 49.6841 123.192 48.9849 123.9 48.5003C128.6 45.3003 133.5 42.1003 138.4 39.2003C139.315 38.6566 140.408 38.4987 141.44 38.7612C142.471 39.0238 143.356 39.6853 143.9 40.6003C144.443 41.5153 144.601 42.6088 144.339 43.6403C144.076 44.6717 143.415 45.5566 142.5 46.1003C137.7 49.0003 133 52.0003 128.4 55.1003C127.736 55.5118 126.98 55.7523 126.2 55.8003ZM414.8 41.2003C414.137 41.1759 413.488 41.0052 412.9 40.7003C408 38.1003 402.9 35.6003 397.9 33.3003C396.932 32.8627 396.177 32.0585 395.802 31.0645C395.427 30.0706 395.462 28.9683 395.9 28.0003C396.337 27.0323 397.142 26.2777 398.136 25.9026C399.13 25.5276 400.232 25.5627 401.2 26.0003C406.4 28.4003 411.6 30.9003 416.7 33.6003C417.625 34.1074 418.318 34.9524 418.635 35.9586C418.952 36.9649 418.868 38.0547 418.4 39.0003C418.046 39.6513 417.527 40.1975 416.895 40.5838C416.263 40.9701 415.54 41.1827 414.8 41.2003ZM157.1 37.4003C156.189 37.4133 155.302 37.1155 154.584 36.5559C153.866 35.9963 153.36 35.2085 153.15 34.3226C152.94 33.4367 153.039 32.5057 153.43 31.6835C153.821 30.8613 154.48 30.1969 155.3 29.8003C160.4 27.2003 165.7 24.8003 170.9 22.5003C171.881 22.076 172.991 22.0588 173.985 22.4526C174.979 22.8465 175.775 23.619 176.2 24.6003C176.624 25.5816 176.641 26.6913 176.247 27.6852C175.854 28.6792 175.081 29.476 174.1 29.9003C169 32.1003 163.9 34.5003 158.9 37.0003C158.34 37.2749 157.723 37.412 157.1 37.4003ZM382 26.3003C381.518 26.297 381.041 26.1949 380.6 26.0003C375.4 24.0003 370.1 22.2003 364.8 20.6003C363.875 20.2174 363.127 19.5017 362.705 18.5945C362.282 17.6873 362.214 16.6545 362.516 15.7001C362.817 14.7457 363.465 13.9389 364.333 13.4391C365.2 12.9392 366.223 12.7827 367.2 13.0003C372.7 14.7003 378.2 16.6003 383.5 18.6003C384.355 18.9516 385.062 19.5885 385.501 20.4026C385.94 21.2166 386.083 22.1575 385.906 23.0652C385.729 23.9729 385.244 24.7913 384.531 25.3811C383.819 25.9709 382.925 26.2957 382 26.3003ZM190.2 23.4003C189.364 23.4039 188.547 23.1454 187.866 22.6611C187.184 22.1768 186.672 21.4911 186.4 20.7003C186.227 20.2014 186.154 19.6732 186.187 19.1462C186.219 18.6191 186.355 18.1037 186.587 17.6296C186.82 17.1554 187.144 16.732 187.541 16.3837C187.938 16.0355 188.4 15.7692 188.9 15.6003C194.3 13.7003 199.8 12.0003 205.3 10.4003C206.294 10.2012 207.326 10.3867 208.188 10.9194C209.05 11.4521 209.678 12.2921 209.945 13.2699C210.211 14.2476 210.097 15.2902 209.624 16.1868C209.152 17.0834 208.357 17.7673 207.4 18.1003C202.1 19.6003 196.7 21.3003 191.4 23.1003C191.033 23.3043 190.619 23.4078 190.2 23.4003ZM347.6 15.8003C347.296 15.8166 346.992 15.7828 346.7 15.7003C341.3 14.4003 335.8 13.3003 330.3 12.3003C329.729 12.2773 329.169 12.1322 328.659 11.8747C328.149 11.6173 327.699 11.2535 327.342 10.8078C326.984 10.3621 326.726 9.84487 326.585 9.291C326.443 8.73713 326.423 8.15945 326.524 7.59688C326.625 7.03432 326.845 6.49992 327.17 6.02969C327.495 5.55947 327.917 5.16433 328.407 4.8709C328.898 4.57747 329.445 4.39257 330.013 4.32864C330.581 4.26471 331.156 4.32325 331.7 4.5003C337.3 5.5003 343 6.7003 348.6 8.0003C349.625 8.25471 350.511 8.89769 351.071 9.79339C351.631 10.6891 351.82 11.7673 351.6 12.8003C351.347 13.6655 350.82 14.4255 350.099 14.9663C349.378 15.5071 348.501 15.7998 347.6 15.8003ZM224.8 13.8003C223.824 13.7796 222.889 13.4025 222.171 12.7401C221.454 12.0777 221.003 11.1757 220.905 10.2042C220.807 9.23271 221.067 8.25877 221.637 7.46598C222.207 6.67319 223.048 6.11632 224 5.90031C229.6 4.70031 235.3 3.70031 241 2.90031C242.005 2.83867 242.997 3.15878 243.777 3.79669C244.557 4.43459 245.067 5.34329 245.206 6.34117C245.345 7.33905 245.103 8.35262 244.527 9.1793C243.951 10.006 243.084 10.5849 242.1 10.8003C236.6 11.6003 231 12.6003 225.6 13.7003C225.342 13.7826 225.07 13.8165 224.8 13.8003ZM313.3 9.8003H312.8C307.3 9.2003 301.6 8.70031 296.1 8.40031C295.575 8.37404 295.06 8.24457 294.584 8.01929C294.109 7.794 293.683 7.47732 293.33 7.08731C292.977 6.6973 292.705 6.24161 292.528 5.74626C292.351 5.25091 292.274 4.72559 292.3 4.2003C292.326 3.67502 292.456 3.16005 292.681 2.68479C292.906 2.20954 293.223 1.78332 293.613 1.43046C294.003 1.07759 294.458 0.805003 294.954 0.628249C295.449 0.451496 295.975 0.374041 296.5 0.400306C302.2 0.700306 308 1.2003 313.7 1.8003C314.223 1.84815 314.731 2.0015 315.193 2.25109C315.656 2.50068 316.063 2.84134 316.39 3.25252C316.717 3.66371 316.957 4.13689 317.097 4.64352C317.236 5.15015 317.271 5.67973 317.2 6.2003C317.136 7.18615 316.695 8.10965 315.969 8.77973C315.243 9.44982 314.288 9.81521 313.3 9.8003ZM260.4 8.8003C259.339 8.84009 258.306 8.45681 257.527 7.7348C256.749 7.01278 256.29 6.01117 256.25 4.9503C256.21 3.88944 256.593 2.85622 257.315 2.07794C258.037 1.29967 259.039 0.840086 260.1 0.800304C265.8 0.400304 271.6 0.100304 277.3 0.000304382C277.825 -0.0129931 278.348 0.0773511 278.838 0.266177C279.329 0.455004 279.777 0.738611 280.158 1.10079C280.539 1.46297 280.844 1.89663 281.057 2.37698C281.271 2.85733 281.387 3.37497 281.4 3.90031C281.406 4.95536 281.003 5.9718 280.276 6.73627C279.549 7.50073 278.554 7.95377 277.5 8.0003C271.9 8.1003 266.3 8.30031 260.8 8.7003C260.678 8.76986 260.54 8.80447 260.4 8.8003Z" fill="url(#paint3_linear_496_424)"/>
<path d="M170 153.5H423.1C427.235 153.5 431.2 155.143 434.124 158.066C437.048 160.99 438.69 164.955 438.69 169.09V323.71H154.39V169.09C154.39 167.041 154.794 165.012 155.579 163.119C156.363 161.227 157.514 159.507 158.963 158.059C160.413 156.611 162.134 155.463 164.028 154.681C165.922 153.899 167.951 153.497 170 153.5Z" fill="#38454F"/>
<path d="M424.24 160.79H165.16V312.07H424.24V160.79Z" fill="#D5F1EC"/>
<path d="M154.39 323.71H438.69V353C438.69 357.135 437.048 361.1 434.124 364.024C431.2 366.947 427.235 368.59 423.1 368.59H170C167.951 368.593 165.922 368.191 164.028 367.409C162.134 366.627 160.413 365.479 158.963 364.031C157.514 362.583 156.363 360.863 155.579 358.971C154.794 357.078 154.39 355.049 154.39 353V323.71Z" fill="#E7ECED"/>
<path fill-rule="evenodd" clip-rule="evenodd" d="M165.16 312.07L424.23 160.79V312.07H165.16Z" fill="#97DCD0"/>
<path d="M354.27 408.04H238.54V422.37H354.27V408.04Z" fill="#E7ECED"/>
<path fill-rule="evenodd" clip-rule="evenodd" d="M328.73 368.5C328.73 368.5 327.89 383.84 333.89 392C339.89 400.16 354.27 408 354.27 408H238.54C238.54 408 252.92 400.15 258.92 392C264.92 383.85 264.08 368.5 264.08 368.5H328.73Z" fill="#AFB6BB"/>
<path fill-rule="evenodd" clip-rule="evenodd" d="M539.51 67.0404C539.51 81.2004 521.87 112.37 513.87 112.37C506.08 112.37 488.23 81.2004 488.23 67.0404C488.23 60.2402 490.931 53.7186 495.74 48.9102C500.548 44.1017 507.07 41.4004 513.87 41.4004C520.67 41.4004 527.192 44.1017 532 48.9102C536.809 53.7186 539.51 60.2402 539.51 67.0404Z" fill="#D43D21"/>
<path d="M513.87 84.3196C523.469 84.3196 531.25 76.5383 531.25 66.9396C531.25 57.3409 523.469 49.5596 513.87 49.5596C504.272 49.5596 496.49 57.3409 496.49 66.9396C496.49 76.5383 504.272 84.3196 513.87 84.3196Z" fill="#F7F1E6"/>
<path d="M514.7 58.3496H513.04C511.958 58.3496 511.08 59.2271 511.08 60.3096V73.4696C511.08 74.5521 511.958 75.4296 513.04 75.4296H514.7C515.783 75.4296 516.66 74.5521 516.66 73.4696V60.3096C516.66 59.2271 515.783 58.3496 514.7 58.3496Z" fill="#D43D21"/>
<path d="M522.41 67.7196V66.0596C522.41 64.9771 521.533 64.0996 520.45 64.0996H507.29C506.208 64.0996 505.33 64.9771 505.33 66.0596V67.7196C505.33 68.8021 506.208 69.6796 507.29 69.6796H520.45C521.533 69.6796 522.41 68.8021 522.41 67.7196Z" fill="#D43D21"/>
<path fill-rule="evenodd" clip-rule="evenodd" d="M453.67 76.5H386C383.419 76.5 380.945 77.5251 379.12 79.3499C377.295 81.1746 376.27 83.6494 376.27 86.23V210.95C376.27 212.228 376.522 213.493 377.011 214.674C377.5 215.854 378.216 216.927 379.12 217.83C380.023 218.734 381.096 219.45 382.277 219.939C383.457 220.428 384.722 220.68 386 220.68H468.69C471.271 220.68 473.745 219.655 475.57 217.83C477.395 216.005 478.42 213.531 478.42 210.95V101.6L453.67 76.5Z" fill="#F7F1E6"/>
<path d="M425.95 89.25H420.56C419.478 89.25 418.6 90.1275 418.6 91.21V115.8C418.6 116.882 419.478 117.76 420.56 117.76H425.95C427.033 117.76 427.91 116.882 427.91 115.8V91.21C427.91 90.1275 427.033 89.25 425.95 89.25Z" fill="#D43D21"/>
<path d="M437.52 106.2V100.81C437.52 99.7271 436.642 98.8496 435.56 98.8496H410.97C409.888 98.8496 409.01 99.7271 409.01 100.81V106.2C409.01 107.282 409.888 108.16 410.97 108.16H435.56C436.642 108.16 437.52 107.282 437.52 106.2Z" fill="#D43D21"/>
<path fill-rule="evenodd" clip-rule="evenodd" d="M453.67 76.5V91.19C453.67 93.9509 454.767 96.5987 456.719 98.551C458.671 100.503 461.319 101.6 464.08 101.6H478.38L453.67 76.5Z" fill="#E0DCD3"/>
<path d="M405.21 125.31H393.41C391.444 125.31 389.85 126.903 389.85 128.87V140.21C389.85 142.176 391.444 143.77 393.41 143.77H405.21C407.176 143.77 408.77 142.176 408.77 140.21V128.87C408.77 126.903 407.176 125.31 405.21 125.31Z" fill="#DEC8AE"/>
<path d="M467.1 143.14H413.67C413.139 143.14 412.631 142.929 412.256 142.554C411.881 142.179 411.67 141.67 411.67 141.14C411.67 140.609 411.881 140.101 412.256 139.725C412.631 139.35 413.139 139.14 413.67 139.14H467.1C467.63 139.14 468.139 139.35 468.514 139.725C468.889 140.101 469.1 140.609 469.1 141.14C469.1 141.67 468.889 142.179 468.514 142.554C468.139 142.929 467.63 143.14 467.1 143.14Z" fill="#DEC8AE"/>
<path d="M467.1 159.58H392.1C391.57 159.58 391.061 159.369 390.686 158.994C390.311 158.619 390.1 158.111 390.1 157.58C390.1 157.05 390.311 156.541 390.686 156.166C391.061 155.791 391.57 155.58 392.1 155.58H467.1C467.631 155.58 468.139 155.791 468.514 156.166C468.889 156.541 469.1 157.05 469.1 157.58C469.1 158.111 468.889 158.619 468.514 158.994C468.139 159.369 467.631 159.58 467.1 159.58Z" fill="#DEC8AE"/>
<path d="M467.1 176.01H392.1C391.57 176.01 391.061 175.799 390.686 175.424C390.311 175.049 390.1 174.54 390.1 174.01C390.1 173.479 390.311 172.971 390.686 172.596C391.061 172.22 391.57 172.01 392.1 172.01H467.1C467.631 172.01 468.139 172.22 468.514 172.596C468.889 172.971 469.1 173.479 469.1 174.01C469.1 174.54 468.889 175.049 468.514 175.424C468.139 175.799 467.631 176.01 467.1 176.01Z" fill="#DEC8AE"/>
<path d="M467.1 192.5H392.1C391.57 192.5 391.061 192.289 390.686 191.914C390.311 191.539 390.1 191.03 390.1 190.5C390.1 189.97 390.311 189.461 390.686 189.086C391.061 188.711 391.57 188.5 392.1 188.5H467.1C467.631 188.5 468.139 188.711 468.514 189.086C468.889 189.461 469.1 189.97 469.1 190.5C469.1 191.03 468.889 191.539 468.514 191.914C468.139 192.289 467.631 192.5 467.1 192.5Z" fill="#DEC8AE"/>
<path d="M543.075 223.601L554.644 235.169C555.418 235.944 555.853 236.994 555.853 238.089C555.853 239.185 555.418 240.235 554.644 241.01L514.459 281.195C512.156 283.497 509.035 284.794 505.779 284.8C502.523 284.807 499.397 283.523 497.085 281.23C494.777 278.921 493.48 275.79 493.48 272.526C493.48 269.261 494.777 266.13 497.085 263.821L537.27 223.636C538.045 222.862 539.095 222.427 540.19 222.427C541.286 222.427 542.336 222.862 543.111 223.636L543.075 223.601Z" fill="#62A5A2"/>
<path d="M466.5 312.76C466.103 312.756 465.723 312.598 465.44 312.32C465.161 312.037 465.005 311.656 465.005 311.26C465.005 310.863 465.161 310.482 465.44 310.2L492.83 282.81C492.97 282.67 493.136 282.56 493.318 282.485C493.501 282.41 493.696 282.372 493.894 282.372C494.091 282.373 494.286 282.412 494.468 282.488C494.65 282.564 494.816 282.675 494.955 282.815C495.094 282.955 495.204 283.12 495.28 283.303C495.355 283.485 495.393 283.681 495.393 283.878C495.392 284.076 495.353 284.271 495.277 284.453C495.201 284.635 495.09 284.8 494.95 284.94L467.56 312.32C467.421 312.459 467.256 312.57 467.074 312.646C466.892 312.721 466.697 312.76 466.5 312.76Z" fill="#2B3237"/>
<path fill-rule="evenodd" clip-rule="evenodd" d="M505.75 281.79C503.91 281.789 502.111 281.242 500.581 280.219C499.051 279.196 497.859 277.742 497.155 276.042C496.45 274.341 496.266 272.471 496.625 270.665C496.984 268.86 497.869 267.202 499.17 265.9L516.6 248.5C516.705 248.395 516.83 248.312 516.967 248.255C517.104 248.199 517.251 248.17 517.4 248.17C517.549 248.169 517.696 248.197 517.833 248.254C517.971 248.31 518.096 248.394 518.2 248.5L529.77 260.07C529.978 260.28 530.097 260.564 530.1 260.86C530.097 261.159 529.979 261.446 529.77 261.66L512.33 279.1C511.465 279.961 510.439 280.642 509.309 281.104C508.18 281.566 506.97 281.799 505.75 281.79Z" fill="#F7F1E6"/>
<path d="M495.367 277.697L500.522 282.851L497.941 285.432C497.256 286.117 496.328 286.501 495.36 286.501C494.392 286.501 493.463 286.117 492.779 285.432C492.094 284.748 491.71 283.819 491.71 282.851C491.71 281.883 492.094 280.955 492.779 280.27L495.36 277.689L495.367 277.697Z" fill="#5A9794"/>
<path d="M555.674 226.421L551.828 222.574L546.065 228.337L549.911 232.184L555.674 226.421Z" fill="#F8F2E7"/>
<path d="M550.163 231.93L546.316 228.083L522.062 252.337L525.909 256.183L550.163 231.93Z" fill="#5C9895"/>
<path d="M566.643 228.902L549.333 211.592C547.994 210.253 545.823 210.251 544.486 211.589C543.148 212.926 543.15 215.097 544.489 216.436L561.799 233.746C563.139 235.086 565.309 235.087 566.647 233.75C567.984 232.412 567.983 230.242 566.643 228.902Z" fill="#2B3237"/>
<path d="M585.15 302.58H501V404.37H585.15V302.58Z" fill="#AFB6BB"/>
<path d="M582.15 401.37V305.58H504V401.37H582.15Z" fill="#E6E6E6"/>
<path d="M555.36 337.92H530.85C530.452 337.92 530.071 337.762 529.789 337.48C529.508 337.199 529.35 336.818 529.35 336.42C529.35 336.022 529.508 335.64 529.789 335.359C530.071 335.078 530.452 334.92 530.85 334.92H553.85V314.18H530.85C530.452 314.18 530.071 314.022 529.789 313.74C529.508 313.459 529.35 313.078 529.35 312.68C529.35 312.282 529.508 311.9 529.789 311.619C530.071 311.338 530.452 311.18 530.85 311.18H555.36C555.758 311.18 556.139 311.338 556.421 311.619C556.702 311.9 556.86 312.282 556.86 312.68V336.42C556.86 336.818 556.702 337.199 556.421 337.48C556.139 337.762 555.758 337.92 555.36 337.92Z" fill="#7C8F8E"/>
<path d="M555.36 326.05H530.85C530.452 326.05 530.071 325.892 529.789 325.61C529.508 325.329 529.35 324.948 529.35 324.55C529.35 324.152 529.508 323.77 529.789 323.489C530.071 323.208 530.452 323.05 530.85 323.05H555.36C555.758 323.05 556.139 323.208 556.421 323.489C556.702 323.77 556.86 324.152 556.86 324.55C556.86 324.948 556.702 325.329 556.421 325.61C556.139 325.892 555.758 326.05 555.36 326.05Z" fill="#7C8F8E"/>
<path d="M526.38 361.89H512.1C511.702 361.89 511.321 361.732 511.039 361.45C510.758 361.169 510.6 360.787 510.6 360.39C510.6 359.992 510.758 359.61 511.039 359.329C511.321 359.048 511.702 358.89 512.1 358.89H524.88V348.06H512.1C511.702 348.06 511.321 347.902 511.039 347.62C510.758 347.339 510.6 346.957 510.6 346.56C510.6 346.162 510.758 345.78 511.039 345.499C511.321 345.218 511.702 345.06 512.1 345.06H526.38C526.778 345.06 527.159 345.218 527.441 345.499C527.722 345.78 527.88 346.162 527.88 346.56V360.39C527.88 360.787 527.722 361.169 527.441 361.45C527.159 361.732 526.778 361.89 526.38 361.89Z" fill="#7C8F8E"/>
<path d="M526.38 354.97H512.1C511.702 354.97 511.321 354.812 511.039 354.53C510.758 354.249 510.6 353.868 510.6 353.47C510.6 353.072 510.758 352.69 511.039 352.409C511.321 352.128 511.702 351.97 512.1 351.97H526.38C526.778 351.97 527.159 352.128 527.441 352.409C527.722 352.69 527.88 353.072 527.88 353.47C527.88 353.868 527.722 354.249 527.441 354.53C527.159 354.812 526.778 354.97 526.38 354.97Z" fill="#7C8F8E"/>
<path d="M550 362.12H536.19C535.792 362.12 535.411 361.962 535.129 361.681C534.848 361.399 534.69 361.018 534.69 360.62V346.33C534.69 345.932 534.848 345.551 535.129 345.269C535.411 344.988 535.792 344.83 536.19 344.83C536.588 344.83 536.969 344.988 537.251 345.269C537.532 345.551 537.69 345.932 537.69 346.33V359.12H548.52V346.33C548.52 345.932 548.678 345.551 548.959 345.269C549.241 344.988 549.622 344.83 550.02 344.83C550.418 344.83 550.799 344.988 551.081 345.269C551.362 345.551 551.52 345.932 551.52 346.33V360.62C551.52 360.819 551.48 361.015 551.404 361.199C551.327 361.382 551.215 361.548 551.074 361.688C550.932 361.827 550.764 361.937 550.58 362.012C550.396 362.086 550.199 362.123 550 362.12Z" fill="#7C8F8E"/>
<path d="M543.1 362.12C542.702 362.12 542.321 361.962 542.039 361.681C541.758 361.399 541.6 361.018 541.6 360.62V346.33C541.6 345.932 541.758 345.551 542.039 345.269C542.321 344.988 542.702 344.83 543.1 344.83C543.498 344.83 543.879 344.988 544.161 345.269C544.442 345.551 544.6 345.932 544.6 346.33V360.62C544.6 361.018 544.442 361.399 544.161 361.681C543.879 361.962 543.498 362.12 543.1 362.12Z" fill="#7C8F8E"/>
<path d="M574.29 361.89H560C559.602 361.89 559.221 361.732 558.939 361.45C558.658 361.169 558.5 360.787 558.5 360.39V346.56C558.5 346.162 558.658 345.78 558.939 345.499C559.221 345.218 559.602 345.06 560 345.06H574.28C574.678 345.06 575.059 345.218 575.341 345.499C575.622 345.78 575.78 346.162 575.78 346.56C575.78 346.957 575.622 347.339 575.341 347.62C575.059 347.902 574.678 348.06 574.28 348.06H561.51V358.89H574.29C574.688 358.89 575.069 359.048 575.351 359.329C575.632 359.61 575.79 359.992 575.79 360.39C575.79 360.787 575.632 361.169 575.351 361.45C575.069 361.732 574.688 361.89 574.29 361.89Z" fill="#7C8F8E"/>
<path d="M574.29 354.97H560C559.602 354.97 559.221 354.812 558.939 354.53C558.658 354.249 558.5 353.868 558.5 353.47C558.5 353.072 558.658 352.69 558.939 352.409C559.221 352.128 559.602 351.97 560 351.97H574.28C574.678 351.97 575.059 352.128 575.341 352.409C575.622 352.69 575.78 353.072 575.78 353.47C575.78 353.868 575.622 354.249 575.341 354.53C575.059 354.812 574.678 354.97 574.28 354.97H574.29Z" fill="#7C8F8E"/>
<path d="M574.29 380.5H563.46C563.062 380.5 562.681 380.342 562.399 380.061C562.118 379.779 561.96 379.398 561.96 379V368.5C561.96 368.102 562.118 367.721 562.399 367.439C562.681 367.158 563.062 367 563.46 367H574.29C574.688 367 575.069 367.158 575.351 367.439C575.632 367.721 575.79 368.102 575.79 368.5C575.79 368.898 575.632 369.279 575.351 369.561C575.069 369.842 574.688 370 574.29 370H565V377.5H574.33C574.728 377.5 575.109 377.658 575.391 377.939C575.672 378.221 575.83 378.602 575.83 379C575.83 379.398 575.672 379.779 575.391 380.061C575.109 380.342 574.728 380.5 574.33 380.5H574.29Z" fill="#7C8F8E"/>
<path d="M574.29 375.29H563.46C563.062 375.29 562.681 375.132 562.399 374.851C562.118 374.569 561.96 374.188 561.96 373.79C561.96 373.392 562.118 373.011 562.399 372.729C562.681 372.448 563.062 372.29 563.46 372.29H574.29C574.688 372.29 575.069 372.448 575.351 372.729C575.632 373.011 575.79 373.392 575.79 373.79C575.79 374.188 575.632 374.569 575.351 374.851C575.069 375.132 574.688 375.29 574.29 375.29Z" fill="#7C8F8E"/>
<path d="M557.1 380.5H546.27C545.872 380.5 545.491 380.342 545.209 380.06C544.928 379.779 544.77 379.398 544.77 379C544.77 378.602 544.928 378.22 545.209 377.939C545.491 377.658 545.872 377.5 546.27 377.5H555.6V370.01H546.27C545.872 370.01 545.491 369.852 545.209 369.57C544.928 369.289 544.77 368.908 544.77 368.51C544.77 368.112 544.928 367.73 545.209 367.449C545.491 367.168 545.872 367.01 546.27 367.01H557.1C557.498 367.01 557.879 367.168 558.161 367.449C558.442 367.73 558.6 368.112 558.6 368.51V379C558.6 379.398 558.442 379.779 558.161 380.06C557.879 380.342 557.498 380.5 557.1 380.5Z" fill="#7C8F8E"/>
<path d="M557.1 375.29H546.27C545.872 375.29 545.491 375.132 545.209 374.851C544.928 374.569 544.77 374.188 544.77 373.79C544.77 373.392 544.928 373.011 545.209 372.729C545.491 372.448 545.872 372.29 546.27 372.29H557.1C557.498 372.29 557.879 372.448 558.161 372.729C558.442 373.011 558.6 373.392 558.6 373.79C558.6 374.188 558.442 374.569 558.161 374.851C557.879 375.132 557.498 375.29 557.1 375.29Z" fill="#7C8F8E"/>
<path d="M539.91 380.7C539.512 380.7 539.131 380.542 538.85 380.261C538.568 379.979 538.41 379.598 538.41 379.2V369.87H530.91V379.2C530.91 379.598 530.752 379.979 530.471 380.261C530.19 380.542 529.808 380.7 529.41 380.7C529.012 380.7 528.631 380.542 528.35 380.261C528.068 379.979 527.91 379.598 527.91 379.2V368.37C527.91 367.972 528.068 367.591 528.35 367.309C528.631 367.028 529.012 366.87 529.41 366.87H539.91C540.308 366.87 540.69 367.028 540.971 367.309C541.252 367.591 541.41 367.972 541.41 368.37V379.2C541.41 379.598 541.252 379.979 540.971 380.261C540.69 380.542 540.308 380.7 539.91 380.7Z" fill="#7C8F8E"/>
<path d="M534.66 380.7C534.262 380.7 533.881 380.542 533.6 380.261C533.318 379.979 533.16 379.598 533.16 379.2V368.37C533.16 367.972 533.318 367.591 533.6 367.309C533.881 367.028 534.262 366.87 534.66 366.87C535.058 366.87 535.44 367.028 535.721 367.309C536.002 367.591 536.16 367.972 536.16 368.37V379.2C536.16 379.598 536.002 379.979 535.721 380.261C535.44 380.542 535.058 380.7 534.66 380.7Z" fill="#7C8F8E"/>
<path d="M522.91 380.7H512.42C512.022 380.7 511.641 380.542 511.359 380.261C511.078 379.979 510.92 379.598 510.92 379.2V368.37C510.92 367.972 511.078 367.591 511.359 367.309C511.641 367.028 512.022 366.87 512.42 366.87C512.818 366.87 513.199 367.028 513.481 367.309C513.762 367.591 513.92 367.972 513.92 368.37V377.7H521.41V368.37C521.41 367.972 521.568 367.591 521.849 367.309C522.131 367.028 522.512 366.87 522.91 366.87C523.308 366.87 523.689 367.028 523.971 367.309C524.252 367.591 524.41 367.972 524.41 368.37V379.2C524.41 379.598 524.252 379.979 523.971 380.261C523.689 380.542 523.308 380.7 522.91 380.7Z" fill="#7C8F8E"/>
<path d="M517.67 380.7C517.272 380.7 516.891 380.542 516.609 380.261C516.328 379.979 516.17 379.598 516.17 379.2V368.37C516.17 367.972 516.328 367.591 516.609 367.309C516.891 367.028 517.272 366.87 517.67 366.87C518.068 366.87 518.449 367.028 518.731 367.309C519.012 367.591 519.17 367.972 519.17 368.37V379.2C519.17 379.598 519.012 379.979 518.731 380.261C518.449 380.542 518.068 380.7 517.67 380.7Z" fill="#7C8F8E"/>
<path d="M519.77 395.92H512.25C511.852 395.92 511.471 395.762 511.189 395.481C510.908 395.199 510.75 394.818 510.75 394.42C510.75 394.022 510.908 393.641 511.189 393.359C511.471 393.078 511.852 392.92 512.25 392.92H518.25V388.63H512.25C511.852 388.63 511.471 388.472 511.189 388.191C510.908 387.909 510.75 387.528 510.75 387.13C510.75 386.732 510.908 386.351 511.189 386.069C511.471 385.788 511.852 385.63 512.25 385.63H519.77C520.168 385.63 520.549 385.788 520.831 386.069C521.112 386.351 521.27 386.732 521.27 387.13V394.42C521.27 394.818 521.112 395.199 520.831 395.481C520.549 395.762 520.168 395.92 519.77 395.92Z" fill="#7C8F8E"/>
<path d="M533.36 396.04C532.962 396.04 532.581 395.881 532.299 395.6C532.018 395.319 531.86 394.937 531.86 394.54V388.54H527.58V394.54C527.58 394.937 527.422 395.319 527.141 395.6C526.859 395.881 526.478 396.04 526.08 396.04C525.682 396.04 525.301 395.881 525.019 395.6C524.738 395.319 524.58 394.937 524.58 394.54V387.02C524.58 386.622 524.738 386.24 525.019 385.959C525.301 385.678 525.682 385.52 526.08 385.52H533.36C533.758 385.52 534.139 385.678 534.421 385.959C534.702 386.24 534.86 386.622 534.86 387.02V394.5C534.865 394.7 534.831 394.899 534.758 395.086C534.685 395.272 534.575 395.443 534.435 395.586C534.295 395.73 534.128 395.844 533.943 395.922C533.759 396 533.56 396.04 533.36 396.04Z" fill="#7C8F8E"/>
<path d="M547.13 395.92H539.62C539.222 395.92 538.841 395.762 538.559 395.481C538.278 395.199 538.12 394.818 538.12 394.42V387.13C538.12 386.732 538.278 386.351 538.559 386.069C538.841 385.788 539.222 385.63 539.62 385.63H547.13C547.528 385.63 547.909 385.788 548.191 386.069C548.472 386.351 548.63 386.732 548.63 387.13C548.63 387.528 548.472 387.909 548.191 388.191C547.909 388.472 547.528 388.63 547.13 388.63H541.13V392.92H547.13C547.528 392.92 547.909 393.078 548.191 393.359C548.472 393.641 548.63 394.022 548.63 394.42C548.63 394.818 548.472 395.199 548.191 395.481C547.909 395.762 547.528 395.92 547.13 395.92Z" fill="#7C8F8E"/>
<path d="M560.74 396.04H553.46C553.263 396.035 553.069 395.991 552.889 395.911C552.709 395.831 552.547 395.716 552.411 395.573C552.275 395.43 552.169 395.262 552.099 395.078C552.028 394.894 551.995 394.697 552 394.5V386.98C552 386.583 552.158 386.201 552.439 385.92C552.721 385.638 553.102 385.48 553.5 385.48C553.898 385.48 554.279 385.638 554.561 385.92C554.842 386.201 555 386.583 555 386.98V392.98H559.28V386.98C559.28 386.583 559.438 386.201 559.719 385.92C560.001 385.638 560.382 385.48 560.78 385.48C561.178 385.48 561.559 385.638 561.841 385.92C562.122 386.201 562.28 386.583 562.28 386.98V394.5C562.286 394.704 562.25 394.907 562.174 395.096C562.099 395.286 561.985 395.458 561.841 395.602C561.697 395.746 561.525 395.859 561.336 395.934C561.147 396.01 560.944 396.046 560.74 396.04Z" fill="#7C8F8E"/>
<path d="M574.29 395.92H566.78C566.382 395.92 566.001 395.762 565.72 395.481C565.438 395.199 565.28 394.818 565.28 394.42C565.28 394.022 565.438 393.641 565.72 393.359C566.001 393.078 566.382 392.92 566.78 392.92H572.78V388.63H566.78C566.382 388.63 566.001 388.472 565.72 388.191C565.438 387.909 565.28 387.528 565.28 387.13C565.28 386.732 565.438 386.351 565.72 386.069C566.001 385.788 566.382 385.63 566.78 385.63H574.29C574.688 385.63 575.07 385.788 575.351 386.069C575.632 386.351 575.79 386.732 575.79 387.13V394.42C575.79 394.818 575.632 395.199 575.351 395.481C575.07 395.762 574.688 395.92 574.29 395.92Z" fill="#7C8F8E"/>
<path d="M382.64 344.27H474.23C475.516 344.27 476.789 344.523 477.977 345.015C479.164 345.507 480.244 346.228 481.153 347.137C482.062 348.046 482.783 349.125 483.275 350.313C483.767 351.501 484.02 352.774 484.02 354.06V416.42C484.02 419.016 482.989 421.506 481.153 423.342C479.317 425.178 476.827 426.21 474.23 426.21H372.85V354.07C372.849 352.783 373.101 351.509 373.592 350.32C374.084 349.131 374.805 348.051 375.714 347.141C376.623 346.23 377.703 345.508 378.891 345.016C380.08 344.523 381.354 344.27 382.64 344.27Z" fill="#E74424"/>
<path d="M430.1 365.46H423.8C422.717 365.46 421.84 366.338 421.84 367.42V394.78C421.84 395.862 422.717 396.74 423.8 396.74H430.1C431.182 396.74 432.06 395.862 432.06 394.78V367.42C432.06 366.338 431.182 365.46 430.1 365.46Z" fill="#F7F1E6"/>
<path d="M442.59 384.25V377.95C442.59 376.868 441.712 375.99 440.63 375.99H413.27C412.187 375.99 411.31 376.868 411.31 377.95V384.25C411.31 385.333 412.187 386.21 413.27 386.21H440.63C441.712 386.21 442.59 385.333 442.59 384.25Z" fill="#F7F1E6"/>
<path d="M445.51 441.17C454.22 441.17 461.28 434.109 461.28 425.4C461.28 416.69 454.22 409.63 445.51 409.63C436.801 409.63 429.74 416.69 429.74 425.4C429.74 434.109 436.801 441.17 445.51 441.17Z" fill="#D6B21A"/>
<path d="M445.51 441.17C454.22 441.17 461.28 434.109 461.28 425.4C461.28 416.69 454.22 409.63 445.51 409.63C436.801 409.63 429.74 416.69 429.74 425.4C429.74 434.109 436.801 441.17 445.51 441.17Z" fill="#1B2327"/>
<path d="M445.51 434.53C450.552 434.53 454.64 430.442 454.64 425.4C454.64 420.357 450.552 416.27 445.51 416.27C440.468 416.27 436.38 420.357 436.38 425.4C436.38 430.442 440.468 434.53 445.51 434.53Z" fill="#2B3237"/>
<path fill-rule="evenodd" clip-rule="evenodd" d="M372.85 425.4H331.12C328.505 425.4 325.997 424.361 324.148 422.512C322.299 420.663 321.26 418.155 321.26 415.54V398.25C321.259 394.731 322.143 391.268 323.83 388.18L337.58 363.04C338.973 360.494 341.026 358.37 343.523 356.891C346.019 355.411 348.868 354.63 351.77 354.63H372.85V425.4Z" fill="#D43D21"/>
<path d="M355.87 441.17C364.58 441.17 371.64 434.109 371.64 425.4C371.64 416.69 364.58 409.63 355.87 409.63C347.161 409.63 340.1 416.69 340.1 425.4C340.1 434.109 347.161 441.17 355.87 441.17Z" fill="#1B2327"/>
<path d="M355.87 434.53C360.913 434.53 365 430.442 365 425.4C365 420.357 360.913 416.27 355.87 416.27C350.828 416.27 346.74 420.357 346.74 425.4C346.74 430.442 350.828 434.53 355.87 434.53Z" fill="#2B3237"/>
<path fill-rule="evenodd" clip-rule="evenodd" d="M366.77 393.65H340.71C339.808 393.651 338.92 393.418 338.135 392.974C337.35 392.53 336.693 391.89 336.228 391.117C335.764 390.343 335.508 389.462 335.486 388.56C335.463 387.658 335.675 386.766 336.1 385.97L343.01 372.97C343.912 371.279 345.256 369.865 346.9 368.879C348.543 367.892 350.423 367.371 352.34 367.37H366.77C366.952 367.37 367.132 367.406 367.3 367.476C367.468 367.546 367.621 367.649 367.749 367.778C367.878 367.907 367.979 368.06 368.048 368.229C368.116 368.398 368.151 368.578 368.15 368.76V392.22C368.157 392.406 368.126 392.59 368.06 392.764C367.993 392.937 367.893 393.095 367.764 393.228C367.635 393.362 367.481 393.468 367.31 393.54C367.139 393.613 366.955 393.65 366.77 393.65Z" fill="white"/>
<path d="M353.26 354.63C353.273 353.586 353.693 352.589 354.431 351.851C355.169 351.113 356.166 350.693 357.21 350.68H374.54V354.63H353.26Z" fill="#2B3237"/>
<path d="M364.6 342.5C365.794 342.5 366.938 342.974 367.782 343.818C368.626 344.662 369.1 345.807 369.1 347V350.88H360.1V347C360.1 345.807 360.574 344.662 361.418 343.818C362.262 342.974 363.407 342.5 364.6 342.5Z" fill="#E74424"/>
<path d="M41.5099 310.94H37.8399C36.7574 310.94 35.8799 311.818 35.8799 312.9V332.24C35.8799 333.323 36.7574 334.2 37.8399 334.2H41.5099C42.5924 334.2 43.4699 333.323 43.4699 332.24V312.9C43.4699 311.818 42.5924 310.94 41.5099 310.94Z" fill="#E74424"/>
<path fill-rule="evenodd" clip-rule="evenodd" d="M217.18 400.58C217.18 400.58 221.45 396.38 227.29 391.19C233.13 386 231.06 377.5 229.72 377.5C228.38 377.5 227.72 378.77 226.41 378.77C225.1 378.77 221.41 377.77 221.41 371.77C221.41 365.77 226.8 363.88 226.8 360.58C226.8 357.28 222.45 356.5 222.41 354.42C222.41 354.42 225.59 348.58 223.64 335.65C221.69 322.72 208.98 312.06 208.98 312.06H162.28C162.28 312.06 149.56 322.73 147.62 335.65C145.68 348.57 148.85 354.42 148.85 354.42C148.85 356.5 144.46 357.27 144.46 360.58C144.46 363.89 149.85 365.81 149.85 371.77C149.85 377.73 146.08 378.77 144.85 378.77C143.62 378.77 142.85 377.5 141.54 377.5C140.23 377.5 138.12 386.04 143.96 391.23C149.8 396.42 154 400.58 154 400.58H217.18Z" fill="#664B3A"/>
<path d="M51.3101 324.4V320.73C51.3101 319.647 50.4325 318.77 49.3501 318.77H30.0101C28.9276 318.77 28.05 319.647 28.05 320.73V324.4C28.05 325.482 28.9276 326.36 30.0101 326.36H49.3501C50.4325 326.36 51.3101 325.482 51.3101 324.4Z" fill="#E74424"/>
<path d="M172.23 385.81C164.832 390.742 157.085 395.131 149.05 398.94C142.74 401.94 136.46 404.83 131.61 407.06C128.947 408.285 126.691 410.249 125.11 412.718C123.529 415.187 122.689 418.058 122.69 420.99V445.4C122.69 448.991 124.116 452.435 126.656 454.974C129.195 457.513 132.639 458.94 136.23 458.94H236.17C239.761 458.94 243.205 457.513 245.744 454.974C248.283 452.435 249.71 448.991 249.71 445.4V420.99C249.711 418.058 248.871 415.187 247.29 412.718C245.709 410.249 243.453 408.285 240.79 407.06C235.94 404.83 229.66 401.92 223.35 398.94C215.315 395.131 207.568 390.742 200.17 385.81H172.23Z" fill="#F7F1E6"/>
<path d="M220.11 433.58H218.39C217.308 433.58 216.43 434.458 216.43 435.54V448.9C216.43 449.983 217.308 450.86 218.39 450.86H220.11C221.193 450.86 222.07 449.983 222.07 448.9V435.54C222.07 434.458 221.193 433.58 220.11 433.58Z" fill="#E74424"/>
<path d="M227.89 443.08V441.36C227.89 440.278 227.013 439.4 225.93 439.4H212.57C211.488 439.4 210.61 440.278 210.61 441.36V443.08C210.61 444.163 211.488 445.04 212.57 445.04H225.93C227.013 445.04 227.89 444.163 227.89 443.08Z" fill="#E74424"/>
<path fill-rule="evenodd" clip-rule="evenodd" d="M200.17 385.81C200.17 385.81 209.97 392.01 214.44 396.81C216.95 399.348 218.89 402.392 220.13 405.74C215.339 402.655 209.821 400.886 204.13 400.61C207.13 405.38 210.59 413.61 210.59 415.02C210.59 416.43 203.99 416.2 197.1 421.79C192.884 425.238 189.21 429.3 186.2 433.84C183.19 429.3 179.516 425.238 175.3 421.79C168.42 416.2 161.81 416.4 161.81 415.02C161.81 413.64 165.3 405.38 168.27 400.61C162.579 400.888 157.062 402.657 152.27 405.74C153.51 402.39 155.454 399.345 157.97 396.81C162.43 392.04 172.23 385.81 172.23 385.81H200.17Z" fill="white"/>
<path fill-rule="evenodd" clip-rule="evenodd" d="M200.17 386.88V396.5C200.17 400.58 197.79 406.04 193.33 411.96C188.87 417.88 186.79 422.19 186.79 425.27V429.19H185.61V425.27C185.61 422.19 183.54 417.88 179.08 411.96C174.62 406.04 172.23 400.58 172.23 396.5V386.88H200.17Z" fill="#DEC8AE"/>
<path fill-rule="evenodd" clip-rule="evenodd" d="M186.79 391.35C171.62 391.35 163.92 382.27 159.31 375.27C154.7 368.27 150.92 361.5 151.92 359.88C152.92 358.26 156.61 359.12 156.61 354.35C156.676 349.057 158.157 343.878 160.9 339.35C163.82 334.35 164.9 333.19 166.59 333.19C168.28 333.19 173.36 341.19 185.87 345.09C198.38 348.99 204.49 349.6 206.23 347.19C207.97 344.78 207.51 339.09 205.87 336.32C204.23 333.55 205.37 332.53 207.34 334.78C209.31 337.03 214.79 341.91 215.21 349.55C215.63 357.19 217.41 358.17 218.59 358.17C219.77 358.17 222.38 353.45 221.72 356.78C221.06 360.11 211.39 391.35 186.79 391.35Z" fill="#F3DBBD"/>
<path d="M104.34 346.22H10.4902V357.71H104.34V346.22Z" fill="#F7F1E6"/>
<path d="M9.45996 383.5C8.66431 383.5 7.90125 383.184 7.33864 382.621C6.77603 382.059 6.45996 381.296 6.45996 380.5V327.58C6.45996 326.784 6.77603 326.021 7.33864 325.459C7.90125 324.896 8.66431 324.58 9.45996 324.58C10.2556 324.58 11.0187 324.896 11.5813 325.459C12.1439 326.021 12.46 326.784 12.46 327.58V380.5C12.46 381.296 12.1439 382.059 11.5813 382.621C11.0187 383.184 10.2556 383.5 9.45996 383.5Z" fill="#2B3237"/>
<path d="M105.38 383.5C104.584 383.5 103.821 383.184 103.259 382.621C102.696 382.059 102.38 381.296 102.38 380.5V316.88H65.6201C64.8245 316.88 64.0614 316.564 63.4988 316.001C62.9362 315.439 62.6201 314.676 62.6201 313.88C62.6201 313.084 62.9362 312.321 63.4988 311.759C64.0614 311.196 64.8245 310.88 65.6201 310.88H105.38C106.176 310.88 106.939 311.196 107.501 311.759C108.064 312.321 108.38 313.084 108.38 313.88V380.5C108.38 381.296 108.064 382.059 107.501 382.621C106.939 383.184 106.176 383.5 105.38 383.5Z" fill="#2B3237"/>
<path d="M105.38 361.83H9.45996C8.66431 361.83 7.90125 361.514 7.33864 360.951C6.77603 360.389 6.45996 359.626 6.45996 358.83C6.45996 358.034 6.77603 357.271 7.33864 356.709C7.90125 356.146 8.66431 355.83 9.45996 355.83H105.38C106.176 355.83 106.939 356.146 107.501 356.709C108.064 357.271 108.38 358.034 108.38 358.83C108.38 359.626 108.064 360.389 107.501 360.951C106.939 361.514 106.176 361.83 105.38 361.83Z" fill="#2B3237"/>
<path d="M64.1201 326.33C63.7223 326.33 63.3408 326.172 63.0595 325.891C62.7782 325.609 62.6201 325.228 62.6201 324.83V313.88C62.6201 313.482 62.7782 313.101 63.0595 312.819C63.3408 312.538 63.7223 312.38 64.1201 312.38C64.5179 312.38 64.8995 312.538 65.1808 312.819C65.4621 313.101 65.6201 313.482 65.6201 313.88V324.83C65.6201 325.228 65.4621 325.609 65.1808 325.891C64.8995 326.172 64.5179 326.33 64.1201 326.33Z" fill="#2B3237"/>
<path d="M97.3102 346.5H82.1802C80.8541 346.5 79.5823 345.973 78.6446 345.036C77.707 344.098 77.1802 342.826 77.1802 341.5C77.1802 340.174 77.707 338.902 78.6446 337.964C79.5823 337.027 80.8541 336.5 82.1802 336.5H97.3102C98.6363 336.5 99.908 337.027 100.846 337.964C101.783 338.902 102.31 340.174 102.31 341.5C102.31 342.826 101.783 344.098 100.846 345.036C99.908 345.973 98.6363 346.5 97.3102 346.5Z" fill="#F7F1E6"/>
<path d="M66.0798 331.97H62.2798C61.3515 331.97 60.4613 331.601 59.8049 330.945C59.1485 330.288 58.7798 329.398 58.7798 328.47C58.7798 327.541 59.1485 326.651 59.8049 325.995C60.4613 325.338 61.3515 324.97 62.2798 324.97H66.0798C67.008 324.97 67.8983 325.338 68.5547 325.995C69.211 326.651 69.5798 327.541 69.5798 328.47C69.5798 329.398 69.211 330.288 68.5547 330.945C67.8983 331.601 67.008 331.97 66.0798 331.97Z" fill="#E6A123"/>
<path d="M74.2314 181.773C70.9705 178.512 65.6851 178.51 62.4262 181.769C59.1673 185.028 59.1689 190.313 62.4297 193.574L79.0821 210.227C82.343 213.488 87.6283 213.489 90.8872 210.23C94.1462 206.971 94.1446 201.686 90.8837 198.425L74.2314 181.773Z" fill="#E74424"/>
<path fill-rule="evenodd" clip-rule="evenodd" d="M82.61 190.16L90.88 198.43C91.6553 199.205 92.2703 200.124 92.6899 201.137C93.1095 202.149 93.3255 203.234 93.3255 204.33C93.3255 205.426 93.1095 206.511 92.6899 207.524C92.2703 208.536 91.6553 209.456 90.88 210.23C90.1055 211.005 89.1857 211.62 88.1734 212.04C87.161 212.46 86.0759 212.676 84.98 212.676C83.8841 212.676 82.799 212.46 81.7866 212.04C80.7743 211.62 79.8545 211.005 79.08 210.23L71 202.17L82.61 190.16Z" fill="#F3DBBD"/>
<path d="M88.7252 189.208C91.9861 192.469 97.2714 192.47 100.53 189.211C103.789 185.952 103.788 180.667 100.527 177.406L83.8745 160.754C80.6136 157.493 75.3282 157.491 72.0693 160.75C68.8104 164.009 68.812 169.295 72.0728 172.555L88.7252 189.208Z" fill="#E74424"/>
<path fill-rule="evenodd" clip-rule="evenodd" d="M80.3401 180.82L72.0601 172.55C71.2845 171.775 70.6693 170.854 70.2495 169.841C69.8298 168.828 69.6138 167.742 69.6138 166.645C69.6138 165.549 69.8298 164.463 70.2495 163.449C70.6693 162.436 71.2845 161.516 72.0601 160.74C72.8355 159.965 73.7561 159.349 74.7692 158.93C75.7824 158.51 76.8684 158.294 77.9651 158.294C79.0618 158.294 80.1477 158.51 81.1609 158.93C82.1741 159.349 83.0947 159.965 83.8701 160.74L91.9301 168.8L80.3401 180.82Z" fill="#F3DBBD"/>
<path d="M83.23 127.35C89.9844 127.35 95.46 121.874 95.46 115.12C95.46 108.365 89.9844 102.89 83.23 102.89C76.4756 102.89 71 108.365 71 115.12C71 121.874 76.4756 127.35 83.23 127.35Z" fill="#F7F1E6"/>
<path d="M83.2302 120.17C86.0192 120.17 88.2802 117.909 88.2802 115.12C88.2802 112.331 86.0192 110.07 83.2302 110.07C80.4411 110.07 78.1802 112.331 78.1802 115.12C78.1802 117.909 80.4411 120.17 83.2302 120.17Z" fill="#2A3136"/>
<path d="M41.6602 174.19H40.4102C27.1602 174 19.2402 167.26 19.2402 156.19C19.2402 147.24 25.1102 128.33 25.3602 127.53L28.2302 128.43C28.1702 128.62 22.2302 147.7 22.2302 156.19C22.2302 165.56 28.8702 171.03 40.4502 171.19C53.8802 171.39 57.4502 168.4 61.2602 163.83C63.4502 161.22 62.8302 152.83 62.3302 146.12C61.9211 142.22 61.8108 138.296 62.0002 134.38C62.8902 125.53 72.0702 119.84 72.4602 119.6L74.0002 122.17C73.9202 122.22 65.7002 127.33 65.0002 134.68C64.8241 138.419 64.9344 142.167 65.3302 145.89C65.9202 153.89 66.5302 162.21 63.5602 165.75C59.4402 170.67 55.4102 174.19 41.6602 174.19Z" fill="#2B3237"/>
<path d="M27.3101 123.5C21.562 123.536 15.9641 121.666 11.3917 118.182C6.81938 114.698 3.53042 109.798 2.03914 104.246C0.547854 98.6947 0.938329 92.8055 3.1495 87.4996C5.36068 82.1936 9.26788 77.77 14.2601 74.9204L15.7701 77.5204C11.3781 80.0679 7.95252 83.9971 6.02742 88.6953C4.10232 93.3936 3.78595 98.5968 5.12764 103.494C6.46933 108.391 9.39365 112.706 13.4447 115.767C17.4957 118.827 22.4456 120.462 27.5228 120.415C32.5999 120.368 37.5188 118.642 41.5125 115.507C45.5062 112.372 48.3502 108.003 49.6011 103.082C50.852 98.1616 50.4395 92.9651 48.4279 88.3033C46.4162 83.6414 42.9185 79.7763 38.4801 77.3104L39.9401 74.6904C45.018 77.468 49.0239 81.8606 51.3232 87.1722C53.6225 92.4838 54.0837 98.4107 52.6338 104.014C51.1839 109.617 47.9057 114.577 43.3187 118.107C38.7316 121.636 33.098 123.534 27.3101 123.5Z" fill="#2B3237"/>
<path fill-rule="evenodd" clip-rule="evenodd" d="M48.62 107.73C48.62 113.586 46.2937 119.203 42.1529 123.343C38.0121 127.484 32.3959 129.81 26.54 129.81C20.684 129.81 15.0678 127.484 10.927 123.343C6.78624 119.203 4.45996 113.586 4.45996 107.73L10.92 118.35L20.46 123.12L34 122.88L43.46 115.5L48.62 107.73Z" fill="#C3BFB8"/>
<path d="M27.3098 125.5C21.0506 125.508 14.9695 123.418 10.0373 119.564C5.10516 115.711 1.60642 110.315 0.0997569 104.24C-0.0118667 103.794 -0.0344534 103.33 0.0332858 102.875C0.101025 102.419 0.257764 101.982 0.494553 101.587C0.731343 101.193 1.04354 100.848 1.41333 100.574C1.78313 100.3 2.20326 100.102 2.64976 99.9904C3.09625 99.8788 3.56036 99.8562 4.01558 99.9239C4.47081 99.9916 4.90823 100.148 5.30288 100.385C5.69753 100.622 6.04167 100.934 6.31567 101.304C6.58966 101.674 6.78813 102.094 6.89976 102.54C8.0121 107.113 10.6283 111.18 14.3285 114.088C18.0287 116.996 22.5985 118.577 27.3048 118.577C32.011 118.577 36.5808 116.996 40.281 114.088C43.9813 111.18 46.5974 107.113 47.7098 102.54C47.9434 101.649 48.5192 100.886 49.3122 100.416C50.1053 99.9464 51.0515 99.8086 51.9455 100.032C52.8395 100.256 53.6091 100.824 54.0874 101.611C54.5656 102.399 54.7138 103.344 54.4998 104.24C52.9939 110.312 49.4982 115.705 44.5701 119.558C39.642 123.411 33.5655 125.503 27.3098 125.5Z" fill="#E0DCD3"/>
<path d="M265.307 58.5798L239.2 32.4734C236.139 29.4117 231.175 29.4117 228.113 32.4734L167.415 93.1714C164.353 96.2332 164.353 101.197 167.415 104.259L193.521 130.365C196.583 133.427 201.547 133.427 204.609 130.365L265.307 69.6672C268.369 66.6055 268.369 61.6415 265.307 58.5798Z" fill="#77A7A2"/>
<path fill-rule="evenodd" clip-rule="evenodd" d="M232.83 40.96L229.21 56.17C227.64 55.3246 226.393 53.9844 225.664 52.3576C224.934 50.7307 224.763 48.9085 225.175 47.174C225.588 45.4395 226.562 43.89 227.947 42.7662C229.331 41.6425 231.048 41.0075 232.83 40.96Z" fill="#F7F1E6"/>
<path fill-rule="evenodd" clip-rule="evenodd" d="M241.13 49.0399C241.13 51.1597 240.299 53.1951 238.814 54.708C237.329 56.2209 235.309 57.0906 233.19 57.1299L236.8 41.8799C238.106 42.5653 239.199 43.5947 239.963 44.8566C240.726 46.1186 241.129 47.5651 241.13 49.0399Z" fill="#F7F1E6"/>
<path fill-rule="evenodd" clip-rule="evenodd" d="M236.8 41.8799L233.19 57.1299H233C231.66 57.1193 230.344 56.7757 229.17 56.1299L232.79 40.9199H233C234.327 40.9199 235.632 41.2498 236.8 41.8799Z" fill="#DAD7CF"/>
<path fill-rule="evenodd" clip-rule="evenodd" d="M248 57.1396L244.38 72.3496C242.81 71.5043 241.563 70.1641 240.834 68.5372C240.104 66.9104 239.933 65.0881 240.345 63.3537C240.758 61.6192 241.732 60.0696 243.117 58.9459C244.501 57.8222 246.217 57.1872 248 57.1396Z" fill="#F7F1E6"/>
<path fill-rule="evenodd" clip-rule="evenodd" d="M256.28 65.2196C256.28 67.3394 255.449 69.3748 253.964 70.8877C252.479 72.4006 250.459 73.2703 248.34 73.3096L252 58.0596C253.296 58.7517 254.38 59.7839 255.134 61.0454C255.888 62.3069 256.284 63.7499 256.28 65.2196Z" fill="#F7F1E6"/>
<path fill-rule="evenodd" clip-rule="evenodd" d="M252 58.0599L248.39 73.3099H248.24C246.9 73.2993 245.584 72.9556 244.41 72.3099L248 57.1399H248.21C249.53 57.1292 250.832 57.4453 252 58.0599Z" fill="#DAD7CF"/>
<path fill-rule="evenodd" clip-rule="evenodd" d="M216.06 57.5L212.44 72.71C210.87 71.8647 209.623 70.5244 208.894 68.8976C208.164 67.2708 207.993 65.4485 208.405 63.714C208.818 61.9795 209.792 60.43 211.177 59.3063C212.561 58.1825 214.278 57.5475 216.06 57.5Z" fill="#F7F1E6"/>
<path fill-rule="evenodd" clip-rule="evenodd" d="M224.36 65.5799C224.36 67.6998 223.529 69.7351 222.044 71.248C220.559 72.761 218.539 73.6306 216.42 73.6699L220 58.4199C221.311 59.1013 222.411 60.1289 223.18 61.3911C223.948 62.6534 224.356 64.1021 224.36 65.5799Z" fill="#F7F1E6"/>
<path fill-rule="evenodd" clip-rule="evenodd" d="M220 58.42L216.39 73.67H216.24C214.9 73.6594 213.584 73.3157 212.41 72.67L216.06 57.5H216.27C217.57 57.4991 218.85 57.8149 220 58.42Z" fill="#DAD7CF"/>
<path fill-rule="evenodd" clip-rule="evenodd" d="M231.21 73.6797L227.59 88.8897C226.02 88.0443 224.774 86.7041 224.044 85.0773C223.315 83.4505 223.143 81.6282 223.556 79.8937C223.969 78.1592 224.943 76.6097 226.327 75.4859C227.711 74.3622 229.428 73.7272 231.21 73.6797Z" fill="#F7F1E6"/>
<path fill-rule="evenodd" clip-rule="evenodd" d="M239.51 81.7596C239.51 83.8795 238.678 85.9148 237.194 87.4277C235.709 88.9406 233.689 89.8103 231.57 89.8496L235.18 74.5996C236.486 75.285 237.579 76.3144 238.342 77.5763C239.106 78.8383 239.509 80.2848 239.51 81.7596Z" fill="#F7F1E6"/>
<path fill-rule="evenodd" clip-rule="evenodd" d="M235.18 74.5996L231.57 89.8497H231.42C230.08 89.839 228.764 89.4954 227.59 88.8496L231.21 73.6396H231.42C232.733 73.6462 234.024 73.9759 235.18 74.5996Z" fill="#DAD7CF"/>
<path fill-rule="evenodd" clip-rule="evenodd" d="M199.88 73.6797L196.26 88.8897C194.69 88.0443 193.444 86.7041 192.714 85.0773C191.985 83.4505 191.813 81.6282 192.226 79.8937C192.639 78.1592 193.613 76.6097 194.997 75.4859C196.381 74.3622 198.098 73.7272 199.88 73.6797Z" fill="#F7F1E6"/>
<path fill-rule="evenodd" clip-rule="evenodd" d="M208.18 81.7596C208.181 83.8795 207.349 85.9148 205.864 87.4277C204.379 88.9406 202.36 89.8103 200.24 89.8496L203.85 74.5996C205.156 75.285 206.25 76.3144 207.013 77.5763C207.776 78.8383 208.18 80.2848 208.18 81.7596Z" fill="#F7F1E6"/>
<path fill-rule="evenodd" clip-rule="evenodd" d="M203.85 74.5996L200.24 89.8497H200.09C198.75 89.839 197.434 89.4954 196.26 88.8496L199.88 73.6396H200.09C201.403 73.6462 202.694 73.9759 203.85 74.5996Z" fill="#DAD7CF"/>
<path fill-rule="evenodd" clip-rule="evenodd" d="M215 89.8604L211.38 105.07C209.81 104.225 208.563 102.885 207.834 101.258C207.104 99.6311 206.933 97.8089 207.345 96.0744C207.758 94.3399 208.732 92.7903 210.117 91.6666C211.501 90.5429 213.217 89.9079 215 89.8604Z" fill="#F7F1E6"/>
<path fill-rule="evenodd" clip-rule="evenodd" d="M223.33 97.9403C223.331 100.06 222.499 102.095 221.014 103.608C219.529 105.121 217.51 105.991 215.39 106.03L219 90.7803C220.306 91.4657 221.4 92.495 222.163 93.757C222.926 95.0189 223.33 96.4655 223.33 97.9403Z" fill="#F7F1E6"/>
<path fill-rule="evenodd" clip-rule="evenodd" d="M219 90.7796L215.39 106.03H215.24C213.9 106.019 212.584 105.675 211.41 105.03L215 89.8596H215.21C216.53 89.849 217.832 90.165 219 90.7796Z" fill="#DAD7CF"/>
<path fill-rule="evenodd" clip-rule="evenodd" d="M183.7 89.8604L180.08 105.07C178.51 104.225 177.264 102.885 176.534 101.258C175.804 99.6311 175.633 97.8089 176.046 96.0744C176.458 94.3399 177.433 92.7903 178.817 91.6666C180.201 90.5429 181.918 89.9079 183.7 89.8604Z" fill="#F7F1E6"/>
<path fill-rule="evenodd" clip-rule="evenodd" d="M192 97.9403C192 100.06 191.169 102.095 189.684 103.608C188.199 105.121 186.18 105.991 184.06 106.03L187.67 90.7803C188.976 91.4657 190.069 92.495 190.833 93.757C191.596 95.0189 191.999 96.4655 192 97.9403Z" fill="#F7F1E6"/>
<path fill-rule="evenodd" clip-rule="evenodd" d="M187.67 90.7803L184.06 106.03H183.91C182.57 106.02 181.254 105.676 180.08 105.03L183.7 89.8203H183.91C185.223 89.8269 186.515 90.1566 187.67 90.7803Z" fill="#DAD7CF"/>
<path fill-rule="evenodd" clip-rule="evenodd" d="M198.85 106.04L195.23 121.25C193.66 120.405 192.414 119.064 191.684 117.438C190.954 115.811 190.783 113.989 191.195 112.254C191.608 110.52 192.582 108.97 193.967 107.846C195.351 106.723 197.068 106.088 198.85 106.04Z" fill="#F7F1E6"/>
<path fill-rule="evenodd" clip-rule="evenodd" d="M207.15 114.12C207.15 116.24 206.319 118.275 204.834 119.788C203.349 121.301 201.329 122.171 199.21 122.21L202.82 106.96C204.126 107.645 205.219 108.675 205.983 109.937C206.746 111.199 207.149 112.645 207.15 114.12Z" fill="#F7F1E6"/>
<path fill-rule="evenodd" clip-rule="evenodd" d="M202.82 106.96L199.21 122.21H199.06C197.72 122.199 196.404 121.856 195.23 121.21L198.85 106H199.06C200.373 106.007 201.664 106.336 202.82 106.96Z" fill="#DAD7CF"/>
<path d="M532.73 257.654L520.582 245.506L517.902 248.186L530.05 260.334L532.73 257.654Z" fill="#5C9895"/>
<path d="M535.168 248.944L529.299 243.075C528.561 242.337 527.364 242.337 526.626 243.075L526.619 243.082C525.881 243.82 525.881 245.017 526.619 245.755L532.488 251.624C533.226 252.362 534.423 252.362 535.161 251.624L535.168 251.617C535.906 250.878 535.906 249.682 535.168 248.944Z" fill="#FEFEFE"/>
<path d="M540.96 243.144L535.091 237.275C534.353 236.537 533.157 236.537 532.418 237.275L532.411 237.282C531.673 238.02 531.673 239.217 532.411 239.955L538.28 245.824C539.018 246.562 540.215 246.562 540.953 245.824L540.96 245.817C541.698 245.079 541.698 243.882 540.96 243.144Z" fill="#FEFEFE"/>
<path d="M546.607 237.504L540.738 231.635C540 230.897 538.803 230.897 538.065 231.635L538.058 231.642C537.32 232.38 537.32 233.577 538.058 234.315L543.927 240.184C544.665 240.922 545.862 240.922 546.6 240.184L546.607 240.177C547.345 239.439 547.345 238.242 546.607 237.504Z" fill="#FEFEFE"/>
<path d="M187 287.5H164.41C163.203 287.509 162.015 287.799 160.939 288.346C159.863 288.893 158.929 289.682 158.211 290.652C157.492 291.622 157.009 292.745 156.799 293.934C156.589 295.122 156.657 296.343 157 297.5L161.61 312.5C162.285 314.731 163.66 316.685 165.53 318.075C167.401 319.465 169.669 320.217 172 320.22H202.4C204.813 320.22 207.157 319.418 209.064 317.938C210.97 316.459 212.33 314.388 212.93 312.05L216.75 297.18C217.044 296.029 217.071 294.826 216.829 293.663C216.587 292.5 216.083 291.407 215.355 290.468C214.626 289.53 213.693 288.77 212.627 288.247C211.56 287.724 210.388 287.451 209.2 287.45L187 287.5Z" fill="#F7F1E6"/>
<path d="M188.04 295.2H186.32C185.237 295.2 184.36 296.078 184.36 297.16V310.52C184.36 311.603 185.237 312.48 186.32 312.48H188.04C189.122 312.48 190 311.603 190 310.52V297.16C190 296.078 189.122 295.2 188.04 295.2Z" fill="#E74424"/>
<path d="M195.82 304.7V302.98C195.82 301.897 194.942 301.02 193.86 301.02H180.5C179.417 301.02 178.54 301.897 178.54 302.98V304.7C178.54 305.782 179.417 306.66 180.5 306.66H193.86C194.942 306.66 195.82 305.782 195.82 304.7Z" fill="#E74424"/>
<path d="M38.7701 80.4201C41.0621 80.4201 42.9201 78.5621 42.9201 76.2701C42.9201 73.9781 41.0621 72.1201 38.7701 72.1201C36.4781 72.1201 34.6201 73.9781 34.6201 76.2701C34.6201 78.5621 36.4781 80.4201 38.7701 80.4201Z" fill="#E6A123"/>
<path d="M15.5401 80.4201C17.8321 80.4201 19.6901 78.5621 19.6901 76.2701C19.6901 73.9781 17.8321 72.1201 15.5401 72.1201C13.2482 72.1201 11.3901 73.9781 11.3901 76.2701C11.3901 78.5621 13.2482 80.4201 15.5401 80.4201Z" fill="#E6A123"/>
<path d="M292.05 205.91C278.72 193.09 248.92 197.91 244.05 219.76C239.95 238.22 250.34 250.18 261.49 261.81C276.54 277.51 287.95 287.55 292.67 287.55C297.39 287.55 308.79 277.55 323.85 261.81C335 250.18 345.39 238.22 341.28 219.76C336.42 197.86 306.62 193.09 293.28 205.91H292.05Z" fill="#E74424"/>
<path d="M283.75 266.18H283.59C283.243 266.144 282.92 265.988 282.676 265.74C282.431 265.492 282.281 265.167 282.25 264.82L278.73 225.88L269.73 249.53C269.627 249.82 269.438 250.071 269.188 250.25C268.937 250.429 268.638 250.527 268.33 250.53H242C241.602 250.53 241.221 250.372 240.939 250.09C240.658 249.809 240.5 249.427 240.5 249.03C240.5 248.632 240.658 248.25 240.939 247.969C241.221 247.688 241.602 247.53 242 247.53H267.33L278.24 218.75C278.359 218.43 278.584 218.161 278.876 217.986C279.169 217.812 279.513 217.742 279.85 217.788C280.188 217.835 280.5 217.995 280.734 218.243C280.968 218.49 281.112 218.81 281.14 219.15L284.54 256.87L291.23 234.65C291.323 234.332 291.519 234.054 291.787 233.859C292.055 233.664 292.38 233.563 292.711 233.572C293.042 233.581 293.361 233.7 293.618 233.909C293.874 234.119 294.055 234.407 294.13 234.73L297.54 249.16L303.42 225.79C303.503 225.452 303.701 225.154 303.98 224.947C304.258 224.739 304.6 224.635 304.948 224.651C305.295 224.668 305.625 224.804 305.883 225.037C306.14 225.271 306.309 225.586 306.36 225.93L310.86 256.02L313.3 248.66C313.401 248.365 313.593 248.109 313.848 247.929C314.103 247.75 314.408 247.655 314.72 247.66H340.05C340.448 247.66 340.829 247.818 341.111 248.099C341.392 248.38 341.55 248.762 341.55 249.16C341.55 249.557 341.392 249.939 341.111 250.22C340.829 250.502 340.448 250.66 340.05 250.66H315.8L311.73 262.96C311.629 263.284 311.42 263.564 311.138 263.753C310.856 263.943 310.518 264.03 310.179 264.001C309.841 263.972 309.523 263.828 309.277 263.593C309.032 263.358 308.874 263.046 308.83 262.71L304.5 233.82L298.94 255.88C298.864 256.208 298.678 256.501 298.412 256.708C298.146 256.916 297.817 257.026 297.48 257.02C297.144 257.015 296.818 256.899 296.556 256.689C296.293 256.479 296.108 256.187 296.03 255.86L292.49 240.86L285.18 265.15C285.081 265.45 284.889 265.712 284.632 265.897C284.375 266.082 284.067 266.181 283.75 266.18Z" fill="#F7F1E6"/>
</g>
<defs>
<linearGradient id="paint0_linear_496_424" x1="109.3" y1="400.02" x2="472.22" y2="135.4" gradientUnits="userSpaceOnUse">
<stop stop-color="white" stop-opacity="0.1"/>
<stop offset="1" stop-color="white" stop-opacity="0.5"/>
</linearGradient>
<linearGradient id="paint1_linear_496_424" x1="117.74" y1="117.99" x2="411.54" y2="396.14" gradientUnits="userSpaceOnUse">
<stop stop-color="white" stop-opacity="0.5"/>
<stop offset="1" stop-color="white" stop-opacity="0.2"/>
</linearGradient>
<linearGradient id="paint2_linear_496_424" x1="-357347" y1="-135677" x2="-385823" y2="-73544.6" gradientUnits="userSpaceOnUse">
<stop stop-color="white" stop-opacity="0.1"/>
<stop offset="1" stop-color="white" stop-opacity="0.5"/>
</linearGradient>
<linearGradient id="paint3_linear_496_424" x1="51.6712" y1="382.56" x2="540.745" y2="129.269" gradientUnits="userSpaceOnUse">
<stop stop-color="white" stop-opacity="0.7"/>
<stop offset="1" stop-color="white"/>
</linearGradient>
<clipPath id="clip0_496_424">
<rect width="585.16" height="521.9" fill="white"/>
</clipPath>
</defs>
</svg>
