<svg width="621" height="599" viewBox="0 0 621 599" fill="none" xmlns="http://www.w3.org/2000/svg">
<path d="M307.5 543C245.4 543 187 518.9 143.1 475.2C99.2 431.5 75 373.3 75 311.5C75 249.6 99.2 191.5 143.1 147.8C187 104.1 245.4 80 307.5 80C369.6 80 428 104.1 471.9 147.8C515.8 191.5 540 249.7 540 311.5C540 373.3 515.8 431.5 471.9 475.2C428 518.9 369.6 543 307.5 543ZM307.5 112C196.9 112 107 201.5 107 311.5C107 421.5 196.9 511 307.5 511C418.1 511 508 421.5 508 311.5C508 201.5 418.1 112 307.5 112Z" fill="url(#paint0_linear_580_446)"/>
<path d="M306 472C394.366 472 466 400.366 466 312C466 223.634 394.366 152 306 152C217.634 152 146 223.634 146 312C146 400.366 217.634 472 306 472Z" fill="url(#paint1_linear_580_446)"/>
<path d="M327 517C221.6 517 139 467.6 139 404.5C139 341.4 221.6 292 327 292C432.4 292 515 341.4 515 404.5C515 467.6 432.4 517 327 517ZM327 328C284.6 328 245 337 215.5 353.4C189.7 367.7 175 386.3 175 404.5C175 422.6 189.8 441.3 215.5 455.6C245 472 284.6 481 327 481C369.4 481 409 472 438.5 455.6C464.3 441.3 479 422.7 479 404.5C479 386.4 464.2 367.7 438.5 353.4C409 337 369.4 328 327 328Z" fill="url(#paint2_linear_580_446)"/>
<path d="M320.1 560.4C317.9 560.4 316.1 558.7 316.1 556.5C316.1 554.3 317.8 552.5 320 552.4C325.6 552.3 331.2 552 336.7 551.6C338.9 551.4 340.8 553.1 341 555.3C341.2 557.5 339.5 559.4 337.3 559.6C331.6 560 325.8 560.3 320.1 560.4ZM301.1 560.1C301 560.1 301 560.1 300.9 560.1C295.2 559.8 289.4 559.3 283.7 558.7C281.5 558.5 279.9 556.5 280.2 554.3C280.4 552.1 282.4 550.5 284.6 550.8C290.1 551.4 295.8 551.9 301.3 552.2C303.5 552.3 305.2 554.2 305.1 556.4C305 558.4 303.2 560.1 301.1 560.1ZM355.9 557.5C353.9 557.5 352.2 556.1 351.9 554.1C351.6 551.9 353.1 549.9 355.3 549.6C360.8 548.8 366.3 547.8 371.8 546.7C374 546.2 376.1 547.6 376.5 549.8C376.9 552 375.6 554.1 373.4 554.5C367.8 555.7 362.1 556.7 356.4 557.5C356.3 557.5 356.1 557.5 355.9 557.5ZM265.3 556C265.1 556 264.8 556 264.6 555.9C259 554.9 253.3 553.7 247.7 552.4C245.6 551.9 244.2 549.7 244.7 547.6C245.2 545.5 247.4 544.1 249.5 544.6C254.9 545.9 260.4 547 265.9 548C268.1 548.4 269.5 550.5 269.1 552.6C268.9 554.6 267.2 556 265.3 556ZM391.1 550C389.4 550 387.8 548.8 387.3 547.1C386.7 545 387.9 542.8 390.1 542.2C395.4 540.7 400.8 539 406 537.2C408.1 536.5 410.4 537.6 411.1 539.7C411.8 541.8 410.7 544.1 408.6 544.8C403.2 546.7 397.7 548.4 392.2 550C391.8 550 391.4 550 391.1 550ZM230.4 547.5C230 547.5 229.6 547.4 229.2 547.3C223.7 545.6 218.3 543.7 212.9 541.7C210.8 540.9 209.8 538.6 210.6 536.5C211.4 534.4 213.7 533.4 215.8 534.2C221 536.2 226.3 538 231.6 539.7C233.7 540.4 234.9 542.6 234.2 544.7C233.7 546.4 232.1 547.5 230.4 547.5ZM424.9 538C423.4 538 421.9 537.1 421.2 535.6C420.3 533.6 421.3 531.2 423.3 530.3C428.4 528.1 433.5 525.7 438.4 523.2C440.4 522.2 442.8 523 443.8 525C444.8 527 444 529.4 442 530.4C436.9 533 431.7 535.4 426.4 537.7C426 537.9 425.5 538 424.9 538ZM196.8 534.6C196.2 534.6 195.7 534.5 195.1 534.2C189.9 531.8 184.7 529.2 179.7 526.5C177.8 525.5 177 523 178.1 521.1C179.1 519.2 181.6 518.4 183.5 519.5C188.4 522.1 193.5 524.6 198.5 526.9C200.5 527.8 201.4 530.2 200.5 532.2C199.8 533.7 198.3 534.6 196.8 534.6ZM456.9 521.6C455.5 521.6 454.2 520.9 453.5 519.7C452.4 517.8 453 515.3 454.9 514.2C459.7 511.3 464.4 508.3 469 505.1C470.8 503.8 473.3 504.3 474.6 506.1C475.9 507.9 475.4 510.4 473.6 511.7C468.9 514.9 464 518.1 459.1 521C458.3 521.4 457.6 521.6 456.9 521.6ZM165.1 517.5C164.4 517.5 163.6 517.3 163 516.9C158.1 513.9 153.3 510.6 148.7 507.3C146.9 506 146.5 503.5 147.8 501.7C149.1 499.9 151.6 499.5 153.4 500.8C157.9 504 162.6 507.2 167.3 510.1C169.2 511.3 169.7 513.7 168.6 515.6C167.8 516.9 166.5 517.5 165.1 517.5ZM486.4 501C485.2 501 484.1 500.5 483.3 499.5C481.9 497.8 482.2 495.3 483.9 493.9C488.2 490.4 492.5 486.7 496.6 483C498.2 481.5 500.8 481.6 502.3 483.2C503.8 484.8 503.7 487.4 502.1 488.9C497.9 492.8 493.5 496.5 489 500.1C488.2 500.8 487.3 501 486.4 501ZM135.9 496.4C135 496.4 134.1 496.1 133.4 495.5C129 491.8 124.6 488 120.4 484.1C118.8 482.6 118.7 480.1 120.2 478.4C121.7 476.8 124.2 476.7 125.9 478.2C130 482 134.2 485.7 138.5 489.3C140.2 490.7 140.4 493.2 139 494.9C138.2 495.9 137.1 496.4 135.9 496.4ZM512.8 476.6C511.8 476.6 510.8 476.2 510.1 475.5C508.5 474 508.4 471.5 509.9 469.8C513.7 465.7 517.4 461.5 520.9 457.2C522.3 455.5 524.8 455.2 526.5 456.6C528.2 458 528.5 460.5 527.1 462.2C523.5 466.6 519.6 471 515.7 475.2C515 476.2 513.9 476.6 512.8 476.6ZM109.8 471.7C108.7 471.7 107.7 471.3 106.9 470.4C103 466.2 99.1998 461.8 95.5998 457.4C94.1998 455.7 94.4998 453.2 96.1998 451.8C97.8998 450.4 100.4 450.7 101.8 452.4C105.3 456.7 109 461 112.8 465C114.3 466.6 114.2 469.2 112.6 470.7C111.7 471.4 110.8 471.7 109.8 471.7ZM535.5 448.7C534.7 448.7 533.9 448.5 533.2 448C531.4 446.7 531 444.2 532.2 442.4C535.4 437.8 538.5 433.1 541.3 428.4C542.4 426.5 544.9 425.9 546.8 427C548.7 428.1 549.3 430.6 548.2 432.5C545.2 437.4 542.1 442.3 538.8 447C538 448.1 536.8 448.7 535.5 448.7ZM87.1998 443.7C85.8998 443.7 84.6998 443.1 83.8998 442C80.5998 437.3 77.3998 432.4 74.3998 427.6C73.1998 425.7 73.7998 423.3 75.6998 422.1C77.5998 420.9 79.9998 421.5 81.1998 423.4C84.0998 428.1 87.1998 432.8 90.3998 437.4C91.6998 439.2 91.1998 441.7 89.3998 443C88.7998 443.5 87.9998 443.7 87.1998 443.7ZM554 417.9C553.4 417.9 552.8 417.8 552.2 417.5C550.2 416.5 549.4 414.1 550.4 412.1C552.9 407.1 555.2 402 557.4 396.9C558.3 394.9 560.6 393.9 562.6 394.8C564.6 395.7 565.6 398 564.7 400C562.5 405.3 560.1 410.6 557.5 415.7C556.9 417.1 555.5 417.9 554 417.9ZM68.5998 412.9C67.0998 412.9 65.6998 412.1 64.9998 410.7C62.3998 405.6 59.8998 400.3 57.5998 395.1C56.6998 393.1 57.6998 390.7 59.6998 389.8C61.6998 388.9 64.0998 389.9 64.9998 391.9C67.1998 397 69.5998 402.1 72.0998 407C73.0998 409 72.2998 411.4 70.3998 412.4C69.7998 412.8 69.1998 412.9 68.5998 412.9ZM567.7 384.6C567.3 384.6 566.9 384.5 566.4 384.4C564.3 383.7 563.2 381.4 563.9 379.4C565.6 374.1 567.2 368.7 568.6 363.4C569.1 361.3 571.3 360 573.5 360.5C575.6 361 576.9 363.2 576.4 365.4C575 371 573.4 376.5 571.6 382C571 383.5 569.4 384.6 567.7 384.6ZM54.3998 379.9C52.6998 379.9 51.1998 378.9 50.5998 377.2C48.6998 371.8 46.9998 366.2 45.4998 360.7C44.8998 358.6 46.1998 356.4 48.2998 355.8C50.3998 355.2 52.5998 356.5 53.1998 358.6C54.6998 363.9 56.2998 369.3 58.0998 374.6C58.7998 376.7 57.6998 379 55.5998 379.7C55.2998 379.8 54.8998 379.9 54.3998 379.9ZM576.5 349.7C576.3 349.7 576 349.7 575.8 349.6C573.6 349.2 572.2 347.2 572.5 345C573.5 339.5 574.2 334 574.8 328.4C575 326.2 577 324.6 579.2 324.8C581.4 325 583 327 582.8 329.2C582.2 334.9 581.4 340.7 580.4 346.3C580.1 348.4 578.4 349.7 576.5 349.7ZM45.0998 345.1C43.1998 345.1 41.4998 343.8 41.1998 341.8C40.0998 336.2 39.1998 330.4 38.5998 324.8C38.2998 322.6 39.8998 320.6 42.0998 320.4C44.2998 320.1 46.2998 321.7 46.4998 323.9C47.1998 329.4 47.9998 334.9 49.0998 340.4C49.4998 342.6 48.0998 344.7 45.8998 345.1C45.5998 345.1 45.3998 345.1 45.0998 345.1ZM580 313.9C577.7 313.8 575.9 312 576 309.8C576.1 307.8 576.1 305.7 576.1 303.6C576.1 300.1 576 296.5 575.9 293C575.8 290.8 577.5 288.9 579.7 288.8C581.9 288.7 583.8 290.4 583.9 292.6C584.1 296.2 584.1 299.9 584.1 303.5C584.1 305.6 584.1 307.8 584 309.9C583.9 312.2 582.2 313.9 580 313.9ZM40.9998 309.4C38.8998 309.4 37.0998 307.7 36.9998 305.6C36.8998 302.2 36.7998 298.7 36.7998 295.3C36.7998 293 36.7998 290.7 36.8998 288.4C36.9998 286.2 38.7998 284.5 40.9998 284.5C43.1998 284.6 44.8998 286.4 44.8998 288.6C44.7998 290.8 44.7998 293.1 44.7998 295.3C44.7998 298.6 44.8998 302 44.9998 305.3C45.0998 307.5 43.3998 309.4 41.1998 309.5C41.0998 309.4 41.0998 309.4 40.9998 309.4ZM578.3 278C576.3 278 574.6 276.5 574.3 274.5C573.6 269 572.8 263.4 571.7 258C571.3 255.8 572.7 253.7 574.9 253.3C577.1 252.9 579.2 254.3 579.6 256.5C580.7 262.1 581.6 267.9 582.3 273.5C582.6 275.7 581 277.7 578.8 278C578.6 278 578.4 278 578.3 278ZM42.1998 273.5C42.0998 273.5 41.8998 273.5 41.7998 273.5C39.5998 273.3 37.9998 271.3 38.1998 269.1C38.7998 263.4 39.5998 257.7 40.5998 252C40.9998 249.8 43.0998 248.4 45.1998 248.8C47.3998 249.2 48.7998 251.3 48.3998 253.4C47.3998 258.9 46.5998 264.5 46.0998 270C45.8998 272 44.1998 273.5 42.1998 273.5ZM571.3 242.8C569.5 242.8 567.9 241.6 567.4 239.9C565.9 234.6 564.3 229.2 562.4 223.9C561.7 221.8 562.8 219.5 564.9 218.8C567 218.1 569.3 219.2 570 221.3C571.9 226.7 573.6 232.3 575.1 237.8C575.7 239.9 574.4 242.1 572.3 242.7C572 242.7 571.7 242.8 571.3 242.8ZM48.4998 238.1C48.1998 238.1 47.7998 238.1 47.4998 238C45.3998 237.5 44.0998 235.3 44.5998 233.1C45.9998 227.5 47.6998 222 49.4998 216.5C50.1998 214.4 52.4998 213.3 54.5998 214C56.6998 214.7 57.7998 217 57.0998 219.1C55.3998 224.4 53.7998 229.8 52.3998 235.1C51.8998 236.9 50.2998 238.1 48.4998 238.1ZM559.4 208.9C557.9 208.9 556.4 208 555.7 206.5C553.5 201.4 551.1 196.3 548.5 191.4C547.5 189.4 548.3 187 550.2 186C552.2 185 554.6 185.8 555.6 187.7C558.2 192.8 560.7 198 563 203.3C563.9 205.3 563 207.7 560.9 208.6C560.4 208.8 559.9 208.9 559.4 208.9ZM59.9998 204C59.4998 204 58.9998 203.9 58.4998 203.7C56.4998 202.8 55.4998 200.5 56.3998 198.5C58.5998 193.2 61.0998 187.9 63.6998 182.8C64.6998 180.8 67.0998 180 69.0998 181C71.0998 182 71.8998 184.4 70.8998 186.4C68.3998 191.4 65.9998 196.5 63.8998 201.6C62.9998 203.1 61.5998 204 59.9998 204ZM542.7 177C541.4 177 540 176.3 539.3 175.1C536.4 170.4 533.3 165.7 530.1 161.1C528.8 159.3 529.3 156.8 531.1 155.5C532.9 154.2 535.4 154.7 536.7 156.5C540 161.2 543.2 166 546.2 170.9C547.4 172.8 546.8 175.2 544.9 176.4C544.2 176.8 543.4 177 542.7 177ZM76.3998 172C75.6998 172 74.9998 171.8 74.2998 171.4C72.3998 170.3 71.7998 167.8 72.9998 165.9C75.9998 161 79.1998 156.1 82.4998 151.4C83.7998 149.6 86.2998 149.2 88.0998 150.4C89.8998 151.7 90.2998 154.2 89.0998 156C85.8998 160.5 82.7998 165.3 79.8998 170C78.9998 171.3 77.6998 172 76.3998 172ZM521.9 147.6C520.7 147.6 519.6 147.1 518.8 146.1C515.3 141.8 511.6 137.6 507.8 133.5C506.3 131.9 506.4 129.4 508 127.8C509.6 126.2 512.1 126.4 513.7 128C517.6 132.2 521.4 136.6 525.1 141C526.5 142.7 526.2 145.2 524.5 146.6C523.7 147.3 522.8 147.6 521.9 147.6ZM97.1998 142.7C96.2998 142.7 95.3998 142.4 94.6998 141.8C92.9998 140.4 92.7998 137.9 94.1998 136.2C97.7998 131.8 101.7 127.4 105.6 123.3C107.1 121.7 109.6 121.6 111.3 123.1C112.9 124.6 113 127.1 111.5 128.8C107.7 132.8 104 137.1 100.4 141.3C99.4998 142.2 98.2998 142.7 97.1998 142.7ZM497.3 121.4C496.3 121.4 495.3 121 494.6 120.3C490.5 116.5 486.3 112.8 482 109.2C480.3 107.8 480.1 105.3 481.5 103.6C482.9 101.9 485.4 101.7 487.1 103.1C491.5 106.7 495.9 110.6 500.1 114.5C501.7 116 501.8 118.5 500.3 120.2C499.4 121 498.3 121.4 497.3 121.4ZM122 116.6C120.9 116.6 119.8 116.2 119 115.3C117.5 113.7 117.6 111.1 119.3 109.6C123.5 105.7 127.9 102 132.4 98.4001C134.1 97.0001 136.6 97.3001 138 99.0001C139.4 100.7 139.1 103.2 137.4 104.6C133.1 108.1 128.8 111.7 124.7 115.5C123.9 116.3 123 116.6 122 116.6ZM469.4 98.6001C468.6 98.6001 467.8 98.4001 467.1 97.9001C462.6 94.7001 457.9 91.5001 453.2 88.6001C451.3 87.4001 450.8 85.0001 451.9 83.1001C453.1 81.2001 455.5 80.7001 457.4 81.8001C462.3 84.8001 467.1 88.1001 471.8 91.4001C473.6 92.7001 474 95.2001 472.7 97.0001C471.9 98.0001 470.6 98.6001 469.4 98.6001ZM150.2 94.3001C148.9 94.3001 147.7 93.7001 146.9 92.6001C145.6 90.8001 146.1 88.3001 147.9 87.0001C152.6 83.8001 157.5 80.6001 162.4 77.7001C164.3 76.6001 166.8 77.2001 167.9 79.1001C169 81.0001 168.4 83.5001 166.5 84.6001C161.7 87.5001 157 90.5001 152.4 93.6001C151.7 94.0001 150.9 94.3001 150.2 94.3001ZM438.8 79.7001C438.2 79.7001 437.5 79.5001 436.9 79.2001C432 76.6001 426.9 74.1001 421.9 71.8001C419.9 70.9001 419 68.5001 419.9 66.5001C420.8 64.5001 423.2 63.6001 425.2 64.5001C430.4 66.9001 435.6 69.4001 440.7 72.1001C442.6 73.1001 443.4 75.6001 442.4 77.5001C441.6 78.9001 440.2 79.7001 438.8 79.7001ZM181.1 75.9001C179.6 75.9001 178.2 75.1001 177.5 73.7001C176.5 71.7001 177.3 69.3001 179.3 68.3001C184.4 65.7001 189.7 63.3001 194.9 61.0001C196.9 60.1001 199.3 61.1001 200.2 63.1001C201.1 65.1001 200.1 67.5001 198.1 68.4001C193 70.6001 187.9 73.0001 182.9 75.5001C182.3 75.8001 181.7 75.9001 181.1 75.9001ZM406 64.8001C405.5 64.8001 405.1 64.7001 404.6 64.5001C399.4 62.5001 394.1 60.7001 388.8 59.1001C386.7 58.4001 385.5 56.2001 386.2 54.1001C386.9 52.0001 389.1 50.8001 391.2 51.5001C396.7 53.2001 402.2 55.1001 407.5 57.1001C409.6 57.9001 410.6 60.2001 409.8 62.3001C409.2 63.9001 407.6 64.8001 406 64.8001ZM214.2 61.9001C212.5 61.9001 211 60.9001 210.4 59.2001C209.7 57.1001 210.8 54.8001 212.9 54.1001C218.3 52.2001 223.8 50.5001 229.3 48.9001C231.4 48.3001 233.6 49.5001 234.2 51.7001C234.8 53.8001 233.6 56.0001 231.4 56.6001C226.1 58.1001 220.7 59.8001 215.4 61.6001C215.1 61.8001 214.6 61.9001 214.2 61.9001ZM371.6 54.3001C371.3 54.3001 371 54.3001 370.7 54.2001C365.3 52.9001 359.8 51.8001 354.3 50.8001C352.1 50.4001 350.7 48.3001 351.1 46.2001C351.5 44.0001 353.6 42.6001 355.7 43.0001C361.3 44.0001 367 45.2001 372.6 46.5001C374.7 47.0001 376.1 49.2001 375.6 51.3001C375.1 53.1001 373.4 54.3001 371.6 54.3001ZM248.8 52.3001C246.9 52.3001 245.3 51.0001 244.9 49.1001C244.5 46.9001 245.8 44.8001 248 44.4001C253.6 43.2001 259.3 42.2001 265 41.4001C267.2 41.1001 269.2 42.6001 269.5 44.8001C269.8 47.0001 268.3 49.0001 266.1 49.3001C260.6 50.1001 255 51.1001 249.6 52.2001C249.3 52.3001 249.1 52.3001 248.8 52.3001ZM337.3 48.3001C337.1 48.3001 337 48.3001 336.8 48.3001C331.3 47.7001 325.6 47.2001 320.1 46.9001C317.9 46.8001 316.2 44.9001 316.3 42.7001C316.4 40.5001 318.3 38.8001 320.5 38.9001C326.2 39.2001 332 39.7001 337.7 40.3001C339.9 40.5001 341.5 42.5001 341.2 44.7001C341.1 46.8001 339.3 48.3001 337.3 48.3001ZM284.4 47.3001C282.3 47.3001 280.6 45.7001 280.4 43.6001C280.2 41.4001 281.9 39.5001 284.1 39.3001C289.8 38.9001 295.6 38.6001 301.3 38.5001C303.5 38.4001 305.3 40.2001 305.4 42.4001C305.4 44.6001 303.7 46.4001 301.5 46.5001C295.9 46.6001 290.3 46.8001 284.8 47.2001C284.6 47.3001 284.5 47.3001 284.4 47.3001Z" fill="url(#paint3_linear_580_446)"/>
<path opacity="0.8" d="M303.5 329.6C407.992 329.6 492.7 280.665 492.7 220.3C492.7 159.935 407.992 111 303.5 111C199.008 111 114.3 159.935 114.3 220.3C114.3 280.665 199.008 329.6 303.5 329.6Z" fill="url(#paint4_linear_580_446)"/>
<path d="M311.9 438.7C390.711 438.7 454.6 374.811 454.6 296C454.6 217.189 390.711 153.3 311.9 153.3C233.089 153.3 169.2 217.189 169.2 296C169.2 374.811 233.089 438.7 311.9 438.7Z" fill="#FF4D4D"/>
<path d="M311.9 439.2C232.9 439.2 168.7 375 168.7 296C168.7 217 232.9 152.8 311.9 152.8C390.9 152.8 455.1 217 455.1 296C455.1 375 390.9 439.2 311.9 439.2ZM311.9 153.8C233.5 153.8 169.7 217.6 169.7 296C169.7 374.4 233.5 438.2 311.9 438.2C390.3 438.2 454.1 374.4 454.1 296C454.1 217.6 390.3 153.8 311.9 153.8Z" fill="#FF4D4D"/>
<path d="M311.9 443.2C262.3 443.2 216.4 418.4 188.9 377L196.4 372C222.2 410.9 265.3 434.2 311.8 434.2C388 434.2 450 372.2 450 296C450 219.8 388 157.8 311.8 157.8C235.6 157.8 173.6 219.8 173.6 296C173.6 299.9 173.8 304.3 174.3 309.6L165.3 310.4C164.8 304.8 164.6 300.2 164.6 296C164.6 214.8 230.6 148.8 311.8 148.8C393 148.8 459 214.8 459 296C459.1 377.2 393.1 443.2 311.9 443.2Z" fill="#0000CC"/>
<path d="M357.2 455.6C352.6 455.6 348.8 451.8 348.8 447.2V396.7C348.8 392.1 352.6 388.3 357.2 388.3H446C450.6 388.3 454.4 392.1 454.4 396.7V447.2C454.4 451.8 450.6 455.6 446 455.6H357.2Z" fill="white"/>
<path d="M387.2 326.7H234.5C228.7 326.7 224 322 224 316.2V276.2C224 270.4 228.7 265.7 234.5 265.7H387.2C393 265.7 397.7 270.4 397.7 276.2V316.2C397.7 322 393 326.7 387.2 326.7Z" fill="white"/>
<path d="M341.3 219.8V372.5C341.3 378.3 336.6 383 330.8 383H290.8C285 383 280.3 378.3 280.3 372.5V219.8C280.3 214 285 209.3 290.8 209.3H330.8C336.6 209.3 341.3 214 341.3 219.8Z" fill="white"/>
<path d="M244.6 227H155.8C149 227 143.4 221.5 143.4 214.6V164.1C143.4 157.3 148.9 151.7 155.8 151.7H244.6C251.4 151.7 257 157.2 257 164.1V214.6C257 221.5 251.5 227 244.6 227Z" fill="#0000CC"/>
<path d="M155.9 218C154 218 152.5 216.5 152.5 214.6V164.1C152.5 162.2 154 160.7 155.9 160.7H244.7C246.6 160.7 248.1 162.2 248.1 164.1V214.6C248.1 216.5 246.6 218 244.7 218H155.9Z" fill="#FF9D33"/>
<path d="M229.6 178.5H216.7C214.3 178.5 212.3 176.5 212.3 174.1C212.3 171.7 214.3 169.7 216.7 169.7H229.6C232 169.7 234 171.7 234 174.1C233.9 176.5 232 178.5 229.6 178.5Z" fill="white"/>
<path d="M229.6 192.7H185.1C182.7 192.7 180.7 190.7 180.7 188.3C180.7 185.9 182.7 183.9 185.1 183.9H229.6C232 183.9 234 185.9 234 188.3C233.9 190.7 232 192.7 229.6 192.7Z" fill="white"/>
<path d="M229.6 207.9H185.1C182.7 207.9 180.7 205.9 180.7 203.5C180.7 201.1 182.7 199.1 185.1 199.1H229.6C232 199.1 234 201.1 234 203.5C233.9 206 232 207.9 229.6 207.9Z" fill="white"/>
<path d="M236.1 445.3H223.2C220.8 445.3 218.8 443.3 218.8 440.9C218.8 438.5 220.8 436.5 223.2 436.5H236.1C238.5 436.5 240.5 438.5 240.5 440.9C240.5 443.3 238.6 445.3 236.1 445.3Z" fill="#0000CC"/>
<path d="M236.1 459.5H191.6C189.2 459.5 187.2 457.5 187.2 455.1C187.2 452.7 189.2 450.7 191.6 450.7H236.1C238.5 450.7 240.5 452.7 240.5 455.1C240.5 457.5 238.6 459.5 236.1 459.5Z" fill="#0000CC"/>
<path d="M236.1 474.7H191.6C189.2 474.7 187.2 472.7 187.2 470.3C187.2 467.9 189.2 465.9 191.6 465.9H236.1C238.5 465.9 240.5 467.9 240.5 470.3C240.5 472.8 238.6 474.7 236.1 474.7Z" fill="#0000CC"/>
<path d="M442.5 459.1H425.2C423.3 459.1 421.7 457.5 421.7 455.6C421.7 453.7 423.3 452.1 425.2 452.1H442.5C447.1 452.1 450.9 448.4 450.9 443.7V400.2C450.9 395.6 447.2 391.8 442.5 391.8H360.7C356.1 391.8 352.3 395.5 352.3 400.2V443.7C352.3 448.3 356 452.1 360.7 452.1H400.8C402.7 452.1 404.3 453.7 404.3 455.6C404.3 457.5 402.7 459.1 400.8 459.1H360.7C352.2 459.1 345.3 452.2 345.3 443.7V400.2C345.3 391.7 352.2 384.8 360.7 384.8H442.5C451 384.8 457.9 391.7 457.9 400.2V443.7C457.8 452.3 450.9 459.1 442.5 459.1Z" fill="#0000CC"/>
<path d="M457.3 198.5H442.8C440.3 198.5 438.2 196.5 438.2 193.9C438.2 191.4 440.2 189.3 442.8 189.3H457.3C459.8 189.3 461.9 191.3 461.9 193.9C461.8 196.5 459.8 198.5 457.3 198.5Z" fill="#EAE4E4"/>
<path d="M454.6 186.7V201.2C454.6 203.7 452.6 205.8 450 205.8C447.5 205.8 445.4 203.8 445.4 201.2V186.7C445.4 184.2 447.4 182.1 450 182.1C452.5 182.1 454.6 184.1 454.6 186.7Z" fill="#EAE4E4"/>
<path d="M457.3 198.5H442.8C440.3 198.5 438.2 196.5 438.2 193.9C438.2 191.4 440.2 189.3 442.8 189.3H457.3C459.8 189.3 461.9 191.3 461.9 193.9C461.8 196.5 459.8 198.5 457.3 198.5Z" fill="#FF4D4D"/>
<path d="M454.6 186.7V201.2C454.6 203.7 452.6 205.8 450 205.8C447.5 205.8 445.4 203.8 445.4 201.2V186.7C445.4 184.2 447.4 182.1 450 182.1C452.5 182.1 454.6 184.1 454.6 186.7Z" fill="#FF4D4D"/>
<path d="M432.3 170.2H417.8C415.3 170.2 413.2 168.2 413.2 165.6C413.2 163.1 415.2 161 417.8 161H432.3C434.8 161 436.9 163 436.9 165.6C436.8 168.1 434.8 170.2 432.3 170.2Z" fill="#6C6CFF"/>
<path d="M429.6 158.3V172.8C429.6 175.3 427.6 177.4 425 177.4C422.5 177.4 420.4 175.4 420.4 172.8V158.3C420.4 155.8 422.4 153.7 425 153.7C427.5 153.8 429.6 155.8 429.6 158.3Z" fill="#6C6CFF"/>
<path d="M303.3 466.2H288.8C286.3 466.2 284.2 464.2 284.2 461.6C284.2 459.1 286.2 457 288.8 457H303.3C305.8 457 307.9 459 307.9 461.6C307.8 464.1 305.8 466.2 303.3 466.2Z" fill="#FF4D4D"/>
<path d="M300.6 454.3V468.8C300.6 471.3 298.6 473.4 296 473.4C293.5 473.4 291.4 471.4 291.4 468.8V454.3C291.4 451.8 293.4 449.7 296 449.7C298.5 449.8 300.6 451.8 300.6 454.3Z" fill="#FF4D4D"/>
<path d="M326.187 465.821C326.251 463.447 324.379 461.47 322.005 461.406C319.631 461.341 317.655 463.214 317.59 465.587C317.526 467.961 319.398 469.938 321.772 470.002C324.146 470.067 326.122 468.195 326.187 465.821Z" fill="#FF9D33"/>
<path d="M326.389 478.314C327.631 476.291 326.998 473.643 324.974 472.4C322.951 471.157 320.303 471.79 319.06 473.814C317.817 475.838 318.45 478.486 320.474 479.729C322.498 480.971 325.146 480.338 326.389 478.314Z" fill="#FF9D33"/>
<path d="M334.151 484.504C336.239 483.373 337.015 480.763 335.884 478.675C334.753 476.586 332.143 475.811 330.055 476.942C327.967 478.073 327.191 480.683 328.322 482.771C329.453 484.859 332.063 485.635 334.151 484.504Z" fill="#FF9D33"/>
<path d="M345.028 474.951C345.092 472.578 343.22 470.601 340.846 470.537C338.472 470.472 336.495 472.344 336.431 474.718C336.367 477.092 338.239 479.069 340.613 479.133C342.987 479.198 344.963 477.325 345.028 474.951Z" fill="#FF9D33"/>
<path d="M343.771 466.595C345.013 464.571 344.38 461.923 342.356 460.681C340.332 459.438 337.684 460.071 336.442 462.095C335.199 464.119 335.832 466.767 337.856 468.009C339.88 469.252 342.528 468.619 343.771 466.595Z" fill="#FF9D33"/>
<path d="M332.652 463.623C334.74 462.492 335.516 459.882 334.384 457.794C333.253 455.706 330.644 454.93 328.555 456.061C326.467 457.192 325.691 459.802 326.822 461.89C327.954 463.979 330.563 464.754 332.652 463.623Z" fill="#FF9D33"/>
<path d="M224 389.9L210.7 382.2L224 374.5C227.9 372.2 229.2 367.3 227 363.3L218.1 347.9C215.8 344 210.9 342.7 206.9 344.9L193.6 352.6V337.3C193.6 332.8 189.9 329.1 185.4 329.1H167.6C163.1 329.1 159.4 332.8 159.4 337.3V352.6L146.1 344.9C142.2 342.6 137.2 344 134.9 347.9L126 363.3C123.7 367.2 125.1 372.2 129 374.5L142.3 382.2L129 389.9C125.1 392.2 123.8 397.1 126 401.1L134.9 416.5C137.2 420.4 142.1 421.7 146.1 419.5L159.4 411.8V427.1C159.4 431.6 163.1 435.3 167.6 435.3H185.4C189.9 435.3 193.6 431.6 193.6 427.1V411.8L206.9 419.5C210.8 421.8 215.8 420.4 218.1 416.5L227 401.1C229.3 397.2 227.9 392.2 224 389.9Z" fill="#0000CC"/>
<path d="M167.7 428.3C167.1 428.3 166.5 427.8 166.5 427.1V399.6L142.7 413.3C142.5 413.4 142.3 413.5 142.1 413.5C141.9 413.5 141.4 413.5 141.1 412.9L132.2 397.5C132 397.2 132 396.8 132.1 396.6C132.2 396.4 132.3 396.1 132.6 395.9L156.4 382.2L132.6 368.5C132.3 368.3 132.1 368 132.1 367.8C132.1 367.6 132 367.3 132.2 366.9L141.1 351.5C141.4 351 142 350.9 142.1 350.9C142.3 350.9 142.5 351 142.7 351.1L166.5 364.8V337.3C166.5 336.7 167 336.1 167.7 336.1H185.5C186.1 336.1 186.7 336.6 186.7 337.3V364.8L210.5 351.1C210.7 351 210.9 350.9 211.1 350.9C211.3 350.9 211.8 350.9 212.1 351.5L221 366.9C221.2 367.2 221.2 367.6 221.1 367.8C221 368 220.9 368.3 220.6 368.5L196.8 382.2L220.6 395.9C220.9 396.1 221.1 396.4 221.1 396.6C221.2 396.8 221.2 397.1 221 397.5L212 413C211.7 413.5 211.1 413.6 211 413.6C210.8 413.6 210.6 413.5 210.4 413.4L186.6 399.7V427.2C186.6 427.8 186.1 428.4 185.4 428.4H167.7V428.3Z" fill="#8383FF"/>
<path d="M138.793 245.836C138.857 243.462 136.985 241.485 134.611 241.421C132.237 241.357 130.261 243.229 130.196 245.603C130.132 247.976 132.004 249.953 134.378 250.017C136.752 250.082 138.728 248.21 138.793 245.836Z" fill="#6C6CFF"/>
<path d="M138.871 258.435C140.114 256.411 139.481 253.763 137.457 252.52C135.433 251.277 132.785 251.91 131.542 253.934C130.299 255.958 130.933 258.606 132.956 259.849C134.98 261.092 137.628 260.458 138.871 258.435Z" fill="#6C6CFF"/>
<path d="M146.648 264.594C148.736 263.463 149.512 260.853 148.381 258.765C147.25 256.677 144.64 255.901 142.552 257.032C140.464 258.163 139.688 260.773 140.819 262.861C141.95 264.949 144.56 265.725 146.648 264.594Z" fill="#6C6CFF"/>
<path d="M157.631 255.067C157.695 252.693 155.823 250.716 153.449 250.652C151.076 250.587 149.099 252.46 149.035 254.834C148.97 257.207 150.842 259.184 153.216 259.248C155.59 259.313 157.567 257.441 157.631 255.067Z" fill="#6C6CFF"/>
<path d="M156.253 246.715C157.496 244.691 156.863 242.043 154.839 240.801C152.815 239.558 150.167 240.191 148.925 242.215C147.682 244.239 148.315 246.887 150.339 248.13C152.363 249.372 155.011 248.739 156.253 246.715Z" fill="#6C6CFF"/>
<path d="M145.148 243.713C147.236 242.582 148.012 239.972 146.881 237.884C145.75 235.796 143.14 235.02 141.052 236.151C138.964 237.282 138.188 239.892 139.319 241.98C140.45 244.068 143.06 244.844 145.148 243.713Z" fill="#6C6CFF"/>
<path d="M430 410.4H417.1C414.7 410.4 412.7 408.4 412.7 406C412.7 403.6 414.7 401.6 417.1 401.6H430C432.4 401.6 434.4 403.6 434.4 406C434.4 408.4 432.4 410.4 430 410.4Z" fill="#6C6CFF"/>
<path d="M430 424.6H385.5C383.1 424.6 381.1 422.6 381.1 420.2C381.1 417.8 383.1 415.8 385.5 415.8H430C432.4 415.8 434.4 417.8 434.4 420.2C434.4 422.6 432.4 424.6 430 424.6Z" fill="#6C6CFF"/>
<path d="M430 439.8H385.5C383.1 439.8 381.1 437.8 381.1 435.4C381.1 433 383.1 431 385.5 431H430C432.4 431 434.4 433 434.4 435.4C434.4 437.9 432.4 439.8 430 439.8Z" fill="#6C6CFF"/>
<defs>
<linearGradient id="paint0_linear_580_446" x1="133.3" y1="438.52" x2="496.216" y2="173.896" gradientUnits="userSpaceOnUse">
<stop stop-color="white" stop-opacity="0.1"/>
<stop offset="1" stop-color="white" stop-opacity="0.5"/>
</linearGradient>
<linearGradient id="paint1_linear_580_446" x1="141.739" y1="156.489" x2="435.538" y2="434.638" gradientUnits="userSpaceOnUse">
<stop stop-color="white" stop-opacity="0.5"/>
<stop offset="1" stop-color="white" stop-opacity="0.2"/>
</linearGradient>
<linearGradient id="paint2_linear_580_446" x1="404.434" y1="303.398" x2="243.131" y2="514.004" gradientUnits="userSpaceOnUse">
<stop stop-color="white" stop-opacity="0.1"/>
<stop offset="1" stop-color="white" stop-opacity="0.5"/>
</linearGradient>
<linearGradient id="paint3_linear_580_446" x1="75.6633" y1="421.063" x2="564.72" y2="167.753" gradientUnits="userSpaceOnUse">
<stop stop-color="white" stop-opacity="0.7"/>
<stop offset="1" stop-color="white"/>
</linearGradient>
<linearGradient id="paint4_linear_580_446" x1="114.333" y1="220.333" x2="492.646" y2="220.333" gradientUnits="userSpaceOnUse">
<stop stop-color="#FBB5B3" stop-opacity="0"/>
<stop offset="1" stop-color="#FBB5B3"/>
</linearGradient>
</defs>
</svg>
