<svg width="621" height="599" viewBox="0 0 621 599" fill="none" xmlns="http://www.w3.org/2000/svg">
<circle cx="306" cy="311.988" r="160" fill="url(#paint0_linear_385_468)"/>
<ellipse cx="327" cy="404.488" rx="170" ry="94.5" transform="rotate(-180 327 404.488)" stroke="url(#paint1_linear_385_468)" stroke-width="36"/>
<ellipse cx="307.5" cy="311.488" rx="216.5" ry="215.5" stroke="url(#paint2_linear_385_468)" stroke-width="32"/>
<ellipse cx="310.439" cy="299.488" rx="270" ry="256.5" transform="rotate(10 310.439 299.488)" stroke="url(#paint3_linear_385_468)" stroke-width="8" stroke-linecap="round" stroke-linejoin="round" stroke-dasharray="0 19"/>
<path d="M411.925 508.61C402.79 514.768 393.092 520.152 382.92 524.652C375.036 528.147 366.871 531.122 358.469 533.517C347.135 536.759 335.372 538.968 323.275 540.032C319.581 540.359 315.857 540.582 312.097 540.686C310.239 540.738 308.373 540.768 306.5 540.768C304.62 540.768 302.754 540.738 300.889 540.686C297.135 540.575 293.404 540.351 289.71 540.032C277.621 538.961 265.858 536.759 254.532 533.524C249.172 531.992 243.901 530.222 238.741 528.229C238.423 528.11 238.105 527.991 237.786 527.865C235.188 526.853 232.619 525.775 230.08 524.652C219.908 520.145 210.21 514.768 201.068 508.602C208.759 497.915 218.657 488.946 230.08 482.335C237.631 477.969 245.848 474.645 254.532 472.555C255.872 472.228 257.226 471.93 258.589 471.67C261.157 471.164 263.771 470.777 266.413 470.502C267.176 470.42 267.931 470.346 268.701 470.286C271.203 470.078 273.735 469.974 276.296 469.974H336.697C340.043 469.974 343.337 470.153 346.58 470.495C349.222 470.77 351.828 471.164 354.404 471.655C355.433 471.856 356.455 472.071 357.469 472.302C357.802 472.391 358.143 472.458 358.469 472.547C367.16 474.645 375.369 477.969 382.92 482.335C394.343 488.954 404.233 497.923 411.925 508.61Z" fill="#DDEAFB"/>
<path d="M335.186 500.503L312.097 540.686C310.238 540.738 308.373 540.768 306.5 540.768C304.62 540.768 302.754 540.738 300.889 540.686L277.792 500.503H335.186Z" fill="#CBE2FF"/>
<path d="M276.296 469.974C254.561 469.974 239.83 501.53 238.741 528.229C238.423 528.11 238.105 527.991 237.786 527.865C235.188 526.853 232.619 525.775 230.08 524.652C219.908 520.145 210.21 514.768 201.068 508.602C208.759 497.915 218.657 488.946 230.08 482.335C237.631 477.969 245.848 474.645 254.532 472.555C255.872 472.228 257.226 471.93 258.589 471.67C261.157 471.164 263.771 470.777 266.413 470.502C267.176 470.42 267.931 470.346 268.701 470.286C271.203 470.078 273.735 469.974 276.296 469.974Z" fill="#CBE2FF"/>
<path d="M306.49 508.127L267.259 530.03L255.325 470.544L279.702 459.839" fill="#CBE2FF"/>
<path d="M306.491 508.127L345.722 530.03L357.656 470.544L333.28 459.839" fill="#CBE2FF"/>
<path d="M339.595 434.074V474.88C339.595 489.82 329.79 502.447 316.284 506.642C313.193 507.606 309.898 508.127 306.49 508.127C288.212 508.127 273.397 493.244 273.397 474.881V434.074H339.595V434.074Z" fill="#FFCBBE"/>
<path d="M339.595 472.296V474.88C339.595 489.82 329.79 502.447 316.284 506.642C304.098 502.879 294.936 492.235 293.244 479.211C295.455 479.347 297.678 479.415 299.913 479.415C306.175 479.415 312.313 478.916 318.293 477.93C325.661 476.74 332.78 474.835 339.595 472.296Z" fill="#FFDDCE"/>
<path d="M215.104 366.853C215.104 382.097 204.019 394.737 189.505 397.082C187.919 397.34 186.287 397.475 184.622 397.475C167.783 397.475 154.141 383.769 154.141 366.853C154.141 349.936 167.783 336.23 184.622 336.23C186.287 336.23 187.919 336.365 189.505 336.623C204.019 338.97 215.104 351.61 215.104 366.853Z" fill="#FFDDCE"/>
<path d="M215.103 366.853C215.103 382.097 204.019 394.737 189.505 397.082C186.868 387.451 185.46 377.315 185.46 366.853C185.46 356.392 186.868 346.256 189.505 336.625C204.019 338.97 215.103 351.61 215.103 366.853Z" fill="#FFCBBE"/>
<ellipse cx="184.622" cy="366.854" rx="10.8941" ry="10.9444" fill="#FFCBBE"/>
<path d="M397.888 366.853C397.888 382.097 408.973 394.737 423.487 397.082C425.073 397.34 426.705 397.475 428.37 397.475C445.208 397.475 458.851 383.769 458.851 366.853C458.851 349.936 445.208 336.23 428.37 336.23C426.705 336.23 425.073 336.365 423.487 336.623C408.973 338.97 397.888 351.61 397.888 366.853Z" fill="#FFDDCE"/>
<path d="M397.888 366.853C397.888 382.097 408.973 394.737 423.487 397.082C426.124 387.451 427.532 377.315 427.532 366.853C427.532 356.392 426.124 346.256 423.487 336.625C408.973 338.97 397.888 351.61 397.888 366.853Z" fill="#FFCBBE"/>
<ellipse cx="428.37" cy="366.853" rx="10.8941" ry="10.9444" fill="#FFCBBE"/>
<path d="M394.379 233.623L421.023 350.757C421.023 352.773 420.971 354.781 420.868 356.774C418.069 411.318 377.465 455.821 324.874 464.329C318.9 465.311 312.756 465.809 306.493 465.809C243.242 465.809 191.97 414.307 191.97 350.757L203.518 233.623H394.379Z" fill="#FFDDCE"/>
<path d="M421.023 305.153V347.039C421.023 349.054 420.971 351.062 420.867 353.055C393.432 341.067 398.252 281.458 398.252 281.458L421.023 305.153Z" fill="#407093"/>
<path d="M326.668 464.024C326.075 464.129 325.476 464.233 324.876 464.329C318.895 465.311 312.758 465.809 306.495 465.809C243.244 465.809 191.972 414.307 191.972 350.757L203.518 233.623H232.355V350.757C232.355 407.383 273.056 454.438 326.668 464.024Z" fill="#FFCBBE"/>
<path d="M191.97 305.153V347.039C191.97 349.054 192.022 351.062 192.125 353.055C219.56 341.067 214.741 281.458 214.741 281.458L191.97 305.153Z" fill="#407093"/>
<path d="M319.488 373.206H293.505C290.41 373.206 287.901 370.685 287.901 367.576C287.901 364.466 290.41 361.946 293.505 361.946H319.488C322.583 361.946 325.092 364.466 325.092 367.576C325.092 370.684 322.583 373.206 319.488 373.206Z" fill="#FFCBBE"/>
<path d="M325.259 345.292C325.259 358.057 335.56 368.406 348.268 368.406C360.975 368.406 371.276 358.057 371.276 345.292H325.259Z" fill="#FFCBBE"/>
<ellipse cx="348.267" cy="345.292" rx="16.4989" ry="16.5751" fill="#353A3D"/>
<ellipse cx="355.143" cy="342.367" rx="7.06978" ry="7.10243" fill="white"/>
<path d="M241.717 345.292C241.717 358.057 252.018 368.406 264.726 368.406C277.433 368.406 287.734 358.057 287.734 345.292H241.717Z" fill="#FFCBBE"/>
<ellipse cx="264.725" cy="345.292" rx="16.4989" ry="16.5751" fill="#353A3D"/>
<path d="M268.584 361.408C267.348 361.713 266.052 361.869 264.727 361.869C255.614 361.869 248.226 354.447 248.226 345.292C248.226 336.137 255.614 328.714 264.727 328.714C266.052 328.714 267.348 328.871 268.584 329.175C261.329 330.916 255.947 337.475 255.947 345.292C255.947 353.108 261.329 359.668 268.584 361.408Z" fill="#202326"/>
<path d="M352.126 361.408C350.889 361.713 349.594 361.869 348.269 361.869C339.156 361.869 331.768 354.447 331.768 345.292C331.768 336.137 339.156 328.714 348.269 328.714C349.594 328.714 350.889 328.871 352.126 329.175C344.871 330.916 339.489 337.475 339.489 345.292C339.489 353.108 344.871 359.668 352.126 361.408Z" fill="#202326"/>
<ellipse cx="271.602" cy="342.367" rx="7.06978" ry="7.10243" fill="white"/>
<path d="M386.481 389.252C385.145 389.252 383.856 388.524 383.195 387.252C382.251 385.433 382.952 383.189 384.761 382.238C385.06 382.08 414.766 366.048 421.371 331.542C421.757 329.525 423.696 328.206 425.705 328.592C427.713 328.979 429.027 330.929 428.641 332.946C421.344 371.07 389.539 388.123 388.188 388.83C387.642 389.116 387.057 389.252 386.481 389.252Z" fill="#DDEAFB"/>
<path d="M226.51 389.251C225.934 389.251 225.35 389.116 224.803 388.829C223.453 388.122 191.648 371.07 184.35 332.945C183.964 330.928 185.278 328.978 187.286 328.591C189.297 328.205 191.234 329.524 191.62 331.541C198.224 366.048 227.931 382.079 228.23 382.237C230.037 383.191 230.738 385.436 229.79 387.255C229.131 388.524 227.843 389.251 226.51 389.251Z" fill="#CBE2FF"/>
<path d="M395.179 426.102C392.625 441.215 380.003 452.593 364.805 453.932C325.932 457.368 287.06 457.368 248.187 453.932C232.989 452.593 220.367 441.215 217.813 426.102C215.555 412.753 212.609 394.591 217.028 379.702C218.472 374.861 222.632 371.336 227.629 370.8C246.603 368.77 267.094 367.528 287.933 367.059C300.266 366.791 312.726 366.791 325.059 367.059C345.898 367.528 366.389 368.77 385.363 370.8C390.36 371.336 394.52 374.861 395.957 379.702C400.383 394.591 397.437 412.753 395.179 426.102Z" fill="#DDEAFB"/>
<path d="M279.41 455.957C269.001 455.533 258.593 454.863 248.184 453.941C232.986 452.595 220.364 441.216 217.81 426.104C215.552 412.754 212.606 394.593 217.025 379.704C218.469 374.862 222.629 371.337 227.626 370.802C238.945 369.589 250.805 368.66 262.953 368.005C261.117 369.738 259.733 371.962 258.978 374.491C253.84 391.804 257.26 412.925 259.888 428.462C261.902 440.398 269.319 450.327 279.41 455.957Z" fill="#CBE2FF"/>
<path d="M366.345 401.667C366.262 401.667 366.178 401.665 366.094 401.659C326.547 399.004 286.444 399.005 246.898 401.659C244.869 401.796 243.094 400.246 242.958 398.197C242.822 396.148 244.365 394.376 246.405 394.239C286.278 391.562 326.715 391.562 366.587 394.239C368.628 394.376 370.17 396.148 370.034 398.197C369.903 400.161 368.276 401.667 366.345 401.667Z" fill="#CBE2FF"/>
<path d="M371.527 418.807H241.466C239.421 418.807 237.764 417.142 237.764 415.089C237.764 413.035 239.421 411.37 241.466 411.37H371.527C373.572 411.37 375.229 413.035 375.229 415.089C375.229 417.142 373.572 418.807 371.527 418.807Z" fill="#CBE2FF"/>
<path d="M306.496 437.947C286.419 437.947 266.342 437.278 246.405 435.94C244.365 435.803 242.822 434.031 242.958 431.982C243.095 429.933 244.87 428.375 246.898 428.52C286.444 431.174 326.547 431.174 366.094 428.52C368.124 428.375 369.898 429.933 370.034 431.982C370.17 434.031 368.628 435.803 366.587 435.94C346.651 437.278 326.573 437.947 306.496 437.947Z" fill="#CBE2FF"/>
<path d="M325.089 367.572C325.089 369.127 324.459 370.532 323.445 371.551C322.431 372.57 321.032 373.202 319.485 373.202H293.508C290.413 373.202 287.904 370.681 287.904 367.572C287.904 367.401 287.911 367.223 287.933 367.059C300.267 366.791 312.726 366.791 325.059 367.059C325.081 367.223 325.089 367.401 325.089 367.572Z" fill="#CBE2FF"/>
<path d="M421.023 177.272V305.153C359.246 286.203 295.003 282.834 232.352 295.053C218.805 297.686 211.444 291.064 198.082 295.162L203.518 177.272C216.88 173.174 218.805 169.805 232.352 167.172C295.003 154.953 359.246 158.322 421.023 177.272Z" fill="#DDEAFB"/>
<path d="M333.26 215.767C328.823 215.575 324.386 215.434 319.949 215.337C319.852 210.879 319.712 206.422 319.521 201.964C319.449 200.274 318.236 198.833 316.584 198.505C309.858 197.173 303.133 197.173 296.407 198.505C294.755 198.833 293.542 200.274 293.47 201.964C293.279 206.422 293.139 210.879 293.042 215.337C288.604 215.434 284.168 215.575 279.731 215.767C278.048 215.84 276.614 217.058 276.287 218.718C274.961 225.475 274.961 232.231 276.287 238.988C276.613 240.648 278.048 241.866 279.731 241.939C284.168 242.131 288.604 242.272 293.042 242.369C293.139 246.826 293.279 251.284 293.47 255.741C293.542 257.432 294.755 258.872 296.407 259.2C303.133 260.533 309.858 260.533 316.584 259.2C318.236 258.873 319.449 257.432 319.521 255.741C319.712 251.284 319.853 246.826 319.949 242.369C324.386 242.271 328.823 242.131 333.26 241.939C334.943 241.866 336.377 240.648 336.703 238.988C338.03 232.231 338.03 225.475 336.703 218.718C336.378 217.058 334.943 215.84 333.26 215.767Z" fill="#DD5790"/>
<path d="M232.353 167.173V295.054C218.805 297.687 205.332 301.056 191.97 305.153V177.272C205.332 173.175 218.805 169.806 232.353 167.173Z" fill="#CBE2FF"/>
<defs>
<linearGradient id="paint0_linear_385_468" x1="6.92517" y1="298.888" x2="300.724" y2="577.037" gradientUnits="userSpaceOnUse">
<stop stop-color="white" stop-opacity="0.5"/>
<stop offset="1" stop-color="white" stop-opacity="0.2"/>
</linearGradient>
<linearGradient id="paint1_linear_385_468" x1="299.674" y1="544.003" x2="461.024" y2="333.336" gradientUnits="userSpaceOnUse">
<stop stop-color="white" stop-opacity="0.1"/>
<stop offset="1" stop-color="white" stop-opacity="0.5"/>
</linearGradient>
<linearGradient id="paint2_linear_385_468" x1="272.7" y1="629.641" x2="635.558" y2="365.06" gradientUnits="userSpaceOnUse">
<stop stop-color="white" stop-opacity="0.1"/>
<stop offset="1" stop-color="white" stop-opacity="0.5"/>
</linearGradient>
<linearGradient id="paint3_linear_385_468" x1="267.039" y1="678.172" x2="704.703" y2="343.8" gradientUnits="userSpaceOnUse">
<stop stop-color="white" stop-opacity="0.7"/>
<stop offset="1" stop-color="white"/>
</linearGradient>
</defs>
</svg>
