<svg width="621" height="599" viewBox="0 0 621 599" fill="none" xmlns="http://www.w3.org/2000/svg">
<path d="M307.5 543C245.4 543 187 518.9 143.1 475.2C99.2 431.5 75 373.3 75 311.5C75 249.6 99.2 191.5 143.1 147.8C187 104.1 245.4 80 307.5 80C369.6 80 428 104.1 471.9 147.8C515.8 191.5 540 249.7 540 311.5C540 373.3 515.8 431.5 471.9 475.2C428 518.9 369.6 543 307.5 543ZM307.5 112C196.9 112 107 201.5 107 311.5C107 421.5 196.9 511 307.5 511C418.1 511 508 421.5 508 311.5C508 201.5 418.1 112 307.5 112Z" fill="url(#paint0_linear_544_441)"/>
<path d="M306 472C394.366 472 466 400.366 466 312C466 223.634 394.366 152 306 152C217.634 152 146 223.634 146 312C146 400.366 217.634 472 306 472Z" fill="url(#paint1_linear_544_441)"/>
<path d="M327 517C221.6 517 139 467.6 139 404.5C139 341.4 221.6 292 327 292C432.4 292 515 341.4 515 404.5C515 467.6 432.4 517 327 517ZM327 328C284.6 328 245 337 215.5 353.4C189.7 367.7 175 386.3 175 404.5C175 422.6 189.8 441.3 215.5 455.6C245 472 284.6 481 327 481C369.4 481 409 472 438.5 455.6C464.3 441.3 479 422.7 479 404.5C479 386.4 464.2 367.7 438.5 353.4C409 337 369.4 328 327 328Z" fill="url(#paint2_linear_544_441)"/>
<path d="M320.1 560.4C317.9 560.4 316.1 558.7 316.1 556.5C316.1 554.3 317.8 552.5 320 552.4C325.6 552.3 331.2 552 336.7 551.6C338.9 551.4 340.8 553.1 341 555.3C341.2 557.5 339.5 559.4 337.3 559.6C331.6 560 325.8 560.3 320.1 560.4ZM301.1 560.1C301 560.1 301 560.1 300.9 560.1C295.2 559.8 289.4 559.3 283.7 558.7C281.5 558.5 279.9 556.5 280.2 554.3C280.4 552.1 282.4 550.5 284.6 550.8C290.1 551.4 295.8 551.9 301.3 552.2C303.5 552.3 305.2 554.2 305.1 556.4C305 558.4 303.2 560.1 301.1 560.1ZM355.9 557.5C353.9 557.5 352.2 556.1 351.9 554.1C351.6 551.9 353.1 549.9 355.3 549.6C360.8 548.8 366.3 547.8 371.8 546.7C374 546.2 376.1 547.6 376.5 549.8C376.9 552 375.6 554.1 373.4 554.5C367.8 555.7 362.1 556.7 356.4 557.5C356.3 557.5 356.1 557.5 355.9 557.5ZM265.3 556C265.1 556 264.8 556 264.6 555.9C259 554.9 253.3 553.7 247.7 552.4C245.6 551.9 244.2 549.7 244.7 547.6C245.2 545.5 247.4 544.1 249.5 544.6C254.9 545.9 260.4 547 265.9 548C268.1 548.4 269.5 550.5 269.1 552.6C268.9 554.6 267.2 556 265.3 556ZM391.1 550C389.4 550 387.8 548.8 387.3 547.1C386.7 545 387.9 542.8 390.1 542.2C395.4 540.7 400.8 539 406 537.2C408.1 536.5 410.4 537.6 411.1 539.7C411.8 541.8 410.7 544.1 408.6 544.8C403.2 546.7 397.7 548.4 392.2 550C391.8 550 391.4 550 391.1 550ZM230.4 547.5C230 547.5 229.6 547.4 229.2 547.3C223.7 545.6 218.3 543.7 212.9 541.7C210.8 540.9 209.8 538.6 210.6 536.5C211.4 534.4 213.7 533.4 215.8 534.2C221 536.2 226.3 538 231.6 539.7C233.7 540.4 234.9 542.6 234.2 544.7C233.7 546.4 232.1 547.5 230.4 547.5ZM424.9 538C423.4 538 421.9 537.1 421.2 535.6C420.3 533.6 421.3 531.2 423.3 530.3C428.4 528.1 433.5 525.7 438.4 523.2C440.4 522.2 442.8 523 443.8 525C444.8 527 444 529.4 442 530.4C436.9 533 431.7 535.4 426.4 537.7C426 537.9 425.5 538 424.9 538ZM196.8 534.6C196.2 534.6 195.7 534.5 195.1 534.2C189.9 531.8 184.7 529.2 179.7 526.5C177.8 525.5 177 523 178.1 521.1C179.1 519.2 181.6 518.4 183.5 519.5C188.4 522.1 193.5 524.6 198.5 526.9C200.5 527.8 201.4 530.2 200.5 532.2C199.8 533.7 198.3 534.6 196.8 534.6ZM456.9 521.6C455.5 521.6 454.2 520.9 453.5 519.7C452.4 517.8 453 515.3 454.9 514.2C459.7 511.3 464.4 508.3 469 505.1C470.8 503.8 473.3 504.3 474.6 506.1C475.9 507.9 475.4 510.4 473.6 511.7C468.9 514.9 464 518.1 459.1 521C458.3 521.4 457.6 521.6 456.9 521.6ZM165.1 517.5C164.4 517.5 163.6 517.3 163 516.9C158.1 513.9 153.3 510.6 148.7 507.3C146.9 506 146.5 503.5 147.8 501.7C149.1 499.9 151.6 499.5 153.4 500.8C157.9 504 162.6 507.2 167.3 510.1C169.2 511.3 169.7 513.7 168.6 515.6C167.8 516.9 166.5 517.5 165.1 517.5ZM486.4 501C485.2 501 484.1 500.5 483.3 499.5C481.9 497.8 482.2 495.3 483.9 493.9C488.2 490.4 492.5 486.7 496.6 483C498.2 481.5 500.8 481.6 502.3 483.2C503.8 484.8 503.7 487.4 502.1 488.9C497.9 492.8 493.5 496.5 489 500.1C488.2 500.8 487.3 501 486.4 501ZM135.9 496.4C135 496.4 134.1 496.1 133.4 495.5C129 491.8 124.6 488 120.4 484.1C118.8 482.6 118.7 480.1 120.2 478.4C121.7 476.8 124.2 476.7 125.9 478.2C130 482 134.2 485.7 138.5 489.3C140.2 490.7 140.4 493.2 139 494.9C138.2 495.9 137.1 496.4 135.9 496.4ZM512.8 476.6C511.8 476.6 510.8 476.2 510.1 475.5C508.5 474 508.4 471.5 509.9 469.8C513.7 465.7 517.4 461.5 520.9 457.2C522.3 455.5 524.8 455.2 526.5 456.6C528.2 458 528.5 460.5 527.1 462.2C523.5 466.6 519.6 471 515.7 475.2C515 476.2 513.9 476.6 512.8 476.6ZM109.8 471.7C108.7 471.7 107.7 471.3 106.9 470.4C103 466.2 99.1998 461.8 95.5998 457.4C94.1998 455.7 94.4998 453.2 96.1998 451.8C97.8998 450.4 100.4 450.7 101.8 452.4C105.3 456.7 109 461 112.8 465C114.3 466.6 114.2 469.2 112.6 470.7C111.7 471.4 110.8 471.7 109.8 471.7ZM535.5 448.7C534.7 448.7 533.9 448.5 533.2 448C531.4 446.7 531 444.2 532.2 442.4C535.4 437.8 538.5 433.1 541.3 428.4C542.4 426.5 544.9 425.9 546.8 427C548.7 428.1 549.3 430.6 548.2 432.5C545.2 437.4 542.1 442.3 538.8 447C538 448.1 536.8 448.7 535.5 448.7ZM87.1998 443.7C85.8998 443.7 84.6998 443.1 83.8998 442C80.5998 437.3 77.3998 432.4 74.3998 427.6C73.1998 425.7 73.7998 423.3 75.6998 422.1C77.5998 420.9 79.9998 421.5 81.1998 423.4C84.0998 428.1 87.1998 432.8 90.3998 437.4C91.6998 439.2 91.1998 441.7 89.3998 443C88.7998 443.5 87.9998 443.7 87.1998 443.7ZM554 417.9C553.4 417.9 552.8 417.8 552.2 417.5C550.2 416.5 549.4 414.1 550.4 412.1C552.9 407.1 555.2 402 557.4 396.9C558.3 394.9 560.6 393.9 562.6 394.8C564.6 395.7 565.6 398 564.7 400C562.5 405.3 560.1 410.6 557.5 415.7C556.9 417.1 555.5 417.9 554 417.9ZM68.5998 412.9C67.0998 412.9 65.6998 412.1 64.9998 410.7C62.3998 405.6 59.8998 400.3 57.5998 395.1C56.6998 393.1 57.6998 390.7 59.6998 389.8C61.6998 388.9 64.0998 389.9 64.9998 391.9C67.1998 397 69.5998 402.1 72.0998 407C73.0998 409 72.2998 411.4 70.3998 412.4C69.7998 412.8 69.1998 412.9 68.5998 412.9ZM567.7 384.6C567.3 384.6 566.9 384.5 566.4 384.4C564.3 383.7 563.2 381.4 563.9 379.4C565.6 374.1 567.2 368.7 568.6 363.4C569.1 361.3 571.3 360 573.5 360.5C575.6 361 576.9 363.2 576.4 365.4C575 371 573.4 376.5 571.6 382C571 383.5 569.4 384.6 567.7 384.6ZM54.3998 379.9C52.6998 379.9 51.1998 378.9 50.5998 377.2C48.6998 371.8 46.9998 366.2 45.4998 360.7C44.8998 358.6 46.1998 356.4 48.2998 355.8C50.3998 355.2 52.5998 356.5 53.1998 358.6C54.6998 363.9 56.2998 369.3 58.0998 374.6C58.7998 376.7 57.6998 379 55.5998 379.7C55.2998 379.8 54.8998 379.9 54.3998 379.9ZM576.5 349.7C576.3 349.7 576 349.7 575.8 349.6C573.6 349.2 572.2 347.2 572.5 345C573.5 339.5 574.2 334 574.8 328.4C575 326.2 577 324.6 579.2 324.8C581.4 325 583 327 582.8 329.2C582.2 334.9 581.4 340.7 580.4 346.3C580.1 348.4 578.4 349.7 576.5 349.7ZM45.0998 345.1C43.1998 345.1 41.4998 343.8 41.1998 341.8C40.0998 336.2 39.1998 330.4 38.5998 324.8C38.2998 322.6 39.8998 320.6 42.0998 320.4C44.2998 320.1 46.2998 321.7 46.4998 323.9C47.1998 329.4 47.9998 334.9 49.0998 340.4C49.4998 342.6 48.0998 344.7 45.8998 345.1C45.5998 345.1 45.3998 345.1 45.0998 345.1ZM580 313.9C577.7 313.8 575.9 312 576 309.8C576.1 307.8 576.1 305.7 576.1 303.6C576.1 300.1 576 296.5 575.9 293C575.8 290.8 577.5 288.9 579.7 288.8C581.9 288.7 583.8 290.4 583.9 292.6C584.1 296.2 584.1 299.9 584.1 303.5C584.1 305.6 584.1 307.8 584 309.9C583.9 312.2 582.2 313.9 580 313.9ZM40.9998 309.4C38.8998 309.4 37.0998 307.7 36.9998 305.6C36.8998 302.2 36.7998 298.7 36.7998 295.3C36.7998 293 36.7998 290.7 36.8998 288.4C36.9998 286.2 38.7998 284.5 40.9998 284.5C43.1998 284.6 44.8998 286.4 44.8998 288.6C44.7998 290.8 44.7998 293.1 44.7998 295.3C44.7998 298.6 44.8998 302 44.9998 305.3C45.0998 307.5 43.3998 309.4 41.1998 309.5C41.0998 309.4 41.0998 309.4 40.9998 309.4ZM578.3 278C576.3 278 574.6 276.5 574.3 274.5C573.6 269 572.8 263.4 571.7 258C571.3 255.8 572.7 253.7 574.9 253.3C577.1 252.9 579.2 254.3 579.6 256.5C580.7 262.1 581.6 267.9 582.3 273.5C582.6 275.7 581 277.7 578.8 278C578.6 278 578.4 278 578.3 278ZM42.1998 273.5C42.0998 273.5 41.8998 273.5 41.7998 273.5C39.5998 273.3 37.9998 271.3 38.1998 269.1C38.7998 263.4 39.5998 257.7 40.5998 252C40.9998 249.8 43.0998 248.4 45.1998 248.8C47.3998 249.2 48.7998 251.3 48.3998 253.4C47.3998 258.9 46.5998 264.5 46.0998 270C45.8998 272 44.1998 273.5 42.1998 273.5ZM571.3 242.8C569.5 242.8 567.9 241.6 567.4 239.9C565.9 234.6 564.3 229.2 562.4 223.9C561.7 221.8 562.8 219.5 564.9 218.8C567 218.1 569.3 219.2 570 221.3C571.9 226.7 573.6 232.3 575.1 237.8C575.7 239.9 574.4 242.1 572.3 242.7C572 242.7 571.7 242.8 571.3 242.8ZM48.4998 238.1C48.1998 238.1 47.7998 238.1 47.4998 238C45.3998 237.5 44.0998 235.3 44.5998 233.1C45.9998 227.5 47.6998 222 49.4998 216.5C50.1998 214.4 52.4998 213.3 54.5998 214C56.6998 214.7 57.7998 217 57.0998 219.1C55.3998 224.4 53.7998 229.8 52.3998 235.1C51.8998 236.9 50.2998 238.1 48.4998 238.1ZM559.4 208.9C557.9 208.9 556.4 208 555.7 206.5C553.5 201.4 551.1 196.3 548.5 191.4C547.5 189.4 548.3 187 550.2 186C552.2 185 554.6 185.8 555.6 187.7C558.2 192.8 560.7 198 563 203.3C563.9 205.3 563 207.7 560.9 208.6C560.4 208.8 559.9 208.9 559.4 208.9ZM59.9998 204C59.4998 204 58.9998 203.9 58.4998 203.7C56.4998 202.8 55.4998 200.5 56.3998 198.5C58.5998 193.2 61.0998 187.9 63.6998 182.8C64.6998 180.8 67.0998 180 69.0998 181C71.0998 182 71.8998 184.4 70.8998 186.4C68.3998 191.4 65.9998 196.5 63.8998 201.6C62.9998 203.1 61.5998 204 59.9998 204ZM542.7 177C541.4 177 540 176.3 539.3 175.1C536.4 170.4 533.3 165.7 530.1 161.1C528.8 159.3 529.3 156.8 531.1 155.5C532.9 154.2 535.4 154.7 536.7 156.5C540 161.2 543.2 166 546.2 170.9C547.4 172.8 546.8 175.2 544.9 176.4C544.2 176.8 543.4 177 542.7 177ZM76.3998 172C75.6998 172 74.9998 171.8 74.2998 171.4C72.3998 170.3 71.7998 167.8 72.9998 165.9C75.9998 161 79.1998 156.1 82.4998 151.4C83.7998 149.6 86.2998 149.2 88.0998 150.4C89.8998 151.7 90.2998 154.2 89.0998 156C85.8998 160.5 82.7998 165.3 79.8998 170C78.9998 171.3 77.6998 172 76.3998 172ZM521.9 147.6C520.7 147.6 519.6 147.1 518.8 146.1C515.3 141.8 511.6 137.6 507.8 133.5C506.3 131.9 506.4 129.4 508 127.8C509.6 126.2 512.1 126.4 513.7 128C517.6 132.2 521.4 136.6 525.1 141C526.5 142.7 526.2 145.2 524.5 146.6C523.7 147.3 522.8 147.6 521.9 147.6ZM97.1998 142.7C96.2998 142.7 95.3998 142.4 94.6998 141.8C92.9998 140.4 92.7998 137.9 94.1998 136.2C97.7998 131.8 101.7 127.4 105.6 123.3C107.1 121.7 109.6 121.6 111.3 123.1C112.9 124.6 113 127.1 111.5 128.8C107.7 132.8 104 137.1 100.4 141.3C99.4998 142.2 98.2998 142.7 97.1998 142.7ZM497.3 121.4C496.3 121.4 495.3 121 494.6 120.3C490.5 116.5 486.3 112.8 482 109.2C480.3 107.8 480.1 105.3 481.5 103.6C482.9 101.9 485.4 101.7 487.1 103.1C491.5 106.7 495.9 110.6 500.1 114.5C501.7 116 501.8 118.5 500.3 120.2C499.4 121 498.3 121.4 497.3 121.4ZM122 116.6C120.9 116.6 119.8 116.2 119 115.3C117.5 113.7 117.6 111.1 119.3 109.6C123.5 105.7 127.9 102 132.4 98.4001C134.1 97.0001 136.6 97.3001 138 99.0001C139.4 100.7 139.1 103.2 137.4 104.6C133.1 108.1 128.8 111.7 124.7 115.5C123.9 116.3 123 116.6 122 116.6ZM469.4 98.6001C468.6 98.6001 467.8 98.4001 467.1 97.9001C462.6 94.7001 457.9 91.5001 453.2 88.6001C451.3 87.4001 450.8 85.0001 451.9 83.1001C453.1 81.2001 455.5 80.7001 457.4 81.8001C462.3 84.8001 467.1 88.1001 471.8 91.4001C473.6 92.7001 474 95.2001 472.7 97.0001C471.9 98.0001 470.6 98.6001 469.4 98.6001ZM150.2 94.3001C148.9 94.3001 147.7 93.7001 146.9 92.6001C145.6 90.8001 146.1 88.3001 147.9 87.0001C152.6 83.8001 157.5 80.6001 162.4 77.7001C164.3 76.6001 166.8 77.2001 167.9 79.1001C169 81.0001 168.4 83.5001 166.5 84.6001C161.7 87.5001 157 90.5001 152.4 93.6001C151.7 94.0001 150.9 94.3001 150.2 94.3001ZM438.8 79.7001C438.2 79.7001 437.5 79.5001 436.9 79.2001C432 76.6001 426.9 74.1001 421.9 71.8001C419.9 70.9001 419 68.5001 419.9 66.5001C420.8 64.5001 423.2 63.6001 425.2 64.5001C430.4 66.9001 435.6 69.4001 440.7 72.1001C442.6 73.1001 443.4 75.6001 442.4 77.5001C441.6 78.9001 440.2 79.7001 438.8 79.7001ZM181.1 75.9001C179.6 75.9001 178.2 75.1001 177.5 73.7001C176.5 71.7001 177.3 69.3001 179.3 68.3001C184.4 65.7001 189.7 63.3001 194.9 61.0001C196.9 60.1001 199.3 61.1001 200.2 63.1001C201.1 65.1001 200.1 67.5001 198.1 68.4001C193 70.6001 187.9 73.0001 182.9 75.5001C182.3 75.8001 181.7 75.9001 181.1 75.9001ZM406 64.8001C405.5 64.8001 405.1 64.7001 404.6 64.5001C399.4 62.5001 394.1 60.7001 388.8 59.1001C386.7 58.4001 385.5 56.2001 386.2 54.1001C386.9 52.0001 389.1 50.8001 391.2 51.5001C396.7 53.2001 402.2 55.1001 407.5 57.1001C409.6 57.9001 410.6 60.2001 409.8 62.3001C409.2 63.9001 407.6 64.8001 406 64.8001ZM214.2 61.9001C212.5 61.9001 211 60.9001 210.4 59.2001C209.7 57.1001 210.8 54.8001 212.9 54.1001C218.3 52.2001 223.8 50.5001 229.3 48.9001C231.4 48.3001 233.6 49.5001 234.2 51.7001C234.8 53.8001 233.6 56.0001 231.4 56.6001C226.1 58.1001 220.7 59.8001 215.4 61.6001C215.1 61.8001 214.6 61.9001 214.2 61.9001ZM371.6 54.3001C371.3 54.3001 371 54.3001 370.7 54.2001C365.3 52.9001 359.8 51.8001 354.3 50.8001C352.1 50.4001 350.7 48.3001 351.1 46.2001C351.5 44.0001 353.6 42.6001 355.7 43.0001C361.3 44.0001 367 45.2001 372.6 46.5001C374.7 47.0001 376.1 49.2001 375.6 51.3001C375.1 53.1001 373.4 54.3001 371.6 54.3001ZM248.8 52.3001C246.9 52.3001 245.3 51.0001 244.9 49.1001C244.5 46.9001 245.8 44.8001 248 44.4001C253.6 43.2001 259.3 42.2001 265 41.4001C267.2 41.1001 269.2 42.6001 269.5 44.8001C269.8 47.0001 268.3 49.0001 266.1 49.3001C260.6 50.1001 255 51.1001 249.6 52.2001C249.3 52.3001 249.1 52.3001 248.8 52.3001ZM337.3 48.3001C337.1 48.3001 337 48.3001 336.8 48.3001C331.3 47.7001 325.6 47.2001 320.1 46.9001C317.9 46.8001 316.2 44.9001 316.3 42.7001C316.4 40.5001 318.3 38.8001 320.5 38.9001C326.2 39.2001 332 39.7001 337.7 40.3001C339.9 40.5001 341.5 42.5001 341.2 44.7001C341.1 46.8001 339.3 48.3001 337.3 48.3001ZM284.4 47.3001C282.3 47.3001 280.6 45.7001 280.4 43.6001C280.2 41.4001 281.9 39.5001 284.1 39.3001C289.8 38.9001 295.6 38.6001 301.3 38.5001C303.5 38.4001 305.3 40.2001 305.4 42.4001C305.4 44.6001 303.7 46.4001 301.5 46.5001C295.9 46.6001 290.3 46.8001 284.8 47.2001C284.6 47.3001 284.5 47.3001 284.4 47.3001Z" fill="url(#paint3_linear_544_441)"/>
<path d="M341.4 443.5C341.4 443.5 339.7 465.9 348.3 475.5C356.8 485.1 368.1 489 368.1 489H311.5H295.3H238.7C238.7 489 250 485.1 258.5 475.5C267 465.9 265.4 443.5 265.4 443.5H341.4Z" fill="#AEB8BD"/>
<path d="M467.1 390.6H140.4V216C140.4 205.5 148.9 197 159.4 197H448.1C458.6 197 467.1 205.5 467.1 216V390.6Z" fill="#2E434E"/>
<path d="M448.1 445.4H159.4C148.9 445.4 140.4 436.9 140.4 426.4V390.6H467.1V426.4C467.1 436.9 458.6 445.4 448.1 445.4Z" fill="#E6EDEE"/>
<path d="M450.2 204.9H154.9V377.2H450.2V204.9Z" fill="#FBEDB3"/>
<path d="M154.9 377.2L450.2 204.9V377.2H154.9Z" fill="#F6D142"/>
<path d="M368.1 506.2H240C235.2 506.2 231.4 502.3 231.4 497.6C231.4 492.8 235.3 489 240 489H368.1C372.9 489 376.7 492.9 376.7 497.6C376.8 502.3 372.9 506.2 368.1 506.2Z" fill="#E5ECED"/>
<path d="M237.7 107.7C237.7 96.6998 228.8 87.7998 217.8 87.7998C206.8 87.7998 198 96.7998 198 107.7C198 108.9 198.1 110 198.3 111.1C192.9 112.8 188.5 116.5 185.7 121.3C181.5 118.4 176.4 116.6 170.9 116.6C161.9 116.6 154 121.3 149.4 128.3C146.5 118.8 139.3 111.2 130 107.8C133.9 103.7 136.3 98.1998 136.3 92.0998C136.3 79.4998 126.1 69.2998 113.5 69.2998C101.4 69.2998 91.4001 78.7998 90.7001 90.7998C89.0001 90.3998 87.2001 90.1998 85.4001 90.1998C72.8001 90.1998 62.6001 100.4 62.6001 113C62.6001 125.6 72.8001 135.8 85.4001 135.8C86.0001 135.8 86.6001 135.8 87.1001 135.7C87.1001 136.4 87.0001 137 87.0001 137.7C87.0001 155.3 101.3 169.6 118.9 169.6C131.2 169.6 141.9 162.6 147.2 152.3C151.1 161.5 160.2 168 170.9 168C181.6 168 190.8 161.4 194.7 152C197.8 153.6 201.3 154.5 205 154.5C217.3 154.5 227.3 144.5 227.3 132.2C227.3 129.9 226.9 127.7 226.3 125.6C233.1 122.5 237.7 115.7 237.7 107.7Z" fill="#FFFBF2"/>
<path d="M217.1 47.2002H92.7998V137H217.1V47.2002Z" fill="#80432B"/>
<path d="M210.1 65.3002V118.9C204 118.9 199 123.9 199 130H110.9C110.9 123.9 105.9 118.9 99.7998 118.9V65.3002C105.9 65.3002 110.9 60.3002 110.9 54.2002H199C199 60.3002 203.9 65.3002 210.1 65.3002Z" fill="#EEE9D8"/>
<path d="M168.9 65.2002H141.3V69.2002H168.9V65.2002Z" fill="#C7A67A"/>
<path d="M191.3 75.9004H119V79.9004H191.3V75.9004Z" fill="#C7A67A"/>
<path d="M191.3 86.5996H119V90.5996H191.3V86.5996Z" fill="#C7A67A"/>
<path d="M165.2 97.4004H132.8V101.4H165.2V97.4004Z" fill="#C7A67A"/>
<path d="M165.2 108.1H145.3V112.1H165.2V108.1Z" fill="#C7A67A"/>
<path d="M138.9 108.1H119V112.1H138.9V108.1Z" fill="#C7A67A"/>
<path d="M126.7 97.4004H119V101.4H126.7V97.4004Z" fill="#C7A67A"/>
<path d="M191.5 132.8C202.214 132.8 210.9 124.114 210.9 113.4C210.9 102.686 202.214 94 191.5 94C180.786 94 172.1 102.686 172.1 113.4C172.1 124.114 180.786 132.8 191.5 132.8Z" fill="#DFB61C"/>
<path d="M191.5 126.8V122.8C196.7 122.8 200.9 118.6 200.9 113.4H204.9C204.9 120.8 198.9 126.8 191.5 126.8Z" fill="#FFFED6"/>
<path d="M182.2 113.4H178.2C178.2 106 184.2 100 191.6 100V104C186.4 104.1 182.2 108.3 182.2 113.4Z" fill="#FFFED6"/>
<path d="M182.8 128.1V152.5L191.2 144.2L199.7 152.7V128.1H182.8Z" fill="#DFB61C"/>
<path d="M540.8 208.4C537.6 208.4 534.6 209 531.8 210.1C531.9 208.8 532 207.4 532 206C532 184.5 514.6 167.2 493.2 167.2C482.7 167.2 473.1 171.4 466.1 178.2C459 170.7 449 166.1 437.9 166.1C416.4 166.1 399.1 183.5 399.1 204.9C399.1 207.6 399.4 210.2 399.9 212.8C386.4 221 377.4 235.8 377.4 252.8C377.4 278.6 398.3 299.5 424.1 299.5C440.6 299.5 455 291 463.3 278.1C470.6 287.5 482.1 293.6 494.9 293.6C516 293.6 533.2 277.3 534.8 256.7C536.7 257.2 538.7 257.4 540.8 257.4C554.3 257.4 565.3 246.4 565.3 232.9C565.3 219.4 554.3 208.4 540.8 208.4Z" fill="#FFFBF2"/>
<path d="M401.9 240.9H535.8C537.5 240.9 538.8 239.6 538.8 237.9V236.7C538.8 235 537.5 233.7 535.8 233.7H401.9C400.2 233.7 398.9 235 398.9 236.7V237.9C398.9 239.5 400.2 240.9 401.9 240.9Z" fill="#D25D22"/>
<path d="M354.4 374.8C333.6 374.8 315.5 362 308.2 343.1C301 352.6 289.8 358.3 277.6 358.3C259.9 358.3 244.7 346.3 240.4 329.4C238.6 329.6 236.8 329.8 235.1 329.8C213.9 329.8 196.7 312.6 196.7 291.4C196.7 285.3 198.2 279.2 201 273.8C193.6 268.6 189 260 189 250.9C189 235.5 201.5 222.9 217 222.9C223.6 222.9 230 225.2 235 229.4C242.1 218.9 254 212.5 266.8 212.5C288 212.5 305.2 229.7 305.2 250.9C305.2 264 298.5 276 287.9 283C297.7 285.8 306.2 292.4 311.2 301.4C317.7 289.8 328.7 281.2 341.5 277.7C337.2 271.3 334.9 263.7 334.9 256C334.9 234.4 352.5 216.8 374.1 216.8C395.4 216.8 412.7 233.8 413.3 254.9C432.5 257.6 447.2 274.1 447.2 293.8C447.2 315.4 429.6 333 408 333C406.4 333 404.8 332.9 403.3 332.7C401.7 343.8 396.3 354.1 387.9 361.8C378.8 370.1 366.9 374.8 354.4 374.8Z" fill="#D6CCBA"/>
<path d="M410.6 257.3C410.6 256.8 410.6 256.3 410.6 255.9C410.6 235.8 394.3 219.5 374.2 219.5C354.1 219.5 337.8 235.8 337.8 255.9C337.8 264.9 341.1 273.1 346.5 279.4C330.4 282.2 317.1 293.2 311.2 308.1C306.4 294.5 293.6 284.7 278.5 284.4C292.4 279.6 302.4 266.4 302.4 250.9C302.4 231.3 286.5 215.4 266.9 215.4C253.4 215.4 241.7 222.9 235.7 234C231.1 229 224.5 225.8 217.1 225.8C203.2 225.8 192 237 192 250.9C192 260.4 197.2 268.6 204.9 272.9C201.6 278.3 199.7 284.7 199.7 291.5C199.7 311.1 215.6 327 235.2 327C237.8 327 240.3 326.7 242.7 326.2C245.6 342.9 260.2 355.5 277.6 355.5C291.3 355.5 303.2 347.7 309.1 336.4C314 356.8 332.4 372 354.4 372C378.8 372 398.8 353.3 400.8 329.4C403.1 329.9 405.6 330.1 408 330.1C428.1 330.1 444.4 313.8 444.4 293.7C444.4 274.4 429.5 258.6 410.6 257.3Z" fill="#FFFBF2"/>
<path d="M95.6001 465.2H21.9001C17.9001 465.2 14.6001 462 14.6001 457.9V367.9C14.6001 363.9 17.8001 360.6 21.9001 360.6H95.6001C99.6001 360.6 102.9 363.8 102.9 367.9V457.9C102.9 462 99.6001 465.2 95.6001 465.2Z" fill="#A25648"/>
<path d="M21.9001 459.2C21.2001 459.2 20.6001 458.6 20.6001 457.9V367.9C20.6001 367.2 21.2001 366.6 21.9001 366.6H95.6001C96.3001 366.6 96.9001 367.2 96.9001 367.9V457.9C96.9001 458.6 96.3001 459.2 95.6001 459.2H21.9001Z" fill="white"/>
<path d="M68.0001 360.1H65.0001V357.2C65.0001 355.5 63.6001 354.1 61.9001 354.1H55.7001C54.0001 354.1 52.6001 355.5 52.6001 357.2V360.1H49.6001V357.2C49.6001 353.8 52.3001 351.1 55.7001 351.1H61.9001C65.3001 351.1 68.0001 353.8 68.0001 357.2V360.1Z" fill="#83808E"/>
<path d="M71.7001 372.9H46.1001C41.2001 372.9 37.1001 368.9 37.1001 363.9V360.9C37.1001 358.4 39.1001 356.4 41.6001 356.4H76.0001C78.5001 356.4 80.5001 358.4 80.5001 360.9V363.9C80.6001 368.9 76.6001 372.9 71.7001 372.9Z" fill="#B5B8BE"/>
<path d="M44.5002 399.6H37.5002C34.3002 399.6 31.7002 397 31.7002 393.8V387.6C31.7002 384.4 34.3002 381.8 37.5002 381.8H44.5002C47.7002 381.8 50.3002 384.4 50.3002 387.6V393.8C50.3002 397 47.7002 399.6 44.5002 399.6ZM37.5002 384.7C35.9002 384.7 34.7002 386 34.7002 387.5V393.7C34.7002 395.3 36.0002 396.5 37.5002 396.5H44.5002C46.1002 396.5 47.3002 395.2 47.3002 393.7V387.5C47.3002 385.9 46.0002 384.7 44.5002 384.7H37.5002Z" fill="#A5A8B0"/>
<path d="M63.6001 383.5H54.1001V386.5H63.6001V383.5Z" fill="#2F203F"/>
<path d="M83.1001 390.7H54.1001V393.7H83.1001V390.7Z" fill="#2F203F"/>
<path d="M44.5002 423.2H37.5002C34.3002 423.2 31.7002 420.6 31.7002 417.4V411.2C31.7002 408 34.3002 405.4 37.5002 405.4H44.5002C47.7002 405.4 50.3002 408 50.3002 411.2V417.4C50.3002 420.6 47.7002 423.2 44.5002 423.2ZM37.5002 408.4C35.9002 408.4 34.7002 409.7 34.7002 411.2V417.4C34.7002 419 36.0002 420.2 37.5002 420.2H44.5002C46.1002 420.2 47.3002 418.9 47.3002 417.4V411.2C47.3002 409.6 46.0002 408.4 44.5002 408.4H37.5002Z" fill="#A5A8B0"/>
<path d="M73.7001 407.2H54.1001V410.2H73.7001V407.2Z" fill="#2F203F"/>
<path d="M83.1001 414.4H54.1001V417.4H83.1001V414.4Z" fill="#2F203F"/>
<path d="M44.5002 446.9H37.5002C34.3002 446.9 31.7002 444.3 31.7002 441.1V434.9C31.7002 431.7 34.3002 429.1 37.5002 429.1H44.5002C47.7002 429.1 50.3002 431.7 50.3002 434.9V441.1C50.3002 444.3 47.7002 446.9 44.5002 446.9ZM37.5002 432.1C35.9002 432.1 34.7002 433.4 34.7002 434.9V441.1C34.7002 442.7 36.0002 443.9 37.5002 443.9H44.5002C46.1002 443.9 47.3002 442.6 47.3002 441.1V434.9C47.3002 433.3 46.0002 432.1 44.5002 432.1H37.5002Z" fill="#A5A8B0"/>
<path d="M63.9001 430.9H54.1001V433.9H63.9001V430.9Z" fill="#2F203F"/>
<path d="M83.1001 438H54.1001V441H83.1001V438Z" fill="#2F203F"/>
<path d="M42.8999 418L37.3999 412.5L39.4999 410.4L42.8999 413.8L51.3999 405.2L53.4999 407.4L42.8999 418Z" fill="#FF0700"/>
<path d="M77.8001 463.3L69.6001 455.1L109.2 415.5C111.1 413.6 114.3 413.6 116.2 415.5L117.4 416.7C119.3 418.6 119.3 421.8 117.4 423.7L77.8001 463.3Z" fill="#F98D00"/>
<path d="M113.008 419.866L108.907 415.765L69.5213 455.15L73.6225 459.251L113.008 419.866Z" fill="#FFD33D"/>
<path d="M69.5999 455.1L64.3999 468.7L77.7999 463.3L69.5999 455.1Z" fill="#F4A56E"/>
<path d="M72.7263 451.983L69.4736 455.235L77.676 463.438L80.9287 460.185L72.7263 451.983Z" fill="#F6FFDE"/>
<path d="M109.029 415.609L105.069 419.568L113.271 427.771L117.231 423.811L109.029 415.609Z" fill="#F6FFDE"/>
<path d="M606.1 499.9H529.6C526 499.9 523 497 523 493.3V393.6C523 390 525.9 387 529.6 387H606.1C609.7 387 612.7 389.9 612.7 393.6V493.3C612.7 496.9 609.7 499.9 606.1 499.9Z" fill="#EA571E"/>
<path d="M529.6 499.9C526 499.9 523 497 523 493.3V393.6C523 390 525.9 387 529.6 387H531.3V499.8H529.6V499.9Z" fill="#E9152A"/>
<path d="M534.5 394.6H529.7V492.5H534.5V394.6Z" fill="#D21325"/>
<path d="M579.9 385V416.3L591.8 409.8L603.3 416.3V385H579.9Z" fill="#5D657D"/>
<path d="M589.7 462.4H589L578.5 429.8H578.9C580.7 429.8 582.2 428.3 582.2 426.5C582.2 424.7 580.7 423.2 578.9 423.2H571.8H564.7C562.9 423.2 561.4 424.7 561.4 426.5C561.4 428.3 562.9 429.8 564.7 429.8H565.1L554.6 462.4H554C552.3 462.4 551 463.8 551 465.4C551 467.1 552.4 468.4 554 468.4H562.1C563.8 468.4 565.1 467 565.1 465.4C565.1 463.8 563.7 462.4 562.1 462.4H561.4L564 454.5H571.8H579.6L582.2 462.4H581.5C579.8 462.4 578.5 463.8 578.5 465.4C578.5 467 579.9 468.4 581.5 468.4H589.6C591.3 468.4 592.6 467 592.6 465.4C592.7 463.8 591.4 462.4 589.7 462.4ZM571.8 449.5H565.2L571.8 430.5L578.4 449.5H571.8Z" fill="#E9D315"/>
<path d="M516.3 167.2H502V234.4H516.3V167.2Z" fill="#FC614A"/>
<path d="M501.9 142.5H491.3V234.4H501.9V142.5Z" fill="#3E94C7"/>
<path d="M493.2 159.6H481.1V234.3H493.2V159.6Z" fill="#FF994D"/>
<path d="M481.3 118.7H469V234.3H481.3V118.7Z" fill="#4F89AE"/>
<path d="M449.079 156.897L438.341 154.087L418.06 231.576L428.798 234.386L449.079 156.897Z" fill="#215976"/>
<path d="M468.973 144.643L451.298 142.541L440.645 232.11L458.321 234.212L468.973 144.643Z" fill="#FD5637"/>
<path d="M516.3 167.2H502V175.8H516.3V167.2Z" fill="#FFA362"/>
<path d="M516.3 224.4H502V234.3H516.3V224.4Z" fill="#FFA362"/>
<path d="M509.1 186.5H509.2C511.1 186.5 512.6 185 512.6 183.1C512.6 181.2 511.1 179.7 509.2 179.7H509.1C507.2 179.7 505.7 181.2 505.7 183.1C505.6 184.9 507.2 186.5 509.1 186.5Z" fill="#F9FFFF"/>
<path d="M493.2 159.6H481.1V164.8H493.2V159.6Z" fill="#FF4E2E"/>
<path d="M493.2 228H481.1V234.2H493.2V228Z" fill="#FF4E2E"/>
<path d="M481.3 118.7H469V125.9H481.3V118.7Z" fill="#294962"/>
<path d="M481.3 226.2H469V234.3H481.3V226.2Z" fill="#294962"/>
<path d="M479.6 146.6H470.8V151.1H479.6V146.6Z" fill="#FCFAF6"/>
<path d="M479.6 155.1H470.8V159.6H479.6V155.1Z" fill="#FCFAF6"/>
<path d="M479.6 162.2H470.8V166.7H479.6V162.2Z" fill="#FCFAF6"/>
<path d="M479.6 169.4H470.8V173.9H479.6V169.4Z" fill="#FCFAF6"/>
<path d="M468.959 144.668L451.283 142.565L449.854 154.581L467.53 156.683L468.959 144.668Z" fill="#FFA25B"/>
<path d="M461.55 160.369L454.896 159.578L448.377 214.392L455.03 215.183L461.55 160.369Z" fill="#F6FFFF"/>
<path d="M459.762 221.968L442.086 219.866L440.657 231.882L458.333 233.984L459.762 221.968Z" fill="#FFA25B"/>
<path d="M449.067 156.895L438.329 154.085L436.657 160.47L447.396 163.28L449.067 156.895Z" fill="#3089BC"/>
<path d="M430.46 228.102L419.722 225.291L418.051 231.676L428.789 234.486L430.46 228.102Z" fill="#3089BC"/>
<path d="M387.3 141.8H263V306.9H387.3V141.8Z" fill="#0072C0"/>
<path d="M374.1 130H249.8V295.1H374.1V130Z" fill="#E7E7E7"/>
<path d="M366.5 295.1H230V275.2H353.9C353.9 275.2 353.9 277.5 353.9 284C353.8 295.1 366.5 295.1 366.5 295.1Z" fill="#00ADE5"/>
<path d="M268.7 153.9H266.4C260.6 153.9 255.8 149.1 255.8 143.3V140.4H261.8V143.3C261.8 145.8 263.9 147.9 266.4 147.9H268.7C271.2 147.9 273.3 145.8 273.3 143.3V124.7C273.3 122.2 271.2 120.1 268.7 120.1H266.4C263.9 120.1 261.8 122.2 261.8 124.7V129.9H255.8V124.7C255.8 118.9 260.6 114.1 266.4 114.1H268.7C274.5 114.1 279.3 118.9 279.3 124.7V143.3C279.3 149.1 274.5 153.9 268.7 153.9Z" fill="#0072C0"/>
<path d="M311.6 219.1C286.2 219.1 265.5 202.9 265.5 183C265.5 163.1 286.2 146.9 311.6 146.9C337 146.9 357.7 163.1 357.7 183C357.7 191.2 354.1 199.3 347.5 205.7L343.3 201.4C348.8 196.1 351.6 189.7 351.6 183C351.6 166.4 333.6 152.9 311.5 152.9C289.4 152.9 271.4 166.4 271.4 183C271.4 199.6 289.4 213.1 311.5 213.1C318 213.1 324.2 212 329.9 209.7L332.1 215.3C325.8 217.8 318.8 219.1 311.6 219.1Z" fill="#FF250C"/>
<path d="M308.6 182.3C308.6 183.6 308.4 184.7 308 185.7C307.6 186.7 307 187.5 306.2 188.2C305.4 188.9 304.5 189.4 303.4 189.8C302.3 190.2 301.1 190.3 299.8 190.3C299.1 190.3 298.4 190.2 297.7 190.1C297 190 296.4 189.9 295.9 189.7C295.4 189.5 295 189.4 294.6 189.2C294.3 189.1 294.1 188.9 294 188.8C293.9 188.7 293.8 188.6 293.8 188.6C293.8 188.5 293.7 188.4 293.7 188.3C293.7 188.2 293.6 188.1 293.6 187.9C293.6 187.7 293.6 187.5 293.6 187.3C293.6 187.1 293.6 186.9 293.6 186.7C293.6 186.5 293.7 186.4 293.7 186.3C293.7 186.2 293.8 186.1 293.9 186.1C294 186.1 294 186 294.1 186C294.2 186 294.4 186.1 294.7 186.2C295 186.4 295.3 186.5 295.7 186.7C296.1 186.9 296.7 187 297.3 187.2C297.9 187.4 298.7 187.4 299.6 187.4C300.4 187.4 301.2 187.3 301.9 187.1C302.6 186.9 303.2 186.6 303.7 186.2C304.2 185.8 304.6 185.3 304.9 184.6C305.2 184 305.3 183.2 305.3 182.3C305.3 181.5 305.2 180.9 304.9 180.3C304.7 179.7 304.3 179.2 303.8 178.8C303.3 178.4 302.7 178.1 301.9 177.9C301.1 177.7 300.2 177.6 299.2 177.6C298.4 177.6 297.8 177.6 297.3 177.7C296.8 177.8 296.3 177.8 295.8 177.8C295.5 177.8 295.2 177.7 295.1 177.6C295 177.5 294.9 177.1 294.9 176.7V167C294.9 166.6 295 166.3 295.2 166.1C295.4 165.9 295.7 165.8 296 165.8H306.6C306.7 165.8 306.8 165.8 306.9 165.9C307 166 307.1 166 307.1 166.1C307.2 166.2 307.2 166.4 307.2 166.5C307.2 166.7 307.2 166.9 307.2 167.1C307.2 167.5 307.1 167.9 307 168.1C306.9 168.3 306.7 168.5 306.5 168.5H297.9V175.2C298.3 175.1 298.7 175.1 299.2 175.1C299.6 175.1 300.1 175.1 300.7 175.1C302 175.1 303.2 175.3 304.2 175.6C305.2 175.9 306 176.4 306.7 177C307.4 177.6 307.9 178.3 308.2 179.2C308.5 180.1 308.6 181.2 308.6 182.3Z" fill="#FF250C"/>
<path d="M330.1 176.2H313.2V179.3H330.1V176.2Z" fill="#FF250C"/>
<path d="M320.103 169.288V186.188H323.203V169.288H320.103Z" fill="#FF250C"/>
<path d="M359.2 229.9H289.5V235.9H359.2V229.9Z" fill="#8A8A8A"/>
<path d="M282 229.9H275.8V235.9H282V229.9Z" fill="#8A8A8A"/>
<path d="M359.1 242.6H262.1V248.6H359.1V242.6Z" fill="#8A8A8A"/>
<path d="M346.8 255.4H269.7V261.4H346.8V255.4Z" fill="#8A8A8A"/>
<path d="M401.3 293.6C401.3 293.6 373.1 270.9 373.1 271.7C373.1 272.5 366.5 302.1 366.5 302.1L376.2 297.5L383.6 318.8L397.6 313.9L389.6 293.6H401.3Z" fill="#244455"/>
<path d="M216.54 281.432L207.067 299.611L278.543 336.857L288.016 318.677L216.54 281.432Z" fill="#5388B1"/>
<path d="M218.375 288.879L211.536 302.004L215.793 304.222L222.632 291.097L218.375 288.879Z" fill="#CFDFE4"/>
<path d="M224.076 296.965L219.363 306.011L223.619 308.229L228.333 299.183L224.076 296.965Z" fill="#CFDFE4"/>
<path d="M234.038 297.04L227.199 310.165L231.455 312.383L238.294 299.258L234.038 297.04Z" fill="#CFDFE4"/>
<path d="M239.739 305.127L235.026 314.172L239.283 316.39L243.996 307.345L239.739 305.127Z" fill="#CFDFE4"/>
<path d="M249.613 305.157L242.773 318.281L247.03 320.499L253.869 307.375L249.613 305.157Z" fill="#CFDFE4"/>
<path d="M255.314 313.243L250.6 322.288L254.857 324.506L259.57 315.461L255.314 313.243Z" fill="#CFDFE4"/>
<path d="M275 327.6C277.264 327.6 279.1 325.765 279.1 323.5C279.1 321.236 277.264 319.4 275 319.4C272.736 319.4 270.9 321.236 270.9 323.5C270.9 325.765 272.736 327.6 275 327.6Z" fill="#CFDFE4"/>
<path d="M310.1 300.6L300.1 311.8C298.4 313.8 295.4 313.9 293.4 312.2L229.9 256L246.1 237.7L309.6 294C311.7 295.7 311.8 298.7 310.1 300.6Z" fill="#FF816A"/>
<path d="M246.204 237.555L242.29 241.971L304.033 296.693L307.947 292.277L246.204 237.555Z" fill="#FFA28D"/>
<path d="M234.473 250.879L229.962 255.968L292.005 310.955L296.515 305.866L234.473 250.879Z" fill="#FA4F3F"/>
<path d="M310.1 300.6L300.1 311.8C298.4 313.8 295.4 313.9 293.4 312.2L291.1 310.1L307.3 291.8L309.6 293.9C311.7 295.7 311.8 298.7 310.1 300.6Z" fill="#244856"/>
<path d="M304.832 289.6L288.582 307.936L291.126 310.191L307.377 291.855L304.832 289.6Z" fill="white"/>
<path d="M246.2 237.6L220.8 229.4L229.9 256L238.7 253.4V245.6H246.2V237.6Z" fill="#ECC996"/>
<path d="M226.9 231.4L220.8 229.4L223.2 236.2H226.9V231.4Z" fill="black"/>
<defs>
<linearGradient id="paint0_linear_544_441" x1="133.3" y1="438.52" x2="496.216" y2="173.896" gradientUnits="userSpaceOnUse">
<stop stop-color="white" stop-opacity="0.1"/>
<stop offset="1" stop-color="white" stop-opacity="0.5"/>
</linearGradient>
<linearGradient id="paint1_linear_544_441" x1="141.739" y1="156.489" x2="435.538" y2="434.638" gradientUnits="userSpaceOnUse">
<stop stop-color="white" stop-opacity="0.5"/>
<stop offset="1" stop-color="white" stop-opacity="0.2"/>
</linearGradient>
<linearGradient id="paint2_linear_544_441" x1="404.434" y1="303.398" x2="243.131" y2="514.004" gradientUnits="userSpaceOnUse">
<stop stop-color="white" stop-opacity="0.1"/>
<stop offset="1" stop-color="white" stop-opacity="0.5"/>
</linearGradient>
<linearGradient id="paint3_linear_544_441" x1="75.6633" y1="421.063" x2="564.72" y2="167.753" gradientUnits="userSpaceOnUse">
<stop stop-color="white" stop-opacity="0.7"/>
<stop offset="1" stop-color="white"/>
</linearGradient>
</defs>
</svg>
