<svg width="621" height="599" viewBox="0 0 621 599" fill="none" xmlns="http://www.w3.org/2000/svg">
<path d="M307.5 543C245.4 543 187 518.9 143.1 475.2C99.2 431.5 75 373.3 75 311.5C75 249.6 99.2 191.5 143.1 147.8C187 104.1 245.4 80 307.5 80C369.6 80 428 104.1 471.9 147.8C515.8 191.5 540 249.7 540 311.5C540 373.3 515.8 431.5 471.9 475.2C428 518.9 369.6 543 307.5 543ZM307.5 112C196.9 112 107 201.5 107 311.5C107 421.5 196.9 511 307.5 511C418.1 511 508 421.5 508 311.5C508 201.5 418.1 112 307.5 112Z" fill="url(#paint0_linear_514_424)"/>
<path d="M306 472C394.366 472 466 400.366 466 312C466 223.634 394.366 152 306 152C217.634 152 146 223.634 146 312C146 400.366 217.634 472 306 472Z" fill="url(#paint1_linear_514_424)"/>
<path d="M327 517C221.6 517 139 467.6 139 404.5C139 341.4 221.6 292 327 292C432.4 292 515 341.4 515 404.5C515 467.6 432.4 517 327 517ZM327 328C284.6 328 245 337 215.5 353.4C189.7 367.7 175 386.3 175 404.5C175 422.6 189.8 441.3 215.5 455.6C245 472 284.6 481 327 481C369.4 481 409 472 438.5 455.6C464.3 441.3 479 422.7 479 404.5C479 386.4 464.2 367.7 438.5 353.4C409 337 369.4 328 327 328Z" fill="url(#paint2_linear_514_424)"/>
<path d="M320.1 560.4C317.9 560.4 316.1 558.7 316.1 556.5C316.1 554.3 317.8 552.5 320 552.4C325.6 552.3 331.2 552 336.7 551.6C338.9 551.4 340.8 553.1 341 555.3C341.2 557.5 339.5 559.4 337.3 559.6C331.6 560 325.8 560.3 320.1 560.4ZM301.1 560.1C301 560.1 301 560.1 300.9 560.1C295.2 559.8 289.4 559.3 283.7 558.7C281.5 558.5 279.9 556.5 280.2 554.3C280.4 552.1 282.4 550.5 284.6 550.8C290.1 551.4 295.8 551.9 301.3 552.2C303.5 552.3 305.2 554.2 305.1 556.4C305 558.4 303.2 560.1 301.1 560.1ZM355.9 557.5C353.9 557.5 352.2 556.1 351.9 554.1C351.6 551.9 353.1 549.9 355.3 549.6C360.8 548.8 366.3 547.8 371.8 546.7C374 546.2 376.1 547.6 376.5 549.8C376.9 552 375.6 554.1 373.4 554.5C367.8 555.7 362.1 556.7 356.4 557.5C356.3 557.5 356.1 557.5 355.9 557.5ZM265.3 556C265.1 556 264.8 556 264.6 555.9C259 554.9 253.3 553.7 247.7 552.4C245.6 551.9 244.2 549.7 244.7 547.6C245.2 545.5 247.4 544.1 249.5 544.6C254.9 545.9 260.4 547 265.9 548C268.1 548.4 269.5 550.5 269.1 552.6C268.9 554.6 267.2 556 265.3 556ZM391.1 550C389.4 550 387.8 548.8 387.3 547.1C386.7 545 387.9 542.8 390.1 542.2C395.4 540.7 400.8 539 406 537.2C408.1 536.5 410.4 537.6 411.1 539.7C411.8 541.8 410.7 544.1 408.6 544.8C403.2 546.7 397.7 548.4 392.2 550C391.8 550 391.4 550 391.1 550ZM230.4 547.5C230 547.5 229.6 547.4 229.2 547.3C223.7 545.6 218.3 543.7 212.9 541.7C210.8 540.9 209.8 538.6 210.6 536.5C211.4 534.4 213.7 533.4 215.8 534.2C221 536.2 226.3 538 231.6 539.7C233.7 540.4 234.9 542.6 234.2 544.7C233.7 546.4 232.1 547.5 230.4 547.5ZM424.9 538C423.4 538 421.9 537.1 421.2 535.6C420.3 533.6 421.3 531.2 423.3 530.3C428.4 528.1 433.5 525.7 438.4 523.2C440.4 522.2 442.8 523 443.8 525C444.8 527 444 529.4 442 530.4C436.9 533 431.7 535.4 426.4 537.7C426 537.9 425.5 538 424.9 538ZM196.8 534.6C196.2 534.6 195.7 534.5 195.1 534.2C189.9 531.8 184.7 529.2 179.7 526.5C177.8 525.5 177 523 178.1 521.1C179.1 519.2 181.6 518.4 183.5 519.5C188.4 522.1 193.5 524.6 198.5 526.9C200.5 527.8 201.4 530.2 200.5 532.2C199.8 533.7 198.3 534.6 196.8 534.6ZM456.9 521.6C455.5 521.6 454.2 520.9 453.5 519.7C452.4 517.8 453 515.3 454.9 514.2C459.7 511.3 464.4 508.3 469 505.1C470.8 503.8 473.3 504.3 474.6 506.1C475.9 507.9 475.4 510.4 473.6 511.7C468.9 514.9 464 518.1 459.1 521C458.3 521.4 457.6 521.6 456.9 521.6ZM165.1 517.5C164.4 517.5 163.6 517.3 163 516.9C158.1 513.9 153.3 510.6 148.7 507.3C146.9 506 146.5 503.5 147.8 501.7C149.1 499.9 151.6 499.5 153.4 500.8C157.9 504 162.6 507.2 167.3 510.1C169.2 511.3 169.7 513.7 168.6 515.6C167.8 516.9 166.5 517.5 165.1 517.5ZM486.4 501C485.2 501 484.1 500.5 483.3 499.5C481.9 497.8 482.2 495.3 483.9 493.9C488.2 490.4 492.5 486.7 496.6 483C498.2 481.5 500.8 481.6 502.3 483.2C503.8 484.8 503.7 487.4 502.1 488.9C497.9 492.8 493.5 496.5 489 500.1C488.2 500.8 487.3 501 486.4 501ZM135.9 496.4C135 496.4 134.1 496.1 133.4 495.5C129 491.8 124.6 488 120.4 484.1C118.8 482.6 118.7 480.1 120.2 478.4C121.7 476.8 124.2 476.7 125.9 478.2C130 482 134.2 485.7 138.5 489.3C140.2 490.7 140.4 493.2 139 494.9C138.2 495.9 137.1 496.4 135.9 496.4ZM512.8 476.6C511.8 476.6 510.8 476.2 510.1 475.5C508.5 474 508.4 471.5 509.9 469.8C513.7 465.7 517.4 461.5 520.9 457.2C522.3 455.5 524.8 455.2 526.5 456.6C528.2 458 528.5 460.5 527.1 462.2C523.5 466.6 519.6 471 515.7 475.2C515 476.2 513.9 476.6 512.8 476.6ZM109.8 471.7C108.7 471.7 107.7 471.3 106.9 470.4C103 466.2 99.1998 461.8 95.5998 457.4C94.1998 455.7 94.4998 453.2 96.1998 451.8C97.8998 450.4 100.4 450.7 101.8 452.4C105.3 456.7 109 461 112.8 465C114.3 466.6 114.2 469.2 112.6 470.7C111.7 471.4 110.8 471.7 109.8 471.7ZM535.5 448.7C534.7 448.7 533.9 448.5 533.2 448C531.4 446.7 531 444.2 532.2 442.4C535.4 437.8 538.5 433.1 541.3 428.4C542.4 426.5 544.9 425.9 546.8 427C548.7 428.1 549.3 430.6 548.2 432.5C545.2 437.4 542.1 442.3 538.8 447C538 448.1 536.8 448.7 535.5 448.7ZM87.1998 443.7C85.8998 443.7 84.6998 443.1 83.8998 442C80.5998 437.3 77.3998 432.4 74.3998 427.6C73.1998 425.7 73.7998 423.3 75.6998 422.1C77.5998 420.9 79.9998 421.5 81.1998 423.4C84.0998 428.1 87.1998 432.8 90.3998 437.4C91.6998 439.2 91.1998 441.7 89.3998 443C88.7998 443.5 87.9998 443.7 87.1998 443.7ZM554 417.9C553.4 417.9 552.8 417.8 552.2 417.5C550.2 416.5 549.4 414.1 550.4 412.1C552.9 407.1 555.2 402 557.4 396.9C558.3 394.9 560.6 393.9 562.6 394.8C564.6 395.7 565.6 398 564.7 400C562.5 405.3 560.1 410.6 557.5 415.7C556.9 417.1 555.5 417.9 554 417.9ZM68.5998 412.9C67.0998 412.9 65.6998 412.1 64.9998 410.7C62.3998 405.6 59.8998 400.3 57.5998 395.1C56.6998 393.1 57.6998 390.7 59.6998 389.8C61.6998 388.9 64.0998 389.9 64.9998 391.9C67.1998 397 69.5998 402.1 72.0998 407C73.0998 409 72.2998 411.4 70.3998 412.4C69.7998 412.8 69.1998 412.9 68.5998 412.9ZM567.7 384.6C567.3 384.6 566.9 384.5 566.4 384.4C564.3 383.7 563.2 381.4 563.9 379.4C565.6 374.1 567.2 368.7 568.6 363.4C569.1 361.3 571.3 360 573.5 360.5C575.6 361 576.9 363.2 576.4 365.4C575 371 573.4 376.5 571.6 382C571 383.5 569.4 384.6 567.7 384.6ZM54.3998 379.9C52.6998 379.9 51.1998 378.9 50.5998 377.2C48.6998 371.8 46.9998 366.2 45.4998 360.7C44.8998 358.6 46.1998 356.4 48.2998 355.8C50.3998 355.2 52.5998 356.5 53.1998 358.6C54.6998 363.9 56.2998 369.3 58.0998 374.6C58.7998 376.7 57.6998 379 55.5998 379.7C55.2998 379.8 54.8998 379.9 54.3998 379.9ZM576.5 349.7C576.3 349.7 576 349.7 575.8 349.6C573.6 349.2 572.2 347.2 572.5 345C573.5 339.5 574.2 334 574.8 328.4C575 326.2 577 324.6 579.2 324.8C581.4 325 583 327 582.8 329.2C582.2 334.9 581.4 340.7 580.4 346.3C580.1 348.4 578.4 349.7 576.5 349.7ZM45.0998 345.1C43.1998 345.1 41.4998 343.8 41.1998 341.8C40.0998 336.2 39.1998 330.4 38.5998 324.8C38.2998 322.6 39.8998 320.6 42.0998 320.4C44.2998 320.1 46.2998 321.7 46.4998 323.9C47.1998 329.4 47.9998 334.9 49.0998 340.4C49.4998 342.6 48.0998 344.7 45.8998 345.1C45.5998 345.1 45.3998 345.1 45.0998 345.1ZM580 313.9C577.7 313.8 575.9 312 576 309.8C576.1 307.8 576.1 305.7 576.1 303.6C576.1 300.1 576 296.5 575.9 293C575.8 290.8 577.5 288.9 579.7 288.8C581.9 288.7 583.8 290.4 583.9 292.6C584.1 296.2 584.1 299.9 584.1 303.5C584.1 305.6 584.1 307.8 584 309.9C583.9 312.2 582.2 313.9 580 313.9ZM40.9998 309.4C38.8998 309.4 37.0998 307.7 36.9998 305.6C36.8998 302.2 36.7998 298.7 36.7998 295.3C36.7998 293 36.7998 290.7 36.8998 288.4C36.9998 286.2 38.7998 284.5 40.9998 284.5C43.1998 284.6 44.8998 286.4 44.8998 288.6C44.7998 290.8 44.7998 293.1 44.7998 295.3C44.7998 298.6 44.8998 302 44.9998 305.3C45.0998 307.5 43.3998 309.4 41.1998 309.5C41.0998 309.4 41.0998 309.4 40.9998 309.4ZM578.3 278C576.3 278 574.6 276.5 574.3 274.5C573.6 269 572.8 263.4 571.7 258C571.3 255.8 572.7 253.7 574.9 253.3C577.1 252.9 579.2 254.3 579.6 256.5C580.7 262.1 581.6 267.9 582.3 273.5C582.6 275.7 581 277.7 578.8 278C578.6 278 578.4 278 578.3 278ZM42.1998 273.5C42.0998 273.5 41.8998 273.5 41.7998 273.5C39.5998 273.3 37.9998 271.3 38.1998 269.1C38.7998 263.4 39.5998 257.7 40.5998 252C40.9998 249.8 43.0998 248.4 45.1998 248.8C47.3998 249.2 48.7998 251.3 48.3998 253.4C47.3998 258.9 46.5998 264.5 46.0998 270C45.8998 272 44.1998 273.5 42.1998 273.5ZM571.3 242.8C569.5 242.8 567.9 241.6 567.4 239.9C565.9 234.6 564.3 229.2 562.4 223.9C561.7 221.8 562.8 219.5 564.9 218.8C567 218.1 569.3 219.2 570 221.3C571.9 226.7 573.6 232.3 575.1 237.8C575.7 239.9 574.4 242.1 572.3 242.7C572 242.7 571.7 242.8 571.3 242.8ZM48.4998 238.1C48.1998 238.1 47.7998 238.1 47.4998 238C45.3998 237.5 44.0998 235.3 44.5998 233.1C45.9998 227.5 47.6998 222 49.4998 216.5C50.1998 214.4 52.4998 213.3 54.5998 214C56.6998 214.7 57.7998 217 57.0998 219.1C55.3998 224.4 53.7998 229.8 52.3998 235.1C51.8998 236.9 50.2998 238.1 48.4998 238.1ZM559.4 208.9C557.9 208.9 556.4 208 555.7 206.5C553.5 201.4 551.1 196.3 548.5 191.4C547.5 189.4 548.3 187 550.2 186C552.2 185 554.6 185.8 555.6 187.7C558.2 192.8 560.7 198 563 203.3C563.9 205.3 563 207.7 560.9 208.6C560.4 208.8 559.9 208.9 559.4 208.9ZM59.9998 204C59.4998 204 58.9998 203.9 58.4998 203.7C56.4998 202.8 55.4998 200.5 56.3998 198.5C58.5998 193.2 61.0998 187.9 63.6998 182.8C64.6998 180.8 67.0998 180 69.0998 181C71.0998 182 71.8998 184.4 70.8998 186.4C68.3998 191.4 65.9998 196.5 63.8998 201.6C62.9998 203.1 61.5998 204 59.9998 204ZM542.7 177C541.4 177 540 176.3 539.3 175.1C536.4 170.4 533.3 165.7 530.1 161.1C528.8 159.3 529.3 156.8 531.1 155.5C532.9 154.2 535.4 154.7 536.7 156.5C540 161.2 543.2 166 546.2 170.9C547.4 172.8 546.8 175.2 544.9 176.4C544.2 176.8 543.4 177 542.7 177ZM76.3998 172C75.6998 172 74.9998 171.8 74.2998 171.4C72.3998 170.3 71.7998 167.8 72.9998 165.9C75.9998 161 79.1998 156.1 82.4998 151.4C83.7998 149.6 86.2998 149.2 88.0998 150.4C89.8998 151.7 90.2998 154.2 89.0998 156C85.8998 160.5 82.7998 165.3 79.8998 170C78.9998 171.3 77.6998 172 76.3998 172ZM521.9 147.6C520.7 147.6 519.6 147.1 518.8 146.1C515.3 141.8 511.6 137.6 507.8 133.5C506.3 131.9 506.4 129.4 508 127.8C509.6 126.2 512.1 126.4 513.7 128C517.6 132.2 521.4 136.6 525.1 141C526.5 142.7 526.2 145.2 524.5 146.6C523.7 147.3 522.8 147.6 521.9 147.6ZM97.1998 142.7C96.2998 142.7 95.3998 142.4 94.6998 141.8C92.9998 140.4 92.7998 137.9 94.1998 136.2C97.7998 131.8 101.7 127.4 105.6 123.3C107.1 121.7 109.6 121.6 111.3 123.1C112.9 124.6 113 127.1 111.5 128.8C107.7 132.8 104 137.1 100.4 141.3C99.4998 142.2 98.2998 142.7 97.1998 142.7ZM497.3 121.4C496.3 121.4 495.3 121 494.6 120.3C490.5 116.5 486.3 112.8 482 109.2C480.3 107.8 480.1 105.3 481.5 103.6C482.9 101.9 485.4 101.7 487.1 103.1C491.5 106.7 495.9 110.6 500.1 114.5C501.7 116 501.8 118.5 500.3 120.2C499.4 121 498.3 121.4 497.3 121.4ZM122 116.6C120.9 116.6 119.8 116.2 119 115.3C117.5 113.7 117.6 111.1 119.3 109.6C123.5 105.7 127.9 102 132.4 98.4001C134.1 97.0001 136.6 97.3001 138 99.0001C139.4 100.7 139.1 103.2 137.4 104.6C133.1 108.1 128.8 111.7 124.7 115.5C123.9 116.3 123 116.6 122 116.6ZM469.4 98.6001C468.6 98.6001 467.8 98.4001 467.1 97.9001C462.6 94.7001 457.9 91.5001 453.2 88.6001C451.3 87.4001 450.8 85.0001 451.9 83.1001C453.1 81.2001 455.5 80.7001 457.4 81.8001C462.3 84.8001 467.1 88.1001 471.8 91.4001C473.6 92.7001 474 95.2001 472.7 97.0001C471.9 98.0001 470.6 98.6001 469.4 98.6001ZM150.2 94.3001C148.9 94.3001 147.7 93.7001 146.9 92.6001C145.6 90.8001 146.1 88.3001 147.9 87.0001C152.6 83.8001 157.5 80.6001 162.4 77.7001C164.3 76.6001 166.8 77.2001 167.9 79.1001C169 81.0001 168.4 83.5001 166.5 84.6001C161.7 87.5001 157 90.5001 152.4 93.6001C151.7 94.0001 150.9 94.3001 150.2 94.3001ZM438.8 79.7001C438.2 79.7001 437.5 79.5001 436.9 79.2001C432 76.6001 426.9 74.1001 421.9 71.8001C419.9 70.9001 419 68.5001 419.9 66.5001C420.8 64.5001 423.2 63.6001 425.2 64.5001C430.4 66.9001 435.6 69.4001 440.7 72.1001C442.6 73.1001 443.4 75.6001 442.4 77.5001C441.6 78.9001 440.2 79.7001 438.8 79.7001ZM181.1 75.9001C179.6 75.9001 178.2 75.1001 177.5 73.7001C176.5 71.7001 177.3 69.3001 179.3 68.3001C184.4 65.7001 189.7 63.3001 194.9 61.0001C196.9 60.1001 199.3 61.1001 200.2 63.1001C201.1 65.1001 200.1 67.5001 198.1 68.4001C193 70.6001 187.9 73.0001 182.9 75.5001C182.3 75.8001 181.7 75.9001 181.1 75.9001ZM406 64.8001C405.5 64.8001 405.1 64.7001 404.6 64.5001C399.4 62.5001 394.1 60.7001 388.8 59.1001C386.7 58.4001 385.5 56.2001 386.2 54.1001C386.9 52.0001 389.1 50.8001 391.2 51.5001C396.7 53.2001 402.2 55.1001 407.5 57.1001C409.6 57.9001 410.6 60.2001 409.8 62.3001C409.2 63.9001 407.6 64.8001 406 64.8001ZM214.2 61.9001C212.5 61.9001 211 60.9001 210.4 59.2001C209.7 57.1001 210.8 54.8001 212.9 54.1001C218.3 52.2001 223.8 50.5001 229.3 48.9001C231.4 48.3001 233.6 49.5001 234.2 51.7001C234.8 53.8001 233.6 56.0001 231.4 56.6001C226.1 58.1001 220.7 59.8001 215.4 61.6001C215.1 61.8001 214.6 61.9001 214.2 61.9001ZM371.6 54.3001C371.3 54.3001 371 54.3001 370.7 54.2001C365.3 52.9001 359.8 51.8001 354.3 50.8001C352.1 50.4001 350.7 48.3001 351.1 46.2001C351.5 44.0001 353.6 42.6001 355.7 43.0001C361.3 44.0001 367 45.2001 372.6 46.5001C374.7 47.0001 376.1 49.2001 375.6 51.3001C375.1 53.1001 373.4 54.3001 371.6 54.3001ZM248.8 52.3001C246.9 52.3001 245.3 51.0001 244.9 49.1001C244.5 46.9001 245.8 44.8001 248 44.4001C253.6 43.2001 259.3 42.2001 265 41.4001C267.2 41.1001 269.2 42.6001 269.5 44.8001C269.8 47.0001 268.3 49.0001 266.1 49.3001C260.6 50.1001 255 51.1001 249.6 52.2001C249.3 52.3001 249.1 52.3001 248.8 52.3001ZM337.3 48.3001C337.1 48.3001 337 48.3001 336.8 48.3001C331.3 47.7001 325.6 47.2001 320.1 46.9001C317.9 46.8001 316.2 44.9001 316.3 42.7001C316.4 40.5001 318.3 38.8001 320.5 38.9001C326.2 39.2001 332 39.7001 337.7 40.3001C339.9 40.5001 341.5 42.5001 341.2 44.7001C341.1 46.8001 339.3 48.3001 337.3 48.3001ZM284.4 47.3001C282.3 47.3001 280.6 45.7001 280.4 43.6001C280.2 41.4001 281.9 39.5001 284.1 39.3001C289.8 38.9001 295.6 38.6001 301.3 38.5001C303.5 38.4001 305.3 40.2001 305.4 42.4001C305.4 44.6001 303.7 46.4001 301.5 46.5001C295.9 46.6001 290.3 46.8001 284.8 47.2001C284.6 47.3001 284.5 47.3001 284.4 47.3001Z" fill="url(#paint3_linear_514_424)"/>
<path d="M313.3 551.2V556.5H324.2L325.7 550.1L313.3 551.2Z" fill="#323558"/>
<path d="M405 551.4V556.7H394.1L392.6 550.3L405 551.4Z" fill="#323558"/>
<path d="M451.8 145.5H350.3C341 145.5 333.5 138 333.5 128.7V41.8C333.5 32.5 341 25 350.3 25H451.8C461.1 25 468.6 32.5 468.6 41.8V128.7C468.7 138 461.2 145.5 451.8 145.5Z" fill="#E0E4FA"/>
<path d="M298.5 276H150.9C141.6 276 134.1 268.5 134.1 259.2V109.5C134.1 100.2 141.6 92.7002 150.9 92.7002H298.4C307.7 92.7002 315.2 100.2 315.2 109.5V259.2C315.3 268.5 307.8 276 298.5 276Z" fill="#DFE4F9"/>
<path d="M578.1 449.3H362.6C353.3 449.3 345.8 441.8 345.8 432.5V174.5C345.8 165.2 353.3 157.7 362.6 157.7H578C587.3 157.7 594.8 165.2 594.8 174.5V432.4C594.9 441.8 587.4 449.3 578.1 449.3Z" fill="#E0E4FA"/>
<path d="M358.2 61.7002H355.2V46.2002H370.8V49.2002H358.2V61.7002Z" fill="#4598E6"/>
<path d="M370.8 127.3H355.2V111.8H358.2V124.3H370.8V127.3Z" fill="#4598E6"/>
<path d="M447.6 127.3H432V124.3H444.6V111.8H447.6V127.3Z" fill="#4598E6"/>
<path d="M447.6 61.7002H444.6V49.2002H432V46.2002H447.6V61.7002Z" fill="#4598E6"/>
<path d="M405.1 121.9H395V124.9H405.1V121.9Z" fill="#4598E6"/>
<path d="M167.5 127.6H164.5V112H180V115H167.5V127.6Z" fill="#4598E6"/>
<path d="M180 219.2H164.5V203.6H167.5V216.2H180V219.2Z" fill="#4598E6"/>
<path d="M284.8 219.2H269.3V216.2H281.8V203.6H284.8V219.2Z" fill="#4598E6"/>
<path d="M284.8 127.6H281.8V115H269.3V112H284.8V127.6Z" fill="#4598E6"/>
<path d="M231.4 213.6H217.9V216.6H231.4V213.6Z" fill="#4598E6"/>
<path d="M389.2 207H386.2V185.7H407.5V188.7H389.2V207Z" fill="#4598E6"/>
<path d="M407.5 335.2H386.2V313.9H389.2V332.2H407.5V335.2Z" fill="#4598E6"/>
<path d="M554.2 335.2H532.9V332.2H551.2V313.9H554.2V335.2Z" fill="#4598E6"/>
<path d="M554.2 207H551.2V188.7H532.9V185.7H554.2V207Z" fill="#4598E6"/>
<path d="M479.7 328.5H460.7V331.5H479.7V328.5Z" fill="#4598E6"/>
<path d="M498.3 365.2H377.3V368.2H498.3V365.2Z" fill="#4598E6"/>
<path d="M436.8 382.4H377.3V385.4H436.8V382.4Z" fill="#4598E6"/>
<path d="M477 399.6H377.3V402.6H477V399.6Z" fill="#4598E6"/>
<path d="M266.7 234.5H182.7V237.5H266.7V234.5Z" fill="#4598E6"/>
<path d="M255.1 247.9H194.2V250.9H255.1V247.9Z" fill="#4598E6"/>
<path d="M421.1 78.2002C421.1 78.2002 422.6 91.6002 423.9 96.1002C425.2 100.6 426 110.6 426 110.6H414.2L415.6 78.2002H421.1Z" fill="#EEA886"/>
<path d="M411.8 40.4004C411.8 40.4004 413.3 49.9004 415.3 54.1004C417.3 58.3004 415.7 64.3004 415.7 64.3004L403.2 52.3004L405.7 43.6004L411.8 40.4004Z" fill="#344052"/>
<path d="M375.9 78.2002L377.5 110.6H385.6L386.2 78.2002H375.9Z" fill="#EEA886"/>
<path d="M391.5 51.8004C388 52.7004 377.3 56.0004 375.7 65.8004C374.1 75.6004 374.5 79.5004 377.5 79.6004C380.6 79.7004 385.6 80.1004 385.6 80.1004V110.7H417.6C417.6 110.7 416.1 91.6004 418.8 85.8004C421.5 80.0004 423.4 76.1004 421.6 70.3004C419.8 64.5004 417.2 58.5004 409.8 54.5004C402.4 50.5004 391.5 51.8004 391.5 51.8004Z" fill="#EB4747"/>
<path d="M394.4 41.2002C394.4 41.2002 395.5 49.3002 394.1 51.3002C392.7 53.3002 391.8 55.0002 393.8 57.5002C395.8 60.0002 407.6 67.4002 410.1 64.8002C412.6 62.2002 409.5 56.4002 407.1 54.7002C404.7 53.0002 407 47.2002 407 47.2002L394.4 41.2002Z" fill="#EEA886"/>
<path d="M394.4 42.7002C394.4 42.7002 399.7 51.5002 402.9 51.6002C406.1 51.6002 406.3 49.8002 406.3 49.8002L394.4 42.7002Z" fill="#B48167"/>
<path d="M415.5 26.4C415.5 26.4 416 38.2 413.7 43.3C411.4 48.4 405 55.5 394.1 42.2C383.2 28.9 398.9 22 398.9 22L415.5 26.4Z" fill="#EEA987"/>
<path d="M221.7 177.6L203.5 170.8V144.5C203.5 144.5 213.7 141.5 214.4 138.8C215.1 136.1 215 128.7 215 128.7H223.8H224.6H233.4C233.4 128.7 233.2 136.1 234 138.8C234.8 141.5 244.9 144.5 244.9 144.5V170.8L226.7 177.6H221.7Z" fill="#EEA886"/>
<path d="M222.8 188H190.6C190.6 188 190.6 181.4 187.4 181.4C184.2 181.4 183.2 188 183.2 188H163C163 188 178.1 156.2 185.6 151.8C193.1 147.5 203.3 144.4 203.3 144.4C203.3 144.4 209.9 169.5 223.6 169.5H223.7C237.4 169.5 244.1 144.4 244.1 144.4C244.1 144.4 254.3 147.5 261.8 151.8C269.3 156.1 284.4 188 284.4 188H264.2C264.2 188 263.3 181.4 260 181.4C256.7 181.4 257 188 257 188H224.8H222.8Z" fill="#385369"/>
<path d="M215 130.1C215 130.1 218.8 138.3 223.8 138.3C228.9 138.3 233.5 130.6 233.5 130.6L215 130.1Z" fill="#B48167"/>
<path d="M223.8 134.4C217.5 134.4 212.9 129.5 211.1 122.2C209.3 114.9 209.8 96.7002 209.8 96.7002H224.2H224.6H239C239 96.7002 239.5 114.9 237.7 122.2C235.9 129.5 231.4 134.4 225 134.4H223.8Z" fill="#EEA886"/>
<path d="M224.3 98.9001C216.3 98.9001 213.2 99.9001 212.4 102.7C211.6 105.5 213.1 118 210.9 114.4C208.7 110.8 207.1 104.7 207.1 96.1001C207.1 87.5001 215.7 82.7001 221.7 83.8001C227.8 84.9001 231 85.9001 236 86.4001C240.9 86.9001 243.5 88.9001 242.7 96.7001C241.9 104.5 238.9 114.5 237 114.1C235.6 113.7 238.9 102.5 234.9 100.7C230.8 98.9001 224.3 98.9001 224.3 98.9001Z" fill="#434343"/>
<path d="M209.7 110.3C208.7 107 206.2 104.8 206 107.8C205.7 110.8 208.3 117.1 210.2 118C212 119 209.7 110.3 209.7 110.3Z" fill="#EEA886"/>
<path d="M239.1 110.3C240.1 107 242.6 104.8 242.8 107.8C243.1 110.8 240.5 117.1 238.6 118C236.7 119 239.1 110.3 239.1 110.3Z" fill="#EEA886"/>
<path d="M453.4 220.5C453.4 220.5 425.3 233.8 419.5 236.5C413.7 239.2 412.5 242.1 410.9 246.9C409.4 251.7 387.7 309.8 387.7 309.8H413L419 297.3L418.8 309.8H504L507.1 281.3L517.9 309.8H542.8C542.8 309.8 532.2 252.4 529.3 242.7C526.4 233 523.8 230.7 514.4 227.8C505 224.9 482.1 216.1 482.1 216.1L453.4 220.5Z" fill="#3C4145"/>
<path d="M446.9 223.6L435.2 309.8H466.3L473.9 249.3L491.7 219.7L482.1 216.1L453.4 220.5L446.9 223.6Z" fill="#F5E2D9"/>
<path d="M543.2 405C531.7 405 522.4 395.6 522.4 384.2C522.4 372.7 531.8 363.4 543.2 363.4C554.7 363.4 564 372.8 564 384.2C564 395.6 554.6 405 543.2 405ZM543.2 366.3C533.4 366.3 525.4 374.3 525.4 384.1C525.4 393.9 533.4 401.9 543.2 401.9C553 401.9 561 393.9 561 384.1C561 374.3 553 366.3 543.2 366.3Z" fill="#4598E6"/>
<path d="M541.6 391.9L532.9 383.2L535.1 381.1L541.6 387.6L551.5 377.7L553.6 379.8L541.6 391.9Z" fill="#4598E6"/>
<path d="M456.1 208.8V218.3L453.3 220.5C453.3 220.5 457.8 230.3 462.8 230.3C467.8 230.3 481.8 220 482 216C482.2 212 477.8 203.3 477.8 190.2C477.8 177.1 456.1 208.8 456.1 208.8Z" fill="#EEA886"/>
<path d="M477.7 196C477.7 196 466.8 213 461.2 213.8C455.6 214.6 456.2 210.6 456.2 210.6L477.7 196Z" fill="#B48167"/>
<path d="M443.6 155.8C443.6 155.8 439.3 166.5 439.7 180.5C440.1 194.6 446 211.2 455.2 210.9C464.4 210.6 476.5 201.9 477.7 196.2C478.8 190.6 483 176.8 483 176.8L487 148.2L457.4 145.5L443.6 155.8Z" fill="#EEA886"/>
<path d="M419 297.4V260.7L411.3 309.8H413L419 297.4Z" fill="#2D3133"/>
<path d="M324.6 308.9L293.5 325.7L260.8 277.1L298.2 263.9L324.6 308.9Z" fill="white" stroke="#44465E" stroke-width="2" stroke-miterlimit="10"/>
<path d="M490.5 219.3C490.5 219.3 475.4 240.2 471.8 247C468.2 253.8 462.6 268.2 462.9 280.8C463.2 293.4 465.3 309.8 465.3 309.8H470.4L479.2 256.6L475.3 251.4L485.4 248.2L494.8 220.9L490.5 219.3Z" fill="#51565C"/>
<path d="M460.5 230.4C460.5 230.4 452.3 244 449.4 263.9C446.5 283.8 446.3 309.8 446.3 309.8H456.4C456.4 309.8 458.5 260.7 461.1 247.6C463.8 234.6 462.8 230.3 462.8 230.3H460.5V230.4Z" fill="#D44040"/>
<path d="M341.9 238.4C341.9 238.4 339.1 240 339.4 250.5C339.7 262.4 346.3 267.5 346.3 267.5H366.7C366.7 267.5 369.9 258.2 369.9 251C370 243.8 354.9 233.5 354.9 233.5L341.9 238.4Z" fill="#EEA886"/>
<path d="M366.9 267.5H346.3V272.2H366.9V267.5Z" fill="#E2D2CA"/>
<path d="M320.3 407.9L310.5 552.3H328.6C328.6 552.3 341.2 501.6 341.8 487.7C342.4 473.8 342 462.9 344.7 451.2C347.4 439.5 358.4 414.3 358.4 414.3C358.4 414.3 378.5 475.8 382.6 500.7C386.7 525.6 391.8 552.4 391.8 552.4H406C406 552.4 406 498.2 401.7 473.8C397.4 449.4 390.8 404.9 390.8 404.9L320.3 407.9Z" fill="#292C47"/>
<path d="M346.3 272.2C346.3 272.2 325.5 279.4 322.7 280.4C319.9 281.5 318.4 284.2 317.6 290.2C316.8 296.2 308.8 329.9 308.8 329.9L289.9 309.7L281.9 316.8C281.9 316.8 305.4 351.4 307.6 354.8C309.8 358.2 315.3 356 318.1 350.2C320.9 344.4 327 327.9 327 327.9C327 327.9 326.1 353.3 323.6 369.9C321.1 386.5 318.4 407.3 318.4 407.3C318.4 407.3 325.8 410.2 356.6 410.4C387.4 410.6 393.6 405 393.6 405C393.6 405 385.9 365.2 386.1 351.3C386.3 337.5 389.5 328.5 389.5 328.5C389.5 328.5 398.7 328.8 399.5 319C400.3 309.2 398.3 290.6 397 284.7C395.7 278.8 393.6 278 386.2 276C378.8 274 366.9 272.2 366.9 272.2H346.3Z" fill="#FFDF69"/>
<path d="M393.4 327.9L388.8 303.5L388.2 328.8L393.4 327.9Z" fill="#AB9546"/>
<path d="M131.7 543.7C131.7 543.7 136.9 549.5 138.9 552.5C141 555.5 143.2 559.2 143.2 559.2L131.1 559.7L124.9 550.9L125.2 543.5L131.7 543.7Z" fill="#EEA886"/>
<path d="M157.5 536.2L157.2 542L170.4 556.6L178.8 556.2C178.8 556.2 174 548 170.4 544.3C166.8 540.6 165.6 539.4 165.6 539.4L165.8 534.4L157.5 536.2Z" fill="#EEA886"/>
<path d="M404.4 556L406 560.1V569.7H373.8V565L393.8 555.6L404.4 556Z" fill="#292C47"/>
<path d="M324.4 556L326.2 560.1V569.7H288.4V565L311.9 555.6L324.4 556Z" fill="#292C47"/>
<path d="M118.2 385.2L171.7 376.9C171.7 376.9 184.1 425.3 185.9 430.5C187.7 435.6 188 441.8 186.7 449.4C185.5 457 168.2 537.2 168.2 537.2H152.8C152.8 537.2 161.2 484.7 162.5 477.5C163.7 470.3 168.4 461.1 168.4 454.5C168.4 447.9 149.9 409.4 149.9 409.4L147 409.6L133.2 462.9C133.2 462.9 130.8 520.7 131.6 529.8C132.4 538.8 133.2 544.2 133.2 544.2L120.7 547.1C120.7 547.1 115.4 482.5 115.2 469.2C115 455.9 120.1 447.7 119.9 440.3C119.7 432.9 115.2 404.2 115.2 404.2L118.2 385.2Z" fill="#1D3B54"/>
<path d="M317.6 294.9L312 290.2L295.3 289.2V291.8L310.1 295.9L309.8 299.8L305.2 300.8L304.8 302.6L316.5 301.1L317.6 294.9Z" fill="#EEA886"/>
<path d="M288.6 311L285 302.2L283.4 293.3H280.8V300L278.5 300.2L267.9 288.3L266.4 289.9L274.7 304L284.2 316.5L288.6 311Z" fill="#EEA886"/>
<path d="M136.2 279.8L165.6 282L170 305.1V360L171.7 378.2C171.7 378.2 149.9 384.7 136.2 385.3C122.5 385.9 127 320.5 127 320.5L136.2 279.8Z" fill="#FFBF55"/>
<path d="M165.5 258.8C165.5 258.8 166.7 267.8 168.8 271.9C171 276 169.7 283 169.7 283L153.1 276.8L156.6 267.3L165.5 258.8Z" fill="#0E2D3D"/>
<path d="M158.5 276.3C158.5 276.3 165 279.1 168.3 280.1C171.7 281.2 173.5 282.4 178.5 290.7C183.4 299 193.7 314.1 196.5 317.6C199.3 321.1 199.1 321.8 206.7 324.4C214.3 327 237 334.7 237 334.7L233.2 344.7C233.2 344.7 201.7 335 197.8 333.8C194 332.6 190 329.2 185.8 324.4C181.6 319.6 175.5 314 175.5 314C175.5 314 172.2 324.1 172.1 332.1C171.9 340.1 171.1 364.4 174 378.7C176.9 393 186.9 423.8 186.9 423.8L179.9 425.6C179.9 425.6 171.6 389.5 170 373.3C168.4 357.1 167.1 351.4 167.5 330.8C167.9 310.2 166 291.4 164.3 286.5C162.7 281.7 158.5 276.3 158.5 276.3Z" fill="#285173"/>
<path d="M142.1 260.6C142.1 260.6 142.1 269 142.1 272C142.1 274.9 137.6 274 137 276.6C136.4 279.2 143.3 290.3 153.5 290C163.7 289.7 165.2 282.3 162 278.4C158.8 274.5 156 274.6 156.3 271C156.6 267.5 155.8 262.1 155.8 262.1L142.1 260.6Z" fill="#EEA987"/>
<path d="M142.1 262.1C142.1 262.1 148.8 272.1 151.4 272.5C154 272.9 156.2 271 156.2 271L153.8 265.7L142.1 262.1Z" fill="#B48167"/>
<path d="M166.6 241.2C166.6 241.2 168.4 249.8 166.9 257.6C165.4 265.4 160.5 270.8 156.2 270.9C151.9 271 142.4 264.8 139.8 258.1C137.2 251.4 139 240.1 139 240.1L166.6 241.2Z" fill="#EEA987"/>
<path d="M114.2 365.8L107.7 429.5L130.8 432.9C130.8 432.9 138.2 405.7 139.3 392.6C140.4 379.5 140.8 366.9 140.8 366.9L114.2 365.8Z" fill="#285173"/>
<path d="M129.9 318.9L103.2 369.2L134.1 386.6L163.4 337.4L129.9 318.9Z" fill="#E0CEC7" stroke="#616161" stroke-width="2" stroke-miterlimit="10"/>
<path d="M138.4 274.9C138.4 274.9 128 277.3 123.6 278.1C119.2 278.9 116.3 282.5 113.5 289.9C110.7 297.3 102.8 331.8 101.4 336.6C100 341.4 101.9 346.3 106.6 349.5C111.4 352.7 134.6 365.8 134.6 365.8L141.4 355C141.4 355 118.6 340.5 117.2 339.3C115.8 338.1 116.3 334.7 117.4 332.8C118.5 331 122.8 318.6 122.8 318.6L123.5 328.7L129.4 317.5L144.9 326C144.9 326 144.9 322.8 144.5 309.7C144.1 296.8 138.4 274.9 138.4 274.9Z" fill="#285173"/>
<path d="M140.5 356.6C140.5 356.6 146.1 356.5 149 356.6C151.9 356.7 155 358.6 154 362.5C153.1 366.4 151.5 367.7 149.8 369.4C148.1 371.2 145.4 370.7 143.2 369.4C141 368.1 136.1 363.5 136.1 363.5L140.5 356.6Z" fill="#EEA886"/>
<path d="M236.5 336.1L241 332.9L247.1 329.3L247.5 330.5L244.5 333.7L243 336.9L250.6 338.6L259.9 340.1L259.3 341.7L249.4 340.4L249.9 342L260.8 344.8V346.6L259.7 346.3L259.8 348L249.9 345.2V346.3L253.8 350.6L252.8 351.5L248.7 348.3L241.8 346.8L233.6 343.6L236.5 336.1Z" fill="#EEA886"/>
<path d="M123.8 545.6L122.6 551.8L122.2 557.2L123.8 561.8L123.5 567.6H125.9V558.7H127.9C127.9 558.7 130.4 569.6 135.7 569.6C141 569.6 143.4 569.6 145.5 569.6C147.6 569.6 148.8 567.8 148.8 564.3C148.8 560.8 145.2 558.1 141.8 558.1C138.4 558.1 139.4 558.7 136.7 558.7C132.6 558.7 125.5 551.1 125.2 548C124.9 544.8 123.8 545.6 123.8 545.6Z" fill="#163342"/>
<path d="M157.3 540.5C155 540.5 153.6 545.6 153.6 545.6L153.9 551.6L156 554.1V565.4H158.8V553.9H161C161 553.9 169.3 565.9 173.1 565.9C176.9 565.9 181.9 565.9 184.2 565.9C186.6 565.9 187.2 559.2 183.7 556.8C180.2 554.4 177.1 554.9 172.6 554.9C168.1 554.9 162.3 540.5 157.3 540.5Z" fill="#163342"/>
<path d="M392.6 55.5002C392.6 55.5002 386.7 46.7002 386.5 32.9002C386.3 19.1002 391.5 12.2002 401 12.2002C410.7 12.2002 416.3 15.8002 416.3 25.3002C416.3 29.5002 410 33.8002 404.8 33.8002C399.6 33.8002 398.3 30.9002 395.7 31.1002C393 31.3002 395.4 50.0002 395.1 53.8002C394.8 57.6002 392.6 55.5002 392.6 55.5002Z" fill="#344052"/>
<path d="M438.4 150.4C438.1 145.5 442.6 141.5 448.2 139.6C453.9 137.7 462.7 134.6 474.7 136.2C486.7 137.8 491.9 144.8 491 157.6C490.1 170.4 479.2 190.4 479.2 190.4C479.2 190.4 476.6 180.8 479.1 176.7C481.6 172.6 484 167.4 480.2 165.6C476.4 163.8 470.7 177.8 468.8 177C466.9 176.2 470.4 165.2 469.8 161.4C469.2 157.6 465.3 156.4 457.8 157.7C450.3 159 439.1 162.1 438.4 150.4Z" fill="#E8734D"/>
<path d="M366.2 256.6C369.5 256.3 376 245.3 376.6 237.8C377.2 230.3 373.6 227.6 367.5 225.4C361.4 223.2 352.3 222.1 347.7 225.1C343 228.1 339.4 235 339.9 237.9C340.4 240.7 343.7 239.6 343.8 242.7C343.9 245.8 345.3 250 346.1 246C346.9 242 347.5 239.3 350.6 240C353.7 240.7 353.1 246.4 351.8 248.2C350.5 250 355.8 257.7 366.2 256.6Z" fill="#3A3F47"/>
<path d="M166.5 245.4C169.6 241.9 171.8 237.3 168 232.9C164.2 228.5 163.3 222.4 150.2 223.3C137 224.2 132.4 236.4 131.6 246.1C130.8 255.9 136.8 277.9 140.4 277.2C144 276.5 143.2 263.3 141.8 260.8C140.4 258.3 144.3 257.8 143.2 255.7C142.1 253.6 138.8 251.2 140.9 247.9C143 244.5 146.7 245.7 146.7 248.1C146.7 250.5 147.2 253.6 150.1 252.5C152.8 251.4 162.7 249.7 166.5 245.4Z" fill="#0E2D3D"/>
<path d="M440.6 226.5L430.8 251.3L435 252.7L431.2 260.7L433.2 309.8H435.2L446.9 223.6L440.6 226.5Z" fill="#51565C"/>
<defs>
<linearGradient id="paint0_linear_514_424" x1="133.3" y1="438.52" x2="496.216" y2="173.896" gradientUnits="userSpaceOnUse">
<stop stop-color="white" stop-opacity="0.1"/>
<stop offset="1" stop-color="white" stop-opacity="0.5"/>
</linearGradient>
<linearGradient id="paint1_linear_514_424" x1="141.739" y1="156.489" x2="435.538" y2="434.638" gradientUnits="userSpaceOnUse">
<stop stop-color="white" stop-opacity="0.5"/>
<stop offset="1" stop-color="white" stop-opacity="0.2"/>
</linearGradient>
<linearGradient id="paint2_linear_514_424" x1="404.434" y1="303.398" x2="243.131" y2="514.004" gradientUnits="userSpaceOnUse">
<stop stop-color="white" stop-opacity="0.1"/>
<stop offset="1" stop-color="white" stop-opacity="0.5"/>
</linearGradient>
<linearGradient id="paint3_linear_514_424" x1="75.6633" y1="421.063" x2="564.72" y2="167.753" gradientUnits="userSpaceOnUse">
<stop stop-color="white" stop-opacity="0.7"/>
<stop offset="1" stop-color="white"/>
</linearGradient>
</defs>
</svg>
