<svg width="683" height="667" viewBox="0 0 683 667" fill="none" xmlns="http://www.w3.org/2000/svg">
<ellipse cx="346.445" cy="320.377" rx="216.5" ry="215.5" stroke="url(#paint0_linear_389_527)" stroke-width="32"/>
<circle cx="344.945" cy="320.877" r="160" fill="url(#paint1_linear_389_527)"/>
<ellipse cx="363.945" cy="415.377" rx="170" ry="94.5" transform="rotate(-180 363.945 415.377)" stroke="url(#paint2_linear_389_527)" stroke-width="36"/>
<ellipse cx="341.445" cy="333.376" rx="270" ry="256.5" transform="rotate(-160 341.445 333.376)" stroke="url(#paint3_linear_389_527)" stroke-width="8" stroke-linecap="round" stroke-linejoin="round" stroke-dasharray="0 19"/>
<path d="M132.81 400.572L300.568 346.674C304.159 345.521 305.94 341.503 304.375 338.081L249.637 218.56C248.353 215.75 245.21 214.285 242.22 215.102L70.5889 262.089C66.83 263.12 64.8961 267.264 66.5287 270.79L125.139 397.219C126.477 400.11 129.77 401.55 132.81 400.572Z" fill="#ABC9FF"/>
<path d="M131.239 390.923L307.538 339.132C308.958 338.714 310.487 338.813 311.841 339.408L432.383 392.522C437.473 394.763 437.001 401.876 431.655 403.45L234.028 461.622C232.35 462.116 230.531 461.885 229.037 460.991L129.824 401.496C125.387 398.835 126.25 392.388 131.239 390.923Z" fill="#ABC9FF"/>
<path d="M432.383 391.435L260.367 355.877C255.924 357.165 147.527 387.594 126.945 396.104C127.152 397.724 128.072 399.284 129.776 400.291L229.005 459.003C230.498 459.885 232.319 460.113 233.995 459.625L431.654 402.22C437.001 400.666 437.473 393.648 432.383 391.435Z" fill="#7AA9FF"/>
<path d="M304.375 338.093L71.4669 261.877L70.5889 262.115C66.83 263.146 64.8961 267.289 66.5287 270.814L125.139 397.219C126.477 400.11 129.77 401.55 132.81 400.572L300.567 346.685C301.913 346.253 303.005 345.417 303.762 344.362C304.33 343.57 304.708 342.654 304.865 341.692C304.899 341.478 304.923 341.261 304.935 341.045C304.991 340.064 304.815 339.055 304.375 338.093Z" fill="#7AA9FF"/>
<path fill-rule="evenodd" clip-rule="evenodd" d="M208.923 430.345C209.507 430.696 210.172 430.877 210.845 430.877C211.201 430.877 211.559 430.827 211.908 430.725L373.37 380.919C374.86 380.479 375.844 379.27 375.938 377.761C376.032 376.262 375.216 374.942 373.805 374.321L307.898 345.195C307.087 344.839 306.176 344.779 305.324 345.03L155.521 391.337C154.126 391.748 153.15 392.876 152.973 394.284C152.799 395.67 153.452 396.986 154.676 397.721L208.923 430.345ZM305.507 345.649C305.793 345.563 306.091 345.521 306.384 345.521C306.817 345.521 307.243 345.61 307.643 345.787L373.551 374.913C374.934 375.524 375.362 376.763 375.302 377.72C375.242 378.684 374.655 379.867 373.188 380.302L211.726 430.105C210.893 430.352 209.99 430.239 209.249 429.791L155.002 397.167C153.999 396.564 153.464 395.491 153.606 394.366C153.749 393.216 154.553 392.294 155.705 391.954L305.507 345.649Z" fill="#5187EB"/>
<path fill-rule="evenodd" clip-rule="evenodd" d="M293.362 425.611C294.846 426.448 296.523 426.877 298.211 426.877C299.164 426.877 300.12 426.741 301.045 426.461L348.962 412.036C349.521 411.876 349.906 411.411 349.943 410.855C349.978 410.301 349.659 409.797 349.145 409.576L331.152 400.638C329.462 399.799 327.541 399.648 325.74 400.213L278.925 414.889C278.394 415.044 278.025 415.465 277.956 415.99C277.89 416.51 278.14 417.004 278.61 417.282L293.362 425.611ZM325.932 400.814C326.587 400.609 327.255 400.507 327.923 400.507C328.933 400.507 329.939 400.74 330.866 401.201L348.874 410.145C349.215 410.292 349.322 410.588 349.306 410.816C349.292 411.045 349.148 411.325 348.782 411.434L300.858 425.861C298.466 426.578 295.849 426.288 293.678 425.063L278.932 416.735C278.683 416.588 278.554 416.341 278.589 416.069C278.624 415.792 278.82 415.576 279.115 415.491L325.932 400.814Z" fill="#5187EB"/>
<path d="M141.286 390.598L292.987 341.255C296.235 340.198 297.845 336.521 296.429 333.388L248.056 226.249C246.895 223.676 244.052 222.334 241.348 223.084L86.1445 266.1C82.7453 267.043 80.9965 270.837 82.4728 274.065L134.349 387.53C135.559 390.174 138.537 391.492 141.286 390.598Z" fill="#0B40B3"/>
<path d="M296.429 333.487L87.7253 265.877L86.1445 266.314C82.7453 267.256 80.9965 271.044 82.4728 274.266L134.349 387.536C135.559 390.175 138.537 391.491 141.286 390.599L292.987 341.341C296.235 340.285 297.845 336.615 296.429 333.487Z" fill="#082A74"/>
<path d="M303.778 320.819C292.682 304.669 281.408 288.683 272.066 271.411C266.39 260.919 260.981 249.637 255.822 238.883C255.573 238.362 142.945 270.907 142.945 270.907C143.554 272.895 145.692 278.359 146.363 280.325C147.74 284.361 149.244 288.353 150.856 292.299C154.043 300.105 157.634 307.736 161.503 315.221C169.298 330.301 178.176 344.778 187.079 359.21C196.04 373.739 205.058 388.253 213.092 403.328C214.071 405.166 215.034 407.013 215.981 408.866C216.209 409.311 260.36 395.749 260.655 395.644C266.535 393.527 303.943 381.993 322.98 376.128C327.616 374.7 331.161 373.609 332.9 373.07C334.007 372.727 314.673 336.676 303.778 320.819Z" fill="#EBF2FC"/>
<path opacity="0.32" d="M168.264 281.877C168.126 281.877 168 281.782 167.959 281.634C167.908 281.456 168.004 281.267 168.173 281.215C168.774 281.026 228.435 262.224 247.545 256.889C247.715 256.839 247.89 256.948 247.935 257.128C247.98 257.308 247.877 257.495 247.707 257.542C228.608 262.873 168.956 281.672 168.355 281.861C168.326 281.872 168.295 281.877 168.264 281.877Z" fill="#30294C"/>
<path opacity="0.32" d="M172.265 290.877C172.127 290.877 172 290.782 171.958 290.635C171.909 290.456 172.005 290.268 172.173 290.215C172.774 290.026 232.434 271.225 251.545 265.889C251.715 265.839 251.891 265.947 251.935 266.128C251.98 266.308 251.88 266.495 251.707 266.542C232.607 271.873 172.957 290.673 172.356 290.863C172.325 290.872 172.294 290.877 172.265 290.877Z" fill="#30294C"/>
<path opacity="0.32" d="M176.265 300.877C176.127 300.877 176 300.782 175.959 300.635C175.908 300.456 176.005 300.268 176.174 300.215C176.774 300.026 236.435 281.225 255.545 275.889C255.715 275.84 255.89 275.948 255.935 276.128C255.98 276.308 255.877 276.495 255.707 276.542C236.606 281.873 176.957 300.673 176.355 300.863C176.326 300.872 176.295 300.877 176.265 300.877Z" fill="#30294C"/>
<path opacity="0.32" d="M182.265 308.877C182.127 308.877 182.001 308.782 181.959 308.636C181.908 308.457 182.005 308.269 182.174 308.215C182.774 308.026 242.435 289.223 261.546 283.889C261.716 283.839 261.89 283.947 261.935 284.128C261.979 284.308 261.878 284.493 261.707 284.542C242.607 289.874 182.956 308.674 182.357 308.863C182.326 308.872 182.295 308.877 182.265 308.877Z" fill="#30294C"/>
<path opacity="0.32" fill-rule="evenodd" clip-rule="evenodd" d="M293.698 350.519C294.544 349.149 296.335 348.28 297.76 349.369C298.255 349.746 297.655 350.504 297.161 350.126C296.068 349.291 294.878 350.347 294.36 351.297C294.036 351.889 293.806 352.536 293.577 353.178C293.475 353.467 293.372 353.755 293.261 354.037C292.864 355.051 292.436 356.055 291.982 357.046C291.954 357.105 291.927 357.164 291.9 357.223C291.587 357.906 291.265 358.608 290.698 359.119C289.596 360.109 288.401 359.559 287.969 358.26C287.957 358.223 287.944 358.184 287.931 358.143C287.773 357.646 287.531 356.888 286.836 357.599C286.613 357.827 286.452 358.246 286.315 358.602C286.27 358.721 286.226 358.833 286.185 358.929C285.762 359.899 285.437 360.9 285.19 361.928C285.072 362.42 284.232 362.491 284.232 361.912C284.23 360.604 284.114 359.314 283.89 358.034C283.489 358.717 283.303 359.525 283.12 360.318C283.027 360.719 282.936 361.117 282.817 361.493C282.434 362.712 281.823 363.866 281.042 364.879C280.262 365.893 279.303 366.783 278.224 367.473C277.208 368.122 275.933 368.833 274.68 368.653C274.462 368.621 274.261 368.567 274.079 368.494C273.61 369.503 273.062 370.472 272.405 371.377C271.281 372.934 269.239 375.458 267.134 373.966C266.128 373.253 265.768 372.059 265.557 370.902C265.275 369.344 265.102 367.757 264.969 366.181C264.8 364.119 264.744 362.051 264.791 359.986C263.69 363.202 262.879 366.507 262.068 369.812C261.092 373.788 260.115 377.765 258.634 381.59C258.409 382.17 257.534 381.783 257.748 381.204C258.935 377.996 259.586 374.598 259.623 371.176C259.639 369.764 259.55 368.352 259.366 366.951C259.347 366.811 259.329 366.667 259.311 366.52C259.156 365.269 258.974 363.808 258.177 362.843C257.131 361.576 255.243 361.794 253.94 362.477C252.675 363.139 251.589 364.212 250.649 365.268C247.169 369.177 245.41 374.254 243.858 379.158C243.669 379.75 242.784 379.359 242.971 378.771C244.018 375.465 245.146 372.153 246.82 369.101C248.215 366.563 250.009 364.101 252.354 362.354C254.411 360.821 257.751 360.126 259.283 362.756C259.96 363.92 260.148 365.407 260.315 366.741C260.327 366.83 260.338 366.919 260.349 367.007C260.553 368.62 260.619 370.247 260.567 371.871C260.567 371.878 260.566 371.885 260.566 371.892C260.566 371.899 260.565 371.905 260.565 371.911C260.775 371.077 260.98 370.241 261.185 369.406C262.237 365.123 263.287 360.841 264.973 356.752C265.193 356.217 265.931 356.497 265.895 357.017C265.658 360.276 265.686 363.547 265.996 366.801C266.02 367.046 266.041 367.294 266.063 367.545C266.184 368.927 266.311 370.38 266.719 371.679C266.941 372.384 267.352 373.145 268.1 373.394C269.066 373.714 269.89 372.83 270.484 372.193C270.495 372.181 270.506 372.169 270.517 372.157C271.674 370.916 272.567 369.48 273.267 367.949C272.225 366.86 272.228 364.798 272.405 363.393C272.603 361.842 272.969 360.314 273.487 358.839L273.487 358.838C273.863 357.764 274.284 356.559 275.451 356.141C275.634 356.076 275.91 356.11 276.019 356.298C276.755 357.574 276.577 358.942 276.361 360.344C276.137 361.794 275.852 363.236 275.464 364.651C275.19 365.645 274.864 366.628 274.475 367.583C275.385 367.933 276.575 367.344 277.399 366.852C279.299 365.718 280.809 363.962 281.641 361.914C281.887 361.31 282.048 360.677 282.209 360.048C282.534 358.77 282.856 357.509 283.869 356.541C284.162 356.261 284.571 356.559 284.64 356.87C284.815 357.639 284.945 358.409 285.036 359.184C285.139 358.918 285.248 358.654 285.366 358.392C285.414 358.287 285.462 358.172 285.513 358.052C285.798 357.375 286.154 356.529 286.8 356.226C287.473 355.913 288.116 356.33 288.476 356.895C288.605 357.096 288.666 357.321 288.726 357.544C288.781 357.75 288.836 357.954 288.944 358.135C289.479 359.039 290.235 358.316 290.608 357.664C291.205 356.624 291.662 355.462 292.105 354.335C292.173 354.162 292.241 353.989 292.308 353.818C292.433 353.507 292.547 353.188 292.663 352.868C292.954 352.059 293.248 351.244 293.698 350.519ZM274.033 360.293C273.692 361.462 273.454 362.665 273.322 363.876C273.217 364.843 273.167 366.046 273.706 366.914C273.903 366.416 274.08 365.912 274.242 365.403C274.658 364.091 274.961 362.745 275.203 361.392C275.238 361.198 275.279 360.996 275.321 360.787C275.55 359.645 275.816 358.317 275.419 357.255C274.707 357.806 274.385 359 274.144 359.89C274.105 360.033 274.069 360.169 274.033 360.293Z" fill="#30294C"/>
<path opacity="0.32" d="M198.265 328.877C198.127 328.877 198.001 328.782 197.959 328.636C197.908 328.456 198.005 328.268 198.174 328.215C198.774 328.026 258.434 309.224 277.545 303.888C277.715 303.84 277.89 303.948 277.935 304.129C277.98 304.309 277.88 304.494 277.71 304.542C258.607 309.874 198.956 328.673 198.357 328.862C198.326 328.872 198.295 328.877 198.265 328.877Z" fill="#30294C"/>
<path opacity="0.32" d="M188.268 314.877C188.13 314.877 188.003 314.787 187.961 314.647C187.906 314.474 188.001 314.289 188.172 314.235C188.298 314.194 201.168 310.078 220.54 304.888C220.712 304.841 220.89 304.946 220.934 305.122C220.98 305.297 220.879 305.477 220.706 305.523C201.346 310.71 188.492 314.821 188.365 314.861C188.333 314.872 188.301 314.877 188.268 314.877Z" fill="#30294C"/>
<path opacity="0.32" d="M204.265 339.877C204.127 339.877 204 339.782 203.959 339.636C203.908 339.456 204.005 339.268 204.174 339.215C204.774 339.026 264.434 320.224 283.545 314.888C283.715 314.84 283.889 314.948 283.934 315.129C283.981 315.309 283.878 315.494 283.708 315.542C264.606 320.874 204.956 339.673 204.355 339.862C204.326 339.872 204.295 339.877 204.265 339.877Z" fill="#30294C"/>
<path d="M273.694 255.941C272.361 259.871 271.113 263.816 269.949 267.775C269.912 267.899 270.175 267.915 270.21 267.793C271.371 263.851 272.613 259.922 273.941 256.01C273.981 255.888 273.736 255.819 273.694 255.941Z" fill="#E86A51"/>
<path d="M132.624 396.877C132.504 396.877 132.388 396.808 132.333 396.691L71.9756 268.332C71.9006 268.173 71.9698 267.981 72.1304 267.907C72.2912 267.832 72.482 267.902 72.5573 268.062L132.915 396.423C132.99 396.583 132.921 396.773 132.76 396.846C132.716 396.869 132.67 396.877 132.624 396.877Z" fill="#5187EB"/>
<path d="M231.398 453.877C229.544 453.877 227.698 453.393 226.072 452.45L131.106 397.417C130.953 397.329 130.9 397.131 130.988 396.975C131.076 396.823 131.272 396.769 131.425 396.857L226.391 451.89C228.746 453.255 231.592 453.597 234.2 452.829L430.536 394.89C430.704 394.84 430.883 394.937 430.932 395.109C430.982 395.28 430.886 395.46 430.715 395.51L234.379 453.449C233.406 453.735 232.399 453.877 231.398 453.877Z" fill="#5187EB"/>
<path d="M324.636 418.877C324.588 418.877 324.542 418.866 324.495 418.841L303.114 407.49C302.961 407.41 302.902 407.216 302.979 407.056C303.054 406.896 303.242 406.83 303.394 406.913L324.776 418.263C324.929 418.344 324.989 418.54 324.912 418.7C324.856 418.811 324.749 418.877 324.636 418.877Z" fill="#6295F1"/>
<path d="M377.003 284.144C375.045 279.021 372.169 274.315 368.874 269.935C367.207 267.722 365.455 265.564 363.619 263.488C362.146 261.82 360.246 260.298 357.892 260.8C353.793 259.928 349.568 259.655 345.39 260.062C343.255 260.269 341.101 260.593 339.602 262.268C338.18 263.856 337.535 266.003 337.035 268.022C336.442 270.424 335.995 272.845 335.253 275.208C334.525 277.522 333.653 279.786 332.844 282.073C332.081 284.24 331.161 286.552 330.966 288.856C330.764 291.182 332.033 292.881 333.875 294.163C335.88 295.559 338.128 296.69 340.301 297.802C342.432 298.892 344.605 299.921 346.823 300.827C351.298 302.654 356.049 303.566 360.806 302.266C365.617 300.951 369.325 297.493 373.145 294.487C374.715 293.251 376.524 292.018 377.44 290.186C378.449 288.171 377.758 286.12 377.003 284.144Z" fill="#FC9E88"/>
<path d="M361.729 263.972C361.109 268.436 358.234 272.164 354.874 274.988C352.972 276.588 350.846 277.875 348.883 279.386C347.407 280.522 345.331 282.004 346.118 284.131C346.649 285.569 347.301 286.922 347.715 288.408C348.114 289.843 348.378 291.309 348.522 292.79C348.535 292.929 348.751 292.89 348.736 292.752C348.486 290.216 347.874 287.725 346.892 285.374C346.642 284.781 346.278 284.173 346.166 283.533C346.044 282.846 346.285 282.229 346.687 281.684C347.408 280.715 348.474 279.957 349.427 279.243C351.369 277.796 353.431 276.52 355.27 274.938C356.851 273.576 358.298 272.036 359.461 270.296C360.733 268.396 361.627 266.263 361.944 263.99C361.963 263.851 361.746 263.834 361.729 263.972Z" fill="#E86A51"/>
<path d="M348.759 292.877C348.714 292.877 348.668 292.868 348.631 292.849C348.529 292.804 348.468 292.71 348.457 292.598C348.314 291.125 348.051 289.685 347.676 288.317C347.417 287.374 347.053 286.464 346.696 285.583C346.507 285.108 346.308 284.616 346.126 284.12C345.339 281.956 347.294 280.438 348.724 279.329L348.89 279.202C349.692 278.578 350.535 277.982 351.35 277.406C352.478 276.609 353.645 275.786 354.713 274.877C357.364 272.62 360.66 268.93 361.316 264.155C361.34 263.975 361.5 263.856 361.679 263.88C361.854 263.906 361.967 264.055 361.942 264.231C361.643 266.405 360.819 268.525 359.491 270.535C358.43 272.142 357.041 273.695 355.372 275.15C354.215 276.157 352.949 277.053 351.725 277.917C351.047 278.398 350.346 278.894 349.675 279.403L349.464 279.561C348.585 280.222 347.679 280.904 347.049 281.761C346.636 282.324 346.483 282.866 346.579 283.42C346.651 283.838 346.847 284.258 347.038 284.665C347.118 284.841 347.2 285.015 347.27 285.188C348.226 287.501 348.835 289.968 349.083 292.519C349.094 292.636 349.045 292.746 348.953 292.813C348.894 292.855 348.824 292.877 348.759 292.877Z" fill="#FC9E88"/>
<path d="M383.939 259.689C381.321 256.906 377.76 252.864 375.547 250.328C374.061 248.624 371.818 247.73 369.516 247.897C369.505 247.899 369.49 247.899 369.479 247.901C362.935 248.365 356.364 248.692 349.832 249.303C347.66 249.505 344.336 249.951 343.156 252.044C342.685 252.876 343.039 253.772 343.877 254.214C345.189 254.903 346.936 255.102 348.365 255.48C354.711 257.163 361.057 258.844 367.4 260.527C370.703 261.403 373.848 262.268 377.295 261.689C378.523 261.482 384.156 259.918 383.939 259.689Z" fill="#FFB299"/>
<path d="M364.462 244.913C360.511 244.435 339.381 248.802 336.299 250.462C330.563 253.548 325.191 272.618 321.532 279.651C320.489 281.653 319.444 283.651 318.395 285.648C317.761 286.851 316.031 289.083 317.559 290.289C323.291 294.808 328.955 288.654 331.58 284.617C333.9 281.058 344.951 263.331 346.229 261.719C348.207 259.229 355.31 262.009 360.458 266.442C360.754 266.488 361.051 266.575 361.336 266.703C364.285 268.034 366.967 271.244 368.031 274.245C368.66 276.017 368.816 277.941 368.906 279.807C368.986 281.522 368.933 283.34 368.57 285.036C368.719 285.604 368.881 286.216 369.055 286.875C369.678 289.202 383.916 283.744 383.944 283.748C383.981 283.753 383.052 278.133 383.057 278.133C383.181 278.13 368.603 245.416 364.462 244.913Z" fill="#FFB299"/>
<path d="M339.181 259.944C339.127 259.827 338.899 259.875 338.954 259.994C340.078 262.484 340.674 265.111 340.711 267.78C340.715 267.907 340.948 267.911 340.945 267.782C340.908 265.099 340.313 262.45 339.181 259.944Z" fill="#E86A51"/>
<path d="M331.171 275.927C331.095 275.813 330.886 275.914 330.962 276.031C332.537 278.377 332.641 281.132 332.706 283.775C332.711 283.908 332.95 283.912 332.945 283.779C332.879 281.099 332.766 278.306 331.171 275.927Z" fill="#E86A51"/>
<path d="M341.643 275.934C340.659 275.33 339.753 274.639 338.919 273.877C337.138 276.582 335.264 279.218 333.444 281.898C331.451 284.831 329.625 287.878 327.845 290.947C326.031 294.067 324.268 297.215 322.416 300.313C320.58 303.389 318.905 306.512 317.229 309.681C316.675 310.729 315.206 310.988 314.258 310.393L298.529 335.648L295.965 348.276C295.752 349.322 297.299 350.316 298.137 349.674L308.271 341.913L324.312 316.155C323.811 315.524 323.642 314.641 324.185 313.744C326.406 310.066 328.246 306.17 330.523 302.524C334.537 296.098 339.006 290.007 343.204 283.712C344.446 281.85 345.708 280 346.945 278.132C345.092 277.684 343.302 276.954 341.643 275.934Z" fill="#0B40B3"/>
<path d="M378.876 219.99C376.18 218.287 372.94 218.57 371.639 220.619L314.945 310.713C316.66 313.571 319.455 315.619 322.702 316.396L324.711 316.877L381.405 226.783C382.707 224.735 381.576 221.692 378.876 219.99Z" fill="#EBF2FC"/>
<path d="M350.051 302.431C350.918 295.967 337.498 295.081 337.328 300.11C337.015 300.257 336.812 300.578 337.049 300.911C338.945 303.59 340.617 306.395 342.029 309.317C342.707 310.723 343.173 312.24 343.909 313.616C344.404 314.542 345.382 315.114 346.566 314.782C349.015 314.096 350.267 310.898 350.7 308.908C351.181 306.697 350.95 304.47 350.051 302.432C350.051 302.431 350.051 302.431 350.051 302.431Z" fill="#FC9E88"/>
<path d="M356.075 299.744C353.928 293.59 342.094 298.582 344.194 303.154C343.995 303.419 343.965 303.795 344.314 303.991C347.126 305.569 349.806 307.356 352.312 309.361C353.518 310.326 354.594 311.481 355.836 312.395C356.671 313.01 357.759 313.099 358.62 312.293C360.401 310.623 360.04 307.223 359.52 305.257C358.941 303.073 357.751 301.179 356.075 299.745C356.075 299.745 356.075 299.744 356.075 299.744Z" fill="#FC9E88"/>
<path d="M475.614 309.718C469.895 306.426 464.305 302.932 458.867 299.233C456.26 297.461 453.779 295.444 451.099 293.785C449.303 292.675 446.44 292.257 445.316 294.451C445.31 294.457 445.31 294.464 445.307 294.471C444.91 294.707 444.754 295.291 445.289 295.528C447.694 296.594 449.758 298.155 451.837 299.701C453.91 301.244 456.025 302.624 458.397 303.721C463.828 306.23 469.422 308.459 474.933 310.812C475.698 311.138 476.37 310.153 475.614 309.718Z" fill="#0537A1"/>
<path d="M512.776 298.68C511.634 297.701 509.453 297.807 508.255 296.901C507.154 296.07 506.056 295.175 504.677 294.895C504.328 294.825 504.052 294.965 503.872 295.186C503.114 295.019 502.534 296.184 503.32 296.683C505.742 298.228 508.243 299.594 510.842 300.831C511.598 301.191 513.524 299.322 512.776 298.68Z" fill="#30294C"/>
<path d="M456.071 282.119C454.522 277.609 452.121 273.406 449.035 269.785C448.431 269.076 433.512 275.532 423.967 279.551C418.877 281.695 413.088 281.473 408.22 278.855C399.114 273.957 390.924 267.343 383.804 259.81C381.107 256.958 378.685 253.793 375.62 251.334C375.525 250.994 375.286 250.684 374.857 250.474C371.708 248.932 368.624 250.517 367.306 253.619C365.912 256.892 364.929 260.432 363.829 263.816C363.276 265.513 362.873 267.269 363.155 269.057C363.218 269.442 363.359 269.883 363.555 270.362C363.754 270.485 363.944 270.642 364.127 270.845C366.125 273.073 367.537 275.596 368.169 278.45C368.276 278.67 368.376 278.878 368.452 279.068C369.701 282.171 369.661 290.884 356.237 295.922C354.492 296.577 347.914 293.974 342.122 290.251C339.776 288.743 336.347 286.47 333.037 285.557C329.514 284.585 326.52 282.97 322.671 284.133C322.408 284.212 322.199 284.337 322.031 284.492C321.951 284.514 321.87 284.541 321.79 284.576C319.205 285.72 318.383 288.935 319.319 291.453C320.695 295.165 326.396 298.333 329.475 300.401C333.622 303.188 338.526 304.544 342.681 307.329C345.261 309.058 347.643 311.096 350.344 312.64C353.404 314.387 356.232 314.824 359.686 315.018C365.13 315.326 370.576 315.563 376.022 315.799C385.834 316.226 395.798 317.093 405.623 316.827C413.584 316.612 457.928 293.013 457.945 293.18C457.942 293.148 457.931 293.052 457.928 293.013C457.556 289.405 457.252 285.557 456.071 282.119Z" fill="#FFB299"/>
<path d="M470.257 308.071C471.548 308.827 472.834 309.61 474.104 310.416C474.951 310.953 476.016 311.025 476.93 310.609C484.31 307.248 516.221 292.865 516.945 293.473C516.329 292.955 515.723 292.42 515.141 291.86C512.066 288.908 509.936 285.248 507.586 281.741C505.321 278.358 503.079 274.847 500.166 271.963C497.24 269.065 493.906 266.632 491.152 263.551C488.18 260.227 485.599 256.518 483.305 252.711C483.115 252.403 482.922 252.082 482.617 251.889C481.742 251.345 443.654 268.761 435.86 272.922C435.554 273.07 435.238 273.229 435.041 273.505C434.317 274.543 437.92 277.099 438.531 277.722C440.433 279.663 442.067 281.84 443.607 284.068C447.741 290.046 451.7 296.211 457.664 300.589C461.605 303.485 466.04 305.609 470.257 308.071Z" fill="#EBF2FC"/>
<path d="M592.061 180.329C577.757 187.836 472.554 252.824 471.988 254.24C471.334 255.873 478.329 263.171 479.43 264.247C491.273 275.827 508.218 299.887 509.74 300.669C511.585 301.616 515.619 299.062 517.189 298.429C521.469 296.702 616.686 265.31 618.875 264.247C643.121 261.185 606.364 172.822 592.061 180.329Z" fill="#0537A2"/>
<path d="M328.896 285.025C326.655 283.872 323.974 283.336 321.648 284.625C319.782 285.662 318.558 287.852 319.057 289.953C319.424 291.485 320.542 292.711 321.59 293.846C321.674 293.938 321.814 293.803 321.728 293.712C320.631 292.521 319.441 291.217 319.183 289.572C318.972 288.221 319.511 286.84 320.428 285.837C321.421 284.754 322.828 284.166 324.302 284.074C325.918 283.972 327.385 284.464 328.796 285.19C328.908 285.247 329.009 285.082 328.896 285.025Z" fill="#E86A51"/>
<path d="M322.297 293.877C322.204 293.877 322.118 293.839 322.053 293.768C320.866 292.478 319.519 291.016 319.078 289.168C318.508 286.773 319.812 284.082 322.18 282.765C324.567 281.44 327.616 281.602 330.765 283.223C330.873 283.278 330.941 283.378 330.945 283.494C330.95 283.611 330.884 283.731 330.78 283.796C330.676 283.86 330.551 283.865 330.441 283.807C328.571 282.845 326.959 282.443 325.368 282.543C323.645 282.65 322.111 283.347 321.05 284.509C319.965 285.696 319.448 287.242 319.665 288.644C319.956 290.497 321.334 291.994 322.551 293.315C322.68 293.453 322.666 293.662 322.524 293.79C322.463 293.844 322.383 293.875 322.304 293.877C322.301 293.877 322.3 293.877 322.297 293.877Z" fill="#FC9E88"/>
<path d="M328.754 289.41C328.025 290.228 327.356 291.094 326.763 292.012C326.478 292.45 326.167 293.329 325.673 293.497C325.365 293.603 325.345 293.55 325.108 293.385C324.954 293.278 324.804 293.165 324.659 293.049C324.429 292.865 324.204 292.672 323.988 292.471C322.473 291.056 320.122 288.118 321.706 286.043C321.796 285.924 321.597 285.809 321.507 285.926C319.85 288.101 322.234 291.147 323.824 292.632C324.259 293.038 324.812 293.589 325.373 293.817C325.78 293.983 325.984 293.787 326.183 293.437C326.968 292.055 327.857 290.765 328.915 289.573C329.013 289.463 328.851 289.298 328.754 289.41Z" fill="#E86A51"/>
<path d="M325.606 293.877C325.506 293.877 325.394 293.855 325.269 293.804C324.752 293.594 324.258 293.127 323.86 292.753L323.741 292.641C323.032 291.979 319.596 288.548 321.527 286.011C321.64 285.861 321.851 285.833 322.004 285.948C322.146 286.054 322.172 286.241 322.065 286.382C320.457 288.494 323.557 291.576 324.197 292.173C324.401 292.363 324.608 292.543 324.816 292.708C324.965 292.827 325.101 292.928 325.229 293.018L325.295 293.065C325.412 293.149 325.412 293.149 325.566 293.096C325.825 293.008 326.06 292.56 326.245 292.2C326.326 292.045 326.402 291.899 326.479 291.78C327.029 290.932 327.668 290.095 328.381 289.292C328.458 289.206 328.568 289.168 328.676 289.189C328.793 289.212 328.889 289.298 328.928 289.413C328.965 289.524 328.942 289.644 328.863 289.733C327.93 290.783 327.094 291.966 326.308 293.351C326.213 293.521 326.009 293.877 325.606 293.877Z" fill="#FC9E88"/>
<path d="M328.916 285.686C327.87 284.535 326.501 283.893 325.043 283.877C324.915 283.875 324.912 284.1 325.039 284.102C326.445 284.118 327.766 284.733 328.775 285.844C328.866 285.946 329.007 285.788 328.916 285.686Z" fill="#E86A51"/>
<path d="M328.671 285.877C328.604 285.877 328.535 285.851 328.482 285.8C327.602 284.928 326.44 284.44 325.209 284.429C325.113 284.427 325.026 284.376 324.981 284.293C324.932 284.206 324.934 284.094 324.983 284.008C325.032 283.925 325.117 283.877 325.214 283.877C326.586 283.89 327.88 284.435 328.865 285.406C328.971 285.513 328.972 285.682 328.868 285.791C328.812 285.849 328.742 285.877 328.671 285.877Z" fill="#FC9E88"/>
<path d="M379.917 261.708C377.906 259.549 376.285 257.112 374.973 254.46C373.961 252.414 372.593 249.96 370.04 249.877C369.917 249.873 369.912 250.071 370.038 250.075C372.867 250.169 374.087 253.189 375.203 255.356C376.424 257.725 377.972 259.907 379.779 261.846C379.866 261.94 380.005 261.799 379.917 261.708Z" fill="#E86A51"/>
<path d="M352.241 291.877C352.23 291.877 352.215 291.876 352.204 291.874C352.039 291.851 351.926 291.69 351.948 291.513C351.951 291.491 352.213 289.295 352.54 287.099C353.225 282.484 353.503 282.366 353.727 282.272C359.502 279.835 365.395 274.019 365.453 273.961C365.573 273.841 365.759 273.85 365.871 273.983C365.977 274.116 365.97 274.32 365.848 274.44C365.789 274.497 359.848 280.36 353.988 282.853C353.662 283.401 352.999 287.687 352.533 291.596C352.513 291.759 352.385 291.877 352.241 291.877Z" fill="#FC9E88"/>
<defs>
<linearGradient id="paint0_linear_389_527" x1="311.645" y1="638.53" x2="674.503" y2="373.949" gradientUnits="userSpaceOnUse">
<stop stop-color="white" stop-opacity="0.1"/>
<stop offset="1" stop-color="white" stop-opacity="0.5"/>
</linearGradient>
<linearGradient id="paint1_linear_389_527" x1="45.8705" y1="307.776" x2="339.67" y2="585.926" gradientUnits="userSpaceOnUse">
<stop stop-color="white" stop-opacity="0.5"/>
<stop offset="1" stop-color="white" stop-opacity="0.2"/>
</linearGradient>
<linearGradient id="paint2_linear_389_527" x1="336.62" y1="554.892" x2="497.97" y2="344.224" gradientUnits="userSpaceOnUse">
<stop stop-color="white" stop-opacity="0.1"/>
<stop offset="1" stop-color="white" stop-opacity="0.5"/>
</linearGradient>
<linearGradient id="paint3_linear_389_527" x1="298.046" y1="712.06" x2="735.71" y2="377.689" gradientUnits="userSpaceOnUse">
<stop stop-color="white" stop-opacity="0.7"/>
<stop offset="1" stop-color="white"/>
</linearGradient>
</defs>
</svg>
