<svg width="621" height="599" viewBox="0 0 621 599" fill="none" xmlns="http://www.w3.org/2000/svg">
<path d="M307.5 543C245.4 543 187 518.9 143.1 475.2C99.2 431.5 75 373.3 75 311.5C75 249.6 99.2 191.5 143.1 147.8C187 104.1 245.4 80 307.5 80C369.6 80 428 104.1 471.9 147.8C515.8 191.5 540 249.7 540 311.5C540 373.3 515.8 431.5 471.9 475.2C428 518.9 369.6 543 307.5 543ZM307.5 112C196.9 112 107 201.5 107 311.5C107 421.5 196.9 511 307.5 511C418.1 511 508 421.5 508 311.5C508 201.5 418.1 112 307.5 112Z" fill="url(#paint0_linear_553_441)"/>
<path d="M306 472C394.366 472 466 400.366 466 312C466 223.634 394.366 152 306 152C217.634 152 146 223.634 146 312C146 400.366 217.634 472 306 472Z" fill="url(#paint1_linear_553_441)"/>
<path d="M327 517C221.6 517 139 467.6 139 404.5C139 341.4 221.6 292 327 292C432.4 292 515 341.4 515 404.5C515 467.6 432.4 517 327 517ZM327 328C284.6 328 245 337 215.5 353.4C189.7 367.7 175 386.3 175 404.5C175 422.6 189.8 441.3 215.5 455.6C245 472 284.6 481 327 481C369.4 481 409 472 438.5 455.6C464.3 441.3 479 422.7 479 404.5C479 386.4 464.2 367.7 438.5 353.4C409 337 369.4 328 327 328Z" fill="url(#paint2_linear_553_441)"/>
<path d="M320.1 560.4C317.9 560.4 316.1 558.7 316.1 556.5C316.1 554.3 317.8 552.5 320 552.4C325.6 552.3 331.2 552 336.7 551.6C338.9 551.4 340.8 553.1 341 555.3C341.2 557.5 339.5 559.4 337.3 559.6C331.6 560 325.8 560.3 320.1 560.4ZM301.1 560.1C301 560.1 301 560.1 300.9 560.1C295.2 559.8 289.4 559.3 283.7 558.7C281.5 558.5 279.9 556.5 280.2 554.3C280.4 552.1 282.4 550.5 284.6 550.8C290.1 551.4 295.8 551.9 301.3 552.2C303.5 552.3 305.2 554.2 305.1 556.4C305 558.4 303.2 560.1 301.1 560.1ZM355.9 557.5C353.9 557.5 352.2 556.1 351.9 554.1C351.6 551.9 353.1 549.9 355.3 549.6C360.8 548.8 366.3 547.8 371.8 546.7C374 546.2 376.1 547.6 376.5 549.8C376.9 552 375.6 554.1 373.4 554.5C367.8 555.7 362.1 556.7 356.4 557.5C356.3 557.5 356.1 557.5 355.9 557.5ZM265.3 556C265.1 556 264.8 556 264.6 555.9C259 554.9 253.3 553.7 247.7 552.4C245.6 551.9 244.2 549.7 244.7 547.6C245.2 545.5 247.4 544.1 249.5 544.6C254.9 545.9 260.4 547 265.9 548C268.1 548.4 269.5 550.5 269.1 552.6C268.9 554.6 267.2 556 265.3 556ZM391.1 550C389.4 550 387.8 548.8 387.3 547.1C386.7 545 387.9 542.8 390.1 542.2C395.4 540.7 400.8 539 406 537.2C408.1 536.5 410.4 537.6 411.1 539.7C411.8 541.8 410.7 544.1 408.6 544.8C403.2 546.7 397.7 548.4 392.2 550C391.8 550 391.4 550 391.1 550ZM230.4 547.5C230 547.5 229.6 547.4 229.2 547.3C223.7 545.6 218.3 543.7 212.9 541.7C210.8 540.9 209.8 538.6 210.6 536.5C211.4 534.4 213.7 533.4 215.8 534.2C221 536.2 226.3 538 231.6 539.7C233.7 540.4 234.9 542.6 234.2 544.7C233.7 546.4 232.1 547.5 230.4 547.5ZM424.9 538C423.4 538 421.9 537.1 421.2 535.6C420.3 533.6 421.3 531.2 423.3 530.3C428.4 528.1 433.5 525.7 438.4 523.2C440.4 522.2 442.8 523 443.8 525C444.8 527 444 529.4 442 530.4C436.9 533 431.7 535.4 426.4 537.7C426 537.9 425.5 538 424.9 538ZM196.8 534.6C196.2 534.6 195.7 534.5 195.1 534.2C189.9 531.8 184.7 529.2 179.7 526.5C177.8 525.5 177 523 178.1 521.1C179.1 519.2 181.6 518.4 183.5 519.5C188.4 522.1 193.5 524.6 198.5 526.9C200.5 527.8 201.4 530.2 200.5 532.2C199.8 533.7 198.3 534.6 196.8 534.6ZM456.9 521.6C455.5 521.6 454.2 520.9 453.5 519.7C452.4 517.8 453 515.3 454.9 514.2C459.7 511.3 464.4 508.3 469 505.1C470.8 503.8 473.3 504.3 474.6 506.1C475.9 507.9 475.4 510.4 473.6 511.7C468.9 514.9 464 518.1 459.1 521C458.3 521.4 457.6 521.6 456.9 521.6ZM165.1 517.5C164.4 517.5 163.6 517.3 163 516.9C158.1 513.9 153.3 510.6 148.7 507.3C146.9 506 146.5 503.5 147.8 501.7C149.1 499.9 151.6 499.5 153.4 500.8C157.9 504 162.6 507.2 167.3 510.1C169.2 511.3 169.7 513.7 168.6 515.6C167.8 516.9 166.5 517.5 165.1 517.5ZM486.4 501C485.2 501 484.1 500.5 483.3 499.5C481.9 497.8 482.2 495.3 483.9 493.9C488.2 490.4 492.5 486.7 496.6 483C498.2 481.5 500.8 481.6 502.3 483.2C503.8 484.8 503.7 487.4 502.1 488.9C497.9 492.8 493.5 496.5 489 500.1C488.2 500.8 487.3 501 486.4 501ZM135.9 496.4C135 496.4 134.1 496.1 133.4 495.5C129 491.8 124.6 488 120.4 484.1C118.8 482.6 118.7 480.1 120.2 478.4C121.7 476.8 124.2 476.7 125.9 478.2C130 482 134.2 485.7 138.5 489.3C140.2 490.7 140.4 493.2 139 494.9C138.2 495.9 137.1 496.4 135.9 496.4ZM512.8 476.6C511.8 476.6 510.8 476.2 510.1 475.5C508.5 474 508.4 471.5 509.9 469.8C513.7 465.7 517.4 461.5 520.9 457.2C522.3 455.5 524.8 455.2 526.5 456.6C528.2 458 528.5 460.5 527.1 462.2C523.5 466.6 519.6 471 515.7 475.2C515 476.2 513.9 476.6 512.8 476.6ZM109.8 471.7C108.7 471.7 107.7 471.3 106.9 470.4C103 466.2 99.1998 461.8 95.5998 457.4C94.1998 455.7 94.4998 453.2 96.1998 451.8C97.8998 450.4 100.4 450.7 101.8 452.4C105.3 456.7 109 461 112.8 465C114.3 466.6 114.2 469.2 112.6 470.7C111.7 471.4 110.8 471.7 109.8 471.7ZM535.5 448.7C534.7 448.7 533.9 448.5 533.2 448C531.4 446.7 531 444.2 532.2 442.4C535.4 437.8 538.5 433.1 541.3 428.4C542.4 426.5 544.9 425.9 546.8 427C548.7 428.1 549.3 430.6 548.2 432.5C545.2 437.4 542.1 442.3 538.8 447C538 448.1 536.8 448.7 535.5 448.7ZM87.1998 443.7C85.8998 443.7 84.6998 443.1 83.8998 442C80.5998 437.3 77.3998 432.4 74.3998 427.6C73.1998 425.7 73.7998 423.3 75.6998 422.1C77.5998 420.9 79.9998 421.5 81.1998 423.4C84.0998 428.1 87.1998 432.8 90.3998 437.4C91.6998 439.2 91.1998 441.7 89.3998 443C88.7998 443.5 87.9998 443.7 87.1998 443.7ZM554 417.9C553.4 417.9 552.8 417.8 552.2 417.5C550.2 416.5 549.4 414.1 550.4 412.1C552.9 407.1 555.2 402 557.4 396.9C558.3 394.9 560.6 393.9 562.6 394.8C564.6 395.7 565.6 398 564.7 400C562.5 405.3 560.1 410.6 557.5 415.7C556.9 417.1 555.5 417.9 554 417.9ZM68.5998 412.9C67.0998 412.9 65.6998 412.1 64.9998 410.7C62.3998 405.6 59.8998 400.3 57.5998 395.1C56.6998 393.1 57.6998 390.7 59.6998 389.8C61.6998 388.9 64.0998 389.9 64.9998 391.9C67.1998 397 69.5998 402.1 72.0998 407C73.0998 409 72.2998 411.4 70.3998 412.4C69.7998 412.8 69.1998 412.9 68.5998 412.9ZM567.7 384.6C567.3 384.6 566.9 384.5 566.4 384.4C564.3 383.7 563.2 381.4 563.9 379.4C565.6 374.1 567.2 368.7 568.6 363.4C569.1 361.3 571.3 360 573.5 360.5C575.6 361 576.9 363.2 576.4 365.4C575 371 573.4 376.5 571.6 382C571 383.5 569.4 384.6 567.7 384.6ZM54.3998 379.9C52.6998 379.9 51.1998 378.9 50.5998 377.2C48.6998 371.8 46.9998 366.2 45.4998 360.7C44.8998 358.6 46.1998 356.4 48.2998 355.8C50.3998 355.2 52.5998 356.5 53.1998 358.6C54.6998 363.9 56.2998 369.3 58.0998 374.6C58.7998 376.7 57.6998 379 55.5998 379.7C55.2998 379.8 54.8998 379.9 54.3998 379.9ZM576.5 349.7C576.3 349.7 576 349.7 575.8 349.6C573.6 349.2 572.2 347.2 572.5 345C573.5 339.5 574.2 334 574.8 328.4C575 326.2 577 324.6 579.2 324.8C581.4 325 583 327 582.8 329.2C582.2 334.9 581.4 340.7 580.4 346.3C580.1 348.4 578.4 349.7 576.5 349.7ZM45.0998 345.1C43.1998 345.1 41.4998 343.8 41.1998 341.8C40.0998 336.2 39.1998 330.4 38.5998 324.8C38.2998 322.6 39.8998 320.6 42.0998 320.4C44.2998 320.1 46.2998 321.7 46.4998 323.9C47.1998 329.4 47.9998 334.9 49.0998 340.4C49.4998 342.6 48.0998 344.7 45.8998 345.1C45.5998 345.1 45.3998 345.1 45.0998 345.1ZM580 313.9C577.7 313.8 575.9 312 576 309.8C576.1 307.8 576.1 305.7 576.1 303.6C576.1 300.1 576 296.5 575.9 293C575.8 290.8 577.5 288.9 579.7 288.8C581.9 288.7 583.8 290.4 583.9 292.6C584.1 296.2 584.1 299.9 584.1 303.5C584.1 305.6 584.1 307.8 584 309.9C583.9 312.2 582.2 313.9 580 313.9ZM40.9998 309.4C38.8998 309.4 37.0998 307.7 36.9998 305.6C36.8998 302.2 36.7998 298.7 36.7998 295.3C36.7998 293 36.7998 290.7 36.8998 288.4C36.9998 286.2 38.7998 284.5 40.9998 284.5C43.1998 284.6 44.8998 286.4 44.8998 288.6C44.7998 290.8 44.7998 293.1 44.7998 295.3C44.7998 298.6 44.8998 302 44.9998 305.3C45.0998 307.5 43.3998 309.4 41.1998 309.5C41.0998 309.4 41.0998 309.4 40.9998 309.4ZM578.3 278C576.3 278 574.6 276.5 574.3 274.5C573.6 269 572.8 263.4 571.7 258C571.3 255.8 572.7 253.7 574.9 253.3C577.1 252.9 579.2 254.3 579.6 256.5C580.7 262.1 581.6 267.9 582.3 273.5C582.6 275.7 581 277.7 578.8 278C578.6 278 578.4 278 578.3 278ZM42.1998 273.5C42.0998 273.5 41.8998 273.5 41.7998 273.5C39.5998 273.3 37.9998 271.3 38.1998 269.1C38.7998 263.4 39.5998 257.7 40.5998 252C40.9998 249.8 43.0998 248.4 45.1998 248.8C47.3998 249.2 48.7998 251.3 48.3998 253.4C47.3998 258.9 46.5998 264.5 46.0998 270C45.8998 272 44.1998 273.5 42.1998 273.5ZM571.3 242.8C569.5 242.8 567.9 241.6 567.4 239.9C565.9 234.6 564.3 229.2 562.4 223.9C561.7 221.8 562.8 219.5 564.9 218.8C567 218.1 569.3 219.2 570 221.3C571.9 226.7 573.6 232.3 575.1 237.8C575.7 239.9 574.4 242.1 572.3 242.7C572 242.7 571.7 242.8 571.3 242.8ZM48.4998 238.1C48.1998 238.1 47.7998 238.1 47.4998 238C45.3998 237.5 44.0998 235.3 44.5998 233.1C45.9998 227.5 47.6998 222 49.4998 216.5C50.1998 214.4 52.4998 213.3 54.5998 214C56.6998 214.7 57.7998 217 57.0998 219.1C55.3998 224.4 53.7998 229.8 52.3998 235.1C51.8998 236.9 50.2998 238.1 48.4998 238.1ZM559.4 208.9C557.9 208.9 556.4 208 555.7 206.5C553.5 201.4 551.1 196.3 548.5 191.4C547.5 189.4 548.3 187 550.2 186C552.2 185 554.6 185.8 555.6 187.7C558.2 192.8 560.7 198 563 203.3C563.9 205.3 563 207.7 560.9 208.6C560.4 208.8 559.9 208.9 559.4 208.9ZM59.9998 204C59.4998 204 58.9998 203.9 58.4998 203.7C56.4998 202.8 55.4998 200.5 56.3998 198.5C58.5998 193.2 61.0998 187.9 63.6998 182.8C64.6998 180.8 67.0998 180 69.0998 181C71.0998 182 71.8998 184.4 70.8998 186.4C68.3998 191.4 65.9998 196.5 63.8998 201.6C62.9998 203.1 61.5998 204 59.9998 204ZM542.7 177C541.4 177 540 176.3 539.3 175.1C536.4 170.4 533.3 165.7 530.1 161.1C528.8 159.3 529.3 156.8 531.1 155.5C532.9 154.2 535.4 154.7 536.7 156.5C540 161.2 543.2 166 546.2 170.9C547.4 172.8 546.8 175.2 544.9 176.4C544.2 176.8 543.4 177 542.7 177ZM76.3998 172C75.6998 172 74.9998 171.8 74.2998 171.4C72.3998 170.3 71.7998 167.8 72.9998 165.9C75.9998 161 79.1998 156.1 82.4998 151.4C83.7998 149.6 86.2998 149.2 88.0998 150.4C89.8998 151.7 90.2998 154.2 89.0998 156C85.8998 160.5 82.7998 165.3 79.8998 170C78.9998 171.3 77.6998 172 76.3998 172ZM521.9 147.6C520.7 147.6 519.6 147.1 518.8 146.1C515.3 141.8 511.6 137.6 507.8 133.5C506.3 131.9 506.4 129.4 508 127.8C509.6 126.2 512.1 126.4 513.7 128C517.6 132.2 521.4 136.6 525.1 141C526.5 142.7 526.2 145.2 524.5 146.6C523.7 147.3 522.8 147.6 521.9 147.6ZM97.1998 142.7C96.2998 142.7 95.3998 142.4 94.6998 141.8C92.9998 140.4 92.7998 137.9 94.1998 136.2C97.7998 131.8 101.7 127.4 105.6 123.3C107.1 121.7 109.6 121.6 111.3 123.1C112.9 124.6 113 127.1 111.5 128.8C107.7 132.8 104 137.1 100.4 141.3C99.4998 142.2 98.2998 142.7 97.1998 142.7ZM497.3 121.4C496.3 121.4 495.3 121 494.6 120.3C490.5 116.5 486.3 112.8 482 109.2C480.3 107.8 480.1 105.3 481.5 103.6C482.9 101.9 485.4 101.7 487.1 103.1C491.5 106.7 495.9 110.6 500.1 114.5C501.7 116 501.8 118.5 500.3 120.2C499.4 121 498.3 121.4 497.3 121.4ZM122 116.6C120.9 116.6 119.8 116.2 119 115.3C117.5 113.7 117.6 111.1 119.3 109.6C123.5 105.7 127.9 102 132.4 98.4001C134.1 97.0001 136.6 97.3001 138 99.0001C139.4 100.7 139.1 103.2 137.4 104.6C133.1 108.1 128.8 111.7 124.7 115.5C123.9 116.3 123 116.6 122 116.6ZM469.4 98.6001C468.6 98.6001 467.8 98.4001 467.1 97.9001C462.6 94.7001 457.9 91.5001 453.2 88.6001C451.3 87.4001 450.8 85.0001 451.9 83.1001C453.1 81.2001 455.5 80.7001 457.4 81.8001C462.3 84.8001 467.1 88.1001 471.8 91.4001C473.6 92.7001 474 95.2001 472.7 97.0001C471.9 98.0001 470.6 98.6001 469.4 98.6001ZM150.2 94.3001C148.9 94.3001 147.7 93.7001 146.9 92.6001C145.6 90.8001 146.1 88.3001 147.9 87.0001C152.6 83.8001 157.5 80.6001 162.4 77.7001C164.3 76.6001 166.8 77.2001 167.9 79.1001C169 81.0001 168.4 83.5001 166.5 84.6001C161.7 87.5001 157 90.5001 152.4 93.6001C151.7 94.0001 150.9 94.3001 150.2 94.3001ZM438.8 79.7001C438.2 79.7001 437.5 79.5001 436.9 79.2001C432 76.6001 426.9 74.1001 421.9 71.8001C419.9 70.9001 419 68.5001 419.9 66.5001C420.8 64.5001 423.2 63.6001 425.2 64.5001C430.4 66.9001 435.6 69.4001 440.7 72.1001C442.6 73.1001 443.4 75.6001 442.4 77.5001C441.6 78.9001 440.2 79.7001 438.8 79.7001ZM181.1 75.9001C179.6 75.9001 178.2 75.1001 177.5 73.7001C176.5 71.7001 177.3 69.3001 179.3 68.3001C184.4 65.7001 189.7 63.3001 194.9 61.0001C196.9 60.1001 199.3 61.1001 200.2 63.1001C201.1 65.1001 200.1 67.5001 198.1 68.4001C193 70.6001 187.9 73.0001 182.9 75.5001C182.3 75.8001 181.7 75.9001 181.1 75.9001ZM406 64.8001C405.5 64.8001 405.1 64.7001 404.6 64.5001C399.4 62.5001 394.1 60.7001 388.8 59.1001C386.7 58.4001 385.5 56.2001 386.2 54.1001C386.9 52.0001 389.1 50.8001 391.2 51.5001C396.7 53.2001 402.2 55.1001 407.5 57.1001C409.6 57.9001 410.6 60.2001 409.8 62.3001C409.2 63.9001 407.6 64.8001 406 64.8001ZM214.2 61.9001C212.5 61.9001 211 60.9001 210.4 59.2001C209.7 57.1001 210.8 54.8001 212.9 54.1001C218.3 52.2001 223.8 50.5001 229.3 48.9001C231.4 48.3001 233.6 49.5001 234.2 51.7001C234.8 53.8001 233.6 56.0001 231.4 56.6001C226.1 58.1001 220.7 59.8001 215.4 61.6001C215.1 61.8001 214.6 61.9001 214.2 61.9001ZM371.6 54.3001C371.3 54.3001 371 54.3001 370.7 54.2001C365.3 52.9001 359.8 51.8001 354.3 50.8001C352.1 50.4001 350.7 48.3001 351.1 46.2001C351.5 44.0001 353.6 42.6001 355.7 43.0001C361.3 44.0001 367 45.2001 372.6 46.5001C374.7 47.0001 376.1 49.2001 375.6 51.3001C375.1 53.1001 373.4 54.3001 371.6 54.3001ZM248.8 52.3001C246.9 52.3001 245.3 51.0001 244.9 49.1001C244.5 46.9001 245.8 44.8001 248 44.4001C253.6 43.2001 259.3 42.2001 265 41.4001C267.2 41.1001 269.2 42.6001 269.5 44.8001C269.8 47.0001 268.3 49.0001 266.1 49.3001C260.6 50.1001 255 51.1001 249.6 52.2001C249.3 52.3001 249.1 52.3001 248.8 52.3001ZM337.3 48.3001C337.1 48.3001 337 48.3001 336.8 48.3001C331.3 47.7001 325.6 47.2001 320.1 46.9001C317.9 46.8001 316.2 44.9001 316.3 42.7001C316.4 40.5001 318.3 38.8001 320.5 38.9001C326.2 39.2001 332 39.7001 337.7 40.3001C339.9 40.5001 341.5 42.5001 341.2 44.7001C341.1 46.8001 339.3 48.3001 337.3 48.3001ZM284.4 47.3001C282.3 47.3001 280.6 45.7001 280.4 43.6001C280.2 41.4001 281.9 39.5001 284.1 39.3001C289.8 38.9001 295.6 38.6001 301.3 38.5001C303.5 38.4001 305.3 40.2001 305.4 42.4001C305.4 44.6001 303.7 46.4001 301.5 46.5001C295.9 46.6001 290.3 46.8001 284.8 47.2001C284.6 47.3001 284.5 47.3001 284.4 47.3001Z" fill="url(#paint3_linear_553_441)"/>
<path d="M438 337.9C436 337.9 433.9 337.8 431.9 337.7L432.3 330.7C434.9 330.9 437.5 330.9 440 330.9L440.2 337.9C439.4 337.9 438.7 337.9 438 337.9ZM448.5 337.3L447.7 330.3C450.2 330 452.8 329.6 455.3 329.1L456.7 336C454 336.6 451.2 337 448.5 337.3ZM423.7 336.9C421 336.5 418.3 336.1 415.6 335.5L417 328.6C419.6 329.1 422.1 329.6 424.6 329.9L423.7 336.9ZM464.7 333.9L462.7 327.2C465.3 326.4 467.8 325.7 470.3 324.9L472.4 331.6C469.9 332.4 467.3 333.2 464.7 333.9ZM407.6 333.5C405 332.8 402.4 332 399.8 331.1L402 324.5C404.5 325.3 407 326.1 409.5 326.8L407.6 333.5ZM480.1 329L477.8 322.4C480.3 321.5 482.8 320.6 485.2 319.7L487.7 326.2C485.2 327.2 482.7 328.1 480.1 329ZM392 328.4C389.5 327.4 387 326.4 384.5 325.3L387.3 318.9C389.7 320 392.2 321 394.5 321.9L392 328.4ZM495.2 323.3L492.5 316.8C495 315.8 497.4 314.7 499.7 313.7L502.6 320.1C500.3 321.1 497.8 322.2 495.2 323.3ZM377.1 321.8C374.7 320.6 372.3 319.4 369.9 318.1L373.2 311.9C375.6 313.2 377.9 314.4 380.2 315.5L377.1 321.8ZM510 316.6L506.9 310.3C509.3 309.1 511.6 307.9 513.9 306.7L517.2 312.9C514.9 314.1 512.5 315.4 510 316.6ZM362.8 314.1C360.5 312.8 358.2 311.4 355.8 310L359.5 304C361.8 305.4 364.1 306.8 366.3 308L362.8 314.1ZM524.3 308.8L520.7 302.8C523 301.5 525.2 300.1 527.3 298.6L531.1 304.4C529 306 526.7 307.4 524.3 308.8ZM349 305.7C346.8 304.3 344.5 302.8 342.3 301.2L346.2 295.4C348.4 296.9 350.6 298.4 352.8 299.8L349 305.7ZM538 299.9L533.9 294.3C536 292.7 538.1 291.1 540.1 289.5L544.5 294.9C542.4 296.5 540.2 298.2 538 299.9ZM335.7 296.6C333.6 295.1 331.4 293.5 329.2 291.9L333.4 286.3C335.6 287.9 337.7 289.5 339.8 291L335.7 296.6ZM550.6 289.5L545.9 284.4C547.8 282.6 549.7 280.8 551.4 279L556.5 283.8C554.6 285.7 552.7 287.6 550.6 289.5ZM322.7 286.9C320.6 285.3 318.4 283.6 316.3 281.9L320.6 276.4C322.7 278 324.8 279.7 326.9 281.3L322.7 286.9ZM562 277.6L556.6 273.1C558.3 271.1 559.8 269 561.3 267L567 271.1C565.4 273.3 563.7 275.4 562 277.6ZM310.1 277C308 275.3 305.9 273.6 303.9 271.9L308.4 266.5C310.4 268.2 312.5 269.9 314.6 271.6L310.1 277ZM297.7 266.7C295.6 265 293.6 263.2 291.6 261.5L296.2 256.2C298.2 257.9 300.2 259.6 302.3 261.4L297.7 266.7ZM571.6 264.1L565.6 260.5C566.9 258.3 568.2 256 569.3 253.7L575.6 256.8C574.3 259.3 573 261.8 571.6 264.1ZM285.5 256.2C283.5 254.4 281.4 252.7 279.5 250.9L284.1 245.6C286.1 247.3 288.1 249.1 290.1 250.9L285.5 256.2ZM578.9 249.3L572.4 246.7C573.4 244.3 574.2 241.9 575 239.4L581.7 241.5C580.9 244.1 580 246.8 578.9 249.3ZM273.5 245.6L267.5 240.3L272.1 235L278.1 240.3L273.5 245.6ZM261.5 235.1C259.4 233.3 257.4 231.6 255.5 229.8L260.1 224.5C262.1 226.2 264.1 228 266.1 229.8L261.5 235.1ZM583.8 233.5L577 232C577.5 229.5 578 227 578.4 224.4L585.3 225.4C584.9 228.1 584.4 230.9 583.8 233.5ZM249.4 224.6C247.3 222.8 245.3 221.1 243.4 219.4L248 214.1C250 215.8 252 217.5 254.1 219.3L249.4 224.6ZM586.1 217.2L579.1 216.8C579.2 215.2 579.2 213.5 579.2 211.8C579.2 210.9 579.2 210 579.2 209.1L586.2 208.9C586.2 209.9 586.2 210.9 586.2 211.8C586.3 213.6 586.2 215.4 586.1 217.2ZM237.3 214.2C235.2 212.4 233.2 210.7 231.2 209.1L235.7 203.7C237.7 205.4 239.7 207.1 241.8 208.9L237.3 214.2ZM225.1 204C223 202.3 220.9 200.6 218.9 199L223.3 193.5C225.3 195.1 227.4 196.8 229.6 198.6L225.1 204ZM578.6 201.4C578.3 198.9 577.9 196.3 577.4 193.8L584.3 192.4C584.8 195.1 585.3 197.9 585.6 200.6L578.6 201.4ZM212.7 194.1C210.5 192.4 208.4 190.8 206.4 189.4L210.5 183.7C212.6 185.2 214.8 186.8 217 188.5L212.7 194.1ZM575.6 186.2C574.9 183.8 574.2 181.3 573.3 178.8L579.9 176.5C580.8 179.1 581.6 181.8 582.3 184.4L575.6 186.2ZM199.9 184.8C197.7 183.3 195.4 181.8 193.3 180.5L197 174.6C199.2 176 201.5 177.5 203.8 179L199.9 184.8ZM186.6 176.6C184.3 175.3 182 174.1 179.7 173L182.7 166.7C185.1 167.9 187.6 169.1 190 170.5L186.6 176.6ZM570.6 171.5C569.6 169.1 568.6 166.7 567.4 164.3L573.7 161.3C574.9 163.8 576 166.3 577 168.8L570.6 171.5ZM172.5 169.9C170.1 168.9 167.7 168 165.2 167.2L167.4 160.6C170 161.5 172.6 162.4 175.1 163.4L172.5 169.9ZM563.9 157.4C562.7 155.1 561.4 152.8 560 150.6L566 147C567.4 149.4 568.7 151.8 570 154.1L563.9 157.4ZM555.9 143.9C554.5 141.7 553 139.5 551.5 137.4L557.2 133.4C558.8 135.6 560.3 137.9 561.8 140.1L555.9 143.9ZM546.8 131C545.2 128.9 543.6 126.8 541.9 124.8L547.3 120.4C549 122.5 550.7 124.6 552.3 126.8L546.8 131ZM536.8 118.8C533.6 115.2 531.5 113.1 531.5 113.1L536.4 108.1C536.5 108.2 538.6 110.3 542 114.1L536.8 118.8Z" fill="#A5A5A5"/>
<path d="M496.5 120.7C477.7 120.7 462.4 105.4 462.4 86.6C462.4 67.8 477.7 52.5 496.5 52.5C515.3 52.5 530.6 67.8 530.6 86.6C530.6 105.4 515.4 120.7 496.5 120.7Z" fill="#434F59"/>
<path d="M496.5 118.7C514.228 118.7 528.6 104.328 528.6 86.6C528.6 68.8717 514.228 54.5 496.5 54.5C478.772 54.5 464.4 68.8717 464.4 86.6C464.4 104.328 478.772 118.7 496.5 118.7Z" fill="#969696"/>
<path d="M483.185 61.3059L481.466 62.3271L499.133 92.0762L500.852 91.055L483.185 61.3059Z" fill="#F1F1F1"/>
<path d="M497.5 66H495.5V90.9H497.5V66Z" fill="#F1F1F1"/>
<path d="M496.5 62.3002C498.047 62.3002 499.3 61.0466 499.3 59.5002C499.3 57.9538 498.047 56.7002 496.5 56.7002C494.954 56.7002 493.7 57.9538 493.7 59.5002C493.7 61.0466 494.954 62.3002 496.5 62.3002Z" fill="#F1F1F1"/>
<path d="M496.5 117C498.047 117 499.3 115.747 499.3 114.2C499.3 112.654 498.047 111.4 496.5 111.4C494.954 111.4 493.7 112.654 493.7 114.2C493.7 115.747 494.954 117 496.5 117Z" fill="#F1F1F1"/>
<path d="M482.8 66.0004C484.346 66.0004 485.6 64.7468 485.6 63.2004C485.6 61.654 484.346 60.4004 482.8 60.4004C481.254 60.4004 480 61.654 480 63.2004C480 64.7468 481.254 66.0004 482.8 66.0004Z" fill="#F1F1F1"/>
<path d="M510.1 113.4C511.646 113.4 512.9 112.146 512.9 110.6C512.9 109.053 511.646 107.8 510.1 107.8C508.553 107.8 507.3 109.053 507.3 110.6C507.3 112.146 508.553 113.4 510.1 113.4Z" fill="#F1F1F1"/>
<path d="M472.7 76.1C474.246 76.1 475.5 74.8464 475.5 73.3C475.5 71.7536 474.246 70.5 472.7 70.5C471.154 70.5 469.9 71.7536 469.9 73.3C469.9 74.8464 471.154 76.1 472.7 76.1Z" fill="#F1F1F1"/>
<path d="M520.1 103.4C521.646 103.4 522.9 102.146 522.9 100.6C522.9 99.0534 521.646 97.7998 520.1 97.7998C518.553 97.7998 517.3 99.0534 517.3 100.6C517.3 102.146 518.553 103.4 520.1 103.4Z" fill="#F1F1F1"/>
<path d="M523.9 89.6996C525.447 89.6996 526.7 88.446 526.7 86.8996C526.7 85.3532 525.447 84.0996 523.9 84.0996C522.354 84.0996 521.1 85.3532 521.1 86.8996C521.1 88.446 522.354 89.6996 523.9 89.6996Z" fill="#F1F1F1"/>
<path d="M469.2 89.6996C470.746 89.6996 472 88.446 472 86.8996C472 85.3532 470.746 84.0996 469.2 84.0996C467.654 84.0996 466.4 85.3532 466.4 86.8996C466.4 88.446 467.654 89.6996 469.2 89.6996Z" fill="#F1F1F1"/>
<path d="M520.2 76.0004C521.746 76.0004 523 74.7468 523 73.2004C523 71.654 521.746 70.4004 520.2 70.4004C518.653 70.4004 517.4 71.654 517.4 73.2004C517.4 74.7468 518.653 76.0004 520.2 76.0004Z" fill="#F1F1F1"/>
<path d="M472.8 103.4C474.346 103.4 475.6 102.146 475.6 100.6C475.6 99.0534 474.346 97.7998 472.8 97.7998C471.254 97.7998 470 99.0534 470 100.6C470 102.146 471.254 103.4 472.8 103.4Z" fill="#F1F1F1"/>
<path d="M510.2 66.0004C511.746 66.0004 513 64.7468 513 63.2004C513 61.654 511.746 60.4004 510.2 60.4004C508.654 60.4004 507.4 61.654 507.4 63.2004C507.4 64.7468 508.654 66.0004 510.2 66.0004Z" fill="#F1F1F1"/>
<path d="M482.8 113.4C484.346 113.4 485.6 112.146 485.6 110.6C485.6 109.053 484.346 107.8 482.8 107.8C481.254 107.8 480 109.053 480 110.6C480 112.146 481.254 113.4 482.8 113.4Z" fill="#F1F1F1"/>
<path d="M325.1 498.5C390.104 498.5 442.8 485.516 442.8 469.5C442.8 453.484 390.104 440.5 325.1 440.5C260.096 440.5 207.4 453.484 207.4 469.5C207.4 485.516 260.096 498.5 325.1 498.5Z" fill="#294589"/>
<path d="M370.5 351.9C340 376.6 307.7 394.4 278.1 404.4C278.8 398.9 279 390.5 275.7 381.8C270.1 366.9 253 359.7 229.6 360.5C207.5 361.2 188.4 372.3 173.2 388.7C173.1 388.5 173 388.3 172.8 388.1C150 348.1 186.8 272.3 259 214C331.1 155.8 412.6 135.7 447.2 166.1C449 167.9 450.8 169.8 452.5 171.7C483.3 209.8 446.6 290.5 370.5 351.9Z" fill="#AAC8E9"/>
<path d="M172.9 388.2C174.1 390.1 175.4 392 176.8 393.9C175.3 392.1 174 390.2 172.9 388.2Z" fill="#F73737"/>
<path d="M452.5 171.6C450.8 169.7 449 167.9 447.2 166C449.1 167.8 450.9 169.6 452.5 171.6Z" fill="#F73737"/>
<path d="M156.2 135.7L97.7002 172.3L154.1 155.5L156.2 135.7Z" fill="#FFC93F"/>
<path d="M97.7002 172.3L154.1 155.5L160.5 168.6L153.3 163.9L97.7002 172.3Z" fill="#E6AA38"/>
<path d="M153.3 163.9L152.3 189.5L97.7002 172.3L153.3 163.9Z" fill="#FAAF49"/>
<path d="M266 131.5L339.4 157.3L331.5 176.7L282.9 167.5L266 131.5Z" fill="#88AAD8"/>
<path d="M457.8 167.5L389.1 163.3L383.7 179.5L414.9 201.2L459 171.6L457.8 167.5Z" fill="#96B7DF"/>
<path d="M469.7 186.3C469.2 188.4 468.6 189.9 467.9 190.8C466.3 192.7 465 193.4 465 193.4L462.6 194.8L411.9 249.1L320.3 341L252.1 294.3C252.1 294.3 261.2 287.1 271.1 280C281 272.8 296.1 250.8 299.4 244.6C302.7 238.4 300.9 234.5 299.4 232.2C297.9 229.9 289.9 215.4 278.3 196C266.7 176.7 260.9 159.8 259.7 146.1C258.5 132.4 266.1 131.6 266.1 131.6C266.1 131.6 296 170.1 301.5 179C307.1 188 316.4 199.7 323.4 200.3C330.4 200.9 342.6 195.1 342.6 195.1L367.5 199.6C367.5 199.6 387.4 203.1 392.3 204.3C397.3 205.5 398.7 205.6 402.5 203C406.4 200.4 457.9 167.7 457.9 167.7C457.9 167.7 462.8 167.4 465.6 169.4C469.9 172.4 471.2 179.5 469.7 186.3Z" fill="#FCFDFF"/>
<path d="M372.7 190.8C372.7 190.8 377.5 197.5 376.4 202.3C375.4 207.1 367 221.4 362.3 226.2C357.7 231 352.4 237.3 352.4 233C352.4 228.7 349.4 210.7 344.2 212.6C339 214.5 372.7 190.8 372.7 190.8Z" fill="#E6ECF7"/>
<path d="M341 191.9C341 191.9 341.1 209.5 339.3 216.1C337.6 222.7 335.6 232.2 335.6 232.2C335.6 232.2 342 225.8 343.4 221.2C344.8 216.6 343.5 210.6 349.9 210.6C356.3 210.6 360.7 207.5 365 203.2C369.2 198.9 374.3 192 374.5 187.5C374.7 183 374.5 170.3 374.5 170.3L356.9 177.7L341 191.9Z" fill="#96B6DF"/>
<path d="M341.7 130.4C341.7 130.4 334 142.7 330.7 156.9C327.3 171.1 321.6 191.2 330.7 193.1C339.8 195 354.1 197.1 360.3 190.8C366.5 184.5 369.6 177.2 375 176.1C380.4 175 392.2 165.2 392.2 165.2L387 133.3L354.7 124L341.7 130.4Z" fill="#C1D2EC"/>
<path d="M335.7 160.8L320.6 155.9L325.4 139.2L340.6 143.7L335.7 160.8ZM323.1 154.6L334.4 158.2L338.2 145.1L326.8 141.8L323.1 154.6Z" fill="black"/>
<path d="M342.9 86.5996C329.4 86.5996 324.5 97.7996 324.9 107.8C325.3 117.8 331.1 129.6 346 134.9C360.9 140.1 370.8 135.7 372.9 142.8C375 150 368.3 164.9 368.3 164.9L371.6 166.3C371.6 166.3 374.1 160.9 376.2 157.7C378.3 154.5 385.5 155.8 385.4 160.5C385.3 165.3 382.6 172.5 378.6 174.4C374.6 176.3 373.8 176.6 373.7 179.6C373.6 182.6 370.9 194.4 376 189.9C381.1 185.4 391.1 176.6 395 166.3C398.9 156 399.3 142.2 393.3 132.8C387.3 123.4 368 118.2 360.5 115.8C353 113.3 353.4 107.4 357.1 102.9C360.8 98.3996 357.8 86.5996 342.9 86.5996Z" fill="#315FA7"/>
<path d="M361.3 168.8L341.3 162.4L346.1 145.7L366.2 151.7L361.3 168.8ZM343.7 161.1L359.9 166.3L363.7 153.1L347.4 148.2L343.7 161.1Z" fill="black"/>
<path d="M337.583 150.667L336.999 152.58L344.459 154.859L345.043 152.946L337.583 150.667Z" fill="black"/>
<path d="M371.5 156.5H363.2V160.5H371.5V156.5Z" fill="black"/>
<path d="M356.3 158.4C350.5 158.4 349 154.8 348.9 154.6L350.8 153.9C350.9 154 352.2 157 357.8 156.4L358 158.4C357.4 158.3 356.9 158.4 356.3 158.4Z" fill="#747E8C"/>
<path d="M334.6 152.1C330.9 152.1 329.2 149.6 328.8 148.2L330.7 147.6C330.8 147.9 331.7 150.5 335.6 150L335.9 152C335.4 152.1 335 152.1 334.6 152.1Z" fill="#747E8C"/>
<path d="M170.6 289.7C170.6 289.7 127.5 296.9 119.8 297.9C112.1 298.9 111.5 308.2 111 315.2C110.5 322.2 109.2 357 106.9 379.2C104.6 401.4 98.1001 443.9 98.1001 443.9L129.3 454.3C129.3 454.3 145.3 405.5 150.5 384.9C155.7 364.3 157.9 349.1 155.5 343.7C153.2 338.3 155.3 337.8 158.4 341.1C161.5 344.4 179 352.3 192.8 355.4C206.6 358.5 219.6 360.5 232 360.6C244.4 360.7 306.3 346.1 306.3 346.1L311.5 328.2C311.5 328.2 299.7 318.8 292.7 312.2C285.7 305.6 259.6 303.9 259.6 303.9L170.6 289.7Z" fill="#284185"/>
<path d="M342.5 195C342.5 195 330.3 200.8 323.3 200.2C316.3 199.6 307 187.9 301.4 178.9C295.8 169.9 266 131.5 266 131.5C266 131.5 258.5 132.3 259.6 146C260.8 159.7 266.6 176.6 278.2 195.9C289.8 215.3 297.7 229.8 299.3 232.1C300.8 234.4 302.6 238.3 299.3 244.5C296 250.7 280.9 272.8 271 279.9C261.1 287 252 294.2 252 294.2L269.1 305.9C269.1 305.9 282.3 301.9 299.5 288C316.8 274.1 323.5 264 328.1 250.8C332.7 237.6 335.5 232 335.5 232C335.5 232 340.8 214.5 342.3 205.9C344 197.4 342.5 195 342.5 195Z" fill="#E8F0F9"/>
<path d="M308.2 330.2C308.2 330.2 282.9 308.7 246.8 283C210.7 257.2 175.6 239.4 160.6 234.5C145.6 229.6 145.1 232.2 136.1 238.6C127.1 245 77.5 288.1 77.5 288.1L94.3 319.6C94.3 319.6 100.4 313.9 108.9 307.5C117.4 301.1 123 301.4 135.8 291.8C148.6 282.2 149.3 277.7 154.1 281.1C158.9 284.5 175.1 298.2 183.8 309.9C192.5 321.5 200.6 333.5 205.9 348C211.1 362.5 217.7 373.5 230.3 378.6C242.9 383.6 288.9 377 288.9 377L308.2 330.2Z" fill="#315FA7"/>
<path d="M98.1002 443.9C98.1002 443.9 92.6002 452.8 83.7002 458.3C74.8002 463.8 62.6002 466.8 57.4002 468.3C52.2002 469.9 48.2002 482.3 48.2002 482.3L94.5002 482.4L104.3 472.6H106.8V478.9H121L122.5 451.3L98.1002 443.9Z" fill="#7B9ACF"/>
<path d="M82.1001 296.6C82.1001 296.6 71.9001 299 61.7001 296.6C51.5001 294.2 40.8001 287.7 36.0001 285.1C31.2001 282.5 19.6001 288.5 19.6001 288.5L52.2001 321.3H66.0001L67.7001 323L63.2001 327.5L73.3001 337.6L93.9001 319.1L82.1001 296.6Z" fill="#7B9ACF"/>
<path d="M462.6 194.9C462.6 194.9 433.1 199.4 415.5 217.4C398 235.5 386.1 264.8 381.4 282.9C376.8 301 458.9 297.6 458.9 297.6L482.7 230L470.2 196.2L462.6 194.9Z" fill="#98B8E0"/>
<path d="M441.8 290.6C441.8 290.6 435.6 267.6 413.7 262.1C391.8 256.7 369.6 261.5 353.5 277.4C337.4 293.3 323.9 323.9 317.3 354.2C310.7 384.6 385.6 396 385.6 396L441.8 290.6Z" fill="#85A7D7"/>
<path d="M366.5 365.5C366.5 365.5 367.1 352.9 360.1 342.9C353.1 332.9 335.9 320.3 313 325.5C290.2 330.7 269.8 342.5 255.7 375C245.4 398.8 280.5 429.6 280.5 429.6L366.5 365.5Z" fill="#80A3D5"/>
<path d="M278.1 404.5C233.9 419.5 195.4 417.1 177 394.3C176.9 394.2 176.8 394.1 176.7 393.9C175.5 392.2 174.3 390.5 173.2 388.8C188.5 372.4 207.5 361.3 229.6 360.6C253 359.8 270 367 275.7 381.9C279 390.6 278.8 399 278.1 404.5Z" fill="#789CD0"/>
<path d="M499.3 291.7C499.3 389.7 419.8 469.2 321.8 469.2C261.8 469.2 208.8 439.4 176.7 393.9C176.8 394 176.9 394.1 177 394.3C207.8 432.4 294.4 413.4 370.5 352C433.4 301.1 469.5 237.1 462.6 195L464.7 193.8C464.7 193.8 466.1 193.1 467.9 191C487.7 219.5 499.3 254.2 499.3 291.7Z" fill="#2C5096"/>
<defs>
<linearGradient id="paint0_linear_553_441" x1="133.3" y1="438.52" x2="496.216" y2="173.896" gradientUnits="userSpaceOnUse">
<stop stop-color="white" stop-opacity="0.1"/>
<stop offset="1" stop-color="white" stop-opacity="0.5"/>
</linearGradient>
<linearGradient id="paint1_linear_553_441" x1="141.739" y1="156.489" x2="435.538" y2="434.638" gradientUnits="userSpaceOnUse">
<stop stop-color="white" stop-opacity="0.5"/>
<stop offset="1" stop-color="white" stop-opacity="0.2"/>
</linearGradient>
<linearGradient id="paint2_linear_553_441" x1="404.434" y1="303.398" x2="243.131" y2="514.004" gradientUnits="userSpaceOnUse">
<stop stop-color="white" stop-opacity="0.1"/>
<stop offset="1" stop-color="white" stop-opacity="0.5"/>
</linearGradient>
<linearGradient id="paint3_linear_553_441" x1="75.6633" y1="421.063" x2="564.72" y2="167.753" gradientUnits="userSpaceOnUse">
<stop stop-color="white" stop-opacity="0.7"/>
<stop offset="1" stop-color="white"/>
</linearGradient>
</defs>
</svg>
