<svg width="621" height="599" viewBox="0 0 621 599" fill="none" xmlns="http://www.w3.org/2000/svg">
<path d="M307.5 543C245.4 543 187 518.9 143.1 475.2C99.2 431.5 75 373.3 75 311.5C75 249.6 99.2 191.5 143.1 147.8C187 104.1 245.4 80 307.5 80C369.6 80 428 104.1 471.9 147.8C515.8 191.5 540 249.7 540 311.5C540 373.3 515.8 431.5 471.9 475.2C428 518.9 369.6 543 307.5 543ZM307.5 112C196.9 112 107 201.5 107 311.5C107 421.5 196.9 511 307.5 511C418.1 511 508 421.5 508 311.5C508 201.5 418.1 112 307.5 112Z" fill="url(#paint0_linear_771_2267)"/>
<path d="M306 472C394.366 472 466 400.366 466 312C466 223.634 394.366 152 306 152C217.634 152 146 223.634 146 312C146 400.366 217.634 472 306 472Z" fill="url(#paint1_linear_771_2267)"/>
<path d="M327 517C221.6 517 139 467.6 139 404.5C139 341.4 221.6 292 327 292C432.4 292 515 341.4 515 404.5C515 467.6 432.4 517 327 517ZM327 328C284.6 328 245 337 215.5 353.4C189.7 367.7 175 386.3 175 404.5C175 422.6 189.8 441.3 215.5 455.6C245 472 284.6 481 327 481C369.4 481 409 472 438.5 455.6C464.3 441.3 479 422.7 479 404.5C479 386.4 464.2 367.7 438.5 353.4C409 337 369.4 328 327 328Z" fill="url(#paint2_linear_771_2267)"/>
<path d="M320.1 560.4C317.9 560.4 316.1 558.7 316.1 556.5C316.1 554.3 317.8 552.5 320 552.4C325.6 552.3 331.2 552 336.7 551.6C338.9 551.4 340.8 553.1 341 555.3C341.2 557.5 339.5 559.4 337.3 559.6C331.6 560 325.8 560.3 320.1 560.4ZM301.1 560.1C301 560.1 301 560.1 300.9 560.1C295.2 559.8 289.4 559.3 283.7 558.7C281.5 558.5 279.9 556.5 280.2 554.3C280.4 552.1 282.4 550.5 284.6 550.8C290.1 551.4 295.8 551.9 301.3 552.2C303.5 552.3 305.2 554.2 305.1 556.4C305 558.4 303.2 560.1 301.1 560.1ZM355.9 557.5C353.9 557.5 352.2 556.1 351.9 554.1C351.6 551.9 353.1 549.9 355.3 549.6C360.8 548.8 366.3 547.8 371.8 546.7C374 546.2 376.1 547.6 376.5 549.8C376.9 552 375.6 554.1 373.4 554.5C367.8 555.7 362.1 556.7 356.4 557.5C356.3 557.5 356.1 557.5 355.9 557.5ZM265.3 556C265.1 556 264.8 556 264.6 555.9C259 554.9 253.3 553.7 247.7 552.4C245.6 551.9 244.2 549.7 244.7 547.6C245.2 545.5 247.4 544.1 249.5 544.6C254.9 545.9 260.4 547 265.9 548C268.1 548.4 269.5 550.5 269.1 552.6C268.9 554.6 267.2 556 265.3 556ZM391.1 550C389.4 550 387.8 548.8 387.3 547.1C386.7 545 387.9 542.8 390.1 542.2C395.4 540.7 400.8 539 406 537.2C408.1 536.5 410.4 537.6 411.1 539.7C411.8 541.8 410.7 544.1 408.6 544.8C403.2 546.7 397.7 548.4 392.2 550C391.8 550 391.4 550 391.1 550ZM230.4 547.5C230 547.5 229.6 547.4 229.2 547.3C223.7 545.6 218.3 543.7 212.9 541.7C210.8 540.9 209.8 538.6 210.6 536.5C211.4 534.4 213.7 533.4 215.8 534.2C221 536.2 226.3 538 231.6 539.7C233.7 540.4 234.9 542.6 234.2 544.7C233.7 546.4 232.1 547.5 230.4 547.5ZM424.9 538C423.4 538 421.9 537.1 421.2 535.6C420.3 533.6 421.3 531.2 423.3 530.3C428.4 528.1 433.5 525.7 438.4 523.2C440.4 522.2 442.8 523 443.8 525C444.8 527 444 529.4 442 530.4C436.9 533 431.7 535.4 426.4 537.7C426 537.9 425.5 538 424.9 538ZM196.8 534.6C196.2 534.6 195.7 534.5 195.1 534.2C189.9 531.8 184.7 529.2 179.7 526.5C177.8 525.5 177 523 178.1 521.1C179.1 519.2 181.6 518.4 183.5 519.5C188.4 522.1 193.5 524.6 198.5 526.9C200.5 527.8 201.4 530.2 200.5 532.2C199.8 533.7 198.3 534.6 196.8 534.6ZM456.9 521.6C455.5 521.6 454.2 520.9 453.5 519.7C452.4 517.8 453 515.3 454.9 514.2C459.7 511.3 464.4 508.3 469 505.1C470.8 503.8 473.3 504.3 474.6 506.1C475.9 507.9 475.4 510.4 473.6 511.7C468.9 514.9 464 518.1 459.1 521C458.3 521.4 457.6 521.6 456.9 521.6ZM165.1 517.5C164.4 517.5 163.6 517.3 163 516.9C158.1 513.9 153.3 510.6 148.7 507.3C146.9 506 146.5 503.5 147.8 501.7C149.1 499.9 151.6 499.5 153.4 500.8C157.9 504 162.6 507.2 167.3 510.1C169.2 511.3 169.7 513.7 168.6 515.6C167.8 516.9 166.5 517.5 165.1 517.5ZM486.4 501C485.2 501 484.1 500.5 483.3 499.5C481.9 497.8 482.2 495.3 483.9 493.9C488.2 490.4 492.5 486.7 496.6 483C498.2 481.5 500.8 481.6 502.3 483.2C503.8 484.8 503.7 487.4 502.1 488.9C497.9 492.8 493.5 496.5 489 500.1C488.2 500.8 487.3 501 486.4 501ZM135.9 496.4C135 496.4 134.1 496.1 133.4 495.5C129 491.8 124.6 488 120.4 484.1C118.8 482.6 118.7 480.1 120.2 478.4C121.7 476.8 124.2 476.7 125.9 478.2C130 482 134.2 485.7 138.5 489.3C140.2 490.7 140.4 493.2 139 494.9C138.2 495.9 137.1 496.4 135.9 496.4ZM512.8 476.6C511.8 476.6 510.8 476.2 510.1 475.5C508.5 474 508.4 471.5 509.9 469.8C513.7 465.7 517.4 461.5 520.9 457.2C522.3 455.5 524.8 455.2 526.5 456.6C528.2 458 528.5 460.5 527.1 462.2C523.5 466.6 519.6 471 515.7 475.2C515 476.2 513.9 476.6 512.8 476.6ZM109.8 471.7C108.7 471.7 107.7 471.3 106.9 470.4C103 466.2 99.1998 461.8 95.5998 457.4C94.1998 455.7 94.4998 453.2 96.1998 451.8C97.8998 450.4 100.4 450.7 101.8 452.4C105.3 456.7 109 461 112.8 465C114.3 466.6 114.2 469.2 112.6 470.7C111.7 471.4 110.8 471.7 109.8 471.7ZM535.5 448.7C534.7 448.7 533.9 448.5 533.2 448C531.4 446.7 531 444.2 532.2 442.4C535.4 437.8 538.5 433.1 541.3 428.4C542.4 426.5 544.9 425.9 546.8 427C548.7 428.1 549.3 430.6 548.2 432.5C545.2 437.4 542.1 442.3 538.8 447C538 448.1 536.8 448.7 535.5 448.7ZM87.1998 443.7C85.8998 443.7 84.6998 443.1 83.8998 442C80.5998 437.3 77.3998 432.4 74.3998 427.6C73.1998 425.7 73.7998 423.3 75.6998 422.1C77.5998 420.9 79.9998 421.5 81.1998 423.4C84.0998 428.1 87.1998 432.8 90.3998 437.4C91.6998 439.2 91.1998 441.7 89.3998 443C88.7998 443.5 87.9998 443.7 87.1998 443.7ZM554 417.9C553.4 417.9 552.8 417.8 552.2 417.5C550.2 416.5 549.4 414.1 550.4 412.1C552.9 407.1 555.2 402 557.4 396.9C558.3 394.9 560.6 393.9 562.6 394.8C564.6 395.7 565.6 398 564.7 400C562.5 405.3 560.1 410.6 557.5 415.7C556.9 417.1 555.5 417.9 554 417.9ZM68.5998 412.9C67.0998 412.9 65.6998 412.1 64.9998 410.7C62.3998 405.6 59.8998 400.3 57.5998 395.1C56.6998 393.1 57.6998 390.7 59.6998 389.8C61.6998 388.9 64.0998 389.9 64.9998 391.9C67.1998 397 69.5998 402.1 72.0998 407C73.0998 409 72.2998 411.4 70.3998 412.4C69.7998 412.8 69.1998 412.9 68.5998 412.9ZM567.7 384.6C567.3 384.6 566.9 384.5 566.4 384.4C564.3 383.7 563.2 381.4 563.9 379.4C565.6 374.1 567.2 368.7 568.6 363.4C569.1 361.3 571.3 360 573.5 360.5C575.6 361 576.9 363.2 576.4 365.4C575 371 573.4 376.5 571.6 382C571 383.5 569.4 384.6 567.7 384.6ZM54.3998 379.9C52.6998 379.9 51.1998 378.9 50.5998 377.2C48.6998 371.8 46.9998 366.2 45.4998 360.7C44.8998 358.6 46.1998 356.4 48.2998 355.8C50.3998 355.2 52.5998 356.5 53.1998 358.6C54.6998 363.9 56.2998 369.3 58.0998 374.6C58.7998 376.7 57.6998 379 55.5998 379.7C55.2998 379.8 54.8998 379.9 54.3998 379.9ZM576.5 349.7C576.3 349.7 576 349.7 575.8 349.6C573.6 349.2 572.2 347.2 572.5 345C573.5 339.5 574.2 334 574.8 328.4C575 326.2 577 324.6 579.2 324.8C581.4 325 583 327 582.8 329.2C582.2 334.9 581.4 340.7 580.4 346.3C580.1 348.4 578.4 349.7 576.5 349.7ZM45.0998 345.1C43.1998 345.1 41.4998 343.8 41.1998 341.8C40.0998 336.2 39.1998 330.4 38.5998 324.8C38.2998 322.6 39.8998 320.6 42.0998 320.4C44.2998 320.1 46.2998 321.7 46.4998 323.9C47.1998 329.4 47.9998 334.9 49.0998 340.4C49.4998 342.6 48.0998 344.7 45.8998 345.1C45.5998 345.1 45.3998 345.1 45.0998 345.1ZM580 313.9C577.7 313.8 575.9 312 576 309.8C576.1 307.8 576.1 305.7 576.1 303.6C576.1 300.1 576 296.5 575.9 293C575.8 290.8 577.5 288.9 579.7 288.8C581.9 288.7 583.8 290.4 583.9 292.6C584.1 296.2 584.1 299.9 584.1 303.5C584.1 305.6 584.1 307.8 584 309.9C583.9 312.2 582.2 313.9 580 313.9ZM40.9998 309.4C38.8998 309.4 37.0998 307.7 36.9998 305.6C36.8998 302.2 36.7998 298.7 36.7998 295.3C36.7998 293 36.7998 290.7 36.8998 288.4C36.9998 286.2 38.7998 284.5 40.9998 284.5C43.1998 284.6 44.8998 286.4 44.8998 288.6C44.7998 290.8 44.7998 293.1 44.7998 295.3C44.7998 298.6 44.8998 302 44.9998 305.3C45.0998 307.5 43.3998 309.4 41.1998 309.5C41.0998 309.4 41.0998 309.4 40.9998 309.4ZM578.3 278C576.3 278 574.6 276.5 574.3 274.5C573.6 269 572.8 263.4 571.7 258C571.3 255.8 572.7 253.7 574.9 253.3C577.1 252.9 579.2 254.3 579.6 256.5C580.7 262.1 581.6 267.9 582.3 273.5C582.6 275.7 581 277.7 578.8 278C578.6 278 578.4 278 578.3 278ZM42.1998 273.5C42.0998 273.5 41.8998 273.5 41.7998 273.5C39.5998 273.3 37.9998 271.3 38.1998 269.1C38.7998 263.4 39.5998 257.7 40.5998 252C40.9998 249.8 43.0998 248.4 45.1998 248.8C47.3998 249.2 48.7998 251.3 48.3998 253.4C47.3998 258.9 46.5998 264.5 46.0998 270C45.8998 272 44.1998 273.5 42.1998 273.5ZM571.3 242.8C569.5 242.8 567.9 241.6 567.4 239.9C565.9 234.6 564.3 229.2 562.4 223.9C561.7 221.8 562.8 219.5 564.9 218.8C567 218.1 569.3 219.2 570 221.3C571.9 226.7 573.6 232.3 575.1 237.8C575.7 239.9 574.4 242.1 572.3 242.7C572 242.7 571.7 242.8 571.3 242.8ZM48.4998 238.1C48.1998 238.1 47.7998 238.1 47.4998 238C45.3998 237.5 44.0998 235.3 44.5998 233.1C45.9998 227.5 47.6998 222 49.4998 216.5C50.1998 214.4 52.4998 213.3 54.5998 214C56.6998 214.7 57.7998 217 57.0998 219.1C55.3998 224.4 53.7998 229.8 52.3998 235.1C51.8998 236.9 50.2998 238.1 48.4998 238.1ZM559.4 208.9C557.9 208.9 556.4 208 555.7 206.5C553.5 201.4 551.1 196.3 548.5 191.4C547.5 189.4 548.3 187 550.2 186C552.2 185 554.6 185.8 555.6 187.7C558.2 192.8 560.7 198 563 203.3C563.9 205.3 563 207.7 560.9 208.6C560.4 208.8 559.9 208.9 559.4 208.9ZM59.9998 204C59.4998 204 58.9998 203.9 58.4998 203.7C56.4998 202.8 55.4998 200.5 56.3998 198.5C58.5998 193.2 61.0998 187.9 63.6998 182.8C64.6998 180.8 67.0998 180 69.0998 181C71.0998 182 71.8998 184.4 70.8998 186.4C68.3998 191.4 65.9998 196.5 63.8998 201.6C62.9998 203.1 61.5998 204 59.9998 204ZM542.7 177C541.4 177 540 176.3 539.3 175.1C536.4 170.4 533.3 165.7 530.1 161.1C528.8 159.3 529.3 156.8 531.1 155.5C532.9 154.2 535.4 154.7 536.7 156.5C540 161.2 543.2 166 546.2 170.9C547.4 172.8 546.8 175.2 544.9 176.4C544.2 176.8 543.4 177 542.7 177ZM76.3998 172C75.6998 172 74.9998 171.8 74.2998 171.4C72.3998 170.3 71.7998 167.8 72.9998 165.9C75.9998 161 79.1998 156.1 82.4998 151.4C83.7998 149.6 86.2998 149.2 88.0998 150.4C89.8998 151.7 90.2998 154.2 89.0998 156C85.8998 160.5 82.7998 165.3 79.8998 170C78.9998 171.3 77.6998 172 76.3998 172ZM521.9 147.6C520.7 147.6 519.6 147.1 518.8 146.1C515.3 141.8 511.6 137.6 507.8 133.5C506.3 131.9 506.4 129.4 508 127.8C509.6 126.2 512.1 126.4 513.7 128C517.6 132.2 521.4 136.6 525.1 141C526.5 142.7 526.2 145.2 524.5 146.6C523.7 147.3 522.8 147.6 521.9 147.6ZM97.1998 142.7C96.2998 142.7 95.3998 142.4 94.6998 141.8C92.9998 140.4 92.7998 137.9 94.1998 136.2C97.7998 131.8 101.7 127.4 105.6 123.3C107.1 121.7 109.6 121.6 111.3 123.1C112.9 124.6 113 127.1 111.5 128.8C107.7 132.8 104 137.1 100.4 141.3C99.4998 142.2 98.2998 142.7 97.1998 142.7ZM497.3 121.4C496.3 121.4 495.3 121 494.6 120.3C490.5 116.5 486.3 112.8 482 109.2C480.3 107.8 480.1 105.3 481.5 103.6C482.9 101.9 485.4 101.7 487.1 103.1C491.5 106.7 495.9 110.6 500.1 114.5C501.7 116 501.8 118.5 500.3 120.2C499.4 121 498.3 121.4 497.3 121.4ZM122 116.6C120.9 116.6 119.8 116.2 119 115.3C117.5 113.7 117.6 111.1 119.3 109.6C123.5 105.7 127.9 102 132.4 98.4001C134.1 97.0001 136.6 97.3001 138 99.0001C139.4 100.7 139.1 103.2 137.4 104.6C133.1 108.1 128.8 111.7 124.7 115.5C123.9 116.3 123 116.6 122 116.6ZM469.4 98.6001C468.6 98.6001 467.8 98.4001 467.1 97.9001C462.6 94.7001 457.9 91.5001 453.2 88.6001C451.3 87.4001 450.8 85.0001 451.9 83.1001C453.1 81.2001 455.5 80.7001 457.4 81.8001C462.3 84.8001 467.1 88.1001 471.8 91.4001C473.6 92.7001 474 95.2001 472.7 97.0001C471.9 98.0001 470.6 98.6001 469.4 98.6001ZM150.2 94.3001C148.9 94.3001 147.7 93.7001 146.9 92.6001C145.6 90.8001 146.1 88.3001 147.9 87.0001C152.6 83.8001 157.5 80.6001 162.4 77.7001C164.3 76.6001 166.8 77.2001 167.9 79.1001C169 81.0001 168.4 83.5001 166.5 84.6001C161.7 87.5001 157 90.5001 152.4 93.6001C151.7 94.0001 150.9 94.3001 150.2 94.3001ZM438.8 79.7001C438.2 79.7001 437.5 79.5001 436.9 79.2001C432 76.6001 426.9 74.1001 421.9 71.8001C419.9 70.9001 419 68.5001 419.9 66.5001C420.8 64.5001 423.2 63.6001 425.2 64.5001C430.4 66.9001 435.6 69.4001 440.7 72.1001C442.6 73.1001 443.4 75.6001 442.4 77.5001C441.6 78.9001 440.2 79.7001 438.8 79.7001ZM181.1 75.9001C179.6 75.9001 178.2 75.1001 177.5 73.7001C176.5 71.7001 177.3 69.3001 179.3 68.3001C184.4 65.7001 189.7 63.3001 194.9 61.0001C196.9 60.1001 199.3 61.1001 200.2 63.1001C201.1 65.1001 200.1 67.5001 198.1 68.4001C193 70.6001 187.9 73.0001 182.9 75.5001C182.3 75.8001 181.7 75.9001 181.1 75.9001ZM406 64.8001C405.5 64.8001 405.1 64.7001 404.6 64.5001C399.4 62.5001 394.1 60.7001 388.8 59.1001C386.7 58.4001 385.5 56.2001 386.2 54.1001C386.9 52.0001 389.1 50.8001 391.2 51.5001C396.7 53.2001 402.2 55.1001 407.5 57.1001C409.6 57.9001 410.6 60.2001 409.8 62.3001C409.2 63.9001 407.6 64.8001 406 64.8001ZM214.2 61.9001C212.5 61.9001 211 60.9001 210.4 59.2001C209.7 57.1001 210.8 54.8001 212.9 54.1001C218.3 52.2001 223.8 50.5001 229.3 48.9001C231.4 48.3001 233.6 49.5001 234.2 51.7001C234.8 53.8001 233.6 56.0001 231.4 56.6001C226.1 58.1001 220.7 59.8001 215.4 61.6001C215.1 61.8001 214.6 61.9001 214.2 61.9001ZM371.6 54.3001C371.3 54.3001 371 54.3001 370.7 54.2001C365.3 52.9001 359.8 51.8001 354.3 50.8001C352.1 50.4001 350.7 48.3001 351.1 46.2001C351.5 44.0001 353.6 42.6001 355.7 43.0001C361.3 44.0001 367 45.2001 372.6 46.5001C374.7 47.0001 376.1 49.2001 375.6 51.3001C375.1 53.1001 373.4 54.3001 371.6 54.3001ZM248.8 52.3001C246.9 52.3001 245.3 51.0001 244.9 49.1001C244.5 46.9001 245.8 44.8001 248 44.4001C253.6 43.2001 259.3 42.2001 265 41.4001C267.2 41.1001 269.2 42.6001 269.5 44.8001C269.8 47.0001 268.3 49.0001 266.1 49.3001C260.6 50.1001 255 51.1001 249.6 52.2001C249.3 52.3001 249.1 52.3001 248.8 52.3001ZM337.3 48.3001C337.1 48.3001 337 48.3001 336.8 48.3001C331.3 47.7001 325.6 47.2001 320.1 46.9001C317.9 46.8001 316.2 44.9001 316.3 42.7001C316.4 40.5001 318.3 38.8001 320.5 38.9001C326.2 39.2001 332 39.7001 337.7 40.3001C339.9 40.5001 341.5 42.5001 341.2 44.7001C341.1 46.8001 339.3 48.3001 337.3 48.3001ZM284.4 47.3001C282.3 47.3001 280.6 45.7001 280.4 43.6001C280.2 41.4001 281.9 39.5001 284.1 39.3001C289.8 38.9001 295.6 38.6001 301.3 38.5001C303.5 38.4001 305.3 40.2001 305.4 42.4001C305.4 44.6001 303.7 46.4001 301.5 46.5001C295.9 46.6001 290.3 46.8001 284.8 47.2001C284.6 47.3001 284.5 47.3001 284.4 47.3001Z" fill="url(#paint3_linear_771_2267)"/>
<path d="M198.4 510.5L196.8 516.4L193.2 522.5L213.5 523.7L212.7 511.5L198.4 510.5Z" fill="#F7A491"/>
<path d="M195 519.6L172.7 529.2V533.4H214.6V520.6L211.6 519.3L207.3 522.4H197.8L195 519.6Z" fill="#184655"/>
<path d="M256.1 510.5L254.5 516.4L250.9 522.5L271.2 523.7L270.4 511.5L256.1 510.5Z" fill="#F7A491"/>
<path d="M252.7 519.6L230.3 529.2V533.4H272.3V520.6L269.3 519.3L265 522.4H255.5L252.7 519.6Z" fill="#184655"/>
<path d="M215.4 319.5C215.4 319.5 197 417.6 195.6 423.5C194.2 429.4 194.6 511.6 194.6 511.6H212.9C212.9 511.6 218 468.9 219.7 456C221.3 443.1 221.3 430.4 221.3 430.4L251.5 360L247.4 317.2L215.4 319.5Z" fill="#355389"/>
<path d="M232.8 324.6C232.8 324.6 241.8 377.1 244.1 401.7C246.4 426.3 251.7 512.7 251.7 512.7H270.6C270.6 512.7 273.2 478.4 274 460.8C274.9 443.2 273.6 434.5 274.8 415.5C276 396.5 279.2 366.6 280.4 351.7C282.1 329.6 276.7 322.5 276.7 322.5L232.8 324.6Z" fill="#466EB6"/>
<path d="M248.3 186.6C248.3 186.6 240.9 186.7 233.7 188.8C226.5 190.9 215.5 196.6 213.6 207.4C211.7 218.3 211.8 253.6 211.8 253.6L221 251C221 251 221.3 258.7 220.1 272.8C218.9 286.9 213.4 322.9 213.4 322.9C213.4 322.9 222.8 327.1 245 327.1C267.2 327.1 278.6 322.9 278.6 322.9C278.6 322.9 276.7 298.8 276.9 283C277.1 267.2 280.4 260.3 280.4 260.3L284.5 261.5C284.5 261.5 294 229.7 296.7 219.3C299.4 208.9 297.1 194.6 285.9 191.3C274.7 188 266.8 186.8 266.8 186.8L248.3 186.6Z" fill="#50BFA5"/>
<path d="M247.5 176.6C247.5 176.6 247.7 186.1 246.8 191.5C245.9 196.9 243.6 210.2 250.2 210.2C256.8 210.2 266.9 191.7 266.9 186.7C266.9 181.7 265.8 175.4 265.8 169.5C265.8 163.5 247.5 176.6 247.5 176.6Z" fill="#F7A491"/>
<path d="M153.7 225C156.7 208.4 145.6 192.3 129 189.3C112.3 186.2 96.4002 197.2 93.3002 214C90.3002 230.6 101.4 246.7 118 249.7C134.6 252.7 150.7 241.7 153.7 225Z" fill="#F58A97"/>
<path d="M118.5 181C112.7 181.6 107 183.7 102.1 186.8C97.0998 189.9 92.8998 194.2 89.8998 199.3C86.8998 204.3 84.9998 210 84.3998 215.8C83.7998 221.7 84.6998 227.6 86.7998 233C89.2998 239.3 93.2998 244.9 98.4998 249.2C103.5 253.2 109.3 256 115.6 257.1C121.9 258.2 128.3 257.9 134.4 256C140.5 254.1 146 250.7 150.5 246.2C155 241.7 158.2 236 160 230C161.8 223.8 162 217.5 160.7 211.3C159.4 205.1 156.5 199.2 152.3 194.4C148.1 189.5 143 185.8 137 183.4C131.2 181.1 124.9 180.2 118.5 181ZM151.7 224.5C150.7 230.2 148 235.4 143.9 239.6C139.9 243.7 134.7 246.6 129 247.8C123.3 249 117.4 248.5 112.1 246.4C106.8 244.3 102.1 240.7 98.7998 235.9C95.4998 231.1 93.6998 225.6 93.5998 219.7C93.4998 214 95.1998 208.3 98.2998 203.4C101.4 198.5 106 194.8 111.2 192.5C116.6 190.2 122.4 189.6 128 190.6C135.7 192 142.4 196.4 146.8 202.8C151.4 209.1 153.1 217 151.7 224.5Z" fill="#EB5569"/>
<path d="M120.9 227.299C121.6 223.299 118.9 219.499 114.9 218.799C110.9 218.099 107 220.699 106.3 224.599C105.6 228.599 108.3 232.399 112.3 233.099C116.4 233.899 120.2 231.399 120.9 227.299Z" fill="#EB5569"/>
<path d="M85.2001 247.4C85.5001 247.4 85.6001 247.5 85.8001 247.5C87.9001 248 89.8001 249.3 90.9001 251C92.1001 252.8 92.5001 254.9 92.1001 257.1C91.7001 259.2 90.5001 261.1 88.7001 262.2C86.9001 263.4 84.8001 263.8 82.6001 263.4C80.5001 263 78.6001 261.8 77.4001 260.1C76.2001 258.3 75.7001 256.1 76.0001 254.1C76.4001 252 77.5001 250.1 79.3001 248.9C81.0001 247.6 83.2001 247.1 85.2001 247.4Z" fill="#EB5569"/>
<path d="M90.6998 240.5C92.7998 243.7 95.4998 246.7 98.6998 249.2C97.1998 249.3 95.8998 249.8 94.6998 250.7C93.4998 251.5 92.4998 252.6 91.8998 254C91.6998 252.4 90.8998 251 89.7998 249.8C88.6998 248.7 87.2998 247.8 85.7998 247.4C87.0998 246.9 88.0998 246 88.9998 245C89.7998 244 90.4998 242.7 90.5998 241.4C90.5998 241.1 90.6998 240.8 90.6998 240.5Z" fill="#EB5569"/>
<path d="M158.6 188.3C158.5 188.3 158.2 188.2 158.1 188.2C156.6 187.9 155.2 187.3 153.9 186.3C152.7 185.3 151.9 183.9 151.5 182.4C151.3 181.5 151.2 180.5 151.3 179.5C151.5 177.8 152 176.4 153.1 175.2C154.1 174 155.4 173 157.1 172.6C158.6 172.1 160.3 172.1 161.9 172.6C163.5 173 164.9 173.9 165.9 175.1C167 176.3 167.6 177.9 167.8 179.5C168 181.1 167.7 182.7 166.9 184.2C166.1 185.6 165 186.8 163.5 187.6C161.8 188.1 160.2 188.5 158.6 188.3Z" fill="#EB5569"/>
<path d="M153.8 195.8C151.4 192.8 148.4 190 145 187.8C146.5 187.5 147.8 186.9 148.8 186C149.8 185.1 150.7 183.9 151.3 182.4C151.7 183.9 152.6 185.2 153.7 186.3C154.9 187.3 156.4 188.1 157.9 188.2C156.7 188.9 155.7 189.7 154.9 190.9C154.2 192.1 153.7 193.3 153.6 194.7C153.7 195.1 153.7 195.4 153.8 195.8Z" fill="#EB5569"/>
<path d="M72.7 212.7C72.9 212.9 73 213.1 73.2 213.4C74.9 216.1 75.5 219.2 75 222.2C74.5 225.2 72.6 228 70.1 229.8C67.4 231.5 64.3 232.3 61.2 231.7C58.2 231.1 55.4 229.5 53.5 226.9C51.6 224.3 50.9 221.2 51.5 218.2C51.9 215.2 53.6 212.3 56.2 210.5C58.8 208.6 61.9 207.9 64.9 208.2C68 208.5 70.7 210.2 72.7 212.7Z" fill="#EB5569"/>
<path d="M85.4001 210.6C84.5001 216.3 84.6001 222.1 85.5001 227.9C83.8001 226.5 81.7001 225.8 79.7001 225.5C77.5001 225.2 75.4001 225.5 73.4001 226.4C74.7001 224.4 75.2001 222.2 75.2001 219.8C75.1001 217.4 74.5001 215.2 73.1001 213.3C75.2001 213.9 77.5001 214.1 79.7001 213.6C81.8001 213.2 83.8001 212.1 85.4001 210.6Z" fill="#EB5569"/>
<path d="M135.1 170C134.8 170.2 134.7 170.3 134.4 170.4C131.7 171.8 128.4 172.2 125.4 171.2C122.4 170.4 119.8 168.4 118.2 165.7C117.7 164.8 117.2 163.8 116.9 162.9C116.3 160.7 116.2 158.3 116.8 156.1C117.3 153.9 118.6 151.9 120.3 150.2C122 148.7 124 147.5 126.3 147.1C128.6 146.6 130.9 146.9 133.1 147.7C135.3 148.5 137.1 150 138.5 151.8C139.9 153.6 140.7 155.9 141 158.1C141.2 160.4 140.8 162.7 139.7 164.7C138.6 167 137 168.8 135.1 170Z" fill="#EB5569"/>
<path d="M135.8 183.1C130 181.5 124.1 180.8 118.1 181C119.7 179.5 120.7 177.4 121.2 175.3C121.7 173.2 121.6 171 120.9 168.9C122.7 170.4 125 171.3 127.3 171.5C129.6 171.8 132 171.3 134.2 170.3C133.4 172.1 133 174.1 133 176.2C133.2 178.2 133.7 180.2 134.8 181.9C135.1 182.4 135.5 182.8 135.8 183.1Z" fill="#EB5569"/>
<path d="M63.2 256.8C64 252.4 61 248.1 56.6 247.3C52.1 246.5 47.9 249.5 47.1 253.9C46.3 258.3 49.3 262.6 53.7 263.4C58.1 264.2 62.4 261.2 63.2 256.8Z" fill="#EB5569"/>
<path d="M165.2 277.5C165.7 274.7 163.8 272.2 161.2 271.7C158.4 271.2 155.9 273.1 155.4 275.7C154.9 278.5 156.8 281 159.4 281.5C162 282 164.7 280.3 165.2 277.5Z" fill="#EB5569"/>
<path d="M194.3 183.6C195.1 179.2 192.1 174.9 187.7 174.1C183.2 173.3 179 176.3 178.2 180.7C177.4 185.1 180.4 189.4 184.8 190.2C189.2 191.1 193.5 188.1 194.3 183.6Z" fill="#EB5569"/>
<path d="M89.6001 164.8C91.1001 165.1 92.5001 165.9 93.6001 166.8C94.7001 167.9 95.5001 169.2 95.9001 170.7C96.1001 171.8 96.2001 172.8 96.0001 173.8L95.9001 174.2C95.4001 176.1 94.4001 177.7 92.8001 178.8C91.3001 180 89.4001 180.4 87.5001 180.3C87.2001 180.3 87.0001 180.2 86.7001 180.2C84.7001 179.8 82.8001 178.7 81.6001 176.9C80.4001 175.1 80.0001 173.1 80.3001 171C80.7001 168.9 81.9001 167.1 83.6001 165.9C85.5001 164.8 87.6001 164.4 89.6001 164.8Z" fill="#EB5569"/>
<path d="M95.8999 174.3C96.1999 176.8 97.3999 179.1 98.8999 181.1C100.6 183 102.7 184.4 105.2 185C101 187.2 97.2999 190 93.9999 193.6C94.3999 190.9 93.8999 188.3 92.7999 186C91.6999 183.6 89.6999 181.7 87.3999 180.5C89.2999 180.7 91.1999 180.2 92.6999 179C94.3999 177.8 95.4999 176.1 95.8999 174.3Z" fill="#EB5569"/>
<path d="M191.3 221C190 222.3 188.6 223.2 186.8 223.7C185 224.2 183.2 224.1 181.5 223.5C180.3 223.1 179.2 222.4 178.3 221.6C178.2 221.5 178.1 221.4 178 221.3C176.5 219.7 175.4 217.6 175.3 215.4C175.2 213.2 175.9 211 177.2 209.2C177.4 209 177.5 208.7 177.7 208.5C178.5 207.6 179.6 206.9 180.5 206.4C181.6 206 182.8 205.7 184 205.5C185.2 205.5 186.4 205.7 187.5 206C188.6 206.5 189.6 207 190.5 207.9C191.4 208.7 192.1 209.8 192.7 210.8C193.3 211.9 193.5 213 193.6 214.3C193.6 215.5 193.4 216.7 193.1 217.8C192.8 219 192.1 220.1 191.3 221Z" fill="#EB5569"/>
<path d="M177.8 221.2C175 219.9 172.1 219.6 169.2 220C166.2 220.5 163.5 221.8 161.4 223.8C161.9 218.3 161.3 212.7 159.8 207.4C162.2 209.4 165 210.7 168.2 211C171.3 211.3 174.4 210.7 177.1 209.1C175.7 210.9 175.1 213 175.2 215.3C175.4 217.5 176.3 219.6 177.8 221.2Z" fill="#EB5569"/>
<path d="M173 261.9C171.4 262.1 169.7 262 168.2 261.3C166.7 260.6 165.4 259.5 164.5 258C163.9 257 163.4 256 163.3 254.8L163.2 254.4C162.9 252.4 163.6 250.3 164.6 248.7C165.8 247.1 167.5 245.8 169.5 245.3C169.8 245.2 170 245.1 170.3 245.2C171.4 245 172.5 245.1 173.7 245.3C174.8 245.5 175.8 246.1 176.7 246.6C177.6 247.3 178.4 248.1 179 249.1C179.6 250.1 179.9 251.1 180.1 252.3C180.3 253.4 180.2 254.5 180 255.7C179.7 256.8 179.2 257.8 178.5 258.7C177.8 259.6 177 260.4 176 261C175.1 261.4 174.1 261.7 173 261.9Z" fill="#EB5569"/>
<path d="M163.2 254.4C162 252 160 249.9 157.6 248.6C155.2 247.3 152.5 246.6 149.7 246.8C153.2 243.2 156.1 238.9 158 234.1C158.5 236.9 159.9 239.5 162 241.5C164 243.4 166.6 244.8 169.5 245.3C167.6 245.9 165.8 247 164.6 248.7C163.4 250.4 163 252.4 163.2 254.4Z" fill="#EB5569"/>
<path d="M124.6 288.6C122.9 287.4 121.6 285.6 121 283.6C120.3 281.7 120.2 279.6 120.7 277.4C121.1 276 121.7 274.7 122.6 273.6C122.7 273.5 122.8 273.4 122.9 273.3C124.5 271.4 126.9 270 129.4 269.6C132 269.2 134.6 269.8 136.8 271.1C137 271.3 137.4 271.5 137.6 271.6C138.9 272.5 139.8 273.7 140.5 275C141.7 277.2 142.1 279.6 141.7 282.1C141.3 284.5 139.9 286.7 138.1 288.3C136.2 289.9 133.9 290.8 131.4 290.8C128.9 290.9 126.6 290.1 124.6 288.6Z" fill="#EB5569"/>
<path d="M123 273.2C124.1 269.9 124.2 266.4 123.4 263.1C122.6 259.8 120.8 256.8 118.2 254.5C124.7 254.5 131 253.2 137 250.9C134.9 253.8 133.7 257.3 133.7 261C133.7 264.6 134.7 268.1 136.8 271.1C134.6 269.8 132 269.2 129.4 269.6C126.9 270 124.6 271.3 123 273.2Z" fill="#EB5569"/>
<path d="M142.1 225.1C142.6 222.5 140.9 219.8 138.1 219.3C135.3 218.8 132.8 220.5 132.3 223.3C131.8 225.9 133.5 228.6 136.3 229.1C139.1 229.6 141.6 227.9 142.1 225.1Z" fill="#EB5569"/>
<path d="M129.1 206.9C129.5 204.8 128.1 202.6 125.8 202.1C123.5 201.6 121.6 203.3 121.2 205.4C120.8 207.5 122.2 209.7 124.5 210.2C126.7 210.6 128.7 209.1 129.1 206.9Z" fill="#EB5569"/>
<path d="M335.5 82.8006C343.8 72.2006 341.9 56.7006 331.3 48.4006C320.6 40.0006 305.3 41.9006 296.9 52.6006C288.6 63.2006 290.5 78.7006 301.1 87.0006C311.7 95.3006 327.1 93.5006 335.5 82.8006Z" fill="#F58A97"/>
<path d="M326.9 38.5999C322.5 36.8999 317.7 36.1999 313.1 36.5999C308.4 36.8999 303.9 38.3999 299.9 40.8999C295.9 43.2999 292.5 46.5999 289.9 50.4999C287.3 54.3999 285.8 58.8999 285.2 63.5999C284.6 68.9999 285.4 74.3999 287.5 79.3999C289.5 84.0999 292.6 88.1999 296.7 91.3999C300.8 94.5999 305.4 96.6999 310.4 97.5999C315.4 98.4999 320.6 98.1999 325.4 96.6999C330.2 95.1999 334.6 92.3999 338.1 88.7999C341.6 85.0999 344.2 80.6999 345.5 75.7999C346.9 70.8999 347 65.6999 345.9 60.7999C344.8 55.7999 342.5 51.2999 339.2 47.3999C335.8 43.3999 331.7 40.4999 326.9 38.5999ZM334.2 81.6999C331.4 85.2999 327.6 87.9999 323.1 89.3999C318.8 90.7999 314 90.8999 309.5 89.6999C305.1 88.3999 301.1 85.8999 298.1 82.3999C295.1 78.8999 293.2 74.5999 292.6 70.0999C292 65.4999 292.8 60.8999 294.9 56.6999C296.9 52.5999 300.2 49.1999 304.2 46.8999C308.2 44.5999 312.8 43.6999 317.4 43.9999C322 44.3999 326.4 46.0999 330 48.8999C334.9 52.6999 338 58.2999 338.8 64.4999C339.7 70.6999 338 76.8999 334.2 81.6999Z" fill="#EB5569"/>
<path d="M311.4 72.3007C313.4 69.7007 312.9 66.1007 310.3 64.1007C307.7 62.1007 304 62.5007 302.1 65.0007C300.1 67.6007 300.6 71.2007 303.2 73.2007C305.8 75.2007 309.4 74.8007 311.4 72.3007Z" fill="#EB5569"/>
<path d="M278.7 73.2005C278.9 73.3005 278.9 73.4005 279.1 73.5005C280.4 74.6005 281.2 76.2005 281.4 77.9005C281.6 79.6005 281.1 81.3005 280 82.6005C278.9 84.0005 277.4 84.8005 275.7 84.9005C274 85.1005 272.3 84.6005 271 83.5005C269.6 82.4005 268.8 80.9005 268.5 79.2005C268.3 77.5005 268.7 75.8005 269.7 74.5005C270.8 73.1005 272.3 72.2005 274 72.0005C275.7 71.7005 277.4 72.2005 278.7 73.2005Z" fill="#EB5569"/>
<path d="M285.2 70.4004C285.5 73.5004 286.3 76.6004 287.6 79.6004C286.5 79.1004 285.3 79.0004 284.2 79.1004C283.1 79.2004 281.9 79.7004 281 80.4004C281.4 79.2004 281.4 77.9004 281.1 76.7004C280.7 75.5004 280.1 74.4004 279.2 73.5004C280.3 73.6004 281.4 73.4004 282.3 73.0004C283.3 72.6004 284.2 71.9004 284.7 71.0004C284.9 70.8004 285.1 70.5004 285.2 70.4004Z" fill="#EB5569"/>
<path d="M352.5 58.7007C352.4 58.6007 352.3 58.5007 352.2 58.4007C351.2 57.6007 350.5 56.6007 350 55.5007C349.5 54.4007 349.5 53.0007 349.8 51.8007C350 51.0007 350.3 50.4007 350.7 49.7007C351.4 48.6007 352.4 47.8007 353.6 47.3007C354.8 46.8007 356.1 46.6007 357.4 46.9007C358.7 47.1007 359.8 47.8007 360.8 48.7007C361.8 49.6007 362.4 50.8007 362.6 52.0007C362.9 53.3007 362.8 54.6007 362.3 55.8007C361.9 57.0007 361 58.1007 360 58.8007C358.9 59.5007 357.7 60.0007 356.4 60.0007C354.8 59.7007 353.5 59.4007 352.5 58.7007Z" fill="#EB5569"/>
<path d="M346.3 62.2004C345.7 59.1004 344.6 56.1004 343 53.3004C344.1 53.7004 345.3 53.7004 346.4 53.5004C347.5 53.3004 348.6 52.7004 349.5 51.9004C349.2 53.1004 349.4 54.4004 349.7 55.6004C350.2 56.8004 350.9 57.9004 351.9 58.5004C350.8 58.6004 349.8 58.8004 348.8 59.3004C347.8 59.9004 347.1 60.5004 346.4 61.5004C346.6 61.7004 346.4 61.9004 346.3 62.2004Z" fill="#EB5569"/>
<path d="M282.8 44.0008C282.9 44.2008 282.9 44.4008 282.9 44.7008C283.1 47.2008 282.4 49.6008 280.9 51.6008C279.4 53.6008 277.1 54.8008 274.6 55.1008C272.1 55.3008 269.6 54.7008 267.6 53.1008C265.7 51.6008 264.3 49.4008 263.9 46.9008C263.5 44.4008 264.2 41.9008 265.7 40.0008C267.1 38.0008 269.4 36.6008 271.9 36.3008C274.4 35.9008 276.9 36.6008 278.9 37.9008C281 39.3008 282.3 41.5008 282.8 44.0008Z" fill="#EB5569"/>
<path d="M292.6 47.2008C289.8 50.9008 287.7 55.1008 286.2 59.5008C285.5 57.9008 284.3 56.6008 283 55.7008C281.6 54.7008 280 54.1008 278.2 54.0008C279.8 53.1008 281 51.7008 281.9 50.1008C282.7 48.4008 283.1 46.6008 282.9 44.8008C284.1 46.0008 285.7 47.0008 287.4 47.4008C289.1 47.7008 290.9 47.7008 292.6 47.2008Z" fill="#EB5569"/>
<path d="M342.7 37.0004C342.4 37.0004 342.3 37.1004 342 37.0004C339.5 37.0004 337.1 36.0004 335.3 34.2004C333.5 32.5004 332.4 30.1004 332.3 27.7004C332.3 26.9004 332.3 26.0004 332.4 25.2004C332.8 23.4004 333.6 21.7004 334.9 20.4004C336.1 19.0004 337.7 18.1004 339.6 17.6004C341.4 17.2004 343.2 17.1004 345 17.7004C346.8 18.2004 348.3 19.3004 349.6 20.6004C350.9 22.0004 351.6 23.7004 351.9 25.5004C352.2 27.3004 352 29.2004 351.3 30.9004C350.6 32.6004 349.4 34.1004 347.9 35.1004C346.3 36.2004 344.5 36.9004 342.7 37.0004Z" fill="#EB5569"/>
<path d="M338.3 46.6002C334.8 43.3002 330.9 40.7002 326.6 38.6002C328.3 38.1002 329.8 37.1002 330.9 35.8002C332 34.5002 332.8 32.9002 333.1 31.2002C333.8 32.9002 335.1 34.4002 336.7 35.4002C338.2 36.5002 340.1 37.0002 342 37.1002C340.7 38.1002 339.7 39.3002 339 40.8002C338.4 42.3002 338 43.9002 338.2 45.5002C338.2 45.8002 338.2 46.2002 338.3 46.6002Z" fill="#EB5569"/>
<path d="M259.7 71.6006C261.9 68.8006 261.4 64.6006 258.6 62.4006C255.7 60.1006 251.6 60.7006 249.4 63.5006C247.2 66.3006 247.7 70.5006 250.5 72.7006C253.4 75.0006 257.5 74.4006 259.7 71.6006Z" fill="#EB5569"/>
<path d="M324.1 124.1C325.5 122.3 325.1 119.8 323.4 118.5C321.6 117.1 319.1 117.5 317.8 119.2C316.4 121 316.8 123.5 318.5 124.8C320.2 126.1 322.7 125.9 324.1 124.1Z" fill="#EB5569"/>
<path d="M379.5 68.6006C381.7 65.8006 381.2 61.6006 378.4 59.4006C375.5 57.1006 371.4 57.7006 369.2 60.5006C367 63.3006 367.5 67.5006 370.3 69.7006C373.1 72.0006 377.2 71.5006 379.5 68.6006Z" fill="#EB5569"/>
<path d="M312.5 16.5004C313.5 17.3004 314.2 18.3004 314.6 19.4004C315 20.6004 315 21.8004 314.7 23.0004C314.4 23.8004 314.1 24.6004 313.6 25.2004L313.4 25.4004C312.4 26.5004 311 27.3004 309.5 27.5004C308 27.8004 306.5 27.4004 305.2 26.6004C305 26.5004 304.9 26.3004 304.7 26.2004C303.4 25.2004 302.5 23.7004 302.3 22.0004C302.1 20.3004 302.6 18.7004 303.6 17.3004C304.6 15.9004 306.2 15.2004 307.8 14.9004C309.6 15.0004 311.2 15.5004 312.5 16.5004Z" fill="#EB5569"/>
<path d="M313.5 25.5C312.8 27.4 312.7 29.4 313.1 31.4C313.6 33.4 314.6 35.1 316.1 36.5C312.3 36.5 308.6 37.1 305 38.4C306.2 36.7 306.9 34.6 307 32.6C307.1 30.5 306.4 28.4 305.3 26.7C306.6 27.6 308.1 27.9 309.6 27.6C311.1 27.4 312.5 26.7 313.5 25.5Z" fill="#EB5569"/>
<path d="M363.5 93.9002C362.1 94.4002 360.7 94.5002 359.3 94.1002C357.9 93.8002 356.6 93.0002 355.6 92.0002C354.9 91.3002 354.4 90.4002 354.1 89.5002C354.1 89.4002 354 89.3002 354 89.2002C353.5 87.5002 353.6 85.6002 354.3 84.0002C355 82.4002 356.3 81.1002 357.9 80.4002C358.1 80.3002 358.3 80.2002 358.5 80.1002C359.4 79.8002 360.4 79.7002 361.3 79.7002C362.3 79.8002 363.2 80.0002 364.1 80.4002C364.9 80.8002 365.8 81.4002 366.4 82.1002C367 82.8002 367.5 83.6002 367.9 84.5002C368.3 85.4002 368.3 86.4002 368.4 87.3002C368.4 88.3002 368.1 89.2002 367.7 90.1002C367.3 90.9002 366.7 91.8002 366 92.4002C365.3 93.1002 364.4 93.5002 363.5 93.9002Z" fill="#EB5569"/>
<path d="M353.9 89.1002C352.4 87.2002 350.5 85.9002 348.3 85.1002C346 84.4002 343.6 84.3002 341.4 84.9002C343.8 81.2002 345.5 77.1002 346.4 72.7002C347.3 75.0002 348.9 77.0002 351 78.4002C353.1 79.7002 355.5 80.5002 358 80.4002C356.4 81.2002 355.1 82.4002 354.4 84.0002C353.5 85.6002 353.4 87.4002 353.9 89.1002Z" fill="#EB5569"/>
<path d="M335.3 116C334.1 115.6 333 114.8 332.1 113.8C331.2 112.8 330.8 111.5 330.7 110.1C330.7 109.2 330.7 108.3 331 107.4L331.1 107.1C331.6 105.6 332.9 104.3 334.2 103.6C335.6 102.9 337.3 102.6 338.9 103C339.1 103 339.3 103.1 339.5 103.2C340.3 103.5 341.1 103.9 341.8 104.5C342.5 105.1 343 105.8 343.4 106.6C343.8 107.4 344 108.3 344.1 109.2C344.1 110.1 344 111 343.7 111.9C343.4 112.7 343 113.5 342.4 114.2C341.8 114.9 341.1 115.4 340.3 115.8C339.5 116.2 338.6 116.4 337.7 116.5C337.1 116.5 336.2 116.3 335.3 116Z" fill="#EB5569"/>
<path d="M331.2 107.101C331.2 104.901 330.6 102.701 329.4 100.901C328.2 99.1008 326.5 97.6008 324.5 96.7008C328.3 95.4008 332 93.5008 335.1 90.8008C334.4 93.0008 334.4 95.3008 335.2 97.5008C335.9 99.6008 337.2 101.501 339.1 103.001C337.5 102.701 335.9 102.801 334.4 103.601C332.8 104.301 331.8 105.601 331.2 107.101Z" fill="#EB5569"/>
<path d="M291.3 116.9C290.5 115.4 290.3 113.7 290.6 112C290.8 110.4 291.5 108.8 292.7 107.5C293.5 106.7 294.4 106 295.4 105.5C295.5 105.5 295.6 105.4 295.7 105.4C297.6 104.7 299.7 104.5 301.7 105.2C303.7 105.8 305.3 107.2 306.4 109C306.5 109.2 306.7 109.5 306.8 109.7C307.4 110.8 307.6 112 307.6 113.2C307.6 115.2 307 117 305.8 118.7C304.6 120.2 302.8 121.3 300.9 121.8C299 122.3 297 122 295.2 121.1C293.5 120.1 292.2 118.7 291.3 116.9Z" fill="#EB5569"/>
<path d="M295.8 105.4C297.8 103.5 299.2 101.1 299.8 98.4004C300.4 95.7004 300.3 93.0004 299.3 90.4004C303.9 92.8004 308.8 94.3004 313.9 94.9004C311.4 96.2004 309.2 98.2004 307.9 100.8C306.5 103.4 306 106.2 306.4 109.1C305.3 107.3 303.7 105.9 301.7 105.3C299.8 104.6 297.7 104.7 295.8 105.4Z" fill="#EB5569"/>
<path d="M327.2 78.6003C328.5 76.9003 328.3 74.4003 326.5 73.0003C324.7 71.6003 322.3 71.9003 320.9 73.7003C319.6 75.4003 319.8 77.9003 321.6 79.3003C323.4 80.7003 325.9 80.3003 327.2 78.6003Z" fill="#EB5569"/>
<path d="M324.8 60.8003C325.9 59.4003 325.7 57.4003 324.2 56.2003C322.7 55.0003 320.8 55.5003 319.7 56.8003C318.6 58.2003 318.8 60.2003 320.3 61.4003C321.7 62.6003 323.7 62.3003 324.8 60.8003Z" fill="#EB5569"/>
<path d="M514.3 162C508.3 154.8 497.4 153.8 490.2 159.8C482.9 165.9 481.9 176.599 488 183.899C494 191.099 504.9 192.1 512.1 186.1C519.4 180 520.4 169.2 514.3 162Z" fill="#F58A97"/>
<path d="M482.8 161.399C481 164.099 479.8 167.299 479.4 170.499C479 173.799 479.3 177.099 480.4 180.199C481.5 183.299 483.2 186.099 485.5 188.499C487.8 190.899 490.7 192.599 493.8 193.599C497.4 194.799 501.2 194.999 504.9 194.299C508.4 193.599 511.7 192.099 514.4 189.799C517.1 187.499 519.3 184.599 520.6 181.299C522 177.999 522.5 174.399 522.1 170.899C521.7 167.399 520.5 163.999 518.5 160.999C516.5 157.999 513.9 155.699 510.7 153.999C507.6 152.299 504 151.499 500.5 151.599C496.9 151.599 493.5 152.499 490.3 154.199C487.1 155.899 484.8 158.299 482.8 161.399ZM513.4 162.599C515.5 165.099 516.8 168.099 517.1 171.299C517.4 174.499 516.8 177.799 515.3 180.599C513.8 183.399 511.5 185.799 508.7 187.399C505.9 188.899 502.7 189.599 499.5 189.399C496.3 189.099 493.2 187.899 490.7 185.899C488.2 183.899 486.4 181.199 485.4 178.099C484.4 174.999 484.5 171.699 485.3 168.699C486.2 165.599 488.1 162.899 490.5 160.799C493.8 157.999 498.1 156.699 502.4 157.099C506.7 157.299 510.6 159.299 513.4 162.599Z" fill="#EB5569"/>
<path d="M503.6 176.9C502.1 175.1 499.6 175 497.8 176.4C496 177.8 495.8 180.5 497.2 182.2C498.7 184 501.2 184.1 503 182.7C504.8 181.3 505.1 178.6 503.6 176.9Z" fill="#EB5569"/>
<path d="M499.4 199.4C499.5 199.3 499.6 199.3 499.7 199.2C500.7 198.5 501.9 198.1 503 198.3C504.2 198.4 505.3 199 506 199.9C506.8 200.8 507.1 202 507 203.2C506.9 204.4 506.3 205.5 505.4 206.2C504.5 207 503.3 207.3 502.1 207.3C500.9 207.2 499.8 206.6 499 205.8C498.2 204.9 497.8 203.7 497.9 202.5C498 201.2 498.6 200.1 499.4 199.4Z" fill="#EB5569"/>
<path d="M498.5 194.499C500.7 194.699 502.9 194.599 505.1 194.199C504.6 194.899 504.4 195.699 504.3 196.499C504.2 197.299 504.4 198.099 504.7 198.899C503.9 198.399 503 198.199 502.2 198.299C501.3 198.399 500.4 198.599 499.7 199.099C499.9 198.399 499.9 197.599 499.8 196.899C499.7 196.199 499.3 195.399 498.8 194.899C498.7 194.799 498.6 194.699 498.5 194.499Z" fill="#EB5569"/>
<path d="M500.3 146.799C500.2 146.799 500.1 146.899 500.1 146.999C499.4 147.499 498.6 147.899 497.8 148.099C496.9 148.299 496 148.099 495.2 147.699C494.7 147.499 494.3 147.199 493.9 146.799C493.3 146.099 492.8 145.399 492.7 144.499C492.5 143.599 492.6 142.699 493 141.799C493.3 140.999 493.9 140.299 494.7 139.699C495.5 139.199 496.3 138.899 497.2 138.899C498.1 138.899 499 139.199 499.8 139.599C500.6 140.099 501.2 140.799 501.5 141.599C501.8 142.399 502 143.399 501.8 144.299C501.4 145.299 500.9 146.199 500.3 146.799Z" fill="#EB5569"/>
<path d="M501.8 151.5C499.6 151.5 497.4 151.8 495.2 152.4C495.6 151.7 495.8 150.9 495.8 150.1C495.8 149.3 495.6 148.5 495.1 147.8C495.9 148.2 496.8 148.3 497.7 148.2C498.6 148 499.4 147.7 500 147.1C499.9 147.8 499.9 148.6 500.1 149.3C500.3 150 500.7 150.7 501.2 151.2C501.5 151.3 501.6 151.4 501.8 151.5Z" fill="#EB5569"/>
<path d="M480.1 192.3C480.3 192.3 480.4 192.3 480.6 192.3C482.4 192.5 483.9 193.4 485 194.7C486.1 196 486.6 197.8 486.5 199.5C486.3 201.3 485.5 202.9 484.1 204C482.8 205.1 481.1 205.7 479.3 205.6C477.5 205.5 475.9 204.7 474.8 203.4C473.6 202.1 473 200.4 473.1 198.6C473.2 196.8 474 195.2 475.2 194C476.6 192.9 478.3 192.3 480.1 192.3Z" fill="#EB5569"/>
<path d="M483.7 186.1C485.8 188.5 488.4 190.6 491.2 192.2C490 192.4 488.9 193.1 488.1 193.8C487.2 194.6 486.6 195.6 486.3 196.8C485.9 195.5 485.1 194.5 484.1 193.7C483.1 192.9 481.9 192.4 480.6 192.3C481.6 191.6 482.5 190.7 483.1 189.6C483.5 188.6 483.8 187.4 483.7 186.1Z" fill="#EB5569"/>
<path d="M484 150.3C484 150.5 484 150.6 483.9 150.7C483.5 152.4 482.5 153.9 481 154.9C479.6 155.9 477.8 156.3 476.1 156C475.6 155.9 475 155.7 474.4 155.5C473.2 155 472.2 154.2 471.5 153.1C470.7 152.1 470.3 150.8 470.3 149.5C470.3 148.2 470.5 146.9 471.1 145.8C471.7 144.6 472.7 143.8 473.8 143.1C474.9 142.4 476.2 142.2 477.5 142.3C478.8 142.4 480 142.8 481.1 143.5C482.2 144.2 483 145.2 483.5 146.5C484 147.7 484.2 149.1 484 150.3Z" fill="#EB5569"/>
<path d="M489.9 154.7C487.1 156.6 484.8 158.9 482.7 161.6C482.6 160.4 482.1 159.2 481.4 158.2C480.7 157.2 479.7 156.5 478.6 156C479.9 155.8 481.1 155.1 482 154.2C482.9 153.3 483.6 152.1 483.9 150.8C484.4 151.8 485.1 152.7 486 153.4C486.9 154 488 154.5 489.1 154.6C489.4 154.7 489.7 154.7 489.9 154.7Z" fill="#EB5569"/>
<path d="M495.6 212.2C494 210.3 491.1 210 489.2 211.6C487.2 213.2 487 216.1 488.6 218C490.2 219.9 493.1 220.2 495 218.6C496.9 217 497.2 214.1 495.6 212.2Z" fill="#EB5569"/>
<path d="M540.9 175.799C539.9 174.599 538.1 174.499 537 175.399C535.8 176.399 535.7 178.199 536.6 179.299C537.6 180.499 539.4 180.599 540.5 179.699C541.7 178.799 542 176.999 540.9 175.799Z" fill="#EB5569"/>
<path d="M511 129.7C509.4 127.8 506.5 127.5 504.6 129.1C502.6 130.7 502.4 133.6 504 135.5C505.6 137.4 508.5 137.7 510.4 136.1C512.4 134.6 512.7 131.7 511 129.7Z" fill="#EB5569"/>
<path d="M465.6 168C466.3 167.5 467.1 167.1 467.9 167C468.8 166.9 469.6 167.1 470.4 167.4C470.9 167.7 471.4 168 471.8 168.5L471.9 168.7C472.5 169.6 472.8 170.6 472.8 171.7C472.8 172.8 472.3 173.7 471.5 174.5C471.4 174.6 471.3 174.7 471.2 174.8C470.3 175.5 469.2 175.9 468 175.8C466.8 175.7 465.8 175.1 465 174.2C464.2 173.3 463.9 172.1 464 171C464.1 169.8 464.7 168.7 465.6 168Z" fill="#EB5569"/>
<path d="M471.9 168.599C473.1 169.399 474.5 169.699 475.9 169.699C477.3 169.599 478.7 169.199 479.8 168.399C479.3 170.999 479.1 173.599 479.5 176.299C478.5 175.199 477.2 174.399 475.8 174.099C474.4 173.699 472.8 173.899 471.5 174.399C472.3 173.699 472.7 172.599 472.8 171.599C472.8 170.599 472.5 169.499 471.9 168.599Z" fill="#EB5569"/>
<path d="M526 144.399C526.1 145.399 526 146.399 525.5 147.299C525.1 148.199 524.4 148.999 523.5 149.499C522.9 149.899 522.2 150.099 521.6 150.199C521.5 150.199 521.4 150.199 521.3 150.199C520.1 150.299 518.8 149.999 517.8 149.199C516.8 148.399 516.1 147.399 515.8 146.199C515.8 145.999 515.7 145.899 515.7 145.699C515.6 144.999 515.7 144.299 515.8 143.699C516 143.099 516.3 142.399 516.7 141.899C517.1 141.399 517.6 140.899 518.2 140.599C518.8 140.299 519.4 140.099 520.1 139.999C520.8 139.899 521.5 139.999 522.1 140.099C522.8 140.299 523.3 140.599 523.9 140.999C524.4 141.399 524.9 141.899 525.2 142.499C525.7 143.099 525.9 143.699 526 144.399Z" fill="#EB5569"/>
<path d="M521.3 150.3C519.8 151 518.6 152.2 517.7 153.6C516.9 155 516.5 156.7 516.5 158.3C514.3 156.1 511.7 154.4 508.9 153.1C510.6 152.8 512.2 152 513.5 150.8C514.7 149.6 515.6 148 515.9 146.3C516.2 147.5 516.9 148.6 517.9 149.3C518.8 150 520.1 150.4 521.3 150.3Z" fill="#EB5569"/>
<path d="M537 166.9C536.5 167.7 535.9 168.3 535 168.7C534.2 169.1 533.2 169.3 532.3 169.1C531.7 169 531.1 168.8 530.5 168.5L530.3 168.4C529.3 167.8 528.7 166.8 528.4 165.7C528.1 164.6 528.2 163.5 528.7 162.4C528.8 162.3 528.8 162.1 528.9 162C529.2 161.5 529.6 161 530.1 160.6C530.6 160.2 531.2 160 531.7 159.8C532.3 159.7 532.9 159.6 533.6 159.7C534.2 159.8 534.8 160 535.4 160.4C535.9 160.7 536.4 161.1 536.8 161.6C537.2 162.1 537.4 162.7 537.6 163.3C537.7 163.9 537.8 164.5 537.7 165.2C537.6 165.8 537.3 166.4 537 166.9Z" fill="#EB5569"/>
<path d="M530.3 168.399C528.8 168.099 527.2 168.199 525.8 168.699C524.4 169.199 523.1 170.199 522.2 171.399C521.9 168.599 521.1 165.799 519.7 163.299C521.1 164.099 522.7 164.399 524.3 164.199C525.8 163.999 527.4 163.399 528.6 162.399C528.2 163.399 528 164.599 528.3 165.699C528.7 166.899 529.4 167.799 530.3 168.399Z" fill="#EB5569"/>
<path d="M531.2 197.2C530.1 197.5 528.9 197.4 527.8 197C526.7 196.6 525.8 195.9 525 194.9C524.6 194.3 524.2 193.5 524 192.7C524 192.6 524 192.5 524 192.4C523.8 191 524 189.5 524.7 188.3C525.4 187.1 526.6 186.1 528 185.7C528.2 185.7 528.4 185.6 528.5 185.5C529.3 185.3 530.2 185.3 531 185.5C532.3 185.8 533.6 186.4 534.5 187.5C535.4 188.5 535.9 189.9 535.9 191.3C535.9 192.7 535.5 194 534.6 195.1C533.8 196.1 532.6 196.8 531.2 197.2Z" fill="#EB5569"/>
<path d="M524 192.4C523 190.7 521.5 189.4 519.8 188.6C518.1 187.8 516.2 187.5 514.2 187.7C516.5 184.9 518.2 181.7 519.4 178.3C519.9 180.2 521 182 522.6 183.3C524.2 184.6 526 185.4 528 185.6C526.6 186.1 525.4 187 524.7 188.2C524.1 189.5 523.8 191 524 192.4Z" fill="#EB5569"/>
<path d="M510.2 166.999C509.2 165.799 507.5 165.599 506.3 166.599C505.1 167.599 504.9 169.299 505.9 170.499C506.9 171.699 508.6 171.899 509.8 170.899C511.1 169.899 511.2 168.199 510.2 166.999Z" fill="#EB5569"/>
<path d="M497.7 165.999C496.9 165.099 495.5 164.899 494.5 165.699C493.5 166.499 493.5 167.899 494.3 168.899C495.1 169.799 496.5 169.999 497.5 169.199C498.5 168.399 498.5 166.999 497.7 165.999Z" fill="#EB5569"/>
<path d="M405.9 96.5C405.8 98.2 406 99.9 406.6 101.4C407.2 103 408.2 104.4 409.4 105.5C410.6 106.6 412.1 107.5 413.7 107.9C415.3 108.4 417 108.4 418.6 108.2C420.5 107.9 422.3 107 423.7 105.8C425.1 104.6 426.2 103.2 426.8 101.5C427.5 99.8 427.7 98 427.5 96.2C427.3 94.4 426.7 92.7 425.6 91.2C424.6 89.7 423.2 88.5 421.6 87.7C420 86.9 418.2 86.5 416.4 86.5C414.6 86.5 412.8 87 411.3 87.9C409.7 88.8 408.4 90 407.4 91.6C406.6 92.9 406 94.6 405.9 96.5Z" fill="#3C8F7C"/>
<path d="M422.5 109.4C422.5 109.3 422.5 109.3 422.6 109.2C422.9 108.6 423.3 108.2 423.9 108C424.5 107.8 425.1 107.8 425.7 108C426.3 108.2 426.7 108.7 426.9 109.2C427.1 109.8 427.1 110.4 426.9 111C426.7 111.6 426.2 112 425.7 112.3C425.1 112.5 424.5 112.6 424 112.4C423.4 112.2 423 111.8 422.7 111.2C422.3 110.5 422.3 109.9 422.5 109.4Z" fill="#3C8F7C"/>
<path d="M420.9 107.4C421.9 107 422.9 106.4 423.8 105.6C423.8 106 423.8 106.4 424 106.8C424.2 107.2 424.4 107.5 424.8 107.8C424.3 107.8 423.9 107.9 423.5 108.2C423.1 108.5 422.8 108.8 422.6 109.2C422.5 108.8 422.3 108.5 422.1 108.2C421.9 107.9 421.5 107.7 421.2 107.6C421.1 107.5 421 107.5 420.9 107.4Z" fill="#3C8F7C"/>
<path d="M410.1 85.7002C410.1 85.7002 410.1 85.8002 410 85.8002C409.8 86.2002 409.6 86.6002 409.2 86.9002C408.9 87.2002 408.4 87.3002 408 87.4002C407.7 87.4002 407.5 87.4002 407.2 87.3002C406.7 87.2002 406.4 86.9002 406.1 86.6002C405.8 86.3002 405.6 85.8002 405.6 85.3002C405.5 84.8002 405.6 84.4002 405.9 84.0002C406.1 83.6002 406.4 83.2002 406.8 83.0002C407.2 82.8002 407.7 82.7002 408.1 82.7002C408.5 82.7002 409 82.9002 409.3 83.2002C409.7 83.5002 409.9 83.9002 410.1 84.3002C410.2 84.8002 410.2 85.3002 410.1 85.7002Z" fill="#3C8F7C"/>
<path d="M411.9 87.4998C410.9 87.9998 410 88.6998 409.2 89.4998C409.2 89.0998 409.1 88.6998 408.9 88.2998C408.7 87.8998 408.4 87.5998 408 87.3998C408.4 87.3998 408.9 87.1998 409.2 86.8998C409.5 86.5998 409.8 86.2998 410 85.7998C410.1 86.1998 410.3 86.4998 410.6 86.7998C410.9 87.0998 411.2 87.2998 411.6 87.3998C411.7 87.3998 411.8 87.4998 411.9 87.4998Z" fill="#3C8F7C"/>
<path d="M412.2 110.9C412.3 110.8 412.3 110.8 412.4 110.8C413.2 110.5 414.1 110.5 414.9 110.8C415.7 111.1 416.4 111.8 416.7 112.6C417 113.4 417.1 114.3 416.7 115.2C416.4 116 415.8 116.7 414.9 117.1C414.1 117.5 413.2 117.5 412.4 117.2C411.6 116.9 410.9 116.3 410.5 115.5C410.1 114.7 410.1 113.8 410.3 112.9C410.8 112 411.4 111.4 412.2 110.9Z" fill="#3C8F7C"/>
<path d="M412.3 107.3C413.8 107.9 415.5 108.2 417.1 108.2C416.6 108.6 416.3 109.1 416.1 109.7C415.9 110.3 415.9 110.9 416 111.5C415.5 111 414.9 110.8 414.3 110.6C413.6 110.5 413 110.6 412.4 110.8C412.7 110.3 412.9 109.6 412.8 109C412.8 108.4 412.6 107.8 412.3 107.3Z" fill="#3C8F7C"/>
<path d="M403.7 91.2998C403.7 91.3998 403.8 91.3998 403.8 91.4998C404.1 92.2998 404 93.2998 403.5 93.9998C403.1 94.7998 402.4 95.3998 401.6 95.6998C401.3 95.7998 401 95.8998 400.7 95.8998C400.1 95.9998 399.4 95.8998 398.8 95.4998C398.2 95.1998 397.7 94.7998 397.4 94.1998C397.1 93.5998 396.9 92.9998 396.9 92.3998C396.9 91.6998 397.1 91.0998 397.4 90.4998C397.7 89.8998 398.3 89.4998 398.8 89.1998C399.4 88.8998 400 88.7998 400.7 88.8998C401.4 88.9998 402 89.1998 402.5 89.5998C403.1 90.0998 403.5 90.6998 403.7 91.2998Z" fill="#3C8F7C"/>
<path d="M407.4 91.8C406.6 93.3 406.1 94.9 405.9 96.6C405.6 96.1 405.1 95.7 404.5 95.4C403.9 95.1 403.3 95.1 402.7 95.1C403.2 94.7 403.6 94.1 403.8 93.5C404 92.9 404 92.2 403.8 91.5C404.3 91.8 404.8 92 405.4 92.2C406 92.3 406.6 92.2 407.1 92C407.1 91.9 407.3 91.8 407.4 91.8Z" fill="#3C8F7C"/>
<path d="M399.8 103.6C400 103.2 400.3 102.8 400.6 102.6C401 102.4 401.4 102.2 401.8 102.2C402.1 102.2 402.4 102.2 402.7 102.3H402.8C403.3 102.5 403.7 102.9 403.9 103.4C404.1 103.9 404.2 104.4 404 105C404 105.1 403.9 105.1 403.9 105.2C403.7 105.7 403.3 106.2 402.7 106.4C402.1 106.6 401.6 106.7 401 106.4C400.4 106.2 400 105.7 399.8 105.2C399.6 104.8 399.6 104.2 399.8 103.6Z" fill="#3C8F7C"/>
<path d="M402.8 102.399C403.5 102.399 404.2 102.299 404.9 101.899C405.5 101.499 406 100.999 406.3 100.399C406.7 101.699 407.3 102.899 408.1 103.999C407.4 103.799 406.6 103.699 405.9 103.899C405.2 104.099 404.5 104.499 404.1 105.099C404.3 104.599 404.2 103.999 404 103.499C403.6 102.999 403.3 102.599 402.8 102.399Z" fill="#3C8F7C"/>
<path d="M420.9 78.3998C421.2 78.7998 421.4 79.2998 421.4 79.7998C421.4 80.2998 421.3 80.7998 421.1 81.2998C420.9 81.5998 420.7 81.8998 420.4 82.0998L420.3 82.1998C419.8 82.4998 419.1 82.6998 418.5 82.5998C417.9 82.4998 417.3 82.1998 416.9 81.6998C416.8 81.5998 416.8 81.5998 416.7 81.4998C416.5 81.1998 416.4 80.8998 416.3 80.5998C416.2 80.2998 416.2 79.8998 416.2 79.5998C416.3 79.2998 416.4 78.8998 416.5 78.5998C416.7 78.2998 416.9 78.0998 417.2 77.8998C417.5 77.6998 417.8 77.5998 418.1 77.3998C418.4 77.2998 418.8 77.2998 419.1 77.2998C419.4 77.3998 419.8 77.4998 420.1 77.5998C420.5 77.8998 420.7 78.0998 420.9 78.3998Z" fill="#3C8F7C"/>
<path d="M420.3 82.1C419.8 82.8 419.6 83.6 419.5 84.4C419.5 85.2 419.7 86.1 420.1 86.8C418.6 86.4 417 86.2 415.5 86.3C416.2 85.8 416.7 85 417 84.1C417.3 83.3 417.3 82.4 417 81.5C417.4 82 418 82.3 418.6 82.4C419.1 82.6 419.8 82.5 420.3 82.1Z" fill="#3C8F7C"/>
<path d="M431.3 85.6996C431.3 86.1996 431.1 86.5996 430.9 86.9996C430.6 87.3996 430.2 87.6996 429.8 87.7996C429.5 87.8996 429.2 87.9996 428.8 87.9996H428.7C428.1 87.9996 427.6 87.6996 427.2 87.2996C426.8 86.8996 426.6 86.2996 426.5 85.6996C426.5 85.5996 426.5 85.4996 426.5 85.4996C426.5 85.1996 426.6 84.8996 426.7 84.5996C426.8 84.2996 427 84.0996 427.2 83.7996C427.4 83.5996 427.7 83.3996 428 83.2996C428.3 83.1996 428.6 83.0996 428.9 83.1996C429.2 83.1996 429.5 83.2996 429.8 83.3996C430.1 83.5996 430.3 83.6996 430.6 83.9996C430.9 84.2996 431 84.4996 431.1 84.7996C431.3 85.0996 431.3 85.3996 431.3 85.6996Z" fill="#3C8F7C"/>
<path d="M428.7 88.0002C428 88.2002 427.3 88.6002 426.8 89.2002C426.3 89.8002 426 90.5002 425.9 91.3002C425.1 90.1002 424 89.1002 422.8 88.3002C423.6 88.3002 424.4 88.1002 425.1 87.6002C425.7 87.2002 426.3 86.5002 426.6 85.7002C426.7 86.3002 426.9 86.8002 427.3 87.3002C427.6 87.7002 428.2 88.0002 428.7 88.0002Z" fill="#3C8F7C"/>
<path d="M436.1 100.6C435.7 101 435.1 101.3 434.5 101.3C433.9 101.4 433.3 101.3 432.8 101C432.4 100.8 432.1 100.6 431.8 100.3L431.7 100.2C431.3 99.6001 431 98.9001 431 98.2001C431 97.5001 431.3 96.8001 431.8 96.2001C431.9 96.1001 431.9 96.1001 432 96.0001C432.3 95.7001 432.7 95.5001 433.1 95.4001C433.8 95.2001 434.5 95.2001 435.1 95.5001C435.7 95.8001 436.3 96.2001 436.6 96.8001C436.9 97.4001 437.1 98.1001 436.9 98.8001C437 99.5001 436.7 100.1 436.1 100.6Z" fill="#3C8F7C"/>
<path d="M431.8 100.2C430.9 99.6996 430 99.4996 429 99.4996C428 99.5996 427.1 99.8996 426.3 100.5C426.7 98.6996 426.6 96.8996 426.3 95.0996C427 95.7996 427.9 96.3996 428.9 96.5996C429.9 96.7996 430.9 96.6996 431.9 96.2996C431.4 96.7996 431.1 97.4996 431.1 98.2996C431.1 98.9996 431.3 99.6996 431.8 100.2Z" fill="#3C8F7C"/>
<path d="M500.2 257.3C498.4 256.6 496.4 256.3 494.5 256.5C492.6 256.6 490.7 257.2 489 258.2C487.3 259.2 485.9 260.5 484.8 262.2C483.7 263.8 483.1 265.7 482.8 267.6C482.5 269.8 482.9 272.1 483.7 274.1C484.5 276 485.8 277.8 487.5 279.1C489.2 280.4 491.1 281.3 493.1 281.7C495.2 282.1 497.3 282 499.3 281.3C501.3 280.7 503.1 279.5 504.6 278C506.1 276.5 507.1 274.7 507.7 272.7C508.3 270.7 508.4 268.5 507.9 266.5C507.4 264.4 506.5 262.6 505.2 260.9C503.9 259.2 502.2 258 500.2 257.3Z" fill="#355389"/>
<path d="M480.2 271.4C480.3 271.5 480.3 271.5 480.4 271.5C480.9 272 481.3 272.6 481.3 273.3C481.4 274 481.2 274.7 480.7 275.3C480.2 275.9 479.6 276.2 478.9 276.3C478.2 276.4 477.5 276.2 476.9 275.7C476.3 275.3 476 274.6 475.9 273.9C475.8 273.2 476 272.5 476.4 271.9C476.8 271.3 477.5 271 478.2 270.9C479 270.8 479.7 271 480.2 271.4Z" fill="#355389"/>
<path d="M482.9 270.3C483 271.6 483.3 272.9 483.9 274.1C483.5 273.9 483 273.8 482.5 273.9C482 274 481.6 274.1 481.2 274.4C481.4 273.9 481.4 273.4 481.2 272.9C481 272.4 480.8 271.9 480.4 271.6C480.9 271.6 481.3 271.6 481.7 271.4C482.1 271.2 482.5 270.9 482.7 270.6C482.8 270.4 482.8 270.3 482.9 270.3Z" fill="#355389"/>
<path d="M510.7 265.599L510.6 265.499C510.2 265.199 509.9 264.799 509.7 264.299C509.5 263.799 509.5 263.299 509.6 262.799C509.7 262.499 509.8 262.199 510 261.899C510.3 261.399 510.7 261.099 511.2 260.899C511.7 260.699 512.2 260.599 512.8 260.699C513.3 260.799 513.8 261.099 514.2 261.399C514.6 261.799 514.9 262.299 515 262.799C515.1 263.299 515.1 263.899 514.9 264.399C514.7 264.899 514.4 265.299 513.9 265.599C513.4 265.899 512.9 266.099 512.4 266.099C511.7 265.999 511.1 265.899 510.7 265.599Z" fill="#355389"/>
<path d="M508.2 267C508 265.7 507.5 264.5 506.9 263.3C507.4 263.5 507.8 263.5 508.3 263.4C508.8 263.3 509.2 263.1 509.6 262.7C509.5 263.2 509.5 263.7 509.7 264.2C509.9 264.7 510.2 265.1 510.6 265.4C510.2 265.4 509.7 265.5 509.3 265.7C508.9 265.9 508.6 266.2 508.3 266.6C508.3 266.8 508.2 266.9 508.2 267Z" fill="#355389"/>
<path d="M482 259.399C482 259.499 482 259.599 482 259.699C482.1 260.699 481.8 261.699 481.2 262.499C480.6 263.299 479.6 263.799 478.6 263.899C477.6 263.999 476.5 263.699 475.7 263.099C474.9 262.499 474.3 261.499 474.2 260.499C474 259.499 474.3 258.399 474.9 257.699C475.5 256.899 476.4 256.299 477.5 256.199C478.5 255.999 479.6 256.299 480.4 256.899C481.2 257.399 481.7 258.299 482 259.399Z" fill="#355389"/>
<path d="M486 260.7C484.9 262.2 484 263.9 483.3 265.7C483 265 482.5 264.5 482 264.1C481.4 263.7 480.8 263.4 480 263.4C480.7 263 481.2 262.5 481.6 261.8C481.9 261.1 482.1 260.4 482 259.6C482.5 260.1 483.2 260.5 483.9 260.7C484.5 260.9 485.3 260.9 486 260.7Z" fill="#355389"/>
<path d="M506.7 256.6C506.6 256.6 506.5 256.6 506.4 256.6C505.4 256.6 504.4 256.2 503.7 255.4C503 254.7 502.5 253.7 502.5 252.7C502.5 252.4 502.5 252 502.6 251.7C502.8 251 503.1 250.3 503.6 249.7C504.1 249.1 504.8 248.8 505.5 248.5C506.2 248.3 507 248.3 507.7 248.5C508.4 248.7 509.1 249.2 509.6 249.7C510.1 250.3 510.4 251 510.5 251.7C510.6 252.4 510.5 253.2 510.2 253.9C509.9 254.6 509.4 255.2 508.8 255.6C508.2 256.3 507.5 256.6 506.7 256.6Z" fill="#355389"/>
<path d="M504.9 260.5C503.5 259.1 501.9 258 500.1 257.2C500.8 257 501.4 256.6 501.9 256C502.4 255.4 502.7 254.8 502.8 254.1C503.1 254.8 503.6 255.4 504.3 255.8C504.9 256.2 505.7 256.5 506.5 256.5C506 256.9 505.6 257.4 505.2 258C504.9 258.6 504.8 259.3 504.9 259.9C504.8 260.2 504.8 260.4 504.9 260.5Z" fill="#355389"/>
<path d="M494.3 248.1C494.7 248.4 495 248.9 495.2 249.3C495.3 249.8 495.4 250.3 495.3 250.8C495.2 251.1 495 251.5 494.8 251.7L494.7 251.8C494.3 252.3 493.7 252.6 493.1 252.7C492.5 252.8 491.9 252.6 491.3 252.3C491.2 252.2 491.2 252.2 491.1 252.1C490.6 251.7 490.2 251.1 490.1 250.4C490 249.7 490.2 249 490.7 248.5C491.1 247.9 491.8 247.6 492.4 247.5C493.1 247.4 493.8 247.7 494.3 248.1Z" fill="#355389"/>
<path d="M494.7 251.8C494.4 252.6 494.4 253.4 494.5 254.2C494.7 255 495.1 255.7 495.7 256.3C494.1 256.3 492.6 256.5 491.1 257.1C491.6 256.4 491.9 255.5 491.9 254.7C491.9 253.8 491.7 253 491.2 252.3C491.7 252.7 492.4 252.8 493 252.7C493.7 252.6 494.2 252.3 494.7 251.8Z" fill="#355389"/>
<path d="M515.2 280.1C514.6 280.3 514.1 280.3 513.5 280.2C512.9 280.1 512.4 279.8 512 279.3C511.7 279 511.5 278.6 511.4 278.3C511.4 278.2 511.4 278.2 511.4 278.2C511.2 277.5 511.2 276.7 511.5 276.1C511.8 275.5 512.3 274.9 513 274.6C513.1 274.6 513.2 274.5 513.3 274.5C513.7 274.4 514.1 274.3 514.5 274.3C514.9 274.3 515.3 274.4 515.7 274.6C516 274.8 516.4 275 516.7 275.3C516.9 275.6 517.2 275.9 517.3 276.3C517.4 276.7 517.5 277.1 517.5 277.5C517.5 277.9 517.4 278.3 517.2 278.7C517 279 516.8 279.4 516.5 279.7C515.9 279.8 515.5 280 515.2 280.1Z" fill="#355389"/>
<path d="M511.2 278.1C510.6 277.3 509.8 276.8 508.9 276.4C508 276.1 507 276.1 506 276.3C507 274.8 507.7 273.1 508.1 271.3C508.5 272.2 509.1 273.1 510 273.7C510.8 274.3 511.8 274.6 512.9 274.5C512.2 274.8 511.7 275.3 511.4 276C511.1 276.7 511 277.4 511.2 278.1Z" fill="#355389"/>
<path d="M503.5 289.2C503 289 502.5 288.7 502.2 288.3C501.8 287.9 501.7 287.3 501.6 286.8C501.6 286.4 501.6 286 501.7 285.7V285.6C501.9 285 502.4 284.5 503 284.2C503.6 283.9 504.3 283.8 505 284C505.1 284 505.2 284 505.3 284.1C505.6 284.2 506 284.4 506.3 284.6C506.6 284.8 506.8 285.1 507 285.5C507.2 285.8 507.3 286.2 507.3 286.6C507.3 287 507.3 287.3 507.1 287.7C507 288 506.8 288.4 506.6 288.7C506.3 289 506.1 289.2 505.7 289.3C505.3 289.4 505 289.6 504.6 289.6C504.2 289.4 503.9 289.3 503.5 289.2Z" fill="#355389"/>
<path d="M501.8 285.5C501.8 284.6 501.6 283.7 501.1 282.9C500.6 282.1 499.9 281.5 499.1 281.2C500.7 280.7 502.2 279.9 503.5 278.8C503.2 279.7 503.2 280.7 503.5 281.6C503.8 282.5 504.3 283.3 505.1 283.9C504.5 283.8 503.8 283.8 503.1 284.1C502.4 284.4 502.1 284.9 501.8 285.5Z" fill="#355389"/>
<path d="M485.3 289.5C485 288.9 484.9 288.2 485 287.5C485.1 286.8 485.4 286.2 485.9 285.7C486.2 285.4 486.6 285.1 487 284.9C487.1 284.9 487.1 284.9 487.1 284.9C487.9 284.6 488.8 284.6 489.6 284.8C490.4 285.1 491.1 285.6 491.5 286.4C491.5 286.5 491.6 286.6 491.7 286.7C491.9 287.2 492 287.7 492 288.1C492 288.9 491.8 289.7 491.2 290.3C490.7 290.9 490 291.4 489.2 291.6C488.4 291.8 487.6 291.7 486.9 291.3C486.2 290.9 485.7 290.3 485.3 289.5Z" fill="#355389"/>
<path d="M487.2 284.8C488 284 488.6 283 488.9 281.9C489.2 280.8 489.1 279.7 488.7 278.6C490.6 279.6 492.6 280.2 494.7 280.5C493.6 281 492.8 281.9 492.2 282.9C491.6 283.9 491.4 285.1 491.5 286.3C491.1 285.6 490.4 285 489.6 284.7C488.9 284.5 488 284.5 487.2 284.8Z" fill="#355389"/>
<path d="M163.8 360.9C164.5 358.2 164.5 355.4 164 352.7C163.5 350 162.3 347.5 160.6 345.3C158.9 343.1 156.8 341.4 154.3 340.1C151.8 338.9 149.1 338.3 146.4 338.3C143.2 338.3 140.1 339.2 137.4 340.7C134.8 342.2 132.6 344.3 131.1 346.9C129.5 349.5 128.6 352.3 128.5 355.3C128.3 358.3 128.9 361.3 130.1 364C131.3 366.7 133.3 369.1 135.6 370.8C138 372.6 140.7 373.8 143.7 374.2C146.6 374.7 149.7 374.4 152.5 373.4C155.3 372.4 157.8 370.7 159.9 368.5C161.7 366.5 163.1 363.9 163.8 360.9Z" fill="#96D9C9"/>
<path d="M140.3 335.3C140.2 335.4 140.2 335.5 140.1 335.6C139.5 336.4 138.7 337 137.7 337.2C136.7 337.4 135.7 337.3 134.8 336.7C133.9 336.1 133.3 335.3 133.1 334.4C132.9 333.4 133 332.4 133.6 331.5C134.2 330.6 135 330 135.9 329.8C136.9 329.6 137.9 329.7 138.7 330.2C139.6 330.7 140.2 331.5 140.4 332.5C140.9 333.4 140.8 334.5 140.3 335.3Z" fill="#96D9C9"/>
<path d="M142.4 338.899C140.6 339.299 138.9 339.999 137.2 340.999C137.4 340.299 137.4 339.599 137.2 338.999C137 338.399 136.7 337.699 136.2 337.199C136.9 337.399 137.7 337.299 138.4 336.999C139.1 336.699 139.7 336.199 140.1 335.699C140.1 336.299 140.3 336.999 140.6 337.499C140.9 337.999 141.4 338.499 141.9 338.799C142.2 338.699 142.3 338.799 142.4 338.899Z" fill="#96D9C9"/>
<path d="M153.9 377.3C153.9 377.2 154 377.1 154 377.1C154.4 376.5 154.9 376 155.5 375.6C156.1 375.2 156.9 375.1 157.6 375.2C158.1 375.3 158.5 375.4 158.9 375.6C159.6 376 160.1 376.4 160.5 377.1C160.9 377.7 161.1 378.5 161 379.3C161 380 160.7 380.8 160.2 381.4C159.7 382 159.1 382.5 158.4 382.7C157.7 383 156.9 383 156.2 382.8C155.5 382.6 154.8 382.2 154.3 381.7C153.8 381.1 153.5 380.4 153.4 379.7C153.5 378.7 153.6 377.9 153.9 377.3Z" fill="#96D9C9"/>
<path d="M151.5 373.899C153.2 373.299 154.9 372.499 156.5 371.399C156.4 372.099 156.4 372.799 156.6 373.399C156.8 373.999 157.2 374.599 157.8 375.099C157.1 374.999 156.3 375.199 155.7 375.499C155.1 375.899 154.5 376.399 154.2 376.999C154.1 376.399 153.9 375.799 153.5 375.299C153.1 374.799 152.7 374.399 152.1 374.099C151.8 373.999 151.7 373.999 151.5 373.899Z" fill="#96D9C9"/>
<path d="M157.6 335.6C157.5 335.7 157.4 335.7 157.2 335.7C155.8 336 154.3 335.8 153.1 335C151.9 334.3 151 333 150.6 331.6C150.3 330.2 150.5 328.7 151.3 327.4C152 326.2 153.2 325.2 154.7 324.8C156.1 324.4 157.6 324.6 158.8 325.4C160.1 326.1 161 327.3 161.4 328.7C161.8 330.1 161.6 331.6 161 332.9C160.2 334.2 159 335.1 157.6 335.6Z" fill="#96D9C9"/>
<path d="M156.4 341.499C154.1 340.199 151.5 339.199 148.8 338.699C149.7 338.199 150.4 337.399 150.8 336.599C151.3 335.699 151.5 334.699 151.4 333.699C152.1 334.599 152.9 335.199 154 335.599C155 335.999 156.1 335.999 157.2 335.799C156.6 336.599 156.1 337.599 156 338.599C155.9 339.499 156 340.599 156.4 341.499Z" fill="#96D9C9"/>
<path d="M165.9 369.999C165.9 369.799 165.8 369.799 165.9 369.599C165.7 368.199 166.1 366.699 167 365.499C167.8 364.299 169.2 363.499 170.6 363.299C171.1 363.199 171.6 363.199 172.1 363.199C173.2 363.299 174.2 363.599 175.1 364.299C176 364.899 176.6 365.799 177.1 366.799C177.5 367.799 177.7 368.899 177.4 369.899C177.2 370.999 176.7 371.899 176 372.799C175.3 373.699 174.3 374.199 173.3 374.499C172.3 374.799 171.2 374.799 170.1 374.499C169.1 374.199 168.1 373.599 167.4 372.799C166.6 372.099 166.1 371.099 165.9 369.999Z" fill="#96D9C9"/>
<path d="M160 368.2C161.7 365.9 162.9 363.5 163.8 360.8C164.2 361.7 164.9 362.5 165.8 363.1C166.6 363.7 167.6 364 168.7 364.1C167.7 364.6 166.9 365.5 166.5 366.5C166 367.5 165.8 368.6 165.9 369.7C165.3 369 164.4 368.5 163.5 368.2C162.6 367.9 161.6 367.8 160.7 368.1C160.5 368 160.2 368.1 160 368.2Z" fill="#96D9C9"/>
<path d="M175.7 350.999C175.3 351.599 174.8 352.099 174.1 352.399C173.4 352.699 172.7 352.799 172 352.699C171.5 352.599 171 352.499 170.6 352.199L170.4 352.099C169.7 351.599 169.1 350.799 168.9 349.999C168.6 349.099 168.8 348.199 169.1 347.399C169.2 347.299 169.2 347.199 169.3 347.099C169.8 346.299 170.6 345.599 171.6 345.399C172.6 345.199 173.5 345.299 174.4 345.799C175.3 346.299 175.8 347.199 176.1 348.099C176.4 349.199 176.2 350.199 175.7 350.999Z" fill="#96D9C9"/>
<path d="M170.5 352.2C169.3 351.9 168.1 352 167 352.4C165.9 352.8 164.9 353.5 164.2 354.5C163.9 352.3 163.3 350.2 162.3 348.2C163.4 348.8 164.6 349.1 165.8 348.9C167 348.8 168.2 348.3 169.1 347.5C168.7 348.3 168.6 349.2 168.9 350.1C169.3 350.9 169.8 351.7 170.5 352.2Z" fill="#96D9C9"/>
<path d="M134.2 386.1C133.8 385.3 133.7 384.5 133.8 383.7C133.9 382.9 134.2 382.1 134.8 381.4C135.2 380.9 135.6 380.6 136.1 380.3C136.2 380.3 136.2 380.2 136.3 380.2C137.2 379.8 138.4 379.7 139.4 380C140.4 380.3 141.3 381 141.8 381.9C141.9 382 141.9 382.1 142 382.2C142.3 382.7 142.4 383.3 142.4 383.8C142.4 384.4 142.3 385 142.2 385.5C142 386 141.7 386.5 141.4 387C141 387.4 140.6 387.8 140.1 388C139.6 388.3 139 388.4 138.5 388.5C137.9 388.6 137.4 388.5 136.8 388.3C136.3 388.1 135.8 387.8 135.3 387.5C134.8 387.1 134.5 386.6 134.2 386.1Z" fill="#96D9C9"/>
<path d="M136.3 380.2C137.3 379.2 137.9 378 138.3 376.6C138.6 375.2 138.4 373.8 138 372.5C140.3 373.6 142.9 374.3 145.4 374.6C144.1 375.3 143.1 376.3 142.4 377.7C141.8 379 141.5 380.4 141.7 381.9C141.1 381 140.3 380.4 139.3 380C138.4 379.8 137.3 379.8 136.3 380.2Z" fill="#96D9C9"/>
<path d="M119.3 371.3C119.5 370.6 119.8 369.9 120.4 369.3C121 368.7 121.7 368.4 122.4 368.2C122.9 368.1 123.5 368.1 124 368.2H124.2C125.1 368.4 125.9 369 126.5 369.8C127 370.6 127.3 371.5 127.2 372.5C127.2 372.6 127.2 372.8 127.1 372.9C127 373.4 126.8 373.9 126.5 374.4C126.2 374.9 125.8 375.2 125.4 375.5C124.9 375.8 124.5 376 123.9 376.1C123.4 376.2 122.9 376.2 122.3 376.1C121.8 376 121.3 375.8 120.8 375.5C120.4 375.2 120 374.8 119.7 374.4C119.4 373.9 119.2 373.5 119.1 372.9C119.2 372.4 119.2 371.8 119.3 371.3Z" fill="#96D9C9"/>
<path d="M124.3 368.299C125.6 368.199 126.8 367.599 127.8 366.799C128.8 365.999 129.5 364.899 129.9 363.699C130.9 365.899 132.3 367.799 134.1 369.399C132.8 369.199 131.4 369.299 130.2 369.899C129 370.499 128 371.399 127.3 372.499C127.4 371.599 127.2 370.599 126.6 369.799C126 368.999 125.1 368.499 124.3 368.299Z" fill="#96D9C9"/>
<path d="M115.7 345.699C116.5 345.099 117.5 344.899 118.5 344.899C119.5 344.899 120.4 345.199 121.2 345.799C121.7 346.199 122.2 346.699 122.6 347.299C122.6 347.399 122.7 347.399 122.7 347.499C123.3 348.499 123.5 349.799 123.3 350.999C123.1 352.199 122.4 353.199 121.4 353.999C121.3 354.099 121.1 354.199 121 354.299C120.4 354.699 119.7 354.899 119 354.999C117.9 355.099 116.7 354.999 115.7 354.299C114.7 353.699 114 352.799 113.6 351.699C113.2 350.599 113.2 349.399 113.6 348.299C114 347.199 114.7 346.299 115.7 345.699Z" fill="#96D9C9"/>
<path d="M122.7 347.5C124 348.5 125.5 349.2 127 349.4C128.6 349.6 130.2 349.3 131.6 348.6C130.5 351.4 130 354.4 130 357.4C129.1 356 127.7 354.9 126.1 354.3C124.5 353.7 122.8 353.6 121.2 354C122.1 353.2 122.9 352.2 123.1 351C123.5 349.8 123.3 348.6 122.7 347.5Z" fill="#96D9C9"/>
<path d="M483.1 365.1C466.1 364.8 451.9 378.5 451.6 395.5C451.3 412.7 464.9 426.7 482 427C499 427.3 513.2 413.6 513.5 396.6C513.8 379.6 500.2 365.4 483.1 365.1Z" fill="#F58A97"/>
<path d="M445.1 407.399C446.7 413.099 449.7 418.399 453.6 422.799C457.5 427.299 462.5 430.699 468 432.899C473.5 435.099 479.4 436.099 485.4 435.699C491.3 435.299 497 433.499 502.1 430.399C508 426.899 512.8 421.899 516.3 416.099C519.5 410.499 521.3 404.199 521.4 397.699C521.5 391.299 520.1 384.899 517.2 379.199C514.3 373.499 510 368.499 504.8 364.799C499.6 361.099 493.4 358.799 487.1 357.999C480.7 357.199 474.3 357.999 468.4 360.399C462.4 362.699 457.1 366.499 453 371.499C448.8 376.499 446 382.199 444.6 388.499C443.1 394.699 443.2 401.199 445.1 407.399ZM482.9 367.199C488.7 367.299 494.3 369.099 499.2 372.499C503.9 375.799 507.7 380.499 509.8 385.999C511.9 391.499 512.4 397.399 511.2 403.099C509.9 408.799 507.1 413.999 502.9 417.999C498.7 422.099 493.5 424.799 487.7 425.899C482 426.999 476.1 426.199 470.7 423.899C465.3 421.599 460.9 417.699 457.7 412.799C454.6 407.799 453 402.099 453.1 396.299C453.2 388.399 456.5 380.999 462.1 375.599C467.7 369.999 475.2 366.999 482.9 367.199Z" fill="#EB5569"/>
<path d="M490.8 397.4C486.7 397.3 483.4 400.6 483.3 404.8C483.2 408.9 486.5 412.3 490.5 412.4C494.6 412.5 497.9 409.2 498 405C498.1 400.9 494.9 397.4 490.8 397.4Z" fill="#EB5569"/>
<path d="M516.7 429.699C516.7 429.399 516.7 429.299 516.7 429.099C516.9 426.899 517.8 424.899 519.4 423.499C521 421.999 523.1 421.199 525.2 421.299C527.4 421.299 529.4 422.299 530.8 423.799C532.3 425.399 533.1 427.499 533 429.599C532.9 431.699 532 433.799 530.6 435.399C529 436.899 526.9 437.799 524.9 437.799C522.7 437.799 520.7 436.999 519.1 435.399C517.5 433.799 516.6 431.699 516.7 429.699Z" fill="#EB5569"/>
<path d="M508.9 425.299C511.8 422.599 514.3 419.499 516.3 415.899C516.7 417.299 517.4 418.599 518.4 419.699C519.4 420.699 520.7 421.499 522.1 421.999C520.5 422.499 519.2 423.499 518.3 424.799C517.4 426.099 516.7 427.599 516.5 429.199C515.7 427.999 514.7 427.099 513.6 426.399C512.5 425.699 511 425.299 509.7 425.399C509.5 425.299 509.1 425.299 508.9 425.299Z" fill="#EB5569"/>
<path d="M445.8 366.3C445.8 366.4 445.8 366.7 445.8 366.8C445.8 368.3 445.4 369.9 444.6 371.3C443.8 372.7 442.5 373.7 441.1 374.3C440.2 374.7 439.3 374.9 438.2 375C436.5 375.1 435 374.8 433.6 373.9C432.2 373.1 431.1 371.9 430.3 370.4C429.6 369 429.3 367.3 429.5 365.6C429.7 363.9 430.3 362.4 431.4 361.2C432.5 359.9 433.9 359.1 435.4 358.6C437 358.1 438.6 358.1 440.2 358.7C441.7 359.2 443.1 360.2 444.2 361.5C445.1 363.2 445.7 364.7 445.8 366.3Z" fill="#EB5569"/>
<path d="M454 369.9C451.4 372.8 449.1 376.3 447.5 380C447 378.6 446.1 377.4 445.1 376.5C444.1 375.6 442.7 374.9 441.1 374.6C442.5 374 443.7 372.8 444.6 371.6C445.4 370.2 445.9 368.7 445.8 367.1C446.7 368.1 447.7 369.1 449 369.6C450.3 370.1 451.6 370.4 453 370.3C453.3 370 453.6 370 454 369.9Z" fill="#EB5569"/>
<path d="M484.1 447.799C484.2 447.499 484.5 447.399 484.8 447.199C487.2 444.999 490.1 443.899 493.2 443.999C496.3 444.099 499.4 445.399 501.5 447.599C503.7 449.999 504.9 452.899 504.8 456.199C504.7 459.299 503.5 462.399 501.3 464.699C499.1 466.999 496.1 468.199 493 468.199C489.9 468.299 486.8 467.099 484.5 464.799C482.2 462.599 481 459.599 480.8 456.499C480.8 453.199 482 450.199 484.1 447.799Z" fill="#EB5569"/>
<path d="M479.9 435.5C485.7 435.5 491.5 434.4 497.1 432.6C496 434.5 495.6 436.7 495.7 438.8C495.8 441 496.4 443.1 497.7 444.9C495.5 444 493.2 443.8 490.9 444.1C488.6 444.6 486.5 445.6 484.8 447.2C485.1 445 484.9 442.7 484 440.6C483.1 438.6 481.7 436.8 479.9 435.5Z" fill="#EB5569"/>
<path d="M431.4 392.699C431.7 392.999 431.8 393.099 431.9 393.399C433.8 395.899 434.6 399.099 434.2 402.199C433.9 405.299 432.3 408.199 429.9 410.299C429.1 410.899 428.2 411.599 427.3 412.099C425.2 413.099 422.9 413.599 420.6 413.299C418.3 413.099 416.1 412.199 414.2 410.699C412.4 409.299 410.9 407.399 410.2 405.199C409.3 402.999 409.2 400.699 409.7 398.399C410.1 396.099 411.3 393.999 412.9 392.399C414.5 390.799 416.6 389.499 418.8 388.899C421 388.299 423.5 388.299 425.6 389.099C427.8 389.699 429.9 390.999 431.4 392.699Z" fill="#EB5569"/>
<path d="M444.3 389.899C443.7 395.999 444 401.899 445.1 407.799C443.3 406.499 441.1 405.799 438.9 405.599C436.7 405.399 434.5 405.899 432.6 406.899C433.8 404.899 434.4 402.399 434.1 400.099C434 397.799 433.1 395.399 431.8 393.499C433.7 393.999 435.8 394.099 437.9 393.699C439.8 393.199 441.8 392.299 443.2 390.999C443.7 390.599 444.1 390.199 444.3 389.899Z" fill="#EB5569"/>
<path d="M529.6 450C525.1 449.9 521.3 453.6 521.2 458.1C521.1 462.7 524.8 466.4 529.3 466.5C533.8 466.6 537.6 462.9 537.7 458.4C537.8 453.9 534.1 450.1 529.6 450Z" fill="#EB5569"/>
<path d="M533.5 345.1C530.7 345.1 528.4 347.3 528.4 350C528.4 352.8 530.6 355.1 533.3 355.1C536.1 355.1 538.4 352.9 538.4 350.2C538.5 347.5 536.3 345.2 533.5 345.1Z" fill="#EB5569"/>
<path d="M435.2 331.5C430.7 331.4 426.9 335.1 426.8 339.6C426.7 344.2 430.4 347.9 434.9 348C439.4 348.1 443.2 344.4 443.3 339.9C443.5 335.4 439.8 331.6 435.2 331.5Z" fill="#EB5569"/>
<path d="M433.7 438.799C433.7 437.299 434.3 435.699 435.1 434.399C436 433.099 437.2 432.099 438.6 431.499C439.6 431.099 440.7 430.899 441.7 430.899H442.1C444 431.099 445.8 431.899 447.2 433.199C448.6 434.499 449.3 436.299 449.6 438.299C449.6 438.599 449.6 438.799 449.6 439.099C449.6 441.199 448.8 443.199 447.2 444.699C445.6 446.199 443.7 446.999 441.5 446.899C439.3 446.899 437.4 445.899 435.9 444.499C434.4 442.999 433.7 440.899 433.7 438.799Z" fill="#EB5569"/>
<path d="M442.1 431C444.6 430.3 446.7 428.8 448.4 426.9C450 424.9 451.1 422.6 451.2 420C454.1 423.8 457.5 427.1 461.6 429.7C458.9 429.8 456.3 430.6 454.2 432.2C452 433.7 450.4 436 449.6 438.4C449.5 436.5 448.6 434.6 447.2 433.3C445.8 431.9 444 431.1 442.1 431Z" fill="#EB5569"/>
<path d="M472.9 328.4C474.4 329.5 475.6 330.8 476.3 332.5C477 334.2 477.3 336 477 337.8C476.8 339.1 476.3 340.2 475.6 341.3C475.5 341.4 475.5 341.6 475.3 341.7C474 343.5 472 344.9 469.8 345.3C467.6 345.8 465.3 345.5 463.4 344.4C463.1 344.3 462.9 344.1 462.6 344C461.6 343.3 460.7 342.4 460.1 341.5C459.5 340.5 459 339.3 458.6 338.1C458.4 336.9 458.4 335.6 458.5 334.5C458.8 333.3 459.2 332.2 459.8 331.2C460.5 330.2 461.4 329.3 462.3 328.5C463.3 327.7 464.4 327.4 465.7 327C466.9 326.8 468.2 326.8 469.3 326.9C470.7 327.2 471.9 327.8 472.9 328.4Z" fill="#EB5569"/>
<path d="M475.4 341.8C474.6 344.8 474.8 347.7 475.6 350.6C476.6 353.5 478.3 355.9 480.6 357.8C475 358.2 469.6 359.7 464.5 362C466.1 359.3 466.9 356.2 466.7 353C466.5 349.9 465.4 346.9 463.4 344.4C465.4 345.5 467.6 345.8 469.8 345.3C472.1 344.8 474 343.5 475.4 341.8Z" fill="#EB5569"/>
<path d="M516.7 339.899C517.2 341.499 517.3 343.099 516.9 344.799C516.5 346.499 515.6 347.899 514.2 348.999C513.3 349.799 512.4 350.399 511.2 350.799L510.8 350.899C508.9 351.499 506.7 351.199 504.9 350.399C503.1 349.499 501.6 347.999 500.7 346.099C500.6 345.799 500.5 345.599 500.5 345.299C500.1 344.299 500 343.099 500 341.899C500 340.699 500.4 339.699 500.8 338.699C501.3 337.699 502 336.799 502.9 335.999C503.8 335.199 504.7 334.699 505.9 334.399C506.9 333.999 508.1 333.899 509.3 333.899C510.5 333.999 511.5 334.299 512.5 334.899C513.5 335.399 514.4 336.099 515.2 336.999C515.8 337.799 516.3 338.899 516.7 339.899Z" fill="#EB5569"/>
<path d="M510.8 350.9C508.6 352.5 506.9 354.8 505.9 357.4C505 360 504.8 362.8 505.4 365.5C501.2 362.6 496.5 360.4 491.4 359.3C494.1 358.3 496.5 356.6 498.1 354.1C499.7 351.8 500.6 349 500.7 346C501.6 347.8 503 349.4 504.9 350.3C506.8 351.2 508.9 351.4 510.8 350.9Z" fill="#EB5569"/>
<path d="M551.1 383.7C550.2 385.6 548.6 387.1 546.8 388.1C545 389.1 542.9 389.6 540.7 389.4C539.3 389.2 537.9 388.8 536.6 388.2C536.5 388.1 536.3 388.1 536.2 387.9C534 386.6 532.3 384.5 531.4 382C530.5 379.5 530.7 376.8 531.7 374.4C531.8 374.1 532 373.8 532.1 373.5C532.8 372.1 533.8 371 535 370.1C537 368.6 539.3 367.7 541.9 367.8C544.4 367.8 546.8 368.8 548.7 370.4C550.6 372 551.9 374.2 552.3 376.7C552.8 379 552.3 381.4 551.1 383.7Z" fill="#EB5569"/>
<path d="M536.1 387.8C532.6 387.2 529.1 387.7 526 389C522.9 390.3 520.1 392.6 518.3 395.6C517.3 389.1 514.9 383 511.7 377.4C514.9 379 518.6 379.6 522.2 379C525.8 378.4 529.1 376.8 531.7 374.3C530.8 376.7 530.6 379.4 531.4 381.9C532.3 384.4 533.9 386.5 536.1 387.8Z" fill="#EB5569"/>
<path d="M485.1 376.6C482.4 376.6 480 378.7 480 381.5C480 384.3 482.1 386.6 484.9 386.6C487.6 386.6 490 384.5 490 381.7C490.1 378.9 487.9 376.7 485.1 376.6Z" fill="#EB5569"/>
<path d="M469.1 392.6C466.9 392.6 464.9 394.3 464.9 396.7C464.9 399 466.8 400.7 469 400.8C471.2 400.8 473.2 399.1 473.2 396.7C473.2 394.4 471.4 392.6 469.1 392.6Z" fill="#EB5569"/>
<path d="M191.3 122.3C207.924 122.3 221.4 108.823 221.4 92.1996C221.4 75.5758 207.924 62.0996 191.3 62.0996C174.676 62.0996 161.2 75.5758 161.2 92.1996C161.2 108.823 174.676 122.3 191.3 122.3Z" fill="#E84F1F"/>
<path d="M214.4 110.1L229.1 128.6L206 116.7L214.4 110.1Z" fill="#E84F1F"/>
<path d="M170.1 99.6004C170.8 100.1 172.6 100.8 174.4 100.8C177.8 100.8 178.8 98.7004 178.8 97.1004C178.8 94.4004 176.3 93.2004 173.8 93.2004H172.3V91.2004H173.8C175.7 91.2004 178.1 90.2004 178.1 87.9004C178.1 86.4004 177.1 85.0004 174.7 85.0004C173.2 85.0004 171.7 85.7004 170.8 86.3004L170.1 84.4004C171.1 83.7004 173.1 82.9004 175.2 82.9004C179 82.9004 180.7 85.2004 180.7 87.5004C180.7 89.5004 179.5 91.2004 177.1 92.1004V92.2004C179.5 92.7004 181.4 94.5004 181.4 97.2004C181.4 100.3 179 103 174.3 103C172.1 103 170.2 102.3 169.3 101.7L170.1 99.6004Z" fill="white"/>
<path d="M184.5 97.7C184.5 95.3 186 93.5 188.3 92.5V92.4C186.2 91.4 185.2 89.7 185.2 88.1C185.2 85 187.8 83 191.2 83C194.9 83 196.8 85.4 196.8 87.8C196.8 89.4 196 91.2 193.6 92.3V92.4C196 93.4 197.5 95 197.5 97.4C197.5 100.8 194.6 103 190.9 103C186.9 102.9 184.5 100.5 184.5 97.7ZM194.9 97.6C194.9 95.2 193.3 94.1 190.6 93.4C188.3 94.1 187.1 95.5 187.1 97.4C187 99.4 188.5 101.1 191 101.1C193.4 101 194.9 99.6 194.9 97.6ZM187.7 87.9C187.7 89.8 189.2 90.9 191.4 91.5C193.1 90.9 194.3 89.7 194.3 88C194.3 86.5 193.4 84.8 191 84.8C188.9 84.8 187.7 86.2 187.7 87.9Z" fill="white"/>
<path d="M205.7 91.0002C203 91.0002 200.8 88.8002 200.8 86.1002C200.8 83.4002 203 81.2002 205.7 81.2002C208.4 81.2002 210.6 83.4002 210.6 86.1002C210.6 88.8002 208.4 91.0002 205.7 91.0002ZM205.7 83.2002C204.1 83.2002 202.8 84.5002 202.8 86.1002C202.8 87.7002 204.1 89.0002 205.7 89.0002C207.3 89.0002 208.6 87.7002 208.6 86.1002C208.6 84.5002 207.3 83.2002 205.7 83.2002Z" fill="white"/>
<path d="M371.3 116.7L362.2 127.5L367.6 128.2L364.4 137.6L373.6 127.2L368.4 125.3L371.3 116.7Z" fill="#B75742"/>
<path d="M391.2 136.6L377.2 137.7L380.5 142L371.6 146.5L385.5 145.6L383.1 140.6L391.2 136.6Z" fill="#B75742"/>
<path d="M295.7 290L282.6 295.2L287 298.3L279.8 305.2L292.8 300.3L289.1 296.1L295.7 290Z" fill="#B75742"/>
<path d="M323.7 376.5L325.3 390.6L329.5 387.1L334.3 395.8L332.9 382L328 384.5L323.7 376.5Z" fill="#B75742"/>
<path d="M311.9 400.6L325.7 403.7L323.8 398.7L333.6 397.1L320.1 393.7L320.8 399.2L311.9 400.6Z" fill="#B75742"/>
<path d="M241.8 137.4C241.8 137.4 238.4 142.1 238.1 152.2C237.8 162.3 237.6 177.6 247.5 177.5C257.4 177.4 267.4 166.2 267.4 166.2L271.4 144.1L257 133.6L241.8 137.4Z" fill="#F7A491"/>
<path d="M263 170.2C263 170.2 262.1 177.9 250.6 180.5C247.4 180.8 247.6 176.2 247.6 176.2L263 170.2Z" fill="#F1826A"/>
<path d="M240.2 156.5C238.2 156.7 237 158.7 237 161.4C237 164.1 238.2 178.4 247.2 178.4C256.2 178.4 261.6 172.6 262.4 171C263.3 169.5 265.9 162.8 265.9 162.8L267 159.7L267.2 158.2L267.5 156.1C267.5 156.1 262.9 165.1 261.6 166.6C260.8 167.4 259.3 167.3 258.5 165.9C257.7 164.5 257 163 256.3 161.2C255.6 159.5 260.5 151.9 260.5 151.9L258.5 150.5C258.5 150.5 256 155.4 254.6 156C253.2 156.7 242.5 156.3 240.2 156.5Z" fill="#96D9C9"/>
<path d="M301.2 226.4C295.2 218.3 287.6 195.7 299 184.9C310.4 174.1 321.9 172.9 331.5 172.3C341.1 171.7 346.2 169.8 351.1 164.9C356 160.1 361.7 151.6 374.5 151.6C387.3 151.6 391.3 159.6 392.9 165.7C394.5 171.8 394 183.9 390.9 190.7C387.8 197.5 383.7 207.2 378.7 213.2C373.6 219.2 353.2 242.1 329.6 242.1C314.1 242.1 307.2 234.5 301.2 226.4Z" fill="#13375B"/>
<path d="M235.6 128.9C235.6 123.8 242.1 119.7 248.8 121.7C255.6 123.6 258.2 127.9 263.5 128.6C268.8 129.4 279.3 134.5 279.3 147.8C279.3 161.1 265.4 173.5 264.5 171.6C263 168.5 266.8 162.4 266.8 156.5C266.8 150.6 265 149.8 262.8 150C261.1 150.1 261 151.7 260.2 152.3C258.7 153.3 257.2 152.7 257.2 149.9C257.1 145.6 257.4 141.6 253.7 139.1C250.4 136.8 246.8 135.8 243.6 137.4C240.5 139.1 235.6 139.6 235.6 128.9Z" fill="#13375B"/>
<path d="M239.2 187.5C237.5 187.8 235.6 188.2 233.8 188.7C226.6 190.8 215.6 196.5 213.7 207.3C211.8 218.2 211.9 253.5 211.9 253.5L221.1 250.9L229.6 248.4C229.6 248.4 228.6 223.9 228.9 210.2C229.2 196.5 239.2 187.8 239.2 187.8V187.5Z" fill="#3C8F7C"/>
<path d="M280.4 260.2L284.5 261.4C284.5 261.4 294 229.6 296.7 219.2C299.4 208.8 297.1 194.5 285.9 191.2C284.3 190.7 282.7 190.3 281.2 189.9C281.2 189.9 273 198.8 270 208.3C267 217.8 261.6 248.4 261.6 248.4L280.4 260.2Z" fill="#3C8F7C"/>
<path d="M215.8 257.8C214.7 254.9 215.6 250.4 221 249C226.4 247.6 249.4 240.2 257.4 237.4C265.4 234.6 278.6 229.2 280.6 227.9C282.5 226.7 282.8 223.9 283.1 221.4C283.4 218.9 285.3 217.2 287.2 215.9C289 214.6 293.6 211.4 294.1 212.8C294.6 214.3 294.6 214.7 296.5 214.7C298.4 214.7 299.4 215.5 299.7 218.7C300 221.9 301.5 230.2 297.2 232.5C292.9 234.8 258.7 252.2 247 257.9C235.3 263.5 220.5 270.1 215.8 257.8Z" fill="#F48C7F"/>
<path d="M260.7 271.6C255 269 240.5 258.7 231.1 250.1C221.7 241.5 219.6 238.1 216.9 237.4C214.1 236.7 209.2 235.5 208.3 230.5C207.4 225.5 207.8 220.7 209.3 217.7C210.8 214.7 215.2 213.5 217.7 216.1C220.2 218.6 222.8 223.2 222.6 225.6C222.4 228 224.4 230.1 227 231.6C229.6 233.1 268.3 252.1 274.3 255.4C280.3 258.7 279.9 259.8 279.9 259.8C279.9 259.8 279.6 264.6 276.5 268.2C273.4 271.8 269.5 275.6 260.7 271.6Z" fill="#F7A491"/>
<path d="M274 328.4C280.241 328.4 285.3 323.341 285.3 317.1C285.3 310.859 280.241 305.8 274 305.8C267.759 305.8 262.7 310.859 262.7 317.1C262.7 323.341 267.759 328.4 274 328.4Z" fill="#B75742"/>
<path d="M394.6 308.8C394.6 308.8 396.7 327.3 396.5 344.1C396.3 360.9 390.6 407.7 387.7 429C384.8 450.3 380.1 505.7 380.1 505.7H365.3C365.3 505.7 364.1 458.3 363.2 446.9C362.4 435.5 369.1 421.5 368.7 414.3C368.3 407 364.8 355.1 364.8 355.1L385.9 307.7L394.6 308.8Z" fill="#3C8F7C"/>
<path d="M349 309.7C349 309.7 342.1 321.9 338.7 330.3C335.3 338.8 335.9 357.7 336.3 371.1C336.7 384.5 337 404.9 335 410.9C333 416.9 325.9 430.3 321.9 438.9C317.9 447.5 317 454.9 316.1 464.1C315.2 473.3 310.5 498.1 310.5 498.1L324.5 501.2C324.5 501.2 349.7 439 351.8 432.5C353.9 426.1 359.6 414.8 361.2 408.9C362.8 403 371.5 380.2 378.2 361.9C385 343.6 392.4 308.8 392.4 308.8L349 309.7Z" fill="#50BFA5"/>
<path d="M274 323.2C277.369 323.2 280.1 320.469 280.1 317.1C280.1 313.731 277.369 311 274 311C270.631 311 267.9 313.731 267.9 317.1C267.9 320.469 270.631 323.2 274 323.2Z" fill="white"/>
<path d="M347.6 419.1C353.841 419.1 358.9 414.041 358.9 407.8C358.9 401.559 353.841 396.5 347.6 396.5C341.359 396.5 336.3 401.559 336.3 407.8C336.3 414.041 341.359 419.1 347.6 419.1Z" fill="#B75742"/>
<path d="M347.6 413.9C350.969 413.9 353.7 411.169 353.7 407.8C353.7 404.431 350.969 401.7 347.6 401.7C344.231 401.7 341.5 404.431 341.5 407.8C341.5 411.169 344.231 413.9 347.6 413.9Z" fill="white"/>
<path d="M390.8 272C394.1 274.3 398.5 275.7 400.6 270.9C402.8 266.1 407 254.3 406.9 240.8C406.8 227.3 404.6 220.6 405.2 216.5C405.8 212.3 408.7 208.8 408.8 204.4C408.9 200 403.3 190.5 399.8 191.6C396.2 192.7 399.8 199.4 399.8 199.4L396.4 214.5L390.8 272Z" fill="#F48C7F"/>
<path d="M359.6 209C359.6 209 351.6 211.3 347.6 213C343.6 214.7 341.5 219.7 342.3 228.5C343.1 237.8 346.5 251.3 351.6 266.1C354.4 274.1 356.8 289 353.9 295.5C350.9 302.1 346.9 310.3 346.9 310.3C346.9 310.3 365.1 313.3 377 313.3C388.9 313.3 394.6 309.6 394.6 309.6C394.6 309.6 396.2 259 395.1 245C394 230.9 392 222.2 386.7 217.6C381.4 213 375.4 212.4 375.4 212.4L359.6 209Z" fill="#E84F1F"/>
<path d="M358.8 177.1C358.8 173.5 362.7 172.8 364.5 173.7C366.3 174.6 367.4 174.3 370.1 169.8C372.8 165.3 376.6 163.2 376.9 160.5C377.2 157.8 378.5 157 381.3 158.7C384.1 160.4 389.6 162.8 390.9 172.6C392.2 182.4 386.8 193.2 383.5 195.4C380.2 197.6 373.8 197.9 368.7 193.8C363.6 189.6 363.7 186.6 363.6 184.9C363.6 183.1 358.8 184.2 358.8 177.1Z" fill="#F7A491"/>
<path d="M364.5 188.6C364.5 188.6 365 196.2 363.3 200.1C361.6 204 358.9 208.1 359.7 210.6C360.5 213.1 366.6 225 374.5 225C382.4 225 376.1 216.1 375.6 214.2C375.1 212.4 375.1 209.3 376.4 205.1C377.7 200.9 379.8 195.6 379.8 195.6L364.5 188.6Z" fill="#F7A491"/>
<path d="M365.8 190.8C365.8 190.8 366.9 198.9 371 201.1C373.8 202.6 377.5 202.4 378.4 197.6L365.8 190.8Z" fill="#F1826A"/>
<path d="M373.9 250.1C373.9 250.1 379.2 260 380.3 260C381.5 260 390.1 228 391.2 224.1C392.2 220.3 391.7 204.7 391.7 202.5C391.7 200.3 392.6 199.6 393.8 199.5C395 199.4 394.5 203 396.4 202.9C398.2 202.7 398.9 198.9 397.6 197C396.3 195.1 395.1 191.5 396.8 191.5C398.5 191.5 403.7 197.4 403.7 204C403.7 210.6 400.2 212.8 399.6 219.1C399.1 225.4 398.3 240 396.9 251.3C395.4 262.6 392.4 278.7 384.8 278.7C377.2 278.7 366 268.1 360.9 260.5C355.8 252.9 373.9 250.1 373.9 250.1Z" fill="#F7A491"/>
<path d="M366.6 173.3C366.6 173.3 372.2 177.9 374.6 179.3C377 180.7 384 181.2 387 181.1C390.7 180.9 391.2 178.7 391.2 179.9C391.3 181.1 389.7 188.6 387.5 191.8C385.3 195 383.9 198.2 375.4 198.2C366.9 198.2 364.1 188 364.1 188C364.1 188 369.2 182.7 369 180.5C368.8 178.3 364.9 173.6 364.9 173.6L366.6 173.3Z" fill="#3C8F7C"/>
<path d="M347.6 213C343.6 214.7 341.5 219.7 342.3 228.5C342.3 228.5 356 261.1 356.7 262.8C357.4 264.4 359.7 263.5 361.9 261.5C364.1 259.4 373.8 252.7 374.9 251.3C376 249.9 378 249.5 375.5 245.6C373 241.7 356.8 217.6 354.4 214.8C352 212 347.6 213 347.6 213Z" fill="#B75742"/>
<path d="M311.7 497.8C311.7 497.8 311.3 503.8 310.5 506.4C309.7 509 302.8 515.7 301.4 519.3C300 522.9 299 532.2 305.9 533.5C312.8 534.8 319.7 529.8 320 523.5C320.3 517.2 320 513.7 321.2 509.7C322.4 505.6 324.3 499.9 324.3 499.9L311.7 497.8Z" fill="#F7A491"/>
<path d="M301.4 519.3C299.9 522.9 299 532.2 305.9 533.5C312.3 534.7 318.9 530.3 319.9 524.6C319.9 524.6 313.4 525.1 308.6 523.2C303.9 521.4 302.7 517.2 302.7 517.2L301.4 519.3Z" fill="#3C8F7C"/>
<path d="M368.2 505.4C368.2 505.4 369.1 513.5 368.6 516.6C368.1 519.7 367.5 523.8 367.5 523.8L378.9 525.9L387.7 523.4L380.6 517.1L379.3 504.8L368.2 505.4Z" fill="#F7A491"/>
<path d="M367.6 523.8L366.8 528L367.4 533.5H405.1V531.1L386.3 522.1L381.1 524.2H373.4L367.8 522.4L367.6 523.8Z" fill="#3C8F7C"/>
<path d="M201.9 225.3L200.4 224.1L201.7 222.3L203 215.1L206.2 212L206.8 207.1L208.5 203.7L210.8 201.1L211.4 193.1L217.1 188.1L223.1 180.4H229.9V182.4H224.1L218.5 189.5L213.3 194L212.8 201.9L210.1 205L208.7 207.7L208.1 212.9L204.9 216.1L203.6 223.2L201.9 225.3Z" fill="#C98077"/>
<path d="M303.5 226.9L303.1 215.1L301.6 213.1L302.1 206.2L304.3 204.9V203.4L300.3 198.1V191.5L291.9 188.4L288 183.1L280.9 182.4L278.5 179L280.1 177.8L282 180.5L289.1 181.1L293.2 186.7L302.3 190.1V197.4L306.3 202.7V206L304.1 207.4L303.6 212.5L305.1 214.4L305.5 226.8L303.5 226.9Z" fill="#C98077"/>
<path d="M400.3 167.9L398.5 167.1L403 156.1L416.2 152.4L417.9 143.3L419.9 143.7L418 154L404.5 157.7L400.3 167.9Z" fill="#F4C984"/>
<path d="M406.4 186.4L404.9 185L414.6 174.2L430 179.4L441 171.6L442.1 173.2L430.3 181.7L415.2 176.6L406.4 186.4Z" fill="#F4C984"/>
<path d="M423 205.7L419.3 197.7L411.4 197.4V195.4L420.6 195.7L424.2 203.4L442 199.5L442.4 201.4L423 205.7Z" fill="#F4C984"/>
<path d="M360.3 162.9C366.541 162.9 371.6 157.841 371.6 151.6C371.6 145.359 366.541 140.3 360.3 140.3C354.059 140.3 349 145.359 349 151.6C349 157.841 354.059 162.9 360.3 162.9Z" fill="#B75742"/>
<path d="M360.3 157.7C363.669 157.7 366.4 154.969 366.4 151.6C366.4 148.231 363.669 145.5 360.3 145.5C356.931 145.5 354.2 148.231 354.2 151.6C354.2 154.969 356.931 157.7 360.3 157.7Z" fill="white"/>
<defs>
<linearGradient id="paint0_linear_771_2267" x1="133.3" y1="438.52" x2="496.216" y2="173.896" gradientUnits="userSpaceOnUse">
<stop stop-color="white" stop-opacity="0.1"/>
<stop offset="1" stop-color="white" stop-opacity="0.5"/>
</linearGradient>
<linearGradient id="paint1_linear_771_2267" x1="141.739" y1="156.489" x2="435.538" y2="434.638" gradientUnits="userSpaceOnUse">
<stop stop-color="white" stop-opacity="0.5"/>
<stop offset="1" stop-color="white" stop-opacity="0.2"/>
</linearGradient>
<linearGradient id="paint2_linear_771_2267" x1="404.434" y1="303.398" x2="243.131" y2="514.004" gradientUnits="userSpaceOnUse">
<stop stop-color="white" stop-opacity="0.1"/>
<stop offset="1" stop-color="white" stop-opacity="0.5"/>
</linearGradient>
<linearGradient id="paint3_linear_771_2267" x1="75.6633" y1="421.063" x2="564.72" y2="167.753" gradientUnits="userSpaceOnUse">
<stop stop-color="white" stop-opacity="0.7"/>
<stop offset="1" stop-color="white"/>
</linearGradient>
</defs>
</svg>
