<svg width="571" height="538" viewBox="0 0 571 538" fill="none" xmlns="http://www.w3.org/2000/svg">
<g clip-path="url(#clip0_389_566)">
<path d="M284.25 504.45C246.212 504.332 208.79 494.842 175.292 476.821C141.794 458.8 113.253 432.802 92.1928 401.126C71.1323 369.451 58.2014 333.074 54.5436 295.213C50.8858 257.351 56.6138 219.172 71.2211 184.051C85.8283 148.929 108.865 117.949 138.293 93.848C167.722 69.7474 202.635 53.2696 239.947 45.8717C277.258 38.4738 315.818 40.3838 352.215 51.4328C388.613 62.4817 421.727 82.3292 448.63 109.22C481.06 141.635 503.133 182.951 512.05 227.927C520.968 272.904 516.329 319.515 498.72 361.852C481.112 404.188 451.329 440.342 413.146 465.729C374.963 491.116 330.102 504.593 284.25 504.45ZM284.25 73.4501C173.69 73.4501 83.7501 162.93 83.7501 272.94C83.7501 382.95 173.69 472.45 284.25 472.45C394.81 472.45 484.75 382.94 484.75 272.94C484.75 162.94 394.81 73.4501 284.25 73.4501Z" fill="url(#paint0_linear_389_566)"/>
<path d="M282.75 433.44C371.116 433.44 442.75 361.806 442.75 273.44C442.75 185.075 371.116 113.44 282.75 113.44C194.384 113.44 122.75 185.075 122.75 273.44C122.75 361.806 194.384 433.44 282.75 433.44Z" fill="url(#paint1_linear_389_566)"/>
<path d="M303.75 478.45C198.33 478.45 115.75 429.03 115.75 365.95C115.75 302.87 198.33 253.45 303.75 253.45C409.17 253.45 491.75 302.86 491.75 365.95C491.75 429.04 409.17 478.45 303.75 478.45ZM303.75 289.45C261.35 289.45 221.75 298.45 192.29 314.86C166.53 329.17 151.75 347.79 151.75 365.94C151.75 384.09 166.53 402.71 192.29 417.03C221.75 433.45 261.35 442.45 303.75 442.45C346.15 442.45 385.75 433.45 415.21 417.04C440.97 402.71 455.75 384.08 455.75 365.94C455.75 347.8 440.97 329.17 415.21 314.85C385.75 298.45 346.15 289.45 303.75 289.45Z" fill="url(#paint2_linear_389_566)"/>
<path d="M296.81 521.86C296.284 521.865 295.763 521.766 295.276 521.569C294.789 521.373 294.346 521.082 293.971 520.714C293.596 520.345 293.298 519.907 293.093 519.424C292.887 518.94 292.779 518.421 292.775 517.895C292.77 517.37 292.869 516.849 293.066 516.362C293.263 515.875 293.553 515.431 293.922 515.057C294.29 514.682 294.728 514.384 295.212 514.178C295.695 513.973 296.214 513.865 296.74 513.86C302.3 513.77 307.93 513.51 313.48 513.08C314.541 513 315.59 513.343 316.398 514.036C317.205 514.729 317.704 515.715 317.785 516.775C317.866 517.836 317.522 518.886 316.829 519.693C316.136 520.501 315.151 521 314.09 521.08C308.39 521.52 302.59 521.79 296.87 521.88L296.81 521.86ZM277.81 521.53H277.6C271.89 521.24 266.11 520.77 260.42 520.13C259.373 520.003 258.419 519.468 257.764 518.641C257.11 517.814 256.809 516.763 256.926 515.715C257.043 514.667 257.57 513.707 258.391 513.045C259.212 512.384 260.261 512.073 261.31 512.18C266.84 512.8 272.46 513.25 278.01 513.54C279.071 513.567 280.078 514.014 280.809 514.783C281.54 515.552 281.936 516.58 281.91 517.64C281.883 518.701 281.436 519.708 280.668 520.44C279.899 521.171 278.871 521.567 277.81 521.54V521.53ZM332.64 518.97C331.579 519.046 330.531 518.697 329.728 518C328.924 517.304 328.43 516.316 328.355 515.255C328.279 514.195 328.628 513.147 329.325 512.344C330.022 511.54 331.009 511.046 332.07 510.97C337.57 510.16 343.12 509.18 348.56 508.04C349.075 507.93 349.607 507.922 350.125 508.018C350.643 508.114 351.137 508.311 351.579 508.598C352.021 508.885 352.402 509.257 352.699 509.692C352.997 510.126 353.206 510.616 353.314 511.131C353.422 511.647 353.427 512.179 353.329 512.697C353.23 513.215 353.031 513.708 352.742 514.148C352.452 514.588 352.079 514.967 351.643 515.263C351.206 515.558 350.716 515.765 350.2 515.87C344.6 517.04 338.89 518.06 333.2 518.87C333.019 518.917 332.835 518.95 332.65 518.97H332.64ZM242.08 517.45C241.842 517.45 241.604 517.43 241.37 517.39C235.73 516.39 230.06 515.19 224.51 513.86C223.491 513.602 222.614 512.953 222.07 512.053C221.526 511.153 221.358 510.076 221.603 509.053C221.847 508.031 222.484 507.145 223.377 506.589C224.269 506.033 225.344 505.85 226.37 506.08C231.77 507.38 237.29 508.53 242.78 509.51C243.767 509.683 244.652 510.22 245.262 511.015C245.872 511.809 246.162 512.804 246.074 513.802C245.986 514.8 245.527 515.728 244.787 516.404C244.048 517.079 243.082 517.453 242.08 517.45ZM367.82 511.45C366.853 511.452 365.919 511.103 365.19 510.469C364.461 509.834 363.986 508.958 363.853 508.001C363.72 507.043 363.938 506.07 364.467 505.262C364.996 504.453 365.8 503.863 366.73 503.6C372.08 502.09 377.44 500.39 382.68 498.6C383.681 498.249 384.781 498.31 385.737 498.769C386.694 499.229 387.428 500.049 387.78 501.05C388.131 502.052 388.07 503.151 387.611 504.108C387.152 505.064 386.331 505.799 385.33 506.15C379.94 508.04 374.41 509.79 368.91 511.34C368.554 511.43 368.187 511.467 367.82 511.45ZM207.13 508.9C206.726 508.899 206.326 508.838 205.94 508.72C200.48 507.02 194.99 505.13 189.65 503.1C188.684 502.707 187.909 501.951 187.492 500.995C187.075 500.038 187.049 498.957 187.418 497.981C187.787 497.005 188.523 496.212 189.469 495.771C190.414 495.33 191.495 495.276 192.48 495.62C197.68 497.62 203.01 499.43 208.32 501.08C209.234 501.364 210.016 501.967 210.524 502.778C211.032 503.589 211.232 504.556 211.088 505.502C210.944 506.448 210.465 507.312 209.739 507.935C209.013 508.559 208.087 508.901 207.13 508.9ZM401.69 499.45C400.77 499.45 399.878 499.133 399.165 498.552C398.452 497.972 397.961 497.163 397.774 496.262C397.587 495.362 397.717 494.424 398.14 493.608C398.564 492.792 399.256 492.146 400.1 491.78C405.21 489.58 410.3 487.19 415.25 484.67C416.197 484.19 417.295 484.106 418.304 484.436C418.804 484.6 419.266 484.86 419.665 485.202C420.064 485.544 420.392 485.962 420.63 486.43C420.867 486.899 421.01 487.41 421.051 487.934C421.091 488.458 421.027 488.985 420.864 489.485C420.701 489.984 420.44 490.447 420.098 490.846C419.756 491.245 419.339 491.573 418.87 491.81C413.78 494.39 408.53 496.81 403.27 499.12C402.772 499.341 402.234 499.453 401.69 499.45ZM173.54 496.05C172.967 496.047 172.402 495.925 171.88 495.69C166.68 493.3 161.48 490.69 156.44 488.02C155.957 487.784 155.526 487.453 155.174 487.047C154.822 486.641 154.556 486.168 154.39 485.657C154.225 485.145 154.165 484.606 154.212 484.07C154.26 483.535 154.416 483.015 154.669 482.541C154.923 482.067 155.269 481.648 155.688 481.311C156.106 480.974 156.589 480.725 157.106 480.578C157.623 480.432 158.164 480.391 158.698 480.458C159.231 480.526 159.745 480.7 160.21 480.97C165.11 483.59 170.16 486.1 175.21 488.41C176.042 488.79 176.719 489.442 177.128 490.26C177.538 491.078 177.654 492.011 177.459 492.905C177.264 493.798 176.768 494.597 176.055 495.17C175.342 495.742 174.454 496.053 173.54 496.05ZM433.68 483.05C432.805 483.051 431.954 482.764 431.257 482.235C430.561 481.706 430.057 480.962 429.823 480.119C429.589 479.276 429.638 478.379 429.963 477.567C430.288 476.754 430.87 476.071 431.62 475.62C436.39 472.76 441.12 469.71 445.68 466.56C446.552 465.962 447.627 465.734 448.667 465.926C449.707 466.118 450.629 466.715 451.231 467.585C451.833 468.455 452.065 469.528 451.878 470.569C451.69 471.611 451.098 472.535 450.23 473.14C445.52 476.39 440.65 479.53 435.73 482.48C435.111 482.852 434.402 483.046 433.68 483.04V483.05ZM141.89 478.98C141.14 478.98 140.405 478.768 139.77 478.37C134.91 475.37 130.08 472.08 125.43 468.75C124.989 468.45 124.614 468.064 124.324 467.617C124.035 467.169 123.838 466.668 123.746 466.143C123.653 465.618 123.666 465.08 123.784 464.56C123.902 464.04 124.123 463.549 124.434 463.116C124.744 462.682 125.138 462.316 125.593 462.037C126.047 461.758 126.553 461.573 127.079 461.492C127.606 461.412 128.144 461.437 128.661 461.567C129.178 461.698 129.664 461.93 130.09 462.25C134.61 465.49 139.29 468.63 144.02 471.59C144.756 472.052 145.322 472.74 145.633 473.551C145.943 474.363 145.981 475.253 145.74 476.088C145.5 476.923 144.994 477.657 144.299 478.179C143.604 478.7 142.759 478.982 141.89 478.98ZM463.18 462.45C462.351 462.452 461.542 462.196 460.865 461.717C460.188 461.239 459.676 460.562 459.4 459.78C459.125 458.998 459.099 458.15 459.326 457.353C459.554 456.556 460.023 455.849 460.67 455.33C465.01 451.84 469.28 448.18 473.36 444.44C474.146 443.754 475.169 443.402 476.211 443.459C477.253 443.516 478.231 443.978 478.937 444.747C479.643 445.516 480.021 446.53 479.99 447.573C479.958 448.616 479.521 449.606 478.77 450.33C474.56 454.19 470.16 457.97 465.68 461.57C464.971 462.139 464.089 462.45 463.18 462.45ZM112.75 457.89C111.82 457.893 110.918 457.571 110.2 456.98C105.78 453.32 101.42 449.48 97.1998 445.57C96.4254 444.845 95.9708 443.842 95.9361 442.781C95.9014 441.721 96.2894 440.69 97.0148 439.915C97.7402 439.141 98.7435 438.686 99.804 438.652C100.864 438.617 101.895 439.005 102.67 439.73C106.73 443.53 110.96 447.26 115.25 450.81C115.883 451.335 116.34 452.043 116.556 452.837C116.773 453.63 116.74 454.472 116.461 455.246C116.182 456.02 115.671 456.689 114.998 457.163C114.325 457.636 113.523 457.89 112.7 457.89H112.75ZM489.63 438.08C488.85 438.08 488.086 437.851 487.435 437.422C486.783 436.993 486.271 436.382 485.962 435.666C485.652 434.95 485.559 434.158 485.694 433.39C485.829 432.621 486.185 431.909 486.72 431.34C490.53 427.29 494.24 423.06 497.72 418.78C498.052 418.372 498.463 418.033 498.927 417.784C499.39 417.535 499.899 417.379 500.423 417.327C500.947 417.275 501.477 417.326 501.981 417.479C502.485 417.632 502.954 417.883 503.361 418.217C503.768 418.551 504.105 418.963 504.352 419.428C504.599 419.893 504.753 420.402 504.803 420.927C504.853 421.451 504.799 421.98 504.644 422.484C504.489 422.987 504.236 423.455 503.9 423.86C500.27 428.28 496.44 432.64 492.5 436.86C492.122 437.252 491.668 437.562 491.166 437.771C490.663 437.981 490.124 438.086 489.58 438.08H489.63ZM86.6298 433.17C86.0796 433.17 85.5355 433.056 85.0313 432.836C84.5272 432.616 84.0739 432.294 83.6998 431.89C79.7998 427.68 75.9898 423.3 72.3698 418.89C72.0194 418.486 71.7538 418.015 71.5888 417.505C71.4238 416.996 71.3627 416.459 71.4092 415.925C71.4556 415.392 71.6087 414.873 71.8592 414.4C72.1098 413.927 72.4528 413.509 72.8679 413.171C73.283 412.833 73.7618 412.582 74.2758 412.432C74.7899 412.282 75.3287 412.237 75.8604 412.3C76.3922 412.362 76.906 412.531 77.3713 412.795C77.8367 413.06 78.2443 413.415 78.5698 413.84C82.0898 418.14 85.7798 422.4 89.5698 426.48C90.0989 427.051 90.4501 427.763 90.5804 428.53C90.7108 429.297 90.6145 430.086 90.3036 430.799C89.9926 431.512 89.4804 432.119 88.8296 432.546C88.1789 432.972 87.4179 433.2 86.6398 433.2L86.6298 433.17ZM512.38 410.17C511.649 410.169 510.933 409.967 510.309 409.587C509.685 409.207 509.177 408.664 508.84 408.015C508.503 407.367 508.35 406.639 508.398 405.91C508.445 405.181 508.692 404.479 509.11 403.88C512.3 399.32 515.37 394.6 518.23 389.88C518.496 389.421 518.851 389.018 519.274 388.697C519.698 388.376 520.181 388.142 520.695 388.01C521.21 387.878 521.746 387.849 522.271 387.926C522.797 388.003 523.302 388.184 523.757 388.458C524.212 388.733 524.608 389.095 524.921 389.524C525.235 389.953 525.46 390.44 525.583 390.957C525.706 391.474 525.725 392.01 525.639 392.534C525.552 393.059 525.362 393.56 525.08 394.01C522.08 398.91 518.96 403.78 515.65 408.49C515.272 409.028 514.768 409.464 514.182 409.761C513.596 410.057 512.946 410.205 512.29 410.19L512.38 410.17ZM64.0098 405.17C63.3667 405.172 62.7327 405.018 62.1618 404.722C61.5908 404.426 61.0996 403.997 60.7298 403.47C57.4298 398.77 54.2498 393.92 51.2698 389.03C50.7515 388.126 50.6067 387.055 50.8663 386.045C51.1258 385.036 51.7693 384.168 52.6595 383.625C53.5498 383.083 54.6166 382.91 55.6327 383.142C56.6488 383.375 57.534 383.995 58.0998 384.87C60.9898 389.61 64.0998 394.32 67.2798 398.87C67.7008 399.469 67.9493 400.172 67.9982 400.903C68.0472 401.633 67.8947 402.363 67.5574 403.013C67.2201 403.663 66.711 404.208 66.0854 404.588C65.4599 404.969 64.7419 405.17 64.0098 405.17ZM530.75 379.31C530.066 379.312 529.394 379.138 528.797 378.805C528.199 378.473 527.697 377.993 527.338 377.411C526.979 376.83 526.775 376.166 526.746 375.483C526.716 374.8 526.862 374.121 527.17 373.51C529.67 368.51 532.02 363.43 534.17 358.31C534.373 357.826 534.669 357.386 535.042 357.016C535.415 356.646 535.857 356.353 536.343 356.154C536.829 355.955 537.35 355.853 537.875 355.855C538.4 355.857 538.92 355.963 539.405 356.165C539.889 356.368 540.329 356.665 540.699 357.038C541.069 357.41 541.362 357.853 541.562 358.339C541.761 358.825 541.862 359.345 541.86 359.871C541.858 360.396 541.753 360.916 541.55 361.4C539.34 366.69 536.91 371.97 534.33 377.11C533.996 377.773 533.484 378.33 532.852 378.718C532.22 379.107 531.492 379.312 530.75 379.31ZM45.3098 374.39C44.5742 374.391 43.8528 374.189 43.2247 373.806C42.5966 373.423 42.0863 372.874 41.7498 372.22C39.1298 367.11 36.6498 361.86 34.3798 356.61C33.9607 355.633 33.9471 354.529 34.3419 353.542C34.7366 352.555 35.5075 351.764 36.4848 351.345C37.4621 350.926 38.5659 350.913 39.5532 351.307C40.5406 351.702 41.3307 352.473 41.7498 353.45C43.9498 358.53 46.3498 363.62 48.8998 368.57C49.1401 369.038 49.2858 369.549 49.3284 370.074C49.371 370.598 49.3097 371.126 49.1481 371.626C48.9864 372.127 48.7276 372.591 48.3864 372.991C48.0452 373.392 47.6284 373.721 47.1598 373.96C46.5874 374.252 45.9523 374.4 45.3098 374.39ZM544.49 346.06C544.065 346.063 543.643 345.996 543.24 345.86C542.741 345.696 542.279 345.435 541.881 345.093C541.482 344.75 541.156 344.333 540.919 343.864C540.682 343.395 540.54 342.884 540.501 342.36C540.461 341.836 540.526 341.309 540.69 340.81C542.42 335.54 543.99 330.15 545.36 324.81C545.491 324.302 545.721 323.824 546.037 323.404C546.354 322.984 546.749 322.63 547.202 322.363C547.655 322.096 548.155 321.921 548.676 321.848C549.196 321.774 549.726 321.804 550.235 321.935C550.744 322.067 551.222 322.297 551.642 322.613C552.061 322.929 552.415 323.325 552.682 323.777C552.949 324.23 553.124 324.731 553.198 325.251C553.271 325.772 553.241 326.302 553.11 326.81C551.7 332.36 550.11 337.94 548.29 343.38C548.015 344.167 547.501 344.849 546.819 345.329C546.138 345.81 545.323 346.065 544.49 346.06ZM31.1698 341.33C30.3371 341.33 29.5253 341.069 28.8477 340.585C28.1701 340.101 27.6604 339.418 27.3898 338.63C25.5098 333.21 23.7998 327.63 22.2998 322.14C22.1619 321.634 22.1252 321.104 22.1918 320.583C22.2584 320.062 22.427 319.559 22.6879 319.103C22.9488 318.647 23.297 318.247 23.7126 317.926C24.1281 317.605 24.6029 317.368 25.1098 317.23C25.6167 317.093 26.1458 317.056 26.6669 317.122C27.188 317.189 27.6908 317.358 28.1468 317.618C28.6027 317.879 29.0028 318.228 29.3241 318.643C29.6455 319.059 29.8819 319.534 30.0198 320.04C31.4698 325.39 33.1298 330.76 34.9498 336.04C35.1587 336.643 35.2204 337.287 35.1298 337.918C35.0393 338.55 34.799 339.15 34.429 339.67C34.0591 340.19 33.5703 340.613 33.0033 340.906C32.4363 341.198 31.8077 341.35 31.1698 341.35V341.33ZM553.17 311.18C552.939 311.179 552.708 311.159 552.48 311.12C551.437 310.937 550.509 310.348 549.9 309.482C549.291 308.616 549.05 307.544 549.23 306.5C550.23 301.02 550.95 295.45 551.52 289.94C551.574 289.415 551.73 288.906 551.981 288.441C552.232 287.976 552.572 287.565 552.981 287.232C553.391 286.899 553.862 286.649 554.368 286.498C554.874 286.347 555.405 286.297 555.93 286.35C556.455 286.404 556.965 286.561 557.429 286.812C557.894 287.063 558.305 287.402 558.638 287.812C558.972 288.221 559.221 288.693 559.372 289.198C559.523 289.704 559.574 290.235 559.52 290.76C558.93 296.46 558.13 302.21 557.15 307.87C556.987 308.799 556.502 309.641 555.779 310.246C555.056 310.852 554.143 311.183 553.2 311.18H553.17ZM21.8798 306.6C20.9506 306.598 20.0512 306.273 19.3358 305.68C18.6205 305.087 18.134 304.263 17.9598 303.35C16.8798 297.71 15.9598 291.98 15.3098 286.35C15.1772 285.297 15.4683 284.235 16.119 283.397C16.7698 282.558 17.7269 282.013 18.7798 281.88C19.8327 281.748 20.8952 282.039 21.7334 282.69C22.5717 283.34 23.1172 284.297 23.2498 285.35C23.9098 290.84 24.7798 296.35 25.8198 301.85C25.9184 302.367 25.9144 302.897 25.8079 303.412C25.7015 303.926 25.4947 304.415 25.1994 304.849C24.9041 305.284 24.526 305.656 24.0868 305.944C23.6476 306.233 23.1559 306.432 22.6398 306.53C22.3886 306.573 22.1345 306.596 21.8798 306.6ZM556.75 275.39H556.64C556.114 275.377 555.597 275.261 555.116 275.048C554.636 274.835 554.203 274.529 553.84 274.148C553.478 273.768 553.194 273.319 553.006 272.829C552.817 272.339 552.726 271.816 552.74 271.29C552.8 269.29 552.82 267.19 552.82 265.14C552.82 261.63 552.75 258.07 552.59 254.57C552.567 254.045 552.647 253.52 552.827 253.026C553.007 252.532 553.282 252.078 553.638 251.691C553.993 251.303 554.421 250.989 554.897 250.767C555.374 250.545 555.89 250.418 556.415 250.395C556.94 250.372 557.465 250.453 557.959 250.633C558.453 250.813 558.907 251.088 559.294 251.443C559.682 251.798 559.996 252.227 560.218 252.703C560.441 253.18 560.567 253.695 560.59 254.22C560.75 257.84 560.83 261.51 560.83 265.14C560.83 267.26 560.83 269.39 560.75 271.49C560.724 272.534 560.291 273.526 559.543 274.254C558.796 274.983 557.794 275.391 556.75 275.39ZM17.7498 270.9C16.7161 270.901 15.7222 270.502 14.9765 269.786C14.2307 269.07 13.7911 268.093 13.7498 267.06C13.6098 263.64 13.5298 260.17 13.5298 256.74C13.5298 254.43 13.5298 252.09 13.6298 249.74C13.659 248.68 14.1084 247.674 14.8791 246.944C15.6499 246.215 16.6789 245.821 17.7398 245.85C18.8007 245.88 19.8065 246.329 20.536 247.1C21.2655 247.871 21.659 248.9 21.6298 249.96C21.5698 252.19 21.5298 254.45 21.5298 256.69C21.5298 260 21.5998 263.37 21.7398 266.69C21.7831 267.75 21.404 268.783 20.6859 269.563C19.9677 270.343 18.9692 270.806 17.9098 270.85L17.7498 270.9ZM555.02 239.45C554.037 239.458 553.086 239.103 552.348 238.453C551.611 237.804 551.138 236.906 551.02 235.93C550.35 230.43 549.47 224.88 548.42 219.44C548.218 218.398 548.439 217.318 549.033 216.439C549.628 215.559 550.548 214.952 551.59 214.75C552.632 214.549 553.712 214.77 554.591 215.364C555.471 215.959 556.078 216.878 556.28 217.92C557.36 223.54 558.28 229.27 558.97 234.92C559.039 235.485 558.988 236.059 558.818 236.602C558.649 237.145 558.365 237.646 557.987 238.071C557.608 238.496 557.143 238.836 556.623 239.067C556.103 239.297 555.539 239.415 554.97 239.41L555.02 239.45ZM18.9098 234.95H18.4898C17.967 234.896 17.4602 234.738 16.9983 234.487C16.5364 234.236 16.1285 233.897 15.7978 233.488C15.4672 233.08 15.2204 232.61 15.0714 232.106C14.9225 231.602 14.8743 231.073 14.9298 230.55C15.5298 224.86 16.3398 219.11 17.3398 213.45C17.4284 212.931 17.6187 212.435 17.8998 211.989C18.1808 211.544 18.5471 211.158 18.9776 210.854C19.408 210.551 19.8942 210.335 20.4082 210.22C20.9222 210.105 21.4539 210.092 21.9728 210.183C22.4916 210.274 22.9874 210.467 23.4317 210.75C23.876 211.033 24.26 211.401 24.5617 211.832C24.8634 212.264 25.0768 212.751 25.1898 213.266C25.3027 213.78 25.3129 214.312 25.2198 214.83C24.2198 220.31 23.4698 225.88 22.8898 231.39C22.7814 232.37 22.3153 233.275 21.5808 233.932C20.8463 234.589 19.8952 234.951 18.9098 234.95ZM548.06 204.22C547.185 204.219 546.335 203.931 545.639 203.399C544.944 202.868 544.442 202.124 544.21 201.28C542.74 195.93 541.07 190.56 539.21 185.28C538.86 184.278 538.922 183.177 539.384 182.221C539.845 181.264 540.667 180.53 541.67 180.18C542.672 179.83 543.773 179.893 544.729 180.354C545.686 180.816 546.42 181.638 546.77 182.64C548.65 188.06 550.38 193.64 551.89 199.12C552.029 199.627 552.068 200.157 552.002 200.678C551.937 201.2 551.77 201.704 551.51 202.161C551.25 202.618 550.902 203.019 550.487 203.342C550.072 203.664 549.597 203.902 549.09 204.04C548.755 204.142 548.409 204.203 548.06 204.22ZM25.2898 199.56C24.9522 199.561 24.616 199.517 24.2898 199.43C23.2642 199.167 22.385 198.507 21.8452 197.596C21.3053 196.685 21.1487 195.597 21.4098 194.57C22.8398 189.01 24.4698 183.43 26.2798 178C26.435 177.49 26.691 177.015 27.0325 176.605C27.3741 176.194 27.7943 175.857 28.2684 175.611C28.7425 175.366 29.261 175.218 29.7932 175.176C30.3254 175.134 30.8606 175.199 31.3673 175.368C31.874 175.536 32.3418 175.804 32.7433 176.156C33.1448 176.507 33.4718 176.936 33.705 177.416C33.9382 177.897 34.073 178.419 34.1013 178.952C34.1296 179.485 34.0509 180.018 33.8698 180.52C32.1198 185.78 30.5398 191.17 29.1598 196.52C28.9458 197.386 28.4488 198.155 27.7476 198.706C27.0465 199.257 26.1814 199.557 25.2898 199.56ZM536.1 170.32C535.32 170.32 534.557 170.092 533.905 169.664C533.252 169.236 532.74 168.626 532.43 167.91C530.22 162.83 527.8 157.74 525.25 152.8C525.009 152.334 524.862 151.824 524.818 151.3C524.774 150.777 524.834 150.25 524.993 149.749C525.153 149.249 525.41 148.785 525.749 148.383C526.088 147.982 526.503 147.651 526.97 147.41C527.437 147.169 527.946 147.023 528.47 146.979C528.993 146.935 529.521 146.994 530.021 147.154C530.521 147.314 530.986 147.571 531.387 147.91C531.788 148.249 532.119 148.664 532.36 149.13C534.99 154.23 537.48 159.47 539.77 164.72C540.036 165.329 540.145 165.995 540.089 166.657C540.034 167.319 539.814 167.957 539.449 168.513C539.085 169.069 538.588 169.525 538.003 169.841C537.419 170.156 536.764 170.321 536.1 170.32ZM36.7498 165.45C36.2171 165.446 35.6905 165.338 35.1998 165.13C34.715 164.927 34.2751 164.63 33.9051 164.257C33.5351 163.883 33.2424 163.441 33.0437 162.954C32.8449 162.467 32.744 161.946 32.7468 161.421C32.7496 160.895 32.8559 160.375 33.0598 159.89C35.2898 154.61 37.7298 149.33 40.3198 144.2C40.5568 143.732 40.8839 143.314 41.2823 142.972C41.6807 142.629 42.1426 142.369 42.6417 142.205C43.1409 142.041 43.6674 141.977 44.1912 142.016C44.715 142.056 45.226 142.198 45.6948 142.435C46.1636 142.672 46.5811 142.999 46.9236 143.398C47.266 143.796 47.5266 144.258 47.6905 144.757C47.8544 145.256 47.9184 145.783 47.8788 146.307C47.8392 146.831 47.6968 147.342 47.4598 147.81C44.9498 152.81 42.5898 157.88 40.4598 163C40.1531 163.73 39.6369 164.352 38.9765 164.788C38.3161 165.224 37.5412 165.455 36.7498 165.45ZM519.48 138.45C518.794 138.452 518.119 138.277 517.52 137.943C516.921 137.608 516.418 137.125 516.06 136.54C513.17 131.81 510.06 127.1 506.86 122.54C506.248 121.673 506.007 120.599 506.188 119.553C506.369 118.508 506.958 117.577 507.825 116.965C508.692 116.354 509.767 116.112 510.812 116.293C511.858 116.474 512.788 117.063 513.4 117.93C516.71 122.62 519.9 127.47 522.89 132.35C523.164 132.799 523.347 133.297 523.428 133.816C523.509 134.335 523.488 134.865 523.364 135.376C523.241 135.887 523.018 136.368 522.708 136.793C522.399 137.217 522.008 137.577 521.56 137.85C520.935 138.238 520.215 138.445 519.48 138.45ZM53.1098 133.45C52.379 133.455 51.6616 133.254 51.0398 132.87C50.1332 132.321 49.4818 131.434 49.2287 130.405C48.9756 129.375 49.1414 128.288 49.6898 127.38C52.6898 122.49 55.8398 117.62 59.1498 112.92C59.4525 112.491 59.8368 112.125 60.2808 111.845C60.7248 111.564 61.2197 111.373 61.7374 111.283C62.2551 111.194 62.7854 111.207 63.298 111.322C63.8105 111.438 64.2954 111.653 64.7248 111.955C65.1542 112.258 65.5198 112.642 65.8007 113.086C66.0816 113.53 66.2723 114.025 66.3619 114.543C66.4515 115.061 66.4383 115.591 66.323 116.104C66.2076 116.616 65.9925 117.101 65.6898 117.53C62.4898 122.08 59.3998 126.79 56.5298 131.53C56.1726 132.117 55.6703 132.602 55.0713 132.938C54.4723 133.275 53.7967 133.451 53.1098 133.45ZM498.63 109.11C498.037 109.112 497.452 108.982 496.916 108.729C496.379 108.477 495.906 108.108 495.53 107.65C492.01 103.35 488.3 99.1004 484.53 95.0204C483.807 94.2433 483.423 93.211 483.461 92.1505C483.5 91.0899 483.958 90.0881 484.735 89.3654C485.512 88.6427 486.544 88.2583 487.605 88.2967C488.665 88.3352 489.667 88.7933 490.39 89.5704C494.3 93.7704 498.11 98.1504 501.74 102.57C502.218 103.156 502.521 103.865 502.612 104.616C502.704 105.367 502.581 106.128 502.257 106.811C501.934 107.495 501.423 108.073 500.785 108.478C500.146 108.883 499.406 109.099 498.65 109.1L498.63 109.11ZM73.9498 104.11C73.1918 104.11 72.4494 103.895 71.8092 103.489C71.1689 103.084 70.657 102.505 70.3332 101.819C70.0094 101.134 69.887 100.371 69.9802 99.6184C70.0734 98.8662 70.3785 98.156 70.8598 97.5704C74.4998 93.1504 78.3498 88.8004 82.2898 84.6304C82.6438 84.2242 83.0762 83.8936 83.5612 83.6587C84.0461 83.4237 84.5735 83.2891 85.1117 83.263C85.6499 83.2369 86.1878 83.3198 86.6932 83.5068C87.1986 83.6937 87.661 83.9809 88.0527 84.351C88.4443 84.7211 88.7571 85.1665 88.9724 85.6604C89.1877 86.1544 89.3009 86.6868 89.3053 87.2257C89.3097 87.7645 89.2052 88.2987 88.998 88.7961C88.7909 89.2935 88.4853 89.744 88.0998 90.1204C84.2798 94.1704 80.5598 98.3804 77.0298 102.66C76.6547 103.114 76.1841 103.479 75.6517 103.729C75.1194 103.98 74.5382 104.11 73.9498 104.11ZM474.02 82.8304C473.006 82.8295 472.03 82.4434 471.29 81.7504C467.22 77.9604 462.98 74.2404 458.68 70.7504C458.274 70.4162 457.938 70.0053 457.691 69.5413C457.444 69.0772 457.291 68.569 457.24 68.0458C457.19 67.5225 457.243 66.9944 457.396 66.4916C457.55 65.9888 457.801 65.5212 458.135 65.1154C458.81 64.2959 459.783 63.7781 460.839 63.6759C461.363 63.6253 461.891 63.6782 462.394 63.8317C462.896 63.9852 463.364 64.2362 463.77 64.5704C468.2 68.2204 472.56 72.0504 476.77 75.9604C477.355 76.5086 477.762 77.22 477.938 78.0025C478.115 78.785 478.051 79.6023 477.757 80.3484C477.463 81.0944 476.951 81.7348 476.288 82.1863C475.625 82.6378 474.842 82.8797 474.04 82.8804L474.02 82.8304ZM98.7498 78.0604C97.9327 78.0716 97.1317 77.8322 96.4547 77.3745C95.7778 76.9168 95.2572 76.2627 94.9631 75.5003C94.669 74.7378 94.6155 73.9036 94.8098 73.1098C95.0041 72.3161 95.4368 71.6009 96.0498 71.0604C100.28 67.2004 104.69 63.4304 109.17 59.8504C109.58 59.5221 110.051 59.2778 110.556 59.1316C111.061 58.9853 111.589 58.9399 112.112 58.9979C112.634 59.056 113.14 59.2163 113.6 59.4698C114.061 59.7233 114.466 60.065 114.795 60.4754C115.123 60.8858 115.367 61.3568 115.514 61.8616C115.66 62.3664 115.705 62.895 115.647 63.4174C115.589 63.9397 115.429 64.4455 115.175 64.9058C114.922 65.3662 114.58 65.7721 114.17 66.1004C109.83 69.5704 105.55 73.2304 101.46 76.9604C100.728 77.656 99.7596 78.049 98.7498 78.0604ZM446.15 60.0604C445.317 60.0579 444.506 59.7958 443.83 59.3104C439.3 56.0804 434.61 52.9504 429.88 50.0004C428.979 49.4382 428.339 48.5412 428.1 47.507C427.861 46.4727 428.043 45.3858 428.605 44.4854C429.167 43.585 430.064 42.9448 431.098 42.7057C432.133 42.4666 433.219 42.6482 434.12 43.2104C438.98 46.2104 443.81 49.4704 448.48 52.8004C449.172 53.2925 449.689 53.9922 449.958 54.798C450.226 55.6039 450.23 56.4741 449.971 57.2828C449.711 58.0914 449.201 58.7965 448.514 59.2958C447.827 59.7952 446.999 60.063 446.15 60.0604ZM126.91 55.7104C126.055 55.7124 125.222 55.4404 124.533 54.9343C123.843 54.4282 123.335 53.7146 123.081 52.8982C122.827 52.0817 122.841 51.2054 123.122 50.3978C123.402 49.5901 123.934 48.8936 124.64 48.4104C129.35 45.1704 134.23 42.0404 139.15 39.1004C139.601 38.8312 140.101 38.6535 140.62 38.5774C141.14 38.5013 141.67 38.5283 142.179 38.6569C142.688 38.7855 143.167 39.0132 143.589 39.3269C144.01 39.6407 144.366 40.0343 144.635 40.4854C144.904 40.9365 145.082 41.4362 145.158 41.956C145.234 42.4757 145.207 43.0054 145.078 43.5148C144.95 44.0241 144.722 44.5031 144.408 44.9244C144.095 45.3458 143.701 45.7012 143.25 45.9704C138.48 48.8204 133.74 51.8604 129.17 54.9704C128.509 55.4405 127.721 55.6986 126.91 55.7104ZM415.54 41.1104C414.885 41.1066 414.24 40.9454 413.66 40.6404C408.76 38.0304 403.66 35.5304 398.66 33.2204C398.182 33.0024 397.751 32.6924 397.393 32.3081C397.035 31.9238 396.756 31.4726 396.572 30.9805C396.201 29.9865 396.24 28.8858 396.68 27.9204C397.12 26.955 397.926 26.2041 398.92 25.8327C399.412 25.6489 399.935 25.5638 400.46 25.5822C400.986 25.6007 401.502 25.7224 401.98 25.9404C407.19 28.3204 412.39 30.9404 417.44 33.5704C418.232 33.9873 418.862 34.6582 419.228 35.4755C419.594 36.2928 419.675 37.2093 419.459 38.0782C419.242 38.9471 418.74 39.7182 418.033 40.2679C417.326 40.8177 416.455 41.1144 415.56 41.1104H415.54ZM157.84 37.3804C156.94 37.3817 156.065 37.0794 155.358 36.5223C154.651 35.9653 154.153 35.186 153.944 34.3106C153.734 33.4352 153.826 32.5147 154.205 31.6981C154.584 30.8815 155.226 30.2164 156.03 29.8104C161.13 27.2404 166.38 24.8104 171.65 22.5304C172.618 22.1487 173.696 22.1593 174.657 22.5599C175.617 22.9604 176.384 23.7195 176.794 24.6759C177.203 25.6324 177.225 26.7109 176.852 27.6826C176.48 28.6543 175.744 29.4427 174.8 29.8804C169.69 32.0704 164.59 34.4504 159.64 36.9504C159.083 37.2357 158.466 37.3832 157.84 37.3804ZM382.75 26.2904C382.268 26.2916 381.79 26.2035 381.34 26.0304C376.15 24.0304 370.82 22.2504 365.5 20.6004C364.983 20.4582 364.501 20.2136 364.081 19.8813C363.66 19.549 363.311 19.1357 363.054 18.666C362.797 18.1962 362.636 17.6795 362.582 17.1466C362.528 16.6136 362.582 16.0753 362.74 15.5635C362.898 15.0517 363.158 14.5768 363.503 14.1671C363.848 13.7574 364.272 13.4212 364.749 13.1784C365.227 12.9357 365.748 12.7913 366.282 12.7538C366.817 12.7164 367.353 12.7866 367.86 12.9604C373.33 14.6504 378.86 16.5304 384.16 18.5504C385.034 18.882 385.765 19.5094 386.224 20.3236C386.684 21.1379 386.844 22.0874 386.676 23.0073C386.509 23.9272 386.024 24.7593 385.307 25.3591C384.59 25.9589 383.685 26.2884 382.75 26.2904ZM190.91 23.2904C189.963 23.2932 189.046 22.96 188.321 22.3501C187.597 21.7402 187.113 20.8931 186.954 19.9595C186.796 19.026 186.974 18.0665 187.456 17.2519C187.939 16.4372 188.695 15.8201 189.59 15.5104C194.99 13.6304 200.52 11.9004 206.03 10.3504C207.052 10.064 208.147 10.1954 209.072 10.7158C209.997 11.2363 210.678 12.103 210.965 13.1254C211.251 14.1478 211.12 15.2421 210.599 16.1676C210.079 17.0931 209.212 17.774 208.19 18.0604C202.84 19.5604 197.47 21.2404 192.19 23.0604C191.784 23.2214 191.355 23.3159 190.92 23.3404L190.91 23.2904ZM348.36 15.7304C348.05 15.7278 347.741 15.6909 347.44 15.6204C342.03 14.3304 336.51 13.1904 331.03 12.2204C330.449 12.2125 329.878 12.0785 329.355 11.8276C328.831 11.5766 328.369 11.2148 327.999 10.7673C327.63 10.3197 327.362 9.79711 327.215 9.23574C327.068 8.67437 327.044 8.08769 327.147 7.51639C327.249 6.9451 327.474 6.40289 327.807 5.92739C328.14 5.45189 328.572 5.05449 329.073 4.76278C329.575 4.47107 330.134 4.29204 330.712 4.23809C331.29 4.18415 331.873 4.2566 332.42 4.45041C338.07 5.45041 343.74 6.61041 349.29 7.93041C350.251 8.14942 351.098 8.71594 351.668 9.52119C352.237 10.3264 352.489 11.3136 352.375 12.2932C352.261 13.2728 351.789 14.1757 351.049 14.8286C350.31 15.4815 349.356 15.8382 348.37 15.8304L348.36 15.7304ZM225.54 13.7304C224.578 13.6899 223.663 13.3038 222.963 12.643C222.262 11.9822 221.824 11.091 221.728 10.133C221.632 9.17496 221.885 8.21447 222.44 7.42779C222.995 6.64112 223.815 6.08105 224.75 5.85041C230.35 4.69041 236.06 3.68041 241.75 2.85041C242.281 2.74905 242.827 2.75638 243.355 2.87195C243.883 2.98753 244.382 3.20895 244.822 3.52284C245.263 3.83674 245.634 4.2366 245.916 4.69826C246.197 5.15992 246.382 5.67381 246.459 6.20888C246.536 6.74395 246.504 7.2891 246.364 7.8114C246.225 8.3337 245.981 8.82231 245.647 9.24772C245.314 9.67312 244.898 10.0265 244.424 10.2865C243.95 10.5465 243.428 10.7077 242.89 10.7604C237.39 11.5604 231.84 12.5304 226.4 13.6604C226.121 13.7252 225.836 13.7587 225.55 13.7604L225.54 13.7304ZM314.07 9.73041H313.62C308.08 9.10041 302.47 8.63041 296.92 8.34041C296.395 8.31283 295.88 8.18206 295.405 7.95557C294.93 7.72907 294.505 7.41128 294.153 7.02035C293.801 6.62941 293.529 6.17299 293.354 5.67713C293.178 5.18128 293.102 4.6557 293.13 4.13041C293.157 3.60513 293.288 3.09041 293.515 2.61567C293.741 2.14092 294.059 1.71543 294.45 1.3635C294.841 1.01156 295.297 0.74007 295.793 0.56453C296.289 0.388989 296.814 0.312835 297.34 0.340413C303.05 0.640413 308.83 1.12041 314.52 1.77041C315.581 1.83009 316.574 2.30874 317.282 3.10109C317.99 3.89343 318.354 4.93455 318.295 5.99541C318.235 7.05628 317.756 8.04999 316.964 8.75794C316.172 9.46589 315.131 9.83009 314.07 9.77041V9.73041ZM261.16 8.73041C260.635 8.75011 260.11 8.66615 259.618 8.48333C259.125 8.30051 258.673 8.02241 258.287 7.66491C257.902 7.3074 257.591 6.87749 257.372 6.39973C257.152 5.92196 257.029 5.4057 257.01 4.88041C256.99 4.35513 257.074 3.8311 257.257 3.33826C257.44 2.84542 257.718 2.39342 258.075 2.00805C258.433 1.62269 258.863 1.31151 259.34 1.0923C259.818 0.873079 260.334 0.75011 260.86 0.730412C266.56 0.300412 272.35 0.0404115 278.08 -0.0395885C279.141 -0.0555015 280.164 0.350665 280.926 1.08956C281.687 1.82845 282.124 2.83955 282.14 3.90041C282.156 4.96128 281.75 5.98502 281.011 6.74641C280.272 7.50781 279.261 7.9445 278.2 7.96041C272.63 8.04041 267 8.29041 261.46 8.71041L261.16 8.73041Z" fill="url(#paint3_linear_389_566)"/>
<path fill-rule="evenodd" clip-rule="evenodd" d="M69.7498 412.34C56.9798 412.34 43.4598 407.58 43.4598 407.58C54.7498 400.75 64.3998 379.29 61.7498 375.78C61.6626 375.665 61.5484 375.575 61.4176 375.515C61.2867 375.456 61.1432 375.43 60.9998 375.44C56.3398 375.44 37.0898 397.73 32.9998 400.57C31.2188 401.637 29.1641 402.158 27.0898 402.07C20.7698 402.07 11.3798 398.34 2.96978 385.58C-8.87022 367.58 19.1698 345.63 19.1698 345.63C19.1698 345.63 41.9898 348.93 56.3898 348.93C61.7498 348.93 65.9398 348.47 67.3898 347.22C72.6198 342.6 31.6998 334.73 31.6998 334.73C39.5898 323.81 74.5098 309.06 74.5098 309.06C74.5098 309.06 99.7198 333.73 107.15 333.72C107.462 333.745 107.776 333.691 108.061 333.561C108.346 333.432 108.594 333.231 108.78 332.98C112.71 327.22 80.5798 308.07 80.5798 308.07C89.6898 302.4 103.73 301.81 109.17 301.81C110.6 301.81 111.43 301.81 111.43 301.81C139.92 306.81 132.08 343.14 132.08 343.14C132.08 343.14 142.81 353.2 161.46 357.56C161.46 357.56 186.67 361.14 200.79 384.27L197.68 386.33C197.68 386.33 180.51 366.96 165.43 361.57C164.86 361.39 164.04 361.13 163.03 360.83C160.72 360.23 159.03 359.75 157.91 359.34C152.12 357.74 144.72 355.97 140.31 355.97C139.462 355.939 138.615 356.044 137.8 356.28C143.52 369.41 125.11 393.56 111.36 403.92C107.06 407.17 104.23 408.54 102.36 408.54C98.2998 408.54 98.9598 401.89 99.1098 393.69C99.3298 381.76 113.44 368.83 114.89 362.61C115.37 360.61 114.89 359.61 113.72 359.61C111.38 359.61 106.41 363.48 101.85 369.53C95.0598 378.53 99.7698 390.2 89.0498 404.98C84.9398 410.61 77.4998 412.34 69.7498 412.34ZM136.95 354.68L137.67 356.32C137.514 355.746 137.285 355.195 136.99 354.68H136.95Z" fill="#E0CFF7"/>
<path fill-rule="evenodd" clip-rule="evenodd" d="M568.24 182.77C561.55 158.09 519.88 165.77 519.88 165.77C519.88 165.77 491.58 208.95 483.35 209.98C475.12 211.01 500.35 168.34 500.35 168.34C484.35 166.79 443.75 186.34 443.75 186.34C443.75 186.34 446.32 236.72 438.09 235.7C429.86 234.68 438.09 190.97 438.09 190.97C422.66 195.6 408.25 213.59 408.25 213.59C390.25 242.89 428.83 264.49 428.83 264.49C428.83 264.49 429.35 281.97 418.54 302.02C416.59 305.192 414.943 308.54 413.62 312.02H417.83C418.18 310.89 418.55 309.8 418.97 308.76V308.71C419.26 308.06 419.67 307.14 420.19 306.01C421.47 303.5 422.34 301.64 422.89 300.3C426.75 292.4 432.29 282.12 435.99 279.96C435.612 279.357 435.313 278.708 435.1 278.03C435.38 278.65 435.68 279.29 435.99 279.96C443.2 295.38 479.21 297.96 499.28 293.84C519.35 289.72 510.6 284.07 499.79 274.89C488.98 265.71 466.35 268.14 459.66 264.54C452.97 260.94 462.75 257.34 476.13 258.37C489.51 259.4 496.19 272.76 517.8 274.82C539.41 276.88 555.87 236.26 555.87 236.26C540.95 240.89 514.2 232.66 513.17 227.52C512.14 222.38 551.76 222.89 557.93 221.35C564.1 219.81 574.93 207.45 568.24 182.77Z" fill="#EFE3FF"/>
<path fill-rule="evenodd" clip-rule="evenodd" d="M500.62 333.11C497.05 319.74 474.81 323.92 474.81 323.92C474.81 323.92 459.7 347.31 455.31 347.87C450.92 348.43 464.37 325.31 464.37 325.31C455.86 324.47 434.17 335.06 434.17 335.06C434.17 335.06 435.54 362.35 431.17 361.79C426.8 361.23 431.17 337.56 431.17 337.56C422.93 340.07 415.24 349.82 415.24 349.82C405.64 365.69 426.24 377.39 426.24 377.39C426.042 384.503 424.16 391.466 420.75 397.71C419.71 399.433 418.829 401.247 418.12 403.13H420.37C420.55 402.52 420.75 401.93 420.98 401.36L421.63 399.89C422.31 398.53 422.78 397.52 423.07 396.79C425.13 392.51 428.07 386.94 430.07 385.79C429.869 385.462 429.711 385.109 429.6 384.74L430.07 385.79C433.92 394.14 453.14 395.54 463.85 393.31C474.56 391.08 469.85 388.02 464.13 383.05C458.41 378.08 446.28 379.38 442.71 377.44C439.14 375.5 444.35 373.54 451.49 374.09C458.63 374.64 462.2 381.89 473.74 383.01C485.28 384.13 494.06 362.12 494.06 362.12C486.06 364.62 471.82 360.17 471.27 357.39C470.72 354.61 491.86 354.88 495.16 354.04C498.46 353.2 504.19 346.45 500.62 333.11Z" fill="#E0CFF7"/>
<path fill-rule="evenodd" clip-rule="evenodd" d="M389.51 145.07C377.76 131.82 354.12 149.26 354.12 149.26C354.12 149.26 349.71 184.61 344.89 187.75C340.07 190.89 342.71 156.75 342.71 156.75C332.28 160.64 312.91 185.1 312.91 185.1C312.91 185.1 329.97 215.51 324.52 217.38C319.07 219.25 310.8 189.68 310.8 189.68C302.59 197.24 299.12 212.76 299.12 212.76C296.87 236.38 327.57 238.02 327.57 238.02C327.57 238.02 333.26 248.69 332.67 264.39C332.427 266.948 332.427 269.522 332.67 272.08L335.3 270.8C335.17 270 335.07 269.2 335.01 268.43C335.01 267.94 334.96 267.24 334.94 266.43C334.94 264.48 334.94 263.07 334.87 262.07C334.87 256.01 335.16 247.96 336.81 245.49C336.388 245.238 336.002 244.932 335.66 244.58L336.81 245.49C346.04 252.86 369.3 243.49 380.56 234.86C391.82 226.23 384.63 225.37 375.07 222.97C369.75 221.63 363.23 223.64 357.6 225.64C353.12 227.24 349.19 228.84 346.85 228.75C341.57 228.55 346.57 223.36 355.23 219.93C359.18 218.36 363.05 218.81 367.43 219.26C372.65 219.79 378.6 220.33 386.28 217.44C400.4 212.15 398.21 181.99 398.21 181.99C390.32 189.39 371.1 192.43 368.88 189.56C366.66 186.69 391.54 174.97 394.88 172.14C398.22 169.31 401.25 158.32 389.51 145.07Z" fill="#EFE3FF"/>
<path fill-rule="evenodd" clip-rule="evenodd" d="M187.39 258.23L139.01 311.02L69.3099 245.91L39.9399 218.45L88.3099 165.67L187.39 258.23Z" fill="#EFE3FF"/>
<path fill-rule="evenodd" clip-rule="evenodd" d="M142.87 293.59L171.27 262.77C172.195 261.762 172.685 260.429 172.632 259.062C172.58 257.695 171.99 256.404 170.99 255.47L91.7502 181.89C91.2471 181.421 90.6563 181.057 90.0118 180.818C89.3672 180.579 88.6818 180.469 87.9948 180.496C87.3078 180.523 86.633 180.686 86.0092 180.975C85.3854 181.264 84.825 181.673 84.3602 182.18L56.0702 212.88C55.1343 213.894 54.6383 215.238 54.6908 216.618C54.7433 217.997 55.3399 219.299 56.3502 220.24L135.62 293.87C136.112 294.333 136.691 294.693 137.323 294.929C137.956 295.166 138.629 295.274 139.304 295.248C139.979 295.222 140.641 295.062 141.254 294.777C141.866 294.493 142.415 294.089 142.87 293.59ZM177.15 258.89L139.49 299.76L50.1802 216.76L87.8402 175.88L177.15 258.89Z" fill="#B8A1D7"/>
<path fill-rule="evenodd" clip-rule="evenodd" d="M103.07 248.74C100.919 246.746 99.408 244.158 98.7269 241.305C98.0458 238.452 98.2255 235.461 99.2433 232.71C100.261 229.959 102.072 227.571 104.446 225.849C106.82 224.126 109.651 223.145 112.582 223.031C115.513 222.916 118.413 223.673 120.914 225.206C123.415 226.738 125.406 228.977 126.635 231.641C127.865 234.304 128.277 237.272 127.82 240.169C127.364 243.067 126.059 245.764 124.07 247.92C122.747 249.356 121.153 250.515 119.38 251.334C117.608 252.152 115.691 252.612 113.74 252.688C111.79 252.764 109.843 252.455 108.012 251.777C106.181 251.1 104.502 250.068 103.07 248.74Z" fill="#B8A1D7"/>
<path fill-rule="evenodd" clip-rule="evenodd" d="M232.44 258.25L163.15 273.15L143.46 179.95L135.17 140.68L204.45 125.77L232.44 258.25Z" fill="#EFE3FF"/>
<path fill-rule="evenodd" clip-rule="evenodd" d="M175.13 261.88L216.13 253.13C216.796 252.993 217.428 252.726 217.99 252.344C218.552 251.962 219.032 251.472 219.404 250.903C219.776 250.334 220.032 249.697 220.156 249.029C220.281 248.361 220.272 247.675 220.13 247.01L197.56 141.11C197.261 139.755 196.437 138.574 195.27 137.825C194.103 137.075 192.686 136.818 191.33 137.11L150.45 145.82C149.101 146.11 147.921 146.924 147.172 148.083C146.422 149.241 146.162 150.65 146.45 152L169.03 258C169.331 259.32 170.14 260.467 171.282 261.194C172.425 261.92 173.807 262.167 175.13 261.88ZM223.23 253.36L168.81 264.96L143.36 145.56L197.75 133.96L223.23 253.36Z" fill="#B8A1D7"/>
<path fill-rule="evenodd" clip-rule="evenodd" d="M168.26 202.04C167.644 199.167 167.894 196.176 168.978 193.446C170.062 190.715 171.932 188.367 174.351 186.699C176.77 185.032 179.629 184.119 182.567 184.077C185.505 184.035 188.389 184.865 190.855 186.463C193.32 188.06 195.257 190.353 196.419 193.052C197.581 195.75 197.916 198.733 197.383 201.622C196.849 204.512 195.47 207.178 193.421 209.283C191.372 211.388 188.744 212.839 185.87 213.45C182.022 214.272 178.005 213.531 174.703 211.391C171.4 209.252 169.083 205.888 168.26 202.04Z" fill="#B8A1D7"/>
<path fill-rule="evenodd" clip-rule="evenodd" d="M455.11 445.09H120.37C119.893 445.09 119.421 444.996 118.98 444.813C118.54 444.629 118.14 444.361 117.803 444.023C117.467 443.684 117.201 443.283 117.02 442.841C116.839 442.4 116.747 441.927 116.75 441.45V230.04C116.749 228.847 116.983 227.666 117.439 226.564C117.894 225.461 118.563 224.46 119.407 223.617C120.25 222.773 121.252 222.104 122.354 221.648C123.456 221.193 124.637 220.959 125.83 220.96H445.03C446.831 220.957 448.615 221.31 450.279 221.997C451.943 222.684 453.456 223.693 454.73 224.966C456.005 226.238 457.016 227.749 457.705 229.413C458.395 231.076 458.75 232.859 458.75 234.66V441.45C458.751 441.928 458.658 442.402 458.476 442.844C458.293 443.287 458.025 443.689 457.687 444.027C457.349 444.365 456.947 444.633 456.505 444.816C456.062 444.998 455.588 445.091 455.11 445.09Z" fill="#2F2B8B"/>
<path fill-rule="evenodd" clip-rule="evenodd" d="M445.48 439.97H131.02C130.355 439.971 129.696 439.841 129.081 439.587C128.466 439.334 127.907 438.961 127.436 438.491C126.965 438.021 126.591 437.463 126.336 436.848C126.081 436.234 125.95 435.575 125.95 434.91V234.2C125.953 232.857 126.488 231.57 127.439 230.621C128.389 229.672 129.677 229.14 131.02 229.14H445.48C446.823 229.14 448.111 229.672 449.062 230.621C450.012 231.57 450.548 232.857 450.55 234.2V434.91C450.55 435.575 450.419 436.234 450.164 436.848C449.909 437.463 449.536 438.021 449.065 438.491C448.594 438.961 448.035 439.334 447.42 439.587C446.805 439.841 446.146 439.971 445.48 439.97Z" fill="#8667AF"/>
<path fill-rule="evenodd" clip-rule="evenodd" d="M132.09 241.45H193.53V236.34H132.09V241.45Z" fill="#372B8B"/>
<path fill-rule="evenodd" clip-rule="evenodd" d="M132.09 251.66H183.29V248.59H132.09V251.66Z" fill="white"/>
<path fill-rule="evenodd" clip-rule="evenodd" d="M132.09 258.82H158.75V255.75H132.09V258.82Z" fill="white"/>
<path fill-rule="evenodd" clip-rule="evenodd" d="M132.09 265.99H166.91V262.92H132.09V265.99Z" fill="white"/>
<path fill-rule="evenodd" clip-rule="evenodd" d="M169.98 265.99H180.22V262.92H169.98V265.99Z" fill="white"/>
<path fill-rule="evenodd" clip-rule="evenodd" d="M183.29 265.99H201.75V262.92H183.29V265.99Z" fill="white"/>
<path fill-rule="evenodd" clip-rule="evenodd" d="M161.75 258.82H188.37V255.75H161.75V258.82Z" fill="white"/>
<path fill-rule="evenodd" clip-rule="evenodd" d="M322.75 335.97C322.75 335.97 319.58 332.21 317.87 331.68C316.16 331.15 312.87 328.68 312.43 329.68C311.99 330.68 314.65 332.29 314.51 333.47C314.37 334.65 306.09 336.53 306.14 337.78C306.371 338.941 307.017 339.978 307.958 340.696C308.899 341.414 310.069 341.764 311.25 341.68C314.41 341.34 322.42 339.48 324.07 340.28C325.72 341.08 322.75 335.97 322.75 335.97Z" fill="#FFB27D"/>
<path fill-rule="evenodd" clip-rule="evenodd" d="M403.54 320.13C399.322 325.692 394.225 330.529 388.45 334.45C377.757 341.605 365.563 346.21 352.81 347.91C348.37 346.51 334.71 345.05 326.65 343.77C323.14 343.21 320.65 342.69 320.51 342.22L320.72 335.3C320.72 335.3 350.33 333.76 355.23 331.52C362.49 325.138 368.878 317.829 374.23 309.78C377.99 304.16 382.23 300 389.14 297.57C399.18 293.99 417.42 301.76 403.54 320.13Z" fill="white"/>
<path fill-rule="evenodd" clip-rule="evenodd" d="M388.85 329.14L387.35 333.5C376.717 340.651 364.58 345.257 351.88 346.96C348.33 346.96 333.88 344.1 325.88 342.81C326.19 342.81 347.73 344.51 352.49 344.02C357.25 343.53 379.61 324.37 379.61 324.37L388.85 329.14Z" fill="#DFEBFD"/>
<path fill-rule="evenodd" clip-rule="evenodd" d="M378.37 392.321C378.37 392.321 379.83 410.411 381.56 432.151C383.89 461.681 390.2 534.901 390.2 534.901C390.2 534.901 394.33 538.401 403.49 536.481C408.61 518.821 412.003 500.706 413.62 482.391C413.62 481.921 413.69 481.451 413.73 480.971C415.9 451.621 419.27 389.811 419.27 389.811L378.37 392.321Z" fill="#2B478B"/>
<path fill-rule="evenodd" clip-rule="evenodd" d="M377.87 386.07C377.87 386.07 379.87 410.41 381.56 432.15L413.62 482.39C413.62 481.92 413.69 481.45 413.73 480.97C415.9 451.62 419.27 389.81 419.27 389.81L377.87 386.07Z" fill="#272362"/>
<path fill-rule="evenodd" clip-rule="evenodd" d="M387.22 386.07C387.22 386.07 410.47 443.4 417.91 465.13C423.2 480.61 438.13 534.91 438.13 534.91C438.13 534.91 444.63 536.91 450.13 533.09C450.13 533.09 455.68 477.61 444.46 461.97C438.46 453.66 442.98 375.69 418.84 375.02C394.7 374.35 387.22 386.07 387.22 386.07Z" fill="#2F2B8B"/>
<path fill-rule="evenodd" clip-rule="evenodd" d="M398.57 301.19C401.597 302.773 405.085 303.237 408.42 302.5C411.871 301.703 415.075 300.072 417.75 297.75C417.75 297.75 417.63 297.58 417.43 297.25C416.43 295.53 413.28 289.31 414.67 279.33C413.813 279.324 412.961 279.462 412.15 279.74C407.62 280.74 398.5 283.33 398.1 283.44C398.1 283.44 397.99 285.54 397.61 289.3C397.61 289.63 397.55 289.98 397.51 290.3C397.47 290.62 397.42 291.21 397.36 291.69C396.95 295.64 398.57 301.19 398.57 301.19Z" fill="#FFB27D"/>
<path fill-rule="evenodd" clip-rule="evenodd" d="M397.3 289.36C403.87 290.96 413.68 280.65 413.68 280.65C412.992 280.101 412.236 279.644 411.43 279.29C407.03 280.4 398.18 283.07 397.79 283.19C397.79 283.19 397.67 285.45 397.3 289.36Z" fill="#ED975D"/>
<path fill-rule="evenodd" clip-rule="evenodd" d="M395.09 281.65C397.155 282.342 399.281 282.838 401.44 283.13C406.65 283.84 413.49 283.42 415.64 277.13C419.27 266.5 423.9 260.13 413.23 255.79C407.53 253.47 403.88 253.35 401.4 254.23C399.539 254.952 397.987 256.299 397.01 258.04C394.94 261.27 390.75 279.79 395.09 281.65Z" fill="#FFB27D"/>
<path fill-rule="evenodd" clip-rule="evenodd" d="M389.11 259.45C395.45 263.87 404.21 259.52 406.93 260.7C409.65 261.88 410.14 266.3 410.19 267.7C410.24 269.1 410.43 270.3 414.12 269.45C414.561 269.312 415.038 269.341 415.46 269.53C417 270.41 415.04 274.69 414.46 275.62C414.46 275.62 413.61 278.68 415.46 280.17C415.69 280.35 419.4 281.92 428.33 268.66C429.345 266.972 429.929 265.059 430.03 263.092C430.131 261.125 429.746 259.163 428.91 257.38C426.74 252.86 417.69 248.5 410.01 246.19C407.14 245.32 405.01 245.35 403.34 245.95C400.55 246.95 399.07 249.49 397.6 252.05C395.15 256.35 389.11 259.45 389.11 259.45Z" fill="#663E9A"/>
<path fill-rule="evenodd" clip-rule="evenodd" d="M428.68 389.35C428.68 389.35 425.63 390.01 421.77 390.65C417.96 391.348 414.102 391.756 410.23 391.87C399.974 391.713 389.797 390.059 380.02 386.96C376.93 386.96 375.51 382.23 375.02 375.63C374.728 370.604 374.728 365.565 375.02 360.54C375.1 358.82 375.2 357.1 375.31 355.42C375.53 352.08 375.78 348.88 376.01 346.05C376.23 343.39 376.42 341.05 376.54 339.25C376.54 339.25 376.1 326.6 376.27 315.48C376.4 307.48 380.93 300.23 382.07 299.05C385.36 295.61 394.9 293.43 396.81 293.13H397.03C404.87 297.48 415.43 291.6 415.43 291.6C415.67 291.6 415.91 291.7 416.14 291.75C416.92 291.58 424.84 292.75 426.69 293.75C431.25 296.2 433.9 323.45 433.9 323.45C434.66 341.95 433.7 371.59 435.18 382.9C435.63 386.59 431.98 388.6 428.68 389.35Z" fill="white"/>
<path fill-rule="evenodd" clip-rule="evenodd" d="M415.75 292.6C415.75 292.6 404.5 305.03 396.44 302.49C396.44 302.49 395.37 300.81 399 300.27C402.63 299.73 406.52 299.95 415.75 292.6Z" fill="#DFEBFD"/>
<path fill-rule="evenodd" clip-rule="evenodd" d="M396.28 275.2C396.28 275.2 396.09 276.72 398.76 277.94C398.76 277.94 400.99 278.94 401.4 277.4C400.756 276.686 399.965 276.119 399.081 275.739C398.197 275.359 397.241 275.176 396.28 275.2Z" fill="white"/>
<path fill-rule="evenodd" clip-rule="evenodd" d="M421.88 337.63C421.88 337.63 405.11 365.69 395.6 370.63C389.17 373.97 380.16 375.73 375 376.52C374.714 371.487 374.714 366.442 375 361.41C381.82 360.59 392.19 359.27 392.19 359.27L421.88 337.63Z" fill="#DFEBFD"/>
<path fill-rule="evenodd" clip-rule="evenodd" d="M400.37 322.28L391.05 355.52C391.05 355.52 380.05 356.21 374.77 356.02C375 352.58 375 352.46 375.24 349.54C375.24 349.54 387.84 343.06 400.37 322.28Z" fill="#DFEBFD"/>
<path fill-rule="evenodd" clip-rule="evenodd" d="M346.34 358.45C346.34 358.45 343.16 354.69 341.46 354.16C339.76 353.63 336.46 351.16 336.02 352.16C335.58 353.16 338.24 354.78 338.09 355.95C337.94 357.12 329.67 359.02 329.72 360.26C329.949 361.422 330.594 362.461 331.535 363.181C332.476 363.901 333.648 364.253 334.83 364.17C337.99 363.83 346.01 361.97 347.65 362.77C349.29 363.57 346.34 358.45 346.34 358.45Z" fill="#FFB27D"/>
<path fill-rule="evenodd" clip-rule="evenodd" d="M435.15 312.84C435.15 312.84 435.68 329.94 396.95 364.24L389.17 350.24C387.73 349.4 414.17 292.16 421.79 292.62C436.52 293.45 435.15 312.84 435.15 312.84Z" fill="white"/>
<path fill-rule="evenodd" clip-rule="evenodd" d="M393.75 348.89C393.75 348.89 348.98 353.66 347.33 354.49C345.68 355.32 342.11 358.55 343.33 362.6C343.33 362.6 366.5 365.31 379.25 365.26C385.329 365.312 391.396 364.746 397.36 363.57L393.75 348.89Z" fill="white"/>
<path fill-rule="evenodd" clip-rule="evenodd" d="M354.29 247.34C354.407 262.187 349.311 276.604 339.89 288.08C332.04 297.583 327.725 309.513 327.68 321.84V339.62C327.672 345.052 325.513 350.261 321.675 354.107C317.837 357.952 312.633 360.121 307.2 360.14H274.42C268.987 360.121 263.783 357.952 259.945 354.107C256.107 350.261 253.948 345.052 253.94 339.62V321.87C253.909 309.556 249.6 297.636 241.75 288.15C234.858 279.753 230.227 269.733 228.3 259.042C226.373 248.351 227.213 237.345 230.739 227.071C234.266 216.796 240.363 207.594 248.45 200.341C256.536 193.087 266.344 188.023 276.94 185.63C277.75 185.45 278.56 185.29 279.38 185.14L280.69 184.91C289.742 183.459 299 183.985 307.83 186.451C316.659 188.918 324.85 193.266 331.839 199.197C338.829 205.128 344.452 212.502 348.323 220.813C352.193 229.123 354.218 238.172 354.26 247.34H354.29Z" fill="#FFE0C3"/>
<path fill-rule="evenodd" clip-rule="evenodd" d="M306.17 360.14L306.1 360.71L305.19 367.8L304.95 369.67L304.71 371.55L303.8 378.64L303.56 380.51L303.32 382.4L303.19 383.4C302.72 387 298.68 389.76 293.85 389.76H282.95C281.841 389.761 280.738 389.609 279.67 389.31C278.78 389.066 277.926 388.707 277.13 388.24H277.08C276.478 387.885 275.923 387.455 275.43 386.96C274.463 386.036 273.827 384.82 273.62 383.5L273.23 380.75L272.99 379.02L271.83 370.74L271.59 369.01L271.35 367.31L270.35 360.18L306.17 360.14Z" fill="#2F2B8B"/>
<path fill-rule="evenodd" clip-rule="evenodd" d="M301.85 360.14H295.75C285.82 362.97 275.97 365.76 271.4 367.03L271.64 368.67L271.88 370.34C275.58 369.34 284.45 366.83 306.14 360.64L306.21 360.1L301.85 360.14Z" fill="#272362"/>
<path fill-rule="evenodd" clip-rule="evenodd" d="M273.64 377.91L273.88 379.55C278.06 378.39 286.7 375.96 304.67 370.83L304.91 369.05L305.14 367.28C293.79 370.52 280.03 374.42 273.4 376.28L273.64 377.91Z" fill="#272362"/>
<path fill-rule="evenodd" clip-rule="evenodd" d="M278.08 387.74H278.14C278.915 388.181 279.746 388.518 280.61 388.74C285.52 387.34 292.81 385.24 303.61 382.11L303.84 380.31L304.07 378.53C294.39 381.32 283.28 384.53 276.42 386.48C276.917 386.969 277.475 387.393 278.08 387.74Z" fill="#272362"/>
<path fill-rule="evenodd" clip-rule="evenodd" d="M276.75 360.15L263.16 278.75L265.96 278.27L279.55 359.66L276.75 360.15Z" fill="#FB9288"/>
<path fill-rule="evenodd" clip-rule="evenodd" d="M300.96 360.15L297.96 359.62L313.41 279.29L316.41 279.81L300.96 360.15Z" fill="#FB9288"/>
<path fill-rule="evenodd" clip-rule="evenodd" d="M307.95 281.59C306.42 283.04 305.39 284.91 305.47 286.34C305.507 286.861 305.709 287.355 306.044 287.754C306.38 288.153 306.834 288.435 307.34 288.56C307.466 288.626 307.604 288.664 307.746 288.672C307.888 288.68 308.03 288.658 308.162 288.607C308.294 288.556 308.414 288.477 308.514 288.376C308.614 288.275 308.691 288.154 308.74 288.02C309.42 286.68 309.13 283.82 307.95 281.59ZM275.5 281.03C274.059 282.328 273.139 284.105 272.91 286.03C272.75 287.51 273.12 288.72 273.81 288.96C274.018 289.074 274.246 289.144 274.481 289.168C274.716 289.192 274.954 289.169 275.18 289.1C275.406 289.031 275.617 288.918 275.799 288.767C275.981 288.616 276.131 288.43 276.24 288.22C277.13 286.63 276.81 283.52 275.5 281.03ZM286.5 283.79C285.743 284.684 285.141 285.698 284.72 286.79C284.05 288.74 284.6 290.06 286.35 290.71C287.05 290.97 287.98 291.18 288.43 290.71C289.12 289.93 288.71 287.71 287.43 285.35C287.147 284.815 286.836 284.294 286.5 283.79ZM299.21 283.86C297.47 286.37 296.21 289.22 296.53 290.74C296.542 290.946 296.623 291.141 296.759 291.295C296.894 291.449 297.078 291.553 297.28 291.59C299 291.98 300.06 291.48 300.43 290.11C300.85 288.53 300.3 286.06 299.21 283.86ZM298.34 292.6C297.919 292.596 297.499 292.542 297.09 292.44C296.72 292.367 296.382 292.179 296.125 291.902C295.868 291.626 295.706 291.275 295.66 290.9C295.33 289.1 296.76 285.8 298.75 283C297.75 281.19 296.32 279.7 294.86 279.26C292.7 278.61 289.39 280.59 287.09 283.11C287.506 283.696 287.883 284.307 288.22 284.94C289.4 287.15 290.22 289.94 289.09 291.28C288.66 291.77 287.78 292.21 286.09 291.56C283.91 290.74 283.09 288.91 283.94 286.56C284.416 285.285 285.113 284.103 286 283.07C284.22 280.76 281.83 279 279.48 279.3C278.322 279.433 277.214 279.845 276.25 280.5C277.75 283.28 278.1 286.8 277.06 288.69C276.742 289.301 276.197 289.762 275.543 289.975C274.888 290.188 274.177 290.136 273.56 289.83C272.45 289.44 271.87 287.93 272.09 285.98C272.343 283.773 273.413 281.739 275.09 280.28C274.642 279.571 274.077 278.942 273.42 278.42C272.345 277.526 270.973 277.068 269.576 277.138C268.179 277.209 266.86 277.802 265.88 278.8L265.25 278.19C265.25 278.19 269.3 274.19 273.96 277.74C274.679 278.298 275.298 278.975 275.79 279.74C276.859 279.026 278.083 278.573 279.36 278.42C282 278.09 284.63 279.94 286.58 282.42C289.09 279.72 292.66 277.72 295.15 278.47C296.953 279.219 298.439 280.574 299.35 282.3C300.295 281.031 301.436 279.92 302.73 279.01C304.56 277.8 305.73 278.08 306.44 278.52C307.142 278.99 307.747 279.591 308.22 280.29C308.748 279.865 309.321 279.499 309.93 279.2C312.05 278.2 314 278.2 315.42 279.41L314.86 280.08C313.33 278.8 311.36 279.47 310.32 279.98C309.738 280.272 309.188 280.624 308.68 281.03C310.1 283.56 310.37 286.85 309.56 288.45C309.466 288.682 309.327 288.892 309.15 289.068C308.974 289.244 308.763 289.383 308.532 289.476C308.301 289.57 308.053 289.615 307.803 289.611C307.554 289.607 307.308 289.552 307.08 289.45C306.405 289.277 305.804 288.892 305.363 288.352C304.922 287.813 304.666 287.146 304.63 286.45C304.52 284.58 305.83 282.45 307.54 280.89C307.126 280.247 306.585 279.696 305.95 279.27C305.12 278.73 303.95 279.27 303.21 279.75C301.901 280.689 300.753 281.834 299.81 283.14C301.13 285.63 301.81 288.53 301.32 290.4C301.169 291.063 300.785 291.649 300.238 292.053C299.691 292.457 299.018 292.651 298.34 292.6Z" fill="#FB9288"/>
<path fill-rule="evenodd" clip-rule="evenodd" d="M322.22 208.83C327.35 213.68 326.71 222.59 320.11 224.58C315.11 226.07 307.73 224.07 304.11 217.71C300.49 211.35 302.11 206.11 306.63 203.51C311.15 200.91 316.89 203.79 322.22 208.83Z" fill="white"/>
<path fill-rule="evenodd" clip-rule="evenodd" d="M480.39 445.09H90.99C90.3292 445.09 89.6749 444.959 89.065 444.705C88.4551 444.45 87.9016 444.078 87.4367 443.608C86.9717 443.138 86.6045 442.581 86.3562 441.969C86.1078 441.357 85.9834 440.701 85.99 440.04V439.91C85.99 438.584 86.5168 437.312 87.4545 436.375C88.3921 435.437 89.6639 434.91 90.99 434.91H480.39C481.716 434.91 482.988 435.437 483.926 436.375C484.863 437.312 485.39 438.584 485.39 439.91V440.04C485.397 440.701 485.272 441.357 485.024 441.969C484.776 442.581 484.408 443.138 483.943 443.608C483.478 444.078 482.925 444.45 482.315 444.705C481.705 444.959 481.051 445.09 480.39 445.09Z" fill="#4037AA"/>
<path fill-rule="evenodd" clip-rule="evenodd" d="M150.52 434.86H221.18V376.52H150.52V434.86Z" fill="#EFC8AB"/>
<path fill-rule="evenodd" clip-rule="evenodd" d="M185.34 434.86H255.99V376.52H185.34V434.86Z" fill="#FFE0C3"/>
<path fill-rule="evenodd" clip-rule="evenodd" d="M185.34 376.52H255.99V395.07L185.34 434.86V376.52Z" fill="#F5D2B5"/>
<path fill-rule="evenodd" clip-rule="evenodd" d="M185.34 376.52L199.34 391.87H269.27L256.19 376.52H185.34Z" fill="#FFE0C3"/>
<path fill-rule="evenodd" clip-rule="evenodd" d="M185.34 382.8L170.65 396.99H150.52V376.52H185.34V382.8Z" fill="#E8B795"/>
<path fill-rule="evenodd" clip-rule="evenodd" d="M150.02 376.52L134.14 391.87H169.48L185.34 376.52H150.02Z" fill="#FFE0C3"/>
<path fill-rule="evenodd" clip-rule="evenodd" d="M489.51 205.6H352.25L353.25 170.8H490.48L489.51 205.6Z" fill="#FAFDFF"/>
<path fill-rule="evenodd" clip-rule="evenodd" d="M478.8 190.25H365.67C365.232 190.238 364.801 190.137 364.403 189.955C364.004 189.773 363.646 189.514 363.35 189.191C363.054 188.869 362.825 188.49 362.677 188.078C362.529 187.665 362.466 187.228 362.49 186.79L362.6 182.46C362.607 181.559 362.961 180.696 363.589 180.049C364.217 179.403 365.07 179.024 365.97 178.99H479.1C479.539 179.002 479.972 179.101 480.373 179.283C480.773 179.465 481.133 179.726 481.43 180.049C481.728 180.373 481.957 180.753 482.105 181.167C482.253 181.582 482.316 182.021 482.29 182.46L482.17 186.79C482.163 187.69 481.808 188.553 481.18 189.197C480.552 189.842 479.699 190.219 478.8 190.25L464.75 128.45L478.8 190.25Z" fill="#FFE0C3"/>
<path fill-rule="evenodd" clip-rule="evenodd" d="M458.88 183.72H456.69V183.09H459.75V183.63L457.68 187.18H456.82L458.88 183.72Z" fill="#663E9A"/>
<path fill-rule="evenodd" clip-rule="evenodd" d="M462.19 185.13C462.19 184.35 461.87 183.71 461.33 183.71C460.79 183.71 460.42 184.34 460.4 185.13C460.38 185.92 460.72 186.55 461.27 186.55C461.82 186.55 462.17 185.93 462.19 185.13ZM459.76 185.13C459.76 184 460.43 183.13 461.35 183.13C462.27 183.13 462.86 184.03 462.83 185.13C462.8 186.23 462.17 187.13 461.24 187.13C460.31 187.13 459.75 186.28 459.75 185.13H459.76Z" fill="#663E9A"/>
<path fill-rule="evenodd" clip-rule="evenodd" d="M467.46 186.16C467.46 185.84 467.3 185.57 467.06 185.57C466.82 185.57 466.63 185.84 466.63 186.16C466.63 186.48 466.79 186.74 467.04 186.74C467.29 186.74 467.45 186.45 467.46 186.16ZM466.14 186.16C466.14 185.905 466.237 185.66 466.411 185.474C466.586 185.288 466.825 185.176 467.08 185.16C467.204 185.167 467.325 185.198 467.436 185.252C467.547 185.306 467.646 185.382 467.728 185.475C467.809 185.569 467.87 185.677 467.909 185.795C467.947 185.913 467.961 186.037 467.95 186.16C467.95 186.415 467.853 186.661 467.679 186.847C467.504 187.033 467.265 187.145 467.01 187.16C466.886 187.156 466.764 187.125 466.652 187.072C466.54 187.018 466.44 186.942 466.359 186.848C466.277 186.755 466.216 186.645 466.178 186.527C466.141 186.409 466.128 186.284 466.14 186.16ZM465.19 184.11C465.19 183.79 465.03 183.53 464.78 183.53C464.53 183.53 464.36 183.79 464.35 184.11C464.34 184.43 464.51 184.69 464.76 184.69C465.01 184.69 465.18 184.45 465.19 184.11ZM467.1 183.11H467.64L464.71 187.11H464.17L467.1 183.11ZM463.86 184.11C463.86 183.855 463.957 183.61 464.131 183.424C464.306 183.238 464.545 183.126 464.8 183.11C464.924 183.115 465.047 183.145 465.159 183.199C465.272 183.253 465.372 183.328 465.454 183.422C465.536 183.515 465.599 183.625 465.638 183.743C465.677 183.861 465.691 183.986 465.68 184.11C465.68 184.367 465.582 184.614 465.405 184.8C465.228 184.987 464.986 185.098 464.73 185.11C464.606 185.106 464.484 185.075 464.372 185.022C464.26 184.968 464.16 184.892 464.079 184.798C463.997 184.705 463.936 184.595 463.898 184.477C463.861 184.359 463.848 184.234 463.86 184.11Z" fill="#663E9A"/>
<path fill-rule="evenodd" clip-rule="evenodd" d="M442.36 178.99L442.06 190.25H365.67C364.944 190.237 364.244 189.979 363.683 189.518C363.122 189.057 362.733 188.42 362.58 187.71C362.51 187.409 362.48 187.1 362.49 186.79L362.6 182.46C362.607 181.559 362.962 180.696 363.589 180.049C364.217 179.403 365.07 179.024 365.97 178.99H442.36Z" fill="#663E9A"/>
<path fill-rule="evenodd" clip-rule="evenodd" d="M378.87 178.99L372.31 190.25H365.48C364.765 190.233 364.077 189.972 363.532 189.51C362.986 189.048 362.615 188.413 362.48 187.71L367.55 178.99H378.87Z" fill="#8667AF"/>
<path fill-rule="evenodd" clip-rule="evenodd" d="M398.33 178.99L391.56 190.25H379.89L386.66 178.99H398.33Z" fill="#8667AF"/>
<path fill-rule="evenodd" clip-rule="evenodd" d="M419.83 178.99L413.06 190.25H401.4L408.17 178.99H419.83Z" fill="#8667AF"/>
<path fill-rule="evenodd" clip-rule="evenodd" d="M439.28 178.99L432.52 190.25H420.85L427.62 178.99H439.28Z" fill="#8667AF"/>
<path fill-rule="evenodd" clip-rule="evenodd" d="M383.95 195.37H363.51V194.37H383.95V195.37Z" fill="#E0CFF7"/>
<path fill-rule="evenodd" clip-rule="evenodd" d="M378.83 199.45H363.51V198.45H378.83V199.45Z" fill="#E0CFF7"/>
<path fill-rule="evenodd" clip-rule="evenodd" d="M389.07 199.45H380.92V198.45H389.08L389.07 199.45Z" fill="#E0CFF7"/>
<path fill-rule="evenodd" clip-rule="evenodd" d="M405.45 199.45H391.16V198.45H405.45V199.45Z" fill="#E0CFF7"/>
<path fill-rule="evenodd" clip-rule="evenodd" d="M391.12 195.37H386.04V194.37H391.13L391.12 195.37Z" fill="#E0CFF7"/>
<path fill-rule="evenodd" clip-rule="evenodd" d="M416.75 195.37H394.23V194.37H416.75V195.37Z" fill="#E0CFF7"/>
<path fill-rule="evenodd" clip-rule="evenodd" d="M149.64 335.69C151.887 331.614 152.875 326.962 152.48 322.325C152.084 317.687 150.322 313.27 147.417 309.633C144.511 305.997 140.593 303.303 136.157 301.893C131.721 300.482 126.967 300.419 122.494 301.71C118.022 303.001 114.034 305.59 111.032 309.147C108.031 312.705 106.151 317.073 105.632 321.699C105.112 326.324 105.976 331 108.113 335.135C110.251 339.27 113.566 342.679 117.64 344.93C120.347 346.427 123.323 347.376 126.398 347.722C129.472 348.068 132.584 347.804 135.556 346.946C138.529 346.088 141.302 344.652 143.719 342.721C146.136 340.789 148.148 338.4 149.64 335.69Z" fill="#8570A1"/>
<path fill-rule="evenodd" clip-rule="evenodd" d="M152.75 336.71C154.995 332.633 155.982 327.981 155.584 323.344C155.187 318.706 153.424 314.29 150.517 310.655C147.611 307.019 143.692 304.327 139.256 302.918C134.819 301.509 130.065 301.447 125.593 302.739C121.122 304.032 117.134 306.621 114.134 310.18C111.133 313.738 109.255 318.106 108.737 322.732C108.218 327.358 109.083 332.033 111.221 336.167C113.359 340.302 116.675 343.709 120.75 345.96C123.457 347.458 126.434 348.407 129.509 348.753C132.584 349.099 135.697 348.835 138.67 347.976C141.642 347.116 144.416 345.679 146.832 343.746C149.248 341.812 151.259 339.422 152.75 336.71Z" fill="white"/>
<path fill-rule="evenodd" clip-rule="evenodd" d="M130.59 304.45C125.604 304.434 120.784 306.238 117.035 309.524C113.285 312.81 110.863 317.352 110.224 322.297C109.586 327.241 110.773 332.249 113.565 336.38C116.356 340.511 120.56 343.482 125.386 344.734C130.212 345.986 135.329 345.433 139.777 343.18C144.224 340.927 147.697 337.128 149.542 332.496C151.387 327.864 151.479 322.718 149.799 318.024C148.12 313.33 144.785 309.41 140.42 307C137.412 305.33 134.03 304.453 130.59 304.45ZM130.53 345.85C125.926 345.842 121.452 344.321 117.797 341.522C114.142 338.722 111.508 334.799 110.301 330.356C109.093 325.913 109.38 321.196 111.116 316.932C112.852 312.668 115.941 309.092 119.908 306.755C123.875 304.419 128.5 303.45 133.071 304C137.642 304.549 141.906 306.585 145.207 309.795C148.507 313.005 150.662 317.211 151.338 321.765C152.014 326.319 151.175 330.969 148.95 335C147.14 338.296 144.473 341.042 141.23 342.947C137.988 344.851 134.291 345.844 130.53 345.82V345.85Z" fill="#8570A1"/>
<path fill-rule="evenodd" clip-rule="evenodd" d="M108.24 310.95C109.24 310.24 111.67 308.67 111.79 309.02C111.816 309.22 111.801 309.424 111.746 309.618C111.691 309.812 111.597 309.993 111.47 310.15C112.91 309.63 114.37 309.29 117.84 309.93C118.181 309.985 118.507 310.108 118.799 310.292C119.091 310.476 119.343 310.717 119.54 311C119.653 311.13 119.734 311.285 119.775 311.452C119.817 311.619 119.818 311.794 119.779 311.962C119.74 312.13 119.662 312.286 119.551 312.418C119.44 312.55 119.299 312.653 119.14 312.72C117.37 313.77 117.88 313.14 115.43 314.72C112.98 316.3 109.97 316.64 108.18 315.57L105.77 315.18L105.47 311.38C105.47 311.38 106.84 311.18 108.24 310.95Z" fill="#FFB27D"/>
<path fill-rule="evenodd" clip-rule="evenodd" d="M48.1299 280.04C48.1299 280.04 53.6899 286.45 60.7499 283.75C61.5881 281.781 62.108 279.691 62.2899 277.56C62.2899 277.24 62.2899 276.93 62.2899 276.63C62.2899 273.63 62.4299 272.01 62.4299 272.01C62.1099 271.88 51.6099 267.71 51.6099 268.01C51.8199 276.06 48.1299 280.04 48.1299 280.04Z" fill="#FFB27D"/>
<path fill-rule="evenodd" clip-rule="evenodd" d="M52.23 269.14C54.6011 272.667 58.1963 275.19 62.32 276.22C62.32 273.08 62.46 271.31 62.46 271.31C62.15 271.23 51.92 268.57 52.23 269.14Z" fill="#ED975D"/>
<path fill-rule="evenodd" clip-rule="evenodd" d="M64.7998 271.63C64.7998 271.63 53.4498 274.33 51.8998 267.15C50.3498 259.97 47.8298 255.45 55.0098 253.45C62.1898 251.45 64.1998 253.85 65.2898 256.12C66.3798 258.39 67.7498 270.74 64.7998 271.63Z" fill="#FFB27D"/>
<path fill-rule="evenodd" clip-rule="evenodd" d="M52.1201 270.02C51.9701 270.13 49.4601 270.9 44.7201 261.4C44.1968 260.19 43.9675 258.873 44.0509 257.557C44.1343 256.241 44.5281 254.964 45.2001 253.83C46.9401 250.97 53.0901 248.73 58.2001 247.76C63.3101 246.79 64.5401 249.68 65.7401 252.58C67.0101 255.64 70.6601 258.15 70.6601 258.15C66.2501 260.63 60.9401 257.08 59.1001 257.67C57.2601 258.26 56.6101 261.16 56.4701 262.1C56.3301 263.04 56.1201 263.81 53.8101 262.98C51.5001 262.15 52.8101 266.27 53.1401 267.06C53.1401 267.06 53.4501 269.17 52.1201 270.02Z" fill="#A9453D"/>
<path fill-rule="evenodd" clip-rule="evenodd" d="M23.34 445.09H16.6C15.19 445.09 13.6 443.7 13.23 441.15C12.86 438.6 9.92997 437.21 9.29997 435.15C8.66997 433.09 11.89 430.15 11.89 430.15L12.43 429.48L12.99 428.77L18.33 430C18.33 430 18.46 431.25 18.54 432.84C18.605 434.055 18.605 435.274 18.54 436.49C18.39 439.27 19.34 442.26 21.85 442.8C24.36 443.34 23.34 445.09 23.34 445.09Z" fill="#2C3A64"/>
<path fill-rule="evenodd" clip-rule="evenodd" d="M70.66 445.09H52.45C52.3151 445.068 52.1839 445.028 52.06 444.97C50.85 444.35 51.23 439.54 51.37 438.06C51.37 437.78 51.37 437.62 51.37 437.62C51.37 437.62 57.77 432.33 58.66 436.38C58.66 436.51 58.72 436.63 58.75 436.75C59.86 440.53 64.83 442.25 67.75 442.75C69.94 443.11 70.51 444.45 70.66 445.09Z" fill="#2C3A64"/>
<path fill-rule="evenodd" clip-rule="evenodd" d="M66.5599 341.34C66.5599 341.34 65.5599 353.34 64.4899 367.86C62.9699 387.52 61.1399 411.67 60.9499 416.24C60.6399 424.18 59.3799 436.89 59.3799 436.89C59.3799 436.89 56.3799 439.89 50.4399 438.64C47.0439 426.427 44.758 413.933 43.6099 401.31C43.6099 400.99 43.6099 400.67 43.5399 400.36C42.1299 380.82 39.9399 339.68 39.9399 339.68L66.5599 341.34Z" fill="#2F2B8B"/>
<path fill-rule="evenodd" clip-rule="evenodd" d="M66.5599 341.34C66.5599 341.34 65.5599 353.34 64.4899 367.75L43.6099 401.08C43.6099 400.77 43.6099 400.45 43.5399 400.14C42.1299 380.67 39.9399 339.68 39.9399 339.68L66.5599 341.34Z" fill="#272362"/>
<path fill-rule="evenodd" clip-rule="evenodd" d="M63.49 341.45C63.49 341.45 46.02 385.54 34.54 406.26C23.06 426.98 19.47 432.77 19.47 432.77C19.47 432.77 12.89 430.12 12.29 428.31C12.29 428.31 16.68 388.31 24.37 378.55C28.72 373.04 33.82 356.55 34.06 350.72C34.3 344.89 35.62 333.49 35.62 333.49L63.49 341.45Z" fill="#2F2B8B"/>
<path fill-rule="evenodd" clip-rule="evenodd" d="M23.4401 334.53L23.2801 337.25C23.2801 337.25 24.8601 342.09 20.4301 344.57C20.4301 344.57 18.5301 345.44 18.4301 343.76C18.3301 342.08 18.6001 342.76 18.4301 340.35C18.2601 337.94 19.1001 335.77 20.4301 335.01L21.5601 333.53L23.4401 334.53Z" fill="#FFB27D"/>
<path fill-rule="evenodd" clip-rule="evenodd" d="M21.85 336.11C23.77 336.73 24.08 336.59 24.08 336.59C24.08 336.59 33.45 319.45 34.39 317.85C35.33 316.25 54.27 298.59 54.27 298.59L49.41 280.31C49.41 280.31 27.88 308.45 25.55 312.45C21.71 319.11 19.46 334.58 19.46 334.58C20.1126 335.286 20.9355 335.812 21.85 336.11Z" fill="#663E9A"/>
<path fill-rule="evenodd" clip-rule="evenodd" d="M70.63 305.8C70.56 309.56 70.34 313.8 70.05 318.08L69.99 318.84C69.8 321.5 69.6 324.16 69.36 326.76C69.27 327.81 69.16 328.84 69.06 329.85V329.98C69.0499 330.371 69.0199 330.762 68.97 331.15C67.97 340.88 66.97 348.57 66.8 348.69C66.5813 348.842 66.3148 348.91 66.05 348.88C63.47 348.56 55.79 349.14 49.5 347.78C44.2805 346.6 39.2951 344.555 34.75 341.73C34.11 341.35 32.65 340.35 32.75 339.61C32.85 338.87 33.08 337.61 33.35 336.12C34.9487 328.029 36.0077 319.841 36.52 311.61C36.63 309.67 36.79 307.75 36.99 305.87C37.4757 301.235 38.3351 296.647 39.56 292.15C41.71 284.45 44.88 278.56 48.86 276.25C49.38 275.96 52.17 277.73 54.74 279.36C56.9075 280.736 59.4767 281.339 62.03 281.07L64.2 283.45C67.4536 286.94 69.5764 291.332 70.29 296.05C70.29 296.46 70.39 296.91 70.43 297.38C70.6424 300.181 70.7092 302.992 70.63 305.8Z" fill="#8667AF"/>
<path fill-rule="evenodd" clip-rule="evenodd" d="M70.6398 305.27C70.5698 308.99 70.3698 313.18 70.0898 317.43C70.0898 317.68 70.0898 317.93 70.0898 318.18C56.4298 309.18 54.3198 292.6 54.3198 292.6C59.9758 292.726 65.5211 294.193 70.4998 296.88C70.6398 299.16 70.6898 302.04 70.6398 305.27Z" fill="#663E9A"/>
<path fill-rule="evenodd" clip-rule="evenodd" d="M107.51 313.31C107.65 311.15 106.51 310.78 106.51 310.78C106.51 310.78 84.6 306.78 82.74 306.21C80.88 305.64 64.95 288.99 64.95 288.99C64.95 288.99 58.84 282.08 53.84 283.61C49.5 284.93 47.84 288.33 47.22 291.61C46.8906 293.498 47.1358 295.442 47.9239 297.189C48.712 298.936 50.0066 300.407 51.64 301.41C59.12 306.01 74.08 315.09 77.64 316.12C85.49 318.43 106.57 316.31 106.57 316.31C107.112 315.396 107.434 314.369 107.51 313.31Z" fill="#8667AF"/>
<path fill-rule="evenodd" clip-rule="evenodd" d="M224.25 409.27C224.246 404.002 225.805 398.851 228.729 394.469C231.653 390.087 235.811 386.67 240.678 384.652C245.544 382.634 250.899 382.104 256.067 383.13C261.234 384.156 265.981 386.692 269.707 390.416C273.433 394.141 275.97 398.887 276.998 404.054C278.026 409.221 277.498 414.576 275.482 419.443C273.465 424.31 270.051 428.47 265.67 431.396C261.289 434.321 256.138 435.882 250.87 435.88C247.375 435.881 243.913 435.194 240.684 433.857C237.454 432.521 234.519 430.561 232.047 428.09C229.575 425.619 227.614 422.685 226.277 419.456C224.939 416.227 224.25 412.765 224.25 409.27Z" fill="#8570A1"/>
<path fill-rule="evenodd" clip-rule="evenodd" d="M223.23 409.27C223.228 404.004 224.788 398.857 227.711 394.478C230.635 390.099 234.792 386.685 239.656 384.669C244.52 382.653 249.873 382.124 255.037 383.15C260.202 384.176 264.946 386.71 268.67 390.433C272.394 394.155 274.93 398.899 275.958 404.063C276.986 409.227 276.459 414.58 274.445 419.444C272.43 424.309 269.018 428.467 264.64 431.393C260.262 434.318 255.115 435.88 249.85 435.88C246.355 435.881 242.893 435.194 239.664 433.857C236.434 432.52 233.499 430.56 231.027 428.089C228.555 425.618 226.594 422.684 225.257 419.455C223.919 416.226 223.23 412.765 223.23 409.27Z" fill="white"/>
<path fill-rule="evenodd" clip-rule="evenodd" d="M249.85 387.14C245.471 387.142 241.191 388.443 237.551 390.877C233.912 393.312 231.075 396.771 229.401 400.817C227.728 404.863 227.291 409.315 228.147 413.61C229.004 417.904 231.114 421.848 234.212 424.943C237.309 428.038 241.255 430.145 245.55 430.997C249.846 431.849 254.297 431.409 258.342 429.731C262.387 428.054 265.843 425.214 268.274 421.572C270.705 417.93 272.002 413.649 272 409.27C271.989 403.401 269.652 397.775 265.499 393.627C261.347 389.478 255.719 387.146 249.85 387.14ZM249.85 432.81C244.404 432.808 239.127 430.918 234.919 427.461C230.71 424.005 227.83 419.196 226.77 413.854C225.71 408.513 226.534 402.968 229.103 398.166C231.672 393.364 235.826 389.602 240.858 387.519C245.891 385.437 251.489 385.164 256.7 386.746C261.911 388.329 266.412 391.669 269.436 396.198C272.46 400.728 273.821 406.165 273.285 411.585C272.75 417.004 270.352 422.071 266.5 425.92C264.318 428.112 261.723 429.85 258.865 431.032C256.007 432.215 252.943 432.819 249.85 432.81Z" fill="#8570A1"/>
<path fill-rule="evenodd" clip-rule="evenodd" d="M189.44 358.61C189.438 356.685 190.007 354.802 191.076 353.201C192.144 351.599 193.663 350.35 195.442 349.613C197.22 348.875 199.177 348.681 201.066 349.057C202.954 349.432 204.689 350.359 206.05 351.72C207.411 353.081 208.338 354.816 208.713 356.704C209.089 358.593 208.895 360.55 208.157 362.328C207.42 364.107 206.171 365.626 204.569 366.694C202.968 367.763 201.085 368.332 199.16 368.33C196.582 368.33 194.11 367.306 192.287 365.483C190.464 363.66 189.44 361.188 189.44 358.61Z" fill="white"/>
<path fill-rule="evenodd" clip-rule="evenodd" d="M203.75 330.98C203.746 328.243 204.554 325.567 206.072 323.29C207.589 321.013 209.749 319.237 212.276 318.187C214.803 317.138 217.585 316.862 220.27 317.394C222.954 317.926 225.42 319.243 227.356 321.177C229.292 323.111 230.61 325.577 231.144 328.261C231.678 330.945 231.404 333.727 230.356 336.255C229.309 338.783 227.534 340.943 225.258 342.463C222.982 343.982 220.307 344.792 217.57 344.79C213.906 344.79 210.393 343.335 207.801 340.746C205.21 338.156 203.753 334.643 203.75 330.98Z" fill="white"/>
<path fill-rule="evenodd" clip-rule="evenodd" d="M169.98 302.32C169.976 298.573 171.083 294.909 173.16 291.791C175.238 288.673 178.193 286.241 181.653 284.803C185.112 283.364 188.92 282.983 192.596 283.708C196.272 284.433 199.651 286.231 202.305 288.875C204.959 291.52 206.77 294.891 207.508 298.565C208.247 302.238 207.88 306.048 206.454 309.512C205.028 312.977 202.607 315.941 199.496 318.03C196.386 320.119 192.727 321.24 188.98 321.25C186.488 321.259 184.019 320.776 181.714 319.829C179.41 318.882 177.314 317.489 175.549 315.73C173.784 313.971 172.383 311.881 171.428 309.58C170.472 307.279 169.98 304.811 169.98 302.32Z" fill="white"/>
<path d="M192.58 306C193.555 306.001 194.519 305.801 195.413 305.414C196.308 305.026 197.113 304.459 197.778 303.747C198.444 303.036 198.957 302.194 199.284 301.276C199.611 300.358 199.746 299.383 199.68 298.41C199.521 296.581 198.676 294.88 197.314 293.648C195.953 292.417 194.176 291.746 192.34 291.77H184.24C184.145 291.77 184.052 291.789 183.964 291.825C183.877 291.861 183.798 291.914 183.731 291.981C183.664 292.048 183.611 292.127 183.575 292.215C183.539 292.302 183.52 292.396 183.52 292.49V302.49H179.89C179.795 302.49 179.702 302.509 179.614 302.545C179.527 302.581 179.448 302.634 179.381 302.701C179.314 302.768 179.261 302.847 179.225 302.935C179.189 303.022 179.17 303.116 179.17 303.21V305.31C179.17 305.501 179.246 305.684 179.381 305.819C179.516 305.954 179.699 306.03 179.89 306.03H183.52V307.7H179.89C179.699 307.7 179.516 307.776 179.381 307.911C179.246 308.046 179.17 308.229 179.17 308.42V310.6C179.17 310.695 179.189 310.788 179.225 310.876C179.261 310.963 179.314 311.042 179.381 311.109C179.448 311.176 179.527 311.229 179.614 311.265C179.702 311.302 179.795 311.32 179.89 311.32H183.52V313.54C183.52 313.731 183.596 313.914 183.731 314.049C183.866 314.184 184.049 314.26 184.24 314.26H186.42C186.611 314.26 186.794 314.184 186.929 314.049C187.064 313.914 187.14 313.731 187.14 313.54V311.32H194.75C194.844 311.32 194.938 311.302 195.025 311.265C195.113 311.229 195.192 311.176 195.259 311.109C195.326 311.042 195.379 310.963 195.415 310.876C195.451 310.788 195.47 310.695 195.47 310.6V308.42C195.47 308.229 195.394 308.046 195.259 307.911C195.124 307.776 194.941 307.7 194.75 307.7H187.12V306.03L192.58 306ZM187.14 295.32H192.58C193.527 295.32 194.435 295.696 195.104 296.366C195.774 297.035 196.15 297.943 196.15 298.89C196.15 299.837 195.774 300.745 195.104 301.415C194.435 302.084 193.527 302.46 192.58 302.46H187.14V295.32Z" fill="#8667AF"/>
<path d="M133.75 327.83C134.725 327.831 135.689 327.632 136.583 327.244C137.478 326.856 138.283 326.289 138.948 325.577C139.614 324.866 140.127 324.025 140.454 323.106C140.781 322.188 140.916 321.213 140.85 320.24C140.691 318.411 139.846 316.71 138.484 315.478C137.123 314.247 135.346 313.576 133.51 313.6H125.41C125.218 313.6 125.034 313.676 124.897 313.811C124.761 313.945 124.682 314.128 124.68 314.32V324.32H121.06C120.869 324.32 120.686 324.396 120.551 324.531C120.416 324.666 120.34 324.849 120.34 325.04V327.14C120.34 327.331 120.416 327.514 120.551 327.649C120.686 327.784 120.869 327.86 121.06 327.86H124.68V329.53H121.06C120.965 329.53 120.872 329.549 120.784 329.585C120.697 329.621 120.618 329.674 120.551 329.741C120.484 329.808 120.431 329.887 120.395 329.975C120.358 330.062 120.34 330.156 120.34 330.25V332.45C120.34 332.545 120.358 332.638 120.395 332.726C120.431 332.813 120.484 332.893 120.551 332.959C120.618 333.026 120.697 333.079 120.784 333.115C120.872 333.152 120.965 333.17 121.06 333.17H124.68V335.39C124.682 335.582 124.761 335.765 124.897 335.9C125.034 336.035 125.218 336.11 125.41 336.11H127.59C127.781 336.11 127.964 336.034 128.099 335.899C128.234 335.764 128.31 335.581 128.31 335.39V333.17H135.94C136.034 333.17 136.128 333.152 136.215 333.115C136.303 333.079 136.382 333.026 136.449 332.959C136.516 332.893 136.569 332.813 136.605 332.726C136.641 332.638 136.66 332.545 136.66 332.45V330.27C136.66 330.079 136.584 329.896 136.449 329.761C136.314 329.626 136.131 329.55 135.94 329.55H128.31V327.88L133.75 327.83ZM128.31 317.15H133.75C134.697 317.15 135.605 317.526 136.274 318.196C136.944 318.865 137.32 319.773 137.32 320.72C137.32 321.667 136.944 322.575 136.274 323.245C135.605 323.914 134.697 324.29 133.75 324.29H128.31V317.15Z" fill="#8667AF"/>
<path d="M253 412.27C253.974 412.269 254.938 412.068 255.831 411.68C256.725 411.292 257.529 410.725 258.195 410.014C258.861 409.302 259.373 408.462 259.701 407.544C260.028 406.627 260.164 405.652 260.1 404.68C259.936 402.851 259.088 401.151 257.726 399.92C256.363 398.689 254.586 398.017 252.75 398.04H244.65C244.555 398.04 244.462 398.058 244.374 398.094C244.287 398.131 244.208 398.184 244.141 398.25C244.074 398.317 244.021 398.397 243.985 398.484C243.948 398.571 243.93 398.665 243.93 398.76V408.76H240.31C240.118 408.762 239.935 408.84 239.8 408.977C239.665 409.114 239.59 409.298 239.59 409.49V411.59C239.59 411.684 239.608 411.778 239.645 411.865C239.681 411.952 239.734 412.032 239.801 412.099C239.868 412.166 239.947 412.219 240.034 412.255C240.122 412.291 240.215 412.31 240.31 412.31H243.93V413.98H240.31C240.215 413.98 240.122 413.998 240.034 414.034C239.947 414.071 239.868 414.124 239.801 414.19C239.734 414.257 239.681 414.337 239.645 414.424C239.608 414.511 239.59 414.605 239.59 414.7V416.88C239.59 416.974 239.608 417.068 239.645 417.155C239.681 417.243 239.734 417.322 239.801 417.389C239.868 417.456 239.947 417.509 240.034 417.545C240.122 417.581 240.215 417.6 240.31 417.6H243.93V419.82C243.93 419.914 243.948 420.008 243.985 420.095C244.021 420.183 244.074 420.262 244.141 420.329C244.208 420.396 244.287 420.449 244.374 420.485C244.462 420.521 244.555 420.54 244.65 420.54H246.83C247.021 420.54 247.204 420.464 247.339 420.329C247.474 420.194 247.55 420.011 247.55 419.82V417.6H255.18C255.372 417.6 255.556 417.524 255.693 417.389C255.829 417.255 255.907 417.071 255.91 416.88V414.7C255.907 414.508 255.829 414.325 255.693 414.19C255.556 414.055 255.372 413.98 255.18 413.98H247.55V412.31L253 412.27ZM247.55 401.58H253C253.947 401.58 254.855 401.956 255.524 402.625C256.194 403.295 256.57 404.203 256.57 405.15C256.57 406.096 256.194 407.004 255.524 407.674C254.855 408.343 253.947 408.72 253 408.72H247.55V401.58Z" fill="#8667AF"/>
<path d="M219.41 332.71C219.972 332.71 220.529 332.595 221.044 332.371C221.56 332.147 222.025 331.82 222.409 331.409C222.794 330.999 223.09 330.513 223.279 329.984C223.468 329.454 223.547 328.892 223.51 328.33C223.417 327.275 222.928 326.294 222.141 325.583C221.355 324.873 220.329 324.486 219.27 324.5H214.6C214.545 324.499 214.491 324.509 214.44 324.529C214.389 324.549 214.343 324.579 214.303 324.617C214.264 324.655 214.233 324.701 214.212 324.751C214.191 324.802 214.18 324.856 214.18 324.91V330.66H212.09C212.035 330.66 211.981 330.671 211.931 330.693C211.88 330.714 211.835 330.745 211.796 330.784C211.758 330.823 211.728 330.87 211.708 330.92C211.688 330.971 211.678 331.026 211.68 331.08V332.29C211.678 332.345 211.688 332.399 211.708 332.45C211.728 332.501 211.758 332.548 211.796 332.587C211.835 332.626 211.88 332.657 211.931 332.678C211.981 332.699 212.035 332.71 212.09 332.71H214.18V333.71H212.09C212.036 333.71 211.983 333.721 211.933 333.742C211.883 333.762 211.838 333.792 211.8 333.83C211.762 333.869 211.732 333.914 211.711 333.963C211.69 334.013 211.68 334.067 211.68 334.12V335.38C211.678 335.435 211.688 335.489 211.708 335.54C211.728 335.591 211.758 335.638 211.796 335.677C211.835 335.716 211.88 335.747 211.931 335.768C211.981 335.789 212.035 335.8 212.09 335.8H214.18V337.08C214.18 337.135 214.191 337.189 214.212 337.24C214.233 337.29 214.264 337.336 214.303 337.374C214.343 337.412 214.389 337.442 214.44 337.462C214.491 337.482 214.545 337.492 214.6 337.49H215.86C215.969 337.49 216.073 337.447 216.15 337.37C216.227 337.293 216.27 337.189 216.27 337.08V335.8H220.67C220.781 335.8 220.888 335.756 220.967 335.677C221.046 335.599 221.09 335.492 221.09 335.38V334.12C221.09 334.066 221.079 334.012 221.058 333.961C221.036 333.911 221.005 333.865 220.966 333.827C220.927 333.789 220.881 333.759 220.83 333.739C220.779 333.719 220.724 333.709 220.67 333.71H216.27V332.71H219.41ZM216.27 326.54H219.41C219.956 326.54 220.48 326.757 220.866 327.144C221.253 327.53 221.47 328.054 221.47 328.6C221.47 329.147 221.253 329.671 220.866 330.057C220.48 330.443 219.956 330.66 219.41 330.66H216.27V326.54Z" fill="#8667AF"/>
<path d="M201.05 359.85C201.452 359.844 201.848 359.757 202.216 359.594C202.583 359.432 202.914 359.197 203.19 358.904C203.465 358.611 203.678 358.266 203.817 357.889C203.957 357.512 204.019 357.111 204 356.71C203.939 355.948 203.589 355.238 203.022 354.725C202.456 354.212 201.714 353.935 200.95 353.95H197.59C197.511 353.952 197.436 353.985 197.381 354.04C197.325 354.096 197.292 354.171 197.29 354.25V358.38H195.75C195.67 358.38 195.594 358.411 195.538 358.468C195.482 358.524 195.45 358.6 195.45 358.68V359.55C195.448 359.59 195.455 359.629 195.47 359.666C195.484 359.703 195.507 359.737 195.535 359.765C195.563 359.793 195.596 359.815 195.633 359.83C195.67 359.844 195.71 359.851 195.75 359.85H197.25V360.55H195.75C195.711 360.548 195.672 360.555 195.636 360.569C195.599 360.583 195.566 360.604 195.538 360.631C195.51 360.658 195.488 360.691 195.473 360.726C195.458 360.762 195.45 360.801 195.45 360.84V361.75C195.45 361.829 195.482 361.906 195.538 361.962C195.594 362.018 195.67 362.05 195.75 362.05H197.25V362.97C197.252 363.049 197.285 363.123 197.341 363.179C197.396 363.235 197.471 363.267 197.55 363.27H198.46C198.538 363.267 198.611 363.234 198.666 363.178C198.72 363.122 198.75 363.048 198.75 362.97V362.05H201.92C201.999 362.047 202.074 362.015 202.129 361.959C202.185 361.903 202.217 361.829 202.22 361.75V360.84C202.217 360.762 202.185 360.688 202.129 360.634C202.073 360.58 201.998 360.55 201.92 360.55H198.75V359.85H201.05ZM198.75 355.45H201.01C201.408 355.45 201.789 355.608 202.071 355.889C202.352 356.17 202.51 356.552 202.51 356.95C202.51 357.348 202.352 357.729 202.071 358.01C201.789 358.292 201.408 358.45 201.01 358.45H198.75V355.45Z" fill="#8667AF"/>
</g>
<defs>
<linearGradient id="paint0_linear_389_566" x1="110.04" y1="399.96" x2="472.96" y2="135.34" gradientUnits="userSpaceOnUse">
<stop stop-color="white" stop-opacity="0.1"/>
<stop offset="1" stop-color="white" stop-opacity="0.5"/>
</linearGradient>
<linearGradient id="paint1_linear_389_566" x1="118.5" y1="117.93" x2="412.29" y2="396.08" gradientUnits="userSpaceOnUse">
<stop stop-color="white" stop-opacity="0.5"/>
<stop offset="1" stop-color="white" stop-opacity="0.2"/>
</linearGradient>
<linearGradient id="paint2_linear_389_566" x1="-139097" y1="-693.072" x2="-167572" y2="61437.5" gradientUnits="userSpaceOnUse">
<stop stop-color="white" stop-opacity="0.1"/>
<stop offset="1" stop-color="white" stop-opacity="0.5"/>
</linearGradient>
<linearGradient id="paint3_linear_389_566" x1="51.5083" y1="382.805" x2="537.258" y2="129.525" gradientUnits="userSpaceOnUse">
<stop stop-color="white" stop-opacity="0.7"/>
<stop offset="1" stop-color="white"/>
</linearGradient>
<clipPath id="clip0_389_566">
<rect width="570.35" height="537.06" fill="white"/>
</clipPath>
</defs>
</svg>
