<svg width="548" height="521" viewBox="0 0 548 521" fill="none" xmlns="http://www.w3.org/2000/svg">
<ellipse cx="274.5" cy="272.5" rx="216.5" ry="215.5" stroke="url(#paint0_linear_389_677)" stroke-width="32"/>
<circle cx="273" cy="273" r="160" fill="url(#paint1_linear_389_677)"/>
<ellipse cx="292" cy="367.5" rx="170" ry="94.5" transform="rotate(-180 292 367.5)" stroke="url(#paint2_linear_389_677)" stroke-width="36"/>
<ellipse cx="274" cy="260.5" rx="270" ry="256.5" stroke="url(#paint3_linear_389_677)" stroke-width="8" stroke-linecap="round" stroke-linejoin="round" stroke-dasharray="0 19"/>
<mask id="mask0_389_677" style="mask-type:alpha" maskUnits="userSpaceOnUse" x="40" y="39" width="468" height="469">
<ellipse cx="274" cy="273.5" rx="234" ry="234.5" fill="white"/>
</mask>
<g mask="url(#mask0_389_677)">
<path d="M341.817 320.657H319.364V318.38H341.817C346.474 318.38 350.258 314.578 350.258 309.899V280.008H352.524V309.899C352.524 315.832 347.722 320.657 341.817 320.657Z" fill="#FFD46E"/>
<path d="M316.973 140.969H323.564V388.899H316.973V140.969Z" fill="#FFD46E"/>
<path d="M507.2 150.474H214.105C196.476 150.474 182.11 164.887 182.11 182.621V388.899H163.17V182.6C163.17 154.401 186.018 131.445 214.085 131.445H506.347C507.075 137.669 507.324 144.04 507.2 150.474Z" fill="#FFD46E"/>
<path d="M517.789 248.878H488.177C479.445 248.878 472.335 256.022 472.335 264.795V388.878H463.25V264.795C463.25 250.988 474.435 239.729 488.198 239.729H518.101C517.831 242.967 517.727 246.017 517.789 248.878Z" fill="#FFD46E"/>
<path d="M519.749 211.593C519.229 214.663 520.206 217.692 519.749 220.637H464.373C456.701 220.637 448.531 222.308 448.531 242.382V388.899H439.446V242.382C439.446 221.661 447.595 211.593 464.394 211.593H519.749Z" fill="#FFD46E"/>
<path d="M89.2005 259.225V388.878H74.0239V259.225C74.0239 245.021 62.5272 233.469 48.3901 233.469H33.7871L34.099 218.221H48.3901C70.8847 218.242 89.2005 236.624 89.2005 259.225Z" fill="#FFD46E"/>
<path d="M208.077 387.875H196.06V303.192C196.06 287.818 208.513 275.285 223.835 275.285H316.973V287.359H223.814C215.145 287.359 208.077 294.461 208.077 303.171V387.875Z" fill="#FFD46E"/>
<path fill-rule="evenodd" clip-rule="evenodd" d="M92.0905 329.806C92.236 330.015 92.3608 330.224 92.4855 330.454C94.1903 333.441 94.7308 336.887 93.9824 340.229C93.4002 342.966 92.0073 345.43 90.0323 347.331C89.4086 347.937 88.7225 348.48 87.9741 348.961C85.708 350.444 83.1301 351.196 80.5106 351.196C79.5335 351.196 78.5563 351.091 77.5792 350.882C75.0429 350.318 72.756 349.107 70.9265 347.331C70.1573 346.579 69.4712 345.744 68.8683 344.825C66.8725 341.712 66.2072 338.015 66.9764 334.381C67.5585 331.623 68.9515 329.179 70.9265 327.279C71.5502 326.673 72.2362 326.13 72.9847 325.649C74.9181 324.396 77.0803 323.665 79.3256 323.477C79.6998 323.456 80.074 323.435 80.4482 323.435C81.4253 323.435 82.4025 323.539 83.3796 323.748C85.9159 324.312 88.2028 325.524 90.0323 327.299C90.8015 328.051 91.4876 328.887 92.0905 329.806ZM90.0323 343.237C90.6976 342.172 91.1757 340.981 91.446 339.707C91.9865 337.2 91.6747 334.631 90.5728 332.333C90.4273 332.02 90.261 331.707 90.0739 331.414C90.0531 331.373 90.0271 331.336 90.0011 331.299C89.9751 331.263 89.9491 331.226 89.9283 331.185C89.8972 331.143 89.866 331.096 89.8348 331.049C89.8036 331.002 89.7724 330.955 89.7412 330.913C89.5541 330.642 89.367 330.391 89.1591 330.14C88.182 328.929 86.9554 327.947 85.5833 327.258H85.5625C84.7101 326.819 83.8162 326.506 82.8598 326.297C82.4232 326.192 81.9867 326.13 81.5501 326.088C81.5303 326.087 81.5106 326.086 81.491 326.085C81.1385 326.065 80.8038 326.046 80.469 326.046C80.1572 326.046 79.8453 326.067 79.5542 326.088L78.9306 326.151C77.3297 326.359 75.7913 326.944 74.3984 327.842C73.151 328.657 72.0907 329.702 71.2591 330.892C71.2487 330.903 71.2435 330.913 71.2383 330.924C71.2331 330.934 71.2279 330.944 71.2175 330.955C71.1885 331.002 71.161 331.047 71.1343 331.091C71.0654 331.204 71.0013 331.309 70.9265 331.414C70.5731 331.999 70.2612 332.626 70.0117 333.273C69.8038 333.817 69.6375 334.381 69.5128 334.944C68.9099 337.785 69.4088 340.71 70.9265 343.195C70.9473 343.237 70.9733 343.274 70.9993 343.31C71.0252 343.347 71.0512 343.383 71.072 343.425C71.5918 344.219 72.1947 344.95 72.8599 345.577C73.4836 346.182 74.1905 346.705 74.9597 347.122C75.9368 347.686 76.9971 348.083 78.1198 348.334C81.0095 348.961 83.9409 348.438 86.4357 346.872C86.4565 346.861 86.4772 346.846 86.498 346.83C86.5188 346.814 86.5396 346.799 86.5604 346.788C87.2673 346.349 87.9117 345.827 88.4731 345.242C89.0552 344.637 89.5957 343.968 90.0323 343.237Z" fill="#2B478B"/>
<path d="M80.5524 338.851L68.8062 332.668L70.012 330.349L80.4276 335.822L90.3028 329.43L91.7165 331.623L80.5524 338.851Z" fill="#2B478B"/>
<path d="M74.3986 347.916L72.2988 346.37L79.1802 336.929L78.91 324.793L81.5087 324.73L81.7998 337.765L74.3986 347.916Z" fill="#2B478B"/>
<path d="M79.4775 338.142L81.5042 336.507L89.3377 346.314L87.3109 347.949L79.4775 338.142Z" fill="#2B478B"/>
<path d="M77.9951 337.347C77.9951 335.968 79.1178 334.84 80.4899 334.84C81.862 334.84 82.9847 335.968 82.9847 337.347C82.9847 338.725 81.862 339.853 80.4899 339.853C79.1178 339.853 77.9951 338.725 77.9951 337.347Z" fill="#2B478B"/>
<path fill-rule="evenodd" clip-rule="evenodd" d="M452.242 334.61C452.294 334.699 452.346 334.788 452.398 334.882C453.77 337.305 454.207 340.125 453.666 342.882C453.188 345.117 452.065 347.143 450.444 348.689C449.924 349.19 449.362 349.629 448.76 350.026C446.909 351.217 444.789 351.843 442.647 351.843C441.837 351.843 441.047 351.76 440.236 351.593C438.178 351.133 436.307 350.13 434.81 348.689C434.165 348.083 433.604 347.394 433.126 346.642C431.483 344.094 430.922 341.065 431.566 338.099C432.045 335.843 433.167 333.838 434.789 332.292C435.309 331.791 435.87 331.352 436.473 330.955C438.074 329.931 439.841 329.326 441.67 329.179C441.961 329.159 442.273 329.138 442.585 329.138C443.375 329.138 444.186 329.221 444.976 329.388C447.034 329.848 448.905 330.851 450.402 332.292C451.046 332.898 451.608 333.587 452.086 334.339C452.138 334.433 452.19 334.522 452.242 334.61ZM450.402 345.326C450.943 344.449 451.317 343.488 451.545 342.444C451.982 340.376 451.712 338.287 450.88 336.449C450.755 336.198 450.61 335.947 450.464 335.697L450.464 335.697C450.444 335.634 450.402 335.571 450.36 335.509C450.329 335.467 450.303 335.43 450.277 335.394C450.251 335.357 450.225 335.321 450.194 335.279C450.049 335.07 449.882 334.861 449.716 334.652L449.716 334.652C448.905 333.67 447.907 332.856 446.785 332.292H446.764C446.078 331.958 445.329 331.686 444.56 331.519C444.186 331.435 443.832 331.394 443.479 331.352C443.188 331.331 442.897 331.31 442.606 331.31C442.356 331.31 442.107 331.31 441.857 331.331C441.67 331.352 441.504 331.373 441.338 331.394C440.028 331.582 438.78 332.062 437.637 332.793C436.598 333.462 435.745 334.318 435.059 335.3C435.059 335.31 435.054 335.315 435.049 335.321C435.044 335.326 435.038 335.331 435.038 335.342L434.789 335.718C434.498 336.198 434.248 336.699 434.04 337.242C433.874 337.681 433.749 338.141 433.645 338.6C433.146 340.919 433.541 343.321 434.789 345.347C434.81 345.41 434.851 345.472 434.893 345.535C435.309 346.183 435.787 346.767 436.348 347.29C436.868 347.77 437.45 348.188 438.074 348.543C438.864 349.002 439.737 349.316 440.652 349.525C443.001 350.026 445.412 349.608 447.45 348.313C447.471 348.303 447.486 348.292 447.502 348.282C447.517 348.271 447.533 348.261 447.554 348.25C448.115 347.874 448.656 347.457 449.113 346.976C449.612 346.475 450.028 345.911 450.402 345.326Z" fill="#2B478B"/>
<path d="M442.627 341.733L433.022 336.658L433.999 334.778L442.523 339.269L450.589 334.026L451.754 335.822L442.627 341.733Z" fill="#2B478B"/>
<path d="M437.596 349.149L435.87 347.895L441.504 340.167L441.275 330.245L443.417 330.182L443.645 340.835L437.596 349.149Z" fill="#2B478B"/>
<path d="M441.755 341.142L443.409 339.808L449.811 347.823L448.157 349.157L441.755 341.142Z" fill="#2B478B"/>
<path d="M440.527 340.501C440.527 339.373 441.442 338.454 442.564 338.454C443.687 338.454 444.602 339.373 444.602 340.501C444.602 341.629 443.687 342.548 442.564 342.548C441.442 342.548 440.527 341.629 440.527 340.501Z" fill="#2B478B"/>
<rect x="194.189" y="370.852" width="15.7587" height="18.0266" fill="#2B478B"/>
<rect x="294.832" y="130.337" width="6.67352" height="21.87" fill="#2B478B"/>
<rect x="373.542" y="130.337" width="6.67352" height="21.87" fill="#2B478B"/>
<rect x="281.839" y="130.337" width="6.67352" height="21.87" fill="#2B478B"/>
<path d="M183.765 291.09L183.765 297.795H161.998V291.09H183.765Z" fill="#2B478B"/>
<path d="M183.757 175.5V182.205H161.99V175.5H183.757Z" fill="#2B478B"/>
<rect x="437.533" y="367.217" width="12.6818" height="20.8465" fill="#2B478B"/>
<rect x="461.421" y="367.217" width="12.6818" height="20.8465" fill="#2B478B"/>
<path d="M163.607 257.136C163.607 257.136 165.249 254.316 166.559 253.271C167.869 252.227 171.32 251.934 171.465 252.206C171.881 253.041 170.093 254.232 169.719 254.984C169.345 255.736 169.511 256.843 167.744 257.72C165.935 258.64 164.875 259.245 164.875 259.245L163.607 257.136Z" fill="#FFB27D"/>
<path d="M165 256.76C164.148 255.444 163.898 255.36 163.898 255.36C163.898 255.36 151.237 263.381 149.907 263.841C148.576 264.3 135.416 261.689 135.416 261.689L130.842 269.564C130.842 269.564 148.223 272.342 151.59 271.089C157.162 269.021 165.665 258.848 165.665 258.848C165.665 258.848 165.665 257.804 165 256.76Z" fill="#233862"/>
<path d="M168.659 255.611C168.659 255.611 171.154 254.086 171.258 254.733C171.32 255.068 170.218 255.966 169.761 256.342C169.324 256.718 168.181 257.47 168.181 257.47L168.659 255.611Z" fill="#FFB27D"/>
<path fill-rule="evenodd" clip-rule="evenodd" d="M176.642 238.357C180.322 239.318 183.711 241.532 186.101 244.874C190.467 250.974 190.28 258.974 186.164 264.802C185.395 265.888 184.501 266.89 183.461 267.789C183.087 268.123 182.671 268.457 182.235 268.77C182.131 268.843 182.021 268.917 181.912 268.99C181.803 269.063 181.694 269.136 181.59 269.209C181.403 269.334 181.216 269.46 181.029 269.564C180.135 270.086 179.241 270.525 178.305 270.88C176.642 271.528 174.896 271.883 173.17 271.966C171.403 272.071 169.615 271.883 167.91 271.423C164.231 270.462 160.842 268.248 158.451 264.906C152.963 257.24 154.688 246.524 162.318 241.01C163.565 240.112 164.875 239.401 166.247 238.879C169.615 237.605 173.253 237.459 176.642 238.357ZM183.399 263.172C184.709 261.418 185.582 259.35 185.935 257.115C186.434 253.981 185.894 250.848 184.417 248.112C184.147 247.652 183.856 247.193 183.544 246.754C183.232 246.315 182.879 245.898 182.526 245.501C180.966 243.788 179.033 242.514 176.871 241.762C176.122 241.511 175.332 241.302 174.542 241.177C174.002 241.093 173.461 241.031 172.921 241.01C172.463 240.989 172.027 240.989 171.59 241.01C170.966 241.052 170.343 241.114 169.719 241.24C168.596 241.469 167.515 241.824 166.476 242.305C165.707 242.66 164.958 243.099 164.251 243.621C162.692 244.749 161.466 246.107 160.53 247.652C159.969 248.571 159.532 249.553 159.199 250.577C157.869 254.65 158.43 259.266 161.112 263.005C161.798 263.966 162.588 264.802 163.461 265.533C164.293 266.243 165.187 266.828 166.143 267.308C166.684 267.58 167.224 267.81 167.786 267.997C170.925 269.084 174.438 269.042 177.598 267.726C177.806 267.642 177.993 267.559 178.181 267.475C178.212 267.454 178.248 267.439 178.284 267.423C178.321 267.407 178.357 267.392 178.388 267.371C178.846 267.141 179.303 266.89 179.74 266.598C179.792 266.556 179.849 266.52 179.906 266.483C179.963 266.447 180.02 266.41 180.072 266.368C180.116 266.354 180.15 266.329 180.187 266.301C180.203 266.289 180.22 266.276 180.239 266.264C180.28 266.243 180.343 266.201 180.384 266.159C180.779 265.867 181.153 265.574 181.507 265.261C181.52 265.234 181.542 265.216 181.568 265.195C181.581 265.184 181.596 265.171 181.611 265.157C181.964 264.843 182.318 264.488 182.63 264.133C182.9 263.82 183.149 263.507 183.399 263.172Z" fill="#2B478B"/>
<path d="M172.463 256.739L157.599 249.866L158.95 246.942L172.11 253.021L183.877 244.519L185.748 247.13L172.463 256.739Z" fill="#2B478B"/>
<path d="M165.457 268.311L162.775 266.535L170.655 254.462L169.553 239.548L172.754 239.318L173.94 255.318L165.457 268.311Z" fill="#2B478B"/>
<path d="M171.087 255.967L173.478 253.828L183.736 265.403L181.345 267.542L171.087 255.967Z" fill="#2B478B"/>
<path d="M169.22 255.047C169.137 253.334 170.447 251.872 172.151 251.788C173.856 251.705 175.311 253.021 175.395 254.733C175.478 256.446 174.168 257.908 172.463 257.992C170.759 258.076 169.303 256.76 169.22 255.047Z" fill="#2B478B"/>
<path d="M169.74 273.345L150.925 295.612C150.239 296.427 149.033 296.531 148.223 295.842C147.682 295.382 147.62 294.567 148.077 294.045L167.432 271.173C167.827 270.713 168.513 270.65 168.971 271.047L169.594 271.59C170.135 272.008 170.197 272.802 169.74 273.345Z" fill="#FF9E55"/>
<path d="M173.669 265.031L171.59 262.4C170.696 261.272 169.012 261.188 168.139 262.253L159.782 272.133C159.345 272.656 159.408 273.429 159.927 273.867L162.963 276.457L167.474 271.11L165.645 269.543L168.347 266.347C169.324 265.199 171.154 265.324 172.069 266.598L173.129 268.081L173.669 267.434C174.251 266.765 174.251 265.763 173.669 265.031Z" fill="#FF9E55"/>
<path d="M162.671 274.055C162.484 273.888 162.464 273.617 162.63 273.429C162.796 273.241 163.066 273.22 163.254 273.387C163.441 273.554 163.461 273.825 163.295 274.013C163.129 274.181 162.838 274.201 162.671 274.055Z" fill="#2A4E96"/>
<path d="M164.48 271.883C164.293 271.716 164.272 271.444 164.438 271.256C164.605 271.068 164.875 271.047 165.062 271.214C165.249 271.381 165.27 271.653 165.104 271.841C164.958 272.029 164.667 272.05 164.48 271.883Z" fill="#2A4E96"/>
<path d="M130.177 381.442C130.177 381.442 130.489 386.392 131.403 387.541H145.478C145.395 387.04 145 385.828 143.233 385.515C141.008 385.118 137.287 383.551 135.936 380.606C134.501 377.515 130.177 381.442 130.177 381.442Z" fill="#163560"/>
<path d="M105.208 380.752C105.208 380.752 104.169 387.625 105.375 387.729C105.541 387.75 110.78 387.666 112.817 387.666C115.354 387.646 119.595 387.562 119.595 387.562C120.115 387.583 120.364 386.768 120.094 386.309C119.803 385.807 119.241 385.285 118.181 385.076C115.957 384.638 112.277 383.008 110.988 380.042C109.616 376.888 105.208 380.752 105.208 380.752Z" fill="#163560"/>
<path d="M136.788 315.623C136.788 315.623 133.254 328.051 123.108 349.65C112.963 371.248 112.194 381.087 112.194 381.087L105.208 380.752C105.208 380.752 105.874 355.06 110.655 344.156C115.437 333.252 116.414 303.445 116.414 303.445L136.788 315.623Z" fill="#ED823A"/>
<path d="M142.464 304.907C142.464 304.907 142.755 324.166 139.428 347.812C136.123 371.457 137.245 381.484 137.245 381.484L129.304 381.755C129.304 381.755 124.564 358.11 125.915 346.266C127.266 334.443 119.408 305.659 119.408 305.659L142.464 304.907Z" fill="#FF9E55"/>
<path d="M126.788 259.851L130.53 262.629L135.936 261.48C135.852 260.979 135.499 258.932 135.187 257.073C135.166 256.969 135.146 256.843 135.125 256.739C134.855 255.151 134.605 253.793 134.605 253.793L129.553 251.287L127.661 250.347C127.661 250.389 127.807 252.102 127.828 252.352C128.202 256.822 126.788 259.851 126.788 259.851Z" fill="#FFB27D"/>
<path d="M135.582 258.452C135.457 258.41 128.222 256.258 127.432 256.509C126.642 256.76 126.185 258.305 126.185 258.305L137.37 261.501C137.349 261.501 137.079 259.099 135.582 258.452Z" fill="#163560"/>
<path d="M116.06 307.288C117.287 312.907 142.879 295.257 142.547 291.831C142.505 291.455 142.464 291.079 142.443 290.703C141.965 285.92 141.507 281.241 141.486 278.191C141.466 275.538 141.091 272.844 140.613 270.379C140.177 268.102 139.615 266.055 139.137 264.447C138.805 263.319 138.181 262.316 137.349 261.543C136.767 260.979 136.06 260.541 135.312 260.227C135.104 260.144 134.896 260.06 134.667 259.997C131.59 259.099 127.308 257.992 126.164 258.326C123.025 259.245 120.697 264.802 119.054 271.862C115.977 285.063 115.27 303.633 116.06 307.288Z" fill="#2A4E96"/>
<path d="M128.223 252.436C129.325 254.566 133.462 256.426 135.187 257.094C135.167 256.989 135.146 256.864 135.125 256.76C134.855 255.172 134.605 253.814 134.605 253.814L129.553 251.287C128.451 251.266 127.765 251.538 128.223 252.436Z" fill="#FCA56B"/>
<path d="M137.079 253.522C137.079 253.522 127.952 256.384 126.268 250.639C124.585 244.895 122.277 241.407 128.015 239.339C133.774 237.271 135.541 239.13 136.58 240.905C137.599 242.681 139.408 252.624 137.079 253.522Z" fill="#FFB27D"/>
<path d="M136.227 240.362C136.227 240.362 135.645 247.026 134.273 246.754C132.9 246.462 131.653 246.253 131.861 248.258C132.069 250.263 133.961 252.603 129.74 252.958C125.499 253.313 119.429 242.347 120.593 240.279C123.919 234.242 141.071 233.051 136.227 240.362Z" fill="#163560"/>
<path d="M141.778 304.907C139.241 305.826 141.819 302.38 141.778 301.649C141.591 298.494 142.817 294.484 142.443 290.682L126.955 281.387C126.955 281.387 123.275 304.761 141.778 304.907Z" fill="#233862"/>
<path d="M116.061 307.288C122.672 319.592 123.732 324.291 123.732 324.291C129.491 323.623 139.345 312.26 142.464 309.231C142.464 309.231 142.879 295.236 142.547 291.81L137.765 291.664C137.765 291.664 129.117 293.857 126.892 290.87C124.647 287.883 125.624 273.24 125.624 273.24L119.054 271.82C115.977 285.063 114.294 303.988 116.061 307.288Z" fill="#FF9E55"/>
<path d="M153.773 283.747C153.773 283.747 155.665 283.371 156.143 282.975C156.871 282.369 157.432 281.366 157.807 281.262C158.41 281.074 159.865 279.215 159.99 279.089C160.031 279.048 160.426 279.236 160.343 279.528C160.239 279.841 160.031 280.489 159.948 280.739C159.595 281.784 159.615 282.118 160.863 281.7C161.029 281.638 163.919 280.719 164.21 281.387C164.501 282.055 163.316 285.23 161.798 285.899C160.281 286.588 156.559 285.962 156.289 286.045C154.023 286.714 153.773 283.747 153.773 283.747Z" fill="#FFB27D"/>
<path d="M155.312 283.121C155.312 283.121 139.948 285.752 138.597 285.084C136.435 284.019 139.449 268.373 139.449 268.373C139.449 268.373 139.574 264.822 135.458 263.987C131.882 263.256 128.41 265.95 128.41 265.95C128.41 265.95 125.271 268.77 125.666 271.924C126.56 278.88 127.953 293.022 132.568 295.194C138.535 297.993 155.811 287.444 155.811 287.444C155.811 287.444 156.393 286.734 156.31 285.418C156.227 284.248 155.312 283.121 155.312 283.121Z" fill="#2A4E96"/>
<path d="M124.356 272.99L125.624 273.261C125.624 273.261 128.306 261.564 137.35 261.501C136.767 260.937 136.061 260.499 135.312 260.185C132.007 261.083 126.248 263.924 124.356 272.99Z" fill="#FF9E55"/>
<rect x="72.8599" y="377.076" width="17.8792" height="10.465" fill="#2B478B"/>
<rect x="161.632" y="377.076" width="21.2472" height="10.465" fill="#2B478B"/>
<rect x="333.896" y="232.738" width="30.9352" height="62.8946" fill="#8EA7E0"/>
<rect x="338.803" y="237.856" width="21.1848" height="11.0499" fill="#AEC3FF"/>
<path d="M353.709 376.408C353.709 376.408 351.318 378.643 351.775 380.209C352.233 381.797 354.395 382.841 354.686 384.784C354.977 386.726 356.141 387.771 357.202 387.771C358.241 387.771 362.212 387.771 362.212 387.771C362.212 387.771 362.981 386.413 361.11 385.995C359.239 385.578 358.532 383.322 358.657 381.212C358.782 379.102 358.491 376.282 358.491 376.282L354.52 375.342L353.709 376.408Z" fill="#2C3A64"/>
<path d="M383.043 382.11C383.043 382.11 382.482 387.186 383.542 387.708H397.077C397.077 387.708 397.097 386.1 394.935 385.745C392.773 385.39 388.989 384.095 388.345 381.233C387.721 378.35 383.043 382.11 383.043 382.11Z" fill="#2C3A64"/>
<path d="M394.394 310.087C394.394 310.087 393.688 318.965 392.856 329.639C391.733 344.135 390.361 361.953 390.236 365.337C390.008 371.206 389.072 380.564 389.072 380.564C389.072 380.564 386.848 382.799 382.419 381.859C382.419 381.859 378.469 368.47 377.347 354.308C377.326 354.078 377.305 353.848 377.284 353.619C376.245 339.206 374.603 308.855 374.603 308.855L394.394 310.087Z" fill="#35488B"/>
<path d="M394.395 310.087C394.395 310.087 393.688 318.965 392.856 329.639L377.326 354.308C377.305 354.078 377.285 353.848 377.264 353.619C376.224 339.206 374.582 308.855 374.582 308.855L394.395 310.087Z" fill="#2C3A64"/>
<path d="M391.151 311.153C391.151 311.153 390.486 312.803 389.384 315.539C386.785 321.91 381.713 334.151 376.681 344.992C374.353 350.026 372.025 354.747 369.966 358.444C361.567 373.567 358.948 377.786 358.948 377.786C358.948 377.786 358.823 377.745 358.615 377.661C357.742 377.285 355.33 376.22 354.229 375.238C353.958 375.008 353.771 374.758 353.688 374.549C353.688 374.549 356.89 345.368 362.524 338.245C365.704 334.234 369.426 322.161 369.613 317.941C369.696 316.082 369.925 313.43 370.153 311.027C370.361 308.855 370.569 306.912 370.673 305.972C370.715 305.596 370.736 305.367 370.736 305.367L385.476 309.565L391.151 311.153Z" fill="#35488B"/>
<path d="M388.157 315.289C381.546 314.934 378.615 314.203 374.831 313.283C372.565 312.719 371.047 311.55 370.174 311.007C370.382 308.834 370.59 306.892 370.694 305.952L376.619 309.001L388.157 315.289Z" fill="#2C3A64"/>
<path d="M425.912 293.92C425.912 293.92 429.321 293.92 429.862 294.108C430.403 294.296 433.251 297.575 433.126 298.327C433.001 299.079 431.005 299.978 429.529 299.685C428.074 299.393 425.662 296.656 425.434 296.552C423.438 295.8 425.912 293.92 425.912 293.92Z" fill="#ED975D"/>
<path d="M427.117 297.137C427.928 295.675 427.533 293.544 427.533 293.544C427.533 293.544 417.159 285.105 416.057 284.082C414.955 283.058 403.854 264.927 403.854 264.927L388.469 265.93C388.469 265.93 407.45 287.841 410.299 290.369C414.997 294.547 426.993 298.85 426.993 298.85C426.993 298.85 426.494 298.286 427.117 297.137Z" fill="#ED7D2B"/>
<path d="M396.785 260.499C396.785 260.499 402.003 269.71 407.097 270.922C407.097 270.922 406.951 268.666 406.12 266.682C405.849 266.055 405.974 265.324 406.411 264.781C406.619 264.53 406.806 264.28 406.993 264.05C408.282 262.4 408.885 261.397 408.885 261.397L407.159 256.718L405.995 253.543C405.434 254.566 404.81 255.444 404.166 256.196C400.798 260.081 396.785 260.499 396.785 260.499Z" fill="#FFB27D"/>
<path d="M404.124 256.217C404.124 256.217 403.5 260.833 406.972 264.071C408.261 262.42 408.864 261.418 408.864 261.418L407.139 256.739C405.288 256.154 404.124 256.217 404.124 256.217Z" fill="#ED975D"/>
<path d="M410.236 262.086C410.236 262.086 402.44 259.037 404.415 254.19C406.39 249.344 406.702 245.689 411.754 247.444C416.806 249.177 417.014 251.433 416.744 253.209C416.494 254.963 412.315 262.755 410.236 262.086Z" fill="#FFB27D"/>
<path d="M405.787 282.598C404.935 285.063 403.833 287.57 402.523 289.951C402.274 290.432 402.024 290.891 401.775 291.351C401.609 291.664 401.463 291.956 401.318 292.27C398.469 298.035 397.16 303.006 396.598 306.933C396.494 307.685 396.411 308.395 396.349 309.064C396.099 311.946 369.343 302.568 370.195 298.557C370.757 295.904 371.547 293.126 372.274 290.745C373.334 287.277 374.291 284.687 374.291 284.687C379.301 272.718 386.411 266.285 391.941 262.88C392.939 262.253 393.896 261.752 394.769 261.313C398.137 259.663 400.424 259.245 400.424 259.245C400.424 259.245 401.567 264.99 406.473 267.266C406.473 267.287 407.243 270.379 407.243 270.4C408.074 273.345 407.409 277.857 405.787 282.598Z" fill="#F99746"/>
<path d="M403.293 245.188C403.23 245.083 403.085 244.958 402.69 244.853C402.69 244.853 403.043 244.728 403.48 244.833C403.688 244.289 404.228 243.391 405.226 243.37C405.226 243.37 404.665 243.517 404.436 244.101C405.808 243.224 408.324 242.973 414.644 245.104C422.981 247.882 418.802 252.749 417.554 253.146C416.286 253.543 413.979 251.036 411.879 250.702C409.779 250.368 408.656 253.292 407.866 253.522C407.076 253.773 407.513 253.104 406.681 252.436C405.85 251.767 405.372 253.334 405.392 254.441C405.413 255.548 403.792 256.593 403.792 256.593C403.792 256.593 403.792 256.593 402.835 254.838C401.879 253.083 402.149 246.692 403.043 245.543C403.126 245.397 403.209 245.292 403.293 245.188Z" fill="#2B478B"/>
<path d="M389.28 278.212C389.28 278.212 390.174 285.021 393.21 290.181C396.245 295.34 397.575 287.319 397.575 287.319L389.28 278.212Z" fill="#ED7D2B"/>
<path d="M401.338 292.249C398.49 298.014 397.18 302.986 396.619 306.913C396.515 307.665 396.432 308.375 396.369 309.043C396.12 311.926 396.265 314.036 396.369 315.247C396.64 318.38 373.168 312.323 370.029 307.79C368.303 305.283 370.465 296.719 372.295 290.745C372.607 290.829 387.159 294.296 397.222 285.251L401.338 292.249Z" fill="#35488B"/>
<path d="M403.106 276.04L401.65 273.136C401.65 273.094 401.817 267.998 398.781 265.031C397.139 263.423 394.852 262.692 391.941 262.859C392.939 262.232 393.896 261.731 394.769 261.292C396.848 261.606 398.594 262.462 399.966 263.82C403.542 267.329 403.126 275.81 403.106 276.04Z" fill="#2C3A64"/>
<path d="M435.645 304.269V288.038H448.639V304.269H435.645Z" fill="#233862"/>
<path d="M433.661 298.056V294.254H436.093V298.056H433.661Z" fill="#233862"/>
<path d="M432.175 296.647V295.623H433.672V296.647H432.175Z" fill="#233862"/>
<path d="M431.274 301.924V290.373H432.168V301.924H431.274Z" fill="#233862"/>
<path d="M423.147 296.051C423.147 296.051 427.72 295.236 428.469 295.319C429.217 295.403 431.837 296.656 431.858 296.865C431.878 297.074 431.754 297.262 431.296 297.262C430.839 297.262 429.321 297.011 429.425 297.199C429.508 297.387 433.833 298.453 433.833 299.33C433.833 300.207 431.379 301.732 429.363 301.753C427.346 301.774 423.479 299.226 423.147 299.184C420.257 298.787 423.147 296.051 423.147 296.051Z" fill="#FFB27D"/>
<path d="M423.999 297.931C424.082 297.032 423.147 296.051 423.147 296.051C423.147 296.051 409.592 292.312 408.469 291.163C407.346 290.035 402.149 271.925 402.149 271.925C402.149 271.925 400.361 264.593 396.182 263.778C392.544 263.068 390.028 264.885 388.386 267.016C386.432 269.543 386.224 273.032 387.866 275.789C391.525 281.972 398.885 294.254 401.047 296.343C405.829 301.022 423.147 300.04 423.147 300.04C423.147 300.04 423.812 299.748 423.999 297.931Z" fill="#F99746"/>
<rect x="276.664" y="271.092" width="2.97294" height="4.07321" fill="#2B478B"/>
<path d="M220.613 341.42C222.213 340.877 226.683 337.347 226.933 337.221C229.157 336.219 224.23 335.738 224.23 335.738C224.23 335.738 220.654 335.383 219.074 336.532C219.074 336.532 218.097 338.83 218.305 339.54C218.492 340.271 219.823 341.671 220.613 341.42Z" fill="#FFB27D"/>
<path d="M223.96 337.597C223.253 335.947 223.689 334.673 223.689 334.673C223.689 334.673 237.577 330.85 238.928 329.994C243.294 327.258 249.365 309.482 249.365 309.482C249.365 309.482 252.213 302.401 256.517 302.192C260.259 302.025 262.525 304.197 263.876 306.557C265.477 309.377 265.165 312.886 263.148 315.414C258.596 321.075 247.411 335.216 244.978 337.012C241.215 339.791 225.519 339.331 225.519 339.331C225.519 339.331 224.521 338.892 223.96 337.597Z" fill="#E28037"/>
<path d="M232.92 354.538C235.145 357.671 240.55 359.196 250.758 359.676C251.568 359.718 252.4 359.739 253.232 359.781C254.084 359.802 254.936 359.822 255.789 359.843C258.554 359.885 261.319 359.843 263.959 359.76C266.516 359.676 268.928 359.53 271.132 359.342C275.435 358.987 278.865 358.465 280.653 357.859C281.194 357.671 281.568 357.504 281.776 357.295C281.963 357.128 282.109 356.94 282.213 356.731C282.857 355.54 282.524 353.556 281.734 351.404C280.591 348.25 278.512 344.678 277.119 342.443C276.828 342.005 276.579 341.608 276.371 341.274C275.934 340.626 275.685 340.229 275.685 340.229C275.685 340.229 270.924 340.668 264.396 341.524C263.065 341.691 261.652 341.879 260.196 342.088C246.163 344.073 232.172 347.665 232.192 352.428C232.213 353.117 232.338 353.723 232.92 354.538Z" fill="#2B478B"/>
<path d="M250.134 359.614C250.987 359.634 254.937 359.802 255.789 359.822C258.554 359.864 261.319 359.822 263.959 359.739L266.433 349.733C262.608 355.081 251.361 359.258 250.134 359.614Z" fill="#2C3A64"/>
<path d="M258.388 387.917H244.791C244.999 387.395 245.519 386.727 246.787 386.497C248.928 386.121 252.65 384.951 252.171 381.839C251.693 378.685 256.911 378.288 256.911 378.288C256.911 378.288 259.074 386.706 258.388 387.917Z" fill="#1D2C51"/>
<path d="M232.525 353.89C232.525 353.89 249.407 380.565 250.8 383.74C250.8 383.74 256.538 384.283 257.931 380.147C257.931 380.147 247.889 351.989 243.482 349.671C239.095 347.373 232.525 353.89 232.525 353.89Z" fill="#2B478B"/>
<path d="M258.928 300.709C258.928 300.709 254.437 309.524 249.385 310.756C249.385 310.756 249.489 309.022 250.051 307.268C250.404 306.14 250.217 304.907 249.469 303.988C249.448 303.967 249.448 303.946 249.427 303.946C248.138 302.317 247.535 301.314 247.535 301.314L249.219 296.656L249.344 294.275C249.905 295.299 250.529 296.218 251.194 296.949C254.521 300.771 258.928 300.709 258.928 300.709Z" fill="#FFB27D"/>
<path d="M251.381 296.886C251.381 296.886 252.837 300.709 249.427 303.946C248.138 302.317 247.535 301.314 247.535 301.314L249.219 296.656C251.049 296.072 251.381 296.886 251.381 296.886Z" fill="#ED975D"/>
<path d="M247.182 303.8C247.182 303.8 253.751 298.724 250.55 294.651C247.327 290.578 246.018 287.194 241.672 290.264C237.327 293.335 237.764 295.528 238.492 297.158C239.219 298.787 245.394 305.032 247.182 303.8Z" fill="#FFB27D"/>
<path d="M249.136 285.774C249.157 285.648 249.282 285.502 249.614 285.272C249.614 285.272 249.24 285.251 248.866 285.46C248.512 285.001 247.743 284.291 246.787 284.562C246.787 284.562 247.369 284.541 247.743 285.042C246.205 284.604 243.71 285.063 238.284 288.844C231.111 293.836 236.434 297.304 237.743 297.325C239.053 297.346 240.571 294.317 242.483 293.398C244.375 292.479 246.267 294.964 247.099 294.964C247.93 294.964 247.307 294.463 247.93 293.586C248.533 292.708 249.427 294.087 249.718 295.132C250.009 296.197 251.839 296.719 251.839 296.719C251.839 296.719 251.839 296.719 252.255 294.776C252.67 292.834 250.654 286.818 249.469 285.982C249.344 285.92 249.24 285.836 249.136 285.774Z" fill="#2B478B"/>
<path d="M302.753 379.959C302.753 379.959 304.458 382.549 304.853 383.384C305.248 384.22 304.478 385.995 303.314 386.267C302.296 386.497 302.129 388.335 302.129 388.335H307.098C307.618 388.335 308.096 388.043 308.304 387.604C309.011 386.058 309.156 384.032 309.302 383.364C309.593 381.943 310.196 380.753 309.925 379.311C309.676 377.87 307.223 377.034 302.753 377.055C297.846 377.076 302.753 379.959 302.753 379.959Z" fill="#1D2C51"/>
<path d="M288.159 347.77C285.082 352.303 256.6 348.459 258.554 346.036C259.053 345.41 258.762 344.804 258.845 343.926C259.344 339.707 255.997 333.169 254.625 330.642C254.292 330.057 254.084 329.681 254.043 329.618C252.733 327.258 251.61 324.772 250.758 322.349C249.095 317.67 248.408 313.179 249.198 310.255C249.198 310.234 249.198 310.234 249.219 310.213C254.084 307.915 255.706 299.936 255.706 299.936C255.706 299.936 272.566 301.983 282.067 324.166C282.067 324.166 282.608 325.587 283.315 327.738C283.543 328.407 283.772 329.138 284.021 329.91C285.29 333.921 286.495 339.143 287.472 343.028C287.514 343.154 287.535 343.3 287.576 343.446C288.034 345.075 288.678 346.997 288.159 347.77Z" fill="#F99746"/>
<path d="M303.273 381.713C302.545 381.713 300.404 382.027 297.452 382.507C286.787 384.22 273.793 387.771 265.747 387.771C263.98 387.771 262.671 386.518 262.13 384.868C258.824 374.737 266.475 344.825 266.475 344.825C266.475 344.825 269.219 345.18 274.749 345.598C280.487 346.015 286.558 346.934 287.556 348.877C287.681 349.107 287.722 349.483 287.701 349.942C287.66 350.778 287.431 351.948 287.015 353.368C286.953 353.619 286.87 353.848 286.787 354.12C285.269 359.112 281.984 366.653 278.263 373.379C288.325 373.964 301.984 376.199 301.984 376.199C304.208 378.747 303.273 381.713 303.273 381.713Z" fill="#2B478B"/>
<path d="M287.68 349.525C287.639 350.444 287.41 351.739 286.994 353.305C286.932 353.577 286.849 353.849 286.766 354.12C281.09 353.744 267.514 346.371 267.743 346.308C270.342 345.598 272.649 345.117 274.728 344.804C280.466 345.326 286.537 346.412 287.535 348.731C287.618 348.919 287.66 349.19 287.68 349.525Z" fill="#2C3A64"/>
<path d="M263.772 314.829C263.772 314.829 267.389 339.937 258.845 343.906C259.344 339.686 255.997 333.148 254.625 330.621C255.934 323.811 259.157 316.646 263.772 314.829Z" fill="#E58638"/>
<path d="M258.575 300.604C258.575 300.604 251.901 303.153 252.192 309.315C252.4 313.806 258.783 323.059 258.783 323.059L259.552 321.994C259.552 321.994 253.377 310.296 253.689 308.103C254.105 305.283 257.431 300.604 261.319 301.649L258.575 300.604Z" fill="#2B478B"/>
<path d="M288.159 347.77C285.082 352.303 253.149 349.358 255.103 346.914C255.602 346.287 256.392 344.428 256.496 343.53C256.537 343.112 258.907 343.049 258.886 342.59C258.699 338.433 255.872 332.898 254.625 330.621C254.292 330.036 254.084 329.66 254.042 329.597L255.227 327.968L259.552 321.994C259.552 321.994 261.34 323.477 264.521 325.002C268.699 326.986 275.248 328.991 283.294 327.717C283.522 328.386 283.751 329.117 284.001 329.89C285.269 333.9 286.475 339.122 287.452 343.007C287.493 343.133 287.514 343.279 287.556 343.425C288.034 345.075 288.678 346.997 288.159 347.77Z" fill="#2B478B"/>
<path d="M264.541 325.002C264.666 332.459 263.772 339.979 258.887 342.256C257.785 337.493 256.038 333.148 254.646 330.621C254.812 329.743 255.02 328.845 255.248 327.968L259.573 321.994C259.552 321.994 261.361 323.498 264.541 325.002Z" fill="#2C3A64"/>
<path d="M232.285 348.312L204.909 331.197L206.601 328.465L233.977 345.581L232.285 348.312Z" fill="#2B478B"/>
<path d="M200.426 327.446L201.153 327.905L201.715 326.171C202.193 324.688 203.898 323.999 205.166 324.793L214.646 330.725L216.143 328.323L204.147 320.824C202.983 320.093 201.403 320.678 200.904 322.036L199.719 325.169C199.386 326.004 199.677 326.965 200.426 327.446Z" fill="#2B478B"/>
<path d="M213.372 332.759L207.441 329.051L209.55 325.646L215.481 329.354L213.372 332.759Z" fill="#2B478B"/>
<path d="M212.941 330.349C213.066 330.14 213.003 329.869 212.795 329.743C212.587 329.618 212.317 329.681 212.192 329.889C212.068 330.098 212.13 330.37 212.338 330.495C212.525 330.621 212.795 330.558 212.941 330.349Z" fill="#2C3A64"/>
<path d="M210.55 328.866C210.675 328.657 210.613 328.385 210.405 328.26C210.197 328.135 209.927 328.197 209.802 328.406C209.677 328.615 209.739 328.887 209.947 329.012C210.155 329.137 210.405 329.054 210.55 328.866Z" fill="#2C3A64"/>
<path d="M224.479 344.804C226.184 344.804 231.527 342.882 231.818 342.861C234.23 342.632 229.718 340.585 229.718 340.585C229.718 340.585 226.267 339.436 225.623 339.498C225.415 339.519 224.937 339.603 224.562 339.686L225.914 340.522C225.914 340.522 222.088 341.357 222.068 342.088C222.026 342.84 223.648 344.804 224.479 344.804Z" fill="#FFB27D"/>
<path d="M229.885 341.712C229.053 340.125 229.386 338.83 229.386 338.83C229.386 338.83 242.92 333.921 244.209 332.96C248.346 329.89 253.024 311.696 253.024 311.696C253.024 311.696 255.311 304.406 259.594 303.863C263.315 303.382 265.747 305.388 267.265 307.644C269.074 310.317 269.053 313.868 267.223 316.542C263.128 322.558 253.086 337.514 250.779 339.498C247.244 342.569 231.548 343.321 231.548 343.321C231.548 343.321 230.529 342.945 229.885 341.712Z" fill="#F99746"/>
<path d="M220.613 341.42C220.613 341.42 221.777 341.169 222.068 340.668C222.463 340 222.608 338.892 221.61 338.767C220.592 338.642 218.18 339.143 218.326 339.582C218.658 340.772 219.968 341.378 220.613 341.42Z" fill="#FFB27D"/>
<path d="M269.595 263.238C269.595 258.35 273.545 254.381 278.41 254.381C283.275 254.381 287.225 258.35 287.225 263.238C287.225 268.126 283.275 272.095 278.41 272.095C273.545 272.095 269.595 268.126 269.595 263.238Z" fill="#F99746"/>
<path d="M272.173 263.238C272.173 259.791 274.959 256.971 278.41 256.971C281.861 256.971 284.647 259.77 284.647 263.238C284.647 266.684 281.861 269.504 278.41 269.504C274.959 269.504 272.173 266.684 272.173 263.238Z" fill="#D2E0FF"/>
<path d="M276.664 263.238C276.664 262.277 277.433 261.504 278.389 261.504C279.345 261.504 280.115 262.277 280.115 263.238C280.115 264.199 279.345 264.972 278.389 264.972C277.433 264.972 276.664 264.199 276.664 263.238Z" fill="#2B478B"/>
<path d="M278.39 263.384C278.369 263.384 278.327 263.384 278.306 263.363C278.244 263.322 278.223 263.238 278.265 263.175L280.926 259.311C280.967 259.248 281.051 259.228 281.113 259.269C281.175 259.311 281.196 259.395 281.155 259.457L278.493 263.322C278.473 263.343 278.431 263.384 278.39 263.384Z" fill="#2B478B"/>
<rect x="299.637" y="272.262" width="2.12056" height="2.90347" fill="#2B478B"/>
<path d="M294.584 266.643C294.584 263.154 297.391 260.334 300.863 260.334C304.335 260.334 307.141 263.154 307.141 266.643C307.141 270.131 304.335 272.951 300.863 272.951C297.391 272.972 294.584 270.131 294.584 266.643Z" fill="#8C9DF4"/>
<path d="M296.414 266.643C296.414 264.178 298.41 262.173 300.863 262.173C303.316 262.173 305.312 264.178 305.312 266.643C305.312 269.108 303.316 271.113 300.863 271.113C298.41 271.113 296.414 269.108 296.414 266.643Z" fill="#D2E0FF"/>
<path d="M299.636 266.643C299.636 265.953 300.198 265.41 300.863 265.41C301.549 265.41 302.089 265.974 302.089 266.643C302.089 267.332 301.528 267.875 300.863 267.875C300.177 267.896 299.636 267.332 299.636 266.643Z" fill="#2B478B"/>
<path d="M300.863 266.747C300.842 266.747 300.822 266.747 300.801 266.726C300.759 266.684 300.738 266.622 300.78 266.58L302.672 263.823C302.713 263.781 302.776 263.76 302.817 263.802C302.859 263.844 302.88 263.906 302.838 263.948L300.946 266.705C300.926 266.747 300.905 266.747 300.863 266.747Z" fill="#2B478B"/>
<path d="M532.168 389.651H-3.23085C-3.64665 389.651 -3.9585 389.317 -3.9585 388.92V388.293C-3.9585 387.875 -3.62586 387.541 -3.23085 387.541H532.168C532.584 387.541 532.917 387.875 532.917 388.293V388.92C532.896 389.317 532.563 389.651 532.168 389.651Z" fill="#233862"/>
<path fill-rule="evenodd" clip-rule="evenodd" d="M217.723 320.928C217.889 321.179 218.056 321.43 218.201 321.701C220.218 325.231 220.862 329.346 219.968 333.378C219.261 336.657 217.619 339.603 215.249 341.858C214.501 342.569 213.69 343.216 212.796 343.801C210.114 345.556 207.037 346.454 203.898 346.454C202.734 346.454 201.569 346.329 200.405 346.078C197.391 345.43 194.667 343.968 192.484 341.858C191.569 340.96 190.738 339.978 190.031 338.871C187.64 335.174 186.829 330.746 187.765 326.422C188.472 323.122 190.114 320.197 192.484 317.941C193.233 317.231 194.043 316.584 194.937 315.999C197.245 314.516 199.844 313.638 202.505 313.409C202.962 313.367 203.399 313.346 203.856 313.346C205.02 313.346 206.185 313.471 207.349 313.722C210.363 314.369 213.087 315.832 215.27 317.941C216.185 318.819 217.016 319.821 217.723 320.928ZM215.27 336.95C216.06 335.655 216.642 334.234 216.954 332.73C217.598 329.722 217.224 326.673 215.852 324.02L215.852 324.02C215.665 323.644 215.478 323.268 215.249 322.913C215.23 322.882 215.214 322.852 215.198 322.824C215.16 322.758 215.126 322.7 215.083 322.641C215.041 322.589 215.005 322.532 214.968 322.474C214.932 322.417 214.896 322.359 214.854 322.307C214.646 321.994 214.417 321.68 214.168 321.388C213.004 319.926 211.548 318.777 209.906 317.941H209.885C208.867 317.44 207.785 317.064 206.663 316.813C206.143 316.688 205.623 316.605 205.104 316.563C204.667 316.521 204.23 316.5 203.815 316.5C203.44 316.5 203.087 316.521 202.734 316.542C202.484 316.563 202.235 316.584 201.985 316.625C200.093 316.897 198.264 317.565 196.601 318.652C195.104 319.612 193.836 320.866 192.858 322.286C192.848 322.297 192.843 322.307 192.838 322.317C192.832 322.328 192.827 322.338 192.817 322.349C192.781 322.403 192.745 322.456 192.709 322.508C192.622 322.635 192.537 322.758 192.463 322.892C192.048 323.581 191.673 324.333 191.382 325.106C191.133 325.733 190.946 326.401 190.8 327.09C190.073 330.495 190.675 333.963 192.484 336.929C192.515 336.971 192.541 337.018 192.567 337.065C192.593 337.112 192.619 337.159 192.65 337.2C193.274 338.161 193.981 339.018 194.792 339.77C195.561 340.48 196.393 341.106 197.307 341.608C198.472 342.276 199.74 342.757 201.07 343.049C204.501 343.78 208.014 343.174 210.987 341.294C210.997 341.29 211.008 341.285 211.019 341.279C211.057 341.263 211.101 341.243 211.133 341.211C211.964 340.668 212.713 340.041 213.399 339.352C214.126 338.621 214.75 337.806 215.27 336.95Z" fill="#F99746"/>
<path d="M203.981 331.707L189.948 324.312L191.403 321.555L203.815 328.093L215.582 320.448L217.266 323.08L203.981 331.707Z" fill="#F99746"/>
<path d="M196.642 342.506L194.126 340.668L202.338 329.409L202.006 314.934L205.103 314.871L205.457 330.391L196.642 342.506Z" fill="#F99746"/>
<path d="M202.687 330.839L205.103 328.891L214.446 340.588L212.03 342.536L202.687 330.839Z" fill="#F99746"/>
<path d="M200.904 329.889C200.904 328.239 202.234 326.902 203.877 326.902C205.519 326.902 206.87 328.239 206.87 329.889C206.87 331.54 205.54 332.876 203.877 332.876C202.255 332.897 200.904 331.54 200.904 329.889Z" fill="#2A4E96"/>
<path d="M504.206 100.266H64.6895C66.1655 98.6571 67.7456 97.0905 69.4295 95.6074H502.086C502.917 97.1114 503.624 98.6571 504.206 100.266Z" fill="#D2E0FF"/>
<rect x="91.5703" y="94.187" width="5.36376" height="8.22998" fill="#AEC3FF"/>
<rect x="94.2598" y="135.622" width="19.5008" height="7.56155" fill="#D2E0FF"/>
<g opacity="0.5">
<rect x="104.01" y="145.46" width="19.5008" height="7.56155" fill="#D2E0FF"/>
</g>
<g opacity="0.5">
<rect x="116.442" y="135.622" width="19.5008" height="7.56155" fill="#D2E0FF"/>
</g>
<g opacity="0.5">
<rect x="117.662" y="214.356" width="19.5008" height="7.56155" fill="#D2E0FF"/>
</g>
<g opacity="0.5">
<rect x="130.094" y="204.518" width="19.5008" height="7.56155" fill="#D2E0FF"/>
</g>
<g opacity="0.5">
<rect x="418.121" y="178.292" width="19.5008" height="7.56155" fill="#D2E0FF"/>
</g>
<g opacity="0.5">
<rect x="430.553" y="168.453" width="19.5008" height="7.56155" fill="#D2E0FF"/>
</g>
<g opacity="0.5">
<rect x="475.807" y="218.639" width="19.5008" height="7.56155" fill="#D2E0FF"/>
</g>
<g opacity="0.5">
<rect x="408.37" y="168.453" width="19.5008" height="7.56155" fill="#D2E0FF"/>
</g>
<g opacity="0.5">
<rect x="209.365" y="229.626" width="19.5008" height="7.56155" fill="#D2E0FF"/>
</g>
<g opacity="0.5">
<rect x="199.615" y="219.787" width="19.5008" height="7.56155" fill="#D2E0FF"/>
</g>
<g opacity="0.5">
<rect x="260.425" y="207.422" width="19.5008" height="7.56155" fill="#D2E0FF"/>
</g>
<g opacity="0.5">
<rect x="355.081" y="207.422" width="19.5008" height="7.56155" fill="#D2E0FF"/>
</g>
<g opacity="0.5">
<rect x="369.384" y="217.281" width="19.5008" height="7.56155" fill="#D2E0FF"/>
</g>
<path d="M405.039 387.771H428.011C429.072 387.771 429.924 386.915 429.924 385.849V385.828C429.924 384.763 429.072 383.907 428.011 383.907H405.039C403.978 383.907 403.126 384.763 403.126 385.828V385.849C403.126 386.915 403.978 387.771 405.039 387.771Z" fill="#ED7D2B"/>
<path d="M448.136 387.771H422.523C421.109 387.771 419.945 386.601 419.945 385.181V365.546C419.945 364.126 421.109 362.956 422.523 362.956H448.136C449.549 362.956 450.714 364.126 450.714 365.546V385.181C450.714 386.601 449.549 387.771 448.136 387.771Z" fill="#ED7D2B"/>
<path d="M426.681 363.06C426.681 363.06 433.063 358.987 439.155 358.945C443.125 358.924 447.658 362.893 447.928 362.935C448.614 363.039 445.62 363.081 445.62 363.081C445.62 363.081 441.13 360.428 439.113 360.366C436.681 360.282 430.506 363.311 430.506 363.311L426.681 363.06Z" fill="#F99746"/>
<path d="M451.129 387.771H425.516C424.103 387.771 422.938 386.601 422.938 385.181V365.546C422.938 364.126 424.103 362.956 425.516 362.956H451.129C452.543 362.956 453.707 364.126 453.707 365.546V385.181C453.707 386.601 452.543 387.771 451.129 387.771Z" fill="#F99746"/>
</g>
<defs>
<linearGradient id="paint0_linear_389_677" x1="239.7" y1="590.653" x2="602.558" y2="326.072" gradientUnits="userSpaceOnUse">
<stop stop-color="white" stop-opacity="0.1"/>
<stop offset="1" stop-color="white" stop-opacity="0.5"/>
</linearGradient>
<linearGradient id="paint1_linear_389_677" x1="-26.0748" y1="259.9" x2="267.724" y2="538.049" gradientUnits="userSpaceOnUse">
<stop stop-color="white" stop-opacity="0.5"/>
<stop offset="1" stop-color="white" stop-opacity="0.2"/>
</linearGradient>
<linearGradient id="paint2_linear_389_677" x1="264.674" y1="507.015" x2="426.024" y2="296.348" gradientUnits="userSpaceOnUse">
<stop stop-color="white" stop-opacity="0.1"/>
<stop offset="1" stop-color="white" stop-opacity="0.5"/>
</linearGradient>
<linearGradient id="paint3_linear_389_677" x1="230.6" y1="639.183" x2="668.264" y2="304.812" gradientUnits="userSpaceOnUse">
<stop stop-color="white" stop-opacity="0.7"/>
<stop offset="1" stop-color="white"/>
</linearGradient>
</defs>
</svg>
