<svg width="621" height="599" viewBox="0 0 621 599" fill="none" xmlns="http://www.w3.org/2000/svg">
<ellipse cx="307.5" cy="311.488" rx="216.5" ry="215.5" stroke="url(#paint0_linear_389_563)" stroke-width="32"/>
<circle cx="306" cy="311.988" r="160" fill="url(#paint1_linear_389_563)"/>
<ellipse cx="327" cy="404.488" rx="170" ry="94.5" transform="rotate(-180 327 404.488)" stroke="url(#paint2_linear_389_563)" stroke-width="36"/>
<ellipse cx="310.439" cy="299.488" rx="270" ry="256.5" transform="rotate(10 310.439 299.488)" stroke="url(#paint3_linear_389_563)" stroke-width="8" stroke-linecap="round" stroke-linejoin="round" stroke-dasharray="0 19"/>
<path fill-rule="evenodd" clip-rule="evenodd" d="M237.663 167.111C237.663 167.111 204.016 226.814 210.766 247.402C217.513 267.993 240.095 269.311 240.095 269.311L237.663 167.111Z" fill="#F9DDBF"/>
<path fill-rule="evenodd" clip-rule="evenodd" d="M221.065 529.865H267.91C271.266 527.478 267.005 504.16 267.005 504.16C267.005 504.16 254.218 499.078 252.011 509.415C249.795 519.743 235.726 523.03 228.282 524.289C223.183 525.156 221.572 528.093 221.065 529.865Z" fill="#233862"/>
<path fill-rule="evenodd" clip-rule="evenodd" d="M291.586 529.865H338.431C341.788 527.478 337.526 504.16 337.526 504.16C337.526 504.16 324.741 499.078 322.533 509.415C320.318 519.743 306.248 523.03 298.801 524.289C293.706 525.156 292.096 528.093 291.586 529.865Z" fill="#233862"/>
<path fill-rule="evenodd" clip-rule="evenodd" d="M234.498 304.408C234.498 304.408 236.62 330.756 239.115 362.429C242.507 405.455 251.657 512.129 251.657 512.129C251.657 512.129 257.656 517.217 270.94 514.432C270.94 514.432 282.249 477.631 285.63 435.632C285.683 434.94 285.735 434.249 285.788 433.557C288.933 390.794 293.825 300.757 293.825 300.757L234.498 304.408Z" fill="#2B478B"/>
<path fill-rule="evenodd" clip-rule="evenodd" d="M233.378 296.265C233.378 296.265 236.246 331.164 238.758 362.343L285.577 434.404C285.63 433.723 285.682 433.042 285.735 432.361C288.901 390.266 293.825 301.634 293.825 301.634L233.378 296.265Z" fill="#233862"/>
<path fill-rule="evenodd" clip-rule="evenodd" d="M246.811 295.471C246.811 295.471 280.442 378.55 291.192 410.038C298.85 432.473 320.447 511.162 320.447 511.162C320.447 511.162 329.838 513.999 337.731 508.516C337.731 508.516 345.766 428.118 329.536 405.452C320.925 393.422 327.396 280.427 292.483 279.459C257.573 278.491 246.811 295.471 246.811 295.471Z" fill="#2B478B"/>
<path fill-rule="evenodd" clip-rule="evenodd" d="M262.115 168.061C267.264 170.725 272.29 170.891 276.648 169.982C280.634 169.159 284.056 167.431 286.494 165.902C288.996 164.331 290.467 162.964 290.467 162.964C290.467 162.964 290.293 162.717 290 162.231C288.478 159.675 283.864 150.488 285.917 135.727C285.944 135.534 284.455 135.809 282.205 136.33C275.511 137.887 262.052 141.634 261.46 141.801C261.447 141.801 261.438 141.801 261.438 141.801C261.438 141.801 261.272 144.905 260.715 150.47C260.67 150.961 260.621 151.474 260.567 152.005C260.495 152.657 260.428 153.35 260.347 154.06C259.723 159.846 262.115 168.061 262.115 168.061Z" fill="#FFB27D"/>
<path fill-rule="evenodd" clip-rule="evenodd" d="M260.504 152.27C270.385 154.554 285.13 139.843 285.13 139.843C284.052 139.035 282.92 138.395 281.751 137.911C275.132 139.492 261.826 143.297 261.24 143.467C261.227 143.467 261.218 143.467 261.218 143.467C261.218 143.467 261.054 146.619 260.504 152.27Z" fill="#ED975D"/>
<path fill-rule="evenodd" clip-rule="evenodd" d="M229.232 279.543C229.952 289.077 231.965 295.905 236.382 295.905C236.382 295.905 256.011 302.816 279.469 303.003C284.054 303.034 290.551 302.141 295.934 301.238C301.434 300.31 305.792 299.367 305.792 299.367C310.509 298.278 315.715 295.367 315.015 289.984C314.647 287.122 314.378 283.446 314.196 279.188C314.183 278.912 314.171 278.641 314.159 278.361C313.642 265.902 313.724 248.732 313.662 232.295C313.617 222.2 313.517 212.386 313.178 204.108C313.178 204.108 317.809 171.591 312.669 166.256C306.644 160.014 288.958 158.098 287.848 158.338C287.517 158.268 287.182 158.185 286.843 158.127C286.843 158.127 271.461 166.524 260.268 160.24C260.268 160.24 243.941 163.959 239.244 168.926C237.622 170.635 231.156 181.132 230.979 192.659C230.734 208.731 231.361 226.989 231.361 226.993C231.192 229.604 230.912 232.97 230.605 236.811C230.276 240.905 229.917 245.527 229.61 250.35C229.454 252.781 229.312 255.257 229.197 257.737C228.85 265.391 228.743 273.089 229.232 279.543Z" fill="#F9DDBF"/>
<path fill-rule="evenodd" clip-rule="evenodd" d="M288.228 155.88C288.228 155.88 271.386 173.624 259.347 169.989C259.347 169.989 257.739 167.593 263.163 166.825C268.587 166.056 274.44 166.371 288.228 155.88Z" fill="#F2CCAA"/>
<path fill-rule="evenodd" clip-rule="evenodd" d="M257.417 143.211C257.417 143.211 261.524 144.693 266.766 145.401C274.428 146.441 284.504 145.828 287.67 136.512C293.002 120.831 299.812 111.429 284.122 105.026C275.723 101.598 270.35 101.416 266.699 102.724C263.53 103.853 261.659 106.109 260.245 108.34C257.197 113.14 251.071 140.466 257.417 143.211Z" fill="#FFB27D"/>
<path fill-rule="evenodd" clip-rule="evenodd" d="M255.973 100.25C252.489 101.101 250.917 106.619 254.237 108.914C260.189 113.027 267.458 111.413 270.137 112.61C273.975 114.324 274.665 120.793 274.734 122.847C274.803 124.904 275.072 126.638 280.285 125.408C281.139 125.207 281.755 125.266 282.178 125.521C284.34 126.81 281.577 133.059 280.743 134.411C280.743 134.411 279.544 138.887 282.206 141.066C282.528 141.326 287.757 143.623 300.358 124.246C302.339 121.205 304.23 114.353 301.171 107.756C298.116 101.159 288.667 92.9896 277.328 92.9883C268.356 92.9874 263.35 98.4488 255.973 100.25Z" fill="#163560"/>
<path fill-rule="evenodd" clip-rule="evenodd" d="M255.772 133.42C255.772 133.42 255.366 135.093 261.18 136.428C261.18 136.428 266.065 137.55 266.96 135.834C266.96 135.834 263.081 133.363 255.772 133.42Z" fill="white"/>
<path fill-rule="evenodd" clip-rule="evenodd" d="M272.557 268.508C272.557 268.508 260.084 276.554 255.265 277.069C251.988 277.419 239.047 276.9 238.976 275.301C238.874 273.046 246.882 270.66 248.955 269.753C251.029 268.845 252.651 267.8 252.638 266.927C252.621 266.05 244.618 268.945 245.48 267.039C246.342 265.129 253.739 261.806 255.53 261.486C257.316 261.167 263.077 263.076 265.319 262.065C267.56 261.054 272.557 268.508 272.557 268.508Z" fill="#ED975D"/>
<path fill-rule="evenodd" clip-rule="evenodd" d="M268.331 260.778C266.662 263.776 273.834 267.732 273.834 267.732C273.834 267.732 293.655 276.763 313.974 278.296C313.962 278.032 313.95 277.772 313.937 277.504C313.42 265.569 313.503 249.12 313.44 233.373C313.44 233.373 271.08 255.835 268.331 260.778Z" fill="#F2CCAA"/>
<path fill-rule="evenodd" clip-rule="evenodd" d="M307.786 162.619C307.786 162.619 316.322 166.198 326.47 185.018C336.617 203.838 346.217 243.691 342.102 250.168C337.989 256.649 303.344 271.483 273.142 267.528C273.142 267.528 265.649 260.758 267.162 258.148C267.162 258.148 317.799 237.657 317.831 235.206C317.862 232.755 299.766 211.639 298.737 201.126C297.709 190.613 307.786 162.619 307.786 162.619Z" fill="#F9DDBF"/>
<path fill-rule="evenodd" clip-rule="evenodd" d="M256.635 210.911C256.635 210.911 257.198 218.459 256.635 220.415C256.073 222.372 239.938 222.811 239.529 220.974C239.124 219.138 238.517 213.567 239.529 212.589C240.542 211.61 256.635 210.911 256.635 210.911Z" fill="#FFB27D"/>
<path fill-rule="evenodd" clip-rule="evenodd" d="M245.852 271.558H249.89C259.894 271.558 268.079 263.607 268.079 253.891V236.962C268.079 227.246 267.862 218.612 257.104 215.404L238.196 216.79C221.861 221.17 227.662 227.246 227.662 236.962V253.891C227.662 263.607 235.848 271.558 245.852 271.558Z" fill="#FFB27D"/>
<path fill-rule="evenodd" clip-rule="evenodd" d="M240.095 217.205C240.095 217.205 235.738 218.312 232.624 216.609C228.132 214.152 222.758 212.777 221.822 211.654C220.229 209.753 212.478 201.927 212.478 201.927L208.752 204.392C208.752 204.392 212.343 218.848 215.246 221.43C218.149 224.012 223.352 233.179 232.124 234.477C236.679 235.152 240.095 217.205 240.095 217.205Z" fill="#FFB27D"/>
<path fill-rule="evenodd" clip-rule="evenodd" d="M211.337 203.48C211.337 203.48 212.878 199.144 211.608 198.575C210.332 198.007 209.591 201.163 209.591 201.163C209.591 201.163 206.274 193.99 202.9 197.088C199.527 200.185 207.111 206.419 207.111 206.419L211.337 203.48Z" fill="#FFB27D"/>
<path fill-rule="evenodd" clip-rule="evenodd" d="M258.005 213.836C258.005 213.836 262.361 214.943 265.476 213.24C269.968 210.783 275.341 209.408 276.281 208.285C277.871 206.384 285.623 198.558 285.623 198.558L289.348 201.022C289.348 201.022 285.76 215.479 282.855 218.061C279.95 220.643 274.747 229.81 265.98 231.108C261.425 231.783 258.005 213.836 258.005 213.836Z" fill="#FFB27D"/>
<path fill-rule="evenodd" clip-rule="evenodd" d="M283.404 201.234C283.404 201.234 281.861 196.898 283.135 196.329C284.409 195.761 285.152 198.917 285.152 198.917C285.152 198.917 288.469 191.744 291.841 194.841C295.213 197.939 287.629 204.173 287.629 204.173L283.404 201.234Z" fill="#FFB27D"/>
<path fill-rule="evenodd" clip-rule="evenodd" d="M230.063 247.973C230.063 247.973 219.468 252.343 213.88 253.891C208.666 255.33 202.221 258.768 202.087 259.328C201.953 259.883 201.884 264.747 204.526 265.701C207.168 266.655 235.839 270.509 240.095 268.94C240.095 268.94 237.033 249.607 230.063 247.973Z" fill="#FFB27D"/>
<path fill-rule="evenodd" clip-rule="evenodd" d="M200.185 250.219C200.185 250.219 204.79 250.544 207.496 253.938C207.496 253.938 208.601 255.414 210.572 254.781C210.572 254.781 217.816 259.423 213.198 268.188C213.198 268.188 203.437 267.577 202.047 266.266C200.656 264.955 200.185 250.219 200.185 250.219Z" fill="white"/>
<path fill-rule="evenodd" clip-rule="evenodd" d="M199.721 265.939C199.721 265.939 194.702 264.803 193.797 260.009C192.888 255.212 193.823 250.678 197.134 250.278C200.44 249.877 202.53 251.586 203.434 253.874C204.343 256.157 207.004 266.166 199.721 265.939Z" fill="#AFCDFB"/>
<path fill-rule="evenodd" clip-rule="evenodd" d="M247.313 174.976C247.313 174.976 236.84 174.503 232.849 184.532C228.853 194.561 228.071 211.806 237.333 214.525C243.647 216.379 250.45 215.071 256.543 212.72C259.766 211.478 260.86 208.745 262.7 206.584C274.513 192.701 270.698 176.216 247.313 174.976Z" fill="#FFB27D"/>
<path fill-rule="evenodd" clip-rule="evenodd" d="M265.849 244.604C265.849 244.604 246.22 249.227 228.037 244.604C228.037 244.604 225.956 248.497 225.689 249.663C225.115 252.131 226.145 256.186 230.192 261.349C236.14 268.943 256.468 274.608 263.596 269.753C269.844 265.494 271.251 251.003 265.849 244.604Z" fill="white"/>
<path fill-rule="evenodd" clip-rule="evenodd" d="M243.787 253.146C240.044 254.505 234.62 257.672 229.745 260.52C225.192 263.174 219.946 268.181 219.946 268.792C219.946 269.402 220.98 274.474 223.663 274.881C226.346 275.288 254.024 272.934 257.649 270.354C257.649 270.354 261.839 269.101 262.378 264.094C263.165 256.817 259.748 247.329 243.787 253.146Z" fill="#FFB27D"/>
<path fill-rule="evenodd" clip-rule="evenodd" d="M214.737 259.649C214.737 259.649 219.202 258.936 222.516 261.659C222.516 261.659 223.889 262.863 225.633 261.798C225.633 261.798 233.547 264.733 231.035 274.367C231.035 274.367 221.583 275.945 219.975 274.969C218.368 273.99 214.737 259.649 214.737 259.649Z" fill="white"/>
<path fill-rule="evenodd" clip-rule="evenodd" d="M218.806 275.288C218.806 275.288 213.675 275.24 211.691 270.577C209.706 265.918 209.564 261.118 212.681 259.985C215.801 258.857 218.216 260.127 219.624 262.246C221.031 264.365 225.921 273.919 218.806 275.288Z" fill="#AFCDFB"/>
<path fill-rule="evenodd" clip-rule="evenodd" d="M243.453 206.084C243.453 206.084 240.82 208.12 237.366 207.38C233.907 206.64 233.378 204.173 233.378 204.173C233.378 204.173 238.413 204.173 243.453 206.084Z" fill="white"/>
<path fill-rule="evenodd" clip-rule="evenodd" d="M255.589 199.192C255.589 199.192 259.726 195.929 261.043 198.296C262.359 200.664 259.349 204.13 256.906 204.173C254.462 204.215 253.965 200.234 255.589 199.192Z" fill="#ED975D"/>
<path fill-rule="evenodd" clip-rule="evenodd" d="M254.157 198.606C254.157 198.606 256.914 196.43 257.79 198.009C258.67 199.587 256.665 201.898 255.033 201.927C253.405 201.955 253.072 199.301 254.157 198.606Z" fill="#FFB27D"/>
<path fill-rule="evenodd" clip-rule="evenodd" d="M258.698 182.187C258.698 182.187 253.635 188.683 242.991 188.444C242.991 188.444 238.807 187.873 237.036 185.319C237.036 185.319 240.391 186.59 242.167 186.053C242.167 186.053 232.132 184.607 232.26 182.075C232.387 179.544 237.65 176.706 241.493 176.272C244.552 175.926 253.799 175.984 256.599 177.431C259.399 178.879 259.481 181.342 258.698 182.187Z" fill="#FF9843"/>
<path fill-rule="evenodd" clip-rule="evenodd" d="M253.859 176.096C253.859 176.096 264.803 177.974 266.75 187.193C267.533 190.902 265.877 196.312 265.877 196.312C265.877 196.312 266.097 185.338 257.347 184.879C250.981 184.544 246.811 183.86 246.811 183.86L253.859 176.096Z" fill="#FF9843"/>
<path fill-rule="evenodd" clip-rule="evenodd" d="M251.288 229.442C251.288 229.752 251.541 230.003 251.848 230.003C252.159 230.003 252.408 229.752 252.408 229.442C252.408 229.132 252.159 228.88 251.848 228.88C251.541 228.88 251.288 229.132 251.288 229.442Z" fill="#ED975D"/>
<path fill-rule="evenodd" clip-rule="evenodd" d="M236.736 229.442C236.736 229.752 236.985 230.003 237.296 230.003C237.603 230.003 237.855 229.752 237.855 229.442C237.855 229.132 237.603 228.88 237.296 228.88C236.985 228.88 236.736 229.132 236.736 229.442Z" fill="#ED975D"/>
<path fill-rule="evenodd" clip-rule="evenodd" d="M220.279 242.96C220.825 240.995 222.289 239.374 224.235 238.517C226.714 237.431 230.229 235.97 231.835 235.694C234.445 235.246 239.784 232.268 240.22 233.814C240.657 235.362 236.45 237.151 236.432 238.857C236.409 240.56 248.238 244.731 247.924 246.498C247.61 248.265 244.236 252.222 239.652 251.166C235.068 250.11 223.685 247.58 221.057 246.882C219.665 246.511 219.802 244.68 220.279 242.96Z" fill="#ED975D"/>
<path fill-rule="evenodd" clip-rule="evenodd" d="M92.6235 500.803C92.6235 500.803 94.3431 504.194 93.0245 507.942C92.1936 510.299 92.1068 512.779 92.8054 514.875C93.4007 516.646 95.5543 516.934 96.4968 515.36L106.455 498.744C107.302 497.33 106.864 495.417 105.504 494.625C104.318 493.93 102.945 493.11 101.92 492.438C99.6797 490.969 96.4926 492.09 96.4926 492.09L92.6235 500.803Z" fill="#2C3A64"/>
<path fill-rule="evenodd" clip-rule="evenodd" d="M62.415 468.568C65.3065 477.668 91.7563 506.281 91.7563 506.281C91.7563 506.281 103.069 497.957 102.797 491.936C102.797 491.936 88.8648 465.943 88.7198 462.756C88.688 462.002 90.2698 458.882 92.6854 454.532C93.0117 453.942 93.3562 453.329 93.7097 452.693C97.8884 445.264 103.894 435.079 108.602 426.583C108.716 426.378 108.829 426.178 108.938 425.974C113.153 418.332 116.226 412.179 115.804 410.862C114.567 407.016 78.3003 401.834 78.3003 401.834C78.3003 401.834 59.5234 459.473 62.415 468.568Z" fill="#35488B"/>
<path fill-rule="evenodd" clip-rule="evenodd" d="M93.4548 453.496C97.448 445.977 103.186 435.668 107.686 427.068C107.795 426.862 107.903 426.659 108.007 426.453L107.99 417.265L95.9798 415.312L93.4548 453.496Z" fill="#2C3A64"/>
<path fill-rule="evenodd" clip-rule="evenodd" d="M139.617 509.603C139.617 509.603 141.444 517.83 139.587 521.271C138.42 523.433 137.973 525.845 138.374 528.016C138.709 529.852 140.821 530.505 141.992 529.127L154.33 514.589C155.38 513.351 155.213 511.402 153.97 510.391C152.887 509.512 151.632 508.469 150.704 507.635C148.675 505.813 145.33 506.357 145.33 506.357L139.617 509.603Z" fill="#2C3A64"/>
<path fill-rule="evenodd" clip-rule="evenodd" d="M95.6938 407.535C95.6938 407.535 109.51 455.725 114.653 467.843C118.235 476.28 135.517 515.265 135.517 515.265C135.517 515.265 152.768 509.992 151.607 504.655C151.607 504.655 140.594 464.68 138.619 460.16C136.06 454.297 137.667 414.379 127.94 407.187C118.209 400 95.6938 407.535 95.6938 407.535Z" fill="#35488B"/>
<path fill-rule="evenodd" clip-rule="evenodd" d="M95.6938 341.676C95.6938 341.676 73.363 318.639 72.1385 315.623C70.9096 312.607 66.2531 286.158 66.2531 286.158L60.4496 286.381C60.4496 286.381 58.9248 317.519 60.8365 323.765C62.7437 330.01 88.9755 358.035 88.9755 358.035L95.6938 341.676Z" fill="#FFB27D"/>
<path fill-rule="evenodd" clip-rule="evenodd" d="M98.7808 334.828C99.4599 333.804 99.9594 332.665 100.319 331.481C101.138 328.806 101.265 325.927 101.195 323.781C101.129 321.792 100.897 320.43 100.897 320.43L115.702 314.234C115.128 317.986 115.058 321.413 115.242 324.378C115.68 331.428 117.551 335.865 117.551 335.865L117.297 336.546C118.949 336.862 120.701 337.227 122.559 337.65L103.408 347.927L92.3357 336.235C92.3357 336.235 93.8955 335.131 98.7808 334.828Z" fill="#FFB27D"/>
<path fill-rule="evenodd" clip-rule="evenodd" d="M101.291 333.301C109.186 333.901 115.843 324 115.843 324L102.145 323.219C102.214 326.028 102.09 329.798 101.291 333.301Z" fill="#EA9C68"/>
<path fill-rule="evenodd" clip-rule="evenodd" d="M129.965 342.331C129.965 342.331 148.323 322.054 156.942 316.004C156.942 316.004 170.23 289.466 171.273 287.735C172.32 286 177.774 289.794 177.774 289.794C177.774 289.794 171.535 316.149 166.609 323.703C161.687 331.261 146.255 356.709 136.819 356.909C127.378 357.114 129.965 342.331 129.965 342.331Z" fill="#FFB27D"/>
<path fill-rule="evenodd" clip-rule="evenodd" d="M96.2538 326.455C96.2538 326.455 112.378 332.024 119.146 319.711C126.453 306.419 120.576 295.835 115.036 294.708C103.986 292.459 97.1503 296.08 94.8194 300.308C92.4839 304.532 87.3514 323.459 96.2538 326.455Z" fill="#FFB27D"/>
<path fill-rule="evenodd" clip-rule="evenodd" d="M105.768 319.785C105.768 319.785 103.451 321.73 98.2047 320.642C98.2047 320.642 93.4211 319.785 94.8358 317.636C94.8358 317.636 100.544 317.167 105.768 319.785Z" fill="white"/>
<path fill-rule="evenodd" clip-rule="evenodd" d="M116.328 323.219C116.328 323.219 118.785 317.664 118.803 314.591C118.803 314.591 123.667 309.421 121.219 307.843C118.771 306.266 117.116 309.421 116.58 308.734C116.048 308.042 116.043 297.1 112.899 297.191C109.758 297.281 97.9492 299.857 93.2594 295.157C88.5743 290.452 102.226 274.683 122.439 282.85C142.651 291.021 136.503 313.429 116.328 323.219Z" fill="#2C3A64"/>
<path fill-rule="evenodd" clip-rule="evenodd" d="M133.415 292.884C133.415 292.884 134.039 290.985 133.591 289.527C133.591 289.527 133.442 291.448 132.813 292.245C132.182 293.038 133.415 292.884 133.415 292.884Z" fill="#2C3A64"/>
<path fill-rule="evenodd" clip-rule="evenodd" d="M132.634 292.896C132.634 292.896 135.027 292.852 135.992 294.019C135.992 294.019 134.418 293.247 132.634 293.893V292.896Z" fill="#2C3A64"/>
<path fill-rule="evenodd" clip-rule="evenodd" d="M78.6293 416.32C98.2168 422.797 123.948 422.167 130.295 421.895C131.244 421.855 131.759 421.823 131.759 421.823C134.008 421.529 135.662 419.885 135.824 417.924C135.847 417.674 135.838 417.41 135.811 417.151L132.341 387.31L141.588 345.444C133.349 340.861 125.737 338.146 118.681 336.649C115.74 338.923 110.039 342.157 104.062 340.96C99.572 340.057 98.7182 337.873 98.9938 335.573C89.3943 336.189 84.2399 338.186 84.2399 338.186L72.305 406.677C71.5822 410.791 74.2249 414.86 78.6293 416.32Z" fill="#F99746"/>
<path fill-rule="evenodd" clip-rule="evenodd" d="M150.543 348.446C150.543 348.446 138.387 355.307 137.042 361.404C137.042 361.404 120.196 348.103 118.081 336.363C118.081 336.363 121.706 336.381 126.114 338.061C126.114 338.061 128.385 337.243 130.723 337.37L140.057 331.081C140.057 331.081 150.08 334.555 150.543 348.446Z" fill="#F99746"/>
<path fill-rule="evenodd" clip-rule="evenodd" d="M100.537 335.699C100.537 335.699 95.5664 334.882 93.7381 335.16C93.7381 335.16 92.8985 334.425 90.8174 334.151L80.5609 326.588C80.5609 326.588 72.7241 333.12 73.7669 343.14C73.7669 343.14 82.3079 349.138 82.2944 350.447C82.2854 351.751 82.0506 359.158 82.0506 359.158L100.537 335.699Z" fill="#F99746"/>
<path fill-rule="evenodd" clip-rule="evenodd" d="M67.0732 288.548C67.0732 288.548 67.1815 286.171 68.3449 284.239C69.5083 282.308 69.4812 277.094 68.2312 277.307C66.9758 277.514 67.333 279.411 65.9856 279.104C64.6436 278.792 63.0797 272.634 61.2453 273.063C59.4109 273.492 57.912 275.427 58.004 279.84C58.096 284.252 60.1739 288.765 60.1739 288.765L67.0732 288.548Z" fill="#FFB27D"/>
<path fill-rule="evenodd" clip-rule="evenodd" d="M170.693 288.402C170.693 288.402 171.505 285.884 171.225 283.521C170.95 281.162 172.96 275.718 173.972 276.307C174.983 276.891 173.949 278.773 175.236 278.841C176.527 278.913 180.237 272.928 181.67 273.913C183.103 274.903 183.671 277.369 181.905 281.955C180.144 286.541 176.616 290.65 176.616 290.65L170.693 288.402Z" fill="#FFB27D"/>
<path fill-rule="evenodd" clip-rule="evenodd" d="M350.914 338.854L357.352 340.065C357.352 340.065 374.97 312.396 375.476 303.961C375.963 295.902 391.84 260.641 373.254 238.63C372.416 237.632 371.506 236.66 370.516 235.722C370.484 235.684 370.447 235.652 370.411 235.619C370.411 235.619 370.378 235.67 370.319 235.774C369.941 236.416 368.464 239.133 366.734 245.141C364.025 254.534 360.675 271.971 359.884 302.087C359.884 302.087 355.56 327.869 350.914 338.854Z" fill="#F4A671"/>
<path fill-rule="evenodd" clip-rule="evenodd" d="M350.043 336.818C350.043 336.818 344.386 343.319 344.213 345.693C343.984 348.835 346.339 354.01 347.874 353.508C349.412 353.007 349.599 350.46 350.043 348.511C350.486 346.563 352.502 344.473 352.385 345.352C352.268 346.235 351.086 349.696 351.452 350.251C351.817 350.806 352.261 350.704 353.133 349.044C354.179 347.051 356.439 344.273 356.145 342.219C355.827 340.009 355.784 339.534 356.591 336.871C357.398 334.209 358.75 331.014 358.75 331.014L353.953 329.958L350.043 336.818Z" fill="#F4A671"/>
<path fill-rule="evenodd" clip-rule="evenodd" d="M496.253 520.881C496.253 520.881 501.267 514.541 505.478 507.258C508.425 502.162 512.181 496.754 512.843 492.07C514.453 480.695 526.721 462 525.445 458.813C524.168 455.631 499.839 450.127 499.839 450.127C499.839 450.127 495.083 482.084 491.92 502.746C490.998 508.775 490.213 513.844 489.717 516.874L496.253 520.881Z" fill="#FFB27D"/>
<path fill-rule="evenodd" clip-rule="evenodd" d="M487.687 520.648L495.036 524.37C495.036 524.37 499.433 518.77 503.359 512.004C500.3 511.779 494.987 510.884 489.742 507.524C488.881 513.124 488.15 517.833 487.687 520.648Z" fill="white"/>
<path fill-rule="evenodd" clip-rule="evenodd" d="M524.991 493.742C526.332 498.396 530.907 504.192 535.532 509.339C540.019 514.336 544.552 518.725 546.228 520.881L552.403 517.09C552.403 517.09 550.176 509.106 546.228 501.761C544.763 499.026 543.398 496.713 541.649 494.644C539.231 491.78 540.73 455.134 538.323 452.755C535.913 450.371 509.866 459.935 509.866 459.935C509.866 459.935 519.285 473.988 524.991 493.742Z" fill="#FFB27D"/>
<path fill-rule="evenodd" clip-rule="evenodd" d="M531.743 398.452L531.646 398.475C531.729 398.488 531.743 398.452 531.743 398.452Z" fill="#FFB27D"/>
<path fill-rule="evenodd" clip-rule="evenodd" d="M510.604 410.217L530.753 398.307C530.641 398.263 530.234 397.666 528.727 393.398C528.086 391.577 527.745 389.998 527.578 388.743C527.561 388.62 527.545 388.497 527.533 388.379C527.327 386.558 527.477 385.51 527.477 385.51L523.064 387.072L514.9 389.971C514.995 391.998 514.705 393.424 514.264 394.402C513.198 396.78 511.212 396.798 511.156 396.798L510.604 410.217Z" fill="#FFB27D"/>
<path fill-rule="evenodd" clip-rule="evenodd" d="M514.604 391.753C523.09 392.353 527.866 387.757 528.922 386.593C529.079 386.425 529.156 386.328 529.156 386.328C529.156 386.328 529.054 386.304 528.874 386.26C528.184 386.092 526.312 385.624 524.068 385.068L515.288 387.713C515.39 389.561 515.078 390.861 514.604 391.753Z" fill="#ED985F"/>
<path fill-rule="evenodd" clip-rule="evenodd" d="M513.256 390.485C513.256 390.485 531.391 392.456 531.762 380.33C532.133 368.199 534.814 362.649 522.266 361.568C509.719 360.486 506.755 364.959 506.016 369.061C503.706 381.879 508.147 389.944 513.256 390.485Z" fill="#FFB27D"/>
<path fill-rule="evenodd" clip-rule="evenodd" d="M545.723 349.05C546.334 348.366 546.77 347.927 546.77 347.927C546.313 348.238 545.972 348.622 545.723 349.05Z" fill="#D35C2B"/>
<path fill-rule="evenodd" clip-rule="evenodd" d="M504.658 396.669C504.658 396.669 488.501 383.792 486.777 379.528C485.052 375.268 477.635 359.663 475.719 358.073C475.719 358.073 471.702 357.538 471.128 360.422C470.553 363.307 474.953 380.421 478.019 385.587C481.085 390.757 495.775 408.274 500.6 410.819L504.658 396.669Z" fill="#FFB27D"/>
<path fill-rule="evenodd" clip-rule="evenodd" d="M464.914 352.287C465.198 353.834 465.822 355.497 466.559 356.353C467.524 357.502 469.055 359.794 470.019 361.285C470.643 362.202 471.041 362.888 471.041 362.888L475.919 360.484C475.919 360.484 476.032 352.116 472.799 350.338C472.685 350.282 472.629 350.222 472.515 350.222C471.154 349.476 469.849 348.962 468.715 348.62C467.183 348.217 465.992 348.161 465.311 348.559C464.687 348.907 464.574 350.569 464.914 352.287Z" fill="#FFB27D"/>
<path fill-rule="evenodd" clip-rule="evenodd" d="M520.413 367.46C526.559 365.898 524.209 376.822 525.762 376.074C527.5 375.237 530.485 375.251 530.015 377.357C529.543 379.462 528.863 380.215 528.508 381.528C528.154 382.841 528.511 385.441 529.94 384.92C531.369 384.395 544.661 369.17 535.276 357.31C525.891 345.45 497.905 352.756 506.717 365.159C508.267 367.34 516.036 368.573 520.413 367.46Z" fill="#2B478B"/>
<path fill-rule="evenodd" clip-rule="evenodd" d="M490.837 484.486C490.837 484.486 507.858 488.082 515.971 486.977C526.896 485.484 536.581 485.23 546.806 479.669C546.806 479.669 541.373 452.462 541.038 451.139C540.558 449.236 537.083 434.615 533.872 421.09C530.936 408.719 528.221 397.261 528.221 397.261C528.221 397.261 520.118 403.064 515.396 401.018C510.674 398.968 511.28 396.655 511.28 396.655C511.28 396.655 508.191 395.394 506.742 395.862C505.294 396.321 501.182 393.973 501.182 393.973C501.182 393.973 496.64 397.511 496.467 405.109C496.44 406.232 496.507 407.449 496.704 408.754L499.981 412.565C499.981 412.565 492.58 458.122 490.837 484.486Z" fill="#F99746"/>
<path fill-rule="evenodd" clip-rule="evenodd" d="M474.67 529.865H498.001C498.001 529.865 498.445 525.877 497.91 522.465C497.845 522.051 497.64 521.675 497.333 521.347C495.968 521.832 493.961 522.175 491.728 521.333C489.899 520.642 488.545 519.591 487.602 518.634C487.36 518.882 482.54 523.712 480.312 523.712C478.027 523.712 474.537 524.868 474.67 529.865Z" fill="#AA443E"/>
<path fill-rule="evenodd" clip-rule="evenodd" d="M534.493 509.012C538.887 513.664 543.326 517.75 544.967 519.757L552.403 516.164C552.403 516.164 549.79 508.625 545.923 501.788C544.594 503.867 541.104 508.149 534.493 509.012Z" fill="white"/>
<path fill-rule="evenodd" clip-rule="evenodd" d="M543.849 518.52C543.849 518.52 544.129 523.614 542.504 524.288C540.879 524.967 537.851 526.633 537.851 529.865H549.095C549.095 529.865 556.85 525.882 557.884 524.188C558.917 522.495 552.718 515.265 552.718 515.265C552.718 515.265 548.908 519.667 543.849 518.52Z" fill="#AA443E"/>
<path fill-rule="evenodd" clip-rule="evenodd" d="M526.844 434.295C526.844 434.295 521.053 433.578 518.788 434.56C516.523 435.542 515.853 437.081 517.484 437.71C522.595 439.68 527.776 437.502 527.776 437.502L526.844 434.295Z" fill="#FFB27D"/>
<path fill-rule="evenodd" clip-rule="evenodd" d="M530.952 395.096C530.952 395.096 546.973 398.407 553.291 422.72C553.91 425.096 553.27 427.638 551.586 429.458C548.681 432.602 542.276 437.197 527.382 438.89C525.756 439.074 525.538 435.05 525.538 435.05C525.7 435.369 535.655 428.77 539.893 425.222C540.659 424.58 540.626 423.232 540.073 422.41C538.641 420.277 536.239 416.589 535.432 414.698C534.254 411.935 526.474 396.349 530.952 395.096Z" fill="#FFB27D"/>
<path fill-rule="evenodd" clip-rule="evenodd" d="M530.531 395.096C530.531 395.096 538.879 395.719 545.687 405.286C545.687 405.286 543.383 414.084 532.568 416.435C532.568 416.435 525.903 400.593 530.531 395.096Z" fill="#F99746"/>
<path fill-rule="evenodd" clip-rule="evenodd" d="M531.135 356.22C531.135 356.22 540.408 353.854 546.642 360.197C552.877 366.544 543.797 378.174 552.516 384.543C561.234 390.912 557.787 395.666 554.246 397.22C546.281 400.706 534.112 396.363 536.588 390.48C541.347 379.163 534.304 370.547 534.304 370.547L531.135 356.22Z" fill="#2B478B"/>
<path fill-rule="evenodd" clip-rule="evenodd" d="M410.847 453.468C410.839 453.543 410.831 453.618 410.823 453.689C410.808 453.818 410.792 453.937 410.789 454.043C409.912 462.604 408.095 471.276 405.928 479.337C400.276 500.365 392.135 516.388 392.135 516.388L385.386 515.742C385.386 515.742 389.075 499.563 389.396 477.587C389.616 462.223 388.191 444.025 382.704 426.549C379.493 416.323 376.951 406.584 374.946 397.46C368.405 367.694 367.563 344.504 367.721 332.431C367.799 326.474 368.119 323.219 368.119 323.219L406.06 328.742L407.829 328.999C407.574 347.016 407.458 371.481 407.408 390.613C407.396 395.224 407.389 399.529 407.381 403.355C407.373 408.665 407.369 413.059 407.369 416.101C407.369 419.042 407.369 420.712 407.369 420.712C409.533 425.827 410.711 431.567 411.156 437.63C411.526 442.741 411.376 448.082 410.847 453.468Z" fill="#F99746"/>
<path fill-rule="evenodd" clip-rule="evenodd" d="M395.73 511.141C395.903 510.217 396.146 509.046 396.423 507.767C399.27 501.051 402.838 491.705 405.764 481.099C395.818 481.933 390.919 480.592 388.56 479.327C388.432 487.968 387.775 495.725 387.019 501.979C385.981 505.878 384.074 512.11 381.889 514.721C378.412 518.876 374.582 522.447 369.959 524.798C369.442 525.058 381.53 529.325 387.71 528.675C393.891 528.024 398.995 526.92 398.43 523.084C398.233 521.734 397.886 520.343 397.351 519.118C396.358 516.861 395.217 513.887 395.73 511.141Z" fill="#FFB27D"/>
<path fill-rule="evenodd" clip-rule="evenodd" d="M410.824 452.373C411.453 445.05 399.047 419.755 399.047 419.755L407.19 414.188C407.19 417.194 407.19 418.9 407.19 418.9C409.451 424.127 410.682 429.993 411.146 436.189C411.534 441.411 411.377 446.87 410.824 452.373Z" fill="#E07D32"/>
<path fill-rule="evenodd" clip-rule="evenodd" d="M388.545 528.809C382.172 528.435 383.955 530.105 375.105 530.869C366.254 531.627 363.015 528.579 362.507 527.196C362.053 525.966 366.261 524.614 370.755 523.051L370.814 523.144C370.814 523.144 376.712 526.156 383.96 524.824C389.868 523.743 395.779 520.546 399.853 519.757C400.199 521.238 400.548 522.754 400.532 524.317C400.491 528.743 394.918 529.183 388.545 528.809Z" fill="#1C468A"/>
<path fill-rule="evenodd" clip-rule="evenodd" d="M409.122 330.218C408.848 348.533 408.724 373.403 408.671 392.853C408.658 397.539 400.289 420.406 400.281 424.296C393.514 414.864 387.657 349.649 378.288 333.149C378.37 327.093 366.585 324.342 366.585 324.342L407.226 329.957L409.122 330.218Z" fill="#E07D32"/>
<path fill-rule="evenodd" clip-rule="evenodd" d="M413.563 156.664C413.795 155.855 416.74 146.726 430.997 149.756C430.997 149.756 423.858 148.858 421.901 151.604C421.901 151.604 427.559 149.016 431.102 151.182C434.646 153.347 435.227 160.636 434.698 162.854C434.169 165.072 430.256 171.674 427.665 171.674C426.683 171.674 425.634 171.348 424.709 170.943C425.106 172.117 425.464 173.392 425.761 174.79C428.513 187.723 419.902 197.554 415.449 195.124C412.594 193.566 410.432 198.557 410.432 198.557L386.734 167.185C386.734 167.185 403.248 147.367 413.563 156.664Z" fill="#233862"/>
<path fill-rule="evenodd" clip-rule="evenodd" d="M375.557 312.974C386.619 278.459 374.496 270.955 375.648 253.685C376.801 236.409 390.5 217.84 390.5 217.84C390.5 217.84 391.198 217.771 392.381 217.667C393.301 217.194 393.546 213.439 393.535 209.477C393.523 204.722 393.15 199.675 393.15 199.675L409.581 196.499L410.558 196.312C410.517 207.474 413.528 214.802 415.71 216.509C417.763 216.738 426.516 217.814 431.909 220.015C433.943 220.843 435.494 221.832 436.037 222.992C440.549 232.675 445.053 257.114 448.22 274.549C449.984 284.263 451.33 291.807 452.033 293.403C453.992 297.865 459.976 322.399 465.091 334.501L460.454 340.065C460.454 340.065 437.016 301.525 435.057 292.447C434.418 289.494 432.852 283.578 431.024 276.951C430.747 275.95 430.465 274.932 430.179 273.904C426.951 282.449 425.303 286.403 425.393 290.094C425.52 295.347 429.17 300.071 436.798 316.768C441.013 325.993 364.262 348.223 375.557 312.974Z" fill="#FFB27D"/>
<path fill-rule="evenodd" clip-rule="evenodd" d="M395.689 200.458C395.689 200.458 396.045 205.262 396.056 209.788C404.825 209.547 409.461 201.754 411.36 197.435L395.689 200.458Z" fill="#E8945B"/>
<path fill-rule="evenodd" clip-rule="evenodd" d="M412.14 196.311C412.14 196.311 416.817 188.967 417.94 182.686C418.741 178.203 416.443 161.583 399.637 163.977C399.637 163.977 394.755 164.455 390.167 167.534C386.518 169.983 381.252 175.27 387.14 189.773L388.669 194.672L412.14 196.311Z" fill="#233862"/>
<path fill-rule="evenodd" clip-rule="evenodd" d="M391.702 204.172C391.702 204.172 413.341 204.513 413.356 191.66C413.371 178.808 416.174 170.197 402.358 169.436C388.543 168.675 385.853 173.577 384.754 177.865C383.654 182.154 386.074 203.752 391.702 204.172Z" fill="#FFB27D"/>
<path fill-rule="evenodd" clip-rule="evenodd" d="M403.506 426.693C404.875 429.214 418.441 445.249 432.067 463.001C433.234 464.515 434.445 466.153 435.684 467.875C443.714 478.991 452.958 493.485 458.483 500.544C463.505 506.958 468.017 498.923 465.484 493.197C461.487 484.154 458.099 468.346 454.229 456.715C453.338 454.025 452.416 451.557 451.459 449.448C447.291 440.286 440.264 427.465 430.39 417.53C428.677 415.803 443.619 377.449 442.55 345.722C442.131 333.15 440.35 322.092 436.274 315.357L395.714 317.333C395.714 317.333 390.166 402.069 403.506 426.693Z" fill="#F99746"/>
<path fill-rule="evenodd" clip-rule="evenodd" d="M384.672 167.684C388.057 163.518 390.617 164.423 392.054 165.675C403.816 159.05 411.778 168.884 411.778 168.884C413.245 178.839 420.315 184.542 420.315 184.542C420.315 184.542 416.317 187.05 407.099 184.643C404.286 183.909 401.774 181.882 399.638 179.421C403.368 185.765 408.441 190.335 408.441 190.335C397.43 185.167 393.009 169.618 392.568 167.974C391.229 169.195 388.589 171.847 387.784 174.448C386.691 177.981 386.199 185.254 384.111 185.007C384.111 185.007 379.586 173.943 384.672 167.684Z" fill="#233862"/>
<path fill-rule="evenodd" clip-rule="evenodd" d="M465.213 332.966C465.213 332.966 467.086 337.307 469.035 338.52C470.985 339.729 472.203 342.257 471.69 344.578C471.177 346.898 472.216 350.935 469.753 350.935C467.291 350.935 461.546 340.236 460.828 338.216C460.109 336.2 459.494 335.794 459.494 335.794L465.213 332.966Z" fill="#FFB27D"/>
<path fill-rule="evenodd" clip-rule="evenodd" d="M441.77 332.423C441.84 333.818 441.766 334.934 441.521 335.733C440.668 338.506 437.74 339.77 430.661 339.012C426.334 338.547 424.405 331.054 423.544 324.659C420.945 333.809 417.307 338.94 412.603 340.019C405.739 341.6 368.654 344.251 366.387 327.238C363.895 308.532 373.823 277.1 374.233 259.238C373.215 252.902 372.868 247.406 372.977 242.682C373.266 229.958 376.88 222.826 379.658 219.955C380.445 219.33 381.232 218.941 384.391 218.381C386.005 218.097 388.242 217.768 391.412 217.337C391.412 217.337 392.775 217.156 392.746 217.205C392.16 218.287 385.859 227.876 386.47 231.032C387.11 234.335 411.339 233.859 413.257 232.043C415.174 230.227 420.18 216.527 420.18 216.527C420.18 216.527 430.027 217.639 434.845 221.26C434.845 221.26 434.826 221.283 434.793 221.324C435.375 221.756 435.811 222.214 436.06 222.702C441.199 232.815 446.331 258.34 449.94 276.544C441.192 281.53 433.549 280.044 431.177 279.389C434.277 300.358 441.309 322.871 441.77 332.423Z" fill="white"/>
<path fill-rule="evenodd" clip-rule="evenodd" d="M396.809 197.315C396.809 197.315 396.283 198.797 391.006 198.524C391.006 198.524 386.575 198.296 386.739 196.663C386.739 196.663 391.058 195.537 396.809 197.315Z" fill="white"/>
<path fill-rule="evenodd" clip-rule="evenodd" d="M437.472 469.964C445.422 480.773 454.575 494.868 460.044 501.732C465.017 507.97 469.484 500.156 466.976 494.588C463.018 485.794 459.665 470.422 455.833 459.111C453.258 462.893 448 467.771 437.472 469.964Z" fill="#FFB27D"/>
<path fill-rule="evenodd" clip-rule="evenodd" d="M460.001 335.573C460.001 335.573 459.059 341.359 459.744 343.176C460.428 344.993 459.968 347.355 461.344 346.688C462.72 346.021 460.001 335.573 460.001 335.573Z" fill="#FFB27D"/>
<path fill-rule="evenodd" clip-rule="evenodd" d="M473.741 508.949C469.889 513.942 472.282 513.677 467.938 521.203C463.593 528.733 461.792 530.067 460.423 529.842C459.206 529.639 460.491 525.605 461.775 521.235C461.937 520.687 462.095 520.136 462.253 519.579C463.649 514.631 461.852 509.965 461.001 504.686C460.195 499.685 452.389 489.784 452.389 489.784L457.979 479.327C457.979 479.327 464.838 488.433 467.938 492.119C469.76 494.291 472.937 495.385 475.437 496.123C476.794 496.524 476.674 496.944 477.891 497.681C481.347 499.764 477.593 503.957 473.741 508.949Z" fill="#FFB27D"/>
<path fill-rule="evenodd" clip-rule="evenodd" d="M468.729 521.339C464.426 528.858 460.261 530.065 458.905 529.841C457.7 529.638 458.973 525.61 460.244 521.246L460.346 521.242C460.346 521.242 465.952 517.861 468.925 511.378C471.35 506.094 472.132 499.831 473.774 496.173C475.118 496.574 476.49 496.993 477.695 497.729C481.118 499.809 478.378 504.525 474.563 509.51C470.748 514.494 473.032 513.824 468.729 521.339Z" fill="#1C468A"/>
<path fill-rule="evenodd" clip-rule="evenodd" d="M382.407 218.773C382.407 218.773 375.873 218.743 371.309 227.442C366.744 236.141 359.869 264.423 359.869 264.423C359.869 264.423 367.887 273.278 377.283 271.258C386.679 269.233 382.407 218.773 382.407 218.773Z" fill="white"/>
<defs>
<linearGradient id="paint0_linear_389_563" x1="272.7" y1="629.641" x2="635.558" y2="365.06" gradientUnits="userSpaceOnUse">
<stop stop-color="white" stop-opacity="0.1"/>
<stop offset="1" stop-color="white" stop-opacity="0.5"/>
</linearGradient>
<linearGradient id="paint1_linear_389_563" x1="6.92517" y1="298.888" x2="300.724" y2="577.037" gradientUnits="userSpaceOnUse">
<stop stop-color="white" stop-opacity="0.5"/>
<stop offset="1" stop-color="white" stop-opacity="0.2"/>
</linearGradient>
<linearGradient id="paint2_linear_389_563" x1="299.674" y1="544.003" x2="461.024" y2="333.336" gradientUnits="userSpaceOnUse">
<stop stop-color="white" stop-opacity="0.1"/>
<stop offset="1" stop-color="white" stop-opacity="0.5"/>
</linearGradient>
<linearGradient id="paint3_linear_389_563" x1="267.039" y1="678.172" x2="704.703" y2="343.8" gradientUnits="userSpaceOnUse">
<stop stop-color="white" stop-opacity="0.7"/>
<stop offset="1" stop-color="white"/>
</linearGradient>
</defs>
</svg>
