<svg width="621" height="599" viewBox="0 0 621 599" fill="none" xmlns="http://www.w3.org/2000/svg">
<path d="M307.5 543C245.4 543 187 518.9 143.1 475.2C99.2 431.5 75 373.3 75 311.5C75 249.6 99.2 191.5 143.1 147.8C187 104.1 245.4 80 307.5 80C369.6 80 428 104.1 471.9 147.8C515.8 191.5 540 249.7 540 311.5C540 373.3 515.8 431.5 471.9 475.2C428 518.9 369.6 543 307.5 543ZM307.5 112C196.9 112 107 201.5 107 311.5C107 421.5 196.9 511 307.5 511C418.1 511 508 421.5 508 311.5C508 201.5 418.1 112 307.5 112Z" fill="url(#paint0_linear_780_2709)"/>
<path d="M306 472C394.366 472 466 400.366 466 312C466 223.634 394.366 152 306 152C217.634 152 146 223.634 146 312C146 400.366 217.634 472 306 472Z" fill="url(#paint1_linear_780_2709)"/>
<path d="M327 517C221.6 517 139 467.6 139 404.5C139 341.4 221.6 292 327 292C432.4 292 515 341.4 515 404.5C515 467.6 432.4 517 327 517ZM327 328C284.6 328 245 337 215.5 353.4C189.7 367.7 175 386.3 175 404.5C175 422.6 189.8 441.3 215.5 455.6C245 472 284.6 481 327 481C369.4 481 409 472 438.5 455.6C464.3 441.3 479 422.7 479 404.5C479 386.4 464.2 367.7 438.5 353.4C409 337 369.4 328 327 328Z" fill="url(#paint2_linear_780_2709)"/>
<path d="M320.1 560.4C317.9 560.4 316.1 558.7 316.1 556.5C316.1 554.3 317.8 552.5 320 552.4C325.6 552.3 331.2 552 336.7 551.6C338.9 551.4 340.8 553.1 341 555.3C341.2 557.5 339.5 559.4 337.3 559.6C331.6 560 325.8 560.3 320.1 560.4ZM301.1 560.1C301 560.1 301 560.1 300.9 560.1C295.2 559.8 289.4 559.3 283.7 558.7C281.5 558.5 279.9 556.5 280.2 554.3C280.4 552.1 282.4 550.5 284.6 550.8C290.1 551.4 295.8 551.9 301.3 552.2C303.5 552.3 305.2 554.2 305.1 556.4C305 558.4 303.2 560.1 301.1 560.1ZM355.9 557.5C353.9 557.5 352.2 556.1 351.9 554.1C351.6 551.9 353.1 549.9 355.3 549.6C360.8 548.8 366.3 547.8 371.8 546.7C374 546.2 376.1 547.6 376.5 549.8C376.9 552 375.6 554.1 373.4 554.5C367.8 555.7 362.1 556.7 356.4 557.5C356.3 557.5 356.1 557.5 355.9 557.5ZM265.3 556C265.1 556 264.8 556 264.6 555.9C259 554.9 253.3 553.7 247.7 552.4C245.6 551.9 244.2 549.7 244.7 547.6C245.2 545.5 247.4 544.1 249.5 544.6C254.9 545.9 260.4 547 265.9 548C268.1 548.4 269.5 550.5 269.1 552.6C268.9 554.6 267.2 556 265.3 556ZM391.1 550C389.4 550 387.8 548.8 387.3 547.1C386.7 545 387.9 542.8 390.1 542.2C395.4 540.7 400.8 539 406 537.2C408.1 536.5 410.4 537.6 411.1 539.7C411.8 541.8 410.7 544.1 408.6 544.8C403.2 546.7 397.7 548.4 392.2 550C391.8 550 391.4 550 391.1 550ZM230.4 547.5C230 547.5 229.6 547.4 229.2 547.3C223.7 545.6 218.3 543.7 212.9 541.7C210.8 540.9 209.8 538.6 210.6 536.5C211.4 534.4 213.7 533.4 215.8 534.2C221 536.2 226.3 538 231.6 539.7C233.7 540.4 234.9 542.6 234.2 544.7C233.7 546.4 232.1 547.5 230.4 547.5ZM424.9 538C423.4 538 421.9 537.1 421.2 535.6C420.3 533.6 421.3 531.2 423.3 530.3C428.4 528.1 433.5 525.7 438.4 523.2C440.4 522.2 442.8 523 443.8 525C444.8 527 444 529.4 442 530.4C436.9 533 431.7 535.4 426.4 537.7C426 537.9 425.5 538 424.9 538ZM196.8 534.6C196.2 534.6 195.7 534.5 195.1 534.2C189.9 531.8 184.7 529.2 179.7 526.5C177.8 525.5 177 523 178.1 521.1C179.1 519.2 181.6 518.4 183.5 519.5C188.4 522.1 193.5 524.6 198.5 526.9C200.5 527.8 201.4 530.2 200.5 532.2C199.8 533.7 198.3 534.6 196.8 534.6ZM456.9 521.6C455.5 521.6 454.2 520.9 453.5 519.7C452.4 517.8 453 515.3 454.9 514.2C459.7 511.3 464.4 508.3 469 505.1C470.8 503.8 473.3 504.3 474.6 506.1C475.9 507.9 475.4 510.4 473.6 511.7C468.9 514.9 464 518.1 459.1 521C458.3 521.4 457.6 521.6 456.9 521.6ZM165.1 517.5C164.4 517.5 163.6 517.3 163 516.9C158.1 513.9 153.3 510.6 148.7 507.3C146.9 506 146.5 503.5 147.8 501.7C149.1 499.9 151.6 499.5 153.4 500.8C157.9 504 162.6 507.2 167.3 510.1C169.2 511.3 169.7 513.7 168.6 515.6C167.8 516.9 166.5 517.5 165.1 517.5ZM486.4 501C485.2 501 484.1 500.5 483.3 499.5C481.9 497.8 482.2 495.3 483.9 493.9C488.2 490.4 492.5 486.7 496.6 483C498.2 481.5 500.8 481.6 502.3 483.2C503.8 484.8 503.7 487.4 502.1 488.9C497.9 492.8 493.5 496.5 489 500.1C488.2 500.8 487.3 501 486.4 501ZM135.9 496.4C135 496.4 134.1 496.1 133.4 495.5C129 491.8 124.6 488 120.4 484.1C118.8 482.6 118.7 480.1 120.2 478.4C121.7 476.8 124.2 476.7 125.9 478.2C130 482 134.2 485.7 138.5 489.3C140.2 490.7 140.4 493.2 139 494.9C138.2 495.9 137.1 496.4 135.9 496.4ZM512.8 476.6C511.8 476.6 510.8 476.2 510.1 475.5C508.5 474 508.4 471.5 509.9 469.8C513.7 465.7 517.4 461.5 520.9 457.2C522.3 455.5 524.8 455.2 526.5 456.6C528.2 458 528.5 460.5 527.1 462.2C523.5 466.6 519.6 471 515.7 475.2C515 476.2 513.9 476.6 512.8 476.6ZM109.8 471.7C108.7 471.7 107.7 471.3 106.9 470.4C103 466.2 99.1998 461.8 95.5998 457.4C94.1998 455.7 94.4998 453.2 96.1998 451.8C97.8998 450.4 100.4 450.7 101.8 452.4C105.3 456.7 109 461 112.8 465C114.3 466.6 114.2 469.2 112.6 470.7C111.7 471.4 110.8 471.7 109.8 471.7ZM535.5 448.7C534.7 448.7 533.9 448.5 533.2 448C531.4 446.7 531 444.2 532.2 442.4C535.4 437.8 538.5 433.1 541.3 428.4C542.4 426.5 544.9 425.9 546.8 427C548.7 428.1 549.3 430.6 548.2 432.5C545.2 437.4 542.1 442.3 538.8 447C538 448.1 536.8 448.7 535.5 448.7ZM87.1998 443.7C85.8998 443.7 84.6998 443.1 83.8998 442C80.5998 437.3 77.3998 432.4 74.3998 427.6C73.1998 425.7 73.7998 423.3 75.6998 422.1C77.5998 420.9 79.9998 421.5 81.1998 423.4C84.0998 428.1 87.1998 432.8 90.3998 437.4C91.6998 439.2 91.1998 441.7 89.3998 443C88.7998 443.5 87.9998 443.7 87.1998 443.7ZM554 417.9C553.4 417.9 552.8 417.8 552.2 417.5C550.2 416.5 549.4 414.1 550.4 412.1C552.9 407.1 555.2 402 557.4 396.9C558.3 394.9 560.6 393.9 562.6 394.8C564.6 395.7 565.6 398 564.7 400C562.5 405.3 560.1 410.6 557.5 415.7C556.9 417.1 555.5 417.9 554 417.9ZM68.5998 412.9C67.0998 412.9 65.6998 412.1 64.9998 410.7C62.3998 405.6 59.8998 400.3 57.5998 395.1C56.6998 393.1 57.6998 390.7 59.6998 389.8C61.6998 388.9 64.0998 389.9 64.9998 391.9C67.1998 397 69.5998 402.1 72.0998 407C73.0998 409 72.2998 411.4 70.3998 412.4C69.7998 412.8 69.1998 412.9 68.5998 412.9ZM567.7 384.6C567.3 384.6 566.9 384.5 566.4 384.4C564.3 383.7 563.2 381.4 563.9 379.4C565.6 374.1 567.2 368.7 568.6 363.4C569.1 361.3 571.3 360 573.5 360.5C575.6 361 576.9 363.2 576.4 365.4C575 371 573.4 376.5 571.6 382C571 383.5 569.4 384.6 567.7 384.6ZM54.3998 379.9C52.6998 379.9 51.1998 378.9 50.5998 377.2C48.6998 371.8 46.9998 366.2 45.4998 360.7C44.8998 358.6 46.1998 356.4 48.2998 355.8C50.3998 355.2 52.5998 356.5 53.1998 358.6C54.6998 363.9 56.2998 369.3 58.0998 374.6C58.7998 376.7 57.6998 379 55.5998 379.7C55.2998 379.8 54.8998 379.9 54.3998 379.9ZM576.5 349.7C576.3 349.7 576 349.7 575.8 349.6C573.6 349.2 572.2 347.2 572.5 345C573.5 339.5 574.2 334 574.8 328.4C575 326.2 577 324.6 579.2 324.8C581.4 325 583 327 582.8 329.2C582.2 334.9 581.4 340.7 580.4 346.3C580.1 348.4 578.4 349.7 576.5 349.7ZM45.0998 345.1C43.1998 345.1 41.4998 343.8 41.1998 341.8C40.0998 336.2 39.1998 330.4 38.5998 324.8C38.2998 322.6 39.8998 320.6 42.0998 320.4C44.2998 320.1 46.2998 321.7 46.4998 323.9C47.1998 329.4 47.9998 334.9 49.0998 340.4C49.4998 342.6 48.0998 344.7 45.8998 345.1C45.5998 345.1 45.3998 345.1 45.0998 345.1ZM580 313.9C577.7 313.8 575.9 312 576 309.8C576.1 307.8 576.1 305.7 576.1 303.6C576.1 300.1 576 296.5 575.9 293C575.8 290.8 577.5 288.9 579.7 288.8C581.9 288.7 583.8 290.4 583.9 292.6C584.1 296.2 584.1 299.9 584.1 303.5C584.1 305.6 584.1 307.8 584 309.9C583.9 312.2 582.2 313.9 580 313.9ZM40.9998 309.4C38.8998 309.4 37.0998 307.7 36.9998 305.6C36.8998 302.2 36.7998 298.7 36.7998 295.3C36.7998 293 36.7998 290.7 36.8998 288.4C36.9998 286.2 38.7998 284.5 40.9998 284.5C43.1998 284.6 44.8998 286.4 44.8998 288.6C44.7998 290.8 44.7998 293.1 44.7998 295.3C44.7998 298.6 44.8998 302 44.9998 305.3C45.0998 307.5 43.3998 309.4 41.1998 309.5C41.0998 309.4 41.0998 309.4 40.9998 309.4ZM578.3 278C576.3 278 574.6 276.5 574.3 274.5C573.6 269 572.8 263.4 571.7 258C571.3 255.8 572.7 253.7 574.9 253.3C577.1 252.9 579.2 254.3 579.6 256.5C580.7 262.1 581.6 267.9 582.3 273.5C582.6 275.7 581 277.7 578.8 278C578.6 278 578.4 278 578.3 278ZM42.1998 273.5C42.0998 273.5 41.8998 273.5 41.7998 273.5C39.5998 273.3 37.9998 271.3 38.1998 269.1C38.7998 263.4 39.5998 257.7 40.5998 252C40.9998 249.8 43.0998 248.4 45.1998 248.8C47.3998 249.2 48.7998 251.3 48.3998 253.4C47.3998 258.9 46.5998 264.5 46.0998 270C45.8998 272 44.1998 273.5 42.1998 273.5ZM571.3 242.8C569.5 242.8 567.9 241.6 567.4 239.9C565.9 234.6 564.3 229.2 562.4 223.9C561.7 221.8 562.8 219.5 564.9 218.8C567 218.1 569.3 219.2 570 221.3C571.9 226.7 573.6 232.3 575.1 237.8C575.7 239.9 574.4 242.1 572.3 242.7C572 242.7 571.7 242.8 571.3 242.8ZM48.4998 238.1C48.1998 238.1 47.7998 238.1 47.4998 238C45.3998 237.5 44.0998 235.3 44.5998 233.1C45.9998 227.5 47.6998 222 49.4998 216.5C50.1998 214.4 52.4998 213.3 54.5998 214C56.6998 214.7 57.7998 217 57.0998 219.1C55.3998 224.4 53.7998 229.8 52.3998 235.1C51.8998 236.9 50.2998 238.1 48.4998 238.1ZM559.4 208.9C557.9 208.9 556.4 208 555.7 206.5C553.5 201.4 551.1 196.3 548.5 191.4C547.5 189.4 548.3 187 550.2 186C552.2 185 554.6 185.8 555.6 187.7C558.2 192.8 560.7 198 563 203.3C563.9 205.3 563 207.7 560.9 208.6C560.4 208.8 559.9 208.9 559.4 208.9ZM59.9998 204C59.4998 204 58.9998 203.9 58.4998 203.7C56.4998 202.8 55.4998 200.5 56.3998 198.5C58.5998 193.2 61.0998 187.9 63.6998 182.8C64.6998 180.8 67.0998 180 69.0998 181C71.0998 182 71.8998 184.4 70.8998 186.4C68.3998 191.4 65.9998 196.5 63.8998 201.6C62.9998 203.1 61.5998 204 59.9998 204ZM542.7 177C541.4 177 540 176.3 539.3 175.1C536.4 170.4 533.3 165.7 530.1 161.1C528.8 159.3 529.3 156.8 531.1 155.5C532.9 154.2 535.4 154.7 536.7 156.5C540 161.2 543.2 166 546.2 170.9C547.4 172.8 546.8 175.2 544.9 176.4C544.2 176.8 543.4 177 542.7 177ZM76.3998 172C75.6998 172 74.9998 171.8 74.2998 171.4C72.3998 170.3 71.7998 167.8 72.9998 165.9C75.9998 161 79.1998 156.1 82.4998 151.4C83.7998 149.6 86.2998 149.2 88.0998 150.4C89.8998 151.7 90.2998 154.2 89.0998 156C85.8998 160.5 82.7998 165.3 79.8998 170C78.9998 171.3 77.6998 172 76.3998 172ZM521.9 147.6C520.7 147.6 519.6 147.1 518.8 146.1C515.3 141.8 511.6 137.6 507.8 133.5C506.3 131.9 506.4 129.4 508 127.8C509.6 126.2 512.1 126.4 513.7 128C517.6 132.2 521.4 136.6 525.1 141C526.5 142.7 526.2 145.2 524.5 146.6C523.7 147.3 522.8 147.6 521.9 147.6ZM97.1998 142.7C96.2998 142.7 95.3998 142.4 94.6998 141.8C92.9998 140.4 92.7998 137.9 94.1998 136.2C97.7998 131.8 101.7 127.4 105.6 123.3C107.1 121.7 109.6 121.6 111.3 123.1C112.9 124.6 113 127.1 111.5 128.8C107.7 132.8 104 137.1 100.4 141.3C99.4998 142.2 98.2998 142.7 97.1998 142.7ZM497.3 121.4C496.3 121.4 495.3 121 494.6 120.3C490.5 116.5 486.3 112.8 482 109.2C480.3 107.8 480.1 105.3 481.5 103.6C482.9 101.9 485.4 101.7 487.1 103.1C491.5 106.7 495.9 110.6 500.1 114.5C501.7 116 501.8 118.5 500.3 120.2C499.4 121 498.3 121.4 497.3 121.4ZM122 116.6C120.9 116.6 119.8 116.2 119 115.3C117.5 113.7 117.6 111.1 119.3 109.6C123.5 105.7 127.9 102 132.4 98.4001C134.1 97.0001 136.6 97.3001 138 99.0001C139.4 100.7 139.1 103.2 137.4 104.6C133.1 108.1 128.8 111.7 124.7 115.5C123.9 116.3 123 116.6 122 116.6ZM469.4 98.6001C468.6 98.6001 467.8 98.4001 467.1 97.9001C462.6 94.7001 457.9 91.5001 453.2 88.6001C451.3 87.4001 450.8 85.0001 451.9 83.1001C453.1 81.2001 455.5 80.7001 457.4 81.8001C462.3 84.8001 467.1 88.1001 471.8 91.4001C473.6 92.7001 474 95.2001 472.7 97.0001C471.9 98.0001 470.6 98.6001 469.4 98.6001ZM150.2 94.3001C148.9 94.3001 147.7 93.7001 146.9 92.6001C145.6 90.8001 146.1 88.3001 147.9 87.0001C152.6 83.8001 157.5 80.6001 162.4 77.7001C164.3 76.6001 166.8 77.2001 167.9 79.1001C169 81.0001 168.4 83.5001 166.5 84.6001C161.7 87.5001 157 90.5001 152.4 93.6001C151.7 94.0001 150.9 94.3001 150.2 94.3001ZM438.8 79.7001C438.2 79.7001 437.5 79.5001 436.9 79.2001C432 76.6001 426.9 74.1001 421.9 71.8001C419.9 70.9001 419 68.5001 419.9 66.5001C420.8 64.5001 423.2 63.6001 425.2 64.5001C430.4 66.9001 435.6 69.4001 440.7 72.1001C442.6 73.1001 443.4 75.6001 442.4 77.5001C441.6 78.9001 440.2 79.7001 438.8 79.7001ZM181.1 75.9001C179.6 75.9001 178.2 75.1001 177.5 73.7001C176.5 71.7001 177.3 69.3001 179.3 68.3001C184.4 65.7001 189.7 63.3001 194.9 61.0001C196.9 60.1001 199.3 61.1001 200.2 63.1001C201.1 65.1001 200.1 67.5001 198.1 68.4001C193 70.6001 187.9 73.0001 182.9 75.5001C182.3 75.8001 181.7 75.9001 181.1 75.9001ZM406 64.8001C405.5 64.8001 405.1 64.7001 404.6 64.5001C399.4 62.5001 394.1 60.7001 388.8 59.1001C386.7 58.4001 385.5 56.2001 386.2 54.1001C386.9 52.0001 389.1 50.8001 391.2 51.5001C396.7 53.2001 402.2 55.1001 407.5 57.1001C409.6 57.9001 410.6 60.2001 409.8 62.3001C409.2 63.9001 407.6 64.8001 406 64.8001ZM214.2 61.9001C212.5 61.9001 211 60.9001 210.4 59.2001C209.7 57.1001 210.8 54.8001 212.9 54.1001C218.3 52.2001 223.8 50.5001 229.3 48.9001C231.4 48.3001 233.6 49.5001 234.2 51.7001C234.8 53.8001 233.6 56.0001 231.4 56.6001C226.1 58.1001 220.7 59.8001 215.4 61.6001C215.1 61.8001 214.6 61.9001 214.2 61.9001ZM371.6 54.3001C371.3 54.3001 371 54.3001 370.7 54.2001C365.3 52.9001 359.8 51.8001 354.3 50.8001C352.1 50.4001 350.7 48.3001 351.1 46.2001C351.5 44.0001 353.6 42.6001 355.7 43.0001C361.3 44.0001 367 45.2001 372.6 46.5001C374.7 47.0001 376.1 49.2001 375.6 51.3001C375.1 53.1001 373.4 54.3001 371.6 54.3001ZM248.8 52.3001C246.9 52.3001 245.3 51.0001 244.9 49.1001C244.5 46.9001 245.8 44.8001 248 44.4001C253.6 43.2001 259.3 42.2001 265 41.4001C267.2 41.1001 269.2 42.6001 269.5 44.8001C269.8 47.0001 268.3 49.0001 266.1 49.3001C260.6 50.1001 255 51.1001 249.6 52.2001C249.3 52.3001 249.1 52.3001 248.8 52.3001ZM337.3 48.3001C337.1 48.3001 337 48.3001 336.8 48.3001C331.3 47.7001 325.6 47.2001 320.1 46.9001C317.9 46.8001 316.2 44.9001 316.3 42.7001C316.4 40.5001 318.3 38.8001 320.5 38.9001C326.2 39.2001 332 39.7001 337.7 40.3001C339.9 40.5001 341.5 42.5001 341.2 44.7001C341.1 46.8001 339.3 48.3001 337.3 48.3001ZM284.4 47.3001C282.3 47.3001 280.6 45.7001 280.4 43.6001C280.2 41.4001 281.9 39.5001 284.1 39.3001C289.8 38.9001 295.6 38.6001 301.3 38.5001C303.5 38.4001 305.3 40.2001 305.4 42.4001C305.4 44.6001 303.7 46.4001 301.5 46.5001C295.9 46.6001 290.3 46.8001 284.8 47.2001C284.6 47.3001 284.5 47.3001 284.4 47.3001Z" fill="url(#paint3_linear_780_2709)"/>
<path d="M285.131 64.8724L57.729 140.961L153.681 427.727L381.083 351.638L285.131 64.8724Z" fill="#E5CFBD"/>
<path d="M75.5 149.8L221.4 101C250.1 115.3 266.1 123.3 294.8 137.6L363.5 342.8L162.5 410L75.5 149.8Z" fill="white"/>
<path d="M157.5 420.1L65.2998 144.7L281.4 72.4004L373.5 347.8L157.5 420.1ZM67.8998 146L158.8 417.6L371.1 346.6L280.1 75.0004L67.8998 146Z" fill="#DCC4AF"/>
<path d="M171.1 531.8C193.191 531.8 211.1 513.891 211.1 491.8C211.1 469.708 193.191 451.8 171.1 451.8C149.009 451.8 131.1 469.708 131.1 491.8C131.1 513.891 149.009 531.8 171.1 531.8Z" fill="#EFBC73"/>
<path d="M171.1 494.1C162 494.1 154.6 486.7 154.6 477.6V336.7C154.6 327.6 162 320.2 171.1 320.2C180.2 320.2 187.6 327.6 187.6 336.7V477.6C187.6 486.8 180.2 494.1 171.1 494.1Z" fill="#EFBC73"/>
<path d="M187.6 342.4H181V345.5H187.6V342.4Z" fill="#D87355"/>
<path d="M187.6 362.7H181V365.8H187.6V362.7Z" fill="#D87355"/>
<path d="M187.6 383.1H181V386.2H187.6V383.1Z" fill="#D87355"/>
<path d="M187.6 403.5H181V406.6H187.6V403.5Z" fill="#D87355"/>
<path d="M171.1 481.1C169.2 481.1 167.6 479.5 167.6 477.6V340.1C167.6 338.2 169.2 336.6 171.1 336.6C173 336.6 174.6 338.2 174.6 340.1V477.6C174.6 479.6 173 481.1 171.1 481.1Z" fill="white"/>
<path d="M171.1 481.1C169.2 481.1 167.6 479.5 167.6 477.6V386.2C167.6 384.3 169.2 382.7 171.1 382.7C173 382.7 174.6 384.3 174.6 386.2V477.6C174.6 479.6 173 481.1 171.1 481.1Z" fill="#D87355"/>
<path d="M171.1 508.2C180.158 508.2 187.5 500.858 187.5 491.8C187.5 482.743 180.158 475.4 171.1 475.4C162.043 475.4 154.7 482.743 154.7 491.8C154.7 500.858 162.043 508.2 171.1 508.2Z" fill="#D87355"/>
<path d="M93.7 389.7C94.4 390.1 96 390.8 97.7 390.8C100.8 390.8 101.8 388.8 101.8 387.3C101.8 384.8 99.5 383.7 97.2 383.7H95.8V381.9H97.2C99 381.9 101.2 381 101.2 378.9C101.2 377.5 100.3 376.2 98 376.2C96.6 376.2 95.2 376.8 94.4 377.4L93.8 375.6C94.7 374.9 96.6 374.2 98.5 374.2C102 374.2 103.6 376.3 103.6 378.5C103.6 380.4 102.5 381.9 100.3 382.7V382.8C102.5 383.2 104.3 384.9 104.3 387.4C104.3 390.3 102.1 392.8 97.7 392.8C95.7 392.8 93.9 392.2 93 391.6L93.7 389.7Z" fill="#D87355"/>
<path d="M119 374.5V376.1L111.2 392.5H108.7L116.5 376.6V376.5H107.7V374.5H119Z" fill="#D87355"/>
<path d="M121.7 391.1C121.7 390.1 122.4 389.4 123.4 389.4C124.4 389.4 125 390.1 125 391.1C125 392.1 124.4 392.8 123.3 392.8C122.4 392.8 121.7 392 121.7 391.1Z" fill="#D87355"/>
<path d="M134.8 392.5V387.6H126.4V386L134.4 374.5H137V385.7H139.5V387.6H137V392.5H134.8ZM134.8 385.7V379.7C134.8 378.8 134.8 377.8 134.9 376.9H134.8C134.2 378 133.8 378.7 133.3 379.6L128.9 385.7V385.8H134.8V385.7Z" fill="#D87355"/>
<path d="M146.8 382.4C144.2 382.4 142 380.2 142 377.6C142 375 144.2 372.8 146.8 372.8C149.4 372.8 151.6 375 151.6 377.6C151.6 380.2 149.4 382.4 146.8 382.4ZM146.8 374.8C145.3 374.8 144 376.1 144 377.6C144 379.1 145.3 380.4 146.8 380.4C148.3 380.4 149.6 379.1 149.6 377.6C149.6 376.1 148.3 374.8 146.8 374.8Z" fill="#D87355"/>
<path d="M108.8 323.3C122.883 323.3 134.3 311.883 134.3 297.8C134.3 283.717 122.883 272.3 108.8 272.3C94.7165 272.3 83.2998 283.717 83.2998 297.8C83.2998 311.883 94.7165 323.3 108.8 323.3Z" fill="#D87355"/>
<path d="M136 278.9C139.866 278.9 143 275.766 143 271.9C143 268.034 139.866 264.9 136 264.9C132.134 264.9 129 268.034 129 271.9C129 275.766 132.134 278.9 136 278.9Z" fill="#D87355"/>
<path d="M118.1 258.4C121.193 258.4 123.7 255.893 123.7 252.8C123.7 249.707 121.193 247.2 118.1 247.2C115.007 247.2 112.5 249.707 112.5 252.8C112.5 255.893 115.007 258.4 118.1 258.4Z" fill="#D87355"/>
<path d="M143.4 321.6C146.493 321.6 149 319.093 149 316C149 312.908 146.493 310.4 143.4 310.4C140.307 310.4 137.8 312.908 137.8 316C137.8 319.093 140.307 321.6 143.4 321.6Z" fill="#D87355"/>
<path d="M95.6999 257.6C98.3509 257.6 100.5 255.451 100.5 252.8C100.5 250.149 98.3509 248 95.6999 248C93.0489 248 90.8999 250.149 90.8999 252.8C90.8999 255.451 93.0489 257.6 95.6999 257.6Z" fill="#D87355"/>
<path d="M77.3 282.9C79.951 282.9 82.1 280.751 82.1 278.1C82.1 275.449 79.951 273.3 77.3 273.3C74.649 273.3 72.5 275.449 72.5 278.1C72.5 280.751 74.649 282.9 77.3 282.9Z" fill="#D87355"/>
<path d="M91.0002 332.9C93.6512 332.9 95.8002 330.751 95.8002 328.1C95.8002 325.449 93.6512 323.3 91.0002 323.3C88.3492 323.3 86.2002 325.449 86.2002 328.1C86.2002 330.751 88.3492 332.9 91.0002 332.9Z" fill="#D87355"/>
<path d="M70.5998 314.3C74.9076 314.3 78.3998 310.808 78.3998 306.5C78.3998 302.192 74.9076 298.7 70.5998 298.7C66.292 298.7 62.7998 302.192 62.7998 306.5C62.7998 310.808 66.292 314.3 70.5998 314.3Z" fill="#D87355"/>
<path d="M111.7 343.7C115.566 343.7 118.7 340.566 118.7 336.7C118.7 332.834 115.566 329.7 111.7 329.7C107.834 329.7 104.7 332.834 104.7 336.7C104.7 340.566 107.834 343.7 111.7 343.7Z" fill="#D87355"/>
<path d="M99.1999 299.4C94.3999 299.4 90.3999 295.5 90.3999 290.6C90.3999 285.7 94.2999 281.8 99.1999 281.8C104.1 281.8 108 285.7 108 290.6C108 295.5 104 299.4 99.1999 299.4ZM99.1999 283.9C95.4999 283.9 92.3999 286.9 92.3999 290.7C92.3999 294.5 95.3999 297.5 99.1999 297.5C102.9 297.5 106 294.5 106 290.7C106 286.9 102.9 283.9 99.1999 283.9Z" fill="#B16352"/>
<path d="M120 315.2C115.2 315.2 111.2 311.3 111.2 306.4C111.2 301.6 115.1 297.6 120 297.6C124.9 297.6 128.8 301.5 128.8 306.4C128.8 311.3 124.8 315.2 120 315.2ZM120 299.7C116.3 299.7 113.2 302.7 113.2 306.5C113.2 310.3 116.2 313.3 120 313.3C123.7 313.3 126.8 310.3 126.8 306.5C126.8 302.7 123.7 299.7 120 299.7Z" fill="#B16352"/>
<path d="M97.8999 315.1C94.5999 315.1 91.8999 312.4 91.8999 309.1C91.8999 305.8 94.5999 303.1 97.8999 303.1C101.2 303.1 103.9 305.8 103.9 309.1C104 312.4 101.2 315.1 97.8999 315.1ZM97.8999 305C95.6999 305 93.8999 306.8 93.8999 309C93.8999 311.2 95.6999 313 97.8999 313C100.1 313 101.9 311.2 101.9 309C102 306.8 100.1 305 97.8999 305Z" fill="#B16352"/>
<path d="M97.2062 256.093L95.2344 256.428L98.8189 277.526L100.791 277.191L97.2062 256.093Z" fill="#D87355"/>
<path d="M115.698 256.794L110.726 275.855L112.661 276.36L117.634 257.299L115.698 256.794Z" fill="#D87355"/>
<path d="M131.702 275.373L125.343 280.707L126.628 282.239L132.987 276.906L131.702 275.373Z" fill="#D87355"/>
<path d="M130.032 308.763L129.243 310.601L139.626 315.06L140.415 313.222L130.032 308.763Z" fill="#D87355"/>
<path d="M109.88 319.034L107.933 319.491L110.743 331.466L112.69 331.009L109.88 319.034Z" fill="#D87355"/>
<path d="M95.3585 317.785L91.9946 324.264L93.7696 325.185L97.1335 318.707L95.3585 317.785Z" fill="#D87355"/>
<path d="M86.1001 303.9H76.6001V305.9H86.1001V303.9Z" fill="#D87355"/>
<path d="M80.9604 278.042L79.856 279.709L87.526 284.789L88.6304 283.122L80.9604 278.042Z" fill="#D87355"/>
<path d="M379.2 118.7C388.754 118.7 396.5 110.954 396.5 101.4C396.5 91.8451 388.754 84.0996 379.2 84.0996C369.645 84.0996 361.9 91.8451 361.9 101.4C361.9 110.954 369.645 118.7 379.2 118.7Z" fill="#D87355"/>
<path d="M397.6 88.6002C400.196 88.6002 402.3 86.4959 402.3 83.9002C402.3 81.3045 400.196 79.2002 397.6 79.2002C395.004 79.2002 392.9 81.3045 392.9 83.9002C392.9 86.4959 395.004 88.6002 397.6 88.6002Z" fill="#D87355"/>
<path d="M385.5 74.6996C387.599 74.6996 389.3 72.9983 389.3 70.8996C389.3 68.8009 387.599 67.0996 385.5 67.0996C383.402 67.0996 381.7 68.8009 381.7 70.8996C381.7 72.9983 383.402 74.6996 385.5 74.6996Z" fill="#D87355"/>
<path d="M402.6 117.6C404.699 117.6 406.4 115.899 406.4 113.8C406.4 111.701 404.699 110 402.6 110C400.501 110 398.8 111.701 398.8 113.8C398.8 115.899 400.501 117.6 402.6 117.6Z" fill="#D87355"/>
<path d="M370.3 74.1002C372.067 74.1002 373.5 72.6675 373.5 70.9002C373.5 69.1329 372.067 67.7002 370.3 67.7002C368.533 67.7002 367.1 69.1329 367.1 70.9002C367.1 72.6675 368.533 74.1002 370.3 74.1002Z" fill="#D87355"/>
<path d="M357.8 91.3004C359.567 91.3004 361 89.8677 361 88.1004C361 86.3331 359.567 84.9004 357.8 84.9004C356.033 84.9004 354.6 86.3331 354.6 88.1004C354.6 89.8677 356.033 91.3004 357.8 91.3004Z" fill="#D87355"/>
<path d="M367 125.2C368.767 125.2 370.2 123.767 370.2 122C370.2 120.232 368.767 118.8 367 118.8C365.233 118.8 363.8 120.232 363.8 122C363.8 123.767 365.233 125.2 367 125.2Z" fill="#D87355"/>
<path d="M353.2 112.6C356.127 112.6 358.5 110.227 358.5 107.3C358.5 104.373 356.127 102 353.2 102C350.273 102 347.9 104.373 347.9 107.3C347.9 110.227 350.273 112.6 353.2 112.6Z" fill="#D87355"/>
<path d="M381.1 132.6C383.751 132.6 385.9 130.451 385.9 127.8C385.9 125.149 383.751 123 381.1 123C378.449 123 376.3 125.149 376.3 127.8C376.3 130.451 378.449 132.6 381.1 132.6Z" fill="#D87355"/>
<path d="M372.6 102.8C369.1 102.8 366.3 100 366.3 96.5002C366.3 93.0002 369.1 90.2002 372.6 90.2002C376.1 90.2002 378.9 93.0002 378.9 96.5002C378.9 100 376.1 102.8 372.6 102.8ZM372.6 92.3002C370.2 92.3002 368.3 94.2002 368.3 96.6002C368.3 99.0002 370.2 100.9 372.6 100.9C375 100.9 376.9 99.0002 376.9 96.6002C376.9 94.2002 375 92.3002 372.6 92.3002Z" fill="#B16352"/>
<path d="M386.7 113.6C383.2 113.6 380.4 110.8 380.4 107.3C380.4 103.8 383.2 101 386.7 101C390.2 101 393 103.8 393 107.3C393 110.7 390.2 113.6 386.7 113.6ZM386.7 103C384.3 103 382.4 104.9 382.4 107.3C382.4 109.7 384.3 111.6 386.7 111.6C389.1 111.6 391 109.7 391 107.3C391 104.9 389.1 103 386.7 103Z" fill="#B16352"/>
<path d="M371.8 113.5C369.4 113.5 367.4 111.5 367.4 109.1C367.4 106.7 369.4 104.7 371.8 104.7C374.2 104.7 376.2 106.7 376.2 109.1C376.2 111.5 374.2 113.5 371.8 113.5ZM371.8 106.6C370.5 106.6 369.4 107.7 369.4 109C369.4 110.3 370.5 111.4 371.8 111.4C373.1 111.4 374.2 110.3 374.2 109C374.2 107.7 373.1 106.6 371.8 106.6Z" fill="#B16352"/>
<path d="M371.577 73.04L369.605 73.375L372.034 87.6705L374.006 87.3355L371.577 73.04Z" fill="#D87355"/>
<path d="M383.455 73.4746L380.073 86.4404L382.008 86.9452L385.39 73.9794L383.455 73.4746Z" fill="#D87355"/>
<path d="M394.408 85.9747L390.117 89.5732L391.402 91.1056L395.693 87.5071L394.408 85.9747Z" fill="#D87355"/>
<path d="M393.654 108.498L392.865 110.336L399.848 113.334L400.637 111.496L393.654 108.498Z" fill="#D87355"/>
<path d="M380.141 115.807L378.193 116.264L380.112 124.442L382.059 123.985L380.141 115.807Z" fill="#D87355"/>
<path d="M369.732 114.87L367.474 119.219L369.249 120.14L371.507 115.792L369.732 114.87Z" fill="#D87355"/>
<path d="M363.8 105.2H357.3V107.2H363.8V105.2Z" fill="#D87355"/>
<path d="M360.452 87.7974L359.348 89.4648L364.6 92.9437L365.704 91.2763L360.452 87.7974Z" fill="#D87355"/>
<path d="M279.3 152.6L190.2 182.4L177.3 143.7L239.2 123L258.1 129.3L273.4 134.9L279.3 152.6Z" fill="#E6D0BE"/>
<path d="M294.8 137.6L239.8 157.6L221.4 101L294.8 137.6Z" fill="#F7F1EB"/>
<path d="M208.475 83.3296L130.051 109.57L141.6 144.088L220.025 117.848L208.475 83.3296Z" fill="#EFBC73"/>
<path d="M288.97 193.351L155.924 237.868L169.536 278.55L302.582 234.033L288.97 193.351Z" fill="#F7F1EB"/>
<path d="M306.395 245.367L173.349 289.884L198.32 364.515L331.367 319.998L306.395 245.367Z" fill="#F7F1EB"/>
<path d="M281.601 159.529L192.556 189.323L196.712 201.746L285.758 171.951L281.601 159.529Z" fill="#E6D0BE"/>
<path d="M138.3 258.8C142.166 258.8 145.3 255.666 145.3 251.8C145.3 247.934 142.166 244.8 138.3 244.8C134.434 244.8 131.3 247.934 131.3 251.8C131.3 255.666 134.434 258.8 138.3 258.8Z" fill="#F7F1EB"/>
<path d="M138.3 212.3C154.537 212.3 167.7 199.137 167.7 182.9C167.7 166.663 154.537 153.5 138.3 153.5C122.063 153.5 108.9 166.663 108.9 182.9C108.9 199.137 122.063 212.3 138.3 212.3Z" fill="#E6D0BE"/>
<path d="M155.9 312.6C160.153 312.6 163.6 309.153 163.6 304.9C163.6 300.648 160.153 297.2 155.9 297.2C151.648 297.2 148.2 300.648 148.2 304.9C148.2 309.153 151.648 312.6 155.9 312.6Z" fill="#F7F1EB"/>
<path d="M119.8 191.8L118.5 187.9C118 186.4 118.8 184.7 120.4 184.2L153.5 173.1C155 172.6 156.7 173.4 157.2 175L158.5 178.9C159 180.4 158.2 182.1 156.6 182.6L123.5 193.7C122 194.1 120.3 193.3 119.8 191.8Z" fill="white"/>
<path d="M146.9 202L143 203.3C141.5 203.8 139.8 203 139.3 201.4L128.2 168.3C127.7 166.8 128.5 165.1 130.1 164.6L134 163.3C135.5 162.8 137.2 163.6 137.7 165.2L148.8 198.3C149.3 199.8 148.5 201.5 146.9 202Z" fill="white"/>
<path d="M308.8 147.1C322.221 147.1 333.1 136.221 333.1 122.8C333.1 109.379 322.221 98.5 308.8 98.5C295.379 98.5 284.5 109.379 284.5 122.8C284.5 136.221 295.379 147.1 308.8 147.1Z" fill="#84524D"/>
<path d="M300.1 204.3V219.3H326V203L300.1 204.3Z" fill="#E2A18D"/>
<path d="M300.1 205.7C300.1 205.7 302.5 214.8 312.2 214.8H313.2C322.8 214.8 326 205 326 205L300.1 205.7Z" fill="#97756D"/>
<path d="M312.1 148.1C297.5 148.1 285.7 136.2 285.7 121.7C285.7 107.2 297.6 95.2998 312.1 95.2998C326.6 95.2998 338.5 107.2 338.5 121.7C338.5 136.2 326.6 148.1 312.1 148.1ZM312.1 97.1998C298.6 97.1998 287.7 108.2 287.7 121.6C287.7 135 298.7 146 312.1 146C325.6 146 336.5 135 336.5 121.6C336.5 108.2 325.5 97.1998 312.1 97.1998Z" fill="#84524D"/>
<path d="M320.4 155.3L329.4 162.3L332 189C332 189 328.9 212.2 313.3 212.2H312.1C296.5 212.2 293.4 189 293.4 189L296 162.2L305 155.2H320.4V155.3Z" fill="#E2A18D"/>
<path d="M314.7 145.8C299.1 145.8 286.4 133.1 286.4 117.5C286.4 101.9 299.1 89.2002 314.7 89.2002C330.3 89.2002 343 101.9 343 117.5C343 133.1 330.3 145.8 314.7 145.8ZM314.7 91.2002C300.2 91.2002 288.4 103 288.4 117.5C288.4 132 300.2 143.8 314.7 143.8C329.2 143.8 341 132 341 117.5C341 103 329.2 91.2002 314.7 91.2002Z" fill="#84524D"/>
<path d="M312.2 142.8C303 142.8 287.9 147.4 283.6 171C279.3 194.5 296.7 227.8 296.7 227.8C296.7 227.8 292.1 209 294.8 196.4C297.5 183.8 305.5 176.6 308 173.5C310.5 170.4 312.8 167.5 312.8 161.1H313.9C313.9 167.5 316.1 170.4 318.7 173.5C321.2 176.6 329.2 183.8 331.9 196.4C334.6 209 330 227.8 330 227.8C330 227.8 347.4 194.6 343.1 171C338.8 147.5 323.7 142.8 314.5 142.8H312.2Z" fill="#84524D"/>
<path d="M344.5 177.7L343.7 177.8C343.7 175.9 343.5 174.1 343.2 172.3C343.7 174 344.1 175.7 344.5 177.7Z" fill="#FF0000"/>
<path d="M325 189.2C320.4 189.2 317.1 185.3 316.9 185.2L318.4 183.9C318.4 183.9 321.3 187.2 325 187.2C328.7 187.2 331.5 183.9 331.6 183.9L333.1 185.2C332.9 185.3 329.6 189.2 325 189.2Z" fill="#97756D"/>
<path d="M300.4 189.2C295.8 189.2 292.5 185.3 292.3 185.2L293.8 183.9C293.8 183.9 296.7 187.2 300.4 187.2C304 187.2 306.9 183.9 307 183.9L308.5 185.2C308.4 185.3 305 189.2 300.4 189.2Z" fill="#97756D"/>
<path d="M313 202.4C308.3 202.4 306.4 199 306.3 198.8L308 197.8C308.1 197.9 309.5 200.3 313 200.3V202.4Z" fill="#97756D"/>
<path d="M315.3 196.2C314.7 196.2 314.1 195.9 313.6 195.5C311.9 193.7 312.1 188.5 312.2 187.5L314.2 187.6C314.1 189.8 314.2 193.2 315.1 194.1C315.2 194.2 315.3 194.2 315.3 194.2V196.2Z" fill="#97756D"/>
<path d="M261.8 349.4C261.8 349.4 248.7 369 242.5 408.8C236.3 448.6 238 511.4 238 511.4C238 511.4 257.2 518.6 273 521.2C288.8 523.9 312.1 523.7 312.1 523.7L318.7 444.9L319.5 444.8L332.5 523.7C332.5 523.7 357.2 522.8 372.8 519.1C388.4 515.4 405.8 508.4 405.8 508.4C405.8 508.4 404.4 447.2 391.5 407.1C379.1 368.8 365.9 346.9 365.9 346.9L261.8 349.4Z" fill="#363E44"/>
<path d="M391.4 407.2C369.1 402.9 352.2 383.3 352.2 359.7C352.2 355.4 352.8 351.2 353.8 347.2H355.9C354.8 351.2 354.2 355.4 354.2 359.8C354.2 382 369.9 400.6 390.7 405.1C390.9 405.7 391.2 406.5 391.4 407.2Z" fill="#3B4449"/>
<path d="M280.7 359.8C280.7 382.9 264.4 402.2 242.7 407C242.8 406.3 242.9 405.6 243.1 404.9C263.5 400.1 278.7 381.7 278.7 359.9C278.7 356.2 278.3 352.6 277.5 349.2H279.5C280.3 352.5 280.7 356.1 280.7 359.8Z" fill="#3B4449"/>
<path d="M343.7 177.8L341.6 178.2C337.1 153.9 321.1 151.3 314.5 151.3H312.3C305.6 151.3 289.6 153.9 285.2 178.2L283.1 177.8C283.1 175.9 283.3 174.1 283.6 172.3C290 150.1 307 148.3 312.4 148.3H314.6C320 148.3 337.1 150.1 343.4 172.3C343.5 174.1 343.6 175.9 343.7 177.8Z" fill="#63494A"/>
<path d="M300.4 216.9H293.9V231.5C293.9 231.5 262.1 243.7 251.3 247.2C240.5 250.8 238 250.6 227.5 256.9C217 263.3 214.3 263.5 200.6 270.7C187 278 182.3 298.6 189.4 312.6C196.5 326.6 218.1 325.2 229.2 319.4C240.3 313.6 247.7 310.5 247.7 310.5L248.4 350.9H377V301.8C377 301.8 389.9 292.4 405.1 282.4C420.3 272.3 438.8 259.4 445.9 255C453 250.5 458.5 246.5 459 236.9C459.5 227.3 456.6 216.2 453.2 213C449.9 209.8 391.6 224.4 380.9 226.8C370.2 229.3 329.9 235.2 329.9 235.2V216.7L300.4 216.9Z" fill="#8B865C"/>
<path d="M421.2 243.5C421.2 243.5 348.7 213.6 345.6 212.2C342.5 210.8 341.2 209.3 340.4 204.7C339.6 200.1 338.7 192.8 335.9 190C333.1 187.2 328.2 181.6 327 180.6C325.8 179.5 326.4 177.6 327 176.8C327.6 176 329.8 176.2 330.4 176.8C331 177.4 332.6 176.7 330.8 175.3C329 173.9 326 171.8 327 169.6C328.1 167.4 330.5 168.8 331.6 169.6C332.8 170.4 334.5 169.6 333.1 168.4C331.7 167.2 330.3 165.4 331.6 163.9C332.9 162.4 335.3 163.4 336.7 164.7C338.1 166 341.6 168.1 343 169.3C344.4 170.5 345.5 169.1 344.1 167.8C342.7 166.6 344 164.4 345.3 163.5C346.5 162.6 349.5 164.7 351.7 166.9C353.9 169.1 355.4 170.7 356.3 172C357.2 173.3 359.3 172.4 360 169.8C360.7 167.3 365.2 164.3 365.8 168.3C366.4 172.2 368 177.2 368 180.1C368 183 368.5 183.4 372.5 184.6C376.5 185.8 427 202.3 434.9 204.3C442.8 206.3 455.5 209.9 453.8 216.7C452.1 223.5 440.2 240.6 421.2 243.5Z" fill="#E2A18D"/>
<path d="M204.1 276.1C208.1 273.5 256.1 247.7 267.3 241.5C278.5 235.3 295.4 227.2 302.6 224.4C309.8 221.5 316.3 219.9 319 218.8C321.7 217.7 323.3 218.8 324 220.4C324.7 222 323.7 224.3 321.2 225.3C318.7 226.3 316.8 228.9 319.4 228.6C322 228.3 329.2 226.9 330 229.7C330.8 232.5 329.1 234.4 326.3 235.3C323.5 236.2 323.1 238.2 326.9 238.1C330.7 238 334.4 238.6 334.3 241.2C334.2 243.8 330.4 244.5 327.7 245.5C325 246.5 325 248.9 328.4 248.7C331.8 248.5 335 247.5 335.6 250.4C336.2 253.4 331.9 254.1 327 256.8C322.1 259.5 284.4 281.5 273.7 289.2C262.9 296.9 229.7 314.8 224.9 317C220.1 319.2 216.4 316.2 213.1 311.8C209.7 307.4 203.2 293.4 202.4 286.9C201.5 280.4 204.1 276.1 204.1 276.1Z" fill="#E2A18D"/>
<path d="M480.5 192.8C506.568 192.8 527.7 171.668 527.7 145.6C527.7 119.533 506.568 98.4004 480.5 98.4004C454.432 98.4004 433.3 119.533 433.3 145.6C433.3 171.668 454.432 192.8 480.5 192.8Z" fill="white"/>
<path d="M491.9 341.6C517.968 341.6 539.1 320.468 539.1 294.4C539.1 268.332 517.968 247.2 491.9 247.2C465.832 247.2 444.7 268.332 444.7 294.4C444.7 320.468 465.832 341.6 491.9 341.6Z" fill="white"/>
<path d="M524.5 162.7C517.6 180.3 500.5 192.8 480.5 192.8C463.8 192.8 449.2 184.2 440.8 171.1C443.5 168.7 449.1 164 453.9 161C460.5 156.8 465.8 152.3 465.8 152.3L470 149L485.6 143.6L487 143L490.8 149.5C490.8 149.5 496.3 148.7 502.4 150.5C508.5 152.3 516.5 155.3 524.5 162.7Z" fill="#8B865C"/>
<path d="M481.5 135.4L485.7 143.6L477.2 149H470.1L467.6 142.2L481.5 135.4Z" fill="#E2A18D"/>
<path d="M489.1 307.1V313.8H500.7V306.5L489.1 307.1Z" fill="#E2A18D"/>
<path d="M453.9 459.2C479.968 459.2 501.1 438.068 501.1 412C501.1 385.932 479.968 364.8 453.9 364.8C427.832 364.8 406.7 385.932 406.7 412C406.7 438.068 427.832 459.2 453.9 459.2Z" fill="white"/>
<path d="M481.6 136.5C481.6 136.5 481.3 143.1 471.1 147C467.9 148.2 465.2 143.6 465.2 143.6L481.6 136.5Z" fill="#97756D"/>
<path d="M532.7 318.2C524.5 332.2 509.3 341.6 492 341.6C479.3 341.6 467.8 336.6 459.4 328.5C461.9 325.9 463 323 466.7 321.8C471.5 320.2 486.4 322 486.4 322V312.7H489.3L502.5 312.6V321.9C502.5 321.9 520.2 320.2 525 319.1C527.5 318.5 530.3 318.2 532.7 318.2Z" fill="#8B865C"/>
<path d="M463 124.6C463 124.6 460.8 130.3 462.5 137.2C464.2 144.1 465.8 146.9 471 145.1C476.2 143.3 481.5 139.3 482.5 134.6C483.4 129.8 473 124.3 473 124.3L463 124.6Z" fill="#E2A18D"/>
<path d="M484.7 127C491.493 127 497 121.493 497 114.7C497 107.907 491.493 102.4 484.7 102.4C477.907 102.4 472.4 107.907 472.4 114.7C472.4 121.493 477.907 127 484.7 127Z" fill="#84524D"/>
<path d="M462.5 124.2C462.5 121.6 467.6 117.5 474.6 117.5C481.6 117.5 484.7 124.1 484.7 130C484.7 135.9 482.1 137.7 481.3 136.9C480.5 136.2 480.9 132.9 480.6 131.9C480 130 476.7 130.5 476.5 132.4C476.3 134.2 476.4 135.2 476.4 136.1C476.4 136.9 474.7 137 473.7 134.8C472.6 132.6 472.4 128.8 469.4 127.1C466.4 125.4 462.5 129.8 462.5 124.2Z" fill="#84524D"/>
<path d="M462.5 144.4L460.2 143.1L459.4 139.3H450.7L457.2 141.5L458.8 144.4H462.5Z" fill="#EAB3A2"/>
<path d="M460.3 148.7L458 147.4L457.2 143.7H448.5L455 145.9L456.7 148.7H460.3Z" fill="#EAB3A2"/>
<path d="M496 179.8C496 179.8 502.5 163.9 503.2 162C503.9 160.1 501.2 158.6 499 157.6C496.8 156.6 480.3 149.2 477.8 148C475.2 146.8 468.2 144.2 466.4 143.7C464.6 143.1 462.9 145 462.2 146.8C461.5 148.6 459.7 153.1 459.2 155.1C458.7 157.1 459.7 158.5 462.5 160.2C465.3 161.9 496 179.8 496 179.8Z" fill="#E2A18D"/>
<path d="M359.4 171.2C359.4 171.2 363.6 178.8 363.9 181.4C364.2 184 363.1 182.5 361 179.1C358.8 175.7 357.3 172.6 357.3 172.6L358.4 172.3L359.4 171.2Z" fill="#90726A"/>
<path d="M344.7 168.5C344.7 168.5 350.2 172.3 351.9 174.4C353.6 176.6 351.4 175.1 349.6 173.8C347.8 172.5 343.9 169.6 343.9 169.6L344.5 169.4L344.7 168.5Z" fill="#90726A"/>
<path d="M333.6 169.1C333.6 169.1 344 176.7 345.1 178.4C346.2 180.1 345 180.2 343.1 178.4C341.2 176.6 333.2 169.7 333.2 169.7L333.6 169.6V169.1Z" fill="#90726A"/>
<path d="M331.4 176.1C331.4 176.1 339.3 182.1 340.8 184.5C342.3 186.8 341.2 186 339.3 184.2C337.4 182.4 331 177 331 177L331.3 176.6L331.4 176.1Z" fill="#90726A"/>
<path d="M318.6 226.8C318.6 226.8 304.2 230.5 301.6 232.3C299 234.1 299.3 234.9 303.1 233.4C306.9 231.9 318.6 228.7 318.6 228.7L318.3 227.8L318.6 226.8Z" fill="#90726A"/>
<path d="M324.7 236.1C324.7 236.1 312.6 238.7 309.4 240.7C306.2 242.8 307.3 243.7 310.8 242.2C314.2 240.7 324.7 237.9 324.7 237.9L324.1 237.1L324.7 236.1Z" fill="#90726A"/>
<path d="M326.2 246.5C326.2 246.5 317.6 248.7 315.9 251.2C314.2 253.7 317.7 253.1 321.1 251.4C324.5 249.7 326.3 248.4 326.3 248.4L325.9 247.6L326.2 246.5Z" fill="#90726A"/>
<path d="M500.4 283.2C506.42 283.2 511.3 278.32 511.3 272.3C511.3 266.28 506.42 261.4 500.4 261.4C494.38 261.4 489.5 266.28 489.5 272.3C489.5 278.32 494.38 283.2 500.4 283.2Z" fill="#84524D"/>
<path d="M501.9 284.2C495.1 284.2 489.5 278.6 489.5 271.8C489.5 265 495.1 259.4 501.9 259.4C508.7 259.4 514.3 265 514.3 271.8C514.3 278.6 508.7 284.2 501.9 284.2ZM501.9 261.4C496.2 261.4 491.5 266.1 491.5 271.8C491.5 277.5 496.2 282.2 501.9 282.2C507.6 282.2 512.3 277.5 512.3 271.8C512.3 266.1 507.6 261.4 501.9 261.4Z" fill="#84524D"/>
<path d="M489.1 307.7C489.1 307.7 490.4 311.8 494.7 311.8H495.1C499.4 311.8 500.7 307.7 500.7 307.7H489.1Z" fill="#97756D"/>
<path d="M538.1 304.3C536.9 309.9 534.7 315.1 531.8 319.7C527.8 318 516.2 313.3 512.8 311.7C508.6 309.8 503.9 305.2 500.9 302.9C497.9 300.6 499.1 296.6 500.9 294.4C502.7 292.2 505.7 289.8 507.9 287.9C510.1 286 514.8 291.6 515.7 292.8C516.6 293.9 516.6 292.3 518 290.5C519.4 288.7 520.8 290.2 521 292.5C521.1 294.8 520.1 296.3 522.1 297.3C523.8 298.1 532.2 302.3 538.1 304.3Z" fill="#E2A18D"/>
<path d="M503.1 283.2C495.8 283.2 489.9 277.3 489.9 270C489.9 262.7 495.8 256.8 503.1 256.8C510.4 256.8 516.3 262.7 516.3 270C516.3 277.3 510.4 283.2 503.1 283.2ZM503.1 258.7C496.9 258.7 491.9 263.7 491.9 269.9C491.9 276.1 496.9 281.1 503.1 281.1C509.3 281.1 514.3 276.1 514.3 269.9C514.3 263.7 509.3 258.7 503.1 258.7Z" fill="#84524D"/>
<path d="M489.3 300.8C487.7 302.1 469.1 324.6 463.2 331.8C458.4 328.1 454.4 323.6 451.3 318.4C456.2 313.6 464.9 305.3 466.9 303.7C469.8 301.5 468.8 301.2 467.8 299.5C466.8 297.9 466 296.1 467.8 295.2C469.6 294.4 472.1 296.2 472 293.5C471.9 290.8 472.7 291.1 474.7 288.9C476.7 286.7 480 285.5 481.8 287.1C483.6 288.7 485.4 291.1 487.4 293.4C489.2 295.8 491.2 299.3 489.3 300.8Z" fill="#E2A18D"/>
<path d="M498.2 285.1L502.2 288.2L503.3 300.2C503.3 300.2 501.9 310.6 494.9 310.6H494.3C487.3 310.6 485.9 300.2 485.9 300.2L487 288.2L491 285.1H498.2Z" fill="#E2A18D"/>
<path d="M494.6 279.5C490.5 279.5 483.7 281.6 481.8 292.1C479.9 302.6 487.7 317.5 487.7 317.5C487.7 317.5 485.6 309.1 486.8 303.5C488 297.9 491.6 294.6 492.7 293.2C493.8 291.8 494.8 290.5 494.8 287.7H495.3C495.3 290.6 496.3 291.9 497.4 293.2C498.5 294.6 502.1 297.8 503.3 303.5C504.5 309.1 502.4 317.5 502.4 317.5C502.4 317.5 510.2 302.6 508.3 292.1C506.4 281.6 499.6 279.5 495.5 279.5H494.6Z" fill="#84524D"/>
<path d="M507.6 294.4C505.3 284.3 498.4 283.2 495.5 283.2H494.5C491.6 283.2 484.6 284.3 482.4 294.4L481.4 294.2C483.9 283.1 492 282.2 494.5 282.2H495.5C498 282.2 506.1 283.1 508.6 294.2L507.6 294.4Z" fill="#63494A"/>
<path d="M500.3 300.3C498.2 300.3 496.7 298.5 496.6 298.5L497.4 297.8C497.4 297.8 498.7 299.3 500.3 299.3C501.9 299.3 503.2 297.8 503.2 297.8L504 298.5C503.9 298.6 502.3 300.3 500.3 300.3Z" fill="#97756D"/>
<path d="M489.3 300.3C487.2 300.3 485.7 298.5 485.6 298.5L486.4 297.8C486.4 297.8 487.7 299.3 489.3 299.3C490.9 299.3 492.2 297.8 492.2 297.8L493 298.5C492.9 298.6 491.3 300.3 489.3 300.3Z" fill="#97756D"/>
<path d="M494.9 306.3C492.8 306.3 491.9 304.8 491.8 304.7L492.7 304.2C492.7 304.2 493.4 305.3 494.9 305.3V306.3Z" fill="#97756D"/>
<path d="M495.9 303.5C495.6 303.5 495.3 303.4 495.1 303.1C494.3 302.3 494.4 299.9 494.5 299.5L495.5 299.6C495.4 300.5 495.5 302.1 495.9 302.5V303.5Z" fill="#97756D"/>
<path d="M476.5 264.5V256.7L464.2 247.2L479.6 253.5L479.2 261.4L485.4 265.8L476.5 264.5Z" fill="#D8775A"/>
<path d="M487.1 255.8L488.2 244.4H478.2L476.2 232.6L481 240.9L493.5 241.2L487.1 255.8Z" fill="#D8775A"/>
<path d="M501.2 252.7L503.1 246.6H508.6L503.4 236.6L514 225.1L508.3 236.9L512.5 248.5L505 249.2L501.2 252.7Z" fill="#D8775A"/>
<path d="M460.9 389.6C467.472 389.6 472.8 384.272 472.8 377.7C472.8 371.128 467.472 365.8 460.9 365.8C454.328 365.8 449 371.128 449 377.7C449 384.272 454.328 389.6 460.9 389.6Z" fill="#84524D"/>
<path d="M440.5 394.5C440.5 394.5 439 400.3 442 405.8C445 411.3 447.4 414.3 451.5 413.4C455.6 412.5 461.7 405.5 461.9 401.4C462.1 397.3 456.4 390.8 456.4 390.8L444.5 390.4L440.5 394.5Z" fill="#E2A18D"/>
<path d="M452.1 412.2V418.5L463.5 415L459.8 405.3L452.1 412.2Z" fill="#E2A18D"/>
<path d="M462.8 396.2C463.4 392.2 460.2 384.5 452.1 384.5C444 384.5 440 391.6 440.3 395.2C440.5 398 443.1 394.2 444.6 392.6C446.2 390.8 450.1 391.1 450.5 393C450.9 394.8 454 396.4 454.7 398.7C455.3 401 457.7 404.1 457.8 401.7C457.9 399.3 461 394.8 461.3 398.1C461.6 401.4 461.2 407.4 462.8 396.2Z" fill="#84524D"/>
<path d="M499.9 422.5C495.1 443.5 476.4 459.2 453.9 459.2C440.7 459.2 428.7 453.7 420.1 444.9C427.8 435.3 441.4 424.6 444.8 422.9C448.5 421 451.5 421.3 451.5 421.3V418L464.3 411.2L466.5 415C466.5 415 482.3 414.2 492.7 418.9C495.6 420.1 498 421.4 499.9 422.5Z" fill="#8B865C"/>
<path d="M444.274 415.857L442.674 417.057L450.771 427.859L452.372 426.66L444.274 415.857Z" fill="#656753"/>
<path d="M437.318 421.653L436.316 423.385L447.397 429.792L448.399 428.061L437.318 421.653Z" fill="#656753"/>
<path d="M434.797 428.46L434.186 430.364L445.612 434.031L446.223 432.127L434.797 428.46Z" fill="#656753"/>
<path d="M166.4 119.7C149.3 119.7 135.3 105.7 135.3 88.6C135.3 71.5 149.3 57.5 166.4 57.5C183.5 57.5 197.5 71.5 197.5 88.6C197.5 105.7 183.5 119.7 166.4 119.7ZM166.4 59.5C150.4 59.5 137.3 72.6 137.3 88.6C137.3 104.6 150.4 117.7 166.4 117.7C182.4 117.7 195.5 104.6 195.5 88.6C195.5 72.6 182.4 59.5 166.4 59.5Z" fill="#E7B36B"/>
<path d="M166.4 112.2C153.4 112.2 142.8 101.6 142.8 88.6C142.8 75.6 153.4 65 166.4 65C179.4 65 190 75.6 190 88.6C190 101.6 179.4 112.2 166.4 112.2ZM166.4 67C154.5 67 144.8 76.7 144.8 88.6C144.8 100.5 154.5 110.2 166.4 110.2C178.3 110.2 188 100.5 188 88.6C188 76.7 178.3 67 166.4 67Z" fill="#E7B36B"/>
<path d="M484 179.3C483.1 182.9 481.9 183.6 478.1 186.5C476 188.1 473.1 190.2 470.8 191.8C463.3 190.2 456.4 186.9 450.7 182.2C454.6 179.8 467.2 172.2 469.6 170.9C472.4 169.4 477.3 169.8 479.8 171.8C482.5 173.8 484.9 175.7 484 179.3Z" fill="#E2A18D"/>
<path d="M462.8 441.8C462.2 444.6 452.8 452.9 446.1 458.5C439 457.3 432.5 454.6 426.9 450.7C431.5 446.9 440.2 439.9 444.7 437.1C451 433.2 454.3 431.1 457.1 433C459.9 434.8 463.8 437.5 462.8 441.8Z" fill="#E2A18D"/>
<path d="M498.1 428.5C496 434.2 492.7 439.4 488.7 443.9C484.9 442.2 479.4 439.9 475.1 438.7C467.7 436.6 461 436.5 461 430.9C461 425.2 461.3 420.3 468.4 420.4C473.6 420.3 490 425.7 498.1 428.5Z" fill="#E2A18D"/>
<defs>
<linearGradient id="paint0_linear_780_2709" x1="133.3" y1="438.52" x2="496.216" y2="173.896" gradientUnits="userSpaceOnUse">
<stop stop-color="white" stop-opacity="0.1"/>
<stop offset="1" stop-color="white" stop-opacity="0.5"/>
</linearGradient>
<linearGradient id="paint1_linear_780_2709" x1="141.739" y1="156.489" x2="435.538" y2="434.638" gradientUnits="userSpaceOnUse">
<stop stop-color="white" stop-opacity="0.5"/>
<stop offset="1" stop-color="white" stop-opacity="0.2"/>
</linearGradient>
<linearGradient id="paint2_linear_780_2709" x1="404.434" y1="303.398" x2="243.131" y2="514.004" gradientUnits="userSpaceOnUse">
<stop stop-color="white" stop-opacity="0.1"/>
<stop offset="1" stop-color="white" stop-opacity="0.5"/>
</linearGradient>
<linearGradient id="paint3_linear_780_2709" x1="75.6633" y1="421.063" x2="564.72" y2="167.753" gradientUnits="userSpaceOnUse">
<stop stop-color="white" stop-opacity="0.7"/>
<stop offset="1" stop-color="white"/>
</linearGradient>
</defs>
</svg>
