<svg width="621" height="599" viewBox="0 0 621 599" fill="none" xmlns="http://www.w3.org/2000/svg">
<path d="M307.5 543C245.4 543 187 518.9 143.1 475.2C99.2 431.5 75 373.3 75 311.5C75 249.6 99.2 191.5 143.1 147.8C187 104.1 245.4 80 307.5 80C369.6 80 428 104.1 471.9 147.8C515.8 191.5 540 249.7 540 311.5C540 373.3 515.8 431.5 471.9 475.2C428 518.9 369.6 543 307.5 543ZM307.5 112C196.9 112 107 201.5 107 311.5C107 421.5 196.9 511 307.5 511C418.1 511 508 421.5 508 311.5C508 201.5 418.1 112 307.5 112Z" fill="url(#paint0_linear_615_516)"/>
<path d="M306 472C394.366 472 466 400.366 466 312C466 223.634 394.366 152 306 152C217.634 152 146 223.634 146 312C146 400.366 217.634 472 306 472Z" fill="url(#paint1_linear_615_516)"/>
<path d="M327 517C221.6 517 139 467.6 139 404.5C139 341.4 221.6 292 327 292C432.4 292 515 341.4 515 404.5C515 467.6 432.4 517 327 517ZM327 328C284.6 328 245 337 215.5 353.4C189.7 367.7 175 386.3 175 404.5C175 422.6 189.8 441.3 215.5 455.6C245 472 284.6 481 327 481C369.4 481 409 472 438.5 455.6C464.3 441.3 479 422.7 479 404.5C479 386.4 464.2 367.7 438.5 353.4C409 337 369.4 328 327 328Z" fill="url(#paint2_linear_615_516)"/>
<path d="M320.1 560.4C317.9 560.4 316.1 558.7 316.1 556.5C316.1 554.3 317.8 552.5 320 552.4C325.6 552.3 331.2 552 336.7 551.6C338.9 551.4 340.8 553.1 341 555.3C341.2 557.5 339.5 559.4 337.3 559.6C331.6 560 325.8 560.3 320.1 560.4ZM301.1 560.1C301 560.1 301 560.1 300.9 560.1C295.2 559.8 289.4 559.3 283.7 558.7C281.5 558.5 279.9 556.5 280.2 554.3C280.4 552.1 282.4 550.5 284.6 550.8C290.1 551.4 295.8 551.9 301.3 552.2C303.5 552.3 305.2 554.2 305.1 556.4C305 558.4 303.2 560.1 301.1 560.1ZM355.9 557.5C353.9 557.5 352.2 556.1 351.9 554.1C351.6 551.9 353.1 549.9 355.3 549.6C360.8 548.8 366.3 547.8 371.8 546.7C374 546.2 376.1 547.6 376.5 549.8C376.9 552 375.6 554.1 373.4 554.5C367.8 555.7 362.1 556.7 356.4 557.5C356.3 557.5 356.1 557.5 355.9 557.5ZM265.3 556C265.1 556 264.8 556 264.6 555.9C259 554.9 253.3 553.7 247.7 552.4C245.6 551.9 244.2 549.7 244.7 547.6C245.2 545.5 247.4 544.1 249.5 544.6C254.9 545.9 260.4 547 265.9 548C268.1 548.4 269.5 550.5 269.1 552.6C268.9 554.6 267.2 556 265.3 556ZM391.1 550C389.4 550 387.8 548.8 387.3 547.1C386.7 545 387.9 542.8 390.1 542.2C395.4 540.7 400.8 539 406 537.2C408.1 536.5 410.4 537.6 411.1 539.7C411.8 541.8 410.7 544.1 408.6 544.8C403.2 546.7 397.7 548.4 392.2 550C391.8 550 391.4 550 391.1 550ZM230.4 547.5C230 547.5 229.6 547.4 229.2 547.3C223.7 545.6 218.3 543.7 212.9 541.7C210.8 540.9 209.8 538.6 210.6 536.5C211.4 534.4 213.7 533.4 215.8 534.2C221 536.2 226.3 538 231.6 539.7C233.7 540.4 234.9 542.6 234.2 544.7C233.7 546.4 232.1 547.5 230.4 547.5ZM424.9 538C423.4 538 421.9 537.1 421.2 535.6C420.3 533.6 421.3 531.2 423.3 530.3C428.4 528.1 433.5 525.7 438.4 523.2C440.4 522.2 442.8 523 443.8 525C444.8 527 444 529.4 442 530.4C436.9 533 431.7 535.4 426.4 537.7C426 537.9 425.5 538 424.9 538ZM196.8 534.6C196.2 534.6 195.7 534.5 195.1 534.2C189.9 531.8 184.7 529.2 179.7 526.5C177.8 525.5 177 523 178.1 521.1C179.1 519.2 181.6 518.4 183.5 519.5C188.4 522.1 193.5 524.6 198.5 526.9C200.5 527.8 201.4 530.2 200.5 532.2C199.8 533.7 198.3 534.6 196.8 534.6ZM456.9 521.6C455.5 521.6 454.2 520.9 453.5 519.7C452.4 517.8 453 515.3 454.9 514.2C459.7 511.3 464.4 508.3 469 505.1C470.8 503.8 473.3 504.3 474.6 506.1C475.9 507.9 475.4 510.4 473.6 511.7C468.9 514.9 464 518.1 459.1 521C458.3 521.4 457.6 521.6 456.9 521.6ZM165.1 517.5C164.4 517.5 163.6 517.3 163 516.9C158.1 513.9 153.3 510.6 148.7 507.3C146.9 506 146.5 503.5 147.8 501.7C149.1 499.9 151.6 499.5 153.4 500.8C157.9 504 162.6 507.2 167.3 510.1C169.2 511.3 169.7 513.7 168.6 515.6C167.8 516.9 166.5 517.5 165.1 517.5ZM486.4 501C485.2 501 484.1 500.5 483.3 499.5C481.9 497.8 482.2 495.3 483.9 493.9C488.2 490.4 492.5 486.7 496.6 483C498.2 481.5 500.8 481.6 502.3 483.2C503.8 484.8 503.7 487.4 502.1 488.9C497.9 492.8 493.5 496.5 489 500.1C488.2 500.8 487.3 501 486.4 501ZM135.9 496.4C135 496.4 134.1 496.1 133.4 495.5C129 491.8 124.6 488 120.4 484.1C118.8 482.6 118.7 480.1 120.2 478.4C121.7 476.8 124.2 476.7 125.9 478.2C130 482 134.2 485.7 138.5 489.3C140.2 490.7 140.4 493.2 139 494.9C138.2 495.9 137.1 496.4 135.9 496.4ZM512.8 476.6C511.8 476.6 510.8 476.2 510.1 475.5C508.5 474 508.4 471.5 509.9 469.8C513.7 465.7 517.4 461.5 520.9 457.2C522.3 455.5 524.8 455.2 526.5 456.6C528.2 458 528.5 460.5 527.1 462.2C523.5 466.6 519.6 471 515.7 475.2C515 476.2 513.9 476.6 512.8 476.6ZM109.8 471.7C108.7 471.7 107.7 471.3 106.9 470.4C103 466.2 99.1998 461.8 95.5998 457.4C94.1998 455.7 94.4998 453.2 96.1998 451.8C97.8998 450.4 100.4 450.7 101.8 452.4C105.3 456.7 109 461 112.8 465C114.3 466.6 114.2 469.2 112.6 470.7C111.7 471.4 110.8 471.7 109.8 471.7ZM535.5 448.7C534.7 448.7 533.9 448.5 533.2 448C531.4 446.7 531 444.2 532.2 442.4C535.4 437.8 538.5 433.1 541.3 428.4C542.4 426.5 544.9 425.9 546.8 427C548.7 428.1 549.3 430.6 548.2 432.5C545.2 437.4 542.1 442.3 538.8 447C538 448.1 536.8 448.7 535.5 448.7ZM87.1998 443.7C85.8998 443.7 84.6998 443.1 83.8998 442C80.5998 437.3 77.3998 432.4 74.3998 427.6C73.1998 425.7 73.7998 423.3 75.6998 422.1C77.5998 420.9 79.9998 421.5 81.1998 423.4C84.0998 428.1 87.1998 432.8 90.3998 437.4C91.6998 439.2 91.1998 441.7 89.3998 443C88.7998 443.5 87.9998 443.7 87.1998 443.7ZM554 417.9C553.4 417.9 552.8 417.8 552.2 417.5C550.2 416.5 549.4 414.1 550.4 412.1C552.9 407.1 555.2 402 557.4 396.9C558.3 394.9 560.6 393.9 562.6 394.8C564.6 395.7 565.6 398 564.7 400C562.5 405.3 560.1 410.6 557.5 415.7C556.9 417.1 555.5 417.9 554 417.9ZM68.5998 412.9C67.0998 412.9 65.6998 412.1 64.9998 410.7C62.3998 405.6 59.8998 400.3 57.5998 395.1C56.6998 393.1 57.6998 390.7 59.6998 389.8C61.6998 388.9 64.0998 389.9 64.9998 391.9C67.1998 397 69.5998 402.1 72.0998 407C73.0998 409 72.2998 411.4 70.3998 412.4C69.7998 412.8 69.1998 412.9 68.5998 412.9ZM567.7 384.6C567.3 384.6 566.9 384.5 566.4 384.4C564.3 383.7 563.2 381.4 563.9 379.4C565.6 374.1 567.2 368.7 568.6 363.4C569.1 361.3 571.3 360 573.5 360.5C575.6 361 576.9 363.2 576.4 365.4C575 371 573.4 376.5 571.6 382C571 383.5 569.4 384.6 567.7 384.6ZM54.3998 379.9C52.6998 379.9 51.1998 378.9 50.5998 377.2C48.6998 371.8 46.9998 366.2 45.4998 360.7C44.8998 358.6 46.1998 356.4 48.2998 355.8C50.3998 355.2 52.5998 356.5 53.1998 358.6C54.6998 363.9 56.2998 369.3 58.0998 374.6C58.7998 376.7 57.6998 379 55.5998 379.7C55.2998 379.8 54.8998 379.9 54.3998 379.9ZM576.5 349.7C576.3 349.7 576 349.7 575.8 349.6C573.6 349.2 572.2 347.2 572.5 345C573.5 339.5 574.2 334 574.8 328.4C575 326.2 577 324.6 579.2 324.8C581.4 325 583 327 582.8 329.2C582.2 334.9 581.4 340.7 580.4 346.3C580.1 348.4 578.4 349.7 576.5 349.7ZM45.0998 345.1C43.1998 345.1 41.4998 343.8 41.1998 341.8C40.0998 336.2 39.1998 330.4 38.5998 324.8C38.2998 322.6 39.8998 320.6 42.0998 320.4C44.2998 320.1 46.2998 321.7 46.4998 323.9C47.1998 329.4 47.9998 334.9 49.0998 340.4C49.4998 342.6 48.0998 344.7 45.8998 345.1C45.5998 345.1 45.3998 345.1 45.0998 345.1ZM580 313.9C577.7 313.8 575.9 312 576 309.8C576.1 307.8 576.1 305.7 576.1 303.6C576.1 300.1 576 296.5 575.9 293C575.8 290.8 577.5 288.9 579.7 288.8C581.9 288.7 583.8 290.4 583.9 292.6C584.1 296.2 584.1 299.9 584.1 303.5C584.1 305.6 584.1 307.8 584 309.9C583.9 312.2 582.2 313.9 580 313.9ZM40.9998 309.4C38.8998 309.4 37.0998 307.7 36.9998 305.6C36.8998 302.2 36.7998 298.7 36.7998 295.3C36.7998 293 36.7998 290.7 36.8998 288.4C36.9998 286.2 38.7998 284.5 40.9998 284.5C43.1998 284.6 44.8998 286.4 44.8998 288.6C44.7998 290.8 44.7998 293.1 44.7998 295.3C44.7998 298.6 44.8998 302 44.9998 305.3C45.0998 307.5 43.3998 309.4 41.1998 309.5C41.0998 309.4 41.0998 309.4 40.9998 309.4ZM578.3 278C576.3 278 574.6 276.5 574.3 274.5C573.6 269 572.8 263.4 571.7 258C571.3 255.8 572.7 253.7 574.9 253.3C577.1 252.9 579.2 254.3 579.6 256.5C580.7 262.1 581.6 267.9 582.3 273.5C582.6 275.7 581 277.7 578.8 278C578.6 278 578.4 278 578.3 278ZM42.1998 273.5C42.0998 273.5 41.8998 273.5 41.7998 273.5C39.5998 273.3 37.9998 271.3 38.1998 269.1C38.7998 263.4 39.5998 257.7 40.5998 252C40.9998 249.8 43.0998 248.4 45.1998 248.8C47.3998 249.2 48.7998 251.3 48.3998 253.4C47.3998 258.9 46.5998 264.5 46.0998 270C45.8998 272 44.1998 273.5 42.1998 273.5ZM571.3 242.8C569.5 242.8 567.9 241.6 567.4 239.9C565.9 234.6 564.3 229.2 562.4 223.9C561.7 221.8 562.8 219.5 564.9 218.8C567 218.1 569.3 219.2 570 221.3C571.9 226.7 573.6 232.3 575.1 237.8C575.7 239.9 574.4 242.1 572.3 242.7C572 242.7 571.7 242.8 571.3 242.8ZM48.4998 238.1C48.1998 238.1 47.7998 238.1 47.4998 238C45.3998 237.5 44.0998 235.3 44.5998 233.1C45.9998 227.5 47.6998 222 49.4998 216.5C50.1998 214.4 52.4998 213.3 54.5998 214C56.6998 214.7 57.7998 217 57.0998 219.1C55.3998 224.4 53.7998 229.8 52.3998 235.1C51.8998 236.9 50.2998 238.1 48.4998 238.1ZM559.4 208.9C557.9 208.9 556.4 208 555.7 206.5C553.5 201.4 551.1 196.3 548.5 191.4C547.5 189.4 548.3 187 550.2 186C552.2 185 554.6 185.8 555.6 187.7C558.2 192.8 560.7 198 563 203.3C563.9 205.3 563 207.7 560.9 208.6C560.4 208.8 559.9 208.9 559.4 208.9ZM59.9998 204C59.4998 204 58.9998 203.9 58.4998 203.7C56.4998 202.8 55.4998 200.5 56.3998 198.5C58.5998 193.2 61.0998 187.9 63.6998 182.8C64.6998 180.8 67.0998 180 69.0998 181C71.0998 182 71.8998 184.4 70.8998 186.4C68.3998 191.4 65.9998 196.5 63.8998 201.6C62.9998 203.1 61.5998 204 59.9998 204ZM542.7 177C541.4 177 540 176.3 539.3 175.1C536.4 170.4 533.3 165.7 530.1 161.1C528.8 159.3 529.3 156.8 531.1 155.5C532.9 154.2 535.4 154.7 536.7 156.5C540 161.2 543.2 166 546.2 170.9C547.4 172.8 546.8 175.2 544.9 176.4C544.2 176.8 543.4 177 542.7 177ZM76.3998 172C75.6998 172 74.9998 171.8 74.2998 171.4C72.3998 170.3 71.7998 167.8 72.9998 165.9C75.9998 161 79.1998 156.1 82.4998 151.4C83.7998 149.6 86.2998 149.2 88.0998 150.4C89.8998 151.7 90.2998 154.2 89.0998 156C85.8998 160.5 82.7998 165.3 79.8998 170C78.9998 171.3 77.6998 172 76.3998 172ZM521.9 147.6C520.7 147.6 519.6 147.1 518.8 146.1C515.3 141.8 511.6 137.6 507.8 133.5C506.3 131.9 506.4 129.4 508 127.8C509.6 126.2 512.1 126.4 513.7 128C517.6 132.2 521.4 136.6 525.1 141C526.5 142.7 526.2 145.2 524.5 146.6C523.7 147.3 522.8 147.6 521.9 147.6ZM97.1998 142.7C96.2998 142.7 95.3998 142.4 94.6998 141.8C92.9998 140.4 92.7998 137.9 94.1998 136.2C97.7998 131.8 101.7 127.4 105.6 123.3C107.1 121.7 109.6 121.6 111.3 123.1C112.9 124.6 113 127.1 111.5 128.8C107.7 132.8 104 137.1 100.4 141.3C99.4998 142.2 98.2998 142.7 97.1998 142.7ZM497.3 121.4C496.3 121.4 495.3 121 494.6 120.3C490.5 116.5 486.3 112.8 482 109.2C480.3 107.8 480.1 105.3 481.5 103.6C482.9 101.9 485.4 101.7 487.1 103.1C491.5 106.7 495.9 110.6 500.1 114.5C501.7 116 501.8 118.5 500.3 120.2C499.4 121 498.3 121.4 497.3 121.4ZM122 116.6C120.9 116.6 119.8 116.2 119 115.3C117.5 113.7 117.6 111.1 119.3 109.6C123.5 105.7 127.9 102 132.4 98.4001C134.1 97.0001 136.6 97.3001 138 99.0001C139.4 100.7 139.1 103.2 137.4 104.6C133.1 108.1 128.8 111.7 124.7 115.5C123.9 116.3 123 116.6 122 116.6ZM469.4 98.6001C468.6 98.6001 467.8 98.4001 467.1 97.9001C462.6 94.7001 457.9 91.5001 453.2 88.6001C451.3 87.4001 450.8 85.0001 451.9 83.1001C453.1 81.2001 455.5 80.7001 457.4 81.8001C462.3 84.8001 467.1 88.1001 471.8 91.4001C473.6 92.7001 474 95.2001 472.7 97.0001C471.9 98.0001 470.6 98.6001 469.4 98.6001ZM150.2 94.3001C148.9 94.3001 147.7 93.7001 146.9 92.6001C145.6 90.8001 146.1 88.3001 147.9 87.0001C152.6 83.8001 157.5 80.6001 162.4 77.7001C164.3 76.6001 166.8 77.2001 167.9 79.1001C169 81.0001 168.4 83.5001 166.5 84.6001C161.7 87.5001 157 90.5001 152.4 93.6001C151.7 94.0001 150.9 94.3001 150.2 94.3001ZM438.8 79.7001C438.2 79.7001 437.5 79.5001 436.9 79.2001C432 76.6001 426.9 74.1001 421.9 71.8001C419.9 70.9001 419 68.5001 419.9 66.5001C420.8 64.5001 423.2 63.6001 425.2 64.5001C430.4 66.9001 435.6 69.4001 440.7 72.1001C442.6 73.1001 443.4 75.6001 442.4 77.5001C441.6 78.9001 440.2 79.7001 438.8 79.7001ZM181.1 75.9001C179.6 75.9001 178.2 75.1001 177.5 73.7001C176.5 71.7001 177.3 69.3001 179.3 68.3001C184.4 65.7001 189.7 63.3001 194.9 61.0001C196.9 60.1001 199.3 61.1001 200.2 63.1001C201.1 65.1001 200.1 67.5001 198.1 68.4001C193 70.6001 187.9 73.0001 182.9 75.5001C182.3 75.8001 181.7 75.9001 181.1 75.9001ZM406 64.8001C405.5 64.8001 405.1 64.7001 404.6 64.5001C399.4 62.5001 394.1 60.7001 388.8 59.1001C386.7 58.4001 385.5 56.2001 386.2 54.1001C386.9 52.0001 389.1 50.8001 391.2 51.5001C396.7 53.2001 402.2 55.1001 407.5 57.1001C409.6 57.9001 410.6 60.2001 409.8 62.3001C409.2 63.9001 407.6 64.8001 406 64.8001ZM214.2 61.9001C212.5 61.9001 211 60.9001 210.4 59.2001C209.7 57.1001 210.8 54.8001 212.9 54.1001C218.3 52.2001 223.8 50.5001 229.3 48.9001C231.4 48.3001 233.6 49.5001 234.2 51.7001C234.8 53.8001 233.6 56.0001 231.4 56.6001C226.1 58.1001 220.7 59.8001 215.4 61.6001C215.1 61.8001 214.6 61.9001 214.2 61.9001ZM371.6 54.3001C371.3 54.3001 371 54.3001 370.7 54.2001C365.3 52.9001 359.8 51.8001 354.3 50.8001C352.1 50.4001 350.7 48.3001 351.1 46.2001C351.5 44.0001 353.6 42.6001 355.7 43.0001C361.3 44.0001 367 45.2001 372.6 46.5001C374.7 47.0001 376.1 49.2001 375.6 51.3001C375.1 53.1001 373.4 54.3001 371.6 54.3001ZM248.8 52.3001C246.9 52.3001 245.3 51.0001 244.9 49.1001C244.5 46.9001 245.8 44.8001 248 44.4001C253.6 43.2001 259.3 42.2001 265 41.4001C267.2 41.1001 269.2 42.6001 269.5 44.8001C269.8 47.0001 268.3 49.0001 266.1 49.3001C260.6 50.1001 255 51.1001 249.6 52.2001C249.3 52.3001 249.1 52.3001 248.8 52.3001ZM337.3 48.3001C337.1 48.3001 337 48.3001 336.8 48.3001C331.3 47.7001 325.6 47.2001 320.1 46.9001C317.9 46.8001 316.2 44.9001 316.3 42.7001C316.4 40.5001 318.3 38.8001 320.5 38.9001C326.2 39.2001 332 39.7001 337.7 40.3001C339.9 40.5001 341.5 42.5001 341.2 44.7001C341.1 46.8001 339.3 48.3001 337.3 48.3001ZM284.4 47.3001C282.3 47.3001 280.6 45.7001 280.4 43.6001C280.2 41.4001 281.9 39.5001 284.1 39.3001C289.8 38.9001 295.6 38.6001 301.3 38.5001C303.5 38.4001 305.3 40.2001 305.4 42.4001C305.4 44.6001 303.7 46.4001 301.5 46.5001C295.9 46.6001 290.3 46.8001 284.8 47.2001C284.6 47.3001 284.5 47.3001 284.4 47.3001Z" fill="url(#paint3_linear_615_516)"/>
<path d="M240 495.2L238 552.4H210.2L209.5 495.2H240Z" fill="#666666"/>
<path d="M251.346 525.166L243.878 548.186L249.585 550.037L257.053 527.018L251.346 525.166Z" fill="white"/>
<path d="M282.495 525.178L276.788 527.029L284.256 550.048L289.963 548.197L282.495 525.178Z" fill="white"/>
<path d="M174 552.4L167.1 553.8L164.5 556.2V560.9H183.7V552.4H174Z" fill="#8E8E8E"/>
<path d="M196.7 552.4L203.6 553.8L206.2 556.2V560.9H187V552.4H196.7Z" fill="#8E8E8E"/>
<path d="M214.7 552.4L207.8 553.8L205.2 556.2V560.9H224.4V552.4H214.7Z" fill="#ED73A0"/>
<path d="M237.4 552.4L244.3 553.8L246.9 556.2V560.9H227.7V552.4H237.4Z" fill="#ED73A0"/>
<path d="M471 283.6C457.5 283.6 446.5 269.6 446.5 252.3C446.5 235 457.5 221 471 221C484.5 221 495.5 235 495.5 252.3C495.5 269.6 484.5 283.6 471 283.6ZM471 223C458.6 223 448.5 236.1 448.5 252.3C448.5 268.5 458.6 281.6 471 281.6C483.4 281.6 493.5 268.5 493.5 252.3C493.5 236.1 483.4 223 471 223Z" fill="#737573"/>
<path d="M91.7998 374H83.7998V378.3H91.7998V374Z" fill="#676767"/>
<path d="M105.2 374H97.2002V378.3H105.2V374Z" fill="#676767"/>
<path d="M256.8 99.7002C256.8 99.7002 251.8 103.2 248.5 106.9C245.3 110.6 244.8 111.9 244.8 117.6C244.8 123.3 244.8 173.2 244.8 173.2H289.6V150C289.6 150 289.9 150 292 150C294.1 150 295.5 149 295.5 145.4C295.5 141.8 295.5 121.4 295.5 113.8C295.5 107.8 292.5 105.8 289.2 103.3C285.9 100.8 283.7 100.1 283.7 100.1L256.8 99.7002Z" fill="#92C044"/>
<path d="M415.6 389.3V451.6H448.4L447.6 388.7L415.6 389.3Z" fill="#4A6F93"/>
<path d="M318.1 73H316.1V117.7H318.1V73Z" fill="#596567"/>
<path d="M339.5 94.2998H294.8V96.2998H339.5V94.2998Z" fill="#596567"/>
<path d="M261.8 101.3L270 130.1L278.6 101.3H261.8Z" fill="white"/>
<path d="M317.1 114.9C306.2 114.9 297.4 106.1 297.4 95.2C297.4 84.3 306.2 75.5 317.1 75.5C328 75.5 336.8 84.3 336.8 95.2C336.8 106.1 328 114.9 317.1 114.9ZM317.1 77.5C307.3 77.5 299.4 85.4 299.4 95.2C299.4 105 307.3 112.9 317.1 112.9C326.9 112.9 334.8 105 334.8 95.2C334.8 85.4 326.9 77.5 317.1 77.5Z" fill="#F95031"/>
<path d="M269.8 111.6C268.6 111.6 267.6 110.6 267.6 109.4V107.3C267.6 106.1 268.6 105.1 269.8 105.1C271 105.1 272 106.1 272 107.3V109.4C271.9 110.6 271 111.6 269.8 111.6Z" fill="#990E0E"/>
<path d="M269.8 136C268.6 136 267.6 135 267.6 133.8V114.9C267.6 113.7 268.6 112.7 269.8 112.7C271 112.7 272 113.7 272 114.9V133.8C271.9 135 271 136 269.8 136Z" fill="#990E0E"/>
<path d="M317.1 106.2C311 106.2 306.1 101.3 306.1 95.2002C306.1 89.1002 311 84.2002 317.1 84.2002C323.2 84.2002 328.1 89.1002 328.1 95.2002C328.1 101.3 323.2 106.2 317.1 106.2ZM317.1 86.2002C312.1 86.2002 308.1 90.2002 308.1 95.2002C308.1 100.2 312.1 104.2 317.1 104.2C322.1 104.2 326.1 100.2 326.1 95.2002C326.1 90.2002 322.1 86.2002 317.1 86.2002Z" fill="#F95031"/>
<path d="M246.7 58.5C246.7 58.5 246.7 80 246.7 88C246.7 96 261.4 107 269.9 107C278.4 107 293.2 96.5 293.2 88.2C293.2 80 293.2 58.5 293.2 58.5H246.7Z" fill="#F7CBA4"/>
<path d="M259.5 81.6002C258.4 81.6002 257.5 80.7002 257.5 79.6002V77.2002C257.5 76.1002 258.4 75.2002 259.5 75.2002C260.6 75.2002 261.5 76.1002 261.5 77.2002V79.6002C261.6 80.7002 260.7 81.6002 259.5 81.6002Z" fill="#021727"/>
<path d="M280.5 81.6002C279.4 81.6002 278.5 80.7002 278.5 79.6002V77.2002C278.5 76.1002 279.4 75.2002 280.5 75.2002C281.6 75.2002 282.5 76.1002 282.5 77.2002V79.6002C282.5 80.7002 281.6 81.6002 280.5 81.6002Z" fill="#021727"/>
<path d="M246.7 61.3996C246.7 58.8996 235.2 57.2996 235.2 49.5996C235.2 41.8996 254.1 35.5996 270 35.5996C286 35.5996 304.8 41.8996 304.8 49.5996C304.8 57.2996 293.3 58.9996 293.3 61.3996H246.7Z" fill="#90BC42"/>
<path d="M270.2 61.3996H246.7C246.7 58.8996 235.2 57.2996 235.2 49.5996C235.2 41.8996 254.1 35.5996 270 35.5996L270.2 61.3996Z" fill="#83A538"/>
<path d="M270.5 49.2998H269.4C267 49.2998 265.1 47.3998 265.1 44.9998V44.8998C265.1 43.4998 265.6 42.0998 266.6 41.0998L269.2 38.3998C269.5 38.0998 270.1 38.0998 270.4 38.3998L273.1 41.0998C274.2 42.0998 274.8 43.5998 274.8 45.0998C274.8 47.3998 272.9 49.2998 270.5 49.2998Z" fill="#FFC877"/>
<path d="M246.7 61.3996C246.7 58.1996 249.6 53.5996 270 53.5996C290.4 53.5996 293.3 58.1996 293.3 61.3996H246.7Z" fill="#474E6C"/>
<path d="M270 60.0002C271.602 60.0002 272.9 58.7018 272.9 57.1002C272.9 55.4986 271.602 54.2002 270 54.2002C268.398 54.2002 267.1 55.4986 267.1 57.1002C267.1 58.7018 268.398 60.0002 270 60.0002Z" fill="#FFFF86"/>
<path d="M293.2 60.5H246.7V63.5H293.2V60.5Z" fill="#DEBF81"/>
<path d="M246.7 63.5C246.7 66.4 254.9 73 270 73C285.1 73 293.3 66.5 293.3 63.5H246.7Z" fill="#464655"/>
<path d="M269.9 93.5996C269.9 93.5996 263.1 90.5996 263.1 94.1996C263.1 97.7996 266.2 98.8996 270 98.8996C273.8 98.8996 276.9 97.7996 276.9 94.1996C276.9 90.5996 270.1 93.5996 270.1 93.5996H269.9Z" fill="#806D5C"/>
<path d="M270 96.5C276.2 96.5 277.8 93.9 278.6 90.5C277.4 92.1 274.3 92.4 270 92.4C265.7 92.4 262.6 92.1 261.4 90.5C262.2 93.9 263.8 96.5 270 96.5Z" fill="#FFF1D3"/>
<path d="M244.9 173.3H252.8V102.9C252.8 102.9 251.5 103.8 248.6 107C245.7 110.2 244.9 112.5 244.9 117.7C244.9 122.9 244.9 173.3 244.9 173.3Z" fill="#83A538"/>
<path d="M254.3 173.3L259 222.7H267.8L269.2 173.3H254.3Z" fill="#69852D"/>
<path d="M285.6 173.3L280.9 222.7H272.1L270.7 173.3H285.6Z" fill="#69852D"/>
<path d="M245.7 173.3C245.7 173.3 245 177.9 247 180.5C249 183.1 253.1 182.2 253.1 182.2V173.3H245.7Z" fill="#F8CBA5"/>
<path d="M259 222.7C253.5 222.7 247 224.7 247 228C247 230.8 247 231.3 247 231.3H267.8V222.6L259 222.7Z" fill="#939493"/>
<path d="M280.9 222.7C286.4 222.7 292.9 224.7 292.9 228C292.9 230.8 292.9 231.3 292.9 231.3H272.1V222.6L280.9 222.7Z" fill="#939493"/>
<path d="M313.8 161.6L308.8 179.5L289 156.9L285 155.7V167.2H278.6V158.5H271.5L269.2 154.9L271.5 150.7L241.6 136L246.7 128.5L291.1 152.1L300 152.2L313.8 161.6Z" fill="#4D4D4D"/>
<path d="M261.5 149.5C261.5 149.5 261 152.1 256.7 155.2C252.5 158.2 248.4 157.5 248.4 157.5V164.9C248.4 164.9 257.1 165.1 261.8 160.8C266.3 156.7 269.3 151.6 269.3 151.6L261.5 149.5Z" fill="#FC774A"/>
<path d="M269.8 141.6C269.8 141.6 267.2 141.6 263 141.6C258.8 141.6 258.3 152.2 263.4 152.2C268.6 152.2 269.7 152.2 269.7 152.2V141.6H269.8Z" fill="#F8CBA5"/>
<path d="M289.7 150.1L269.8 152.2V141.6H286.9V135.5H295.6L289.7 150.1Z" fill="#92C044"/>
<path d="M324.3 36.5996L323.4 41.9996L324.3 47.3996L325.4 41.9996L324.3 36.5996Z" fill="#F9C472"/>
<path d="M329.8 41.9L324.4 41L319 41.9L324.4 43L329.8 41.9Z" fill="#F9C472"/>
<path d="M413 127.6L412 133L413 138.4L414 133L413 127.6Z" fill="#F5C276"/>
<path d="M418.4 133L413 132L407.6 133L413 134L418.4 133Z" fill="#F5C276"/>
<path d="M326.1 148.9L325.1 154.3L326.1 159.7L327.1 154.3L326.1 148.9Z" fill="#E9CFE5"/>
<path d="M331.5 154.201L326.1 153.301L320.7 154.201L326.1 155.301L331.5 154.201Z" fill="#E9CFE5"/>
<path d="M165.7 224.7L164.8 230.1L165.7 235.5L166.7 230.1L165.7 224.7Z" fill="#F9C573"/>
<path d="M171.1 230.001L165.8 229.101L160.4 230.001L165.8 231.101L171.1 230.001Z" fill="#F9C573"/>
<path d="M41.2998 268L40.2998 273.4L41.2998 278.8L42.2998 273.4L41.2998 268Z" fill="#B7D587"/>
<path d="M46.6999 273.4L41.2999 272.4L35.8999 273.4L41.2999 274.4L46.6999 273.4Z" fill="#B7D587"/>
<path d="M149.7 291.5L148.7 296.9L149.7 302.3L150.7 296.9L149.7 291.5Z" fill="#E6CFE3"/>
<path d="M155.1 296.8L149.7 295.9L144.3 296.8L149.7 297.9L155.1 296.8Z" fill="#E6CFE3"/>
<path d="M131.4 433.2L130.4 438.6L131.4 444L132.4 438.6L131.4 433.2Z" fill="#C1E6F9"/>
<path d="M136.8 438.601L131.4 437.601L126 438.601L131.4 439.601L136.8 438.601Z" fill="#C1E6F9"/>
<path d="M264.2 376.7L263.2 382.1L264.2 387.5L265.2 382.1L264.2 376.7Z" fill="#EDC57E"/>
<path d="M269.6 382.101L264.2 381.101L258.8 382.101L264.2 383.101L269.6 382.101Z" fill="#EDC57E"/>
<path d="M298 433.2L297 438.6L298 444L299 438.6L298 433.2Z" fill="#F5A9B4"/>
<path d="M303.4 438.601L298 437.601L292.6 438.601L298 439.601L303.4 438.601Z" fill="#F5A9B4"/>
<path d="M382.4 379.2L381.5 384.6L382.4 390L383.4 384.6L382.4 379.2Z" fill="#BDD8A5"/>
<path d="M387.8 384.6L382.4 383.7L377 384.6L382.4 385.6L387.8 384.6Z" fill="#BDD8A5"/>
<path d="M471.5 338.5L470.5 343.9L471.5 349.3L472.5 343.9L471.5 338.5Z" fill="#F9C471"/>
<path d="M476.9 343.8L471.5 342.9L466.1 343.8L471.5 344.9L476.9 343.8Z" fill="#F9C471"/>
<path d="M480.6 430.3L479.6 435.7L480.6 441.1L481.6 435.7L480.6 430.3Z" fill="#BFE7F9"/>
<path d="M486 435.7L480.6 434.8L475.2 435.7L480.6 436.7L486 435.7Z" fill="#BFE7F9"/>
<path d="M507 189.3L506 194.7L507 200.1L508 194.7L507 189.3Z" fill="#9295D1"/>
<path d="M512.4 194.6L507 193.7L501.6 194.6L507 195.7L512.4 194.6Z" fill="#9295D1"/>
<path d="M208.2 62.7998L207.3 68.1998L208.2 73.5998L209.2 68.1998L208.2 62.7998Z" fill="#BCD8A4"/>
<path d="M213.6 68.2002L208.2 67.2002L202.9 68.2002L208.2 69.2002L213.6 68.2002Z" fill="#BCD8A4"/>
<path d="M267.7 228.3H246.9V231.4H267.7V228.3Z" fill="#6D6D6D"/>
<path d="M83.6001 376.8C78.1001 376.8 71.6001 378.8 71.6001 382.1C71.6001 384.9 71.6001 385.4 71.6001 385.4H92.4001V376.7H83.6001V376.8Z" fill="#9C9C9C"/>
<path d="M92.3 382.3H71.5V385.4H92.3V382.3Z" fill="#6D6D6D"/>
<path d="M293 228.3H272.2V231.4H293V228.3Z" fill="#6D6D6D"/>
<path d="M172.9 213.8H126.6C125.2 213.8 124 212.6 124 211.2V184.9C124 183.5 125.2 182.3 126.6 182.3H172.9C174.3 182.3 175.5 183.5 175.5 184.9V211.2C175.5 212.6 174.3 213.8 172.9 213.8Z" fill="#DFEFFF"/>
<path d="M131.4 213C131.4 215 139.2 220.6 139.2 220.6H152.1C152.1 220.6 154.2 216.3 154.1 213C154.1 209.7 131.4 213 131.4 213Z" fill="#FFCCAA"/>
<path d="M124 201.5C124 201.5 126.8 201.5 128.7 201.5C130.5 201.5 131.4 205.8 134.4 205.8C137.4 205.8 138.8 200 141.8 200C144.8 200 141.4 184.3 154.8 184.3C168.2 184.3 164.9 195 175.6 195V210.8C175.6 212.4 174.3 213.8 172.6 213.8H127C125.4 213.8 124 212.5 124 210.8V201.5Z" fill="#9AC455"/>
<path d="M172.8 213.8H126.7C125.2 213.8 124 212.6 124 211.1V209.9H175.5V211.1C175.5 212.6 174.3 213.8 172.8 213.8Z" fill="#BBDB8E"/>
<path d="M150.5 209.9L152 199.3L154.1 209.9L156.5 193.3L158.9 209.9H150.5Z" fill="#9C9F4F"/>
<path d="M169.3 209.9L170.9 201.3L174.1 209.9H169.3Z" fill="#9C9F4F"/>
<path d="M129.9 188.7H140.8V190.2H129.7L129.9 188.7Z" fill="#D96153"/>
<path d="M127.5 186.1L128.1 187.3L129.4 186.8L129.2 188.2L130.6 188.4L129.7 189.5L130.6 190.5L129.2 190.8L129.4 192.1L128.1 191.6L127.5 192.8L126.8 191.6L125.5 192.1L125.7 190.8L124.3 190.5L125.2 189.5L124.3 188.4L125.7 188.2L125.5 186.8L126.8 187.3L127.5 186.1Z" fill="#D96153"/>
<path d="M127.5 190.8C128.218 190.8 128.8 190.218 128.8 189.5C128.8 188.782 128.218 188.2 127.5 188.2C126.782 188.2 126.2 188.782 126.2 189.5C126.2 190.218 126.782 190.8 127.5 190.8Z" fill="#EA7E3C"/>
<path d="M441.8 156.2C444.285 156.2 446.3 154.185 446.3 151.7C446.3 149.215 444.285 147.2 441.8 147.2C439.315 147.2 437.3 149.215 437.3 151.7C437.3 154.185 439.315 156.2 441.8 156.2Z" fill="#DAAC8F"/>
<path d="M482 156.2C484.485 156.2 486.5 154.185 486.5 151.7C486.5 149.215 484.485 147.2 482 147.2C479.515 147.2 477.5 149.215 477.5 151.7C477.5 154.185 479.515 156.2 482 156.2Z" fill="#DAAC8F"/>
<path d="M441.8 145.6C441.8 145.6 441.8 153.8 441.8 159.5C441.8 165.2 450.5 180.2 461.9 180.2C473.3 180.2 482 165.2 482 159.5C482 153.8 482 145.6 482 145.6V135.1H446.6L441.8 145.6Z" fill="#F7CBA4"/>
<path d="M481.8 146.7C483.4 143.3 485.5 138.7 483.1 132C480.7 125.3 474.5 121.1 465.8 120.8C457.1 120.5 457.8 124.9 451.8 125.6C445.8 126.4 441.4 132.1 441.7 137.2C442 142.3 440.9 148.8 443.3 145.8C444.4 144.4 446.7 143.5 448.3 141.9C450.1 140 451.4 137.6 454.1 137.6C458.5 137.6 454.9 141.7 468.3 141.7C479.1 141.7 481.8 146.7 481.8 146.7Z" fill="#666666"/>
<path d="M453.8 159.8C452.7 159.8 451.8 158.9 451.8 157.8V155.4C451.8 154.3 452.7 153.4 453.8 153.4C454.9 153.4 455.8 154.3 455.8 155.4V157.8C455.8 158.9 454.9 159.8 453.8 159.8Z" fill="#152531"/>
<path d="M471 159.8C469.9 159.8 469 158.9 469 157.8V155.4C469 154.3 469.9 153.4 471 153.4C472.1 153.4 473 154.3 473 155.4V157.8C473.1 158.9 472.2 159.8 471 159.8Z" fill="#152531"/>
<path d="M462.4 162.7C461.7 162.7 461 162.1 461 161.3V157C461 156.3 461.6 155.6 462.4 155.6C463.1 155.6 463.8 156.2 463.8 157V161.4C463.8 162.1 463.2 162.7 462.4 162.7Z" fill="#D6A88D"/>
<path d="M477.4 234.2C477.4 234.2 478.8 244.1 480.1 248.1C481.4 252.1 482.6 256.4 482.6 256.4L490 255C490 255 491.9 239.1 491.7 235C491.5 230.9 490.2 227.9 490.2 227.9L477.4 234.2Z" fill="#E8BA97"/>
<path d="M270 85.7002C268.9 85.7002 268.1 84.8002 268.1 83.8002V80.6002C268.1 79.5002 269 78.7002 270 78.7002C271.1 78.7002 271.9 79.6002 271.9 80.6002V83.8002C271.9 84.8002 271 85.7002 270 85.7002Z" fill="#DAAD91"/>
<path d="M455.8 149.3C457 148.2 456.2 145.9 454 145.9C451.8 145.9 449.5 148.1 449.5 148.1C449.5 148.1 451.1 150 452.9 150C454.7 150 455.8 149.3 455.8 149.3Z" fill="#646565"/>
<path d="M468.9 149.3C467.7 148.2 468.5 145.9 470.7 145.9C472.9 145.9 475.2 148.1 475.2 148.1C475.2 148.1 473.6 150 471.8 150C470 150 468.9 149.3 468.9 149.3Z" fill="#646565"/>
<path d="M462.4 167.7C462.4 167.7 469 165.6 469 168.1C469 170.6 465.8 172.1 462.4 172.1C459 172.1 455.8 170.6 455.8 168.1C455.8 165.6 462.4 167.7 462.4 167.7Z" fill="#806D5C"/>
<path d="M462.4 169.3C464.9 169.3 467.1 169.1 468.2 168.4C470.1 167.1 469.8 164.9 469.8 164.9C469.8 164.9 468.4 166.6 462.4 166.6C456.4 166.6 455 164.9 455 164.9C455 164.9 454.6 167.1 456.6 168.4C457.7 169.2 460 169.3 462.4 169.3Z" fill="#FFF1D3"/>
<path d="M484.4 216.3H488.2V222.5H480.1V216.3H484.4Z" fill="#202372"/>
<path d="M453.8 176.4C453.8 176.4 455 184.3 461.9 184.3C468.8 184.3 466.6 175.5 466.6 175.5L453.8 176.4Z" fill="#ECBF9A"/>
<path d="M454.6 178C454.6 178 448.5 176.9 445.7 179C442.9 181.1 443.2 183.5 443.2 188.7C443.1 193.9 443.2 219.2 443.2 219.2H471C471 219.2 471 212.1 471 208.1C471 204.1 473.7 199.7 474.5 194C475.3 188.3 477.4 180.4 466.9 179.2C456.4 178.1 454.6 178 454.6 178Z" fill="#CAAB4A"/>
<path d="M436.402 237.402L431.213 251.263L433.086 251.964L438.275 238.104L436.402 237.402Z" fill="#271E38"/>
<path d="M459.2 230.2H470.1C470.1 230.2 470.8 240 470.1 240C469.4 240 459.7 240 459.7 240L459.2 230.2Z" fill="#030016"/>
<path d="M469.6 235C469.6 235 469.3 242.1 469.1 246.8C468.9 251.5 469.1 257 469.1 257L475.2 256.1C475.2 256.1 477.9 248.4 478.7 242.9C479.5 237.3 478.1 233.1 478.1 233.1L469.6 235Z" fill="#F8CCA5"/>
<path d="M469.2 252.1H433.2V254.1H469.2V252.1Z" fill="#271E38"/>
<path d="M471.7 229.3C471.7 229.3 474.1 229.3 476.1 229.3C479.1 229.3 480.2 233.7 480.2 233.7C480.2 233.7 486.5 234.1 490 232C493.5 229.9 492.6 229.1 492.7 226.2C492.8 223.3 488.3 220.4 484.4 220.4C480.5 220.4 470.1 220.4 470.1 220.4L471.7 229.3Z" fill="#0A090B"/>
<path d="M460.4 231.1C460.4 231.1 462.8 231.1 464.8 231.1C467.8 231.1 468.9 235.5 468.9 235.5C468.9 235.5 475.2 235.9 478.7 233.8C482.2 231.7 481.3 230.9 481.4 228C481.5 225.1 477 222.2 473.1 222.2C469.2 222.2 458.8 222.2 458.8 222.2L460.4 231.1Z" fill="#322749"/>
<path d="M434.9 216L433.9 239.5L462.4 239.9L459.8 218.3L434.9 216Z" fill="#2C3D94"/>
<path d="M475 185.1C475 185.1 483.5 202.7 485.1 208.5C486.7 214.3 485.4 220.1 480.2 220.6C477.7 220.8 474.5 221.7 470.1 222.1C467 222.4 464.7 219.2 464.7 219.2C464.7 219.2 467.7 216.4 470.5 214.4C473.3 212.4 475.1 211.9 475.1 209.8C475.1 207.6 470.2 201.4 470.2 201.4L475 185.1Z" fill="#E8BA97"/>
<path d="M437.3 283.6C423.8 283.6 412.8 269.6 412.8 252.3C412.8 235 423.8 221 437.3 221C450.8 221 461.8 235 461.8 252.3C461.8 269.6 450.8 283.6 437.3 283.6ZM437.3 223C424.9 223 414.8 236.1 414.8 252.3C414.8 268.5 424.9 281.6 437.3 281.6C449.7 281.6 459.8 268.5 459.8 252.3C459.8 236.1 449.7 223 437.3 223Z" fill="#160B29"/>
<path d="M472.7 201.1C473.5 199 474.2 196.7 474.5 194.1C475.3 188.4 477.4 180.5 466.9 179.3C456.4 178.1 454.6 178 454.6 178C454.6 178 448.5 176.9 445.7 179C442.9 181.1 443.2 183.5 443.2 188.7C443.2 189.8 443.2 191.8 443.2 194.3C443.2 201 449 202.9 454.5 202.9C460 203 471.2 204.8 472.7 201.1Z" fill="#FACC56"/>
<path d="M433 278.2C423 278.2 414.9 266.9 414.9 253.1C414.9 239.3 423 228 433 228C443 228 451.1 239.3 451.1 253.1C451.1 266.9 443 278.2 433 278.2ZM433 230C424.1 230 416.9 240.4 416.9 253.1C416.9 265.8 424.1 276.2 433 276.2C441.9 276.2 449.1 265.8 449.1 253.1C449.1 240.4 441.9 230 433 230Z" fill="#DCE2C1"/>
<path d="M444.5 180.2C444.5 180.2 430.6 197.1 426.4 207.6C424.5 212.2 426.7 217.4 432 217.4C437.3 217.4 444.9 217.4 448.6 217.4C452.4 217.4 452.3 214 456.3 214C460.4 214 462.3 217.4 462.3 217.4H464.7C464.7 217.4 461.3 209.9 455.7 209.9C450.2 209.9 449.4 213.4 446.9 213.4C444.4 213.4 435.2 211.5 437.8 207.5C440.4 203.5 443.9 197.7 446.1 194.7C448.3 191.8 447.9 187.3 446.9 184.4C445.9 181.5 444.5 180.2 444.5 180.2Z" fill="#E8BA97"/>
<path d="M430.9 257.7C432.723 257.7 434.2 255.641 434.2 253.1C434.2 250.559 432.723 248.5 430.9 248.5C429.078 248.5 427.6 250.559 427.6 253.1C427.6 255.641 429.078 257.7 430.9 257.7Z" fill="#5D64A9"/>
<path d="M469.2 257V260.3L475.3 259V256.1L469.2 257Z" fill="#C4C8EE"/>
<path d="M482.6 256.5V259.3L490.1 257.7L490 255L482.6 256.5Z" fill="#C4C8EE"/>
<path d="M482.6 259.3V267.6H503.2V263.9L490.1 257.7L488.1 258.1L482.6 259.3Z" fill="black"/>
<path d="M496.5 283.5C500.918 283.5 504.5 279.918 504.5 275.5C504.5 271.082 500.918 267.5 496.5 267.5C492.082 267.5 488.5 271.082 488.5 275.5C488.5 279.918 492.082 283.5 496.5 283.5Z" fill="#1C1037"/>
<path d="M496.5 280.8C499.427 280.8 501.8 278.427 501.8 275.5C501.8 272.573 499.427 270.2 496.5 270.2C493.573 270.2 491.2 272.573 491.2 275.5C491.2 278.427 493.573 280.8 496.5 280.8Z" fill="#4A529C"/>
<path d="M469.2 260.3V267.6H486.6V263.9L476.7 259.6L475.3 259L469.2 260.3Z" fill="#322748"/>
<path d="M503.2 267.6H469.2V269.9H503.2V267.6Z" fill="#50569F"/>
<path d="M470.1 283.5C474.518 283.5 478.1 279.918 478.1 275.5C478.1 271.082 474.518 267.5 470.1 267.5C465.682 267.5 462.1 271.082 462.1 275.5C462.1 279.918 465.682 283.5 470.1 283.5Z" fill="#1C1037"/>
<path d="M470.1 280.8C473.027 280.8 475.4 278.427 475.4 275.5C475.4 272.573 473.027 270.2 470.1 270.2C467.173 270.2 464.8 272.573 464.8 275.5C464.8 278.427 467.173 280.8 470.1 280.8Z" fill="#4A529C"/>
<path d="M470.1 277.4C471.15 277.4 472 276.549 472 275.5C472 274.45 471.15 273.6 470.1 273.6C469.051 273.6 468.2 274.45 468.2 275.5C468.2 276.549 469.051 277.4 470.1 277.4Z" fill="#505392"/>
<path d="M469.2 222.1C469.2 222.1 469.3 224.8 467.3 224.8C465.3 224.8 464.8 224.2 464.8 223.1C464.8 222 464.5 220.8 463.6 220.8C462.7 220.8 462.8 224.9 460.8 224.8C458.8 224.7 460.7 221.3 460.8 220.5C460.9 219.7 460.5 219 457.8 218.8C455.2 218.6 453.9 220.9 452.1 220.9C450.3 220.9 452.2 218.4 449.2 218.3C446.2 218.2 446.7 220.4 444.8 220.2C442.9 220.1 443.1 215.9 443.1 215.9L454.9 212.9L462.5 215.5C462.5 215.5 464.8 216.9 468.2 216.8C471.6 216.8 469.2 222.1 469.2 222.1Z" fill="#E8BA97"/>
<path d="M79 315.4L83.2 374.3C83.2 374.3 85.2 376.8 87.9 376.8C90.6 376.8 92.1 373.9 92.1 373.9L94.4 325.2L96.6 374.4C96.6 374.4 99 376.8 102 376.8C105 376.8 106.7 373.9 106.7 373.9L111.2 314.9L79 315.4Z" fill="#5D5D5D"/>
<path d="M311.8 358.1C342.175 358.1 366.8 333.475 366.8 303.1C366.8 272.724 342.175 248.1 311.8 248.1C281.424 248.1 256.8 272.724 256.8 303.1C256.8 333.475 281.424 358.1 311.8 358.1Z" fill="white"/>
<path d="M263.7 327.1L256.8 357.6L289.6 348.7L263.7 327.1Z" fill="white"/>
<path d="M317.8 288.2C317.8 284.4 315 281.9 310.5 281.9C306.8 281.9 303.9 283.5 301.3 286L296.1 281.2C299.8 277.2 304.9 274.4 311.1 274.4C320.1 274.4 326.6 278.9 326.6 287.1C326.6 297.7 313 299.5 314.1 309.2H306.1C304.3 298.2 317.8 295.2 317.8 288.2ZM303.7 322.3C303.7 318 306.7 315.3 310.6 315.3C314.5 315.3 317.5 318.1 317.5 322.3C317.5 326.5 314.5 329.5 310.6 329.5C306.7 329.5 303.7 326.6 303.7 322.3Z" fill="#FF755E"/>
<path d="M139.2 220.6V244.2C139.2 244.2 92.4999 244.2 83.0999 244.2C73.6999 244.2 71.8999 252 71.8999 260.7C71.8999 269.3 71.8999 315.4 71.8999 315.4H78.9999L79.9999 316.4H113.4V256.8C113.4 256.8 142.8 257.1 147.1 257.1C151.4 257.1 152.1 254.3 152.1 249.4C152.1 244.5 152.1 220.7 152.1 220.7H139.2V220.6Z" fill="#9691C6"/>
<path d="M78.9999 244.8C73.1999 246.8 71.8999 253.4 71.8999 260.6C71.8999 269.2 71.8999 315.3 71.8999 315.3H78.9999V247.1V244.8Z" fill="#7E7DAC"/>
<path d="M152.2 229.1H139.2V231.4H152.2V229.1Z" fill="#8683B5"/>
<path d="M73.0002 222.6C75.9273 222.6 78.3002 220.227 78.3002 217.3C78.3002 214.373 75.9273 212 73.0002 212C70.0731 212 67.7002 214.373 67.7002 217.3C67.7002 220.227 70.0731 222.6 73.0002 222.6Z" fill="#DBAE90"/>
<path d="M118 222.6C120.927 222.6 123.3 220.227 123.3 217.3C123.3 214.373 120.927 212 118 212C115.073 212 112.7 214.373 112.7 217.3C112.7 220.227 115.073 222.6 118 222.6Z" fill="#DBAE90"/>
<path d="M86.2002 247.4V260.7L94.8002 252.1L86.2002 247.4Z" fill="#7A79A9"/>
<path d="M96.3999 252.1L105 247.4V260.7" fill="#7A79A9"/>
<path d="M96.5 253.1H94.5V278.5H96.5V253.1Z" fill="#7B79A9"/>
<path d="M72.6999 315.4C72.6999 315.4 71.1999 317.8 70.9999 321.5C70.8999 325.2 73.9999 327.8 76.0999 327.8C78.1999 327.8 79.2999 327.8 79.2999 327.8V315L72.6999 315.4Z" fill="#F7CAA3"/>
<path d="M85.8999 241.5C85.8999 241.5 85.8999 242.1 85.8999 245.3C85.8999 248.5 87.9999 253.4 95.4999 253.4C103 253.4 105.1 248.6 105.1 245.3C105.1 242.1 105.1 241.5 105.1 241.5H85.8999Z" fill="#ECC09D"/>
<path d="M73 208.7C73 208.7 73 219.6 73 228.3C73 237 83.6 246.5 95.5 246.5H95.6C107.4 246.5 118.1 237 118.1 228.3C118.1 219.6 118.1 208.7 118.1 208.7L116.9 202.1L94.7 195.5L76.9 201.3L73 208.7Z" fill="#F7CBA4"/>
<path d="M118 204.6C118 197.7 110.3 185.3 98.5999 185.3C86.8999 185.3 72.8999 192.3 72.8999 207.4C72.8999 211.9 75.6999 210.2 77.3999 207.9C79.0999 205.6 81.3999 205.6 84.4999 202.8C87.5999 200 89.3999 201.8 92.2999 204.6C95.1999 207.4 99.6999 206.8 103.6 206.8C107.6 206.8 110.1 203.8 113.2 203.8C116.3 203.8 118 212.5 118 204.6Z" fill="#AF7C38"/>
<path d="M102 261.6H98.5V263.6H102V261.6Z" fill="#615F6B"/>
<path d="M102 267.5H98.5V269.5H102V267.5Z" fill="#615F6B"/>
<path d="M102 273.4H98.5V275.4H102V273.4Z" fill="#615F6B"/>
<path d="M105.3 376.8C110.8 376.8 117.3 378.8 117.3 382.1C117.3 384.9 117.3 385.4 117.3 385.4H96.6001V376.7H105.3V376.8Z" fill="#9C9C9C"/>
<path d="M117.4 382.4H96.6001V385.5H117.4V382.4Z" fill="#6D6D6D"/>
<path d="M442.6 507.3C448.1 507.3 454.6 509.3 454.6 512.6C454.6 515.4 454.6 515.9 454.6 515.9H433.8V507.2H442.6V507.3Z" fill="#9D9D9D"/>
<path d="M454.7 512.9H433.9V516H454.7V512.9Z" fill="#6D6D6D"/>
<path d="M421.2 507.3C415.7 507.3 409.2 509.3 409.2 512.6C409.2 515.4 409.2 515.9 409.2 515.9H430V507.2H421.2V507.3Z" fill="#9D9D9D"/>
<path d="M430 512.8H409.2V515.9H430V512.8Z" fill="#6D6D6D"/>
<path d="M413.5 346.7C413.5 342.4 410 339 405.8 339C402.2 339 399.1 341.5 398.3 344.9C397.9 344.8 397.4 344.8 397 344.8C393.2 344.8 390 347.9 390 351.8V353.5H415.8L413.5 346.7Z" fill="#C0E7F9"/>
<path d="M412.1 400.9C412.1 397.4 409.3 394.6 405.8 394.6C402.8 394.6 400.4 396.6 399.7 399.4C399.4 399.3 399 399.3 398.6 399.3C395.5 399.3 392.9 401.8 392.9 405V406.4H413.9L412.1 400.9Z" fill="#C0E7F9"/>
<path d="M409.5 367.9C412.482 367.9 414.9 365.482 414.9 362.5C414.9 359.517 412.482 357.1 409.5 357.1C406.518 357.1 404.1 359.517 404.1 362.5C404.1 365.482 406.518 367.9 409.5 367.9Z" fill="#E2B597"/>
<path d="M453.2 367.9C456.182 367.9 458.6 365.482 458.6 362.5C458.6 359.517 456.182 357.1 453.2 357.1C450.217 357.1 447.8 359.517 447.8 362.5C447.8 365.482 450.217 367.9 453.2 367.9Z" fill="#E2B597"/>
<path d="M431.3 332C418.1 332 409.4 344.1 409.4 353.5C409.4 362.9 409.4 369.1 409.4 374.2C409.4 379.2 418.3 393.1 431.3 393.1C444.3 393.1 453.2 379.3 453.2 374.2C453.2 369.2 453.2 363 453.2 353.5C453.2 344 444.5 332 431.3 332Z" fill="#F7CBA4"/>
<path d="M452.4 344.9H442.7V346.9H452.4V344.9Z" fill="#F1FDFF"/>
<path d="M454.3 346.8H444.6V348.8H454.3V346.8Z" fill="#F1FDFF"/>
<path d="M455.5 351.2H445.8V353.2H455.5V351.2Z" fill="#F1FDFF"/>
<path d="M421.8 344.8H412.1V346.8H421.8V344.8Z" fill="#F1FDFF"/>
<path d="M419.8 346.9H410.1V348.9H419.8V346.9Z" fill="#F1FDFF"/>
<path d="M418.7 351.1H409V353.1H418.7V351.1Z" fill="#F1FDFF"/>
<path d="M432.8 402.2H429.8V419.9H432.8V402.2Z" fill="#345771"/>
<path d="M425 359.8C425 358 423.5 356.6 421.8 356.6C420.1 356.6 418.6 358.1 418.6 359.8H416.3C416.3 356.7 418.8 354.2 421.9 354.2C425 354.2 427.5 356.7 427.5 359.8H425Z" fill="#F1FDFF"/>
<path d="M444.3 359.8C444.3 358 442.8 356.6 441.1 356.6C439.4 356.6 437.9 358.1 437.9 359.8H435.6C435.6 356.7 438.1 354.2 441.2 354.2C444.3 354.2 446.8 356.7 446.8 359.8H444.3Z" fill="#F1FDFF"/>
<path d="M421.8 368.4C420.7 368.4 419.8 367.5 419.8 366.4V364C419.8 362.9 420.7 362 421.8 362C422.9 362 423.8 362.9 423.8 364V366.4C423.8 367.4 422.9 368.4 421.8 368.4Z" fill="#00031A"/>
<path d="M441.1 368.4C440 368.4 439.1 367.5 439.1 366.4V364C439.1 362.9 440 362 441.1 362C442.2 362 443.1 362.9 443.1 364V366.4C443.1 367.4 442.2 368.4 441.1 368.4Z" fill="#00031A"/>
<path d="M431.3 371.2C430.6 371.2 429.9 370.6 429.9 369.8V363.6C429.9 362.9 430.5 362.2 431.3 362.2C432 362.2 432.7 362.8 432.7 363.6V369.8C432.7 370.6 432.1 371.2 431.3 371.2Z" fill="#D3A68C"/>
<path d="M415.4 383.7C413.7 385.9 418.2 399.8 421.8 398C423.8 397 423.5 394.1 425.3 394.1C427.1 394.1 427.6 402.8 431.3 402.8C435 402.8 435.5 394.1 437.3 394.1C439.1 394.1 438.8 397 440.8 398C444.4 399.8 448.9 385.9 447.2 383.7L431.3 380.6L415.4 383.7Z" fill="#F2F2F2"/>
<path d="M436.5 372.6C433.7 372.6 434.7 374.7 431.3 374.7C427.9 374.7 429 372.6 426.1 372.6C420.3 372.6 414.9 382.9 411.5 382.9C412.8 386.3 417.9 387.2 422.5 387.2C427.1 387.2 431.3 384 431.3 381.8C431.3 384.1 435.6 387.2 440.1 387.2C444.7 387.2 449.8 386.4 451.1 382.9C447.6 382.9 442.3 372.6 436.5 372.6Z" fill="#E6E6E6"/>
<path d="M415.6 389.3C411.9 389.3 407.7 390.8 407.7 402.3C407.7 413.8 407.7 451.7 407.7 451.7H415.6V389.3Z" fill="#3D5F7A"/>
<path d="M447.8 435.7H455.9C455.9 435.7 455.9 403.6 455.9 397.5C455.9 391.4 451.7 388.7 447.6 388.7C447.6 400.5 447.8 435.7 447.8 435.7Z" fill="#4A6E92"/>
<path d="M449.6 404H445.6V435.7H449.6V404Z" fill="#345771"/>
<path d="M416.1 451.6C416.1 451.6 417.5 490.7 417.5 497.3C417.5 504 420.3 507.3 420.3 507.3H430L432.3 459.7L433.8 507.3H442.6C442.6 507.3 446.5 504 446.7 497.2C446.9 490.4 447.8 451.7 447.8 451.7H416.1V451.6Z" fill="#606060"/>
<path d="M407.7 451.6C407.7 451.6 406.7 453 406.7 456.2C406.7 459.4 409.7 461.5 412.5 461.5C415.4 461.5 416.4 460.1 416.4 460.1L416.1 451.6H407.7Z" fill="#F7CBA3"/>
<path d="M458.6 516H455.6V447.4C455.7 446.3 455.5 443.4 454.3 442C453.8 441.5 453.2 441.3 452.4 441.3C449.3 441.3 448.7 443.7 448.7 447.7V454H445.7V447.7C445.7 445.4 445.7 438.3 452.4 438.3C454 438.3 455.4 438.9 456.5 440C458.9 442.6 458.7 447 458.6 447.5V516Z" fill="#F9C573"/>
<path d="M455.9 435.7C455.9 435.7 457.1 438.6 457.1 442.9C457.1 447.2 453.5 448.4 450.8 448.4C448.2 448.4 447.6 447.7 447.6 447.7V435.7H455.9Z" fill="#F7CBA3"/>
<path d="M438.3 403.1H435.2V406.2H438.3V403.1Z" fill="#4D4946"/>
<path d="M438.3 411.8H435.2V414.9H438.3V411.8Z" fill="#4D4946"/>
<path d="M248.4 495.2H203.7V444.1C203.7 438.1 208.6 433.2 214.6 433.2H237.5C243.5 433.2 248.4 438.1 248.4 444.1V495.2Z" fill="#E0739B"/>
<path d="M217.5 433.2C217.5 433.2 217.5 436 217.5 440.1C217.5 444.2 220.3 447.7 225.8 447.7C231.3 447.7 234.1 444.1 234.1 440.1C234.1 436.1 234.1 433.2 234.1 433.2H217.5Z" fill="#DCAF91"/>
<path d="M244.5 131.8L232.3 124.6L230.5 127.1L219.3 121.4L220.5 119.4L219 118.6L217.7 120.6L213.1 118.1L212 120.1L242 135.5L244.5 131.8Z" fill="#979797"/>
<path d="M250.1 427.6H202C200.5 427.6 199.3 426.4 199.3 424.9V397.2C199.3 384.3 212.3 373.5 226 373.5C239.7 373.5 252.7 380.9 252.7 396.5V424.9C252.8 426.4 251.6 427.6 250.1 427.6Z" fill="#666666"/>
<path d="M210.7 400.5C206.2 400.5 203.7 400.5 203.7 410.8C203.7 421.1 210.2 436.4 226.1 436.4C242 436.4 248.5 421 248.5 410.8C248.5 400.6 246 400.5 241.5 400.5C241.5 400.5 239.4 400.5 237.6 400.5C235.8 400.5 235.5 389.5 232.4 389.5C229.3 389.5 230.5 400.5 228 400.5C225.5 400.5 210.7 400.5 210.7 400.5Z" fill="#F9CEA6"/>
<path d="M85.6998 214.2H81.7998C81.7998 214.2 82.6998 210.2 85.6998 210.2C88.8998 210.2 89.5998 214.2 89.5998 214.2H85.6998Z" fill="#DD2424"/>
<path d="M81.7998 214.2C81.7998 214.2 82.4998 210.2 85.6998 210.2C88.8998 210.2 89.5998 214.2 89.5998 214.2H81.7998Z" fill="#5E6063"/>
<path d="M101.6 214.2C101.6 214.2 102.3 210.2 105.5 210.2C108.7 210.2 109.4 214.2 109.4 214.2H101.6Z" fill="#5E6063"/>
<path d="M85.5 224.9C84.4 224.9 83.5 224 83.5 222.9V220.5C83.5 219.4 84.4 218.5 85.5 218.5C86.6 218.5 87.5 219.4 87.5 220.5V222.9C87.6 223.9 86.7 224.9 85.5 224.9Z" fill="#00031A"/>
<path d="M105.9 224.9C104.8 224.9 103.9 224 103.9 222.9V220.5C103.9 219.4 104.8 218.5 105.9 218.5C107 218.5 107.9 219.4 107.9 220.5V222.9C107.9 223.9 107 224.9 105.9 224.9Z" fill="#00031A"/>
<path d="M95.4001 234.9C95.4001 234.9 88.6001 231.9 88.6001 235.5C88.6001 239.1 91.7001 240.2 95.5001 240.2C99.3001 240.2 102.4 239.1 102.4 235.5C102.4 231.9 95.6001 234.9 95.6001 234.9H95.4001Z" fill="#806D5C"/>
<path d="M95.4999 237.8C101.7 237.8 103.3 235.2 104.1 231.8C102.9 233.4 99.7999 233.7 95.4999 233.7C91.1999 233.7 88.0999 233.4 86.8999 231.8C87.6999 235.2 89.2999 237.8 95.4999 237.8Z" fill="#FFF1D3"/>
<path d="M95.5001 228.9C94.4001 228.9 93.6001 228 93.6001 227V223.8C93.6001 222.7 94.5001 221.9 95.5001 221.9C96.6001 221.9 97.4001 222.8 97.4001 223.8V227C97.4001 228.1 96.5001 228.9 95.5001 228.9Z" fill="#D3A68C"/>
<path d="M217.1 416.6C216 416.6 215.1 415.7 215.1 414.6V412.2C215.1 411.1 216 410.2 217.1 410.2C218.2 410.2 219.1 411.1 219.1 412.2V414.6C219.1 415.7 218.2 416.6 217.1 416.6Z" fill="#00031A"/>
<path d="M234.6 416.6C233.5 416.6 232.6 415.7 232.6 414.6V412.2C232.6 411.1 233.5 410.2 234.6 410.2C235.7 410.2 236.6 411.1 236.6 412.2V414.6C236.7 415.7 235.8 416.6 234.6 416.6Z" fill="#00031A"/>
<path d="M218.9 407H215.3C214.7 407 214.2 406.5 214.2 405.9C214.2 405.3 214.7 404.8 215.3 404.8H218.9C219.5 404.8 220 405.3 220 405.9C220 406.5 219.5 407 218.9 407Z" fill="#485159"/>
<path d="M236.4 407H232.8C232.2 407 231.7 406.5 231.7 405.9C231.7 405.3 232.2 404.8 232.8 404.8H236.4C237 404.8 237.5 405.3 237.5 405.9C237.5 406.5 237 407 236.4 407Z" fill="#485159"/>
<path d="M226.8 447.7H224.8V468.5H226.8V447.7Z" fill="#C6598B"/>
<path d="M222.7 451.9H220.7V453.9H222.7V451.9Z" fill="#7DC3F1"/>
<path d="M231.2 451.9H229.2V453.9H231.2V451.9Z" fill="#7DC3F1"/>
<path d="M222.7 458H220.7V460H222.7V458Z" fill="#7DC3F1"/>
<path d="M270.1 483.9C270.1 483.9 239.2 482.4 234.6 495.2C253.3 495.2 270.1 495.2 270.1 495.2V483.9Z" fill="#FFE778"/>
<path d="M231.2 458H229.2V460H231.2V458Z" fill="#7DC3F1"/>
<path d="M318.4 500.1C314.1 517.1 298.7 529.7 280.3 529.7H255.6C259.9 529.7 264.1 529 268 527.7C270.1 527 272.1 526.2 274 525.1C283.7 520 291 510.9 293.8 500H318.4V500.1Z" fill="#3598BA"/>
<path d="M293.7 500.1C290.9 511 283.6 520.1 273.9 525.2C272 526.2 270 527.1 267.9 527.8C264 529.1 259.9 529.8 255.5 529.8C237.1 529.8 221.7 517.2 217.4 500.2H293.7V500.1Z" fill="#61B4D8"/>
<path d="M319.5 492.8L318.4 500V500.1H217.5C217.6 499.8 218.7 492.8 224.6 492.8H294.8C308.9 492.8 319.5 492.8 319.5 492.8Z" fill="#EBE8E7"/>
<path d="M319.6 490.4C319.6 491.2 319.6 492 319.5 492.8C319.5 492.8 308.9 492.8 294.8 492.8C294.8 492 294.9 491.2 294.9 490.4C294.9 478.1 289.2 465.5 280.3 457.1C277.8 454.7 274.9 452.6 271.9 450.9C271.3 450.6 270.7 450.2 270.1 449.9H280.3C302 449.9 319.6 468.7 319.6 490.4Z" fill="#3598BA"/>
<path d="M294.9 490.4C294.9 491.2 294.9 492 294.8 492.8H270V449.9C270.4 450.1 270.8 450.3 271.1 450.5C271.3 450.6 271.6 450.8 271.8 450.9C272.2 451.1 272.6 451.3 272.9 451.6C273.3 451.8 273.6 452 274 452.3C275.8 453.5 277.6 454.8 279.2 456.3C279.5 456.6 279.8 456.9 280.2 457.2C289.2 465.5 294.9 478.1 294.9 490.4Z" fill="#61B4D8"/>
<path d="M276.9 555.1H255.6V559.1H276.9V555.1Z" fill="white"/>
<path d="M246.2 569.9C253.766 569.9 259.9 563.766 259.9 556.2C259.9 548.634 253.766 542.5 246.2 542.5C238.634 542.5 232.5 548.634 232.5 556.2C232.5 563.766 238.634 569.9 246.2 569.9Z" fill="#2E5968"/>
<path d="M246.2 562.4C249.624 562.4 252.4 559.624 252.4 556.2C252.4 552.776 249.624 550 246.2 550C242.776 550 240 552.776 240 556.2C240 559.624 242.776 562.4 246.2 562.4Z" fill="white"/>
<path d="M287.1 569.9C294.666 569.9 300.8 563.766 300.8 556.2C300.8 548.634 294.666 542.5 287.1 542.5C279.534 542.5 273.4 548.634 273.4 556.2C273.4 563.766 279.534 569.9 287.1 569.9Z" fill="#2E5968"/>
<path d="M173.3 425.4C173.3 425.4 160.6 426.6 160.6 442.1C160.6 457.7 160.6 496.4 160.6 496.4H207.3C207.3 496.4 207.3 449.1 207.3 441.6C207.3 434.1 202.4 425.3 193.8 425.3C185.2 425.4 173.3 425.4 173.3 425.4Z" fill="#C0E7F9"/>
<path d="M185 433.2H183V496.4H185V433.2Z" fill="#A5CFD9"/>
<path d="M175.3 426.8V438.6L184 433.2L192.8 438.6V426.8H175.3Z" fill="#E55789"/>
<path d="M162.2 407.7C165.017 407.7 167.3 405.417 167.3 402.6C167.3 399.783 165.017 397.5 162.2 397.5C159.383 397.5 157.1 399.783 157.1 402.6C157.1 405.417 159.383 407.7 162.2 407.7Z" fill="#DDAF91"/>
<path d="M287.1 562.4C290.524 562.4 293.3 559.624 293.3 556.2C293.3 552.776 290.524 550 287.1 550C283.676 550 280.9 552.776 280.9 556.2C280.9 559.624 283.676 562.4 287.1 562.4Z" fill="white"/>
<path d="M162.2 395.3C162.2 395.3 162.2 403.8 162.2 411.4C162.2 418.9 172.6 430.4 183.8 430.4C195 430.4 205.4 419 205.4 411.4C205.4 403.9 205.4 395.3 205.4 395.3L203.7 385.9L194.6 379.4L163.4 382.1L162.2 395.3Z" fill="#F9CEA6"/>
<path d="M201.7 391.4C201.7 391 204.5 385.4 204.5 385.4C204.5 385.4 201.8 382.3 200.5 381C199.2 379.7 202 378.8 203.7 378.8C205.4 378.8 207.4 379.8 207.4 378.3C207.4 376.8 205.5 370.1 200.8 367.6C196.2 365.1 189.7 364.6 186.1 368.1C182.5 371.6 181.1 369.3 175 369.3C168.9 369.3 159.4 375.1 159.4 383.1C159.4 391.1 161.2 396.6 162.6 396.6C164 396.6 162.6 390.5 165.5 388.6C168.4 386.7 173.6 384.6 176.3 388C179 391.4 182.8 391.8 185.7 391.8C188.6 391.8 190.2 388.9 192 386.6C193.8 384.3 196.7 384.1 198.3 386.9C199.8 389.7 201.7 391.4 201.7 391.4Z" fill="#F9C573"/>
<path d="M174.5 408C173.4 408 172.5 407.1 172.5 406V403.6C172.5 402.5 173.4 401.6 174.5 401.6C175.6 401.6 176.5 402.5 176.5 403.6V406C176.5 407.1 175.6 408 174.5 408Z" fill="#00031A"/>
<path d="M193.8 408C192.7 408 191.8 407.1 191.8 406V403.6C191.8 402.5 192.7 401.6 193.8 401.6C194.9 401.6 195.8 402.5 195.8 403.6V406C195.9 407.1 195 408 193.8 408Z" fill="#00031A"/>
<path d="M183.7 417C183.7 417 176.2 413.6 176.2 417.7C176.2 421.8 179.6 422.9 183.9 422.9C188.2 422.9 191.6 421.7 191.6 417.7C191.6 413.7 183.9 417 183.7 417Z" fill="#806D5C"/>
<path d="M183.7 420.2C190.6 420.2 192.4 417.3 193.2 413.4C191.9 415.3 188.4 415.5 183.7 415.5C178.9 415.5 175.5 415.2 174.2 413.4C175.1 417.2 176.8 420.2 183.7 420.2Z" fill="#FFF1D3"/>
<path d="M225.8 424.5C225.8 424.5 220 421.8 220 425C220 428.2 222.7 429 225.9 429C229.2 429 231.8 428.1 231.8 425C231.8 421.9 225.9 424.5 225.8 424.5Z" fill="#806D5C"/>
<path d="M225.8 426.9C231.1 426.9 232.6 424.6 233.2 421.7C232.2 423.1 229.5 423.3 225.8 423.3C222.1 423.3 219.4 423.1 218.4 421.7C219.1 424.7 220.5 426.9 225.8 426.9Z" fill="#FFF1D3"/>
<path d="M184 411.1C183.2 411.1 182.5 410.5 182.5 409.6V405.4C182.5 404.6 183.1 403.9 184 403.9C184.8 403.9 185.5 404.5 185.5 405.4V409.6C185.4 410.5 184.8 411.1 184 411.1Z" fill="#D3A68C"/>
<path d="M225.9 419.2C225.1 419.2 224.4 418.6 224.4 417.7V413.5C224.4 412.7 225 412 225.9 412C226.7 412 227.4 412.6 227.4 413.5V417.7C227.2 418.6 226.6 419.2 225.9 419.2Z" fill="#D3A68C"/>
<path d="M176.3 397.7H172.7C172.1 397.7 171.6 397 171.6 396.1C171.6 395.2 172.1 394.5 172.7 394.5H176.3C176.9 394.5 177.4 395.2 177.4 396.1C177.4 397 176.9 397.7 176.3 397.7Z" fill="#485159"/>
<path d="M139.9 520.4L143.2 543.9H146.4V520.4H139.9Z" fill="#FFDBAA"/>
<path d="M173.5 520.4L170.2 543.9H167V520.4H173.5Z" fill="#FFDBAA"/>
<path d="M148.4 503.2C145.2 503.2 139.4 505.3 139.4 510.9C139.4 516.5 139.4 520.4 139.4 520.4H145.7V532.1H156.3H156.6H167.2V520.4H173.5C173.5 520.4 173.5 516.5 173.5 510.9C173.5 505.3 167.7 503.2 164.5 503.2H148.4Z" fill="#FC8A5E"/>
<path d="M195.6 397.7H192C191.4 397.7 190.9 397 190.9 396.1C190.9 395.2 191.4 394.5 192 394.5H195.6C196.2 394.5 196.7 395.2 196.7 396.1C196.7 397 196.2 397.7 195.6 397.7Z" fill="#485159"/>
<path d="M190.6 439H188.2V441.4H190.6V439Z" fill="#595B5F"/>
<path d="M190.6 445.3H188.2V447.7H190.6V445.3Z" fill="#595B5F"/>
<path d="M190.6 451.6H188.2V454H190.6V451.6Z" fill="#595B5F"/>
<path d="M141.2 487.8C143.409 487.8 145.2 486.009 145.2 483.8C145.2 481.591 143.409 479.8 141.2 479.8C138.991 479.8 137.2 481.591 137.2 483.8C137.2 486.009 138.991 487.8 141.2 487.8Z" fill="#E0B393"/>
<path d="M147.8 500.1C147.8 500.1 147.8 502.1 147.8 504.5C147.8 507 150.6 511.9 156.1 511.9H156.5C162 511.9 164.8 506.9 164.8 504.5C164.8 502 164.8 500.1 164.8 500.1H147.8Z" fill="#E0B394"/>
<path d="M171.6 487.8C173.809 487.8 175.6 486.009 175.6 483.8C175.6 481.591 173.809 479.8 171.6 479.8C169.391 479.8 167.6 481.591 167.6 483.8C167.6 486.009 169.391 487.8 171.6 487.8Z" fill="#E0B393"/>
<path d="M141.2 475.6C141.2 475.6 141.2 484.4 141.2 491.1C141.2 497.8 149.4 505.5 156.4 505.5C163.4 505.5 171.6 497.8 171.6 491.1C171.6 484.4 171.6 475.6 171.6 475.6V468.5H141.2V475.6Z" fill="#F8CCA5"/>
<path d="M138.4 471.8C138.4 466.8 142 457.4 156.8 457.4C173.2 457.4 177.7 468.8 177.7 475.1C177.7 481.4 175.3 470.8 169.9 470.8C164.5 470.8 160 473.6 155.7 473.6C151.3 473.6 152.8 471.3 150.3 471.3C147.8 471.3 146.5 477.1 142.4 477.1C138.2 477.1 138.4 471.8 138.4 471.8Z" fill="#666666"/>
<path d="M187 492.1C189.209 492.1 191 490.309 191 488.1C191 485.89 189.209 484.1 187 484.1C184.791 484.1 183 485.89 183 488.1C183 490.309 184.791 492.1 187 492.1Z" fill="#E3B494"/>
<path d="M220.7 492.1C222.909 492.1 224.7 490.309 224.7 488.1C224.7 485.89 222.909 484.1 220.7 484.1C218.491 484.1 216.7 485.89 216.7 488.1C216.7 490.309 218.491 492.1 220.7 492.1Z" fill="#E3B494"/>
<path d="M148.9 489.4C148.1 489.4 147.5 488.8 147.5 488V486.4C147.5 485.6 148.1 485 148.9 485C149.7 485 150.3 485.6 150.3 486.4V488C150.3 488.8 149.7 489.4 148.9 489.4Z" fill="#00031A"/>
<path d="M163.9 489.4C163.1 489.4 162.5 488.8 162.5 488V486.4C162.5 485.6 163.1 485 163.9 485C164.7 485 165.3 485.6 165.3 486.4V488C165.3 488.8 164.7 489.4 163.9 489.4Z" fill="#00031A"/>
<path d="M156.1 495.8C156.1 495.8 152.2 494 152.2 496.1C152.2 498.2 154 498.8 156.2 498.8C158.4 498.8 160.2 498.2 160.2 496.1C160.2 494 156.1 495.8 156.1 495.8Z" fill="#806D5C"/>
<path d="M156.1 497.4C159.7 497.4 160.6 495.9 161 493.9C160.3 494.9 158.5 495 156.1 495C153.6 495 151.8 494.9 151.2 493.9C151.6 495.9 152.5 497.4 156.1 497.4Z" fill="#FFF1D3"/>
<path d="M156.3 491.5C155.8 491.5 155.3 491.1 155.3 490.5V487.6C155.3 487.1 155.7 486.6 156.3 486.6C156.8 486.6 157.3 487 157.3 487.6V490.5C157.2 491.1 156.8 491.5 156.3 491.5Z" fill="#D3A68C"/>
<path d="M145.7 481.7C145.7 481.7 146.3 478.3 149 478.3C151.7 478.3 152.3 481.7 152.3 481.7H145.7Z" fill="#485159"/>
<path d="M160.6 481.7C160.6 481.7 161.2 478.3 163.9 478.3C166.6 478.3 167.2 481.7 167.2 481.7H160.6Z" fill="#485159"/>
<path d="M145.7 531V552.4H154.2V544.4H156.4H156.3H158.6V552.4H167.1V531H145.7Z" fill="#4A6F93"/>
<path d="M147.7 552.4L150.4 563.7H154.2V552.4H147.7Z" fill="#FDCEA4"/>
<path d="M164.9 552.4L162.2 563.7H158.5V552.4H164.9Z" fill="#FDCEA4"/>
<path d="M150.4 563.7L141.4 566.1V569.5H154.2V563.7H150.4Z" fill="#FA7B50"/>
<path d="M162.2 563.7L171.3 566.1V569.5H158.5V563.7H162.2Z" fill="#FA7B50"/>
<path d="M194 552.4L196.7 563.7H200.4V552.4H194Z" fill="#FCDCA2"/>
<path d="M211.2 552.4L208.5 563.7H204.8V552.4H211.2Z" fill="#FCDCA2"/>
<path d="M196.7 563.7L187.7 566.1V569.5H200.4V563.7H196.7Z" fill="#F0A1B3"/>
<path d="M208.5 563.7L217.6 566.1V569.5H204.8V563.7H208.5Z" fill="#F0A1B3"/>
<path d="M169.4 496.4L174 552.4H198.4L201.8 496.4H169.4Z" fill="#666666"/>
<path d="M187 516.3L189.6 542.5L195.1 533.3L192.2 516.3H187Z" fill="#F7CBA4"/>
<path d="M218.9 516.3L216.3 542.5L210.8 533.3L213.7 516.3H218.9Z" fill="#F7CBA4"/>
<path d="M193.5 507.6C188.5 507.6 184.9 512.8 184.9 516.3C189.7 519.7 190.5 520.4 190.5 520.4C190.5 520.4 191.8 524.9 191.8 530.2C191.8 535.5 185.9 546.2 185.9 551C185.9 555.8 192.8 558.9 202.9 558.9C213 558.9 219.9 555.9 219.9 551C219.9 546.2 214 535.5 214 530.2C214 524.9 215.3 520.4 215.3 520.4C215.3 520.4 216.1 519.7 220.9 516.3C220.9 512.8 217.3 507.6 212.3 507.6H193.5Z" fill="#F4AAB6"/>
<path d="M193.1 505C193.1 505 193.1 506.7 193.1 509.2C193.1 511.7 196.4 516.4 202.9 516.4C209.3 516.4 212.7 511.8 212.7 509.2C212.7 506.7 212.7 505 212.7 505H193.1Z" fill="#E0B394"/>
<path d="M186.5 482.6C186.5 482.6 186.5 488.7 186.5 495.2C186.5 501.7 193.7 510 203.6 510C213.5 510 220.7 501.6 220.7 495.2C220.7 488.8 220.7 482.6 220.7 482.6L209.5 475.6L191.7 477.4L186.5 482.6Z" fill="#F7CBA4"/>
<path d="M186.5 480C186.5 476.3 188.5 468.8 204 468.8C219.5 468.8 220.7 479.4 220.7 479.4V484C220.7 484 218.4 484 214.7 484C211 484 210.1 477.5 206.5 477.5C202.9 477.5 201.7 482.3 195.7 482.3C189.8 482.3 186.5 484.9 186.5 483.1C186.5 481.3 186.5 480 186.5 480Z" fill="#FEC85B"/>
<path d="M211.1 476.2L208.7 474.4C208 473.9 207.9 472.9 208.4 472.2L209.3 471C209.8 470.3 210.8 470.2 211.5 470.7L213.9 472.5C214.6 473 214.7 474 214.2 474.7L213.3 475.9C212.8 476.6 211.8 476.7 211.1 476.2Z" fill="#C1AEFF"/>
<path d="M214.3 482.3L213.5 476.3C213.4 475.5 213.9 474.8 214.7 474.7L220.7 473.9C222.3 473.7 223.3 475.5 222.3 476.7L217.4 483.1C216.5 484.4 214.5 483.8 214.3 482.3Z" fill="#C1AEFF"/>
<path d="M201.9 472.9L207.9 472.1C208.7 472 209.2 471.3 209.1 470.5L208.3 464.5C208.1 462.9 206.1 462.4 205.2 463.7L200.3 470.1C199.3 471.3 200.3 473.1 201.9 472.9Z" fill="#C1AEFF"/>
<path d="M197.8 490.9H194.2C193.6 490.9 193.1 490.4 193.1 489.8C193.1 489.2 193.6 488.7 194.2 488.7H197.8C198.4 488.7 198.9 489.2 198.9 489.8C198.9 490.4 198.4 490.9 197.8 490.9Z" fill="#D3A88A"/>
<path d="M212.4 490.9H208.8C208.2 490.9 207.7 490.4 207.7 489.8C207.7 489.2 208.2 488.7 208.8 488.7H212.4C213 488.7 213.5 489.2 213.5 489.8C213.5 490.4 213 490.9 212.4 490.9Z" fill="#D3A88A"/>
<path d="M203.6 500.8C203.6 500.8 199.7 499 199.7 501.1C199.7 503.2 201.5 503.8 203.6 503.8C205.7 503.8 207.5 503.2 207.5 501.1C207.5 499 203.7 500.8 203.6 500.8Z" fill="#806D5C"/>
<path d="M203.6 502.4C207.1 502.4 208.1 500.9 208.5 498.9C207.8 499.9 206.1 500 203.6 500C201.2 500 199.4 499.9 198.7 498.9C199.2 500.9 200.1 502.4 203.6 502.4Z" fill="#FFF1D3"/>
<path d="M203.6 496.8C203.1 496.8 202.6 496.4 202.6 495.8V493.1C202.6 492.6 203 492.1 203.6 492.1C204.1 492.1 204.6 492.5 204.6 493.1V495.8C204.5 496.4 204.1 496.8 203.6 496.8Z" fill="#D3A68C"/>
<path d="M58.0002 199.1C59.2704 199.1 60.3002 198.07 60.3002 196.8C60.3002 195.53 59.2704 194.5 58.0002 194.5C56.7299 194.5 55.7002 195.53 55.7002 196.8C55.7002 198.07 56.7299 199.1 58.0002 199.1Z" fill="#AFD18F"/>
<path d="M154.1 432.6C155.37 432.6 156.4 431.57 156.4 430.3C156.4 429.03 155.37 428 154.1 428C152.83 428 151.8 429.03 151.8 430.3C151.8 431.57 152.83 432.6 154.1 432.6Z" fill="#E6AEB7"/>
<path d="M261.8 445C263.07 445 264.1 443.971 264.1 442.7C264.1 441.43 263.07 440.4 261.8 440.4C260.53 440.4 259.5 441.43 259.5 442.7C259.5 443.971 260.53 445 261.8 445Z" fill="#BDE4F4"/>
<path d="M413 203.9C414.27 203.9 415.3 202.87 415.3 201.6C415.3 200.33 414.27 199.3 413 199.3C411.73 199.3 410.7 200.33 410.7 201.6C410.7 202.87 411.73 203.9 413 203.9Z" fill="#6EB9D6"/>
<path d="M65.3998 246.8C66.2835 246.8 66.9998 246.083 66.9998 245.2C66.9998 244.316 66.2835 243.6 65.3998 243.6C64.5162 243.6 63.7998 244.316 63.7998 245.2C63.7998 246.083 64.5162 246.8 65.3998 246.8Z" fill="#F4A9B6"/>
<path d="M136.8 280.1C137.684 280.1 138.4 279.384 138.4 278.5C138.4 277.617 137.684 276.9 136.8 276.9C135.917 276.9 135.2 277.617 135.2 278.5C135.2 279.384 135.917 280.1 136.8 280.1Z" fill="#B5D58B"/>
<path d="M143.1 404.4C143.984 404.4 144.7 403.684 144.7 402.8C144.7 401.917 143.984 401.2 143.1 401.2C142.216 401.2 141.5 401.917 141.5 402.8C141.5 403.684 142.216 404.4 143.1 404.4Z" fill="#F6C964"/>
<path d="M295.5 388.8C296.384 388.8 297.1 388.083 297.1 387.2C297.1 386.316 296.384 385.6 295.5 385.6C294.616 385.6 293.9 386.316 293.9 387.2C293.9 388.083 294.616 388.8 295.5 388.8Z" fill="#FEC95B"/>
<path d="M400 427.6C400.884 427.6 401.6 426.884 401.6 426C401.6 425.117 400.884 424.4 400 424.4C399.116 424.4 398.4 425.117 398.4 426C398.4 426.884 399.116 427.6 400 427.6Z" fill="#FEC85B"/>
<path d="M391.9 365.7C392.783 365.7 393.5 364.984 393.5 364.1C393.5 363.216 392.783 362.5 391.9 362.5C391.016 362.5 390.3 363.216 390.3 364.1C390.3 364.984 391.016 365.7 391.9 365.7Z" fill="#E4C977"/>
<path d="M496.5 168.7C497.384 168.7 498.1 167.984 498.1 167.1C498.1 166.216 497.384 165.5 496.5 165.5C495.616 165.5 494.9 166.216 494.9 167.1C494.9 167.984 495.616 168.7 496.5 168.7Z" fill="#FEC95B"/>
<path d="M425.7 171.1C426.584 171.1 427.3 170.384 427.3 169.5C427.3 168.617 426.584 167.9 425.7 167.9C424.816 167.9 424.1 168.617 424.1 169.5C424.1 170.384 424.816 171.1 425.7 171.1Z" fill="#F4AAB6"/>
<path d="M219.9 181.1C220.783 181.1 221.5 180.384 221.5 179.5C221.5 178.617 220.783 177.9 219.9 177.9C219.016 177.9 218.3 178.617 218.3 179.5C218.3 180.384 219.016 181.1 219.9 181.1Z" fill="#AEF9E9"/>
<path d="M468.2 375.6C469.084 375.6 469.8 374.884 469.8 374C469.8 373.117 469.084 372.4 468.2 372.4C467.316 372.4 466.6 373.117 466.6 374C466.6 374.884 467.316 375.6 468.2 375.6Z" fill="#B4D5A7"/>
<path d="M263.2 421.8C264.084 421.8 264.8 421.083 264.8 420.2C264.8 419.316 264.084 418.6 263.2 418.6C262.316 418.6 261.6 419.316 261.6 420.2C261.6 421.083 262.316 421.8 263.2 421.8Z" fill="#EBAEB7"/>
<path d="M282.8 113.8L284.8 119.2L286.9 113.8H282.8Z" fill="#82241F"/>
<path d="M284.8 124.2C285.904 124.2 286.8 123.305 286.8 122.2C286.8 121.096 285.904 120.2 284.8 120.2C283.695 120.2 282.8 121.096 282.8 122.2C282.8 123.305 283.695 124.2 284.8 124.2Z" fill="#FFDD86"/>
<path d="M278.6 124.6L280.6 129.9L282.6 124.6H278.6Z" fill="#82241F"/>
<path d="M280.6 134.9C281.705 134.9 282.6 134.005 282.6 132.9C282.6 131.796 281.705 130.9 280.6 130.9C279.496 130.9 278.6 131.796 278.6 132.9C278.6 134.005 279.496 134.9 280.6 134.9Z" fill="#FFDD86"/>
<path d="M284.8 126.7L286.9 132.1L288.9 126.7H284.8Z" fill="#82241F"/>
<path d="M286.9 137.1C288.004 137.1 288.9 136.204 288.9 135.1C288.9 133.995 288.004 133.1 286.9 133.1C285.795 133.1 284.9 133.995 284.9 135.1C284.9 136.204 285.795 137.1 286.9 137.1Z" fill="#FFDD86"/>
<defs>
<linearGradient id="paint0_linear_615_516" x1="133.3" y1="438.52" x2="496.216" y2="173.896" gradientUnits="userSpaceOnUse">
<stop stop-color="white" stop-opacity="0.1"/>
<stop offset="1" stop-color="white" stop-opacity="0.5"/>
</linearGradient>
<linearGradient id="paint1_linear_615_516" x1="141.739" y1="156.489" x2="435.538" y2="434.638" gradientUnits="userSpaceOnUse">
<stop stop-color="white" stop-opacity="0.5"/>
<stop offset="1" stop-color="white" stop-opacity="0.2"/>
</linearGradient>
<linearGradient id="paint2_linear_615_516" x1="404.434" y1="303.398" x2="243.131" y2="514.004" gradientUnits="userSpaceOnUse">
<stop stop-color="white" stop-opacity="0.1"/>
<stop offset="1" stop-color="white" stop-opacity="0.5"/>
</linearGradient>
<linearGradient id="paint3_linear_615_516" x1="75.6633" y1="421.063" x2="564.72" y2="167.753" gradientUnits="userSpaceOnUse">
<stop stop-color="white" stop-opacity="0.7"/>
<stop offset="1" stop-color="white"/>
</linearGradient>
</defs>
</svg>
