<svg width="548" height="525" viewBox="0 0 548 525" fill="none" xmlns="http://www.w3.org/2000/svg">
<g clip-path="url(#clip0_502_552)">
<path d="M270.7 506.98C232.66 506.864 195.235 497.375 161.735 479.353C128.235 461.331 99.6923 435.332 78.631 403.654C57.5697 371.977 44.6391 335.597 40.9826 297.733C37.3262 259.87 43.0567 221.688 57.6672 186.566C72.2778 151.444 95.3182 120.463 124.751 96.3639C154.183 72.2648 189.101 55.7899 226.415 48.3963C263.73 41.0027 302.292 42.9182 338.69 53.9735C375.088 65.0287 408.201 84.883 435.1 111.78C467.52 144.198 489.585 185.513 498.496 230.486C507.407 275.459 502.763 322.066 485.154 364.397C467.545 406.728 437.763 442.877 399.583 468.261C361.404 493.645 316.547 507.121 270.7 506.98ZM270.7 75.9804C160.1 75.9804 70.2001 165.48 70.2001 275.48C70.2001 385.48 160.1 474.98 270.7 474.98C381.3 474.98 471.2 385.48 471.2 275.48C471.2 165.48 381.3 75.9804 270.7 75.9804Z" fill="url(#paint0_linear_502_552)"/>
<path d="M269.2 435.98C357.566 435.98 429.2 364.346 429.2 275.98C429.2 187.615 357.566 115.98 269.2 115.98C180.835 115.98 109.2 187.615 109.2 275.98C109.2 364.346 180.835 435.98 269.2 435.98Z" fill="url(#paint1_linear_502_552)"/>
<path d="M290.2 480.98C184.8 480.98 102.2 431.58 102.2 368.48C102.2 305.38 184.8 255.98 290.2 255.98C395.6 255.98 478.2 305.38 478.2 368.48C478.2 431.58 395.6 480.98 290.2 480.98ZM290.2 291.98C247.8 291.98 208.2 300.98 178.7 317.38C152.9 331.68 138.2 350.28 138.2 368.48C138.2 386.68 153 405.28 178.7 419.58C208.2 435.98 247.8 444.98 290.2 444.98C332.6 444.98 372.2 435.98 401.7 419.58C427.5 405.28 442.2 386.68 442.2 368.48C442.2 350.28 427.4 331.68 401.7 317.38C372.2 300.98 332.6 291.98 290.2 291.98Z" fill="url(#paint2_linear_502_552)"/>
<path d="M283.3 524.38C282.781 524.389 282.264 524.295 281.781 524.104C281.299 523.912 280.858 523.627 280.486 523.264C280.114 522.902 279.818 522.469 279.614 521.991C279.411 521.513 279.304 520.999 279.3 520.48C279.294 519.425 279.697 518.408 280.424 517.644C281.151 516.879 282.146 516.426 283.2 516.38C288.8 516.28 294.4 515.98 299.9 515.58C300.425 515.54 300.953 515.605 301.454 515.769C301.954 515.934 302.417 516.196 302.816 516.539C303.216 516.883 303.543 517.302 303.781 517.772C304.018 518.242 304.161 518.755 304.2 519.28C304.239 519.805 304.175 520.333 304.01 520.833C303.846 521.334 303.584 521.797 303.241 522.196C302.897 522.595 302.478 522.923 302.008 523.161C301.538 523.398 301.025 523.54 300.5 523.58C294.8 523.98 289 524.28 283.3 524.38ZM264.3 524.08H264.1C258.4 523.78 252.6 523.28 246.9 522.68C245.94 522.461 245.095 521.896 244.525 521.093C243.956 520.29 243.703 519.305 243.814 518.327C243.926 517.349 244.394 516.446 245.129 515.792C245.865 515.137 246.816 514.777 247.8 514.78C253.3 515.38 259 515.88 264.5 516.18C265.437 516.352 266.282 516.853 266.883 517.593C267.484 518.333 267.801 519.263 267.776 520.215C267.752 521.168 267.389 522.081 266.752 522.789C266.114 523.498 265.245 523.955 264.3 524.08ZM319.1 521.48C318.137 521.419 317.229 521.012 316.542 520.334C315.856 519.656 315.438 518.753 315.364 517.791C315.291 516.829 315.568 515.873 316.145 515.099C316.721 514.325 317.557 513.785 318.5 513.58C324 512.78 329.5 511.78 335 510.68C335.513 510.557 336.046 510.541 336.566 510.633C337.085 510.724 337.581 510.922 338.021 511.212C338.462 511.503 338.838 511.88 339.127 512.322C339.415 512.764 339.611 513.26 339.7 513.78C339.812 514.292 339.821 514.822 339.725 515.338C339.629 515.854 339.43 516.346 339.142 516.784C338.853 517.222 338.479 517.598 338.042 517.889C337.606 518.18 337.115 518.381 336.6 518.48C331 519.68 325.3 520.68 319.6 521.48H319.1ZM228.5 519.98C228.262 519.996 228.024 519.962 227.8 519.88C222.2 518.88 216.5 517.68 210.9 516.38C209.866 516.141 208.968 515.501 208.406 514.601C207.843 513.701 207.661 512.614 207.9 511.58C208.139 510.545 208.779 509.648 209.679 509.086C210.579 508.523 211.666 508.341 212.7 508.58C218.1 509.88 223.6 510.98 229.1 511.98C230.13 512.175 231.042 512.766 231.64 513.626C232.238 514.486 232.475 515.547 232.3 516.58C232.203 517.518 231.76 518.386 231.057 519.014C230.355 519.643 229.443 519.987 228.5 519.98ZM354.3 513.98C353.441 513.962 352.61 513.672 351.927 513.15C351.243 512.629 350.744 511.904 350.5 511.08C350.355 510.574 350.313 510.045 350.376 509.522C350.439 509 350.606 508.496 350.867 508.039C351.128 507.583 351.477 507.183 351.895 506.863C352.313 506.544 352.791 506.312 353.3 506.18C358.6 504.68 364 502.98 369.2 501.18C369.699 501.009 370.227 500.938 370.753 500.972C371.28 501.005 371.794 501.141 372.268 501.374C372.741 501.606 373.165 501.929 373.513 502.325C373.862 502.72 374.129 503.181 374.3 503.68C374.471 504.179 374.541 504.707 374.508 505.233C374.475 505.759 374.338 506.274 374.106 506.748C373.874 507.221 373.551 507.644 373.155 507.993C372.76 508.342 372.299 508.609 371.8 508.78C366.4 510.68 360.9 512.38 355.4 513.98H354.3ZM193.6 511.48C193.193 511.462 192.79 511.395 192.4 511.28C186.9 509.58 181.5 507.68 176.1 505.68C175.608 505.489 175.157 505.204 174.775 504.839C174.393 504.475 174.087 504.039 173.873 503.556C173.659 503.073 173.543 502.553 173.531 502.025C173.518 501.497 173.61 500.972 173.8 500.48C173.99 499.987 174.276 499.537 174.64 499.155C175.005 498.773 175.441 498.466 175.924 498.253C176.407 498.039 176.927 497.923 177.455 497.91C177.982 497.898 178.508 497.989 179 498.18C184.2 500.18 189.5 501.98 194.8 503.68C195.7 503.975 196.466 504.581 196.961 505.388C197.457 506.195 197.649 507.152 197.505 508.088C197.361 509.024 196.89 509.879 196.175 510.5C195.459 511.121 194.547 511.468 193.6 511.48ZM388.1 501.98C387.32 501.969 386.558 501.738 385.904 501.313C385.249 500.889 384.728 500.288 384.4 499.58C383.986 498.597 383.974 497.492 384.367 496.501C384.76 495.51 385.526 494.712 386.5 494.28C391.6 492.08 396.7 489.68 401.6 487.18C402.555 486.702 403.66 486.624 404.673 486.961C405.685 487.299 406.523 488.025 407 488.98C407.477 489.935 407.556 491.04 407.218 492.053C406.881 493.065 406.155 493.902 405.2 494.38C400.1 496.98 394.9 499.38 389.6 501.68C389.13 501.895 388.616 501.997 388.1 501.98ZM160 498.58C159.409 498.591 158.824 498.453 158.3 498.18C153.1 495.78 147.9 493.18 142.9 490.48C142.388 490.261 141.927 489.938 141.547 489.531C141.167 489.124 140.876 488.642 140.693 488.116C140.51 487.59 140.439 487.032 140.484 486.477C140.53 485.922 140.69 485.382 140.956 484.893C141.221 484.404 141.586 483.975 142.027 483.635C142.468 483.295 142.975 483.05 143.516 482.917C144.056 482.784 144.619 482.765 145.167 482.862C145.716 482.959 146.238 483.17 146.7 483.48C151.6 486.08 156.7 488.58 161.7 490.88C162.18 491.096 162.612 491.405 162.973 491.788C163.333 492.172 163.614 492.622 163.8 493.115C163.986 493.607 164.072 494.131 164.055 494.657C164.038 495.183 163.917 495.701 163.7 496.18C163.372 496.888 162.851 497.489 162.196 497.914C161.542 498.338 160.78 498.569 160 498.58ZM420.1 485.58C419.416 485.589 418.743 485.418 418.146 485.085C417.549 484.751 417.051 484.267 416.7 483.68C416.429 483.227 416.25 482.725 416.174 482.204C416.098 481.682 416.126 481.15 416.256 480.638C416.386 480.127 416.616 479.647 416.932 479.225C417.249 478.803 417.646 478.448 418.1 478.18C422.9 475.28 427.6 472.28 432.2 469.08C432.633 468.778 433.122 468.564 433.638 468.451C434.154 468.338 434.687 468.327 435.207 468.42C435.727 468.513 436.224 468.707 436.669 468.992C437.114 469.277 437.498 469.646 437.8 470.08C438.102 470.513 438.316 471.002 438.429 471.518C438.542 472.034 438.553 472.567 438.46 473.087C438.367 473.607 438.173 474.104 437.888 474.548C437.603 474.993 437.233 475.378 436.8 475.68C432.1 478.88 427.2 482.08 422.3 484.98C421.625 485.351 420.87 485.557 420.1 485.58ZM128.3 481.48C127.557 481.482 126.829 481.274 126.2 480.88C121.3 477.88 116.5 474.58 111.9 471.28C111.038 470.657 110.459 469.716 110.29 468.666C110.121 467.616 110.377 466.542 111 465.68C111.623 464.818 112.563 464.239 113.614 464.07C114.664 463.901 115.738 464.157 116.6 464.78C121.1 467.98 125.8 471.18 130.5 474.08C131.401 474.637 132.044 475.53 132.288 476.561C132.531 477.592 132.356 478.678 131.8 479.58C131.433 480.175 130.917 480.663 130.303 480.996C129.689 481.33 128.999 481.496 128.3 481.48ZM449.6 464.98C449.003 464.985 448.412 464.853 447.874 464.593C447.337 464.332 446.866 463.952 446.5 463.48C445.841 462.656 445.535 461.605 445.647 460.556C445.76 459.508 446.282 458.546 447.1 457.88C451.4 454.38 455.7 450.68 459.8 446.98C460.582 446.25 461.622 445.862 462.691 445.899C463.76 445.937 464.771 446.397 465.5 447.18C466.229 447.962 466.618 449.002 466.581 450.071C466.543 451.14 466.082 452.15 465.3 452.88C461.1 456.78 456.7 460.48 452.2 464.08C451.478 464.698 450.549 465.019 449.6 464.98ZM99.1 460.38C98.1861 460.387 97.2997 460.068 96.6 459.48C92.2 455.78 87.8 451.98 83.6 448.08C83.2126 447.719 82.9001 447.285 82.6804 446.803C82.4607 446.321 82.3381 445.801 82.3195 445.271C82.3009 444.742 82.3868 444.214 82.5722 443.718C82.7576 443.222 83.0389 442.767 83.4 442.38C83.7611 441.992 84.195 441.68 84.6769 441.46C85.1588 441.241 85.6793 441.118 86.2086 441.099C86.7379 441.081 87.2656 441.167 87.7617 441.352C88.2579 441.537 88.7126 441.819 89.1 442.18C93.2 445.98 97.4 449.68 101.7 453.28C102.503 453.96 103.006 454.929 103.1 455.977C103.193 457.025 102.87 458.068 102.2 458.88C101.834 459.352 101.363 459.732 100.826 459.993C100.288 460.253 99.6973 460.385 99.1 460.38ZM476 440.58C474.991 440.58 474.022 440.185 473.3 439.48C472.526 438.745 472.072 437.737 472.035 436.671C471.997 435.605 472.38 434.567 473.1 433.78C476.9 429.68 480.6 425.48 484.1 421.18C484.408 420.716 484.809 420.321 485.277 420.02C485.746 419.72 486.273 419.521 486.823 419.436C487.373 419.35 487.935 419.381 488.473 419.526C489.011 419.67 489.512 419.925 489.946 420.275C490.379 420.624 490.735 421.061 490.99 421.556C491.245 422.051 491.394 422.593 491.428 423.149C491.461 423.705 491.378 424.262 491.184 424.783C490.99 425.305 490.689 425.781 490.3 426.18C486.7 430.58 482.8 434.98 478.9 439.18C478.569 439.633 478.131 439.998 477.625 440.242C477.119 440.487 476.561 440.603 476 440.58ZM73 435.68C72.4508 435.689 71.9063 435.578 71.405 435.353C70.9038 435.128 70.4583 434.796 70.1 434.38C66.2 430.18 62.4 425.78 58.8 421.38C58.4114 420.981 58.1104 420.505 57.9162 419.983C57.722 419.462 57.639 418.905 57.6723 418.349C57.7056 417.793 57.8546 417.251 58.1098 416.756C58.365 416.261 58.7207 415.824 59.1541 415.475C59.5876 415.125 60.0892 414.87 60.627 414.726C61.1647 414.581 61.7267 414.55 62.277 414.636C62.8273 414.721 63.3537 414.92 63.8226 415.22C64.2915 415.521 64.6925 415.916 65 416.38C68.5 420.68 72.2 424.98 76 428.98C76.7178 429.768 77.0988 430.805 77.0614 431.871C77.0241 432.936 76.5713 433.944 75.8 434.68C75.0118 435.329 74.0214 435.683 73 435.68ZM498.7 412.68C497.879 412.695 497.074 412.45 496.4 411.98C495.545 411.354 494.965 410.423 494.778 409.38C494.592 408.337 494.815 407.263 495.4 406.38C498.6 401.78 501.7 397.08 504.5 392.38C505.044 391.465 505.929 390.803 506.96 390.541C507.992 390.278 509.085 390.436 510 390.98C510.915 391.523 511.577 392.408 511.839 393.44C512.102 394.471 511.944 395.565 511.4 396.48C508.4 401.38 505.3 406.28 502 410.98C501.628 411.509 501.134 411.94 500.559 412.236C499.984 412.532 499.346 412.684 498.7 412.68ZM50.4 407.68C49.7535 407.684 49.1156 407.532 48.5409 407.236C47.9661 406.94 47.4717 406.509 47.1 405.98C43.8 401.28 40.6 396.38 37.6 391.58C37.0968 390.68 36.9603 389.621 37.2191 388.623C37.4779 387.625 38.112 386.766 38.989 386.224C39.8661 385.682 40.9185 385.5 41.9266 385.715C42.9347 385.931 43.8208 386.527 44.4 387.38C47.3 392.08 50.4 396.78 53.6 401.38C53.905 401.812 54.1211 402.301 54.236 402.817C54.3508 403.334 54.362 403.868 54.269 404.389C54.176 404.909 53.9806 405.407 53.6941 405.851C53.4076 406.296 53.0357 406.68 52.6 406.98C51.9704 407.462 51.1924 407.709 50.4 407.68ZM517.2 381.88C516.577 381.891 515.96 381.754 515.4 381.48C514.925 381.246 514.501 380.92 514.153 380.521C513.805 380.122 513.539 379.658 513.372 379.156C513.204 378.654 513.138 378.123 513.177 377.595C513.217 377.067 513.36 376.552 513.6 376.08C516.1 371.08 518.4 365.98 520.6 360.88C520.752 360.331 521.019 359.821 521.384 359.384C521.75 358.946 522.204 358.592 522.717 358.345C523.23 358.097 523.79 357.962 524.359 357.948C524.928 357.935 525.494 358.043 526.018 358.265C526.543 358.488 527.013 358.82 527.399 359.239C527.785 359.658 528.076 360.155 528.254 360.696C528.432 361.237 528.493 361.81 528.432 362.376C528.371 362.943 528.189 363.489 527.9 363.98C525.7 369.28 523.3 374.58 520.7 379.68C520.399 380.351 519.905 380.918 519.283 381.309C518.66 381.7 517.935 381.899 517.2 381.88ZM31.8 376.88C31.0545 376.885 30.3225 376.682 29.6864 376.293C29.0503 375.904 28.5354 375.346 28.2 374.68C25.6 369.58 23.1 364.28 20.8 359.08C20.3757 358.099 20.3585 356.989 20.7523 355.995C21.1462 355.001 21.9187 354.204 22.9 353.78C23.8813 353.355 24.991 353.338 25.9849 353.732C26.9789 354.126 27.7757 354.898 28.2 355.88C30.4 360.98 32.8 366.08 35.3 370.98C35.7755 371.924 35.8639 373.017 35.5464 374.025C35.229 375.033 34.5307 375.878 33.6 376.38C33.066 376.728 32.4372 376.903 31.8 376.88ZM530.9 348.58C530.461 348.555 530.026 348.488 529.6 348.38C528.613 348.038 527.799 347.323 527.332 346.389C526.864 345.455 526.781 344.375 527.1 343.38C528.8 338.08 530.4 332.68 531.8 327.38C532.065 326.345 532.73 325.459 533.649 324.915C534.568 324.371 535.666 324.215 536.7 324.48C537.734 324.745 538.621 325.41 539.165 326.329C539.709 327.248 539.865 328.345 539.6 329.38C538.2 334.98 536.6 340.48 534.8 345.98C534.472 346.745 533.929 347.398 533.237 347.859C532.544 348.321 531.732 348.571 530.9 348.58ZM17.6 343.88C16.7639 343.883 15.9476 343.625 15.266 343.141C14.5844 342.656 14.0717 341.971 13.8 341.18C11.9 335.78 10.2 330.18 8.7 324.68C8.51984 324.162 8.44808 323.612 8.4892 323.066C8.53032 322.519 8.68344 321.986 8.93903 321.501C9.19463 321.016 9.54724 320.589 9.97498 320.245C10.4027 319.902 10.8964 319.651 11.4255 319.507C11.9545 319.362 12.5076 319.328 13.0503 319.407C13.593 319.485 14.1138 319.674 14.5803 319.963C15.0468 320.251 15.4491 320.632 15.7621 321.082C16.0752 321.532 16.2923 322.042 16.4 322.58C17.9 327.88 19.5 333.28 21.3 338.58C21.4729 339.079 21.5454 339.607 21.5132 340.134C21.481 340.661 21.3447 341.176 21.1123 341.651C20.8799 342.125 20.5559 342.548 20.1591 342.896C19.7622 343.245 19.3003 343.511 18.8 343.68C18.4136 343.812 18.0083 343.879 17.6 343.88ZM539.7 313.68C539.462 313.696 539.224 313.662 539 313.58C538.481 313.495 537.984 313.308 537.537 313.031C537.091 312.754 536.703 312.391 536.396 311.964C536.09 311.537 535.87 311.053 535.751 310.541C535.632 310.029 535.614 309.499 535.7 308.98C536.7 303.48 537.4 297.98 538 292.38C538.106 291.319 538.629 290.344 539.454 289.669C540.28 288.993 541.339 288.674 542.4 288.78C543.461 288.886 544.436 289.409 545.111 290.234C545.786 291.059 546.106 292.119 546 293.18C545.4 298.88 544.6 304.68 543.6 310.28C543.482 311.227 543.019 312.098 542.299 312.725C541.58 313.352 540.654 313.692 539.7 313.68ZM8.3 309.08C7.36057 309.095 6.44747 308.769 5.73023 308.162C5.01298 307.555 4.54032 306.709 4.4 305.78C3.3 300.18 2.4 294.38 1.8 288.78C1.79723 287.795 2.15756 286.845 2.81203 286.109C3.4665 285.374 4.36914 284.906 5.34722 284.794C6.3253 284.683 7.31012 284.936 8.11321 285.505C8.91631 286.075 9.48128 286.92 9.7 287.88C10.4 293.38 11.2 298.88 12.3 304.38C12.4013 304.899 12.3987 305.433 12.2924 305.951C12.1861 306.469 11.9781 306.96 11.6805 307.397C11.3829 307.834 11.0016 308.208 10.5587 308.497C10.1158 308.786 9.61998 308.984 9.1 309.08H8.3ZM543.2 277.88H543.1C542.575 277.867 542.057 277.75 541.577 277.537C541.096 277.324 540.663 277.019 540.3 276.638C539.938 276.257 539.655 275.809 539.466 275.318C539.277 274.828 539.187 274.305 539.2 273.78C539.3 271.78 539.3 269.68 539.3 267.58C539.3 264.08 539.2 260.48 539.1 256.98C539.047 255.919 539.418 254.88 540.13 254.093C540.843 253.305 541.839 252.833 542.9 252.78C543.961 252.727 544.999 253.097 545.787 253.81C546.575 254.523 547.047 255.519 547.1 256.58C547.3 260.18 547.3 263.88 547.3 267.48C547.3 269.58 547.3 271.78 547.2 273.88C547.2 274.405 547.096 274.925 546.896 275.411C546.695 275.896 546.4 276.337 546.028 276.708C545.657 277.08 545.216 277.374 544.731 277.575C544.245 277.776 543.725 277.88 543.2 277.88ZM4.2 273.38C3.17289 273.381 2.18465 272.987 1.44 272.28C0.695346 271.572 0.251355 270.606 0.200001 269.58C0.100001 266.18 0 262.68 0 259.28C0 256.98 2.28733e-06 254.68 0.100002 252.38C0.126524 251.319 0.573386 250.312 1.34229 249.581C2.11118 248.849 3.13913 248.453 4.2 248.48C5.26087 248.506 6.26775 248.953 6.99914 249.722C7.73053 250.491 8.12652 251.519 8.1 252.58C8 254.78 8 257.08 8 259.28C8 262.58 8.1 265.98 8.2 269.28C8.22693 269.805 8.14994 270.331 7.97343 270.826C7.79692 271.322 7.52437 271.778 7.17139 272.168C6.8184 272.558 6.39191 272.875 5.91636 273.1C5.4408 273.325 4.92551 273.454 4.4 273.48C4.3 273.38 4.3 273.38 4.2 273.38ZM541.5 241.98C540.525 241.971 539.586 241.613 538.852 240.97C538.118 240.328 537.639 239.445 537.5 238.48C536.8 232.98 536 227.38 534.9 221.98C534.701 220.932 534.927 219.848 535.527 218.967C536.127 218.086 537.052 217.479 538.1 217.28C539.148 217.081 540.231 217.306 541.113 217.906C541.994 218.507 542.601 219.432 542.8 220.48C543.9 226.08 544.8 231.88 545.5 237.48C545.57 238.006 545.535 238.54 545.396 239.052C545.257 239.564 545.018 240.044 544.692 240.463C544.367 240.882 543.961 241.231 543.499 241.492C543.036 241.752 542.527 241.918 542 241.98H541.5ZM5.4 237.48H5C4.47371 237.43 3.96256 237.276 3.49607 237.027C3.02959 236.779 2.61704 236.44 2.28228 236.031C1.94752 235.622 1.69718 235.15 1.54574 234.644C1.3943 234.137 1.34477 233.606 1.4 233.08C2 227.38 2.8 221.68 3.8 215.98C3.82299 215.409 3.9681 214.849 4.22556 214.339C4.48302 213.829 4.84686 213.379 5.29255 213.022C5.73824 212.664 6.25543 212.406 6.8093 212.264C7.36317 212.123 7.94085 212.103 8.50342 212.204C9.06599 212.305 9.60039 212.525 10.0706 212.85C10.5408 213.175 10.936 213.597 11.2294 214.087C11.5228 214.578 11.7077 215.125 11.7717 215.693C11.8356 216.261 11.7771 216.836 11.6 217.38C10.6 222.88 9.8 228.48 9.3 233.98C9.1985 234.942 8.74351 235.833 8.02308 236.48C7.30265 237.126 6.368 237.483 5.4 237.48ZM534.5 206.78C533.625 206.779 532.773 206.496 532.071 205.974C531.369 205.452 530.853 204.718 530.6 203.88C529.1 198.58 527.5 193.18 525.6 187.88C525.429 187.381 525.359 186.853 525.392 186.327C525.425 185.8 525.562 185.286 525.794 184.812C526.026 184.338 526.349 183.915 526.745 183.567C527.14 183.218 527.601 182.951 528.1 182.78C528.599 182.609 529.127 182.538 529.653 182.572C530.18 182.605 530.694 182.741 531.168 182.974C531.641 183.206 532.065 183.529 532.413 183.925C532.762 184.32 533.029 184.781 533.2 185.28C535.1 190.68 536.8 196.28 538.3 201.78C538.576 202.801 538.436 203.889 537.911 204.808C537.387 205.726 536.52 206.399 535.5 206.68C535.2 206.68 534.9 206.78 534.5 206.78ZM11.7 202.08C11.3636 202.096 11.0265 202.062 10.7 201.98C9.6705 201.707 8.78955 201.04 8.24707 200.123C7.70459 199.207 7.54402 198.114 7.8 197.08C9.2 191.48 10.9 185.98 12.7 180.48C13.0448 179.472 13.7758 178.642 14.7322 178.174C15.6887 177.705 16.7922 177.635 17.8 177.98C18.8078 178.325 19.6374 179.056 20.1062 180.012C20.5751 180.968 20.6448 182.072 20.3 183.08C18.6 188.38 17 193.78 15.6 199.08C15.3695 199.939 14.8626 200.698 14.1578 201.24C13.453 201.782 12.5893 202.077 11.7 202.08ZM522.6 172.88C521.82 172.869 521.058 172.638 520.404 172.213C519.749 171.789 519.228 171.188 518.9 170.48C516.7 165.38 514.3 160.28 511.7 155.38C511.457 154.914 511.308 154.404 511.262 153.88C511.216 153.357 511.274 152.829 511.432 152.328C511.59 151.826 511.845 151.361 512.182 150.958C512.52 150.555 512.934 150.223 513.4 149.98C513.866 149.737 514.376 149.588 514.899 149.542C515.423 149.496 515.951 149.554 516.452 149.711C516.954 149.869 517.419 150.124 517.822 150.462C518.225 150.8 518.557 151.214 518.8 151.68C521.4 156.78 523.9 161.98 526.2 167.28C526.464 167.883 526.574 168.543 526.521 169.199C526.469 169.856 526.255 170.489 525.899 171.043C525.543 171.597 525.055 172.055 524.48 172.375C523.904 172.696 523.259 172.869 522.6 172.88ZM23.2 167.98C22.6854 167.977 22.176 167.875 21.7 167.68C20.7381 167.262 19.9789 166.482 19.5861 165.509C19.1933 164.537 19.1983 163.449 19.6 162.48C21.8 157.18 24.3 151.88 26.9 146.78C27.3774 145.825 28.2145 145.099 29.2272 144.761C30.2399 144.424 31.3452 144.502 32.3 144.98C33.2548 145.457 33.9808 146.294 34.3184 147.307C34.6559 148.32 34.5774 149.425 34.1 150.38C31.6 155.38 29.2 160.48 27.1 165.58C26.7193 166.288 26.158 166.883 25.4731 167.305C24.7882 167.726 24.004 167.959 23.2 167.98ZM505.9 140.98C505.218 140.979 504.548 140.804 503.953 140.472C503.358 140.139 502.858 139.66 502.5 139.08C499.6 134.38 496.5 129.68 493.3 125.08C492.69 124.205 492.453 123.123 492.64 122.073C492.828 121.022 493.425 120.09 494.3 119.48C495.175 118.87 496.257 118.632 497.307 118.82C498.357 119.008 499.29 119.605 499.9 120.48C503.2 125.18 506.4 129.98 509.4 134.88C509.956 135.782 510.131 136.868 509.888 137.899C509.644 138.93 509.001 139.822 508.1 140.38C507.429 140.763 506.672 140.969 505.9 140.98ZM39.6 135.98C38.8593 135.968 38.1348 135.761 37.5 135.38C37.0467 135.11 36.6522 134.752 36.3402 134.327C36.0281 133.902 35.8047 133.419 35.6834 132.906C35.5621 132.392 35.5453 131.86 35.6341 131.34C35.7228 130.82 35.9153 130.324 36.2 129.88C39.2 124.98 42.4 120.08 45.7 115.38C46.31 114.505 47.2427 113.908 48.2929 113.72C49.3431 113.532 50.4248 113.77 51.3 114.38C52.1752 114.99 52.7723 115.922 52.9598 116.973C53.1473 118.023 52.91 119.105 52.3 119.98C49.1 124.48 46 129.28 43.1 133.98C42.7232 134.573 42.2075 135.065 41.5976 135.413C40.9877 135.762 40.302 135.956 39.6 135.98ZM485.1 111.58C484.503 111.585 483.912 111.453 483.374 111.193C482.837 110.932 482.366 110.552 482 110.08C478.5 105.78 474.8 101.58 471 97.4798C470.282 96.6919 469.901 95.6543 469.939 94.5891C469.976 93.5238 470.429 92.5155 471.2 91.7798C471.585 91.4146 472.039 91.1298 472.536 90.9419C473.032 90.754 473.561 90.6668 474.092 90.6854C474.622 90.7041 475.144 90.8281 475.626 91.0503C476.108 91.2725 476.541 91.5885 476.9 91.9798C480.8 96.1798 484.6 100.58 488.3 104.98C488.959 105.804 489.265 106.854 489.153 107.903C489.04 108.952 488.518 109.914 487.7 110.58C486.987 111.223 486.061 111.58 485.1 111.58ZM60.4 106.68C59.4861 106.687 58.5997 106.368 57.9 105.78C57.0967 105.1 56.5938 104.131 56.5002 103.082C56.4066 102.034 56.7299 100.991 57.4 100.18C61 95.7798 64.9 91.3798 68.8 87.2798C69.1611 86.8924 69.595 86.5799 70.0769 86.3602C70.5588 86.1405 71.0793 86.0179 71.6086 85.9993C72.1379 85.9807 72.6656 86.0666 73.1618 86.252C73.6579 86.4374 74.1126 86.7187 74.5 87.0798C74.8874 87.4409 75.1999 87.8748 75.4196 88.3567C75.6393 88.8386 75.7619 89.3591 75.7805 89.8884C75.7991 90.4177 75.7132 90.9454 75.5278 91.4416C75.3424 91.9377 75.0611 92.3924 74.7 92.7798C70.9 96.7798 67.2 101.08 63.6 105.28C62.7552 106.144 61.6078 106.646 60.4 106.68ZM460.5 85.3798C459.491 85.3802 458.522 84.9853 457.8 84.2798C453.7 80.4798 449.5 76.7798 445.2 73.1798C444.519 72.4689 444.124 71.5318 444.091 70.548C444.058 69.5641 444.389 68.6026 445.02 67.8474C445.651 67.0921 446.539 66.5963 447.513 66.4547C448.488 66.313 449.48 66.5356 450.3 67.0798C454.7 70.6798 459.1 74.5798 463.3 78.4798C464.074 79.2142 464.528 80.2229 464.565 81.2889C464.603 82.3549 464.22 83.393 463.5 84.1798C462.678 84.9294 461.612 85.3557 460.5 85.3798ZM85.2 80.5798C84.6366 80.5866 84.0781 80.4743 83.5611 80.2503C83.0441 80.0263 82.5803 79.6956 82.2 79.2798C81.841 78.8881 81.5636 78.4287 81.384 77.9286C81.2045 77.4284 81.1264 76.8975 81.1543 76.3669C81.1823 75.8362 81.3156 75.3164 81.5467 74.8379C81.7777 74.3594 82.1018 73.9317 82.5 73.5798C86.7 69.6798 91.1 65.9798 95.6 62.3798C96.4305 61.8298 97.4363 61.6094 98.4206 61.7618C99.405 61.9141 100.297 62.4283 100.922 63.2037C101.548 63.979 101.861 64.9598 101.802 65.9541C101.742 66.9484 101.313 67.8847 100.6 68.5798C96.3 72.0798 92 75.6798 87.9 79.4798C87.5508 79.8403 87.1304 80.1243 86.6656 80.3136C86.2008 80.503 85.7017 80.5936 85.2 80.5798ZM432.6 62.5798C431.779 62.5952 430.974 62.3501 430.3 61.8798C425.8 58.6798 421.1 55.4798 416.4 52.5798C415.929 52.3163 415.516 51.9601 415.186 51.5327C414.856 51.1053 414.616 50.6155 414.481 50.093C414.345 49.5704 414.317 49.0258 414.397 48.492C414.478 47.9581 414.666 47.4461 414.949 46.9868C415.233 46.5275 415.607 46.1304 416.048 45.8193C416.489 45.5083 416.989 45.2898 417.517 45.177C418.045 45.0642 418.59 45.0595 419.12 45.1631C419.65 45.2667 420.153 45.4765 420.6 45.7798C425.5 48.7798 430.3 52.0798 435 55.3798C435.428 55.6875 435.791 56.0767 436.068 56.5252C436.345 56.9736 436.531 57.4723 436.614 57.9927C436.698 58.5131 436.678 59.0449 436.555 59.5575C436.433 60.0702 436.21 60.5535 435.9 60.9798C435.499 61.4697 434.996 61.8665 434.426 62.1427C433.856 62.419 433.233 62.5681 432.6 62.5798ZM113.4 58.2798C112.542 58.2883 111.705 58.021 111.011 57.5172C110.317 57.0135 109.803 56.3 109.545 55.482C109.287 54.664 109.299 53.7849 109.579 52.9742C109.859 52.1636 110.392 51.4644 111.1 50.9798C115.8 47.7798 120.7 44.5798 125.6 41.6798C126.515 41.1361 127.609 40.9782 128.64 41.2407C129.671 41.5033 130.556 42.1648 131.1 43.0798C131.644 43.9948 131.802 45.0883 131.539 46.1197C131.277 47.1512 130.615 48.0361 129.7 48.5798C124.9 51.4798 120.2 54.4798 115.6 57.5798C114.936 57.9913 114.18 58.2318 113.4 58.2798ZM402 43.6798C401.338 43.6554 400.689 43.4847 400.1 43.1798C395.2 40.5798 390.1 38.0798 385.1 35.7798C384.132 35.3422 383.377 34.538 383.002 33.544C382.627 32.5501 382.662 31.4478 383.1 30.4798C383.538 29.5118 384.342 28.7572 385.336 28.3821C386.33 28.0071 387.432 28.0422 388.4 28.4798C393.6 30.8798 398.8 33.3798 403.9 36.0798C404.825 36.5869 405.518 37.4319 405.835 38.4381C406.152 39.4444 406.068 40.5342 405.6 41.4798C405.247 42.1308 404.728 42.677 404.095 43.0633C403.463 43.4496 402.741 43.6622 402 43.6798ZM144.3 39.8798C143.39 39.8928 142.502 39.595 141.784 39.0354C141.066 38.4758 140.56 37.688 140.35 36.8021C140.141 35.9162 140.239 34.9852 140.63 34.163C141.021 33.3408 141.681 32.6764 142.5 32.2798C147.6 29.6798 152.9 27.2798 158.1 24.9798C159.081 24.5555 160.191 24.5383 161.185 24.9321C162.179 25.326 162.976 26.0985 163.4 27.0798C163.824 28.0611 163.841 29.1708 163.448 30.1647C163.054 31.1587 162.281 31.9555 161.3 32.3798C156.2 34.5798 151.1 36.9798 146.1 39.4798C145.54 39.7544 144.923 39.8915 144.3 39.8798ZM369.2 28.7798C368.718 28.7765 368.241 28.6744 367.8 28.4798C362.6 26.4798 357.3 24.6798 352 23.0798C351.075 22.6969 350.328 21.9812 349.905 21.074C349.482 20.1668 349.415 19.134 349.716 18.1796C350.017 17.2251 350.666 16.4184 351.533 15.9186C352.4 15.4187 353.423 15.2622 354.4 15.4798C359.9 17.1798 365.4 19.0798 370.7 21.0798C371.555 21.4311 372.263 22.068 372.701 22.8821C373.14 23.6961 373.283 24.637 373.106 25.5447C372.93 26.4524 372.444 27.2708 371.732 27.8606C371.019 28.4504 370.125 28.7752 369.2 28.7798ZM177.4 25.8798C176.564 25.8834 175.748 25.6249 175.066 25.1406C174.384 24.6563 173.872 23.9705 173.6 23.1798C173.427 22.6809 173.355 22.1527 173.387 21.6257C173.419 21.0986 173.555 20.5832 173.788 20.1091C174.02 19.6349 174.344 19.2115 174.741 18.8632C175.138 18.5149 175.6 18.2487 176.1 18.0798C181.5 16.1798 187 14.4798 192.5 12.8798C193.494 12.6807 194.526 12.8662 195.388 13.3989C196.25 13.9316 196.878 14.7716 197.145 15.7494C197.411 16.7271 197.297 17.7697 196.825 18.6663C196.352 19.5629 195.557 20.2468 194.6 20.5798C189.3 22.0798 183.9 23.7798 178.6 25.5798C178.233 25.7838 177.819 25.8873 177.4 25.8798ZM334.8 18.2798C334.497 18.2961 334.193 18.2623 333.9 18.1798C328.5 16.8798 323 15.7798 317.5 14.7798C316.929 14.7568 316.369 14.6117 315.859 14.3542C315.349 14.0968 314.9 13.7329 314.542 13.2873C314.184 12.8416 313.926 12.3244 313.785 11.7705C313.644 11.2166 313.623 10.6389 313.724 10.0764C313.825 9.51381 314.045 8.97941 314.37 8.50918C314.695 8.03896 315.117 7.64382 315.607 7.35039C316.098 7.05696 316.646 6.87206 317.214 6.80813C317.781 6.7442 318.357 6.80274 318.9 6.9798C324.5 7.9798 330.2 9.1798 335.8 10.4798C336.825 10.7342 337.711 11.3772 338.271 12.2729C338.831 13.1686 339.021 14.2468 338.8 15.2798C338.547 16.145 338.021 16.905 337.299 17.4458C336.578 17.9866 335.701 18.2793 334.8 18.2798ZM212 16.2798C211.024 16.2591 210.089 15.882 209.371 15.2196C208.654 14.5572 208.204 13.6552 208.105 12.6837C208.007 11.7122 208.267 10.7383 208.837 9.94548C209.407 9.15269 210.248 8.59581 211.2 8.3798C216.8 7.1798 222.5 6.1798 228.2 5.3798C229.206 5.31816 230.197 5.63828 230.977 6.27618C231.757 6.91408 232.268 7.82278 232.407 8.82066C232.545 9.81855 232.303 10.8321 231.727 11.6588C231.151 12.4855 230.284 13.0644 229.3 13.2798C223.8 14.0798 218.2 15.0798 212.8 16.1798C212.542 16.2621 212.271 16.296 212 16.2798ZM300.5 12.2798H300C294.5 11.6798 288.8 11.1798 283.3 10.8798C282.775 10.8535 282.26 10.7241 281.785 10.4988C281.309 10.2735 280.883 9.95681 280.53 9.5668C280.177 9.1768 279.905 8.72111 279.728 8.22575C279.551 7.7304 279.474 7.20508 279.5 6.6798C279.526 6.15451 279.656 5.63954 279.881 5.16429C280.106 4.68904 280.423 4.26281 280.813 3.90995C281.203 3.55709 281.659 3.2845 282.154 3.10774C282.649 2.93099 283.175 2.85353 283.7 2.8798C289.4 3.1798 295.2 3.6798 300.9 4.2798C301.423 4.32764 301.931 4.48099 302.394 4.73058C302.856 4.98017 303.263 5.32083 303.59 5.73202C303.917 6.1432 304.158 6.61638 304.297 7.12301C304.436 7.62964 304.471 8.15922 304.4 8.6798C304.336 9.66564 303.895 10.5891 303.169 11.2592C302.444 11.9293 301.488 12.2947 300.5 12.2798ZM247.6 11.2798C246.539 11.3196 245.506 10.9363 244.728 10.2143C243.949 9.49227 243.49 8.49066 243.45 7.4298C243.41 6.36893 243.794 5.33571 244.516 4.55744C245.238 3.77916 246.239 3.31958 247.3 3.2798C253 2.8798 258.8 2.5798 264.5 2.4798C265.025 2.4665 265.548 2.55684 266.039 2.74567C266.529 2.9345 266.977 3.2181 267.358 3.58028C267.739 3.94246 268.044 4.37612 268.258 4.85647C268.471 5.33682 268.587 5.85446 268.6 6.3798C268.606 7.43486 268.203 8.45129 267.476 9.21576C266.749 9.98022 265.754 10.4333 264.7 10.4798C259.1 10.5798 253.5 10.7798 248 11.1798C247.878 11.2494 247.74 11.284 247.6 11.2798Z" fill="url(#paint3_linear_502_552)"/>
<path d="M184.56 239.77C184.56 239.77 191.56 236.7 192.05 230.95C192.54 225.2 190.92 226.95 190.82 221.95C190.72 216.95 198.51 215.08 198.61 203.79C198.71 192.5 187.94 180.51 177.28 180.1C175.28 168.82 165.69 163.28 155.64 163.28C148.483 163.199 141.552 165.787 136.2 170.54C133.2 173.21 130.61 175.62 125.07 176.39C119.53 177.16 107.02 180.6 101.28 189.72C95.5399 198.84 100.28 211.98 99.9399 216.49C99.5999 221 91.5299 227.67 86.6099 231.98C81.6899 236.29 82.6099 246.54 85.9899 254.13C89.3699 261.72 88.4799 266.13 83.1899 272.6C77.8999 279.07 79.6399 287.47 84.1899 290.95C88.7399 294.43 93.0099 296.08 92.4999 303.57C91.9899 311.06 91.9799 314.13 96.7999 318.57C101.62 323.01 142.86 300.63 142.86 300.63L184.56 239.77Z" fill="#665E54"/>
<path d="M98 432.2L100.87 396.49C92.6708 395.824 84.5402 394.487 76.56 392.49C71.5002 391.226 66.7792 388.867 62.73 385.58L62.25 390.34C72.6768 405.5 84.6584 419.529 98 432.2Z" fill="#F6906C"/>
<path d="M241.76 339.27L241.58 339.67C241.58 339.67 242.1 336.67 233.99 339.77C225.88 342.87 213.28 361.52 213.28 361.52C213.28 361.52 209.69 372.85 215.94 381.67C222.19 390.49 219.02 393.31 215.33 405.93C214.33 409.44 219.22 415.13 217.38 421.93V497.24C228.617 499.958 240.022 501.926 251.52 503.13C251.25 469.86 250.58 394.59 249.79 379.51C248.96 363.79 243.76 345.74 241.76 339.27Z" fill="#F6906C"/>
<path d="M241.59 325.21C238.218 323.521 234.333 323.164 230.71 324.21C230.71 324.21 232.25 316.72 226.51 316.1C220.77 315.48 217.89 318.1 217.89 318.1C217.89 318.1 203.95 310.51 198.61 304.98C193.27 299.45 186.89 292.09 180.75 291.87C174.61 291.65 127.69 291.87 127.69 291.87C124.635 293.844 121.918 296.295 119.64 299.13C116.35 303.44 108.97 310.51 92.0498 322C75.1298 333.49 70.1998 341.98 65.9898 351.77C61.7798 361.56 55.5298 378.03 55.5298 378.03C57.5505 380.883 59.9759 383.427 62.7298 385.58C66.779 388.867 71.4999 391.226 76.5598 392.49C84.54 394.487 92.6706 395.825 100.87 396.49L97.9998 432.2C99.3331 433.467 100.686 434.727 102.06 435.98C133.523 464.642 171.478 485.233 212.66 495.98L206.51 462.39C206.51 462.39 212.6 439.39 217.38 421.84C219.22 415.08 220.87 409.13 221.89 405.62C225.58 393.01 225.48 384.62 219.23 375.83C212.98 367.04 213.28 361.47 213.28 361.47C213.28 361.47 225.89 342.8 233.99 339.72C242.09 336.64 241.58 339.62 241.58 339.62L241.76 339.22C242.62 337.21 246.25 327.77 241.59 325.21Z" fill="#F69EAF"/>
<path d="M500.07 384.8C498.63 373.72 497.16 364.67 495.84 360.39C490.71 343.77 353.2 381.31 353.2 381.31L348.45 495.36C410.832 478.334 464.788 438.99 500.07 384.8Z" fill="#205D4A"/>
<path d="M185.69 240.08C185.69 240.08 186.61 228.7 187.23 214.54C187.85 200.38 177.07 188.49 172.87 188.39C168.67 188.29 171.35 194.67 160.66 200.44C149.97 206.21 143.89 201.21 140.05 206.13C136.21 211.05 139.89 216.9 136.66 220.75C133.43 224.6 132.89 227.21 127.58 227.21C122.27 227.21 118.12 229.13 118.12 235.6C118.12 242.07 122.66 246.29 125.35 246.29C128.04 246.29 130.12 247.9 130.35 252.06C130.58 256.22 133.35 272.67 131.51 280.6C129.67 288.53 125.05 297.75 125.05 297.75C125.05 297.75 137.28 318.9 147.58 341.52C154.444 356.971 160.453 372.788 165.58 388.9C165.58 388.9 174.3 367.9 179.02 349.83C183.74 331.76 190.02 305.21 188.02 300.9C186.02 296.59 181.4 294.9 179.55 289.36C177.7 283.82 176.32 272.21 176.94 263.48C177.56 254.75 185.69 240.08 185.69 240.08Z" fill="#F9A982"/>
<path d="M171.45 218.28C175.5 215.15 182.08 214.42 185.89 218.28C185.966 218.369 186.009 218.481 186.011 218.598C186.014 218.715 185.977 218.83 185.905 218.922C185.834 219.015 185.733 219.08 185.619 219.107C185.505 219.134 185.385 219.121 185.28 219.07C182.114 217.856 178.663 217.592 175.35 218.31C174.21 218.53 173.04 218.82 171.89 219.12C171.778 219.146 171.66 219.133 171.557 219.084C171.453 219.035 171.368 218.952 171.317 218.849C171.267 218.746 171.252 218.629 171.276 218.516C171.3 218.404 171.361 218.303 171.45 218.23V218.28Z" fill="#665E54"/>
<path d="M144.2 218.92C148.25 215.78 154.84 215.06 158.65 218.92C158.721 219.011 158.76 219.122 158.76 219.237C158.761 219.352 158.724 219.464 158.654 219.555C158.584 219.647 158.486 219.713 158.375 219.742C158.264 219.772 158.146 219.764 158.04 219.72C154.875 218.504 151.425 218.237 148.11 218.95C146.97 219.17 145.8 219.46 144.65 219.77C144.537 219.8 144.418 219.79 144.311 219.742C144.205 219.694 144.118 219.611 144.066 219.507C144.013 219.403 143.998 219.284 144.022 219.17C144.047 219.056 144.109 218.953 144.2 218.88V218.92Z" fill="#665E54"/>
<path d="M152.39 227.17C153.285 227.17 154.01 226.444 154.01 225.55C154.01 224.655 153.285 223.93 152.39 223.93C151.495 223.93 150.77 224.655 150.77 225.55C150.77 226.444 151.495 227.17 152.39 227.17Z" fill="#03213D"/>
<path d="M179.12 228.06C180.015 228.06 180.74 227.335 180.74 226.44C180.74 225.546 180.015 224.82 179.12 224.82C178.225 224.82 177.5 225.546 177.5 226.44C177.5 227.335 178.225 228.06 179.12 228.06Z" fill="#03213D"/>
<path d="M168.66 225.98C168.66 225.98 168.01 234.56 169.43 238.25C170.85 241.94 175.16 239.33 175.16 239.33C171.764 235.592 169.508 230.96 168.66 225.98Z" fill="#F58562"/>
<path d="M186.46 239.98C186.46 239.98 186.51 253.57 179.89 263.98C173.27 274.39 169.69 276.49 160.46 276.13C151.23 275.77 145.99 271.06 141.28 265.62C136.57 260.18 127.69 247.72 127.69 247.72L129.69 245.72C129.69 245.72 135.12 254.39 137.28 257.11C138.479 258.651 139.799 260.092 141.23 261.42C141.23 261.42 138.35 253.21 138.15 246.7C137.95 240.19 137.69 236.34 137.69 236.34L129.38 227.17L131.84 226.24C131.84 226.24 137.67 233.36 139.27 234.65C140.87 235.94 149 239.01 158.34 238.39C167.68 237.77 168.87 237.06 172.41 237.21C175.95 237.36 185.64 238.13 186.46 239.98Z" fill="#D9E7EF"/>
<path d="M130.74 232.03C130.74 232.03 132.15 240.65 130.17 241.39C128.19 242.13 122.3 241.24 122.02 235.7C121.74 230.16 127.3 229.83 130.74 232.03Z" fill="#F58562"/>
<path d="M127.69 291.9C124.663 293.91 121.95 296.356 119.64 299.16C116.35 303.36 115.57 303.69 115.57 303.69C115.57 303.69 118.28 318.9 118.43 320.13C118.58 321.36 119.2 322.06 120.74 322.13C122.28 322.2 128.35 321.06 129.82 323.6C131.29 326.14 131.89 331.06 134.66 332.36C138.207 333.997 141.947 335.18 145.79 335.88C148.97 336.29 127.69 291.9 127.69 291.9Z" fill="#F9C1C9"/>
<path d="M180.75 291.9C180.75 291.9 186.27 291.18 195.48 301.73C196.32 309.79 196.48 316.25 195.7 317.02C194.92 317.79 189.47 317.02 188.85 319.12C188.23 321.22 189.85 324.48 187.93 327.29C186.01 330.1 182.08 330.9 182.08 330.9L180.75 291.9Z" fill="#F9C1C9"/>
<path d="M230.71 324.19C234.333 323.144 238.218 323.501 241.59 325.19C246.83 328.06 241.59 339.65 241.59 339.65C241.59 339.65 242.11 336.65 234 339.75C225.89 342.85 213.29 361.5 213.29 361.5L213.67 346.96L230.71 324.19Z" fill="url(#paint4_linear_502_552)"/>
<path d="M100.87 396.49C100.87 396.49 105.38 375.98 108.76 366.98C112.14 357.98 114.3 354.37 111.84 347.98C109.38 341.59 103.64 335.88 103.64 335.88L86.5098 357.88C86.5098 357.88 87.3598 365.76 93.0498 371.34C99.6998 377.83 100.87 396.49 100.87 396.49Z" fill="url(#paint5_linear_502_552)"/>
<path d="M217.89 318.13C217.89 318.13 220.76 315.47 226.51 316.13C232.26 316.79 230.71 324.24 230.71 324.24L209.89 352.69L213.28 327.69L217.89 318.13Z" fill="url(#paint6_linear_502_552)"/>
<path d="M213.28 361.51L205.74 341.75L219.12 353.44L213.28 361.51Z" fill="url(#paint7_linear_502_552)"/>
<path d="M280.05 38.4397C280.05 38.4397 280.05 52.5997 281.12 59.0597C282.19 65.5197 283.51 67.8297 285.28 69.2097C287.05 70.5897 290.58 71.3597 290.89 73.5997C291.09 74.9997 291.21 80.2497 291.27 84.7497C291.27 87.3697 291.33 89.7497 291.33 90.9497C291.33 94.2397 293.69 97.0097 296.76 98.3397C299.83 99.6697 307.84 107.67 312.87 111.57C317.9 115.47 326.1 114.65 331.23 112.19C336.36 109.73 339.94 106.13 341.07 106.44C342.2 106.75 350.41 116.9 352.2 125.98C353.99 135.06 353.43 153.88 353.43 153.88L406.87 96.1797C402.639 93.2461 398.629 90.0075 394.87 86.4897C388.71 80.7197 375.87 67.4897 371.7 60.9597C367.53 54.4297 326.87 6.17969 326.87 6.17969L288.51 22.5997L280.05 38.4397Z" fill="#F9A982"/>
<path d="M289.51 67.9805C288.51 68.4405 286.62 65.6005 287.35 63.7905C288.08 61.9805 293.35 56.5605 297.89 55.4405C302.43 54.3205 306.89 55.4405 306.74 56.5605C306.59 57.6805 302.3 57.6205 298.8 60.0805C295.3 62.5405 292.32 66.6705 289.51 67.9805Z" fill="#2C343C"/>
<path d="M298.35 69.9403C299.223 69.9403 299.93 69.2329 299.93 68.3603C299.93 67.4877 299.223 66.7803 298.35 66.7803C297.477 66.7803 296.77 67.4877 296.77 68.3603C296.77 69.2329 297.477 69.9403 298.35 69.9403Z" fill="#03213D"/>
<path d="M336.51 63.4202C337.36 64.2702 339.64 62.7502 342.25 60.4202C344.86 58.0902 345.74 53.5002 343.43 50.4202C341.12 47.3402 337.17 46.0602 333.84 48.2202C330.51 50.3802 329.89 50.6302 329.99 51.3402C331.926 55.4905 334.103 59.5241 336.51 63.4202Z" fill="#F58562"/>
<path d="M348.35 272.13L309.48 293.42L323.64 315.98C323.64 315.98 339.74 309.92 354.51 307.35C369.28 304.78 348.35 272.13 348.35 272.13Z" fill="#F58461"/>
<path d="M381.28 111.67C368.21 123.41 353.99 144.9 352.87 148.39C351.75 151.88 341.74 194.6 339.58 207.52C337.42 220.44 341.58 248.29 345.58 267.67C349.58 287.05 354.3 302.75 354.82 316.19C355.34 329.63 353.74 354.6 352.2 366.29C350.66 377.98 350.05 383.06 350.05 383.06C367.089 385.349 384.242 386.684 401.43 387.06C429.89 387.67 453.58 383.36 470.66 375.52C487.74 367.68 498.82 361.36 498.82 361.36C498.82 361.36 493.74 333.67 491.89 327.06C490.04 320.45 487.89 315.52 488.2 309.36C488.51 303.2 488.41 295.93 486.97 294.6C485.53 293.27 478.76 295.72 478.97 292.8C479.18 289.88 484.51 284.54 484.92 280.03C485.33 275.52 481.63 243.36 478.56 220.6C475.49 197.84 464.4 155.26 449.63 134.13C434.86 113 424.71 109.36 415.79 102.75C406.87 96.1398 405.71 93.8298 403.33 94.4398C400.95 95.0498 394.82 99.5198 381.28 111.67Z" fill="url(#paint8_radial_502_552)"/>
<path d="M394.2 290.85C394.2 290.85 406.58 289.75 410.43 288.6C414.28 287.45 407.43 280.29 407.43 280.29L396.58 285.57L394.2 290.85Z" fill="#2F886D"/>
<path d="M309.48 293.42C309.48 293.42 296.25 299.98 288.48 304.6C280.71 309.22 271.96 314.54 269.48 318.24C267 321.94 253.61 342.98 251.64 345.83C249.67 348.68 253.74 350.75 256.43 349.21C259.12 347.67 264.97 338.11 268.28 334.32C271.59 330.53 275.05 328.21 273.7 330.52C272.35 332.83 269.89 337.75 272.7 340.29C275.51 342.83 276.62 344.44 283.47 344.75C286.264 344.88 289.035 344.198 291.45 342.787C293.865 341.377 295.82 339.297 297.08 336.8C298.7 333.06 300.01 326.67 307.39 322.75C312.607 320.042 318.043 317.777 323.64 315.98C326.59 314.92 323.12 303.28 320.2 299.2C317.28 295.12 312.61 292.47 309.48 293.42Z" fill="#F69EAF"/>
<path d="M377.2 178.65C377.2 178.65 380.9 228.58 385.2 251.2C389.5 273.82 394.2 290.85 394.2 290.85C398.275 286.93 402.704 283.395 407.43 280.29C414.22 276.03 459.84 267.88 459.84 267.88C459.84 267.88 456.05 232.29 454.1 219.47C452.15 206.65 441.99 145.42 441.99 145.42L416.76 131.98L361.89 143.06L377.2 178.65Z" fill="#389977"/>
<path d="M407.43 280.29L409.74 295.52C403.104 299.412 396.215 302.856 389.12 305.83C376.51 311.21 359.01 319.44 354.91 321.48C352.511 322.7 350.008 323.704 347.43 324.48L350.1 353.48C350.1 353.48 387.43 347.83 408.46 342.81C429.49 337.79 449.28 332.25 454.71 324.66C460.14 317.07 461.17 308.66 460.76 292.35C460.35 276.04 459.84 267.94 459.84 267.94C449.642 267.303 439.408 268.271 429.51 270.81C412.58 274.98 407.43 280.29 407.43 280.29Z" fill="#F58461"/>
<path d="M291.35 328.06C290.97 327.33 290.35 326.75 288.66 327.48C286.97 328.21 261.55 341.4 261.55 341.4L264.66 347.63C264.66 347.63 291.12 333.75 292.16 333.1C293.2 332.45 293.32 332.1 292.89 331.21C292.46 330.32 291.35 328.06 291.35 328.06Z" fill="#CDD9DE"/>
<path d="M275.87 333.98C269.19 337.42 263.14 340.56 263.14 340.56L266.25 346.79L278.92 340.13C280.73 339.17 278.52 332.61 275.87 333.98Z" fill="#3C7E81"/>
<path d="M274.28 334.82L261.55 341.4L264.66 347.63C264.66 347.63 270.83 344.4 277.33 340.97C279.14 339.98 276.93 333.45 274.28 334.82Z" fill="#EE355C"/>
<path d="M347.43 324.44C347.43 324.44 339.82 325.06 330.66 325.21C321.5 325.36 309.48 324.64 306.84 323.08C304.2 321.52 300.89 319.67 299.43 320.98C297.97 322.29 298.28 327.06 301.66 329.21C305.04 331.36 309.05 333.75 306.74 333.67C304.43 333.59 288.74 335.29 287.12 333.67C285.5 332.05 285.2 327.21 281.58 328.06C277.96 328.91 279.02 332.19 279.3 334.32C279.43 335.32 281.3 337.99 279.99 339.26C278.399 340.473 276.662 341.481 274.82 342.26C274.82 342.26 282.45 347.17 287.94 350.26C293.43 353.35 302.58 358.18 310.89 357.95C319.2 357.72 350.1 353.39 350.1 353.39C354.68 352.68 354.43 343.03 353.74 336.33C353.05 329.63 350.97 324.2 347.43 324.44Z" fill="#FACCCE"/>
<path d="M261.2 341.56C262.72 340.85 266.2 346.68 264.41 347.84C262.62 349 258.84 342.66 261.2 341.56Z" fill="#CBD7DC"/>
<path d="M298.45 322.59C300.07 321.83 303.8 328.02 301.86 329.25C299.92 330.48 295.93 323.76 298.45 322.59Z" fill="#B7A7B2"/>
<path d="M298.322 325.892L291.937 329.283L292.406 330.166L298.791 326.775L298.322 325.892Z" fill="#C5C6CC"/>
<path d="M457.58 247.45L475.74 205.62L468.46 178.64L450.81 198.99L457.58 247.45Z" fill="url(#paint9_linear_502_552)"/>
<path d="M245.48 351.96L260.98 344.01L261.08 345.4L245.54 353.21L245.48 351.96Z" fill="#636265"/>
<path d="M454.71 223.77L468.87 183.26L458.3 169.31L447.12 184.49L454.71 223.77Z" fill="url(#paint10_linear_502_552)"/>
<path d="M380.96 220.3C374.407 215.382 369.631 208.468 367.35 200.6C363.43 187.29 362.97 173.75 368.97 178.98C374.97 184.21 378.96 195.84 380.96 220.3Z" fill="url(#paint11_linear_502_552)"/>
<path d="M408.46 155.67L389.28 170L393.89 191.05L403.84 204.8L417.07 211.41H420.15L408.46 155.67Z" fill="#1C7352"/>
<path d="M414.29 193.94L401.71 183.96L404.82 180.04L412.47 186.12L420.15 170L424.66 172.15L414.29 193.94Z" fill="white"/>
<path d="M421.2 213.92H420.1C388.2 210.8 387.2 169.77 387.2 169.35V168.05L407.28 153.48L408.28 153.28L408.81 153.37L432.69 158.18L433.22 159.37C433.38 159.75 449.52 197.49 421.8 213.58L421.2 213.92ZM392.2 170.55C392.58 177.13 395.64 206 419.91 208.86C440.66 196.14 431.46 168.69 429.08 162.56L408.83 158.49L392.2 170.55Z" fill="white"/>
<path d="M278.46 41.3096C270.41 41.3096 264.87 38.1296 264.46 32.3896C264.05 26.6496 269.12 24.6696 275.97 22.8296C282.82 20.9896 284.51 19.1296 290.2 13.9796C295.89 8.82963 310.35 -0.790364 327.51 0.0596363C344.67 0.909636 355.82 12.7496 360.82 23.7496C365.82 34.7496 368.74 54.5996 369.97 57.3596C371.2 60.1196 371.89 61.3596 371.89 61.3596C371.89 61.3596 352.58 62.6696 352.51 59.6696C352.44 56.6696 352.51 50.5996 348.89 46.5996C345.27 42.5996 342.28 39.0596 336.74 39.8996C331.2 40.7396 325.82 46.3596 326.28 47.7496C326.74 49.1396 332.51 55.2096 332.28 56.7496C332.05 58.2896 329.05 60.7496 327.89 60.2896C326.73 59.8296 324.12 52.5996 319.12 50.0596C314.12 47.5196 308.35 44.2096 306.28 39.5196C304.555 35.1761 303.97 30.4633 304.58 25.8296C305.05 22.6696 303.89 20.3596 300.51 23.1296C297.13 25.8996 291.74 32.6696 287.58 36.3596C283.42 40.0496 281.64 41.3096 278.46 41.3096Z" fill="#2C343C"/>
<path d="M341.07 106.44C339.94 106.13 336.35 109.72 331.23 112.19C326.11 114.66 317.89 115.47 312.87 111.57C307.85 107.67 299.87 99.6701 296.76 98.3401C293.65 97.0101 291.33 94.2401 291.33 90.9501C291.33 89.7501 291.33 87.3701 291.27 84.7501C296.322 83.2064 301.239 81.2498 305.97 78.9001C313.05 75.2901 318.79 71.7701 319.64 68.5401C320.49 65.3101 321.89 56.7501 322.89 51.6001C323.89 46.4501 324.97 44.8301 324.97 44.8301L327.35 46.7501C325.767 51.1715 324.586 55.7266 323.82 60.3601C322.97 66.6001 321.89 71.9801 322.43 72.5201C326.918 75.5621 331.748 78.066 336.82 79.9801C343.43 82.3601 350.12 84.6701 350.51 83.5201C350.9 82.3701 350.89 65.0601 350.51 63.0601C350.268 61.9031 350.369 60.7007 350.8 59.6001L352.8 59.2901C352.8 59.2901 353.56 67.5201 353.72 74.9801C353.88 82.4401 352.56 92.3601 348.49 98.2901C344.42 104.22 341.07 106.44 341.07 106.44Z" fill="#D9E7EF"/>
</g>
<defs>
<linearGradient id="paint0_linear_502_552" x1="96.5" y1="402.5" x2="459.42" y2="137.88" gradientUnits="userSpaceOnUse">
<stop stop-color="white" stop-opacity="0.1"/>
<stop offset="1" stop-color="white" stop-opacity="0.5"/>
</linearGradient>
<linearGradient id="paint1_linear_502_552" x1="104.94" y1="120.47" x2="398.74" y2="398.62" gradientUnits="userSpaceOnUse">
<stop stop-color="white" stop-opacity="0.5"/>
<stop offset="1" stop-color="white" stop-opacity="0.2"/>
</linearGradient>
<linearGradient id="paint2_linear_502_552" x1="-357360" y1="-135675" x2="-385835" y2="-73542.2" gradientUnits="userSpaceOnUse">
<stop stop-color="white" stop-opacity="0.1"/>
<stop offset="1" stop-color="white" stop-opacity="0.5"/>
</linearGradient>
<linearGradient id="paint3_linear_502_552" x1="38.8714" y1="385.039" x2="527.945" y2="131.748" gradientUnits="userSpaceOnUse">
<stop stop-color="white" stop-opacity="0.7"/>
<stop offset="1" stop-color="white"/>
</linearGradient>
<linearGradient id="paint4_linear_502_552" x1="229.71" y1="344.99" x2="219.18" y2="337.38" gradientUnits="userSpaceOnUse">
<stop stop-color="#ED657B"/>
<stop offset="1" stop-color="#F69EAF" stop-opacity="0"/>
</linearGradient>
<linearGradient id="paint5_linear_502_552" x1="110.09" y1="373.25" x2="89.9498" y2="355.1" gradientUnits="userSpaceOnUse">
<stop stop-color="#ED657B"/>
<stop offset="0.99" stop-color="#F69EAF"/>
</linearGradient>
<linearGradient id="paint6_linear_502_552" x1="5630.73" y1="13947.1" x2="5509.94" y2="13909.8" gradientUnits="userSpaceOnUse">
<stop stop-color="#ED657B"/>
<stop offset="1" stop-color="#F69EAF" stop-opacity="0"/>
</linearGradient>
<linearGradient id="paint7_linear_502_552" x1="210.1" y1="351.1" x2="213.84" y2="347.75" gradientUnits="userSpaceOnUse">
<stop offset="0.03" stop-color="#ED657B"/>
<stop offset="1" stop-color="#F69EAF" stop-opacity="0"/>
</linearGradient>
<radialGradient id="paint8_radial_502_552" cx="0" cy="0" r="1" gradientUnits="userSpaceOnUse" gradientTransform="translate(418.91 240.73) scale(84.45)">
<stop stop-color="#205D4A"/>
<stop offset="1" stop-color="#389977"/>
</radialGradient>
<linearGradient id="paint9_linear_502_552" x1="456.19" y1="230.8" x2="465.88" y2="191.83" gradientUnits="userSpaceOnUse">
<stop stop-color="#205D4A"/>
<stop offset="1" stop-color="#389977" stop-opacity="0"/>
</linearGradient>
<linearGradient id="paint10_linear_502_552" x1="10274.4" y1="11175.7" x2="11297" y2="10269.6" gradientUnits="userSpaceOnUse">
<stop stop-color="#205D4A"/>
<stop offset="1" stop-color="#389977" stop-opacity="0"/>
</linearGradient>
<linearGradient id="paint11_linear_502_552" x1="7234.47" y1="10114.7" x2="6956.35" y2="10138.8" gradientUnits="userSpaceOnUse">
<stop stop-color="#205D4A"/>
<stop offset="1" stop-color="#389977" stop-opacity="0"/>
</linearGradient>
<clipPath id="clip0_502_552">
<rect width="547.3" height="524.38" fill="white"/>
</clipPath>
</defs>
</svg>
