<svg width="621" height="599" viewBox="0 0 621 599" fill="none" xmlns="http://www.w3.org/2000/svg">
<path d="M307.5 543C245.4 543 187 518.9 143.1 475.2C99.2 431.5 75 373.3 75 311.5C75 249.6 99.2 191.5 143.1 147.8C187 104.1 245.4 80 307.5 80C369.6 80 428 104.1 471.9 147.8C515.8 191.5 540 249.7 540 311.5C540 373.3 515.8 431.5 471.9 475.2C428 518.9 369.6 543 307.5 543ZM307.5 112C196.9 112 107 201.5 107 311.5C107 421.5 196.9 511 307.5 511C418.1 511 508 421.5 508 311.5C508 201.5 418.1 112 307.5 112Z" fill="url(#paint0_linear_553_495)"/>
<path d="M306 472C394.366 472 466 400.366 466 312C466 223.634 394.366 152 306 152C217.634 152 146 223.634 146 312C146 400.366 217.634 472 306 472Z" fill="url(#paint1_linear_553_495)"/>
<path d="M327 517C221.6 517 139 467.6 139 404.5C139 341.4 221.6 292 327 292C432.4 292 515 341.4 515 404.5C515 467.6 432.4 517 327 517ZM327 328C284.6 328 245 337 215.5 353.4C189.7 367.7 175 386.3 175 404.5C175 422.6 189.8 441.3 215.5 455.6C245 472 284.6 481 327 481C369.4 481 409 472 438.5 455.6C464.3 441.3 479 422.7 479 404.5C479 386.4 464.2 367.7 438.5 353.4C409 337 369.4 328 327 328Z" fill="url(#paint2_linear_553_495)"/>
<path d="M320.1 560.4C317.9 560.4 316.1 558.7 316.1 556.5C316.1 554.3 317.8 552.5 320 552.4C325.6 552.3 331.2 552 336.7 551.6C338.9 551.4 340.8 553.1 341 555.3C341.2 557.5 339.5 559.4 337.3 559.6C331.6 560 325.8 560.3 320.1 560.4ZM301.1 560.1C301 560.1 301 560.1 300.9 560.1C295.2 559.8 289.4 559.3 283.7 558.7C281.5 558.5 279.9 556.5 280.2 554.3C280.4 552.1 282.4 550.5 284.6 550.8C290.1 551.4 295.8 551.9 301.3 552.2C303.5 552.3 305.2 554.2 305.1 556.4C305 558.4 303.2 560.1 301.1 560.1ZM355.9 557.5C353.9 557.5 352.2 556.1 351.9 554.1C351.6 551.9 353.1 549.9 355.3 549.6C360.8 548.8 366.3 547.8 371.8 546.7C374 546.2 376.1 547.6 376.5 549.8C376.9 552 375.6 554.1 373.4 554.5C367.8 555.7 362.1 556.7 356.4 557.5C356.3 557.5 356.1 557.5 355.9 557.5ZM265.3 556C265.1 556 264.8 556 264.6 555.9C259 554.9 253.3 553.7 247.7 552.4C245.6 551.9 244.2 549.7 244.7 547.6C245.2 545.5 247.4 544.1 249.5 544.6C254.9 545.9 260.4 547 265.9 548C268.1 548.4 269.5 550.5 269.1 552.6C268.9 554.6 267.2 556 265.3 556ZM391.1 550C389.4 550 387.8 548.8 387.3 547.1C386.7 545 387.9 542.8 390.1 542.2C395.4 540.7 400.8 539 406 537.2C408.1 536.5 410.4 537.6 411.1 539.7C411.8 541.8 410.7 544.1 408.6 544.8C403.2 546.7 397.7 548.4 392.2 550C391.8 550 391.4 550 391.1 550ZM230.4 547.5C230 547.5 229.6 547.4 229.2 547.3C223.7 545.6 218.3 543.7 212.9 541.7C210.8 540.9 209.8 538.6 210.6 536.5C211.4 534.4 213.7 533.4 215.8 534.2C221 536.2 226.3 538 231.6 539.7C233.7 540.4 234.9 542.6 234.2 544.7C233.7 546.4 232.1 547.5 230.4 547.5ZM424.9 538C423.4 538 421.9 537.1 421.2 535.6C420.3 533.6 421.3 531.2 423.3 530.3C428.4 528.1 433.5 525.7 438.4 523.2C440.4 522.2 442.8 523 443.8 525C444.8 527 444 529.4 442 530.4C436.9 533 431.7 535.4 426.4 537.7C426 537.9 425.5 538 424.9 538ZM196.8 534.6C196.2 534.6 195.7 534.5 195.1 534.2C189.9 531.8 184.7 529.2 179.7 526.5C177.8 525.5 177 523 178.1 521.1C179.1 519.2 181.6 518.4 183.5 519.5C188.4 522.1 193.5 524.6 198.5 526.9C200.5 527.8 201.4 530.2 200.5 532.2C199.8 533.7 198.3 534.6 196.8 534.6ZM456.9 521.6C455.5 521.6 454.2 520.9 453.5 519.7C452.4 517.8 453 515.3 454.9 514.2C459.7 511.3 464.4 508.3 469 505.1C470.8 503.8 473.3 504.3 474.6 506.1C475.9 507.9 475.4 510.4 473.6 511.7C468.9 514.9 464 518.1 459.1 521C458.3 521.4 457.6 521.6 456.9 521.6ZM165.1 517.5C164.4 517.5 163.6 517.3 163 516.9C158.1 513.9 153.3 510.6 148.7 507.3C146.9 506 146.5 503.5 147.8 501.7C149.1 499.9 151.6 499.5 153.4 500.8C157.9 504 162.6 507.2 167.3 510.1C169.2 511.3 169.7 513.7 168.6 515.6C167.8 516.9 166.5 517.5 165.1 517.5ZM486.4 501C485.2 501 484.1 500.5 483.3 499.5C481.9 497.8 482.2 495.3 483.9 493.9C488.2 490.4 492.5 486.7 496.6 483C498.2 481.5 500.8 481.6 502.3 483.2C503.8 484.8 503.7 487.4 502.1 488.9C497.9 492.8 493.5 496.5 489 500.1C488.2 500.8 487.3 501 486.4 501ZM135.9 496.4C135 496.4 134.1 496.1 133.4 495.5C129 491.8 124.6 488 120.4 484.1C118.8 482.6 118.7 480.1 120.2 478.4C121.7 476.8 124.2 476.7 125.9 478.2C130 482 134.2 485.7 138.5 489.3C140.2 490.7 140.4 493.2 139 494.9C138.2 495.9 137.1 496.4 135.9 496.4ZM512.8 476.6C511.8 476.6 510.8 476.2 510.1 475.5C508.5 474 508.4 471.5 509.9 469.8C513.7 465.7 517.4 461.5 520.9 457.2C522.3 455.5 524.8 455.2 526.5 456.6C528.2 458 528.5 460.5 527.1 462.2C523.5 466.6 519.6 471 515.7 475.2C515 476.2 513.9 476.6 512.8 476.6ZM109.8 471.7C108.7 471.7 107.7 471.3 106.9 470.4C103 466.2 99.1998 461.8 95.5998 457.4C94.1998 455.7 94.4998 453.2 96.1998 451.8C97.8998 450.4 100.4 450.7 101.8 452.4C105.3 456.7 109 461 112.8 465C114.3 466.6 114.2 469.2 112.6 470.7C111.7 471.4 110.8 471.7 109.8 471.7ZM535.5 448.7C534.7 448.7 533.9 448.5 533.2 448C531.4 446.7 531 444.2 532.2 442.4C535.4 437.8 538.5 433.1 541.3 428.4C542.4 426.5 544.9 425.9 546.8 427C548.7 428.1 549.3 430.6 548.2 432.5C545.2 437.4 542.1 442.3 538.8 447C538 448.1 536.8 448.7 535.5 448.7ZM87.1998 443.7C85.8998 443.7 84.6998 443.1 83.8998 442C80.5998 437.3 77.3998 432.4 74.3998 427.6C73.1998 425.7 73.7998 423.3 75.6998 422.1C77.5998 420.9 79.9998 421.5 81.1998 423.4C84.0998 428.1 87.1998 432.8 90.3998 437.4C91.6998 439.2 91.1998 441.7 89.3998 443C88.7998 443.5 87.9998 443.7 87.1998 443.7ZM554 417.9C553.4 417.9 552.8 417.8 552.2 417.5C550.2 416.5 549.4 414.1 550.4 412.1C552.9 407.1 555.2 402 557.4 396.9C558.3 394.9 560.6 393.9 562.6 394.8C564.6 395.7 565.6 398 564.7 400C562.5 405.3 560.1 410.6 557.5 415.7C556.9 417.1 555.5 417.9 554 417.9ZM68.5998 412.9C67.0998 412.9 65.6998 412.1 64.9998 410.7C62.3998 405.6 59.8998 400.3 57.5998 395.1C56.6998 393.1 57.6998 390.7 59.6998 389.8C61.6998 388.9 64.0998 389.9 64.9998 391.9C67.1998 397 69.5998 402.1 72.0998 407C73.0998 409 72.2998 411.4 70.3998 412.4C69.7998 412.8 69.1998 412.9 68.5998 412.9ZM567.7 384.6C567.3 384.6 566.9 384.5 566.4 384.4C564.3 383.7 563.2 381.4 563.9 379.4C565.6 374.1 567.2 368.7 568.6 363.4C569.1 361.3 571.3 360 573.5 360.5C575.6 361 576.9 363.2 576.4 365.4C575 371 573.4 376.5 571.6 382C571 383.5 569.4 384.6 567.7 384.6ZM54.3998 379.9C52.6998 379.9 51.1998 378.9 50.5998 377.2C48.6998 371.8 46.9998 366.2 45.4998 360.7C44.8998 358.6 46.1998 356.4 48.2998 355.8C50.3998 355.2 52.5998 356.5 53.1998 358.6C54.6998 363.9 56.2998 369.3 58.0998 374.6C58.7998 376.7 57.6998 379 55.5998 379.7C55.2998 379.8 54.8998 379.9 54.3998 379.9ZM576.5 349.7C576.3 349.7 576 349.7 575.8 349.6C573.6 349.2 572.2 347.2 572.5 345C573.5 339.5 574.2 334 574.8 328.4C575 326.2 577 324.6 579.2 324.8C581.4 325 583 327 582.8 329.2C582.2 334.9 581.4 340.7 580.4 346.3C580.1 348.4 578.4 349.7 576.5 349.7ZM45.0998 345.1C43.1998 345.1 41.4998 343.8 41.1998 341.8C40.0998 336.2 39.1998 330.4 38.5998 324.8C38.2998 322.6 39.8998 320.6 42.0998 320.4C44.2998 320.1 46.2998 321.7 46.4998 323.9C47.1998 329.4 47.9998 334.9 49.0998 340.4C49.4998 342.6 48.0998 344.7 45.8998 345.1C45.5998 345.1 45.3998 345.1 45.0998 345.1ZM580 313.9C577.7 313.8 575.9 312 576 309.8C576.1 307.8 576.1 305.7 576.1 303.6C576.1 300.1 576 296.5 575.9 293C575.8 290.8 577.5 288.9 579.7 288.8C581.9 288.7 583.8 290.4 583.9 292.6C584.1 296.2 584.1 299.9 584.1 303.5C584.1 305.6 584.1 307.8 584 309.9C583.9 312.2 582.2 313.9 580 313.9ZM40.9998 309.4C38.8998 309.4 37.0998 307.7 36.9998 305.6C36.8998 302.2 36.7998 298.7 36.7998 295.3C36.7998 293 36.7998 290.7 36.8998 288.4C36.9998 286.2 38.7998 284.5 40.9998 284.5C43.1998 284.6 44.8998 286.4 44.8998 288.6C44.7998 290.8 44.7998 293.1 44.7998 295.3C44.7998 298.6 44.8998 302 44.9998 305.3C45.0998 307.5 43.3998 309.4 41.1998 309.5C41.0998 309.4 41.0998 309.4 40.9998 309.4ZM578.3 278C576.3 278 574.6 276.5 574.3 274.5C573.6 269 572.8 263.4 571.7 258C571.3 255.8 572.7 253.7 574.9 253.3C577.1 252.9 579.2 254.3 579.6 256.5C580.7 262.1 581.6 267.9 582.3 273.5C582.6 275.7 581 277.7 578.8 278C578.6 278 578.4 278 578.3 278ZM42.1998 273.5C42.0998 273.5 41.8998 273.5 41.7998 273.5C39.5998 273.3 37.9998 271.3 38.1998 269.1C38.7998 263.4 39.5998 257.7 40.5998 252C40.9998 249.8 43.0998 248.4 45.1998 248.8C47.3998 249.2 48.7998 251.3 48.3998 253.4C47.3998 258.9 46.5998 264.5 46.0998 270C45.8998 272 44.1998 273.5 42.1998 273.5ZM571.3 242.8C569.5 242.8 567.9 241.6 567.4 239.9C565.9 234.6 564.3 229.2 562.4 223.9C561.7 221.8 562.8 219.5 564.9 218.8C567 218.1 569.3 219.2 570 221.3C571.9 226.7 573.6 232.3 575.1 237.8C575.7 239.9 574.4 242.1 572.3 242.7C572 242.7 571.7 242.8 571.3 242.8ZM48.4998 238.1C48.1998 238.1 47.7998 238.1 47.4998 238C45.3998 237.5 44.0998 235.3 44.5998 233.1C45.9998 227.5 47.6998 222 49.4998 216.5C50.1998 214.4 52.4998 213.3 54.5998 214C56.6998 214.7 57.7998 217 57.0998 219.1C55.3998 224.4 53.7998 229.8 52.3998 235.1C51.8998 236.9 50.2998 238.1 48.4998 238.1ZM559.4 208.9C557.9 208.9 556.4 208 555.7 206.5C553.5 201.4 551.1 196.3 548.5 191.4C547.5 189.4 548.3 187 550.2 186C552.2 185 554.6 185.8 555.6 187.7C558.2 192.8 560.7 198 563 203.3C563.9 205.3 563 207.7 560.9 208.6C560.4 208.8 559.9 208.9 559.4 208.9ZM59.9998 204C59.4998 204 58.9998 203.9 58.4998 203.7C56.4998 202.8 55.4998 200.5 56.3998 198.5C58.5998 193.2 61.0998 187.9 63.6998 182.8C64.6998 180.8 67.0998 180 69.0998 181C71.0998 182 71.8998 184.4 70.8998 186.4C68.3998 191.4 65.9998 196.5 63.8998 201.6C62.9998 203.1 61.5998 204 59.9998 204ZM542.7 177C541.4 177 540 176.3 539.3 175.1C536.4 170.4 533.3 165.7 530.1 161.1C528.8 159.3 529.3 156.8 531.1 155.5C532.9 154.2 535.4 154.7 536.7 156.5C540 161.2 543.2 166 546.2 170.9C547.4 172.8 546.8 175.2 544.9 176.4C544.2 176.8 543.4 177 542.7 177ZM76.3998 172C75.6998 172 74.9998 171.8 74.2998 171.4C72.3998 170.3 71.7998 167.8 72.9998 165.9C75.9998 161 79.1998 156.1 82.4998 151.4C83.7998 149.6 86.2998 149.2 88.0998 150.4C89.8998 151.7 90.2998 154.2 89.0998 156C85.8998 160.5 82.7998 165.3 79.8998 170C78.9998 171.3 77.6998 172 76.3998 172ZM521.9 147.6C520.7 147.6 519.6 147.1 518.8 146.1C515.3 141.8 511.6 137.6 507.8 133.5C506.3 131.9 506.4 129.4 508 127.8C509.6 126.2 512.1 126.4 513.7 128C517.6 132.2 521.4 136.6 525.1 141C526.5 142.7 526.2 145.2 524.5 146.6C523.7 147.3 522.8 147.6 521.9 147.6ZM97.1998 142.7C96.2998 142.7 95.3998 142.4 94.6998 141.8C92.9998 140.4 92.7998 137.9 94.1998 136.2C97.7998 131.8 101.7 127.4 105.6 123.3C107.1 121.7 109.6 121.6 111.3 123.1C112.9 124.6 113 127.1 111.5 128.8C107.7 132.8 104 137.1 100.4 141.3C99.4998 142.2 98.2998 142.7 97.1998 142.7ZM497.3 121.4C496.3 121.4 495.3 121 494.6 120.3C490.5 116.5 486.3 112.8 482 109.2C480.3 107.8 480.1 105.3 481.5 103.6C482.9 101.9 485.4 101.7 487.1 103.1C491.5 106.7 495.9 110.6 500.1 114.5C501.7 116 501.8 118.5 500.3 120.2C499.4 121 498.3 121.4 497.3 121.4ZM122 116.6C120.9 116.6 119.8 116.2 119 115.3C117.5 113.7 117.6 111.1 119.3 109.6C123.5 105.7 127.9 102 132.4 98.4001C134.1 97.0001 136.6 97.3001 138 99.0001C139.4 100.7 139.1 103.2 137.4 104.6C133.1 108.1 128.8 111.7 124.7 115.5C123.9 116.3 123 116.6 122 116.6ZM469.4 98.6001C468.6 98.6001 467.8 98.4001 467.1 97.9001C462.6 94.7001 457.9 91.5001 453.2 88.6001C451.3 87.4001 450.8 85.0001 451.9 83.1001C453.1 81.2001 455.5 80.7001 457.4 81.8001C462.3 84.8001 467.1 88.1001 471.8 91.4001C473.6 92.7001 474 95.2001 472.7 97.0001C471.9 98.0001 470.6 98.6001 469.4 98.6001ZM150.2 94.3001C148.9 94.3001 147.7 93.7001 146.9 92.6001C145.6 90.8001 146.1 88.3001 147.9 87.0001C152.6 83.8001 157.5 80.6001 162.4 77.7001C164.3 76.6001 166.8 77.2001 167.9 79.1001C169 81.0001 168.4 83.5001 166.5 84.6001C161.7 87.5001 157 90.5001 152.4 93.6001C151.7 94.0001 150.9 94.3001 150.2 94.3001ZM438.8 79.7001C438.2 79.7001 437.5 79.5001 436.9 79.2001C432 76.6001 426.9 74.1001 421.9 71.8001C419.9 70.9001 419 68.5001 419.9 66.5001C420.8 64.5001 423.2 63.6001 425.2 64.5001C430.4 66.9001 435.6 69.4001 440.7 72.1001C442.6 73.1001 443.4 75.6001 442.4 77.5001C441.6 78.9001 440.2 79.7001 438.8 79.7001ZM181.1 75.9001C179.6 75.9001 178.2 75.1001 177.5 73.7001C176.5 71.7001 177.3 69.3001 179.3 68.3001C184.4 65.7001 189.7 63.3001 194.9 61.0001C196.9 60.1001 199.3 61.1001 200.2 63.1001C201.1 65.1001 200.1 67.5001 198.1 68.4001C193 70.6001 187.9 73.0001 182.9 75.5001C182.3 75.8001 181.7 75.9001 181.1 75.9001ZM406 64.8001C405.5 64.8001 405.1 64.7001 404.6 64.5001C399.4 62.5001 394.1 60.7001 388.8 59.1001C386.7 58.4001 385.5 56.2001 386.2 54.1001C386.9 52.0001 389.1 50.8001 391.2 51.5001C396.7 53.2001 402.2 55.1001 407.5 57.1001C409.6 57.9001 410.6 60.2001 409.8 62.3001C409.2 63.9001 407.6 64.8001 406 64.8001ZM214.2 61.9001C212.5 61.9001 211 60.9001 210.4 59.2001C209.7 57.1001 210.8 54.8001 212.9 54.1001C218.3 52.2001 223.8 50.5001 229.3 48.9001C231.4 48.3001 233.6 49.5001 234.2 51.7001C234.8 53.8001 233.6 56.0001 231.4 56.6001C226.1 58.1001 220.7 59.8001 215.4 61.6001C215.1 61.8001 214.6 61.9001 214.2 61.9001ZM371.6 54.3001C371.3 54.3001 371 54.3001 370.7 54.2001C365.3 52.9001 359.8 51.8001 354.3 50.8001C352.1 50.4001 350.7 48.3001 351.1 46.2001C351.5 44.0001 353.6 42.6001 355.7 43.0001C361.3 44.0001 367 45.2001 372.6 46.5001C374.7 47.0001 376.1 49.2001 375.6 51.3001C375.1 53.1001 373.4 54.3001 371.6 54.3001ZM248.8 52.3001C246.9 52.3001 245.3 51.0001 244.9 49.1001C244.5 46.9001 245.8 44.8001 248 44.4001C253.6 43.2001 259.3 42.2001 265 41.4001C267.2 41.1001 269.2 42.6001 269.5 44.8001C269.8 47.0001 268.3 49.0001 266.1 49.3001C260.6 50.1001 255 51.1001 249.6 52.2001C249.3 52.3001 249.1 52.3001 248.8 52.3001ZM337.3 48.3001C337.1 48.3001 337 48.3001 336.8 48.3001C331.3 47.7001 325.6 47.2001 320.1 46.9001C317.9 46.8001 316.2 44.9001 316.3 42.7001C316.4 40.5001 318.3 38.8001 320.5 38.9001C326.2 39.2001 332 39.7001 337.7 40.3001C339.9 40.5001 341.5 42.5001 341.2 44.7001C341.1 46.8001 339.3 48.3001 337.3 48.3001ZM284.4 47.3001C282.3 47.3001 280.6 45.7001 280.4 43.6001C280.2 41.4001 281.9 39.5001 284.1 39.3001C289.8 38.9001 295.6 38.6001 301.3 38.5001C303.5 38.4001 305.3 40.2001 305.4 42.4001C305.4 44.6001 303.7 46.4001 301.5 46.5001C295.9 46.6001 290.3 46.8001 284.8 47.2001C284.6 47.3001 284.5 47.3001 284.4 47.3001Z" fill="url(#paint3_linear_553_495)"/>
<path d="M51.5999 339L77.1999 382.3C79.0999 385.5 82.4999 387.4 86.1999 387.4H202.5C205.2 387.4 207.7 385.7 208.7 383.2L230.3 327.5C232 323 228.7 318.2 223.9 318.3L61.4999 321.4C52.4999 321.6 47.0999 331.3 51.5999 339Z" fill="#E9A632"/>
<path d="M127.1 320.2V271.5C127.1 266 121.8 262.1 116.6 263.6C107.1 266.3 92.7999 272 79.7999 283.2C57.9999 302.1 56.6999 322.5 56.9999 322.4C57.2999 322.3 127.1 320.2 127.1 320.2Z" fill="#E9A632"/>
<path d="M127.1 320.2V271.5C127.1 266 121.8 262.1 116.6 263.6C110.7 265.3 102.9 268.2 94.7002 272.8L127.1 320.2Z" fill="#D28E27"/>
<path d="M161.001 398.716L94.0537 461.971L94.7405 462.698L161.688 399.443L161.001 398.716Z" fill="#060606"/>
<path d="M119.894 398.677L119.209 399.405L187.888 464.029L188.573 463.301L119.894 398.677Z" fill="#060606"/>
<path d="M127.1 320.2C127.1 320.2 57.3002 322.3 57.0002 322.4C56.7002 322.5 57.4002 310.8 67.3002 296.9L127.1 320.2Z" fill="#D28E27"/>
<path d="M105.1 386.5L109.1 397.9C109.8 399.8 111.6 401.1 113.6 401.1H168.2C170.3 401.1 172.2 399.7 172.8 397.6L176 386.4H105.1V386.5Z" fill="#D28E27"/>
<path d="M152.6 386.8L151.9 386.1C152.8 385.2 241.6 297.8 245.2 294.4C248.8 291 251.2 284.2 248.6 279.3C245.7 273.8 238.8 261.6 238.7 261.5L239.6 261C239.7 261.1 246.6 273.4 249.5 278.8C252.3 284.1 249.8 291.4 245.9 295C242.2 298.5 153.5 385.9 152.6 386.8Z" fill="#060606"/>
<path d="M174.1 386H105.6V387H174.1V386Z" fill="#060606"/>
<path d="M76.7002 504C90.7835 504 102.2 492.583 102.2 478.5C102.2 464.417 90.7835 453 76.7002 453C62.6169 453 51.2002 464.417 51.2002 478.5C51.2002 492.583 62.6169 504 76.7002 504Z" fill="black"/>
<path d="M76.7001 497.1C86.9726 497.1 95.3001 488.773 95.3001 478.5C95.3001 468.228 86.9726 459.9 76.7001 459.9C66.4276 459.9 58.1001 468.228 58.1001 478.5C58.1001 488.773 66.4276 497.1 76.7001 497.1Z" fill="white"/>
<path d="M204.2 504C218.283 504 229.7 492.583 229.7 478.5C229.7 464.417 218.283 453 204.2 453C190.117 453 178.7 464.417 178.7 478.5C178.7 492.583 190.117 504 204.2 504Z" fill="black"/>
<path d="M204.2 497.1C214.473 497.1 222.8 488.773 222.8 478.5C222.8 468.228 214.473 459.9 204.2 459.9C193.928 459.9 185.6 468.228 185.6 478.5C185.6 488.773 193.928 497.1 204.2 497.1Z" fill="white"/>
<path d="M276.6 463.8L277.8 482.3L295.9 482L295.3 463.7L276.6 463.8Z" fill="#E79DA8"/>
<path d="M409.6 438.5L423.5 450.7L436.2 437.8L422.8 425.2L409.6 438.5Z" fill="#E79DA8"/>
<path d="M301.7 216.9L293.7 240.6C293.7 240.6 257.7 262.5 255.9 263.4C254.1 264.3 253.3 263.6 250.2 263.4C247.1 263.2 243.2 263 240.3 264.8C237.4 266.5 233.9 268.8 235.4 273.3C236.9 277.8 239.1 282.6 242.4 283.6C245.7 284.6 249.5 283 252 281.3C254.5 279.6 256.4 278.3 257.9 276.2C259.4 274.1 259.8 273.2 263.3 271.7C266.8 270.2 301.1 255 301.1 255L309.7 233.7L301.7 216.9Z" fill="#D57E8F"/>
<path d="M303 244.8C303 244.8 269.9 323.8 267.4 330.2C264.9 336.6 263.1 343.2 263.9 353.6C264.7 364.1 270.3 464.2 270.3 464.2L300.9 464.8C300.9 464.8 302.1 355 302.1 350.9C302.1 346.8 302.9 346.1 305.4 341.3C307.9 336.5 313.5 327.5 313.5 327.5C313.5 327.5 313.5 343 313.5 349C313.5 355 314 359.1 320.1 365.1C326.2 371.1 405.9 442.6 405.9 442.6L431.1 420.8C431.1 420.8 388.3 376.2 377.2 365.4C366.1 354.7 355.1 344 354.2 343.1C353.3 342.2 353.3 341 353.2 338.1C353.1 335.2 353.1 289.6 353.1 283.8C353.1 278 355.2 274.5 355.2 268.8C355.2 263.1 350.9 250.1 341.3 245.6C331.7 241.1 303 244.8 303 244.8Z" fill="#94A5FB"/>
<path d="M523.3 440.3L536.9 455.2L552.3 442.7L539.3 427.4L523.3 440.3Z" fill="#E79DA8"/>
<path d="M367.8 454L362.6 473.6L381.4 479.8L387.3 460.5L367.8 454Z" fill="#E79DA8"/>
<path d="M319 173.8C319 173.8 311.5 174.3 306.3 180C301.1 185.7 295.3 194 295.7 202.6C296.1 211.2 299.7 215.1 300.7 216.7C301.8 218.3 302 245.2 302 245.2L335.6 248L350.2 222.5L354.6 223.7C354.6 223.7 360.6 213.3 361.5 200.2C362.4 187 361.7 179 352.4 176.5C343.1 174 334.4 173.5 334.4 173.5L319 173.8Z" fill="white"/>
<path d="M437.1 331.5C437.1 331.5 444.8 351.4 446.6 356.3C448.3 361.1 452.6 365.6 456.3 370.6C460 375.6 516.5 445.9 516.5 445.9L549.2 425.8C549.2 425.8 497.3 357.7 494.6 354C491.9 350.3 490.9 347.2 489 341.3C487.1 335.4 468.3 278.7 468.3 278.7H431.7L426.1 302.3L437.1 331.5Z" fill="black"/>
<path d="M414.5 276.1C414.5 276.1 394.4 319.6 390.9 327.5C387.4 335.3 384.5 342.7 382.4 353.1C380.3 363.6 359.8 453.4 359.8 453.4L397.5 465.6C397.5 465.6 425.4 374.1 427.9 364.4C430.4 354.7 432.2 350.9 436.2 342.1C440.2 333.3 452.4 307.5 456.7 299.5C461 291.5 464.2 274 464.2 274L414.5 276.1Z" fill="#0C0C3E"/>
<path d="M415.7 129.9C418.958 129.9 421.6 126.99 421.6 123.4C421.6 119.811 418.958 116.9 415.7 116.9C412.441 116.9 409.8 119.811 409.8 123.4C409.8 126.99 412.441 129.9 415.7 129.9Z" fill="#D68090"/>
<path d="M421.6 167.5H452.7L449 279.7C449 279.7 445 281.5 431.6 281.1C418.2 280.7 410.8 276.3 410.8 276.3L421.6 167.5Z" fill="white"/>
<path d="M428.2 142.6C428.2 142.6 428.2 156.3 428.2 158.4C428.2 160.5 426.7 160.5 424.5 160.9C422.2 161.4 422.2 168.1 426.9 170.1C431.6 172.2 439.4 172.8 444.1 170.8C448.8 168.8 452.4 167.1 452.4 165.1C452.4 163.1 450.8 160.9 449.2 160.5C447.6 160 446.4 159.7 446.2 156.3C446.1 152.9 444 141.1 445.3 133.4C446.5 126.1 428.2 142.6 428.2 142.6Z" fill="#E79DA8"/>
<path d="M441.4 138.3C441.4 138.3 437.6 150.3 428.2 150.3C428.2 145.2 428.2 141.4 428.2 141.4L441.4 138.3Z" fill="black"/>
<path d="M324.4 96.5996C312.4 96.5996 304.6 103.5 301.7 112.9C298.8 122.3 301.8 135.7 303.3 138.3C304.8 140.9 302.5 142.5 300.8 144.1C299.1 145.7 297.9 147.9 299.2 151.1C300.5 154.3 302.3 155 308.4 154.8C314.5 154.6 350.9 153 354.2 152.6C357.5 152.2 358.9 150.2 359.5 147.5C360 144.8 360.4 139.2 358.3 134.6C356.2 130 354.2 126.1 353.6 120.6C353 115.1 351.1 109.1 344.9 104C338.6 98.5996 334.5 96.5996 324.4 96.5996Z" fill="black"/>
<path d="M318 153C318 153 318 173.5 318 176.9C318 180.3 314.6 185.6 316.6 185.6C318.6 185.6 334.3 173.7 334.3 173.7C334.3 173.7 332.7 155.4 332.7 146.9C332.7 138.4 318 153 318 153Z" fill="#E79DA8"/>
<path d="M412.5 110.4C412.5 110.4 412.7 121.7 414 129.1C415.4 136.5 421.3 143.3 427.5 143.3C433.8 143.3 441 140.4 444.6 135.3C448.3 130.2 447.9 130.8 448.7 126.9C449.5 123 451.6 108.2 451.6 108.2L453.8 91H417.6L411.7 102.8L412.5 110.4Z" fill="#E79DA8"/>
<path d="M449 121.7C449 121.7 445.4 115.1 445.6 107.6C445.8 100.1 446.9 98.5004 448.1 97.1004C449.3 95.7004 448.1 94.7004 446 95.7004C443.9 96.8004 438.5 97.4004 429.5 97.3004C420.6 97.2004 419.5 96.3004 417.4 96.2004C415.3 96.1004 412.9 100.9 412.8 104.4C412.7 107.9 413.5 113.8 413.5 113.8C413.5 113.8 410.1 108.4 410.3 103.3C410.5 98.3004 412.7 96.7004 412.6 95.1004C412.5 93.5004 407.7 94.4004 406.8 87.9004C405.9 81.4004 412.3 77.9004 418.6 77.9004C424.9 77.9004 429.6 80.1004 432.7 81.7004C435.8 83.3004 437 83.1004 441.2 82.9004C445.5 82.7004 452.7 83.7004 457.8 88.6004C462.9 93.5004 464.7 99.5004 463.1 106.1C461.6 112.7 456.8 121.7 453.7 123.9C450.6 126.1 449 121.7 449 121.7Z" fill="black"/>
<path d="M452.6 131.1C456.19 131.1 459.1 127.922 459.1 124C459.1 120.079 456.19 116.9 452.6 116.9C449.01 116.9 446.1 120.079 446.1 124C446.1 127.922 449.01 131.1 452.6 131.1Z" fill="#E79DA8"/>
<path d="M341.8 142.4C344.948 142.4 347.5 139.624 347.5 136.2C347.5 132.776 344.948 130 341.8 130C338.652 130 336.1 132.776 336.1 136.2C336.1 139.624 338.652 142.4 341.8 142.4Z" fill="#E79DA8"/>
<path d="M305.8 141.1C308.396 141.1 310.5 138.817 310.5 136C310.5 133.184 308.396 130.9 305.8 130.9C303.204 130.9 301.1 133.184 301.1 136C301.1 138.817 303.204 141.1 305.8 141.1Z" fill="#D68090"/>
<path d="M429 118.1C428.5 116.3 431.2 114.4 434 114.4C436.5 114.4 439.2 116 438.8 117.7C438.5 119 436.5 120.7 433.3 120.7C430.2 120.7 429.2 118.7 429 118.1Z" fill="#4C3B3D"/>
<path d="M420.2 106.9C419.5 105.2 417.6 104.3 415.5 106C413.4 107.7 412.1 109.2 412.1 109.3C412.1 109.4 412.8 111.8 412.8 111.8C412.8 111.8 416.8 110.2 418.8 109.5C420.8 108.9 420.2 106.9 420.2 106.9Z" fill="black"/>
<path d="M430.3 105.8C430.8 104.2 434.5 104.3 437.8 106.3C441.1 108.3 442.7 109.8 442 111C441.3 112.2 438.5 111.3 436.3 110.1C434.1 108.9 429 109.6 430.3 105.8Z" fill="black"/>
<path d="M429 118.1C429 116.1 431.5 115.1 434 115.1C436.5 115.1 438.8 116.4 438.8 117.7C438.8 119 436.5 120.7 433.3 120.7C430.2 120.7 429 118.7 429 118.1Z" fill="#F2F2F2"/>
<path d="M414 117.1C413.8 115.3 415.7 114.6 417.1 114.6C418.5 114.6 421.3 116.3 420.8 118.3C420.2 120.2 418.7 120.4 417.1 120.4C415.5 120.3 414.1 118.9 414 117.1Z" fill="#4C3B3D"/>
<path d="M433.4 120.6C434.781 120.6 435.9 119.48 435.9 118.1C435.9 116.719 434.781 115.6 433.4 115.6C432.019 115.6 430.9 116.719 430.9 118.1C430.9 119.48 432.019 120.6 433.4 120.6Z" fill="black"/>
<path d="M414 117.1C414 115.7 415.7 115.4 417.1 115.4C418.5 115.4 420.8 116.3 420.8 118.3C420.8 120.3 418.7 120.4 417.1 120.4C415.5 120.3 414 118.9 414 117.1Z" fill="#F2F2F2"/>
<path d="M417.1 120.4C418.37 120.4 419.4 119.281 419.4 117.9C419.4 116.52 418.37 115.4 417.1 115.4C415.83 115.4 414.8 116.52 414.8 117.9C414.8 119.281 415.83 120.4 417.1 120.4Z" fill="black"/>
<path d="M523.5 327.5C523.5 327.5 526.7 337.9 528.9 341.7C531.1 345.5 532.8 341.8 532.3 339.8C531.8 337.8 529.5 329.6 529.5 329.6L523.5 327.5Z" fill="#D57E8F"/>
<path d="M506.8 296.5C506.8 296.5 508 300.5 507.8 305.7C507.6 310.9 506.7 315.3 509.7 321.2C512.7 327.1 514.2 329.7 515 332.5C515.9 335.3 517.1 336 518.7 335.4C520.2 334.8 520 331.4 519.1 328.8C518.1 326.2 517.3 320.8 519.9 324.2C522.5 327.6 531.7 338.8 534.1 340.6C536.5 342.3 537.7 340.9 536.5 338.1C535.3 335.4 526 318.7 524 313.2C522 307.7 519.2 299.3 518.6 292.7C518.1 286.1 506.8 296.5 506.8 296.5Z" fill="#E79DA8"/>
<path d="M359.3 230L346.5 224.4L341.1 236.8L355.8 243L359.3 230Z" fill="#D57E8F"/>
<path d="M423.5 126.7C422.8 126.7 422.2 126.5 421.8 126.1C421.5 125.8 421.1 125.1 421.1 124C421.2 121.9 423.1 121.2 423.2 121.2L423.5 122.1C423.4 122.1 422.1 122.6 422 124C422 124.6 422.1 125 422.4 125.3C422.7 125.6 423.1 125.7 423.6 125.7L423.7 126.7C423.6 126.7 423.6 126.7 423.5 126.7Z" fill="#9E6B73"/>
<path d="M425.7 132.1C423.2 132.1 422.2 130 422.2 129.9L423.1 129.5L422.6 129.7L423.1 129.5C423.1 129.6 423.9 131.1 425.7 131.1C427.7 131.1 430.7 129 430.7 129L431.3 129.8C431.1 129.9 428 132.1 425.7 132.1Z" fill="#9E6B73"/>
<path d="M424.9 160.9C424.9 160.9 417.1 160.9 410.2 166.3C403.3 171.7 401.8 177.7 399.8 185.6C397.8 193.5 387.1 234.3 387.1 234.3L360.2 225.3L350 249C350 249 388.8 263.1 393.4 264.6C397.9 266.1 402.3 263.8 402.3 263.8L398 293.4C398 293.4 408 294.2 413 290.7C418 287.2 420.7 285 420.9 274.3C421.2 263.7 424.9 160.9 424.9 160.9Z" fill="#353887"/>
<path d="M449.1 160.6C449.1 160.6 461.2 162 471 166C480.8 170 488.3 176.3 492.7 185.7C497.1 195.1 508.1 221.6 510.9 228C513.7 234.5 515.5 240 517.5 247.9C519.4 255.8 523.7 275.9 524.2 282.4C524.7 288.9 524.7 292.1 524.7 292.1L501.9 299.6C501.9 299.6 492.7 253.6 492.1 248.5C491.5 243.3 490.5 242.6 487 237.3C483.5 232 474.7 216.8 474.7 216.8C474.7 216.8 475.2 239.9 476.8 254.2C478.3 268.5 480.8 293.7 480.8 293.7C480.8 293.7 463.6 292 456.9 291.1C450.2 290.2 444.6 283.4 444.5 277.6C444.3 271.6 449.1 160.6 449.1 160.6Z" fill="#353887"/>
<path d="M402.8 263.9L401.8 263.8C404.8 243.1 402.2 197.7 402.2 197.2L403.2 197.1C403.2 197.6 405.8 243.1 402.8 263.9Z" fill="#262A6E"/>
<path d="M422.2 236.5L413.8 182.8L420.3 177L414.6 172.2L421 161.4L422.3 161.1L415.9 172L421.8 176.9L414.8 183.2L422.4 231.4L422.2 236.5Z" fill="#262A6E"/>
<path d="M445.9 236.1L446.1 232.4L462.1 184.4L452.6 176.9L459.9 172L451.6 160.9L453.1 161.2L461.4 172.2L454.3 177L463.3 184L463.2 184.4L445.9 236.1Z" fill="#262A6E"/>
<path d="M467.234 202.167L466.358 202.65L474.236 216.921L475.112 216.438L467.234 202.167Z" fill="#262A6E"/>
<path d="M529.9 450.5C526.5 453.2 527.7 456.6 526.2 462.8C524.7 469 520.2 474.4 516.3 479.2C512.4 484 510.2 489.8 511.9 495.4C513.5 497.3 514.7 498.6 515.4 499.5C516.2 500.5 517.7 500.6 518.8 499.8L570.4 459C571.5 458.2 571.6 456.6 570.8 455.6L566.8 450.5C566.8 450.5 555.5 441.5 554.3 440.3C553.1 439.1 551.2 439 550.2 440.3C549.2 441.6 549.7 442.8 547.7 444.7C545.7 446.6 541.4 449.3 539.6 450.7C537.8 452.1 536.1 451.2 535.1 450.4C534.1 449.6 531.8 449.1 529.9 450.5Z" fill="black"/>
<path d="M566.9 450.5L570.9 455.6C571.7 456.7 571.6 458.2 570.5 459L518.9 499.8C517.9 500.6 516.4 500.5 515.5 499.5C514.7 498.6 513.6 497.3 512 495.4L566.9 450.5Z" fill="white"/>
<path d="M362.8 465.1C358.7 463.7 356.5 466.5 350.5 468.6C344.5 470.7 337.5 469.8 331.4 469.1C325.3 468.4 319.1 469.7 315.4 474.1C314.7 476.5 314.2 478.2 313.8 479.3C313.4 480.6 314.1 481.9 315.3 482.3L377.5 503.9C378.8 504.3 380.2 503.7 380.6 502.4L382.7 496.3C382.7 496.3 384.1 481.9 384.5 480.3C384.9 478.6 383.9 477 382.3 476.9C380.7 476.8 379.9 477.8 377.2 477.1C374.5 476.4 369.9 474.3 367.8 473.5C365.7 472.7 365.5 470.8 365.6 469.6C365.8 468.2 365 465.9 362.8 465.1Z" fill="black"/>
<path d="M382.7 496.3L380.6 502.4C380.2 503.7 378.8 504.4 377.5 503.9L315.3 482.3C314.1 481.9 313.4 480.5 313.8 479.3C314.1 478.2 314.6 476.5 315.4 474.1L382.7 496.3Z" fill="white"/>
<path d="M275.5 474.9C271.5 474.9 270.4 478 265.9 481.6C261.3 485.2 255 486.5 249.6 487.7C244.1 488.9 239.2 491.8 237.3 496.8C237.4 499.1 237.4 500.7 237.5 501.7C237.5 502.9 238.5 503.8 239.7 503.8L299.7 504.1C300.9 504.1 301.9 503.1 301.9 501.9V496C301.9 496 298.9 483.2 298.7 481.6C298.5 480 297.2 478.9 295.8 479.3C294.4 479.7 294 480.8 291.5 481C289 481.2 284.4 480.7 282.3 480.6C280.2 480.5 279.5 478.9 279.3 477.8C279.1 476.7 277.6 474.9 275.5 474.9Z" fill="black"/>
<path d="M301.9 495.9V501.8C301.9 503 300.9 504 299.7 504L239.7 503.7C238.5 503.7 237.5 502.8 237.5 501.6C237.5 500.5 237.4 499 237.3 496.7L301.9 495.9Z" fill="white"/>
<path d="M416.7 447.1C413.9 449.9 415.3 452.9 414.6 458.6C413.9 464.4 410.4 469.7 407.3 474.4C404.2 479.1 402.9 484.7 405 489.5C406.7 491.1 407.8 492.2 408.6 492.9C409.5 493.7 410.8 493.7 411.7 492.9L454.3 450.6C455.2 449.7 455.2 448.3 454.3 447.4L450.1 443.2C450.1 443.2 438.9 436.2 437.7 435.3C436.5 434.3 434.7 434.4 434 435.7C433.3 437 433.8 438 432.1 440C430.5 441.9 426.9 444.8 425.3 446.2C423.8 447.6 422.1 447 421.2 446.4C420.3 445.8 418.2 445.6 416.7 447.1Z" fill="black"/>
<path d="M330.4 150.1C330.4 150.1 325.6 159.8 318 159.8C318 156.7 318 150.7 318 150.7L330.4 150.1Z" fill="black"/>
<path d="M450.2 443.3L454.4 447.5C455.3 448.4 455.3 449.8 454.4 450.7L411.8 493C411 493.8 409.6 493.9 408.7 493C407.9 492.3 406.8 491.2 405.1 489.6L450.2 443.3Z" fill="white"/>
<path d="M310.1 107C308.1 107 304.9 111.7 304.2 117.5C303.6 123.2 303.2 136 305 141.9C306.8 147.8 311.3 154.1 319 154.3C326.7 154.5 337.5 147.3 339.1 141.1C340.7 134.9 338.8 132.9 336.9 129.6C335 126.3 334 121.9 333.9 119.4C333.8 116.9 332.3 117 330.2 116.7C328.1 116.4 322.1 114.8 318.1 112.5C314.1 110.2 311.9 107 310.1 107Z" fill="#E79DA8"/>
<path d="M303.4 121.3C303.4 121.3 306.7 120.5 308.3 119.5C309.9 118.5 311.8 119.1 312.2 120.4C312.6 121.7 310.8 123.5 307.8 124.3C304.8 125.1 302.5 125.4 302.7 123.9C302.9 122.4 303.4 121.3 303.4 121.3Z" fill="black"/>
<path d="M305.5 131.2C305.2 130 306.8 128.7 308.3 128.7C309.8 128.7 312 130.2 311.5 131.9C311.1 133.2 309.7 133.7 308.2 133.7C306.8 133.8 305.7 132.4 305.5 131.2Z" fill="#4C3B3D"/>
<path d="M319.3 131.9C318.7 130.3 321.5 128.5 323.9 128.5C326.1 128.5 329.1 129.9 328.6 131.6C328.2 132.9 326.8 134 323.7 134C320.6 134 319.6 132.9 319.3 131.9Z" fill="#4C3B3D"/>
<path d="M319.6 120C319.9 118.6 322.6 118.8 325.3 119.6C328 120.4 331.8 121.3 331.2 123.2C330.6 125 327.8 124.2 325.7 123.8C323.6 123.5 318.9 122.7 319.6 120Z" fill="black"/>
<path d="M319.3 131.9C319.3 130.4 321.5 129.5 323.9 129.5C326.1 129.5 328.6 130.3 328.6 131.6C328.6 133 326.8 134 323.7 134C320.6 134 319.3 132.9 319.3 131.9Z" fill="#F2F2F2"/>
<path d="M323.8 134C325.015 134 326 133.015 326 131.8C326 130.585 325.015 129.6 323.8 129.6C322.585 129.6 321.6 130.585 321.6 131.8C321.6 133.015 322.585 134 323.8 134Z" fill="black"/>
<path d="M305.5 131.2C305.5 130.2 306.8 129.3 308.3 129.3C309.8 129.3 311.5 130.5 311.5 131.9C311.5 133.3 309.7 133.7 308.2 133.7C306.8 133.8 305.5 132.4 305.5 131.2Z" fill="#F2F2F2"/>
<path d="M308.3 133.8C309.404 133.8 310.3 132.815 310.3 131.6C310.3 130.385 309.404 129.4 308.3 129.4C307.195 129.4 306.3 130.385 306.3 131.6C306.3 132.815 307.195 133.8 308.3 133.8Z" fill="black"/>
<path d="M312.9 140.6C312.1 140 311.8 139.2 311.8 138.4C311.9 136.8 313.6 135.6 313.6 135.5L314.2 136.3C313.8 136.6 312.8 137.5 312.8 138.4C312.8 138.9 313 139.3 313.6 139.7L312.9 140.6Z" fill="#9E6B73"/>
<path d="M312.2 142.8H321.1C321.1 142.8 319.6 146.3 316.3 146.3C313.1 146.2 312.2 142.8 312.2 142.8Z" fill="#F2F2F2"/>
<path d="M331.5 217.7L350.2 222.7C350.2 222.7 343.2 242.8 341.8 247.2C340.4 251.6 336.8 254.1 330.6 252.9C324.4 251.7 289.6 245.9 285.1 245.4C280.6 244.9 278.1 244.9 274.1 245.5C270.1 246.1 263 247 260.8 247.1C258.7 247.3 258.5 246.5 258.4 245.7C258.3 244.9 259.6 244.4 260.8 244.2C262 244 262.9 243.7 263.8 243.5C264.7 243.3 264.2 241.9 263.1 242C262 242.1 256.7 242.6 254.6 243C252.5 243.4 252.2 242.4 252.2 241.7C252.2 241 253.1 240.4 254.1 240.2C255.2 240 260.8 239.4 261.8 239.3C262.8 239.2 262.9 238.2 261.6 238.1C260.3 238 251.9 237.6 250.1 237.4C248.3 237.2 248.2 236.2 248.4 235.5C248.6 234.7 249.9 234.3 251.1 234.4C252.3 234.5 261 234.6 262 234.6C263 234.6 263.3 233.2 262.5 233.1C261.7 233 253.5 232.1 252 231.9C250.6 231.7 250.3 230.6 250.6 229.9C250.9 229.2 252 229.2 253 229.3C254 229.4 262.3 230.6 264.3 230.6C266.3 230.6 268.8 230.7 269.9 230.7C271 230.7 271 230 269.5 229.1C268 228.2 265.1 227 265.3 225.1C265.4 223.3 267.2 223.2 268.6 224.1C270.1 225.1 273.3 226.9 275 227.5C276.7 228.1 280.3 230.5 281.2 232.2C282.2 233.9 283.6 234.7 285.6 234.7C287.6 234.7 322.6 234.7 324.4 234.7C326.3 234.7 326.7 233.5 327.1 231.8C327.7 230.3 331.5 217.7 331.5 217.7Z" fill="#E79DA8"/>
<path d="M314 327.5H313L314.5 282L304.8 275L305.4 274.2L315.5 281.5L314 327.5Z" fill="#7489E4"/>
<path d="M331.3 218.2L327.4 217.3L333.9 197L334.8 197.3L328.7 216.5L331.6 217.2L331.3 218.2Z" fill="#DFE5FE"/>
<defs>
<linearGradient id="paint0_linear_553_495" x1="133.3" y1="438.52" x2="496.216" y2="173.896" gradientUnits="userSpaceOnUse">
<stop stop-color="white" stop-opacity="0.1"/>
<stop offset="1" stop-color="white" stop-opacity="0.5"/>
</linearGradient>
<linearGradient id="paint1_linear_553_495" x1="141.739" y1="156.489" x2="435.538" y2="434.638" gradientUnits="userSpaceOnUse">
<stop stop-color="white" stop-opacity="0.5"/>
<stop offset="1" stop-color="white" stop-opacity="0.2"/>
</linearGradient>
<linearGradient id="paint2_linear_553_495" x1="404.434" y1="303.398" x2="243.131" y2="514.004" gradientUnits="userSpaceOnUse">
<stop stop-color="white" stop-opacity="0.1"/>
<stop offset="1" stop-color="white" stop-opacity="0.5"/>
</linearGradient>
<linearGradient id="paint3_linear_553_495" x1="75.6633" y1="421.063" x2="564.72" y2="167.753" gradientUnits="userSpaceOnUse">
<stop stop-color="white" stop-opacity="0.7"/>
<stop offset="1" stop-color="white"/>
</linearGradient>
</defs>
</svg>
