<svg width="125" height="204" viewBox="0 0 125 204" fill="none" xmlns="http://www.w3.org/2000/svg">
<g clip-path="url(#clip0_112_2977)">
<path d="M92.8706 50.6576C92.8706 50.6576 97.1647 38.9284 106.64 30.9329C116.116 22.9374 120.111 31.0058 117.744 37.2091C115.376 43.4125 107.084 59.1011 105.641 69.1146C104.198 79.1281 105.973 94.6674 106.64 101.654C107.308 108.64 103.826 120.147 102.79 128.89C101.755 137.632 101.679 147.496 104.493 153.994C96.4249 159.673 69.1307 177.456 69.1307 177.456L40.9849 146.003L92.8706 50.6576Z" fill="#FFB085"/>
<path opacity="0.5" d="M86.1802 11.5071H23.9526V129.265H86.1802V11.5071Z" fill="#EDF6FF"/>
<path d="M89.4641 0H20.6295C18.7482 0 17.2231 1.53952 17.2231 3.43861V142.564C17.2231 144.463 18.7482 146.003 20.6295 146.003H89.4641C91.3454 146.003 92.8705 144.463 92.8705 142.564V3.43861C92.8705 1.53952 91.3454 0 89.4641 0Z" fill="#E4DDD7"/>
<path d="M73.2585 74.9502C79.1454 74.9502 83.9178 70.1326 83.9178 64.1899C83.9178 58.2472 79.1454 53.4297 73.2585 53.4297C67.3715 53.4297 62.5991 58.2472 62.5991 64.1899C62.5991 70.1326 67.3715 74.9502 73.2585 74.9502Z" fill="#C3E691"/>
<path d="M73.2551 76.7678C70.7898 76.7678 68.38 76.0298 66.3303 74.6472C64.2806 73.2645 62.6831 71.2994 61.7399 69.0002C60.7967 66.701 60.5501 64.1711 61.0313 61.7304C61.5125 59.2897 62.6999 57.0479 64.4433 55.2885C66.1867 53.5291 68.4078 52.3311 70.8258 51.846C73.2437 51.361 75.7498 51.6107 78.0272 52.5635C80.3045 53.5163 82.2508 55.1295 83.6199 57.199C84.989 59.2685 85.7193 61.7014 85.7186 64.1899C85.7148 67.5252 84.4003 70.7228 82.0637 73.0808C79.727 75.4389 76.5591 76.7649 73.2551 76.7678ZM73.2551 55.251C71.5037 55.251 69.7916 55.7752 68.3354 56.7575C66.8792 57.7397 65.7442 59.1358 65.074 60.7691C64.4038 62.4025 64.2284 64.1998 64.5701 65.9338C64.9118 67.6678 65.7551 69.2606 66.9936 70.5107C68.232 71.7608 69.8098 72.6122 71.5275 72.9571C73.2452 73.302 75.0257 73.125 76.6438 72.4484C78.2618 71.7718 79.6448 70.6261 80.6178 69.1561C81.5908 67.6861 82.1102 65.9579 82.1102 64.1899C82.1083 61.8197 81.1747 59.5472 79.5145 57.8713C77.8542 56.1953 75.603 55.2529 73.2551 55.251Z" fill="white"/>
<path d="M75.0625 10.6472H71.4541V53.4295H75.0625V10.6472Z" fill="white"/>
<path d="M88.6619 25.0716L76.5273 53.9434L79.8492 55.3661L91.9837 26.4943L88.6619 25.0716Z" fill="white"/>
<path d="M88.4184 49.8894L80.5259 56.0984L82.744 58.9715L90.6365 52.7625L88.4184 49.8894Z" fill="white"/>
<path d="M89.5252 62.3687H83.9141V66.0112H89.5252V62.3687Z" fill="white"/>
<path d="M80.6574 72.5197L77.3521 73.981L87.8755 98.2385L91.1809 96.7773L80.6574 72.5197Z" fill="white"/>
<path d="M75.0625 74.9502H71.4541V131.695H75.0625V74.9502Z" fill="white"/>
<path d="M87.8042 93.9167L72.3979 102.298L74.1098 105.504L89.5161 97.1233L87.8042 93.9167Z" fill="white"/>
<path d="M88.6631 122.362H73.1396L73.0241 122.344L28.9614 116.501L29.4305 112.891L73.3741 118.72H88.6631V122.362Z" fill="white"/>
<path d="M25.2084 9.36924L19.6016 18.7852L22.6943 20.6618L28.3011 11.2459L25.2084 9.36924Z" fill="white"/>
<path d="M22.3328 16.4571L21.7192 20.0466L38.5493 22.9781L39.1629 19.3886L22.3328 16.4571Z" fill="white"/>
<path d="M38.8557 20.4824L59.1568 24.5986L51.3987 37.599L29.3042 32.9474L38.8557 20.4824Z" fill="#D4CBBA"/>
<path d="M29.304 32.9473L28.106 45.1208L72.7352 46.0533V41.7696L29.304 32.9473Z" fill="#D4CBBA"/>
<path d="M39.2744 45.354L39.7255 63.771L53.6432 63.9058L52.9757 45.6418L39.2744 45.354Z" fill="#D4CBBA"/>
<path d="M29.0049 34.6301L20.9761 33.8506L21.3189 30.2262L27.5037 30.8236L46.5491 8.83325L49.2626 11.2301L29.0049 34.6301Z" fill="white"/>
<path d="M28.2792 64.146L24.6743 63.9384L26.5724 30.5139L73.6264 40.4145L72.8903 43.9806L29.9354 34.9397L28.2792 64.146Z" fill="white"/>
<path d="M22.2882 43.1753L22.2139 46.8171L73.212 47.8775L73.2863 44.2357L22.2882 43.1753Z" fill="white"/>
<path d="M62.5998 61.9493L21.9155 62.2217L21.9395 65.8642L62.6237 65.5918L62.5998 61.9493Z" fill="white"/>
<path d="M41.0786 45.354H37.4702V64.0405H41.0786V45.354Z" fill="white"/>
<path d="M56.0425 45.6672H52.4341V63.7709H56.0425V45.6672Z" fill="white"/>
<path d="M63.3984 68.9674L23.7822 101.91L26.0765 104.722L65.6927 71.779L63.3984 68.9674Z" fill="white"/>
<path d="M73.2586 86.6538H46.7654L19.814 74.0577L21.3295 70.7502L47.5629 83.0112H73.2586V86.6538Z" fill="white"/>
<path d="M32.2009 97.1138L31.6597 100.72L73.4455 107.111L73.9868 103.505L32.2009 97.1138Z" fill="white"/>
<path d="M43.8713 100.59L29.6793 114.217L25.4863 102.852L31.498 97.8547L43.8713 100.59Z" fill="#C3E691"/>
<path d="M36.4813 129.753L30.0005 115.867H21.3691V131.695L36.4813 129.753Z" fill="#9BD4D1"/>
<path d="M25.001 100.88L21.7368 102.433L35.3568 131.611L38.621 130.058L25.001 100.88Z" fill="white"/>
<path d="M43.9726 99.2619L28.4478 113.845L30.9059 116.512L46.4308 101.929L43.9726 99.2619Z" fill="white"/>
<path d="M106.793 151.89L65.6444 179.771C62.704 181.763 61.9203 185.784 63.8939 188.753L72.119 201.123C74.0926 204.091 78.0762 204.882 81.0166 202.89L122.165 175.009C125.106 173.017 125.889 168.995 123.916 166.027L115.691 153.657C113.717 150.689 109.733 149.898 106.793 151.89Z" fill="#F15A3B"/>
<path d="M23.9168 11.5071H17.2231V129.265H23.9168V11.5071Z" fill="#E8E8E8"/>
<path d="M92.8738 11.5071H86.1802V129.265H92.8738V11.5071Z" fill="#E8E8E8"/>
<path d="M17.2231 34.4444C17.2231 34.4444 5.38023 26.2267 9.00672 18.8286C11.5326 13.678 17.2231 14.8691 17.2231 14.8691" fill="#FFB085"/>
<path d="M37.7263 79.201C36.9468 84.1804 33.7281 85.1785 26.9948 85.0291C20.2614 84.8798 16.6313 84.5082 9.82218 83.0876C3.01305 81.667 0.642308 75.3034 1.7501 70.4405C2.85789 65.5777 8.78656 63.2792 14.856 64.2481C20.4324 65.1313 25.8158 66.9797 30.7692 69.712C34.9874 72.1016 38.3938 74.9428 37.7263 79.201Z" fill="#FFB085"/>
<path d="M39.2708 96.3468C39.408 101.701 36.2325 103.37 29.1672 104.524C22.1019 105.679 18.2409 105.981 10.8544 105.832C3.46789 105.683 -0.223545 99.4867 0.0110039 94.1758C0.245553 88.8649 5.99019 85.3279 12.5179 85.1603C18.5161 84.9968 24.4974 85.8778 30.1992 87.7648C35.0526 89.4623 39.1518 91.7644 39.2708 96.3468Z" fill="#FFB085"/>
<path d="M23.7005 73.136L22.7478 79.4377C22.7118 79.6765 22.7238 79.9202 22.7831 80.1542C22.8424 80.3883 22.9477 80.6078 23.0928 80.7999C23.238 80.9919 23.4199 81.1525 23.6278 81.2721C23.8358 81.3917 24.0654 81.4677 24.3031 81.4958C27.3558 81.86 33.1979 82.0385 33.4721 78.2684C33.7355 74.5967 28.8425 72.5605 25.9846 71.6863C25.7398 71.6106 25.4817 71.5891 25.228 71.6231C24.9742 71.6571 24.7306 71.746 24.5139 71.8835C24.2972 72.0211 24.1123 72.2042 23.972 72.4203C23.8316 72.6364 23.739 72.8805 23.7005 73.136Z" fill="#FFC09D"/>
<path d="M23.917 92.8352L24.1191 99.2061C24.1267 99.4476 24.1826 99.6851 24.2831 99.9043C24.3837 100.124 24.527 100.32 24.7045 100.482C24.882 100.645 25.09 100.769 25.3161 100.848C25.5422 100.927 25.7819 100.96 26.0207 100.944C29.0879 100.736 34.865 99.8508 34.4536 96.0807C34.0495 92.4381 28.8678 91.3199 25.9016 90.9811C25.6472 90.9552 25.3903 90.9842 25.1478 91.0662C24.9053 91.1481 24.6829 91.2812 24.4953 91.4565C24.3076 91.6318 24.159 91.8454 24.0593 92.0831C23.9596 92.3208 23.9111 92.5771 23.917 92.8352Z" fill="#FFC09D"/>
<path d="M34.4966 115.019C35.5791 118.45 33.8254 120.118 29.4736 122.187C25.7744 124.026 21.8898 125.457 17.8869 126.456C13.0877 127.735 9.58749 124.431 8.75033 120.971C7.91317 117.51 10.9876 114.137 15.1734 112.811C19.0135 111.584 23.0344 111.035 27.0596 111.187C30.5092 111.361 33.58 112.083 34.4966 115.019Z" fill="#FFB085"/>
<path d="M23.9383 115.609L25.2374 119.685C25.2869 119.839 25.3666 119.982 25.472 120.105C25.5773 120.228 25.7061 120.328 25.8506 120.399C25.995 120.47 26.1522 120.512 26.3129 120.52C26.4735 120.529 26.6342 120.505 26.7854 120.45C28.7267 119.743 32.2919 118.086 31.3356 115.733C30.4047 113.449 26.8576 113.704 24.8801 114.046C24.7106 114.075 24.5492 114.14 24.4069 114.237C24.2646 114.335 24.1447 114.462 24.0554 114.61C23.9661 114.758 23.9094 114.924 23.8892 115.097C23.869 115.269 23.8857 115.444 23.9383 115.609Z" fill="#FFC09D"/>
<path d="M89.4677 146.003H20.6294C19.726 146.003 18.8596 145.64 18.2208 144.996C17.5819 144.351 17.2231 143.476 17.2231 142.564V129.265H92.874V142.568C92.8731 143.479 92.5138 144.353 91.875 144.997C91.2363 145.641 90.3705 146.003 89.4677 146.003Z" fill="#E8E8E8"/>
<path d="M20.6295 0H89.4677C90.3712 0 91.2376 0.362281 91.8764 1.00715C92.5152 1.65201 92.8741 2.52663 92.8741 3.43861V11.507H17.2231V3.43861C17.2231 2.52663 17.582 1.65201 18.2208 1.00715C18.8597 0.362281 19.7261 0 20.6295 0V0Z" fill="#E8E8E8"/>
<path d="M67.6331 3.69727H42.5039V7.05938H67.6331V3.69727Z" fill="#A3A3A3"/>
<path d="M44.1673 27.5345C44.1673 32.5904 37.1705 41.1723 35.0993 41.1723C32.8801 41.1723 26.0312 32.5904 26.0312 27.5345C26.0313 25.1067 26.9866 22.7784 28.6872 21.0617C30.3878 19.345 32.6943 18.3806 35.0993 18.3806C37.5042 18.3806 39.8107 19.345 41.5113 21.0617C43.2119 22.7784 44.1673 25.1067 44.1673 27.5345Z" fill="#FFB956"/>
<path d="M75.2538 67.2861C75.2538 72.3421 68.2607 80.924 66.1858 80.924C63.9666 80.924 57.1214 72.3421 57.1214 67.2861C57.0974 66.0689 57.3141 64.8591 57.7589 63.7274C58.2037 62.5958 58.8677 61.5651 59.712 60.6957C60.5562 59.8263 61.5638 59.1356 62.6757 58.6641C63.7877 58.1926 64.9816 57.9497 66.1876 57.9497C67.3937 57.9497 68.5876 58.1926 69.6996 58.6641C70.8115 59.1356 71.8191 59.8263 72.6633 60.6957C73.5076 61.5651 74.1716 62.5958 74.6164 63.7274C75.0612 64.8591 75.2779 66.0689 75.2538 67.2861Z" fill="#59B874"/>
<path d="M61.0442 97.9202C61.0442 102.976 54.0475 111.558 51.9762 111.558C49.757 111.558 42.9082 102.976 42.9082 97.9202C42.9082 95.4925 43.8636 93.1641 45.5642 91.4475C47.2647 89.7308 49.5712 88.7664 51.9762 88.7664C54.3812 88.7664 56.6877 89.7308 58.3883 91.4475C60.0888 93.1641 61.0442 95.4925 61.0442 97.9202Z" fill="#EE3840"/>
<path d="M33.183 33.9598H29.4194V25.4143H33.183V33.9598ZM30.1411 33.2313H32.4613V26.1428H30.1411V33.2313Z" fill="white"/>
<path d="M38.1339 33.9599H32.4614V22.697H38.1339V33.9599ZM33.1939 33.2314H37.4122V23.4255H33.1831L33.1939 33.2314Z" fill="white"/>
<path d="M32.7645 27.1265H29.7803V27.855H32.7645V27.1265Z" fill="white"/>
<path d="M37.7046 24.5073H32.7646V25.2358H37.7046V24.5073Z" fill="white"/>
<path d="M37.7046 26.4526H32.7646V27.1812H37.7046V26.4526Z" fill="white"/>
<path d="M37.7046 27.8477H32.7646V28.5762H37.7046V27.8477Z" fill="white"/>
<path d="M37.7046 29.29H32.7646V30.0186H37.7046V29.29Z" fill="white"/>
<path d="M37.7046 30.7327H32.7646V31.4612H37.7046V30.7327Z" fill="white"/>
<path d="M32.7645 28.5688H29.7803V29.2974H32.7645V28.5688Z" fill="white"/>
<path d="M32.7645 30.0115H29.7803V30.74H32.7645V30.0115Z" fill="white"/>
<path d="M52.2613 104.925H46.9785V96.3794H52.2613V104.925ZM47.7002 104.196H51.5396V97.1079H47.7002V104.196Z" fill="white"/>
<path d="M51.8136 98.0916H47.3428V98.8201H51.8136V98.0916Z" fill="white"/>
<path d="M51.8136 99.5339H47.3428V100.262H51.8136V99.5339Z" fill="white"/>
<path d="M51.8136 100.976H47.3428V101.705H51.8136V100.976Z" fill="white"/>
<path d="M56.8331 104.925H49.3203V91.9792H56.8187L56.8331 104.925ZM50.0564 104.197H56.1114V92.7078H50.042L50.0564 104.197Z" fill="white"/>
<path d="M56.3385 93.3926H49.6953V94.1211H56.3385V93.3926Z" fill="white"/>
<path d="M56.3385 95.2976H49.6953V96.0261H56.3385V95.2976Z" fill="white"/>
<path d="M56.3422 97.4285H51.9038V98.157H56.3422V97.4285Z" fill="white"/>
<path d="M56.3422 99.5339H51.9038V100.262H56.3422V99.5339Z" fill="white"/>
<path d="M56.3422 101.639H51.9038V102.368H56.3422V101.639Z" fill="white"/>
<path d="M40.9773 33.9598H37.4121V25.4143H40.9881L40.9773 33.9598ZM38.123 33.2313H40.2556V26.1428H38.1338L38.123 33.2313Z" fill="white"/>
<path d="M66.1788 73.0196H60.4053V66.4629H66.1788V73.0196ZM61.127 72.291H65.4571V67.1914H61.127V72.291Z" fill="white"/>
<path d="M71.9522 73.0196H66.1787V66.4629H71.9522V73.0196ZM66.9004 72.291H71.2305V67.1914H66.9004V72.291Z" fill="white"/>
<path d="M69.1666 66.4336H63.3931V60.6055H69.1666V66.4336ZM64.1148 65.7051H68.4449V61.334H64.1148V65.7051Z" fill="white"/>
<path d="M40.6204 27.1265H37.7661V27.855H40.6204V27.1265Z" fill="white"/>
<path d="M40.6204 28.5688H37.7661V29.2974H40.6204V28.5688Z" fill="white"/>
<path d="M40.6204 30.0115H37.7661V30.74H40.6204V30.0115Z" fill="white"/>
<path d="M35.5938 22.9229H34.8721V26.8168H35.5938V22.9229Z" fill="white"/>
<path d="M65.771 69.5117H60.8311V70.2403H65.771V69.5117Z" fill="white"/>
<path d="M63.6636 67.0347H62.9419V72.7135H63.6636V67.0347Z" fill="white"/>
<path d="M71.5445 69.5117H66.6045V70.2403H71.5445V69.5117Z" fill="white"/>
<path d="M69.437 67.0347H68.7153V72.7135H69.437V67.0347Z" fill="white"/>
<path d="M68.7515 63.1772H63.8115V63.9058H68.7515V63.1772Z" fill="white"/>
<path d="M66.6445 60.7002H65.9229V66.379H66.6445V60.7002Z" fill="white"/>
</g>
<defs>
<clipPath id="clip0_112_2977">
<rect width="125" height="204" fill="white"/>
</clipPath>
</defs>
</svg>
