<svg width="134" height="119" viewBox="0 0 134 119" fill="none" xmlns="http://www.w3.org/2000/svg">
<path d="M107.929 49.9785L107.695 49.9237L25.0982 49.9242L24.8667 49.9785C24.6782 49.9775 24.4818 49.9624 24.2751 49.9336C24.2671 49.9326 24.2162 49.9252 24.2162 49.9252L24.1287 49.9091C22.0617 49.5396 20.5616 47.7386 20.5616 45.6262C20.5616 43.2468 22.4701 41.3074 24.8287 41.2747L24.9335 41.2768C24.9335 41.2768 25.012 41.2752 25.0337 41.2742H114.623L116.068 41.3211V21.4102H110.541H103.349H24.0931C10.8082 21.4102 0 32.2733 0 45.6262C0 58.9792 10.8033 69.8778 24.0887 69.8778H107.931C107.956 69.8793 107.922 69.8783 107.956 69.8793C110.273 69.9464 112.195 71.8182 112.195 74.1487C112.195 76.5406 110.07 78.2877 107.696 78.3005H22.3666V98.4102H41.2042H107.907C121.192 98.4102 132 87.5471 132 74.1941C132 60.849 121.204 49.9905 107.929 49.9785Z" fill="#5B5D6E"/>
<path d="M19.6663 117.831C18.0626 116.717 4 103.726 4 93.5671C4 82.491 11.4018 76.4102 20.5 76.4102C29.5982 76.4102 37 82.491 37 93.5671C37 103.711 22.9372 116.715 21.3335 117.83L20.5002 118.41L19.6663 117.831Z" fill="#FF5145"/>
<path d="M119.818 46.5311C118.506 45.6296 107 35.1132 107 26.889C107 17.9226 113.056 13 120.5 13C127.944 13 134 17.9226 134 26.889C134 35.1009 122.494 45.628 121.182 46.5307L120.5 47L119.818 46.5311Z" fill="#FF5145"/>
<path d="M120.5 32.4102C117.468 32.4102 115 29.9429 115 26.9102C115 23.8774 117.467 21.4102 120.5 21.4102C123.533 21.4102 126 23.8774 126 26.9102C126 29.9429 123.533 32.4102 120.5 32.4102Z" fill="white"/>
<path d="M20.5 100.41C16.3644 100.41 13 97.0455 13 92.9102C13 88.7748 16.3644 85.4102 20.5 85.4102C24.6356 85.4102 28 88.7748 28 92.9102C28 97.0455 24.6356 100.41 20.5 100.41Z" fill="white"/>
<path d="M57.6249 86.1721H51.4847C50.6689 86.1721 50.0074 86.8226 50.0074 87.6249V90.5065C50.0074 91.3088 50.6689 91.9593 51.4847 91.9593H57.6249C58.4407 91.9593 59.1022 91.3088 59.1022 90.5065V87.6249C59.1024 86.8224 58.4407 86.1721 57.6249 86.1721Z" fill="#FFDC64"/>
<path d="M73.8084 86.3037H67.6683C66.8525 86.3037 66.191 86.9542 66.191 87.7565V90.638C66.191 91.4404 66.8525 92.0908 67.6683 92.0908H73.8084C74.6243 92.0908 75.2858 91.4404 75.2858 90.638V87.7565C75.2858 86.954 74.6243 86.3037 73.8084 86.3037Z" fill="#FFDC64"/>
<path d="M89.9919 86.4353H83.8518C83.036 86.4353 82.3745 87.0858 82.3745 87.8881V90.7696C82.3745 91.5719 83.036 92.2224 83.8518 92.2224H89.9919C90.8078 92.2224 91.4692 91.5719 91.4692 90.7696V87.8881C91.4695 87.0855 90.808 86.4353 89.9919 86.4353Z" fill="#FFDC64"/>
<path d="M106.176 86.5667H100.036C99.2197 86.5667 98.5582 87.2171 98.5582 88.0195V90.901C98.5582 91.7033 99.2197 92.3538 100.036 92.3538H106.176C106.991 92.3538 107.653 91.7033 107.653 90.901V88.0197C107.653 87.2171 106.991 86.5667 106.176 86.5667Z" fill="#FFDC64"/>
<path d="M30.62 34.3494H36.7601C37.5759 34.3494 38.2374 33.6989 38.2374 32.8966V30.0151C38.2374 29.2125 37.5759 28.5623 36.7601 28.5623H30.62C29.8042 28.5623 29.1427 29.2128 29.1427 30.0151V32.8966C29.1427 33.6989 29.8042 34.3494 30.62 34.3494Z" fill="#FFDC64"/>
<path d="M46.8037 34.4807H52.9438C53.7597 34.4807 54.4211 33.8302 54.4211 33.0279V30.1464C54.4211 29.3438 53.7597 28.6936 52.9438 28.6936H46.8037C45.9879 28.6936 45.3264 29.3441 45.3264 30.1464V33.0279C45.3262 33.8302 45.9876 34.4807 46.8037 34.4807Z" fill="#FFDC64"/>
<path d="M62.9871 34.6123H69.1272C69.943 34.6123 70.6045 33.9618 70.6045 33.1595V30.278C70.6045 29.4754 69.943 28.8252 69.1272 28.8252H62.9871C62.1712 28.8252 61.5098 29.4757 61.5098 30.278V33.1595C61.5098 33.9618 62.1712 34.6123 62.9871 34.6123Z" fill="#FFDC64"/>
<path d="M79.1708 34.7439H85.3109C86.1267 34.7439 86.7882 34.0934 86.7882 33.2911V30.4096C86.7882 29.607 86.1267 28.9568 85.3109 28.9568H79.1708C78.3549 28.9568 77.6935 29.6073 77.6935 30.4096V33.2911C77.6932 34.0934 78.3549 34.7439 79.1708 34.7439Z" fill="#FFDC64"/>
<path d="M94.6854 34.7439H100.826C101.641 34.7439 102.303 34.0934 102.303 33.2911V30.4096C102.303 29.607 101.641 28.9568 100.826 28.9568H94.6854C93.8696 28.9568 93.2081 29.6073 93.2081 30.4096V33.2911C93.2081 34.0934 93.8696 34.7439 94.6854 34.7439Z" fill="#FFDC64"/>
<path d="M42.3775 57.2356H36.2374C35.4216 57.2356 34.7601 57.8861 34.7601 58.6884V61.5699C34.7601 62.3722 35.4216 63.0227 36.2374 63.0227H42.3775C43.1934 63.0227 43.8548 62.3722 43.8548 61.5699V58.6884C43.8551 57.8858 43.1934 57.2356 42.3775 57.2356Z" fill="#FFDC64"/>
<path d="M58.5611 57.3672H52.421C51.6052 57.3672 50.9437 58.0177 50.9437 58.82V61.7015C50.9437 62.5038 51.6052 63.1543 52.421 63.1543H58.5611C59.377 63.1543 60.0384 62.5038 60.0384 61.7015V58.82C60.0384 58.0174 59.377 57.3672 58.5611 57.3672Z" fill="#FFDC64"/>
<path d="M74.7446 57.4988H68.6045C67.7887 57.4988 67.1272 58.1493 67.1272 58.9516V61.8331C67.1272 62.6354 67.7887 63.2859 68.6045 63.2859H74.7446C75.5604 63.2859 76.2219 62.6354 76.2219 61.8331V58.9516C76.2222 58.149 75.5607 57.4988 74.7446 57.4988Z" fill="#FFDC64"/>
<path d="M90.9283 57.6304H84.7882C83.9724 57.6304 83.3109 58.2809 83.3109 59.0832V61.9647C83.3109 62.767 83.9724 63.4175 84.7882 63.4175H90.9283C91.7442 63.4175 92.4056 62.767 92.4056 61.9647V59.0832C92.4056 58.2806 91.7442 57.6304 90.9283 57.6304Z" fill="#FFDC64"/>
<path d="M109.386 57.6304H103.245C102.43 57.6304 101.768 58.2809 101.768 59.0832V61.9647C101.768 62.767 102.43 63.4175 103.245 63.4175H109.386C110.201 63.4175 110.863 62.767 110.863 61.9647V59.0832C110.863 58.2806 110.201 57.6304 109.386 57.6304Z" fill="#FFDC64"/>
<path d="M44.0823 26.7893C42.9796 26.7893 42.0854 25.9075 42.0854 24.8194V11.4249C42.0854 10.3369 42.9796 9.45508 44.0823 9.45508C45.185 9.45508 46.0791 10.3369 46.0791 11.4249V24.8197C46.0791 25.9075 45.185 26.7893 44.0823 26.7893Z" fill="#9B735A"/>
<path d="M65.3811 58.9806C64.2784 58.9806 63.3843 58.0988 63.3843 57.0108V49.4C63.3843 48.312 64.2784 47.4302 65.3811 47.4302C66.4838 47.4302 67.3779 48.312 67.3779 49.4V57.0108C67.3779 58.0988 66.484 58.9806 65.3811 58.9806Z" fill="#9B735A"/>
<path d="M96.7971 89.1844C95.6944 89.1844 94.8003 88.3027 94.8003 87.2146V79.6039C94.8003 78.5158 95.6944 77.634 96.7971 77.634C97.8998 77.634 98.7939 78.5158 98.7939 79.6039V87.2146C98.7939 88.3027 97.8998 89.1844 96.7971 89.1844Z" fill="#9B735A"/>
<path d="M64.5 52.4102C62.5701 52.4102 61 50.9375 61 49.1275V47.6928C61 45.8828 62.5701 44.4102 64.5 44.4102C66.4299 44.4102 68 45.8828 68 47.6928V49.1275C68 50.9375 66.4299 52.4102 64.5 52.4102Z" fill="#B4E66E"/>
<path d="M65.3301 49.0401V47.7726C65.3301 46.5583 65.9805 45.4422 66.9925 44.8527C66.5027 44.5728 65.9358 44.4102 65.3301 44.4102C63.4939 44.4102 62 45.8828 62 47.6928V49.1275C62 50.9375 63.4939 52.4102 65.3301 52.4102C65.9391 52.4102 66.5084 52.2455 67 51.9632C65.9899 51.372 65.3301 50.2616 65.3301 49.0401Z" fill="#A0D755"/>
<path d="M95.5 82.4102C93.5701 82.4102 92 80.9375 92 79.1275V77.6928C92 75.8828 93.5701 74.4102 95.5 74.4102C97.4299 74.4102 99 75.8828 99 77.6928V79.1275C98.9997 80.9375 97.4296 82.4102 95.5 82.4102Z" fill="#B4E66E"/>
<path d="M95.0667 79.1273V77.6925C95.0667 76.4042 95.8567 75.2901 97 74.7529C96.5371 74.5355 96.0175 74.4102 95.4666 74.4102C93.5552 74.4102 92 75.8828 92 77.6928V79.1275C92 80.9375 93.5552 82.4102 95.4666 82.4102C96.0175 82.4102 96.5371 82.2846 97 82.0674C95.8567 81.5297 95.0667 80.4156 95.0667 79.1273Z" fill="#A0D755"/>
<path d="M43 15.4102C39.6916 15.4102 37 12.6574 37 9.27368V6.54663C37 3.16322 39.6913 0.410156 43 0.410156C46.3084 0.410156 49 3.16296 49 6.54663V9.27395C48.9997 12.6574 46.3084 15.4102 43 15.4102Z" fill="#B4E66E"/>
<path d="M42.6616 9.27368V6.54636C42.6616 4.06189 44.0337 1.91899 46 0.955037C45.2884 0.606292 44.4998 0.410156 43.6693 0.410156C40.5432 0.410156 38 3.16296 38 6.54663V9.27368C38 12.6571 40.543 15.4102 43.6693 15.4102C44.4998 15.4102 45.2884 15.214 46 14.8653C44.0337 13.9011 42.6616 11.7582 42.6616 9.27368Z" fill="#A0D755"/>
</svg>
