<svg width="214" height="133" viewBox="0 0 214 133" fill="none" xmlns="http://www.w3.org/2000/svg">
<g clip-path="url(#clip0_110_2725)">
<path d="M214.005 0H75.3647V104.177H214.005V0Z" fill="#2E6542"/>
<path d="M101.893 37.731H0V133H101.893V37.731Z" fill="#EDF6FF"/>
<path d="M189.542 59.0113C189.542 61.2015 189.111 63.3703 188.274 65.3937C187.437 67.4171 186.211 69.2556 184.664 70.8041C183.118 72.3526 181.282 73.5807 179.261 74.4184C177.24 75.2561 175.075 75.687 172.888 75.6863H158.095V8.40576C159.982 8.40541 161.842 8.84751 163.528 9.69669C165.213 10.5459 166.677 11.7785 167.801 13.296C168.926 14.8134 169.68 16.5734 170.003 18.4352C170.327 20.2969 170.21 22.2086 169.663 24.0172C171.577 24.6026 173.345 25.5875 174.85 26.907C176.356 28.2266 177.565 29.8509 178.398 31.6727C179.231 33.4945 179.669 35.4725 179.684 37.4763C179.698 39.48 179.287 41.464 178.48 43.2974C181.717 44.4539 184.518 46.5848 186.498 49.398C188.479 52.2113 189.542 55.5691 189.542 59.0113Z" fill="#81A713"/>
<path d="M145.995 20.5144C145.99 21.6849 146.154 22.85 146.482 23.9733C144.548 24.5439 142.759 25.5217 141.233 26.8413C139.707 28.1608 138.48 29.7917 137.635 31.6246C136.789 33.4576 136.345 35.4503 136.331 37.4693C136.317 39.4883 136.734 41.487 137.553 43.3316C133.873 44.6724 130.783 47.2693 128.824 50.666C126.866 54.0626 126.166 58.0418 126.846 61.9043C127.526 65.7669 129.544 69.2658 132.545 71.7863C135.545 74.3068 139.336 75.6877 143.253 75.6863H158.095V8.40577C156.506 8.40448 154.933 8.71674 153.465 9.32468C151.997 9.93262 150.663 10.8243 149.539 11.9489C148.416 13.0734 147.524 14.4087 146.916 15.8784C146.308 17.3481 145.995 18.9235 145.995 20.5144Z" fill="#A8D32A"/>
<path d="M158.226 87.7463C157.919 87.7463 157.616 87.6857 157.332 87.568C157.049 87.4503 156.791 87.2777 156.575 87.0602C156.358 86.8427 156.186 86.5845 156.069 86.3004C155.952 86.0163 155.892 85.7119 155.893 85.4046V60.036C155.879 59.7198 155.928 59.404 156.039 59.1076C156.15 58.8112 156.32 58.5404 156.538 58.3115C156.756 58.0826 157.019 57.9005 157.309 57.776C157.6 57.6516 157.913 57.5874 158.229 57.5874C158.545 57.5874 158.858 57.6516 159.148 57.776C159.439 57.9005 159.701 58.0826 159.919 58.3115C160.138 58.5404 160.307 58.8112 160.418 59.1076C160.529 59.404 160.579 59.7198 160.564 60.036V85.4046C160.564 86.0257 160.318 86.6213 159.88 87.0605C159.441 87.4996 158.846 87.7463 158.226 87.7463Z" fill="#725D57"/>
<path d="M148.796 59.0356L158.231 64.4216" stroke="#725D57" stroke-width="13" stroke-miterlimit="10" stroke-linecap="round"/>
<path d="M170.102 59.0113C170.102 61.2015 169.671 63.3703 168.834 65.3937C167.997 67.4171 166.771 69.2556 165.224 70.8041C163.678 72.3526 161.842 73.5807 159.821 74.4184C157.8 75.2561 155.635 75.687 153.448 75.6863H138.635V8.40576C140.522 8.40541 142.383 8.84751 144.068 9.69669C145.754 10.5459 147.217 11.7785 148.342 13.296C149.466 14.8134 150.22 16.5734 150.544 18.4352C150.867 20.2969 150.751 22.2086 150.204 24.0172C152.117 24.6026 153.885 25.5875 155.391 26.907C156.897 28.2266 158.106 29.8509 158.939 31.6727C159.772 33.4945 160.21 35.4725 160.224 37.4763C160.238 39.48 159.828 41.464 159.021 43.2974C162.261 44.4512 165.066 46.5809 167.05 49.3943C169.034 52.2077 170.1 55.567 170.102 59.0113Z" fill="#93BF00"/>
<path d="M126.55 20.5144C126.542 21.6851 126.706 22.8505 127.037 23.9733C125.101 24.5399 123.308 25.5153 121.779 26.8339C120.251 28.1525 119.022 29.7838 118.175 31.6179C117.329 33.452 116.885 35.4464 116.872 37.467C116.86 39.4875 117.28 41.4872 118.104 43.3316C114.423 44.6726 111.332 47.2699 109.374 50.667C107.416 54.0642 106.716 58.0439 107.397 61.9067C108.078 65.7696 110.096 69.2685 113.098 71.7886C116.099 74.3087 119.891 75.6888 123.808 75.6863H138.616V8.40576C135.414 8.41222 132.345 9.6908 130.083 11.9609C127.821 14.231 126.55 17.3072 126.55 20.5144Z" fill="#B9DD39"/>
<path d="M138.781 87.7463C138.162 87.745 137.568 87.4977 137.131 87.0587C136.693 86.6196 136.448 86.0247 136.448 85.4045V34.6672C136.475 34.0653 136.733 33.4971 137.168 33.0809C137.603 32.6646 138.182 32.4324 138.783 32.4324C139.385 32.4324 139.964 32.6646 140.399 33.0809C140.834 33.4971 141.092 34.0653 141.119 34.6672V85.4045C141.119 86.0256 140.873 86.6212 140.434 87.0604C139.996 87.4995 139.401 87.7463 138.781 87.7463Z" fill="#725D57"/>
<path d="M138.781 66.7635C138.376 66.7621 137.979 66.6562 137.627 66.4562L128.196 61.0654C127.658 60.7587 127.264 60.2505 127.1 59.6526C126.936 59.0547 127.016 58.4161 127.322 57.8772C127.628 57.3383 128.136 56.9433 128.733 56.7791C129.33 56.6148 129.967 56.6948 130.505 57.0015L139.941 62.3679C140.4 62.6176 140.763 63.0148 140.97 63.4957C141.178 63.9766 141.218 64.5133 141.084 65.0197C140.951 65.5262 140.651 65.9729 140.233 66.2883C139.815 66.6036 139.304 66.7693 138.781 66.7587V66.7635Z" fill="#725D57"/>
<path d="M138.786 57.2404C138.264 57.2487 137.754 57.0814 137.338 56.7653C136.922 56.4491 136.624 56.0024 136.492 55.4966C136.359 54.9907 136.4 54.455 136.608 53.9751C136.815 53.4953 137.177 53.099 137.636 52.8496L146.921 47.61C147.46 47.3053 148.098 47.2277 148.695 47.3942C149.291 47.5607 149.797 47.9578 150.101 48.4979C150.406 49.0381 150.483 49.6773 150.317 50.2747C150.151 50.8721 149.754 51.379 149.215 51.6837L139.931 56.9233C139.583 57.1257 139.188 57.2349 138.786 57.2404Z" fill="#725D57"/>
<path d="M138.781 47.4978C138.395 47.4989 138.015 47.4033 137.675 47.2197L128.245 42.1265C127.7 41.8328 127.293 41.3342 127.115 40.7404C126.937 40.1466 127.002 39.5063 127.295 38.9603C127.588 38.4143 128.086 38.0073 128.679 37.8289C129.272 37.6505 129.911 37.7152 130.456 38.0089L139.892 43.1022C140.348 43.35 140.708 43.7428 140.916 44.2187C141.124 44.6946 141.168 45.2263 141.041 45.7299C140.913 46.2335 140.622 46.6803 140.213 46.9995C139.804 47.3188 139.3 47.4924 138.781 47.4929V47.4978Z" fill="#725D57"/>
<path d="M138.635 85.4045V90.5173H109.506C108.828 90.5173 108.177 90.2474 107.698 89.7671C107.218 89.2868 106.949 88.6353 106.949 87.956C106.949 87.2767 107.218 86.6253 107.698 86.145C108.177 85.6646 108.828 85.3948 109.506 85.3948L138.635 85.4045Z" fill="#A8D32A"/>
<path d="M189.187 87.9658C189.183 88.6439 188.913 89.2931 188.434 89.7726C187.955 90.2521 187.307 90.5232 186.63 90.5271H138.635V85.4045H186.63C187.308 85.4058 187.957 85.6761 188.437 86.1561C188.916 86.6362 189.186 87.2869 189.187 87.9658Z" fill="#93BF00"/>
<path opacity="0.5" d="M98.8237 104.177L101.892 102.494V104.177H98.8237Z" fill="white"/>
<path d="M87.6154 37.731L75.3599 44.4439V39.9946L79.4954 37.731H87.6154Z" fill="#FE8886"/>
<path d="M101.892 37.731V38.0188L75.3599 52.5521V48.1028L94.2985 37.731H101.892Z" fill="#FE8886"/>
<path d="M101.892 41.3801V45.8245L75.3599 60.3627V55.9134L101.892 41.3801Z" fill="#FE8886"/>
<path d="M101.892 49.4055V53.8548L75.3599 68.3881V63.9388L101.892 49.4055Z" fill="#FE8886"/>
<path d="M101.892 57.6941V62.1434L75.3599 76.6767V72.2274L101.892 57.6941Z" fill="#FE8886"/>
<path d="M101.892 65.8022V70.2515L75.3599 84.7848V80.3355L101.892 65.8022Z" fill="#FE8886"/>
<path d="M101.892 73.613V78.0574L75.3599 92.5956V88.1463L101.892 73.613Z" fill="#FE8886"/>
<path d="M101.892 81.6382V86.0875L75.3599 100.621V96.1715L101.892 81.6382Z" fill="#FE8886"/>
<path d="M101.893 90.0198V94.469L84.1718 104.177H76.0469L101.893 90.0198Z" fill="#FE8886"/>
<path d="M101.893 98.0449V102.494L98.8241 104.177H90.6992L101.893 98.0449Z" fill="#FE8886"/>
<path d="M42.6899 84.4629H9.71777V120.14H42.6899V84.4629Z" fill="white"/>
<path d="M43.9077 121.36H8.49512V83.2434H43.9077V121.36ZM10.9306 118.921H41.4721V85.6827H10.9306V118.921Z" fill="black"/>
<path d="M70.8688 60.0408H16.1133V95.7179H70.8688V60.0408Z" fill="white"/>
<path d="M72.0817 96.9423H14.8857V58.8064H72.0817V96.9423ZM17.3213 94.503H69.6461V61.2457H17.3213V94.503Z" fill="black"/>
<path d="M16.7755 59.0291L15.4473 61.0737L70.2029 96.7555L71.5312 94.7109L16.7755 59.0291Z" fill="black"/>
<path d="M70.2023 59.0299L15.4404 94.7021L16.7683 96.747L71.5302 61.0747L70.2023 59.0299Z" fill="black"/>
</g>
<defs>
<clipPath id="clip0_110_2725">
<rect width="214" height="133" fill="white"/>
</clipPath>
</defs>
</svg>
