<svg width="252" height="222" viewBox="0 0 252 222" fill="none" xmlns="http://www.w3.org/2000/svg">
<path fill-rule="evenodd" clip-rule="evenodd" d="M7.48518 150.599C-16.0597 112.45 26.9442 78.7096 68.4814 81.0002C110.019 83.2909 141.614 -3.3276 211.295 0.455385C259.455 3.06994 255.005 88.0759 243.798 118.291C233.207 146.848 212.265 175.654 180.697 188.277C157.162 197.688 130.881 201.437 106.141 198.651C73.5829 194.985 24.9446 178.888 7.48518 150.599Z" fill="white" fill-opacity="0.2"/>
<path fill-rule="evenodd" clip-rule="evenodd" d="M164.348 123.577H169.375V110.482H164.348V123.577Z" fill="#E6E6E1"/>
<path fill-rule="evenodd" clip-rule="evenodd" d="M169.375 123.577H170.362V110.482H169.375V123.577Z" fill="#DFDFDA"/>
<path fill-rule="evenodd" clip-rule="evenodd" d="M167.715 115.626C167.715 116.797 166.765 117.746 165.595 117.746C164.424 117.746 163.475 116.797 163.475 115.626C163.475 114.456 164.424 113.507 165.595 113.507C166.765 113.507 167.715 114.456 167.715 115.626Z" fill="#DFDFDA"/>
<path fill-rule="evenodd" clip-rule="evenodd" d="M166.219 121.94H167.311V119.29H166.219V121.94Z" fill="#DFDFDA"/>
<path fill-rule="evenodd" clip-rule="evenodd" d="M166.687 115.626C166.687 117.262 165.361 118.588 163.725 118.588C162.088 118.588 160.762 117.262 160.762 115.626C160.762 113.99 162.088 112.664 163.725 112.664C165.361 112.664 166.687 113.99 166.687 115.626Z" fill="#ECECE8"/>
<path fill-rule="evenodd" clip-rule="evenodd" d="M245.18 214.315C245.18 218.215 191.033 221.376 124.24 221.376C57.446 221.376 3.29907 218.215 3.29907 214.315C3.29907 210.415 57.446 207.254 124.24 207.254C191.033 207.254 245.18 210.415 245.18 214.315Z" fill="#D7AD4D"/>
<path fill-rule="evenodd" clip-rule="evenodd" d="M30.4652 163.027H185.629V57.5171H30.4652V163.027Z" fill="#1A282B"/>
<path fill-rule="evenodd" clip-rule="evenodd" d="M181.802 163.027H69.0842C70.5108 161.974 71.7084 160.678 71.0222 159.593H147.648V159.937H181.87C181.845 160.947 181.822 161.976 181.802 163.027ZM66.2898 163.027H61.1425C61.0277 162.542 60.6915 162.114 60.054 161.782C59.681 161.588 59.3454 161.5 59.0448 161.5C58.2413 161.5 57.6806 162.125 57.2889 163.027H30.4652V57.5171H185.629V92.2133C184.646 92.8326 183.443 93.5491 182.195 94.1957V60.95H33.8996V159.593H67.9521C67.2241 160.486 66.664 161.878 66.2898 163.027ZM182.198 150.599H182.195V101.063C183.41 100.595 184.539 100.039 185.513 99.4988C184.798 104.372 184.089 110.709 184.089 117.037C184.089 119.224 184.173 121.411 184.372 123.536C184.372 123.536 184.421 123.547 184.513 123.565C183.901 127.789 182.828 136.699 182.198 150.599Z" fill="#8A9392"/>
<path fill-rule="evenodd" clip-rule="evenodd" d="M147.648 159.594H71.0223C70.9094 159.415 70.7447 159.241 70.522 159.076C70.1552 158.804 69.8078 158.685 69.4797 158.685C68.9102 158.685 68.3993 159.045 67.9521 159.594H33.8997V60.9502H182.195V94.1959C180.212 95.2243 178.116 96.0761 176.616 96.0761C172.827 96.0761 169.103 89.0201 169.103 89.0201L168.741 89.2421L167.766 87.4792L166.914 81.8275L165.243 82.0639L163.03 86.1478L166.079 89.3138L166.58 90.5654L166.182 90.8086C166.182 90.8086 170.578 102.231 176.616 102.231C178.516 102.231 180.445 101.738 182.195 101.064V150.599H147.648V159.594ZM96.725 148.596H148.335V144.648H147.648V146.107H97.4118V144.648H96.725V146.107H53.469V144.648H52.7822V146.794H96.725V148.596ZM150.052 143.003H157.986V106.365H156.269V68.7034H125.482V69.3899H155.582V106.365H150.052V107.051H155.582V142.316H150.052V143.003ZM143.049 142.659H147.992V83.9746L122.53 70.4881L97.0681 83.9746V90.9526H63.5065L60.4052 96.9329H63.98V103.962H57.9338L53.1259 113.231H58.3792V139.152H53.1259V142.659H143.049ZM54.7907 104.305H57.3662V103.618H55.4775V91.2962H62.002V90.6096H54.7907V104.305ZM63.7822 89.1542H64.469V79.9387H96.725V81.6529H97.4118V79.2521H63.7822V89.1542ZM169.677 159.25H181.852V155.611H169.677V159.25ZM156.815 159.25H168.99V155.611H156.815V159.25ZM148.335 159.25H156.128V155.611H148.335V159.25ZM156.815 154.925H181.852V151.286H156.815V154.925ZM148.335 154.925H156.128V151.286H148.335V154.925ZM97.4118 147.91H147.648V146.794H97.4118V147.91ZM156.269 142.316H157.299V107.051H156.269V142.316Z" fill="#F6F7F5"/>
<path fill-rule="evenodd" clip-rule="evenodd" d="M58.3792 142.659H99.3173V108.596H58.3792V142.659Z" fill="#1A282B"/>
<path fill-rule="evenodd" clip-rule="evenodd" d="M58.3792 139.152H97.068V113.231H58.3792V139.152ZM92.6917 139.152H94.0652V117.67H76.7702V139.152H92.6917ZM63.1254 135.545H74.1373V117.67H63.1254V135.545Z" fill="#B7BCB9"/>
<path fill-rule="evenodd" clip-rule="evenodd" d="M76.7703 139.152H94.0653V117.67H76.7703V139.152Z" fill="#426AA5"/>
<path fill-rule="evenodd" clip-rule="evenodd" d="M63.1254 135.545H74.1373V117.67H63.1254V135.545Z" fill="#426AA5"/>
<path fill-rule="evenodd" clip-rule="evenodd" d="M73.1374 134.545H69.2887L73.1374 120.162V134.545ZM65.5325 134.545H64.1252V118.669H73.1374H69.7803L65.5325 134.545Z" fill="#C0D2E3"/>
<path fill-rule="evenodd" clip-rule="evenodd" d="M69.2888 134.545H65.5325L69.7803 118.669H73.1374V120.162L69.2888 134.545Z" fill="#E0EAF1"/>
<path fill-rule="evenodd" clip-rule="evenodd" d="M78.1437 139.152H84.7774V119.043H78.1437V139.152Z" fill="#C0D2E3"/>
<path fill-rule="evenodd" clip-rule="evenodd" d="M86.058 139.152H92.6917V119.043H86.058V139.152Z" fill="#C0D2E3"/>
<path fill-rule="evenodd" clip-rule="evenodd" d="M63.98 109.068H98.3343V93.0435H63.98V109.068Z" fill="#1A282B"/>
<path fill-rule="evenodd" clip-rule="evenodd" d="M63.98 103.962H97.0681V96.9329H63.98V103.962ZM81.9811 102.861H92.993V98.0329H81.9811V102.861ZM69.9288 102.861H80.9401V98.0329H69.9288V102.861Z" fill="#B7BCB9"/>
<path fill-rule="evenodd" clip-rule="evenodd" d="M69.9288 102.861H80.9401V98.0327H69.9288V102.861Z" fill="#426AA5"/>
<path fill-rule="evenodd" clip-rule="evenodd" d="M79.9408 101.862H76.9337L77.6909 99.0325H73.9352L73.1786 101.862H70.9287V99.0325H79.9408V101.862Z" fill="#C0D2E3"/>
<path fill-rule="evenodd" clip-rule="evenodd" d="M81.9811 102.861H92.993V98.0327H81.9811V102.861Z" fill="#426AA5"/>
<path fill-rule="evenodd" clip-rule="evenodd" d="M91.9931 101.862H88.9859L89.7432 99.0325H85.9875L85.2302 101.862H82.981V99.0325H91.9931V101.862Z" fill="#C0D2E3"/>
<path fill-rule="evenodd" clip-rule="evenodd" d="M76.9336 101.862H73.1786L73.9352 99.0325H77.6909L76.9336 101.862Z" fill="#E0EAF1"/>
<path fill-rule="evenodd" clip-rule="evenodd" d="M88.986 101.862H85.2303L85.9876 99.0325H89.7433L88.986 101.862Z" fill="#E0EAF1"/>
<path fill-rule="evenodd" clip-rule="evenodd" d="M108.17 113.231H53.1259L57.9338 103.962H106.796L108.17 113.231Z" fill="#426AA5"/>
<path fill-rule="evenodd" clip-rule="evenodd" d="M97.068 113.231H53.1259L57.9338 103.962H97.068V113.231Z" fill="#204F91"/>
<path fill-rule="evenodd" clip-rule="evenodd" d="M100.143 96.9329H60.4052L63.5065 90.9526H99.2562L100.143 96.9329Z" fill="#426AA5"/>
<path fill-rule="evenodd" clip-rule="evenodd" d="M97.068 96.9329H60.4052L63.5065 90.9526H97.068V96.9329Z" fill="#204F91"/>
<path fill-rule="evenodd" clip-rule="evenodd" d="M53.1259 142.659H99.3173V139.152H53.1259V142.659Z" fill="#1A282B"/>
<path fill-rule="evenodd" clip-rule="evenodd" d="M53.1259 142.659H97.068V139.152H53.1259V142.659Z" fill="#8A9392"/>
<path fill-rule="evenodd" clip-rule="evenodd" d="M97.0681 83.9745V111.416H147.992V83.9745L122.53 70.488L97.0681 83.9745Z" fill="#426AA5"/>
<path fill-rule="evenodd" clip-rule="evenodd" d="M97.0681 111.416V83.9745L122.53 70.488L147.992 83.9745V109.068H97.0681V111.416ZM103.385 103.618H141.675V86.7957L122.53 76.1528L103.385 86.7957V103.618Z" fill="#98B3D3"/>
<path fill-rule="evenodd" clip-rule="evenodd" d="M97.0681 142.659H147.992V109.068H97.0681V142.659Z" fill="#426AA5"/>
<path fill-rule="evenodd" clip-rule="evenodd" d="M147.992 142.659H143.049V117.179H102.011V142.659H97.0681V109.068H147.992V142.659Z" fill="#98B3D3"/>
<path fill-rule="evenodd" clip-rule="evenodd" d="M141.675 103.618H103.385V86.7957L122.53 76.1528L141.675 86.7957V103.618Z" fill="#426AA5"/>
<path fill-rule="evenodd" clip-rule="evenodd" d="M141.675 103.618H103.385V86.7957L122.53 76.1528L141.675 86.7957V103.618ZM123.05 100.163H134.062V89.1542H123.05V100.163ZM110.998 100.163H122.01V89.1542H110.998V100.163Z" fill="#D5E3ED"/>
<path fill-rule="evenodd" clip-rule="evenodd" d="M110.998 100.163H122.01V89.1541H110.998V100.163Z" fill="#426AA5"/>
<path fill-rule="evenodd" clip-rule="evenodd" d="M121.01 99.1635H117.185L119.596 90.1538H115.841L113.43 99.1635H111.998V90.1538H121.01V99.1635Z" fill="#C0D2E3"/>
<path fill-rule="evenodd" clip-rule="evenodd" d="M123.05 100.163H134.062V89.1541H123.05V100.163Z" fill="#426AA5"/>
<path fill-rule="evenodd" clip-rule="evenodd" d="M133.062 99.1635H129.237L131.648 90.1538H127.893L125.482 99.1635H124.05V90.1538H133.062V99.1635Z" fill="#C0D2E3"/>
<path fill-rule="evenodd" clip-rule="evenodd" d="M102.011 142.659H143.049V117.179H102.011V142.659Z" fill="#1A282B"/>
<path fill-rule="evenodd" clip-rule="evenodd" d="M143.049 142.659H141.675V118.554H135.041V142.659H133.761V118.554H127.127V142.659H125.847V118.554H119.213V142.659H117.933V118.554H111.299V142.659H110.019V118.554H103.385V142.659H102.011V117.179H143.049V142.659Z" fill="#606A6B"/>
<path fill-rule="evenodd" clip-rule="evenodd" d="M117.185 99.1635H113.43L115.841 90.1538H119.596L117.185 99.1635Z" fill="#E0EAF1"/>
<path fill-rule="evenodd" clip-rule="evenodd" d="M129.237 99.1635H125.482L127.893 90.1538H131.648L129.237 99.1635Z" fill="#E0EAF1"/>
<path fill-rule="evenodd" clip-rule="evenodd" d="M152.845 89.4552L122.53 72.9555L92.2152 89.4552L90.5735 86.4401L122.53 69.0461L154.487 86.4401L152.845 89.4552Z" fill="#426AA5"/>
<path fill-rule="evenodd" clip-rule="evenodd" d="M150.052 113.231H95.0078L96.3813 106.708H148.679L150.052 113.231Z" fill="#426AA5"/>
<path fill-rule="evenodd" clip-rule="evenodd" d="M143.36 89.1541L122.53 77.8165L101.7 89.1541L100.386 86.7414L122.53 74.6892L144.674 86.7414L143.36 89.1541Z" fill="#426AA5"/>
<path fill-rule="evenodd" clip-rule="evenodd" d="M103.385 142.659H110.019V118.553H103.385V142.659Z" fill="#AEB3B1"/>
<path fill-rule="evenodd" clip-rule="evenodd" d="M111.299 142.659H117.933V118.553H111.299V142.659Z" fill="#AEB3B1"/>
<path fill-rule="evenodd" clip-rule="evenodd" d="M119.214 142.659H125.847V118.553H119.214V142.659Z" fill="#AEB3B1"/>
<path fill-rule="evenodd" clip-rule="evenodd" d="M127.127 142.659H133.761V118.553H127.127V142.659Z" fill="#AEB3B1"/>
<path fill-rule="evenodd" clip-rule="evenodd" d="M135.042 142.659H141.675V118.553H135.042V142.659Z" fill="#AEB3B1"/>
<path fill-rule="evenodd" clip-rule="evenodd" d="M97.4118 147.91H147.648V146.794H97.4118V147.91ZM147.648 146.107H97.4118V144.648H96.725V146.107H53.469V144.648H52.7822V146.794H96.725V148.596H148.335V144.648H147.648V146.107Z" fill="#1A282B"/>
<path fill-rule="evenodd" clip-rule="evenodd" d="M156.269 142.316H157.299V107.051H156.269V142.316ZM156.269 106.365V68.7034H125.482V69.3899H155.582V106.365H150.052V107.051H155.582V142.316H150.052V143.003H157.986V106.365H156.269Z" fill="#1A282B"/>
<path fill-rule="evenodd" clip-rule="evenodd" d="M64.469 79.9385H96.725V81.6528H97.4118V79.252H63.7822V89.154H64.469V79.9385Z" fill="#1A282B"/>
<path fill-rule="evenodd" clip-rule="evenodd" d="M57.3662 103.618H55.4774V91.2962H62.002V90.6096H54.7906V104.305H57.3662V103.618Z" fill="#1A282B"/>
<path fill-rule="evenodd" clip-rule="evenodd" d="M148.335 148.596H96.725V146.794H52.7822V144.648H53.469V146.107H96.725V144.648H97.4118V146.107H147.648V144.648H148.335V148.596ZM97.4118 147.91H147.648V146.794H97.4118V147.91Z" fill="#465455"/>
<path fill-rule="evenodd" clip-rule="evenodd" d="M157.986 143.003H150.052V142.316H155.582V107.051H150.052V106.365H155.582V69.3899H125.482V68.7034H156.269V106.365H157.986V143.003ZM156.269 142.316H157.299V107.051H156.269V142.316Z" fill="#465455"/>
<path fill-rule="evenodd" clip-rule="evenodd" d="M64.469 89.154H63.7822V79.252H97.4118V81.6528H96.725V79.9385H64.469V89.154Z" fill="#465455"/>
<path fill-rule="evenodd" clip-rule="evenodd" d="M57.3662 104.305H54.7906V90.6096H62.002V91.2962H55.4774V103.618H57.3662V104.305Z" fill="#465455"/>
<path fill-rule="evenodd" clip-rule="evenodd" d="M169.676 154.925H156.815V151.286H181.852V154.925H169.676ZM169.676 159.25H181.852V155.611H169.676V159.25ZM156.815 159.25H168.99V155.611H156.815V159.25ZM148.335 159.25H156.128V155.611H148.335V159.25ZM148.335 154.925H156.128V151.286H148.335V154.925ZM156.815 150.599H147.648V159.937H182.538V150.599H156.815Z" fill="#1A282B"/>
<path fill-rule="evenodd" clip-rule="evenodd" d="M181.87 159.937H147.648V150.599H182.198C182.067 153.494 181.955 156.606 181.87 159.937ZM169.676 159.25H181.852V155.611H169.676V159.25ZM156.815 159.25H168.99V155.611H156.815V159.25ZM148.335 159.25H156.128V155.611H148.335V159.25ZM156.815 154.925H181.852V151.286H156.815V154.925ZM148.335 154.925H156.128V151.286H148.335V154.925Z" fill="#465455"/>
<path fill-rule="evenodd" clip-rule="evenodd" d="M62.0587 183.368C62.0587 183.368 65.3928 175.734 62.1773 175.56C58.9624 175.387 62.0587 183.368 62.0587 183.368Z" fill="#426AA5"/>
<path fill-rule="evenodd" clip-rule="evenodd" d="M68.0868 177.554C68.0868 177.554 74.388 172.993 71.4233 170.698C68.4586 168.402 68.0868 177.554 68.0868 177.554Z" fill="#426AA5"/>
<path fill-rule="evenodd" clip-rule="evenodd" d="M84.5366 179.436C84.5366 179.436 92.3773 182.303 91.8652 178.691C91.3525 175.079 84.5366 179.436 84.5366 179.436Z" fill="#426AA5"/>
<path fill-rule="evenodd" clip-rule="evenodd" d="M71.5262 176.312C71.5262 176.312 80.3462 177.923 76.9112 181.787C73.4768 185.649 71.5262 176.312 71.5262 176.312Z" fill="#426AA5"/>
<path fill-rule="evenodd" clip-rule="evenodd" d="M58.7541 190.14C58.7541 190.14 58.6062 181.874 55.8386 183.611C53.071 185.349 58.7541 190.14 58.7541 190.14Z" fill="#426AA5"/>
<path fill-rule="evenodd" clip-rule="evenodd" d="M75.063 176.105C75.063 176.105 84.1637 177.44 82.8974 173.334C81.6312 169.228 75.063 176.105 75.063 176.105Z" fill="#426AA5"/>
<path fill-rule="evenodd" clip-rule="evenodd" d="M81.6125 177.898C81.6125 177.898 86.7336 183.828 82.865 184.633C78.997 185.437 81.6125 177.898 81.6125 177.898Z" fill="#426AA5"/>
<path fill-rule="evenodd" clip-rule="evenodd" d="M64.1902 180.632C64.1902 180.632 70.9686 177.144 70.6854 181.653C70.4022 186.163 64.1902 180.632 64.1902 180.632Z" fill="#426AA5"/>
<path fill-rule="evenodd" clip-rule="evenodd" d="M58.2563 189.695C57.7205 189.197 56.851 188.335 56.1567 187.392C56.9065 186.961 57.6781 186.449 58.2632 185.9C58.4765 186.812 58.5975 187.813 58.6668 188.614C58.5233 188.972 58.3867 189.333 58.2563 189.695Z" fill="#83A5CB"/>
<path fill-rule="evenodd" clip-rule="evenodd" d="M78.4038 176.31C77.3927 176.052 76.381 175.874 75.3761 175.789C76.3479 174.832 79.3626 172.027 81.328 172.027C82.0348 172.027 82.6068 172.39 82.8974 173.334C82.9798 173.601 83.0184 173.845 83.0184 174.069C83.0178 175.841 80.5801 176.276 78.4038 176.31Z" fill="#83A5CB"/>
<path fill-rule="evenodd" clip-rule="evenodd" d="M82.326 184.693C81.1141 184.693 80.7479 183.636 80.7479 182.355C80.7479 180.949 81.1902 179.274 81.4422 178.434C81.7628 178.582 82.0803 178.736 82.3947 178.895C83.1912 179.982 84.309 181.74 84.3102 183.041C84.3115 183.805 83.9266 184.412 82.865 184.633C82.6697 184.674 82.4901 184.693 82.326 184.693Z" fill="#83A5CB"/>
<path fill-rule="evenodd" clip-rule="evenodd" d="M69.2426 183.424C67.7574 183.424 65.5412 181.749 64.618 180.993C64.9362 180.653 65.2674 180.326 65.6117 180.014C66.4837 179.684 67.6165 179.345 68.5908 179.345C69.7547 179.345 70.6929 179.827 70.6941 181.383C70.6941 181.47 70.691 181.56 70.6854 181.653C70.6037 182.96 70.0242 183.424 69.2426 183.424Z" fill="#83A5CB"/>
<path fill-rule="evenodd" clip-rule="evenodd" d="M59.9873 187.117C59.9873 187.117 66.1345 181.586 67.2429 186.165C68.3513 190.745 59.9873 187.117 59.9873 187.117Z" fill="#426AA5"/>
<path fill-rule="evenodd" clip-rule="evenodd" d="M56.9589 194.375C57.899 189.62 60.016 184.701 63.1367 180.987C69.423 173.505 78.3509 174.894 85.952 179.664C86.5546 180.042 85.8485 180.897 85.2509 180.522C81.2196 177.993 76.3654 175.85 71.5076 176.875C68.0076 177.614 65.2013 179.966 63.1311 182.793C60.6454 186.186 58.8714 190.415 58.0543 194.548C57.9164 195.246 56.8198 195.077 56.9589 194.375Z" fill="#426AA5"/>
<path fill-rule="evenodd" clip-rule="evenodd" d="M58.6693 192.024H57.5172C58.6219 188.036 60.5287 184.091 63.1367 180.987C66.2711 177.256 70.0629 175.731 74.0195 175.731C77.9972 175.731 82.1409 177.272 85.952 179.664C86.1148 179.766 86.1822 179.902 86.1822 180.04C86.1822 180.325 85.8947 180.615 85.5641 180.615C85.4611 180.615 85.3545 180.587 85.2509 180.522C84.3377 179.949 83.3828 179.396 82.3947 178.895C82.0804 178.736 81.7629 178.582 81.4422 178.434C79.1013 177.355 76.5993 176.613 74.0575 176.613C73.6976 176.613 73.3371 176.628 72.9765 176.659C72.5355 176.696 72.0933 176.758 71.651 176.846C71.603 176.855 71.5556 176.865 71.5076 176.875C69.2496 177.352 67.281 178.5 65.6118 180.014C65.2675 180.326 64.9362 180.653 64.6181 180.993C64.0861 181.562 63.5908 182.166 63.1311 182.793C62.3202 183.899 61.5854 185.095 60.9348 186.347C60.7701 186.664 60.6104 186.984 60.457 187.309C59.7341 188.83 59.1334 190.42 58.6693 192.024Z" fill="#204F91"/>
<path fill-rule="evenodd" clip-rule="evenodd" d="M52.2894 184.423C52.2894 184.423 49.0901 176.416 46.6244 178.656C44.158 180.898 52.2894 184.423 52.2894 184.423Z" fill="#426AA5"/>
<path fill-rule="evenodd" clip-rule="evenodd" d="M52.3905 175.756C52.3905 175.756 53.613 167.799 49.7663 168.313C45.9195 168.826 52.3905 175.756 52.3905 175.756Z" fill="#426AA5"/>
<path fill-rule="evenodd" clip-rule="evenodd" d="M65.7415 165.013C65.7415 165.013 73.5547 161.325 70.522 159.076C67.4886 156.826 65.7415 165.013 65.7415 165.013Z" fill="#426AA5"/>
<path fill-rule="evenodd" clip-rule="evenodd" d="M53.9767 172.32C53.9767 172.32 61.5785 166.999 61.9265 172.337C62.274 177.676 53.9767 172.32 53.9767 172.32Z" fill="#426AA5"/>
<path fill-rule="evenodd" clip-rule="evenodd" d="M54.8749 191.781C54.8749 191.781 48.6778 185.877 47.9449 189.179C47.212 192.481 54.8749 191.781 54.8749 191.781Z" fill="#426AA5"/>
<path fill-rule="evenodd" clip-rule="evenodd" d="M56.3969 169.565C56.3969 169.565 63.9987 163.836 60.054 161.782C56.1081 159.728 56.3969 169.565 56.3969 169.565Z" fill="#426AA5"/>
<path fill-rule="evenodd" clip-rule="evenodd" d="M62.4817 166.048C62.4817 166.048 70.5738 166.591 68.3538 170.024C66.1332 173.457 62.4817 166.048 62.4817 166.048Z" fill="#426AA5"/>
<path fill-rule="evenodd" clip-rule="evenodd" d="M51.8241 180.863C51.8241 180.863 54.1844 173.336 57.3007 176.824C60.417 180.313 51.8241 180.863 51.8241 180.863Z" fill="#426AA5"/>
<path fill-rule="evenodd" clip-rule="evenodd" d="M53.2613 191.843C52.5414 191.843 51.67 191.807 50.8411 191.676C51.4162 191.268 52.179 190.676 52.7928 190.024C53.1147 190.268 53.4172 190.511 53.6867 190.735C53.8464 191.101 54.0123 191.464 54.1851 191.823C53.9281 191.835 53.6131 191.843 53.2613 191.843ZM49.3578 191.299C48.5675 190.99 47.9892 190.515 47.9056 189.791C48.3105 189.722 48.661 189.65 48.9143 189.594C49.0808 190.157 49.2286 190.726 49.3578 191.299ZM50.2691 190.95C50.0582 190.027 49.8006 189.113 49.495 188.219C49.9335 188.305 50.4288 188.515 50.9359 188.793C50.6514 189.516 50.4275 190.308 50.2691 190.95ZM48.6348 188.708C48.5462 188.616 48.4508 188.52 48.3498 188.42C48.3972 188.379 48.4471 188.344 48.4995 188.314C48.5456 188.445 48.5912 188.576 48.6348 188.708Z" fill="#83A5CB"/>
<path fill-rule="evenodd" clip-rule="evenodd" d="M56.3918 169.105C56.3937 167.395 56.5784 161.5 59.0447 161.5C59.3454 161.5 59.6809 161.589 60.054 161.782C60.8667 162.205 61.1892 162.785 61.1892 163.438C61.1892 163.752 61.1144 164.082 60.984 164.42C60.6185 165.37 59.8132 166.382 58.9773 167.255C58.0517 167.811 57.1859 168.428 56.3918 169.105Z" fill="#83A5CB"/>
<path fill-rule="evenodd" clip-rule="evenodd" d="M66.9822 170.932C65.3105 170.932 63.4386 167.818 62.7524 166.563C63.0949 166.434 63.4386 166.313 63.7848 166.198C65.6174 166.469 68.7349 167.182 68.7393 168.9C68.7399 169.234 68.6227 169.608 68.3538 170.024C67.9359 170.669 67.4675 170.932 66.9822 170.932Z" fill="#83A5CB"/>
<path fill-rule="evenodd" clip-rule="evenodd" d="M52.4017 180.811C52.3924 180.575 52.3874 180.339 52.3874 180.103C52.3868 179.857 52.3917 179.612 52.4024 179.366C53.0504 177.906 54.2013 175.901 55.6328 175.901C56.1549 175.901 56.7144 176.167 57.3008 176.824C57.7786 177.359 57.9813 177.825 57.9813 178.23C57.9838 180.046 53.9331 180.648 52.4017 180.811Z" fill="#83A5CB"/>
<path fill-rule="evenodd" clip-rule="evenodd" d="M53.5438 188.674C53.5438 188.674 53.9405 180.125 58.1204 182.64C62.3002 185.155 53.5438 188.674 53.5438 188.674Z" fill="#426AA5"/>
<path fill-rule="evenodd" clip-rule="evenodd" d="M56.6888 196.183C53.8694 192.032 51.7854 186.896 51.3195 181.898C50.3801 171.827 57.8958 166.264 66.9379 164.137C67.6546 163.968 67.7719 165.111 67.0601 165.278C62.2647 166.406 57.1567 168.421 54.3784 172.744C52.3774 175.858 52.0693 179.635 52.6456 183.215C53.3374 187.513 55.1625 191.895 57.612 195.502C58.0262 196.111 57.1043 196.795 56.6888 196.183Z" fill="#426AA5"/>
<path fill-rule="evenodd" clip-rule="evenodd" d="M55.5667 192.024H54.2817C54.2493 191.957 54.2168 191.89 54.185 191.823C54.0122 191.464 53.8463 191.101 53.6866 190.735C53.5164 190.345 53.3529 189.951 53.1976 189.555C53.5875 189.055 53.8507 188.538 53.8507 188.054C53.8507 188.022 53.8494 187.99 53.847 187.958C54.3248 189.348 54.9036 190.713 55.5667 192.024ZM53.6604 187.399C53.585 187.28 53.4858 187.165 53.3598 187.055C53.1109 186.838 52.8751 186.743 52.6518 186.743C52.5215 186.743 52.3948 186.775 52.2732 186.835C51.801 185.202 51.4729 183.542 51.3195 181.898C51.2658 181.327 51.2402 180.771 51.2396 180.23C51.2359 171.208 58.4079 166.144 66.9379 164.136C66.9871 164.125 67.0333 164.12 67.0763 164.12C67.3764 164.12 67.5385 164.378 67.5385 164.653C67.5385 164.919 67.3863 165.201 67.0601 165.278C65.9741 165.533 64.872 165.835 63.7847 166.197C63.4385 166.313 63.0949 166.434 62.7524 166.563C59.9941 167.6 57.3974 169.079 55.4793 171.28C55.4151 171.354 55.3508 171.429 55.2885 171.504C54.9953 171.857 54.719 172.227 54.4614 172.617C54.4339 172.659 54.4058 172.701 54.3784 172.744C52.9519 174.964 52.3861 177.521 52.3873 180.103C52.3873 181.143 52.4803 182.188 52.6456 183.215C52.8701 184.611 53.2145 186.015 53.6604 187.399Z" fill="#204F91"/>
<path fill-rule="evenodd" clip-rule="evenodd" d="M48.0747 186.01C48.0747 186.01 46.252 179.036 49.024 179.32C51.796 179.604 48.0747 186.01 48.0747 186.01Z" fill="#426AA5"/>
<path fill-rule="evenodd" clip-rule="evenodd" d="M43.704 180.23C43.704 180.23 38.9316 175.483 41.774 173.92C44.6171 172.357 43.704 180.23 43.704 180.23Z" fill="#426AA5"/>
<path fill-rule="evenodd" clip-rule="evenodd" d="M29.3886 179.627C29.3886 179.627 22.3002 181.022 23.2246 178.004C24.1484 174.986 29.3886 179.627 29.3886 179.627Z" fill="#426AA5"/>
<path fill-rule="evenodd" clip-rule="evenodd" d="M40.9307 178.705C40.9307 178.705 33.1743 178.897 35.5907 182.661C38.0078 186.426 40.9307 178.705 40.9307 178.705Z" fill="#426AA5"/>
<path fill-rule="evenodd" clip-rule="evenodd" d="M49.9884 192.244C49.9884 192.244 51.2272 185.198 53.3598 187.055C55.4919 188.913 49.9884 192.244 49.9884 192.244Z" fill="#426AA5"/>
<path fill-rule="evenodd" clip-rule="evenodd" d="M37.9354 178.053C37.9354 178.053 29.9762 177.97 31.6111 174.63C33.246 171.291 37.9354 178.053 37.9354 178.053Z" fill="#426AA5"/>
<path fill-rule="evenodd" clip-rule="evenodd" d="M32.0951 178.705C32.0951 178.705 26.9197 183.086 30.1184 184.293C33.3164 185.502 32.0951 178.705 32.0951 178.705Z" fill="#426AA5"/>
<path fill-rule="evenodd" clip-rule="evenodd" d="M46.6206 183.384C46.6206 183.384 41.2956 179.491 40.9306 183.384C40.5657 187.279 46.6206 183.384 46.6206 183.384Z" fill="#426AA5"/>
<path fill-rule="evenodd" clip-rule="evenodd" d="M50.4736 191.93C50.4113 191.603 50.3433 191.276 50.269 190.95C50.6701 189.325 51.4897 186.743 52.6518 186.743C52.8751 186.743 53.1109 186.838 53.3598 187.055C53.7053 187.356 53.8501 187.696 53.8507 188.054C53.8507 188.538 53.5875 189.055 53.1976 189.555C53.0741 189.713 52.9375 189.87 52.7928 190.024C52.179 190.676 51.4161 191.268 50.841 191.676C50.7069 191.771 50.5834 191.856 50.4736 191.93Z" fill="#83A5CB"/>
<path fill-rule="evenodd" clip-rule="evenodd" d="M35.0511 177.779C33.2946 177.474 31.3865 176.832 31.3897 175.478C31.3903 175.222 31.4595 174.94 31.6111 174.63C31.9348 173.969 32.3783 173.704 32.8817 173.704C34.5852 173.704 36.9729 176.744 37.7096 177.741C37.3534 177.715 36.9935 177.703 36.6318 177.703C36.1097 177.703 35.582 177.729 35.0511 177.779Z" fill="#83A5CB"/>
<path fill-rule="evenodd" clip-rule="evenodd" d="M30.8164 184.438C30.6112 184.438 30.3791 184.392 30.1184 184.294C29.3624 184.009 29.0742 183.546 29.0748 183.006C29.0767 181.851 30.3978 180.342 31.2923 179.453C31.5824 179.358 31.8749 179.27 32.1687 179.186C32.2361 179.679 32.3246 180.49 32.3246 181.328C32.324 182.837 32.0365 184.438 30.8164 184.438Z" fill="#83A5CB"/>
<path fill-rule="evenodd" clip-rule="evenodd" d="M42.2438 185.115C41.4753 185.115 40.9152 184.755 40.9152 183.707C40.9152 183.606 40.9202 183.499 40.9308 183.384C41.0524 182.087 41.7254 181.655 42.5681 181.655C43.5056 181.655 44.6546 182.19 45.4886 182.665C45.7412 182.978 45.9801 183.302 46.2065 183.636C45.3863 184.116 43.525 185.115 42.2438 185.115Z" fill="#83A5CB"/>
<path fill-rule="evenodd" clip-rule="evenodd" d="M49.3415 189.494C49.3415 189.494 44.8305 183.939 43.2667 187.705C41.7036 191.471 49.3415 189.494 49.3415 189.494Z" fill="#426AA5"/>
<path fill-rule="evenodd" clip-rule="evenodd" d="M50.9534 196.106C50.7893 191.915 49.6422 187.425 47.474 183.83C43.1064 176.589 35.2882 176.575 28.148 179.631C27.5822 179.873 28.0706 180.7 28.6326 180.459C32.4189 178.838 36.8563 177.66 40.8715 179.19C43.7639 180.291 45.846 182.68 47.2357 185.375C48.9043 188.609 49.8518 192.463 49.994 196.106C50.0183 196.721 50.9777 196.724 50.9534 196.106Z" fill="#426AA5"/>
<path fill-rule="evenodd" clip-rule="evenodd" d="M50.4918 192.024H49.5106C49.3497 191.206 49.1507 190.393 48.9143 189.594C48.8263 189.297 48.7334 189.001 48.6348 188.708C48.2475 187.55 47.7797 186.429 47.2357 185.375C46.9276 184.777 46.5845 184.193 46.2065 183.636C45.9801 183.302 45.7412 182.978 45.4886 182.665C44.2654 181.146 42.7372 179.9 40.8715 179.19C40.8316 179.175 40.7916 179.16 40.7517 179.145C40.3856 179.011 40.0157 178.899 39.6433 178.807C38.7176 178.579 37.7764 178.478 36.8314 178.478C35.2689 178.478 33.6951 178.754 32.1688 179.186C31.875 179.27 31.5824 179.358 31.2924 179.452C30.3804 179.747 29.4897 180.092 28.6326 180.459C28.5622 180.489 28.4935 180.503 28.4274 180.503C28.1311 180.503 27.8966 180.231 27.8966 179.981C27.8966 179.841 27.9702 179.707 28.148 179.631C30.9549 178.429 33.866 177.703 36.6318 177.703C40.9014 177.703 44.8236 179.436 47.474 183.829C48.9473 186.272 49.9491 189.129 50.4918 192.024Z" fill="#204F91"/>
<path fill-rule="evenodd" clip-rule="evenodd" d="M67.3083 192.024L64.8956 210.224C64.585 212.565 62.5877 214.315 60.2249 214.315H45.2109C42.8481 214.315 40.8502 212.565 40.5395 210.224L38.1268 192.024H67.3083Z" fill="#426AA5"/>
<path fill-rule="evenodd" clip-rule="evenodd" d="M60.2249 214.315H45.2109C42.8481 214.315 40.8502 212.565 40.5395 210.224L38.1268 192.024H67.3083L65.782 203.539L65.7614 203.695L64.8956 210.224C64.585 212.565 62.5877 214.315 60.2249 214.315Z" fill="#7094C0"/>
<path fill-rule="evenodd" clip-rule="evenodd" d="M169.927 91.3852L167.766 87.479L166.914 81.8274L165.243 82.0637L163.03 86.1477L166.079 89.3137L167.677 93.309L169.927 91.3852Z" fill="#F0B389"/>
<path fill-rule="evenodd" clip-rule="evenodd" d="M188.096 91.3766C188.046 91.0423 187.666 90.8727 187.386 91.0635C185.521 92.3338 179.761 96.076 176.616 96.076C172.827 96.076 169.103 89.02 169.103 89.02L166.182 90.8085C166.182 90.8085 170.578 102.231 176.616 102.231C182.654 102.231 188.977 97.2596 188.977 97.2596L188.096 91.3766Z" fill="#426AA5"/>
<path fill-rule="evenodd" clip-rule="evenodd" d="M176.616 102.231C170.578 102.231 166.182 90.8085 166.182 90.8085L169.103 89.02C169.103 89.02 172.827 96.076 176.616 96.076C179.669 96.076 185.186 92.5496 187.212 91.1808C186.963 91.5019 186.787 91.8848 186.711 92.3064C186.647 92.6624 186.573 93.0728 186.491 93.5317L181.476 101.319C182.964 100.805 184.349 100.137 185.514 99.4927C185.514 99.4952 185.514 99.4964 185.513 99.4989C183.134 100.818 179.834 102.231 176.616 102.231Z" fill="#98B3D3"/>
<path fill-rule="evenodd" clip-rule="evenodd" d="M165.694 90.6608L169.098 88.4707L169.927 89.5657L166.182 91.8737L165.694 90.6608Z" fill="#426AA5"/>
<path fill-rule="evenodd" clip-rule="evenodd" d="M181.476 101.319L186.491 93.5317C186.221 95.0446 185.867 97.0906 185.514 99.4927C184.349 100.137 182.964 100.805 181.476 101.319Z" fill="#85A2C9"/>
<path fill-rule="evenodd" clip-rule="evenodd" d="M182.504 199.403L182.888 210.115H186.789L187.724 199.787L182.504 199.403Z" fill="#EC9F75"/>
<path fill-rule="evenodd" clip-rule="evenodd" d="M203.564 199.768L205.276 210.35L209.148 209.865L208.791 199.501L203.564 199.768Z" fill="#EC9F75"/>
<path fill-rule="evenodd" clip-rule="evenodd" d="M184.976 120.679C184.976 120.679 179.811 147.488 182.449 205.5H187.658C187.658 205.5 191.143 177.587 190.795 166.608C190.786 166.336 190.776 166.074 190.762 165.823C190.638 163.512 190.829 161.195 191.415 158.957L191.45 158.825L197.441 135.951C197.441 135.951 207.766 132.765 203.35 120.679H184.976Z" fill="#426AA5"/>
<path fill-rule="evenodd" clip-rule="evenodd" d="M193.273 151.864C192.576 143.824 193.053 135.901 193.464 131.395C193.706 135.306 194.097 140.283 194.727 146.314L193.273 151.864Z" fill="#3A63A0"/>
<path fill-rule="evenodd" clip-rule="evenodd" d="M193.073 120.679C193.073 120.679 192.657 149.756 204.374 206.634L209.519 205.816C209.519 205.816 208.572 179.605 206.707 168.13C206.616 167.57 206.523 167.045 206.428 166.56C205.854 163.642 205.555 160.679 205.633 157.706L205.636 157.592C205.813 150.919 206.202 140.307 206.955 135.801C207.555 132.211 207.629 128.947 206.311 121.283L193.073 120.679Z" fill="#426AA5"/>
<path fill-rule="evenodd" clip-rule="evenodd" d="M222.527 106.38L226.742 105.966L228.548 104.51L232.76 105.088V106.585L231.553 109.023L226.98 108.271L222.234 109.172L222.527 106.38Z" fill="#EC9F75"/>
<path fill-rule="evenodd" clip-rule="evenodd" d="M195.36 71.7588C195.36 71.7588 190.728 71.2917 192.453 76.6547L196.005 72.5801L195.36 71.7588Z" fill="#1A282B"/>
<path fill-rule="evenodd" clip-rule="evenodd" d="M192.268 76.0106C192.129 75.4475 192.068 74.9579 192.068 74.5333C192.069 71.9734 194.304 71.7483 195.09 71.7483C195.258 71.7483 195.36 71.7589 195.36 71.7589L196.005 72.5802C194.265 72.9899 193.047 74.3424 192.268 76.0106Z" fill="#602916"/>
<path fill-rule="evenodd" clip-rule="evenodd" d="M200.413 82.0745C199.993 84.456 199.605 88.5792 200.83 90.7262C201.124 91.2407 201.022 91.8911 200.584 92.2908C199.069 93.8105 197.046 94.716 194.904 94.8332C192.156 94.9829 191.937 93.5112 192.454 92.3513C192.593 92.0401 192.855 91.8007 193.177 91.6897C195.757 90.8054 195.895 88.5262 195.361 86.5488L200.413 82.0745Z" fill="#F0B389"/>
<path fill-rule="evenodd" clip-rule="evenodd" d="M195.588 87.8526C195.55 87.4616 195.486 87.0731 195.396 86.6902C195.397 86.6902 195.398 86.6902 195.399 86.6902C195.487 87.0438 195.553 87.4054 195.588 87.7653V87.8526Z" fill="#C0BFBA"/>
<path fill-rule="evenodd" clip-rule="evenodd" d="M195.602 88.0209C195.598 87.9648 195.593 87.9087 195.588 87.8526V87.7653C195.596 87.8507 195.602 87.9355 195.606 88.0203C195.604 88.0203 195.603 88.0209 195.602 88.0209Z" fill="#C4C3BF"/>
<path fill-rule="evenodd" clip-rule="evenodd" d="M195.606 88.0204C195.602 87.9356 195.596 87.8508 195.588 87.7654C195.553 87.4056 195.487 87.0439 195.399 86.6903C195.624 86.7252 195.854 86.7433 196.085 86.7433C197.016 86.7433 197.974 86.4521 198.853 85.7979C199.033 85.6651 199.199 85.5273 199.353 85.3857C199.001 86.6361 196.419 87.8851 195.606 88.0204Z" fill="#EC9F75"/>
<path fill-rule="evenodd" clip-rule="evenodd" d="M202.019 78.5437C201.239 82.1119 200.96 84.2365 198.853 85.798C195.686 88.1539 191.497 85.8017 191.201 82.0851C190.932 78.7133 192.258 73.4626 196.005 72.5802C198.677 71.9367 201.365 73.5799 202.009 76.2513C202.191 77.0046 202.194 77.7891 202.019 78.5437Z" fill="#F0B389"/>
<path fill-rule="evenodd" clip-rule="evenodd" d="M201.267 73.8186C201.267 73.8186 198.918 74.9311 199.783 77.1561C200.649 79.3811 199.592 80.7405 199.592 80.7405L201.267 80.9881C201.267 80.9881 204.989 78.379 204.152 74.6842L201.267 73.8186Z" fill="#1A282B"/>
<path fill-rule="evenodd" clip-rule="evenodd" d="M201.267 80.9881L199.592 80.7405C199.592 80.7405 200.123 80.0571 200.124 78.8666C200.124 78.3777 200.035 77.804 199.783 77.1561C199.648 76.8087 199.591 76.4882 199.592 76.1945C199.595 74.6106 201.267 73.8186 201.267 73.8186L204.152 74.6842C204.237 75.0596 204.275 75.4237 204.274 75.7748C204.271 78.8822 201.267 80.9881 201.267 80.9881Z" fill="#602916"/>
<path fill-rule="evenodd" clip-rule="evenodd" d="M203.254 82.1767C202.65 82.8664 201.798 83.2898 200.883 83.3559C199.668 83.4264 199.313 82.2827 199.864 81.2688C200.358 80.3589 201.588 79.2209 202.703 79.6218C203.819 80.0228 203.988 81.3174 203.254 82.1767Z" fill="#F0B389"/>
<path fill-rule="evenodd" clip-rule="evenodd" d="M203.925 75.3085C205.171 74.6886 206.233 71.5307 201.34 70.3796C195.274 68.9522 193.225 65.9907 193.225 65.9907C193.225 65.9907 192.967 68.7925 194.752 69.8633C194.752 69.8633 192.323 68.5038 191.417 70.7288C191.417 70.7288 192.92 70.2754 194.752 72.7885C197.177 76.1142 201.796 76.368 203.925 75.3085Z" fill="#602916"/>
<path fill-rule="evenodd" clip-rule="evenodd" d="M195.448 72.9949C195.448 72.9949 191.647 69.9462 191.417 74.0388C191.417 74.0388 192.618 73.0498 195.448 72.9949Z" fill="#602916"/>
<path fill-rule="evenodd" clip-rule="evenodd" d="M206.924 92.0002C207.184 91.737 207.627 91.8275 207.752 92.1748C208.511 94.2794 211.781 102.029 214.158 103.756C217.064 105.869 225.122 105.692 225.122 105.692L225.294 109.099C225.294 109.099 215.715 111.461 211.082 108.093C206.449 104.726 203.04 95.9476 203.04 95.9476L206.924 92.0002Z" fill="#426AA5"/>
<path fill-rule="evenodd" clip-rule="evenodd" d="M208.01 97.0494L208.153 93.5847C208.156 93.5392 208.157 93.4943 208.157 93.4494C208.157 93.3633 208.153 93.2791 208.144 93.1956C208.463 93.9931 208.902 95.032 209.414 96.152C209.045 96.3322 208.712 96.5281 208.422 96.7394C208.277 96.8448 208.14 96.9465 208.01 97.0494Z" fill="#98B3D3"/>
<path fill-rule="evenodd" clip-rule="evenodd" d="M224.617 105.286L224.841 109.609L225.965 109.329L225.768 105.286H224.617Z" fill="#426AA5"/>
<path fill-rule="evenodd" clip-rule="evenodd" d="M206.147 91.1017C204.487 90.8491 201.999 90.5149 199.216 90.2835L196.763 91.5082L195.642 90.0634C193.386 89.9767 191.085 89.9948 188.977 90.2068C187.835 90.3222 186.915 91.1771 186.711 92.3064C185.857 97.0377 183.228 111.313 184.372 123.536C184.372 123.536 190.471 124.854 193.109 123.096C193.109 123.096 200.987 125.775 206.923 123.467L208.153 93.5848C208.223 92.3632 207.356 91.2862 206.147 91.1017Z" fill="#426AA5"/>
<path fill-rule="evenodd" clip-rule="evenodd" d="M201.301 124.405C196.958 124.405 193.109 123.096 193.109 123.096C193.105 123.099 193.101 123.101 193.097 123.104C192.041 123.801 190.439 124.011 188.894 124.011C186.568 124.011 184.372 123.536 184.372 123.536C184.173 121.411 184.089 119.224 184.089 117.037C184.089 106.638 186.005 96.2151 186.711 92.3064C186.915 91.177 187.835 90.3221 188.977 90.2067C190.327 90.0708 191.756 90.0146 193.202 90.0146C194.014 90.0146 194.831 90.0321 195.642 90.0633L196.763 91.5082L199.216 90.2834C201.999 90.5148 204.487 90.849 206.147 91.1016C207.311 91.2793 208.158 92.2845 208.157 93.4494C208.157 93.4943 208.156 93.5392 208.153 93.5847L208.01 97.0494C207.039 97.8252 206.488 98.7082 206.191 102.154C206.111 103.08 205.47 105.53 205.47 107.658C205.47 109.46 205.78 110.477 205.878 111.31C204.265 112.433 202.99 114.423 204.825 115.755C204.921 115.825 205.039 115.856 205.177 115.856C205.376 115.856 205.614 115.79 205.879 115.671C205.908 119.743 206.107 122.45 206.107 122.45C206.226 122.478 206.344 122.506 206.463 122.533C206.404 122.856 206.332 123.247 206.251 123.704C204.651 124.218 202.941 124.405 201.301 124.405Z" fill="#98B3D3"/>
<path fill-rule="evenodd" clip-rule="evenodd" d="M195.876 89.4415L196.924 90.9587L200.376 89.111C200.823 88.8715 201.376 88.957 201.729 89.3211L203.049 90.6775L199.64 94.5176C199.471 94.7084 199.157 94.5961 199.153 94.3411C199.131 93.2436 198.822 91.3859 196.924 91.7794C196.924 91.7794 195.109 90.6694 194.039 93.0147C193.925 93.2666 193.545 93.2005 193.513 92.9255L193.164 90.0127L194.248 89.184C194.765 88.7898 195.507 88.9071 195.876 89.4415Z" fill="#426AA5"/>
<path fill-rule="evenodd" clip-rule="evenodd" d="M196.896 92.9498C196.896 93.2254 196.672 93.4493 196.396 93.4493C196.12 93.4493 195.896 93.2254 195.896 92.9498C195.896 92.6742 196.12 92.4509 196.396 92.4509C196.672 92.4509 196.896 92.6742 196.896 92.9498Z" fill="#1A282B"/>
<path fill-rule="evenodd" clip-rule="evenodd" d="M195.229 100.876C195.229 101.151 195.006 101.375 194.73 101.375C194.454 101.375 194.23 101.151 194.23 100.876C194.23 100.6 194.454 100.376 194.73 100.376C195.006 100.376 195.229 100.6 195.229 100.876Z" fill="#1A282B"/>
<path fill-rule="evenodd" clip-rule="evenodd" d="M194.163 109.71C194.163 109.986 193.94 110.21 193.663 110.21C193.388 110.21 193.164 109.986 193.164 109.71C193.164 109.434 193.388 109.211 193.663 109.211C193.94 109.211 194.163 109.434 194.163 109.71Z" fill="#1A282B"/>
<path fill-rule="evenodd" clip-rule="evenodd" d="M193.663 118.477C193.663 118.752 193.44 118.976 193.164 118.976C192.888 118.976 192.665 118.752 192.665 118.477C192.665 118.201 192.888 117.977 193.164 117.977C193.44 117.977 193.663 118.201 193.663 118.477Z" fill="#1A282B"/>
<path fill-rule="evenodd" clip-rule="evenodd" d="M182.876 208.928L187.248 208.923C187.438 208.926 187.601 209.06 187.639 209.246L189.143 213.449C189.22 213.813 188.987 214.171 188.623 214.249L188.48 214.263C186.666 214.2 185.053 214.073 182.793 214.038C180.126 213.993 180.797 214.324 177.661 214.315C175.771 214.307 175.462 212.155 176.265 212.063C179.939 211.664 180.338 210.563 181.776 209.275C182.087 209.028 182.479 208.905 182.876 208.928Z" fill="#1A282B"/>
<path fill-rule="evenodd" clip-rule="evenodd" d="M205.096 208.928L209.468 208.923C209.658 208.926 209.821 209.06 209.859 209.246L211.362 213.449C211.439 213.813 211.207 214.171 210.842 214.249L210.7 214.263C208.886 214.2 207.273 214.073 205.013 214.038C202.345 213.993 203.017 214.324 199.88 214.315C197.99 214.307 197.682 212.155 198.484 212.063C202.159 211.664 202.559 210.563 203.995 209.275C204.307 209.028 204.699 208.905 205.096 208.928Z" fill="#1A282B"/>
<path fill-rule="evenodd" clip-rule="evenodd" d="M204.363 153.983L203.226 210.457H207.243C207.243 210.457 214.914 174.034 212.771 162.168L219.365 139.26L205.855 140.743L204.363 153.983Z" fill="#F0B389"/>
<path fill-rule="evenodd" clip-rule="evenodd" d="M220.009 154.992L226.393 210.62H230.323C230.323 210.62 232.941 173.597 229.357 162.083L229.649 139.038L217.891 140.743L220.009 154.992Z" fill="#F0B389"/>
<path fill-rule="evenodd" clip-rule="evenodd" d="M203.575 209.267L207.673 209.262C207.85 209.265 208.003 209.391 208.038 209.565L209.448 213.503C209.52 213.845 209.302 214.18 208.96 214.252L208.827 214.266C207.127 214.207 205.615 214.089 203.497 214.055C200.998 214.014 201.627 214.323 198.688 214.315C196.917 214.308 196.627 212.291 197.379 212.204C200.823 211.83 201.197 210.799 202.544 209.593C202.836 209.361 203.203 209.246 203.575 209.267Z" fill="#426AA5"/>
<path fill-rule="evenodd" clip-rule="evenodd" d="M226.544 209.267L230.642 209.262C230.82 209.265 230.972 209.391 231.008 209.565L232.417 213.503C232.489 213.845 232.271 214.18 231.93 214.252L231.797 214.266C230.096 214.207 228.585 214.089 226.467 214.055C223.967 214.014 224.596 214.323 221.657 214.315C219.886 214.308 219.596 212.291 220.349 212.204C223.792 211.83 224.166 210.799 225.513 209.593C225.805 209.361 226.172 209.246 226.544 209.267Z" fill="#426AA5"/>
<path fill-rule="evenodd" clip-rule="evenodd" d="M206.671 121.461C206.671 121.461 202.385 142.226 203.374 165.629C203.374 165.629 216.892 166.288 231.729 164.805C231.729 164.805 229.97 157.718 230.74 149.972C231.647 140.837 229.75 130.031 224.145 121.461H206.671Z" fill="#426AA5"/>
<path fill-rule="evenodd" clip-rule="evenodd" d="M211.086 165.775C206.369 165.775 203.374 165.629 203.374 165.629C203.272 163.207 203.226 160.813 203.226 158.467C203.226 141.183 205.719 126.525 206.464 122.533C209.532 123.237 212.587 123.475 215.314 123.475C219.949 123.475 223.636 122.789 224.825 122.539C229.065 129.541 230.954 137.871 230.956 145.526C230.956 147.04 230.883 148.527 230.74 149.972C230.601 151.364 230.545 152.735 230.545 154.047C230.545 160.036 231.729 164.805 231.729 164.805C231.165 164.862 230.602 164.915 230.042 164.965C226.989 165.24 224.012 165.427 221.22 165.552C217.401 165.722 213.931 165.775 211.086 165.775ZM216.068 140.743L215.365 165.735C216.948 165.706 218.642 165.658 220.418 165.585L216.068 140.743Z" fill="#98B3D3"/>
<path fill-rule="evenodd" clip-rule="evenodd" d="M208.422 96.7395C208.422 96.7395 204.833 99.106 203.581 107.741C202.055 118.247 207.058 114.652 207.058 114.652L208.422 96.7395Z" fill="#F0B389"/>
<path fill-rule="evenodd" clip-rule="evenodd" d="M224.225 78.0359C226.102 79.1827 226.51 81.8124 226.641 83.387C226.772 84.9622 225.198 83.4007 226.448 86.0784C227.699 88.7568 228.515 91.1807 224.332 90.8203C220.15 90.4611 216.926 91.0734 214.255 92.0119C211.583 92.9511 209.643 91.7419 211.109 88.3726C212.576 85.0027 210.515 82.8644 209.463 81.7993C208.41 80.7342 207.395 76.8374 210.642 75.6326C213.888 74.429 210.801 72.9917 214.766 72.5196C218.732 72.0469 226.632 73.5872 224.225 78.0359Z" fill="#AD5F25"/>
<path fill-rule="evenodd" clip-rule="evenodd" d="M215.218 93.9265L219.988 93.7931C219.536 91.7065 220.095 88.7345 220.582 86.9192L215.71 90.5572C215.916 91.7901 215.95 93.0529 215.218 93.9265Z" fill="#F0B389"/>
<path fill-rule="evenodd" clip-rule="evenodd" d="M215.828 91.9252C215.826 91.7918 215.819 91.6583 215.811 91.5249C215.816 91.5236 215.82 91.5224 215.825 91.5211C215.834 91.6565 215.838 91.7911 215.837 91.9246C215.834 91.9246 215.831 91.9246 215.828 91.9252Z" fill="#C4C3BF"/>
<path fill-rule="evenodd" clip-rule="evenodd" d="M215.811 91.5249C215.788 91.205 215.746 90.8864 215.685 90.5708L215.71 90.5571C215.763 90.8789 215.806 91.2026 215.825 91.5212C215.82 91.5225 215.816 91.5237 215.811 91.5249Z" fill="#141D1F"/>
<path fill-rule="evenodd" clip-rule="evenodd" d="M215.837 91.9248C215.838 91.7913 215.834 91.6566 215.825 91.5213C215.806 91.2026 215.763 90.879 215.709 90.5572L219.392 88.5012C219.092 91.6017 216.883 91.8406 215.837 91.9248Z" fill="#EC9F75"/>
<path fill-rule="evenodd" clip-rule="evenodd" d="M222.859 81.7415C222.261 85.7643 222.097 87.4792 219.876 89.378C216.535 92.236 211.726 90.6252 211.106 86.5051C210.549 82.7979 211.616 76.8469 215.711 75.5772C218.633 74.6549 221.749 76.275 222.671 79.196C222.931 80.0185 222.995 80.8903 222.859 81.7415Z" fill="#F0B389"/>
<path fill-rule="evenodd" clip-rule="evenodd" d="M223.54 85.0214C223.251 85.7529 222.683 86.3397 221.961 86.6521C221.001 87.0581 220.389 86.233 220.544 85.2571C220.683 84.3822 221.351 83.1126 222.369 83.1182C223.11 83.1456 223.689 83.7686 223.662 84.5094C223.656 84.6865 223.614 84.8605 223.54 85.0214Z" fill="#F0AA72"/>
<path fill-rule="evenodd" clip-rule="evenodd" d="M220.161 74.0887C220.991 75.2143 219.488 77.6288 215.798 77.814C213.017 77.955 209.872 81.2999 209.804 78.0616C209.721 75.117 216.517 72.9637 220.161 74.0887Z" fill="#AD5F25"/>
<path fill-rule="evenodd" clip-rule="evenodd" d="M218.25 75.1886C216.495 76.8605 218.06 79.396 219.111 80.4973C220.164 81.5979 221.706 82.5695 220.801 84.469C219.895 86.3684 219.676 91.3447 223.09 90.1038C226.503 88.8634 225.706 83.0347 224.393 80.4449C223.08 77.8545 220.339 73.2006 218.25 75.1886Z" fill="#AD5F25"/>
<path fill-rule="evenodd" clip-rule="evenodd" d="M206.107 122.45C206.107 122.45 205.776 117.948 205.906 111.82C205.926 110.873 205.47 109.842 205.47 107.658C205.47 105.53 206.111 103.08 206.191 102.154C206.528 98.2493 207.19 97.6351 208.421 96.7396C212.432 93.8237 224.577 93.848 225.896 96.7396C227.915 101.168 223.911 112.232 225.23 122.45C225.23 122.45 215.668 124.757 206.107 122.45Z" fill="#1A282B"/>
<path fill-rule="evenodd" clip-rule="evenodd" d="M225.498 110.08H225.497C225.521 109.878 225.545 109.677 225.569 109.477C225.545 109.677 225.521 109.878 225.498 110.08Z" fill="#757571"/>
<path fill-rule="evenodd" clip-rule="evenodd" d="M225.497 110.08L225.147 109.953C222.674 99.9031 223.9 97.3869 223.962 97.2703C223.51 98.77 224.418 101.698 225.409 103.662C225.662 104.163 225.882 104.777 226.071 105.431C225.918 106.712 225.739 108.068 225.569 109.477C225.545 109.677 225.521 109.878 225.497 110.08Z" fill="#0F1313"/>
<path fill-rule="evenodd" clip-rule="evenodd" d="M215.079 92.3263C216.24 92.4422 218.542 92.5707 220.514 92.0587C220.877 91.9646 221.222 92.2757 221.172 92.648C221.061 93.483 221.071 94.6585 221.96 94.8543C221.96 94.8543 217.644 97.7559 212.652 95.105C212.652 95.105 214.687 94.7439 214.5 92.948C214.463 92.5988 214.729 92.2913 215.079 92.3263Z" fill="#1A282B"/>
<path fill-rule="evenodd" clip-rule="evenodd" d="M206.072 111.179C208.38 109.695 210.421 108.585 210.421 108.585L212.108 105.177C212.235 104.922 212.504 104.769 212.788 104.793L213.917 104.889C214.29 104.92 214.57 105.241 214.552 105.614L214.353 109.755C214.339 110.063 214.122 110.324 213.822 110.396L211.411 110.975C211.411 110.975 206.102 116.682 204.825 115.755C202.917 114.37 204.371 112.273 206.072 111.179Z" fill="#F0B389"/>
<path fill-rule="evenodd" clip-rule="evenodd" d="M215.365 165.735L216.068 140.743L220.418 165.585C218.642 165.658 216.948 165.706 215.365 165.735Z" fill="#85A2C9"/>
<path fill-rule="evenodd" clip-rule="evenodd" d="M224.523 96.4794C226.083 95.5447 229.228 98.0228 230.534 107.452C231.729 116.082 229.345 117.23 225.916 114.813C222.295 112.261 218.76 110.419 218.76 110.419L216.176 109.924L214.337 109.779C213.803 109.736 213.387 109.297 213.374 108.762L213.298 105.639C213.282 105.02 213.806 104.524 214.424 104.572L216.176 104.707L219.13 107.773L227.037 110.638C227.037 110.638 226.569 105.961 225.409 103.662C224.186 101.236 223.087 97.3394 224.523 96.4794Z" fill="#F0AA72"/>
<path fill-rule="evenodd" clip-rule="evenodd" d="M213.382 110.502H213.381L213.822 110.396C214.114 110.326 214.327 110.077 214.352 109.78C214.327 110.077 214.114 110.326 213.823 110.396L213.382 110.502ZM213.616 104.864L213.025 104.813L213.616 104.864Z" fill="#172325"/>
<path fill-rule="evenodd" clip-rule="evenodd" d="M213.381 110.502C213.012 110.291 212.755 109.907 212.744 109.457L212.652 105.726C212.644 105.367 212.791 105.046 213.025 104.813L213.616 104.864C213.414 105.059 213.291 105.335 213.298 105.639L213.374 108.762C213.387 109.298 213.803 109.737 214.337 109.779L214.352 109.78C214.327 110.077 214.114 110.326 213.822 110.396L213.381 110.502Z" fill="#EC9F75"/>
<path fill-rule="evenodd" clip-rule="evenodd" d="M214.352 109.78L214.337 109.779C213.803 109.737 213.387 109.298 213.374 108.762L213.298 105.64C213.291 105.335 213.414 105.059 213.616 104.864L213.917 104.889C214.289 104.921 214.57 105.241 214.552 105.614L214.353 109.755C214.353 109.763 214.353 109.772 214.352 109.78Z" fill="#EE9E63"/>
<path fill-rule="evenodd" clip-rule="evenodd" d="M224.523 96.4794C226.083 95.5447 229.228 98.0228 230.534 107.452C231.729 116.082 229.345 117.23 225.916 114.813C222.295 112.261 218.76 110.419 218.76 110.419L216.176 109.924L214.337 109.779C213.803 109.736 213.387 109.297 213.374 108.762L213.298 105.64C213.282 105.02 213.806 104.524 214.424 104.572L216.176 104.707L219.13 107.772L227.037 110.638C227.037 110.638 226.569 105.961 225.409 103.662C224.186 101.236 223.087 97.3394 224.523 96.4794Z" fill="#F0B389"/>
<path fill-rule="evenodd" clip-rule="evenodd" d="M218.37 76.8835C218.37 76.8835 215.879 80.0258 213.896 79.2164C211.913 78.407 214.992 79.1223 218.37 76.8835Z" fill="#AD5F25"/>
<path fill-rule="evenodd" clip-rule="evenodd" d="M216.041 96.6235C215.34 96.6235 214.731 96.4083 214.375 95.8228C215.314 96.1096 216.21 96.2219 217.036 96.2219C217.458 96.2219 217.861 96.1925 218.243 96.1427C217.522 96.4121 216.736 96.6235 216.041 96.6235Z" fill="#0E1110"/>
<path fill-rule="evenodd" clip-rule="evenodd" d="M217.036 96.2219C216.21 96.2219 215.314 96.1097 214.375 95.8228C214.291 95.6831 214.221 95.5223 214.166 95.3383C214.166 95.3383 215.128 95.6769 216.695 95.6769C217.752 95.6769 219.084 95.5235 220.582 95.009C220.582 95.009 219.515 95.6669 218.243 96.1427C217.861 96.1926 217.458 96.2219 217.036 96.2219Z" fill="#0E1110"/>
</svg>
