<svg width="270" height="270" viewBox="0 0 270 270" fill="none" xmlns="http://www.w3.org/2000/svg">
<path d="M54.187 213.656C100.683 235.554 165.873 239.812 210.187 207.156C254.5 174.5 266.5 109 233 60.5C199.5 12.0001 152.313 -3.15592 98.5 23C44.6869 49.1559 102.5 98.2975 61.1871 110.656C19.8741 123.015 7.69158 191.758 54.187 213.656Z" fill="white" fill-opacity="0.15"/>
<path d="M38.5211 201.106C38.3222 200.308 38.0747 199.757 34.9883 198.959C31.9019 198.16 28.767 196.159 29.0145 193.564C29.262 190.969 30.6062 190.916 32.2513 190.268C33.8964 189.621 36.4296 189.518 35.8812 186.076C35.3328 182.634 32.6978 179.031 34.0905 175.54C35.4833 172.049 40.1614 171.241 43.3982 174.337C46.635 177.434 49.571 183.53 53.4047 182.829C57.2384 182.127 60.6208 182.342 60.8198 186.524C61.0187 190.706 54.9236 190.468 53.5406 200.906C51.9877 212.835 39.3946 204.373 38.5211 201.106Z" fill="#40A05B"/>
<path opacity="0.3" d="M136.5 252C183.72 252 222 248.418 222 244C222 239.582 183.72 236 136.5 236C89.2797 236 51 239.582 51 244C51 248.418 89.2797 252 136.5 252Z" fill="#083F18"/>
<path d="M38.9336 210.466C38.0637 208.476 36.8216 206.671 35.2746 205.15C32.5861 202.413 28.2574 198.445 29.8589 195.373C31.4603 192.301 35.0417 193.479 37.6622 194.438C41.2484 195.748 44.0436 196.347 45.6499 192.978C47.2562 189.608 50.3911 183.201 55.9912 183.951C61.5914 184.701 63.8285 189.754 62.0766 195.485C60.3248 201.216 57.4082 205.111 56.7774 210.466C56.1465 215.822 39.7537 214.025 38.9336 210.466Z" fill="#40A05B"/>
<path d="M124.712 120.861L126.226 122.078L121.728 128.953L119.432 126.874L124.712 120.861Z" fill="#D9EEFF"/>
<path d="M99.5745 63.1076C99.754 62.8836 99.8559 63.1076 99.8559 63.1076C99.7622 63.1009 99.6682 63.1009 99.5745 63.1076Z" fill="#2B3A95"/>
<path d="M116.054 61.4083C114.142 62.869 110.192 61.6761 109.595 61.5203C109.595 62.1386 109.707 65.7513 109.707 65.7513L104.48 67.3239C104.48 67.3239 98.2106 65.4153 99.1424 63.5068C100.074 61.5982 100.938 56.1257 100.938 56.1257C100.938 56.1257 97.3129 47.3619 99.516 42.829C101.719 38.2962 114.04 40.6235 114.04 40.6235C114.04 40.6235 115.957 40.9886 117.064 45.2147C118.544 50.9015 119.078 59.1249 116.054 61.4083Z" fill="#F0B389"/>
<path d="M99.555 63.3899L98.8077 63.8768L97.9875 65.5273L83.6135 120.861V124.907L109.222 126.368L110.61 121.767L117.064 90.3386L110.988 69.0474V66.725L109.474 65.1524C109.474 65.1524 108.135 65.873 104.723 65.6393C102.785 65.5477 100.946 64.7476 99.555 63.3899Z" fill="#DCE7FD"/>
<path d="M99.6667 124.138C101.859 124.429 104.087 124.301 106.233 123.763C109.498 122.867 110.377 122.56 110.377 122.56L111.687 180.694L106.233 235.224H96.9054L95.2603 201.216L99.6667 180.543L90.0581 136.198L93.4939 124.907L99.6667 124.138Z" fill="#1F2B60"/>
<path d="M79.2848 119.42C79.2848 119.42 87.1949 123.164 93.0182 123.315C98.8416 123.466 103.471 123.164 103.471 123.164L100.856 131.792L97.1819 143.613L90.7762 184.886L80.0321 235.073L70.0256 236.466L72.8645 200.768L78.2414 180.095L76.5963 133.014L79.2848 119.42Z" fill="#2B3A95"/>
<path d="M109.993 69.8848L107.955 68.0347L106.111 69.8848L107.256 71.6327C107.256 71.6327 109.683 82.4171 108.829 87.8117C107.975 93.2063 99.1231 112.754 99.6666 124.138L103.995 129.605L107.955 125.788C107.955 125.788 108.178 110.505 110.343 103.465C112.507 96.4246 113.327 91.6288 112.507 85.2653C111.687 78.9018 109.819 71.3308 109.819 71.3308L109.993 69.8848Z" fill="#66D5B6"/>
<path d="M114.074 42.4199C116.913 42.4199 117.957 35.0778 113.478 35.0048C108.998 34.9317 110.192 36.8014 106.985 37.1762C103.777 37.5511 97.2789 38.5979 96.2307 44.3674C95.1825 50.137 97.4245 53.8811 100.787 56.8023C101.271 56.4133 101.665 55.9237 101.943 55.3673C102.22 54.8109 102.374 54.2009 102.394 53.5792C102.467 51.4467 101.792 49.6842 103.476 49.3482C105.16 49.0123 105.286 51.8946 105.975 51.4807C108.178 50.171 104.893 45.7161 107.281 43.8416C109.95 41.7529 114.074 42.4199 114.074 42.4199Z" fill="#602916"/>
<path d="M111.007 67.5381L110.522 71.0826C112.723 75.8326 113.881 81.0012 113.919 86.2391C113.919 94.7789 111.342 118.198 111.342 118.198C111.342 118.198 119.772 93.4985 118.326 81.9692C117.064 71.8567 111.007 67.5381 111.007 67.5381Z" fill="#2B3A95"/>
<path opacity="0.3" d="M84.9091 121.767L88.9515 122.765L86.0398 134.508C85.293 137.516 85.0051 140.62 85.1857 143.715L85.4187 147.785C85.446 148.24 85.3324 148.693 85.0935 149.081C84.9179 149.367 84.6799 149.609 84.3973 149.789C84.1148 149.97 83.7952 150.083 83.4625 150.122C83.1299 150.16 82.7928 150.122 82.4768 150.011C82.1609 149.9 81.8742 149.718 81.6383 149.48L77.198 145V141.105L84.9091 121.767Z" fill="black"/>
<path d="M71.1465 235.896L70.3992 242.074H76.373L77.3775 241.067L78.4451 242.133H92.0136V241.101L78.0909 234.659L71.1465 235.896Z" fill="#1A1B1E"/>
<path d="M97.5021 234.922L97.0168 241.587H102.467L103.097 240.95L103.753 241.607H119.262V240.58L104.553 234.922H97.5021Z" fill="#1A1B1E"/>
<path d="M93.2365 106.133C93.1492 106.454 90.4947 113.388 90.3831 113.68C87.9567 119.722 85.21 126.962 81.8227 135.263C78.4355 143.564 83.3174 148.233 80.9298 147.435C78.5422 146.637 76.9699 144.743 73.6118 141.592C70.2536 138.442 70.0304 133.88 73.0877 128.934C76.1449 123.987 80.7066 115.958 82.4973 109.064C84.288 102.17 82.308 98.679 80.726 89.8908C79.3381 82.1494 78.9838 77.1054 80.6289 73.9601C82.274 70.8149 93.023 66.8955 95.9735 65.8487C98.924 64.8019 98.1379 64.3102 98.4727 63.6724C98.5977 63.495 98.7626 63.3497 98.9539 63.2482C99.1453 63.1467 99.3578 63.0919 99.5743 63.0881C99.378 63.4246 99.2448 63.7942 99.1812 64.1787C98.8658 65.4349 100.797 67.3824 102.962 69.8217C104.723 71.8033 104.728 72.6164 104.98 77.9087C105.233 83.2011 104.83 83.7026 101.744 90.4945C101.52 90.9814 101.258 91.4683 101.02 92.0039C99.2977 95.412 96.8276 99.4482 94.7118 103.372C94.2265 104.293 93.7412 105.213 93.2559 106.118" fill="#2B3A95"/>
<path opacity="0.3" d="M93.2366 106.133C92.266 108.723 91.5381 110.661 90.6646 112.949L79.9351 83.0208C81.8034 87.836 88.0878 99.117 93.2366 106.133Z" fill="black"/>
<path d="M138.416 117.774L153.746 106.386L155.435 83.6927L160.962 77.6262L163.724 80.8445V96.9845C163.724 96.9845 164.097 104.814 160.589 110.057C156.58 116.046 141.925 122.56 141.925 122.56L138.416 117.774Z" fill="#2B3A95"/>
<path d="M125.124 120.569L119.65 128.447C119.65 128.447 101.797 115.661 96.4588 110.072C95.6487 109.209 94.8841 108.303 94.1683 107.36C93.8642 106.964 93.5536 106.55 93.2365 106.118C88.0877 99.1025 81.8033 87.8215 79.935 83.0063C77.8531 77.6506 81.1288 71.5208 85.6079 70.4204C90.0871 69.3201 95.3863 76.3117 98.8075 85.8009C99.6083 88.0211 100.346 90.1098 101.011 92.0038C103.175 98.2164 104.519 102.379 104.519 102.379L125.124 120.569Z" fill="#2B3A95"/>
<path d="M125.911 122.56C125.911 122.56 128.337 121.815 129.642 122.117C130.948 122.419 133.787 125.749 134.049 126.874C134.311 127.999 133.413 129.644 131.88 130.696C130.346 131.748 129.57 132.79 127.59 131.782C125.61 130.774 122.349 127.999 122.349 127.999L125.911 122.56Z" fill="#F0B389"/>
<path d="M230.246 175.898C232.483 168.634 235.618 165.863 236.365 162.567C237.113 159.271 234.725 158.672 230.168 160.751C225.611 162.83 222.802 158.317 221.234 156.525C219.667 154.733 214.416 153.949 212.402 158.073C210.388 162.197 211.805 165.036 215.163 167.285C218.521 169.534 220.763 173.127 221.059 176.497L230.246 175.898Z" fill="#40A05B"/>
<path d="M221.957 159.768C221.957 159.768 225.592 159.071 225.839 155.873C226.087 152.674 227.878 148.983 231.464 149.631C235.05 150.278 235.793 153.828 234.599 156.423C233.405 159.018 229.722 162.616 231.959 163.814C234.196 165.011 238.267 163.964 238.083 167.957C237.899 171.949 231.163 172.504 229.474 176.497L222.355 177.397L219.531 165.785L221.957 159.768Z" fill="#40A05B"/>
<path d="M33.8432 210.106H59.3253C59.3253 210.106 60.1745 218.334 58.3062 223.5C56.4378 228.666 54.9092 230.355 54.9092 230.355H38.2204C38.2204 230.355 36.1677 228.369 34.9399 223.237C33.7121 218.105 33.8432 210.106 33.8432 210.106Z" fill="#2B3A95"/>
<path d="M161.258 173.6C161.258 173.6 168.028 217.945 167.732 223.748C167.436 229.552 166.917 232.089 164.5 234.947C162.083 237.805 160.365 239.591 160.365 239.591L162.904 242.157L165.665 239.368L168.276 237.42L170.518 235.696L172.012 231.801C172.012 231.801 171.711 228.88 173.652 217.721C175.594 206.562 177.161 201.016 175.744 191.653C174.327 182.291 172.085 179.569 172.085 179.569L172.531 173.201L161.258 173.6Z" fill="#F0B389"/>
<path d="M177.088 174.9C177.092 177.021 177.497 179.123 178.282 181.093C179.578 184.287 190.526 205.86 193.326 214.152C196.126 222.444 197.31 226.324 196.912 228.432C196.514 230.54 195.121 236.417 193.626 238.267C192.132 240.117 196.213 240.414 196.213 240.414L198.305 236.919L201.988 232.863L202.585 228.033C202.585 228.033 201.789 228.233 200.294 218.943C198.8 209.653 197.509 198.07 194.922 189.682C192.336 181.293 187.954 176.497 187.954 176.497L187.468 172.602L177.088 174.9Z" fill="#F0B389"/>
<path d="M219.531 175.401H232.973C232.973 175.401 233.42 183.781 232.439 189.034C231.459 194.287 230.649 196.011 230.649 196.011H221.86C221.86 196.011 220.778 193.99 220.128 188.766C219.477 183.542 219.531 175.401 219.531 175.401Z" fill="#2B3A95"/>
<path d="M153.77 48.9102C153.77 48.9102 153.198 50.5607 153.285 54.3535C153.373 58.1463 154.159 59.2223 153.736 64.242C153.314 69.2617 150.975 71.7302 153.275 74.5784C154.695 76.315 156.398 77.7967 158.313 78.9603L165.48 70.5714L157.764 46.7144L153.77 48.9102Z" fill="#562B39"/>
<path opacity="0.3" d="M154.989 89.6864L154.959 90.0612L159.113 111.839L161.045 109.322L161.656 104.39L155.882 89.4575L154.989 89.6864Z" fill="black"/>
<path d="M162.85 73.1275L155.881 85.8643L157.973 96.8093L161.778 107.876L162.006 113.427L161.705 116.426L170.44 117.025L167.082 91.7799L174.026 71.3796L168.275 74.0283L162.85 73.1275Z" fill="#DCE7FD"/>
<path d="M160.924 113.616C160.924 113.616 156.707 128.184 157.153 141.894C157.599 155.605 160.366 174.101 160.366 174.101C160.366 174.101 170.818 175.976 178.355 176.122C185.891 176.268 188.885 174.773 188.885 174.773C188.885 174.773 189.482 150.58 188.361 141.816C187.24 133.052 184.479 119.795 184.479 119.795L179.325 115.077C179.325 115.077 171.915 116.124 166.936 115.9C161.957 115.676 160.924 113.616 160.924 113.616Z" fill="#2B3A95"/>
<path opacity="0.3" d="M159.245 120.7L158.953 122.161C158.953 122.161 161.093 122.361 162.064 119.907C162.652 118.355 162.903 116.695 162.802 115.038L159.245 120.7Z" fill="black"/>
<path d="M163.539 70.1138C163.539 70.1138 159.235 71.2871 157.774 74.4275C156.313 77.5679 153.945 85.2654 154.741 88.7612C155.537 92.257 160.263 103.041 160.962 107.638C161.661 112.234 158.075 120.618 158.075 120.618C158.075 120.618 161.113 121.217 161.909 119.157C162.704 117.098 163.748 112.467 161.656 104.375C159.565 96.2835 157.08 95.4363 157.23 87.2957C157.381 79.1551 164.306 73.3564 164.306 73.3564L163.539 70.1138Z" fill="#2B3A95"/>
<path d="M163.064 67.0998C163.064 67.0998 163.617 71.5986 163.549 72.8304C163.481 74.0622 162.845 77.6602 166.524 77.1587C170.202 76.6573 172.944 74.9775 172.459 70.8829C171.973 66.7882 168.741 59.5483 168.741 59.5483L162.845 64.4902L163.064 67.0998Z" fill="#F0B389"/>
<path opacity="0.3" d="M168.188 115.929C168.188 115.929 167.63 120.126 168.673 122.044C169.717 123.962 171.357 127.424 177.53 127.117C183.703 126.811 185.746 124.591 185.746 124.591L183.504 116.8L173.352 118.018L168.188 115.929Z" fill="black"/>
<path d="M163.064 67.0999L163.36 69.7729C163.36 69.7729 170.047 65.5516 169.872 61.009C168.329 63.7328 165.937 65.8728 163.064 67.0999Z" fill="#EC9F75"/>
<path d="M158.051 45.0396C155.75 45.653 154.168 51.6319 154.392 57.3235C154.615 63.0151 157.002 68.473 161.71 67.548C166.417 66.6229 172.983 59.2272 171.561 53.6865C170.139 48.1458 170.668 41.6704 158.051 45.0396Z" fill="#F0B389"/>
<path d="M153.746 49.1585C153.746 49.1585 155.091 51.257 158.919 51.9045C162.748 52.552 167.98 53.0048 168.625 58.2339C169.27 63.463 168.227 68.3221 166.237 70.8197C170.168 69.2715 170.566 64.724 170.566 64.724C170.566 64.724 172.658 69.1059 172.459 71.365C174.647 69.1205 177.884 65.5225 177.734 58.1852C177.583 50.848 174.701 41.5048 166.237 41.0082C157.774 40.5115 154.144 44.7036 153.746 49.1585Z" fill="#774251"/>
<path d="M100.788 56.8025C100.788 56.8025 102.054 62.4746 109.654 63.9888C109.576 61.7248 109.595 61.5203 109.595 61.5203C109.595 61.5203 105.451 61.1941 100.788 56.8025Z" fill="#EC9F75"/>
<path d="M236.763 196.021H215.857V231.178H236.763V196.021Z" fill="#2B3A95"/>
<path d="M172.158 69.0474C172.158 69.0474 175.147 69.6073 177.462 69.8069C179.777 70.0065 183.518 70.6151 185.377 75.6202C187.235 80.6253 181.64 94.4965 180.67 101.016C179.699 107.535 183.751 116.143 183.751 116.143L184.552 121.465C184.552 121.465 182.237 124.683 176.414 124.61C170.59 124.537 168.8 120.413 168.8 120.413C168.8 120.413 165.738 99.0683 166.038 92.8898C166.339 86.7113 172.294 74.9191 172.405 72.7038C172.481 71.4794 172.397 70.2503 172.158 69.0474Z" fill="#2B3A95"/>
<path d="M138.615 118.042C138.615 118.042 134.16 122.068 132.816 122.56C131.472 123.052 127.143 123.091 127.143 123.091C127.143 123.091 123.334 127.512 122.829 128.296C122.324 129.08 123.314 130.394 124.77 131.441C126.226 132.488 127.269 133.052 129.065 131.592C130.86 130.131 133.355 128.033 134.325 126.684C135.296 125.335 141.706 122.302 141.706 122.302L138.615 118.042Z" fill="#F0B389"/>
<path opacity="0.3" d="M175.603 80.0654L180.602 101.551L181.689 96.4099L179.723 85.3627L175.603 80.0654Z" fill="black"/>
<path d="M204.356 141.889H163.146V169.904H204.356V141.889Z" fill="#40A05B"/>
<path d="M178.5 142.216V138.973L178.641 138.881C180.279 137.801 182.191 137.213 184.15 137.188C186.11 137.163 188.036 137.702 189.701 138.739V138.739V142.216" stroke="#59C377" stroke-width="2" stroke-linejoin="round"/>
<path d="M183.256 158.005C184.312 158.005 185.168 157.146 185.168 156.087C185.168 155.027 184.312 154.168 183.256 154.168C182.2 154.168 181.344 155.027 181.344 156.087C181.344 157.146 182.2 158.005 183.256 158.005Z" fill="#59C377"/>
<path d="M163.146 150.658C163.146 150.658 170.221 155.069 183.256 155.069C196.291 155.069 204.356 150.658 204.356 150.658V141.894H163.146V150.658Z" fill="#59C477"/>
<path d="M179.18 72.6065C175.424 74.1889 174.327 77.9962 176.715 83.7658C179.102 89.5353 183.955 102.34 183.955 102.34L183.208 126.387L189.181 126.684C189.181 126.684 192.913 108.485 191.87 99.3897C190.827 90.2948 185.746 69.8362 179.18 72.6065Z" fill="#2B3A95"/>
<path d="M183.931 126.421C183.931 126.421 184.416 129.907 183.751 131.032C183.086 132.157 180.67 133.651 180.67 135.049C180.67 136.446 179.675 140.57 182.635 140.842C185.595 141.115 188.458 141.641 189.206 139.27C189.953 136.899 188.259 132.853 188.434 130.657C188.609 128.461 188.682 126.66 188.682 126.66L183.931 126.421Z" fill="#F0B389"/>
<path d="M160.361 239.567L154.877 241.553V242.931H163.612L167.494 238.744L169.731 237.021H170.741V242.931H171.522L172.347 237.021L173.24 234.586L172.007 231.777L169.435 236.12L166.524 238.593L163.685 240.804L161.482 240.653L160.361 239.567Z" fill="#1F2B60"/>
<path d="M193.83 237.965L188.682 241.364V242.931L197.494 240.765L199.183 236.368L201.44 233.447H202.57L203.764 238.968L204.662 238.666L204.065 232.863L204.361 231.178L202.57 228.033L201.027 231.777L199.731 234.572L197.295 238.068L195.951 238.866L193.83 237.965Z" fill="#1F2B60"/>
</svg>
