<svg width="270" height="270" viewBox="0 0 270 270" fill="none" xmlns="http://www.w3.org/2000/svg">
<path opacity="0.15" d="M89.6999 228.8C27.2999 203.4 11.2999 105.5 45.9999 55.8C95.8999 -15.8 112.2 112.9 157.5 96.4C201.2 80.5 241.1 87.9 238 142.1C234.9 196.3 160.1 257.4 89.6999 228.8Z" fill="white"/>
<path opacity="0.2" d="M163 210.5C218.228 210.5 263 206.202 263 200.9C263 195.598 218.228 191.3 163 191.3C107.772 191.3 63 195.598 63 200.9C63 206.202 107.772 210.5 163 210.5Z" fill="black"/>
<path d="M112.8 202.5C117.881 202.5 122 196.59 122 189.3C122 182.01 117.881 176.1 112.8 176.1C107.719 176.1 103.6 182.01 103.6 189.3C103.6 196.59 107.719 202.5 112.8 202.5Z" fill="#505F77"/>
<path d="M113.4 197.9C111.3 197.9 108.3 194.6 108.3 189.3C108.3 184.1 111.3 180.7 113.4 180.7C115.5 180.7 118.5 184 118.5 189.3C118.6 194.5 115.5 197.9 113.4 197.9Z" fill="#334259"/>
<path d="M235.6 187.4H116.1V193.8H235.6V187.4Z" fill="#334259"/>
<path d="M180.3 202.5C175.2 202.5 171.1 196.6 171.1 189.3C171.1 182 175.2 176.1 180.3 176.1H188.6V202.5H180.3Z" fill="#334259"/>
<path d="M188.7 202.5C193.781 202.5 197.9 196.59 197.9 189.3C197.9 182.01 193.781 176.1 188.7 176.1C183.619 176.1 179.5 182.01 179.5 189.3C179.5 196.59 183.619 202.5 188.7 202.5Z" fill="#505F77"/>
<path d="M189.3 197.9C187.2 197.9 184.2 194.6 184.2 189.3C184.2 184.1 187.2 180.7 189.3 180.7C191.4 180.7 194.4 184 194.4 189.3C194.4 194.5 191.4 197.9 189.3 197.9Z" fill="#334259"/>
<path opacity="0.2" d="M53.2 221.4C74.0211 221.4 90.9 217.953 90.9 213.7C90.9 209.447 74.0211 206 53.2 206C32.3789 206 15.5 209.447 15.5 213.7C15.5 217.953 32.3789 221.4 53.2 221.4Z" fill="black"/>
<path d="M135.3 92.8H69.3999V187.4H135.3V92.8Z" fill="#227ACA"/>
<path d="M131.926 184.02L131.926 97.9199L72.9263 97.9199L72.9263 184.02H131.926Z" fill="#324058"/>
<path d="M204.7 92.8H135.4V187.4H204.7V92.8Z" fill="#9CD4F6"/>
<path d="M72.8999 184L131.9 124.6H72.8999V184Z" fill="#141E2D"/>
<path d="M131.9 97.8999H72.8999V125.3H131.9V97.8999Z" fill="#7EC5EF"/>
<path d="M131.9 97.8999H72.8999V100.3H131.9V97.8999Z" fill="#BDD7F4"/>
<path d="M131.9 103.7H72.8999V106.1H131.9V103.7Z" fill="#BDD7F4"/>
<path d="M131.9 109.5H72.8999V111.9H131.9V109.5Z" fill="#BDD7F4"/>
<path d="M131.9 115H72.8999V117.4H131.9V115Z" fill="#BDD7F4"/>
<path d="M107.8 120.7H97.1001V122.5H107.8V120.7Z" fill="#BDD7F4"/>
<path d="M204.7 106.1C204.7 106.1 212.4 106.1 216.7 106.1C221 106.1 222.3 110.6 223.4 113.4C224.5 116.2 235.1 143.1 235.9 145.5C236.7 147.8 237.5 148.8 241.8 151.3C246.1 153.7 253 156.6 253 162.5C253 168.4 253 186.4 253 186.4H204.7V106.1Z" fill="#F96748"/>
<path d="M208.6 146.2V118.9H219C221.2 118.9 222.3 122.3 223.4 125.5C223.6 126.2 223.8 126.8 224 127.3C224.9 129.6 229.5 142 230 143.4C230.3 144.3 230.1 144.9 229.8 145.3C229.1 146.2 227.8 146.2 226.5 146.2H208.6Z" fill="#D53021"/>
<path d="M224.5 131.9L209.8 120.5V120C209.8 120 217.2 120 219 120C220.8 120 222 125.4 222.9 127.7C223.1 128.4 223.7 130 224.5 131.9Z" fill="#CBDDFF"/>
<path d="M227.1 145C226.9 145 226.7 145 226.4 145C224.6 145 209.7 145 209.7 145V131.5L227.1 145Z" fill="#CBDDFF"/>
<path d="M233.4 147.7V139.5C233.4 139.5 241.5 139.5 243 139.5C244.5 139.5 244.3 140.7 244.3 141.8C244.3 142.9 244.3 145 244.3 146.2C244.3 147.4 243.9 147.8 242.9 147.8C241.9 147.8 233.4 147.7 233.4 147.7Z" fill="#C13B23"/>
<path d="M234.5 146.5V140.6H240.7C241.1 140.6 241.4 140.9 241.4 141.3V145.9C241.4 146.3 241.1 146.6 240.7 146.6H234.5V146.5Z" fill="#CBDDFF"/>
<path d="M253.9 166.5H249.8V176.1H253.9V166.5Z" fill="#D53021"/>
<path d="M254 167.9H251.2V174.8H254V167.9Z" fill="#FAD896"/>
<path d="M211.3 152.3H208.9V160.5H211.3V152.3Z" fill="#D53021"/>
<path d="M216.2 187.4H192.2V193.8H216.2V187.4Z" fill="#334259"/>
<path d="M220.3 186.4C220.3 186.4 225.3 171.9 236.1 171.9C246.9 171.9 248.1 186.4 248.1 186.4H220.3Z" fill="#334259"/>
<path d="M230.4 202.5C225.3 202.5 221.2 196.6 221.2 189.3C221.2 182 225.3 176.1 230.4 176.1H238.7V202.5H230.4Z" fill="#334259"/>
<path d="M226.1 185.2H204.7V187.5H226.1V185.2Z" fill="#93B4FF"/>
<path d="M238.8 202.5C243.881 202.5 248 196.59 248 189.3C248 182.01 243.881 176.1 238.8 176.1C233.719 176.1 229.6 182.01 229.6 189.3C229.6 196.59 233.719 202.5 238.8 202.5Z" fill="#4A5872"/>
<path d="M239.4 197.9C237.3 197.9 234.3 194.6 234.3 189.3C234.3 184.1 237.3 180.7 239.4 180.7C241.5 180.7 244.5 184 244.5 189.3C244.5 194.5 241.5 197.9 239.4 197.9Z" fill="#3C465E"/>
<path d="M238.4 195.7C236.8 195.7 234.6 193.2 234.6 189.3C234.6 185.4 236.9 182.9 238.4 182.9C240 182.9 242.2 185.4 242.2 189.3C242.2 193.2 239.9 195.7 238.4 195.7Z" fill="#E4EAF4"/>
<path d="M239.1 192.3C238.4 192.3 237.3 191.1 237.3 189.3C237.3 187.5 238.4 186.3 239.1 186.3C239.8 186.3 240.9 187.5 240.9 189.3C240.9 191.1 239.8 192.3 239.1 192.3Z" fill="#413354"/>
<path d="M104.5 202.5C99.4 202.5 95.3 196.6 95.3 189.3C95.3 182 99.4 176.1 104.5 176.1H112.8V202.5H104.5Z" fill="#E81F1F"/>
<path d="M204.7 187.5H173.4C171.5 187.5 170.6 185.5 169.1 182.1C168.1 180 165.9 175 164.4 175H152.6C151.2 175 148.9 180 147.9 182.1C146.4 185.5 145.4 187.5 143.6 187.5L135 187.4V184H143.1C143.5 183.4 144.2 181.8 144.8 180.6C146.8 176.3 149 171.4 152.6 171.4H164.4C168.1 171.4 170.3 176.3 172.2 180.6C172.7 181.8 173.4 183.3 173.9 184H204.7V187.5Z" fill="#227ACA"/>
<path d="M150.1 202.5C145 202.5 140.9 196.6 140.9 189.3C140.9 182 145 176.1 150.1 176.1H158.4V202.5H150.1Z" fill="#334259"/>
<path d="M158.4 202.5C163.481 202.5 167.6 196.59 167.6 189.3C167.6 182.01 163.481 176.1 158.4 176.1C153.319 176.1 149.2 182.01 149.2 189.3C149.2 196.59 153.319 202.5 158.4 202.5Z" fill="#505F77"/>
<path d="M135.4 166.5L170.8 126.7C170.8 126.7 170.1 138.3 170.8 137.6C171.5 136.9 204.8 92.8 204.8 92.8H135.5V166.5H135.4Z" fill="#82C2ED"/>
<path d="M159 197.9C156.9 197.9 153.9 194.6 153.9 189.3C153.9 184.1 156.9 180.7 159 180.7C161.1 180.7 164.1 184 164.1 189.3C164.1 194.5 161.1 197.9 159 197.9Z" fill="#3C465E"/>
<path d="M114.7 155.6H82.8999V183.9H114.7V155.6Z" fill="#FCBC65"/>
<path d="M114.62 183.996H127.22V155.696H114.62V183.996Z" fill="#FEB14C"/>
<path d="M158 195.7C156.4 195.7 154.2 193.2 154.2 189.3C154.2 185.4 156.5 182.9 158 182.9C159.6 182.9 161.8 185.4 161.8 189.3C161.8 193.2 159.5 195.7 158 195.7Z" fill="#E4EAF4"/>
<path d="M158.7 192.3C158 192.3 156.9 191.1 156.9 189.3C156.9 187.5 158 186.3 158.7 186.3C159.4 186.3 160.5 187.5 160.5 189.3C160.5 191.1 159.4 192.3 158.7 192.3Z" fill="#413354"/>
<path d="M100.5 221.5C106.078 221.5 110.6 216.978 110.6 211.4C110.6 205.822 106.078 201.3 100.5 201.3C94.9218 201.3 90.3999 205.822 90.3999 211.4C90.3999 216.978 94.9218 221.5 100.5 221.5Z" fill="#256093"/>
<path d="M99.4 155.6H94.8V167.3H99.4V155.6Z" fill="#FD7041"/>
<path d="M122 155.6H118.9V167.3H122V155.6Z" fill="#FD7041"/>
<path d="M93.7001 202.4C93.1001 202.4 92.5001 202 92.3001 201.4L75.6001 145.3C75.6001 145.1 75.4001 145 75.2001 145H63.0001C62.2001 145 61.6001 144.4 61.6001 143.6C61.6001 142.8 62.2001 142.2 63.0001 142.2H75.2001C76.6001 142.2 77.9001 143.2 78.3001 144.5L95.0001 200.6C95.2001 201.4 94.8001 202.2 94.0001 202.4C94.0001 202.3 93.9001 202.4 93.7001 202.4Z" fill="#DADFE4"/>
<path d="M84.2667 183.374L70.5637 187.097L78.9279 217.881L92.6309 214.157L84.2667 183.374Z" fill="#FDC263"/>
<path d="M92.5897 214.231L118.066 207.309L109.701 176.525L84.2255 183.447L92.5897 214.231Z" fill="#FDB046"/>
<path d="M33 201.2V210.8L32.3 214.1L33.9001 217.3H52.3V216L43.5 211.9L45 200.3L33 201.2Z" fill="#FFD56C"/>
<path d="M100.991 178.899L91.5342 181.469L92.8452 186.294L102.302 183.724L100.991 178.899Z" fill="#FE5A34"/>
<path d="M57.8999 197.6L60.5999 206.8L60.8999 210.2L63.2999 212.8L80.9999 207.6L80.5999 206.3L71.0999 204.9L69.1999 193.4L57.8999 197.6Z" fill="#FFD56C"/>
<path d="M30.9 136.9C30.9 136.9 28.8 138.1 29 145.6C29.2 153.1 30.9 160.6 31.2 172.7C31.5 184.7 30.4 188.8 29.9 195.1C29.3 201.4 30.8 202 37.1 202C43.4 202 46.9 201.3 46.9 196.8C46.9 192.3 45.7 156.6 45.7 156.6C45.7 156.6 48.3 162 50.3 169.9C52.3 177.7 52.8 186.6 53.6 192.8C54.3 199 59.2 197.6 63.7 196.8C68.2 196 71.7 192.9 70.5 188.9C69.2 184.9 56.8 136.8 56.8 136.8L30.9 136.9Z" fill="#4C4044"/>
<path d="M61.2999 107.9C61.2999 107.9 59.7999 101.1 59.7999 99.4001C59.7999 97.7001 61.2999 99.9001 64.2999 99.0001C67.2999 98.2001 67.2999 95.5001 68.0999 97.2001C68.8999 98.9001 71.9999 107.6 72.4999 111.5C72.9999 115.4 70.6999 118.6 67.4999 119.3C64.2999 120 56.7999 120.6 56.7999 120.6V136.6H41.7999C41.7999 136.6 45.1999 139.8 45.4999 141.8C45.7999 143.7 41.9999 142.1 39.8999 144.1C37.7999 146.2 37.0999 148.8 35.7999 147.2C34.4999 145.6 31.4999 140.5 29.2999 134.2C27.0999 127.9 26.8999 118.8 27.9999 113.4C29.0999 108 35.1999 104.4 40.4999 103.9C45.7999 103.4 54.5999 104.3 61.2999 107.9Z" fill="#E6494A"/>
<path d="M50.2001 133.2C53.3001 133.2 57.2 131.9 57.8 132.8C58.4 133.7 59.0001 136.3 56.4001 136.7C53.8001 137.1 42.7 137.8 41.8 136.7C40.9 135.6 38.8 132.3 38.8 132.3C38.8 132.3 41.5001 133.2 50.2001 133.2Z" fill="#FDDD60"/>
<path d="M71.3695 161.051L62.009 163.595L68.5378 187.623L77.8983 185.08L71.3695 161.051Z" fill="#FFC06F"/>
<path d="M77.7961 185.081L94.6836 180.493L88.1548 156.464L71.2673 161.053L77.7961 185.081Z" fill="#F89C3A"/>
<path d="M83.1514 158.042L76.4929 159.851L77.3582 163.035L84.0167 161.226L83.1514 158.042Z" fill="#FE5A34"/>
<path d="M61.3 107.9L63 111.6L58.3 106.5L61.3 107.9Z" fill="#8E232A"/>
<path d="M56.8 120.7V115.7H58.3L63.3 120.1L56.8 120.7Z" fill="#8E232A"/>
<path d="M54.8999 117.9H49.8999V119.7H54.8999V117.9Z" fill="#FFFFE8"/>
<path d="M41.5 104C41.5 104 45.2 107 45.1 107.1C45 107.1 42.8 110.6 42.7 110.5C42.5 110.4 41.5 104 41.5 104Z" fill="#FFCB8E"/>
<path d="M47 106.5L49 104.2L49.6 109.7L47 106.5Z" fill="#FFCB8E"/>
<path d="M60 98.8C59.3 98.5 59.3 97.4 62.6 96.4C65.9 95.4 67.6 95.9 67.1 97C66.7 98 65.2 100.6 60 98.8Z" fill="#FDDD60"/>
<path d="M64.3001 96.4001C64.3001 96.4001 65.1001 92.9001 63.8001 91.6001C62.6001 90.4001 60.5001 90.5001 59.0001 90.5001C57.5001 90.5001 57.1001 91.4001 57.1001 92.3001C57.1001 93.2001 57.5001 93.6001 58.4001 93.6001C59.3001 93.6001 56.7001 93.9001 57.7001 94.9001C58.6001 95.9001 59.5001 95.2001 59.9001 96.4001C60.3001 97.5001 60.0001 98.3001 61.5001 98.1001C63.0001 97.9001 64.3001 96.4001 64.3001 96.4001Z" fill="#FFB7AF"/>
<path d="M38.8 132.3C38.7 132.2 36.4 130.4 36.3 128.4C36.3 127.8 36.4 126.7 36.5 125.1C36.8 121.9 37.2 117.1 36.8 113.5H37.2001C37.7001 117.2 38.0001 122 37.7001 125.2C37.6001 126.7 37.5 127.8 37.5 128.4C37.6 130 39 132.2 39 132.2L38.8 132.3Z" fill="#FF817D"/>
<path d="M42.3 99.3999C42.3 99.4999 42 102.2 41.8 103.3C41.6 104.4 41.5 103.9 41.5 103.9L46.3 107.9L48.2 105.1L47.5 100.6L42.3 99.3999Z" fill="#FFB7AF"/>
<path d="M50.3999 87.6999C50.2999 87.6999 48.8999 85.7999 47.3999 85.0999C45.7999 84.3999 44.2999 84.1999 42.0999 85.5999C39.8999 86.9999 36.4999 89.7999 37.0999 92.8999C37.6999 95.9999 40.3999 97.7999 41.6999 98.4999C42.9999 99.1999 50.3999 87.6999 50.3999 87.6999Z" fill="#FFC03F"/>
<path d="M42.2 100.1C42.2 100.1 43.6 102.8 45.4 103.1C47.2 103.4 47.5999 101.9 47.5999 101.9L42.2 100.1Z" fill="#DD8776"/>
<path d="M52.4 94C52.4 94 53.4 102.3 49.5999 102.3C45.7999 102.3 42.5 101.1 41.5 99.5C40.5 97.8 40.4 96.3 43.3 93.8C46.2 91.3 51.5 90.1 52.4 94Z" fill="#FFB7AF"/>
<path d="M52.4 94.5C52.4 94.5 58.8 91.9 56.9 89.2C55 86.5 49.7 86.8 47 88.8C44.3 90.7 40.4 95.6 41.1 96.4C41.8 97.2 44.4 93.7 46.3 92.9C49.4 91.5 52 91.9 52.4 94.5Z" fill="#F5444A"/>
<path d="M63.7 196.7C59.2 197.5 54.2999 198.9 53.5999 192.7C52.8999 186.5 52.2999 177.7 50.2999 169.8C48.2999 162 45.7 156.5 45.7 156.5V148.6C45.7 148.6 51.5 159.2 54.7 169.3C57.9 179.4 63.7 196.7 63.7 196.7Z" fill="#262122"/>
<path d="M72.9001 208C72.3001 208 71.7001 207.6 71.5 207L54.8 150.9C54.8 150.7 54.6001 150.6 54.4001 150.6H42.2001C41.4001 150.6 40.8 150 40.8 149.2C40.8 148.4 41.4001 147.8 42.2001 147.8H54.4001C55.8001 147.8 57.1 148.8 57.5 150.1L74.2 206.2C74.4 207 74 207.8 73.2 208C73.2 208 73 208 72.9001 208Z" fill="#DADFE4"/>
<path d="M40.7 148.7C41 149.7 42.1 151.5 44.2 151C46.3 150.5 47.1999 149.3 47.5999 150.6C47.9999 151.9 48.3999 153.8 50.5999 153.6C52.7999 153.4 53.6 151.4 53.2 149.2C52.9 146.9 52.0999 145.9 49.2999 145.8C46.5999 145.7 43.0999 145.7 43.0999 145.7L40.7 148.7Z" fill="#FFB7AF"/>
<path d="M37.0999 147.1C37.1999 148.7 40.5999 150 41.5999 148.7C42.6999 147.4 43.0999 146.4 44.6999 146.4C46.2999 146.4 46.3999 144 44.6999 142.5C43.0999 140.9 36.8999 145 37.0999 147.1Z" fill="#FDDD60"/>
<path d="M121.129 206.171L82.4448 216.729L83.3664 220.106L122.051 209.548L121.129 206.171Z" fill="#BAC2CD"/>
<path d="M76.1 224.4C81.6781 224.4 86.2 219.878 86.2 214.3C86.2 208.722 81.6781 204.2 76.1 204.2C70.5219 204.2 66 208.722 66 214.3C66 219.878 70.5219 224.4 76.1 224.4Z" fill="#5DA0DB"/>
<path d="M76.0999 221C79.8002 221 82.7999 218 82.7999 214.3C82.7999 210.6 79.8002 207.6 76.0999 207.6C72.3996 207.6 69.3999 210.6 69.3999 214.3C69.3999 218 72.3996 221 76.0999 221Z" fill="#2A74B3"/>
<path d="M199.2 112.2H144.3V114.6H199.2V112.2Z" fill="#2580BD"/>
<path d="M199.2 152.3H144.3V154.7H199.2V152.3Z" fill="#2580BD"/>
<path d="M227.1 145L209.7 131.5V120.5L224.4 131.9C226.1 136.5 228.5 142.9 228.8 143.7C229.2 144.8 228.5 145 227.1 145Z" fill="white"/>
<path d="M146.7 191.5H124.4V220.4H146.7V191.5Z" fill="#FFAD49"/>
<path d="M146.754 220.431H159.354V191.531H146.754V220.431Z" fill="#FEC06A"/>
<path d="M137 202.5V193.9H144.3C144.3 193.9 144.2 200.7 144.3 200.7C144.4 200.7 142.5 200.7 142.5 200.7V202.5H137Z" fill="#FB613F"/>
</svg>
