<svg width="194" height="153" viewBox="0 0 194 153" fill="none" xmlns="http://www.w3.org/2000/svg">
<g clip-path="url(#clip0_109_2429)">
<path d="M90.0797 26.2088V89.2994C90.0899 91.8057 89.1063 94.2135 87.3451 95.9934C85.584 97.7732 83.1895 98.7794 80.6881 98.7907H24.8496C22.3483 98.7794 19.9538 97.7732 18.1927 95.9934C16.4315 94.2135 15.4479 91.8057 15.4581 89.2994V9.49558C15.4479 6.98884 16.4314 4.5806 18.1924 2.80008C19.9534 1.01955 22.3479 0.0124169 24.8496 0H64.6722L90.0797 26.2088Z" fill="#4175DF"/>
<path d="M64.4509 0V21.0899C64.4509 22.4645 64.9959 23.7828 65.9659 24.7548C66.936 25.7268 68.2517 26.2728 69.6235 26.2728H90.0585L64.4509 0Z" fill="#80AEF8"/>
<path d="M52.7689 98.7907H24.8496C22.3483 98.7794 19.9538 97.7732 18.1927 95.9934C16.4315 94.2135 15.4479 91.8057 15.4581 89.2994V9.49558C15.4479 6.98884 16.4314 4.5806 18.1924 2.80008C19.9534 1.01955 22.3479 0.0124169 24.8496 0H52.7689V98.7907Z" fill="#4086F4"/>
<path d="M194 121.677V137.972C194 139.416 193.427 140.802 192.408 141.824C191.388 142.845 190.005 143.419 188.563 143.419H48.4648L5.86217 135.109C4.21274 134.789 2.72613 133.903 1.65729 132.604C0.588451 131.305 0.00399141 129.673 0.00415042 127.99V109.796C0.00415042 107.853 0.774731 105.989 2.14637 104.614C3.51802 103.24 5.37836 102.468 7.31816 102.468H11.2689C12.8224 102.473 14.3616 102.172 15.7987 101.581L50.8403 87.0087C55.2419 85.182 59.9592 84.2413 64.7233 84.2402H96.5422C101.541 84.239 106.48 85.3278 111.017 87.431L150.61 105.88L161.615 106.008C161.615 106.008 172.969 105.923 181.309 109.6C185.834 111.597 188.78 113.439 190.675 114.92C190.868 115.07 191.051 115.228 191.224 115.393C192.096 116.19 192.793 117.161 193.271 118.242C193.749 119.324 193.997 120.494 194 121.677Z" fill="#FF8086"/>
<path d="M194 131.279V137.972C194 139.416 193.427 140.802 192.408 141.824C191.388 142.845 190.005 143.419 188.563 143.419H48.4648L5.86217 135.109C4.21274 134.788 2.72613 133.903 1.65729 132.604C0.588451 131.304 0.00399141 129.673 0.00415042 127.99V118.481H21.6652C22.9491 118.48 24.2117 118.153 25.335 117.53L25.518 117.432C28.36 115.854 31.555 115.024 34.8041 115.019C38.0533 115.015 41.2505 115.836 44.0968 117.406C45.2154 118.025 46.4721 118.349 47.7495 118.349H75.3197L86.3248 131.279H140.341C141.253 131.279 142.145 131.017 142.914 130.526C143.682 130.035 144.295 129.334 144.679 128.506C146.846 123.865 152.738 115.018 166.187 115.018C178.367 115.018 184.872 124.189 187.359 128.753C187.77 129.515 188.378 130.152 189.12 130.596C189.861 131.04 190.709 131.276 191.573 131.279H194Z" fill="#E5646E"/>
<path d="M48.3372 137.161H151.47L151.661 143.415H48.4649L48.3372 137.161Z" fill="#DB4655"/>
<path d="M150.64 105.659H98.8626L85.6055 90.3403H117.275L150.64 105.659Z" fill="#A4CCFF"/>
<path d="M98.8626 105.659H48.6693C47.4535 105.66 46.2824 105.199 45.3932 104.368C44.504 103.538 43.963 102.399 43.8799 101.184C43.8024 100.075 44.0552 98.9675 44.6061 98.0023C45.1571 97.0371 45.9815 96.2575 46.9749 95.7621L54.489 92.0168C56.7089 90.9122 59.1542 90.3384 61.6327 90.3403H85.6268L98.8626 105.659Z" fill="#E5646E"/>
<path d="M194 121.677V121.894H187.81C186.95 121.894 186.124 121.552 185.516 120.942C184.908 120.332 184.566 119.506 184.566 118.644C184.566 117.781 184.908 116.955 185.516 116.345C186.124 115.736 186.95 115.393 187.81 115.393H191.258C192.124 116.193 192.815 117.165 193.287 118.247C193.759 119.328 194.002 120.496 194 121.677Z" fill="#FFC269"/>
<path d="M194 137.161V137.972C194 139.416 193.427 140.802 192.408 141.823C191.388 142.845 190.005 143.419 188.563 143.419H179.853V137.161H194Z" fill="#DB4655"/>
<path d="M77.0227 90.3403H72.4333C71.7688 90.3401 71.1182 90.5307 70.5584 90.8894C69.9986 91.2481 69.5531 91.7599 69.2745 92.3644C68.9959 92.9689 68.896 93.6406 68.9865 94.3002C69.077 94.9598 69.3542 95.5796 69.7853 96.0863L76.1286 103.564C76.7174 104.258 77.4494 104.815 78.2741 105.197C79.0989 105.579 79.9966 105.778 80.9053 105.778H90.0798L77.0227 90.3403Z" fill="#A4CCFF"/>
<path d="M98.9647 105.778H90.0798L89.9776 105.659L77.0227 90.3403H85.6054L98.8626 105.659L98.9647 105.778Z" fill="#6F6571"/>
<path d="M10.1494 115.38C10.1494 116.202 9.82386 116.99 9.24435 117.572C8.66483 118.153 7.87869 118.48 7.05857 118.481H0V112.279H7.05857C7.46482 112.279 7.86708 112.359 8.24235 112.515C8.61762 112.671 8.95853 112.9 9.24559 113.188C9.53265 113.476 9.76023 113.818 9.91531 114.194C10.0704 114.57 10.1499 114.973 10.1494 115.38Z" fill="#FF9A9F"/>
<path d="M88.5599 131.279H79.5131C77.9831 131.279 76.4769 130.899 75.1287 130.174C73.7806 129.449 72.6323 128.401 71.7862 127.124L67.8652 121.203C67.6812 120.925 67.5757 120.603 67.5601 120.27C67.5445 119.937 67.6194 119.606 67.7766 119.312C67.9339 119.019 68.1677 118.773 68.4532 118.602C68.7387 118.431 69.0652 118.341 69.3978 118.341H78.4446C79.9735 118.339 81.4791 118.717 82.8272 119.439C84.1753 120.162 85.3242 121.208 86.1715 122.483L90.0925 128.399C90.2811 128.677 90.3904 129.002 90.4084 129.337C90.4264 129.673 90.3525 130.007 90.1947 130.303C90.0368 130.6 89.8011 130.847 89.513 131.019C89.2248 131.191 88.8952 131.281 88.5599 131.279Z" fill="#6F6571"/>
<path d="M69.1637 40.4692H35.7143C33.9062 40.4692 32.4404 41.9379 32.4404 43.7496C32.4404 45.5613 33.9062 47.03 35.7143 47.03H69.1637C70.9718 47.03 72.4376 45.5613 72.4376 43.7496C72.4376 41.9379 70.9718 40.4692 69.1637 40.4692Z" fill="#DBFFFC"/>
<path d="M69.1637 51.7563H35.7143C33.9062 51.7563 32.4404 53.225 32.4404 55.0367C32.4404 56.8484 33.9062 58.3171 35.7143 58.3171H69.1637C70.9718 58.3171 72.4376 56.8484 72.4376 55.0367C72.4376 53.225 70.9718 51.7563 69.1637 51.7563Z" fill="#DBFFFC"/>
<path d="M69.1637 63.0437H35.7143C33.9062 63.0437 32.4404 64.5124 32.4404 66.3241C32.4404 68.1358 33.9062 69.6044 35.7143 69.6044H69.1637C70.9718 69.6044 72.4376 68.1358 72.4376 66.3241C72.4376 64.5124 70.9718 63.0437 69.1637 63.0437Z" fill="#DBFFFC"/>
<path d="M58.0735 74.3352H35.7143C33.9062 74.3352 32.4404 75.8039 32.4404 77.6156C32.4404 79.4273 33.9062 80.8959 35.7143 80.8959H58.0735C59.8816 80.8959 61.3474 79.4273 61.3474 77.6156C61.3474 75.8039 59.8816 74.3352 58.0735 74.3352Z" fill="#DBFFFC"/>
<path d="M114.333 41.2798C114.901 41.8492 115.219 42.6209 115.219 43.4254C115.219 44.23 114.901 45.0017 114.333 45.5711L99.4329 60.5013C99.2122 60.7235 98.9498 60.8998 98.6608 61.0202C98.3719 61.1405 98.0621 61.2024 97.7492 61.2024C97.4363 61.2024 97.1264 61.1405 96.8375 61.0202C96.5485 60.8998 96.2861 60.7235 96.0654 60.5013L106.683 71.1401C104.79 71.6615 102.835 71.9241 100.872 71.9207C96.5318 71.9219 92.2883 70.6375 88.6748 68.2289C85.0612 65.8202 82.239 62.3949 80.563 58.3836C78.8869 54.3723 78.4318 49.954 79.2549 45.6842C80.078 41.4145 82.1425 37.4838 85.1889 34.3865C88.2353 31.2891 92.1276 29.1633 96.3764 28.2763C100.625 27.3894 105.041 27.7808 109.068 29.4015C113.096 31.0222 116.555 33.7997 119.011 37.3848C121.468 40.97 122.811 45.2028 122.873 49.5511L114.333 41.2798Z" fill="#32BA7C"/>
<path d="M114.338 45.5711L99.4373 60.5012C99.2166 60.7235 98.9542 60.8998 98.6652 61.0201C98.3763 61.1405 98.0665 61.2024 97.7535 61.2024C97.4406 61.2024 97.1308 61.1405 96.8419 61.0201C96.5529 60.8998 96.2905 60.7235 96.0698 60.5012L87.8618 52.2768C87.2958 51.7076 86.978 50.9368 86.978 50.1333C86.978 49.3298 87.2958 48.559 87.8618 47.9898L89.0027 46.8508C89.2835 46.569 89.6169 46.3454 89.984 46.1928C90.3511 46.0403 90.7446 45.9618 91.142 45.9618C91.5394 45.9618 91.9329 46.0403 92.3 46.1928C92.6671 46.3454 93.0005 46.569 93.2813 46.8508L97.7557 51.3298L108.918 40.1536C109.486 39.5865 110.256 39.2681 111.058 39.2681C111.859 39.2681 112.629 39.5865 113.197 40.1536L114.334 41.2925C114.897 41.8609 115.214 42.6295 115.215 43.4309C115.216 44.2323 114.901 45.0016 114.338 45.5711Z" fill="white"/>
<path d="M122.869 49.8753C122.871 54.7073 121.289 59.4062 118.366 63.2496C115.443 67.093 111.342 69.8682 106.692 71.1486L96.074 60.5098C96.2947 60.7321 96.5571 60.9084 96.846 61.0287C97.135 61.1491 97.4448 61.211 97.7577 61.211C98.0706 61.211 98.3805 61.1491 98.6694 61.0287C98.9584 60.9084 99.2208 60.7321 99.4415 60.5098L114.342 45.5797C114.909 45.0103 115.228 44.2386 115.228 43.434C115.228 42.6294 114.909 41.8578 114.342 41.2883L122.857 49.5682C122.869 49.662 122.869 49.7687 122.869 49.8753Z" fill="#0AA06E"/>
<path opacity="0.4" d="M90.9824 96.5513H130.601L117.275 90.3403H72.3653C71.7236 90.341 71.0951 90.5221 70.5511 90.8631C70.0072 91.2041 69.5697 91.6912 69.2885 92.269C69.0072 92.8469 68.8935 93.4922 68.9603 94.1316C69.027 94.771 69.2716 95.3788 69.6661 95.8858L70.177 96.5427H90.9824V96.5513Z" fill="white"/>
<path d="M34.799 153C43.5291 153 50.6063 145.909 50.6063 137.161C50.6063 128.414 43.5291 121.323 34.799 121.323C26.0689 121.323 18.9917 128.414 18.9917 137.161C18.9917 145.909 26.0689 153 34.799 153Z" fill="#5D5360"/>
<path d="M34.7989 146.567C39.9834 146.567 44.1862 142.356 44.1862 137.161C44.1862 131.966 39.9834 127.755 34.7989 127.755C29.6145 127.755 25.4116 131.966 25.4116 137.161C25.4116 142.356 29.6145 146.567 34.7989 146.567Z" fill="#B6B1B7"/>
<path d="M34.7989 140.399C36.5835 140.399 38.0302 138.949 38.0302 137.161C38.0302 135.373 36.5835 133.924 34.7989 133.924C33.0143 133.924 31.5676 135.373 31.5676 137.161C31.5676 138.949 33.0143 140.399 34.7989 140.399Z" fill="#DAD8DB"/>
<path d="M166.187 153C174.917 153 181.994 145.909 181.994 137.161C181.994 128.414 174.917 121.323 166.187 121.323C157.457 121.323 150.38 128.414 150.38 137.161C150.38 145.909 157.457 153 166.187 153Z" fill="#5D5360"/>
<path d="M166.187 146.567C171.372 146.567 175.574 142.356 175.574 137.161C175.574 131.966 171.372 127.755 166.187 127.755C161.003 127.755 156.8 131.966 156.8 137.161C156.8 142.356 161.003 146.567 166.187 146.567Z" fill="#B6B1B7"/>
<path d="M166.187 140.399C167.972 140.399 169.418 138.949 169.418 137.161C169.418 135.373 167.972 133.924 166.187 133.924C164.402 133.924 162.956 135.373 162.956 137.161C162.956 138.949 164.402 140.399 166.187 140.399Z" fill="#DAD8DB"/>
<path d="M84.1961 131.279H79.5131C77.9831 131.279 76.4769 130.899 75.1287 130.174C73.7806 129.449 72.6323 128.401 71.7862 127.124L67.8652 121.203C67.6812 120.925 67.5757 120.603 67.5601 120.27C67.5445 119.937 67.6194 119.606 67.7766 119.312C67.9339 119.019 68.1677 118.773 68.4532 118.602C68.7387 118.431 69.0652 118.341 69.3978 118.341H74.8301L84.1961 131.279Z" fill="#5D5360"/>
</g>
<defs>
<clipPath id="clip0_109_2429">
<rect width="194" height="153" fill="white"/>
</clipPath>
</defs>
</svg>
