<svg width="216" height="127" viewBox="0 0 216 127" fill="none" xmlns="http://www.w3.org/2000/svg">
<path d="M111.833 83.9906C111.833 86.9555 111.25 89.8914 110.116 92.6305C108.982 95.3696 107.32 97.8583 105.225 99.9541C103.13 102.05 100.642 103.712 97.9047 104.845C95.1672 105.978 92.2334 106.56 89.2711 106.557H69.2217V15.5334C71.7743 15.5364 74.2909 16.1365 76.5705 17.2859C78.8502 18.4353 80.8299 20.1021 82.3515 22.1534C83.8732 24.2046 84.8946 26.5835 85.3344 29.1001C85.7742 31.6167 85.6201 34.2013 84.8844 36.6477C87.4765 37.4398 89.8713 38.773 91.9107 40.5596C93.9501 42.3461 95.5877 44.5453 96.7154 47.0119C97.8431 49.4784 98.4352 52.1564 98.4528 54.8689C98.4703 57.5814 97.9127 60.2668 96.817 62.7477C101.204 64.3046 105.003 67.1822 107.691 70.9855C110.38 74.7889 111.826 79.3317 111.833 83.9906Z" fill="#81A713"/>
<path d="M52.8594 31.9096C52.8581 33.4947 53.0873 35.0716 53.5397 36.5906C50.9217 37.3626 48.4987 38.6856 46.433 40.4709C44.3673 42.2562 42.7065 44.4626 41.5618 46.9424C40.4171 49.4221 39.815 52.1181 39.7957 54.8496C39.7765 57.5812 40.3405 60.2854 41.4501 62.7811C36.4658 64.594 32.2795 68.1073 29.627 72.7035C26.9745 77.2997 26.0256 82.6846 26.947 87.9117C27.8685 93.1387 30.6014 97.8735 34.6653 101.284C38.7292 104.694 43.8641 106.561 49.1673 106.557H69.2215V15.5334C64.882 15.5334 60.7202 17.2588 57.6517 20.3299C54.5832 23.401 52.8594 27.5664 52.8594 31.9096Z" fill="#A8D32A"/>
<path d="M69.4164 122.862C68.5786 122.862 67.775 122.529 67.1826 121.936C66.5901 121.343 66.2573 120.539 66.2573 119.7V85.3905C66.2408 84.9646 66.3103 84.5398 66.4617 84.1415C66.6132 83.7432 66.8434 83.3796 67.1386 83.0724C67.4338 82.7653 67.7879 82.5209 68.1798 82.354C68.5716 82.1871 68.993 82.1011 69.4188 82.1011C69.8446 82.1011 70.2661 82.1871 70.6579 82.354C71.0497 82.5209 71.4038 82.7653 71.699 83.0724C71.9942 83.3796 72.2245 83.7432 72.3759 84.1415C72.5273 84.5398 72.5969 84.9646 72.5804 85.3905V119.7C72.5804 120.116 72.4985 120.527 72.3395 120.911C72.1804 121.295 71.9473 121.644 71.6534 121.938C71.3595 122.231 71.0107 122.464 70.6269 122.623C70.243 122.781 69.8317 122.863 69.4164 122.862Z" fill="#725D57"/>
<path d="M56.6514 84.0239L69.4213 91.3096" stroke="#725D57" stroke-width="13" stroke-miterlimit="10" stroke-linecap="round"/>
<path d="M85.4884 83.9906C85.4891 86.9538 84.9064 89.8882 83.7739 92.6261C82.6413 95.364 80.9809 97.8518 78.8876 99.9473C76.7942 102.043 74.309 103.705 71.5737 104.839C68.8384 105.974 65.9066 106.557 62.9459 106.557H42.8965V15.5334C45.4479 15.5386 47.9628 16.1403 50.2406 17.2907C52.5185 18.441 54.4963 20.1081 56.0163 22.1591C57.5363 24.21 58.5565 26.5881 58.9956 29.1036C59.4346 31.6191 59.2803 34.2025 58.5449 36.6477C61.1397 37.4362 63.5375 38.7672 65.5797 40.5527C67.622 42.3382 69.2621 44.5374 70.3915 47.0048C71.5209 49.4722 72.1139 52.1515 72.1312 54.8655C72.1485 57.5794 71.5897 60.2661 70.4918 62.7477C74.8756 64.3078 78.6699 67.1867 81.3547 70.9898C84.0396 74.7928 85.4835 79.334 85.4884 83.9906Z" fill="#93BF00"/>
<path d="M26.5344 31.9096C26.5347 33.495 26.7655 35.0718 27.2195 36.5906C24.6001 37.3606 22.1756 38.6824 20.1086 40.4673C18.0415 42.2521 16.3798 44.4588 15.2348 46.9392C14.0898 49.4197 13.4881 52.1165 13.47 54.8488C13.4519 57.5811 14.0179 60.2857 15.1299 62.7811C10.1444 64.5944 5.9573 68.1089 3.30489 72.7066C0.652489 77.3043 -0.295388 82.6907 0.627945 87.9187C1.55128 93.1467 4.2867 97.8815 8.35319 101.291C12.4197 104.7 17.5568 106.564 22.8613 106.557H42.9108V15.5335C40.7608 15.5316 38.6316 15.9538 36.6449 16.7759C34.6581 17.5981 32.8526 18.804 31.3318 20.3249C29.8109 21.8457 28.6044 23.6517 27.7812 25.6394C26.958 27.6272 26.5344 29.7579 26.5344 31.9096Z" fill="#B9DD39"/>
<path d="M43.0961 122.862C42.6808 122.862 42.2695 122.781 41.8856 122.623C41.5018 122.464 41.153 122.231 40.8591 121.937C40.5653 121.644 40.3321 121.295 40.1731 120.911C40.014 120.527 39.9321 120.116 39.9321 119.7V51.0761C39.9638 50.2581 40.3108 49.4842 40.9002 48.9167C41.4897 48.3492 42.2758 48.0322 43.0937 48.0322C43.9116 48.0322 44.6977 48.3492 45.2871 48.9167C45.8766 49.4842 46.2236 50.2581 46.2553 51.0761V119.7C46.2553 120.539 45.9224 121.343 45.33 121.936C44.7375 122.529 43.9339 122.862 43.0961 122.862Z" fill="#725D57"/>
<path d="M43.0914 94.4763C42.5441 94.4765 42.0062 94.3337 41.5309 94.062L28.7609 86.7715C28.4004 86.5652 28.084 86.2897 27.8299 85.961C27.5757 85.6323 27.3887 85.2566 27.2796 84.8556C27.1705 84.4545 27.1413 84.0359 27.1939 83.6236C27.2464 83.2112 27.3795 82.8133 27.5857 82.4525C27.7919 82.0916 28.0671 81.775 28.3955 81.5206C28.724 81.2662 29.0993 81.0791 29.5 80.9699C29.9007 80.8606 30.319 80.8315 30.731 80.8841C31.143 80.9366 31.5406 81.0699 31.9011 81.2763L44.671 88.562C45.2759 88.9089 45.7494 89.446 46.0179 90.0899C46.2865 90.7338 46.335 91.4484 46.156 92.1228C45.9769 92.7971 45.5804 93.3934 45.028 93.819C44.4755 94.2446 43.7981 94.4757 43.101 94.4763H43.0914Z" fill="#725D57"/>
<path d="M43.0964 81.5953C42.3973 81.5963 41.7176 81.3652 41.1638 80.9381C40.61 80.5111 40.2133 79.9123 40.036 79.2355C39.8586 78.5587 39.9106 77.8421 40.1837 77.198C40.4568 76.554 40.9357 76.0187 41.5453 75.6762L54.1107 68.5857C54.8392 68.2024 55.6882 68.1182 56.4777 68.3511C57.2671 68.584 57.9348 69.1156 58.3391 69.8332C58.7434 70.5507 58.8524 71.3976 58.643 72.1943C58.4336 72.9909 57.9223 73.6745 57.2176 74.1L44.6474 81.1905C44.174 81.4572 43.6396 81.5967 43.0964 81.5953Z" fill="#725D57"/>
<path d="M43.0915 68.4191C42.5696 68.4184 42.0562 68.2874 41.5975 68.0382L28.8276 61.1477C28.4279 60.9718 28.0689 60.7149 27.7734 60.3932C27.4779 60.0714 27.2522 59.6919 27.1106 59.2785C26.9691 58.8651 26.9146 58.4268 26.9508 57.9913C26.987 57.5558 27.1129 57.1325 27.3208 56.7482C27.5286 56.3638 27.8138 56.0268 28.1583 55.7583C28.5029 55.4899 28.8992 55.2958 29.3225 55.1883C29.7457 55.0809 30.1866 55.0625 30.6173 55.1341C31.0481 55.2058 31.4593 55.3661 31.825 55.6048L44.595 62.4906C45.2143 62.8256 45.7042 63.3578 45.9873 64.0029C46.2704 64.6481 46.3304 65.3693 46.1579 66.0524C45.9853 66.7355 45.5901 67.3415 45.0347 67.7745C44.4793 68.2075 43.7955 68.4427 43.0915 68.4429V68.4191Z" fill="#725D57"/>
<path d="M42.8966 119.7V126.624H3.46381C2.54645 126.624 1.66666 126.259 1.01798 125.61C0.369306 124.961 0.00488281 124.08 0.00488281 123.162C0.00488281 122.244 0.369306 121.363 1.01798 120.714C1.66666 120.065 2.54645 119.7 3.46381 119.7H42.8966Z" fill="#A8D32A"/>
<path d="M111.328 123.167C111.327 123.621 111.237 124.071 111.063 124.491C110.889 124.911 110.633 125.292 110.312 125.613C109.99 125.934 109.608 126.189 109.188 126.362C108.769 126.535 108.319 126.624 107.864 126.624H42.8965V119.7H107.864C108.783 119.7 109.664 120.065 110.314 120.715C110.963 121.365 111.328 122.247 111.328 123.167Z" fill="#93BF00"/>
<path d="M215.648 85.2762C215.578 85.5145 215.483 85.7445 215.363 85.9619C214.249 88.0381 210.847 89.8667 205.304 89.8667C199.153 89.8667 189.627 88.3571 184.441 89.3047C179.903 90.1333 173.584 94.2619 170.558 95.7286C167.532 97.1952 167.337 98.4619 167.532 101.1C167.727 103.738 168.803 112.919 169.193 115.067C169.583 117.214 170.268 118.095 171.924 118.976C173.579 119.857 175.83 120.733 175.83 120.733V126.624H160.41C160.41 126.624 155.238 110.967 154.263 107.743C153.287 104.519 150.747 103.567 147.916 103.371C145.085 103.176 135.036 110.576 130.155 112.419C125.273 114.262 119.811 113.986 116.1 113.59C113.84 113.352 109.73 112.862 106.732 112.8C104.829 112.762 103.349 112.9 103.121 113.395C102.536 114.667 102.341 120.538 102.341 121.895C102.341 123.252 104.976 124.729 104.976 124.729L105.367 126.633H83.2095C83.2095 126.633 84.2847 107.262 85.4552 89.7762C86.6256 72.2905 103.021 62.9143 116.1 62.9143H147.135C149.281 62.9143 151.527 60.0571 155.433 60.0571C159.339 60.0571 160.02 63.1857 163.336 63.1857H181.492C186.663 63.1857 196.422 64.1857 199.838 67.4952C203.254 70.8047 208.916 77.3476 212.622 78.3238C216.328 79.3 216.333 82.9286 215.648 85.2762Z" fill="#A86B38"/>
<path d="M196.997 76.338C198.272 76.338 199.305 75.304 199.305 74.0285C199.305 72.753 198.272 71.719 196.997 71.719C195.723 71.719 194.69 72.753 194.69 74.0285C194.69 75.304 195.723 76.338 196.997 76.338Z" fill="#090603"/>
<path d="M185.836 70.9904C186.097 68.0571 183.09 67.0332 181.04 68.1332C178.989 69.2332 178.846 73.7713 181.04 75.4951C183.233 77.219 184.56 76.8666 185.112 75.2094C185.617 73.6999 185.617 73.4332 185.836 70.9904Z" fill="#512807"/>
<path d="M105.609 111.943L104.439 126.624H124.717V122.2C124.717 122.2 119.883 120.367 119.74 117.948C119.597 115.529 120.468 110.695 120.468 110.695L105.609 111.943Z" fill="#512807"/>
<path d="M137.744 106.3L135.917 126.624H152.969V121.686C152.969 121.686 147.697 119.267 147.844 117.581C147.992 115.895 154.434 103.152 154.434 103.152L144.771 98.9761L137.744 106.3Z" fill="#512807"/>
<path d="M119.003 62.9048C110.22 62.9048 93.8242 71.281 91.7735 90.6238C89.7229 109.967 89.3613 126.624 89.3613 126.624H83.2095C83.2095 126.624 84.2847 107.252 85.4552 89.7667C86.6256 72.281 103.021 62.9048 116.1 62.9048H119.003Z" fill="#8C4A14"/>
<path d="M215.362 85.9619C214.249 88.0381 210.847 89.8667 205.304 89.8667C199.152 89.8667 189.627 88.3572 184.441 89.3048C179.902 90.1334 173.584 94.2619 170.558 95.7286C167.532 97.1953 167.337 98.4619 167.532 101.1C167.727 103.738 168.802 112.919 169.193 115.067C169.583 117.214 170.268 118.095 171.924 118.976C173.579 119.857 175.83 120.733 175.83 120.733V126.624H160.41C160.41 126.624 155.238 110.967 154.263 107.743C153.287 104.519 150.746 103.567 147.916 103.371C145.085 103.176 135.036 110.576 130.155 112.419C125.273 114.262 119.811 113.986 116.1 113.59C113.84 113.352 109.729 112.862 106.732 112.8C106.285 110.195 107.35 107.405 109.929 105.267C112.927 102.776 116.148 99.2572 123.47 98.9667C130.792 98.6762 144.185 93.5429 153.259 90.0286C162.332 86.5143 171.153 82.481 185.85 83.8C200.547 85.1191 206.784 86.4381 214.087 86C214.539 85.981 214.967 85.9667 215.362 85.9619Z" fill="#B77A47"/>
<path d="M101.037 0H140.746C141.658 0 142.533 0.362729 143.178 1.00839C143.823 1.65405 144.186 2.52975 144.186 3.44286V49.3048C144.186 50.2179 143.823 51.0936 143.178 51.7392C142.533 52.3849 141.658 52.7476 140.746 52.7476H101.037V0Z" fill="#962A3A"/>
<path d="M105.98 0H102.831V52.7476H105.98V0Z" fill="#CF5668"/>
<path d="M137.016 8.8667H110.81V11.3572H137.016V8.8667Z" fill="#CF5668"/>
<path d="M133.5 15.3477H114.321V17.8381H133.5V15.3477Z" fill="#CF5668"/>
<path d="M137.016 25.3477H110.81V46.0048H137.016V25.3477Z" fill="#A53848"/>
<path d="M108.939 52.7476V61.0999L111.813 59.6333L114.687 61.0999V52.7476H108.939Z" fill="#E6431D"/>
<path d="M75.3446 102.319H74.3931V126.933H75.3446V102.319Z" fill="#469315"/>
<path d="M78.0521 123.733C77.2527 124.533 76.2108 124.819 75.6065 124.443C75.2307 123.838 75.5114 122.795 76.3155 121.995C77.1195 121.195 78.1567 120.905 78.761 121.286C79.1559 121.886 78.8704 122.929 78.0521 123.733Z" fill="#469315"/>
<path d="M71.6715 123.733C72.4709 124.533 73.5128 124.819 74.1123 124.443C74.4929 123.838 74.2075 122.795 73.4082 121.995C72.6088 121.195 71.5621 120.905 70.9626 121.286C70.582 121.886 70.8675 122.929 71.6715 123.733Z" fill="#469315"/>
<path d="M78.6608 118.295C77.7092 119.248 76.4769 119.586 75.7633 119.138C75.3113 118.424 75.6491 117.186 76.6006 116.233C77.5522 115.281 78.7892 114.943 79.5029 115.395C79.9549 116.11 79.6123 117.343 78.6608 118.295Z" fill="#469315"/>
<path d="M71.0723 118.295C72.0239 119.248 73.2609 119.586 73.9746 119.138C74.4218 118.424 74.084 117.186 73.1325 116.233C72.1809 115.281 70.9486 114.943 70.235 115.395C69.783 116.11 70.1208 117.343 71.0723 118.295Z" fill="#469315"/>
<path d="M78.9321 113.095C77.914 114.114 76.5913 114.476 75.8253 113.995C75.3495 113.229 75.7063 111.905 76.7245 110.886C77.7427 109.867 79.0653 109.505 79.8266 109.986C80.3119 110.752 79.9551 112.076 78.9321 113.095Z" fill="#469315"/>
<path d="M70.8057 113.095C71.8239 114.114 73.1465 114.476 73.9078 113.995C74.3836 113.229 74.0267 111.905 73.0133 110.886C71.9999 109.867 70.6677 109.505 69.9065 109.986C69.4259 110.752 69.7875 112.076 70.8057 113.095Z" fill="#469315"/>
<path d="M79.1796 107.724C78.0996 108.805 76.696 109.19 75.8824 108.676C75.3733 107.862 75.7587 106.457 76.834 105.376C77.9093 104.295 79.3176 103.909 80.1264 104.424C80.645 105.238 80.2596 106.643 79.1796 107.724Z" fill="#469315"/>
<path d="M76.991 101.195C76.991 102.724 76.068 103.99 74.8691 104.2C73.6701 103.99 72.7471 102.724 72.7471 101.195C72.7471 99.6666 73.6701 98.4 74.8691 98.1904C76.068 98.4 76.991 99.6666 76.991 101.195Z" fill="#469315"/>
<path d="M70.5582 107.724C71.6382 108.805 73.0418 109.19 73.8506 108.676C74.3645 107.862 73.9791 106.457 72.8991 105.376C71.819 104.295 70.4107 103.909 69.6019 104.424C69.0881 105.238 69.4877 106.643 70.5582 107.724Z" fill="#469315"/>
<path d="M104.406 102.319H103.454V126.933H104.406V102.319Z" fill="#469315"/>
<path d="M107.127 123.733C106.323 124.533 105.281 124.819 104.681 124.443C104.301 123.838 104.586 122.795 105.39 121.995C106.194 121.195 107.232 120.905 107.831 121.286C108.212 121.886 107.926 122.929 107.127 123.733Z" fill="#469315"/>
<path d="M100.728 123.733C101.532 124.533 102.574 124.819 103.173 124.443C103.554 123.838 103.268 122.795 102.464 121.995C101.66 121.195 100.623 120.905 100.024 121.286C99.6429 121.886 99.9379 122.929 100.728 123.733Z" fill="#469315"/>
<path d="M107.722 118.295C106.77 119.248 105.533 119.586 104.819 119.138C104.372 118.424 104.71 117.186 105.661 116.233C106.613 115.281 107.85 114.943 108.559 115.395C109.011 116.11 108.673 117.343 107.722 118.295Z" fill="#469315"/>
<path d="M100.133 118.295C101.084 119.248 102.317 119.586 103.03 119.138C103.482 118.424 103.145 117.186 102.193 116.233C101.241 115.281 100.004 114.943 99.2955 115.395C98.8435 116.11 99.1813 117.343 100.133 118.295Z" fill="#469315"/>
<path d="M107.988 113.095C106.97 114.114 105.647 114.476 104.886 113.995C104.41 113.229 104.767 111.905 105.785 110.886C106.803 109.867 108.126 109.505 108.887 109.986C109.372 110.752 109.006 112.076 107.988 113.095Z" fill="#469315"/>
<path d="M99.8663 113.095C100.884 114.114 102.207 114.476 102.968 113.995C103.444 113.229 103.087 111.905 102.069 110.886C101.051 109.867 99.7283 109.505 98.9671 109.986C98.4818 110.752 98.8434 112.076 99.8663 113.095Z" fill="#469315"/>
<path d="M108.24 107.724C107.16 108.805 105.756 109.19 104.943 108.676C104.434 107.862 104.814 106.457 105.894 105.376C106.974 104.295 108.383 103.909 109.192 104.424C109.705 105.238 109.32 106.643 108.24 107.724Z" fill="#469315"/>
<path d="M106.051 101.195C106.051 102.724 105.124 103.99 103.925 104.2C102.731 103.99 101.803 102.724 101.803 101.195C101.803 99.6666 102.754 98.4 103.925 98.1904C105.124 98.4 106.051 99.6666 106.051 101.195Z" fill="#469315"/>
<path d="M99.6146 107.724C100.695 108.805 102.098 109.19 102.912 108.676C103.421 107.862 103.035 106.457 101.96 105.376C100.885 104.295 99.4766 103.909 98.6678 104.424C98.1492 105.238 98.5346 106.643 99.6146 107.724Z" fill="#469315"/>
<path d="M89.1757 87.957H88.2241V127H89.1757V87.957Z" fill="#469315"/>
<path d="M93.7527 121.919C92.4824 123.191 90.8314 123.648 89.8799 123.043C89.2756 122.091 89.7276 120.433 90.9979 119.162C92.2683 117.891 93.924 117.438 94.8756 118.043C95.4988 118.995 95.0468 120.648 93.7527 121.919Z" fill="#469315"/>
<path d="M83.6282 121.919C84.8985 123.191 86.5495 123.648 87.5058 123.043C88.1053 122.091 87.6533 120.433 86.3829 119.162C85.1126 117.891 83.4569 117.438 82.5053 118.043C81.9011 118.995 82.3578 120.648 83.6282 121.919Z" fill="#469315"/>
<path d="M94.7044 113.3C93.1962 114.805 91.236 115.343 90.1036 114.629C89.39 113.495 89.9276 111.538 91.4358 110.029C92.944 108.519 94.9043 107.976 96.0366 108.695C96.7646 109.824 96.2269 111.795 94.7044 113.3Z" fill="#469315"/>
<path d="M82.6814 113.3C84.1896 114.805 86.1499 115.343 87.2822 114.629C87.9959 113.495 87.4583 111.538 85.95 110.029C84.4418 108.519 82.4816 107.976 81.3492 108.695C80.6356 109.824 81.1732 111.795 82.6814 113.3Z" fill="#469315"/>
<path d="M95.142 105.048C93.5291 106.662 91.4309 107.238 90.2176 106.476C89.4564 105.267 90.0321 103.167 91.645 101.548C93.2579 99.9287 95.3608 99.3573 96.5693 100.119C97.3353 101.319 96.7596 103.429 95.142 105.048Z" fill="#469315"/>
<path d="M82.2578 105.048C83.8707 106.662 85.9689 107.238 87.1821 106.476C87.9434 105.267 87.3724 103.167 85.7548 101.548C84.1371 99.9287 82.0437 99.3573 80.8304 100.119C80.0644 101.319 80.6401 103.429 82.2578 105.048Z" fill="#469315"/>
<path d="M95.5419 96.5286C93.8243 98.2429 91.5977 98.8572 90.3083 98.0429C89.4995 96.7572 90.1085 94.5286 91.8213 92.8048C93.5341 91.081 95.7655 90.4762 97.0549 91.2905C97.8637 92.5857 97.2547 94.8143 95.5419 96.5286Z" fill="#469315"/>
<path d="M92.0683 86.1713C92.0683 88.5951 90.6028 90.6047 88.6997 90.9332C86.7966 90.5951 85.3359 88.5856 85.3359 86.1713C85.3359 83.757 86.8013 81.738 88.6997 81.4094C90.6028 81.738 92.0683 83.7428 92.0683 86.1713Z" fill="#469315"/>
<path d="M81.8584 96.5286C83.5712 98.2429 85.7979 98.8572 87.092 98.0429C87.9056 96.7572 87.2918 94.5286 85.579 92.8048C83.8662 91.081 81.6395 90.4762 80.3454 91.2905C79.5366 92.5857 80.1456 94.8143 81.8584 96.5286Z" fill="#469315"/>
</svg>
