<svg width="207" height="201" viewBox="0 0 207 201" fill="none" xmlns="http://www.w3.org/2000/svg">
<g clip-path="url(#clip0_799_3133)">
<path d="M201.966 121.43L180.835 97.1336C180.434 96.6719 179.735 96.6238 179.274 97.0261L169.014 105.985C168.554 106.387 168.506 107.088 168.907 107.549L190.037 131.846C190.439 132.307 191.138 132.355 191.599 131.953L201.858 122.994C202.319 122.592 202.367 121.892 201.966 121.43Z" fill="#BECEDC"/>
<path d="M196.089 114.912L169.58 96.6626C169.076 96.3158 168.387 96.4439 168.041 96.9486L160.335 108.188C159.989 108.693 160.117 109.383 160.621 109.73L187.13 127.979C187.634 128.325 188.323 128.197 188.669 127.693L196.375 116.454C196.721 115.949 196.593 115.258 196.089 114.912Z" fill="#EDF6FF"/>
<path d="M142.93 57.9819H72.3584C67.3231 57.9819 63.2412 62.072 63.2412 67.1175V158.032C63.2412 163.077 67.3231 167.167 72.3584 167.167H142.93C147.965 167.167 152.047 163.077 152.047 158.032V67.1175C152.047 62.072 147.965 57.9819 142.93 57.9819Z" fill="#EDF6FF"/>
<path d="M137.257 97.8694H77.6972C75.8764 97.8694 74.4004 99.3473 74.4004 101.171C74.4004 102.994 75.8764 104.472 77.6972 104.472H137.257C139.078 104.472 140.554 102.994 140.554 101.171C140.554 99.3473 139.078 97.8694 137.257 97.8694Z" fill="#BECEDC"/>
<path d="M137.257 112.573H77.6972C75.8764 112.573 74.4004 114.05 74.4004 115.874C74.4004 117.697 75.8764 119.175 77.6972 119.175H137.257C139.078 119.175 140.554 117.697 140.554 115.874C140.554 114.05 139.078 112.573 137.257 112.573Z" fill="#BECEDC"/>
<path d="M137.257 127.276H77.6972C75.8764 127.276 74.4004 128.754 74.4004 130.577C74.4004 132.4 75.8764 133.878 77.6972 133.878H137.257C139.078 133.878 140.554 132.4 140.554 130.577C140.554 128.754 139.078 127.276 137.257 127.276Z" fill="#BECEDC"/>
<path d="M113.226 141.784H77.6972C75.8764 141.784 74.4004 143.262 74.4004 145.085C74.4004 146.908 75.8764 148.386 77.6972 148.386H113.226C115.047 148.386 116.523 146.908 116.523 145.085C116.523 143.262 115.047 141.784 113.226 141.784Z" fill="#BECEDC"/>
<path d="M135.947 69.8271H127.354C125.622 69.8271 124.219 71.2335 124.219 72.9682V81.5794C124.219 83.3142 125.622 84.7205 127.354 84.7205H135.947C137.679 84.7205 139.082 83.3142 139.082 81.5794V72.9682C139.082 71.2335 137.679 69.8271 135.947 69.8271Z" fill="#BECEDC"/>
<path d="M179.732 199.705L139.605 159.47L132.835 145.087L147.592 151.467L187.738 191.693C188.562 192.524 189.025 193.648 189.025 194.82C189.025 195.992 188.562 197.116 187.738 197.947L186.02 199.692C185.609 200.108 185.12 200.439 184.581 200.665C184.041 200.891 183.463 201.008 182.879 201.01C182.294 201.011 181.715 200.896 181.175 200.673C180.635 200.449 180.144 200.12 179.732 199.705Z" fill="#E39700"/>
<path d="M182.627 186.59L174.638 194.595L178.632 198.597L186.621 190.592L182.627 186.59Z" fill="#F3EDBF"/>
<path d="M147.57 151.466L139.582 159.471L142.076 161.971L150.065 153.966L147.57 151.466Z" fill="#F3EDC0"/>
<path d="M152.811 156.719L150.061 159.47C149.647 159.885 149.415 160.448 149.415 161.034C149.415 161.62 149.647 162.183 150.061 162.597L171.545 184.126C171.96 184.54 172.521 184.772 173.106 184.772C173.691 184.772 174.252 184.54 174.666 184.126L177.412 181.374L152.811 156.719Z" fill="#FFCB43"/>
<path d="M139.577 159.466L147.569 151.462L132.812 145.083L139.577 159.466Z" fill="#E0A370"/>
<path d="M204.538 117.663L160.394 102.234C158.467 101.56 156.36 102.579 155.688 104.51L143.933 138.277C143.261 140.208 144.278 142.319 146.205 142.993L190.349 158.422C192.275 159.096 194.382 158.076 195.054 156.146L206.81 122.378C207.482 120.448 206.465 118.337 204.538 117.663Z" fill="#FF5145"/>
<path d="M186.2 133.562L191.928 130.045C192.332 129.798 192.786 129.643 193.257 129.593C193.727 129.542 194.204 129.597 194.651 129.753L202.763 132.593C203.688 132.918 204.447 133.597 204.873 134.481C205.299 135.366 205.358 136.383 205.037 137.311L202.721 143.955C202.396 144.88 201.719 145.638 200.837 146.064C199.956 146.49 198.942 146.549 198.017 146.229L189.682 143.32C189.217 143.157 188.796 142.889 188.452 142.537C188.107 142.184 187.848 141.757 187.696 141.287L185.654 135.038C185.565 134.766 185.57 134.472 185.669 134.204C185.769 133.936 185.956 133.71 186.2 133.562Z" fill="#D54137"/>
<path d="M192.984 139.613C194.506 139.613 195.739 138.377 195.739 136.852C195.739 135.327 194.506 134.091 192.984 134.091C191.462 134.091 190.229 135.327 190.229 136.852C190.229 138.377 191.462 139.613 192.984 139.613Z" fill="#FFCB43"/>
<path d="M169.476 78.0347C167.35 78.0353 165.279 77.3583 163.563 76.1017C161.847 74.845 160.574 73.0739 159.929 71.0445C159.284 69.0151 159.3 66.8327 159.975 64.813C160.65 62.7934 161.949 61.0412 163.683 59.81V19.4449C163.683 17.9067 164.293 16.4316 165.378 15.3439C166.464 14.2563 167.936 13.6453 169.471 13.6453C171.006 13.6453 172.478 14.2563 173.564 15.3439C174.649 16.4316 175.259 17.9067 175.259 19.4449V59.81C176.997 61.0395 178.3 62.7915 178.978 64.8125C179.657 66.8334 179.675 69.0182 179.032 71.0504C178.388 73.0826 177.115 74.8567 175.398 76.1158C173.681 77.3748 171.608 78.0534 169.48 78.0532L169.476 78.0347Z" fill="#FFD974"/>
<path d="M171.513 62.0092C171.535 61.8912 171.547 61.7718 171.55 61.6519V19.4309C171.55 18.8771 171.331 18.3461 170.94 17.9545C170.549 17.563 170.019 17.343 169.466 17.343C168.914 17.343 168.384 17.563 167.993 17.9545C167.602 18.3461 167.383 18.8771 167.383 19.4309V61.6519C167.383 61.7735 167.396 61.8947 167.42 62.0138C166.004 62.4993 164.806 63.4725 164.039 64.7601C163.272 66.0476 162.986 67.5661 163.232 69.0452C163.477 70.5243 164.239 71.8682 165.38 72.8375C166.522 73.8069 167.97 74.3389 169.466 74.3389C170.963 74.3389 172.411 73.8069 173.552 72.8375C174.694 71.8682 175.456 70.5243 175.701 69.0452C175.947 67.5661 175.661 66.0476 174.894 64.7601C174.127 63.4725 172.929 62.4993 171.513 62.0138V62.0092Z" fill="#D54137"/>
<path d="M188.363 21.7739H179.496V24.0938H188.363V21.7739Z" fill="#A6A6A6"/>
<path d="M194.026 26.1306H179.496V28.4505H194.026V26.1306Z" fill="#A6A6A6"/>
<path d="M188.363 30.1626H179.496V32.4824H188.363V30.1626Z" fill="#A6A6A6"/>
<path d="M194.026 34.5146H179.496V36.8345H194.026V34.5146Z" fill="#A6A6A6"/>
<path d="M188.363 38.6206H179.496V40.9404H188.363V38.6206Z" fill="#A6A6A6"/>
<path d="M194.026 42.9727H179.496V45.2925H194.026V42.9727Z" fill="#A6A6A6"/>
<path d="M188.363 47.0093H179.496V49.3291H188.363V47.0093Z" fill="#A6A6A6"/>
<path d="M194.026 51.3611H179.496V53.6809H194.026V51.3611Z" fill="#A6A6A6"/>
<path d="M65.4731 21.7322C65.4731 15.7424 73.8078 0 76.2989 0C78.9521 0 87.1293 15.7424 87.1293 21.7322C87.0707 24.571 85.9042 27.2736 83.8799 29.2604C81.8556 31.2473 79.1349 32.3601 76.3012 32.3601C73.4676 32.3601 70.7468 31.2473 68.7226 29.2604C66.6983 27.2736 65.5317 24.571 65.4731 21.7322Z" fill="#67B7D6"/>
<path d="M95.4642 28.2323C95.4642 24.5948 100.558 15.0325 102.039 15.0325C103.651 15.0325 108.619 24.5948 108.619 28.2323C108.642 29.1126 108.489 29.9885 108.169 30.8086C107.849 31.6286 107.369 32.3761 106.756 33.0069C106.142 33.6377 105.409 34.1391 104.6 34.4815C103.79 34.8238 102.92 35.0002 102.042 35.0002C101.163 35.0002 100.293 34.8238 99.4834 34.4815C98.6738 34.1391 97.9408 33.6377 97.3278 33.0069C96.7147 32.3761 96.2339 31.6286 95.9139 30.8086C95.5938 29.9885 95.4409 29.1126 95.4642 28.2323Z" fill="#67B7D6"/>
<path d="M85.7031 45.659C85.7031 43.0562 89.3287 36.2219 90.4029 36.2219C91.5559 36.2219 95.1074 43.0562 95.1074 45.659C95.069 46.883 94.5568 48.044 93.6792 48.8963C92.8016 49.7485 91.6274 50.2251 90.4053 50.2251C89.1831 50.2251 88.0089 49.7485 87.1313 48.8963C86.2537 48.044 85.7415 46.883 85.7031 45.659Z" fill="#67B7D6"/>
<path d="M26.8374 93.4059C34.5092 93.4059 40.7284 87.1742 40.7284 79.4869C40.7284 71.7996 34.5092 65.5679 26.8374 65.5679C19.1655 65.5679 12.9463 71.7996 12.9463 79.4869C12.9463 87.1742 19.1655 93.4059 26.8374 93.4059Z" fill="#FFCB43"/>
<path d="M31.0788 91.8005H22.6006V96.584H31.0788V91.8005Z" fill="#FFCB43"/>
<path d="M30.4354 100.616H22.8833V105.399H30.4354V100.616Z" fill="#A6A6A6"/>
<path d="M32.5007 95.9392H21.1748V104.36H32.5007V95.9392Z" fill="#A6A6A6"/>
<path d="M7.85308 80.6282H1.15759C0.850577 80.6282 0.55614 80.506 0.33905 80.2885C0.12196 80.0709 0 79.7759 0 79.4683C0 79.1606 0.12196 78.8656 0.33905 78.6481C0.55614 78.4306 0.850577 78.3083 1.15759 78.3083H7.85308C8.16009 78.3083 8.45453 78.4306 8.67162 78.6481C8.88871 78.8656 9.01067 79.1606 9.01067 79.4683C9.01067 79.7759 8.88871 80.0709 8.67162 80.2885C8.45453 80.506 8.16009 80.6282 7.85308 80.6282Z" fill="#FFCB43"/>
<path d="M8.6771 98.8436C8.52528 98.8436 8.37498 98.8133 8.23503 98.7544C8.09508 98.6954 7.9683 98.609 7.86215 98.5002C7.75449 98.3929 7.66906 98.2653 7.61077 98.1247C7.55247 97.9842 7.52246 97.8335 7.52246 97.6813C7.52246 97.5291 7.55247 97.3785 7.61077 97.2379C7.66906 97.0974 7.75449 96.9698 7.86215 96.8624L12.5944 92.116C12.8117 91.8982 13.1065 91.7759 13.4139 91.7759C13.7213 91.7759 14.0162 91.8982 14.2335 92.116C14.4509 92.3338 14.573 92.6292 14.573 92.9373C14.573 93.2453 14.4509 93.5407 14.2335 93.7585L9.49204 98.5002C9.27642 98.7182 8.98338 98.8417 8.6771 98.8436Z" fill="#FFCB43"/>
<path d="M44.9976 98.8436C44.8451 98.8432 44.6942 98.8127 44.5536 98.7538C44.413 98.6949 44.2853 98.6087 44.178 98.5002L39.4458 93.7585C39.2346 93.54 39.1175 93.2472 39.1197 92.943C39.1219 92.6389 39.2432 92.3478 39.4575 92.1324C39.6719 91.917 39.962 91.7946 40.2656 91.7916C40.5691 91.7885 40.8617 91.905 41.0803 92.116L45.8171 96.8671C45.9772 97.0301 46.0858 97.2368 46.1294 97.4614C46.173 97.6859 46.1496 97.9183 46.0622 98.1296C45.9748 98.3409 45.8272 98.5217 45.6379 98.6495C45.4485 98.7773 45.2258 98.8464 44.9976 98.8482V98.8436Z" fill="#FFCB43"/>
<path d="M52.5176 80.6282H45.8221C45.5151 80.6282 45.2207 80.506 45.0036 80.2885C44.7865 80.0709 44.6646 79.7759 44.6646 79.4683C44.6646 79.1606 44.7865 78.8656 45.0036 78.6481C45.2207 78.4306 45.5151 78.3083 45.8221 78.3083H52.5176C52.8246 78.3083 53.1191 78.4306 53.3362 78.6481C53.5533 78.8656 53.6752 79.1606 53.6752 79.4683C53.6752 79.7759 53.5533 80.0709 53.3362 80.2885C53.1191 80.506 52.8246 80.6282 52.5176 80.6282Z" fill="#FFCB43"/>
<path d="M40.2611 67.1964C40.1093 67.1964 39.959 67.1661 39.819 67.1071C39.6791 67.0482 39.5523 66.9618 39.4461 66.853C39.3385 66.7457 39.253 66.6181 39.1947 66.4775C39.1365 66.337 39.1064 66.1863 39.1064 66.0341C39.1064 65.8819 39.1365 65.7312 39.1947 65.5907C39.253 65.4502 39.3385 65.3226 39.4461 65.2152L44.1784 60.4688C44.3957 60.251 44.6905 60.1287 44.9979 60.1287C45.3053 60.1287 45.6001 60.251 45.8175 60.4688C46.0349 60.6866 46.157 60.982 46.157 61.29C46.157 61.5981 46.0349 61.8935 45.8175 62.1113L41.0807 66.853C40.9733 66.9615 40.8457 67.0477 40.705 67.1066C40.5644 67.1655 40.4135 67.196 40.2611 67.1964Z" fill="#FFCB43"/>
<path d="M26.8378 61.6057C26.5308 61.6057 26.2363 61.4835 26.0192 61.266C25.8021 61.0484 25.6802 60.7534 25.6802 60.4458V53.7554C25.6802 53.4477 25.8021 53.1527 26.0192 52.9352C26.2363 52.7177 26.5308 52.5955 26.8378 52.5955C27.1448 52.5955 27.4392 52.7177 27.6563 52.9352C27.8734 53.1527 27.9953 53.4477 27.9953 53.7554V60.4643C27.9905 60.7687 27.8664 61.059 27.6498 61.2726C27.4333 61.4861 27.1416 61.6057 26.8378 61.6057Z" fill="#FFCB43"/>
<path d="M13.4139 67.1964C13.2615 67.196 13.1106 67.1655 12.97 67.1066C12.8293 67.0477 12.7017 66.9615 12.5944 66.853L7.86213 62.1113C7.74444 62.0065 7.64934 61.8787 7.58264 61.7358C7.51593 61.5928 7.47903 61.4378 7.47418 61.2801C7.46934 61.1224 7.49665 60.9653 7.55446 60.8186C7.61226 60.6718 7.69934 60.5384 7.81037 60.4265C7.92139 60.3147 8.05403 60.2266 8.20017 60.1679C8.34631 60.1091 8.50287 60.0809 8.66029 60.0848C8.8177 60.0888 8.97265 60.1249 9.11566 60.1909C9.25867 60.257 9.38673 60.3515 9.49201 60.4689L14.2289 65.2152C14.3889 65.3783 14.4975 65.585 14.5411 65.8095C14.5847 66.0341 14.5613 66.2665 14.4739 66.4778C14.3865 66.6891 14.2389 66.8699 14.0496 66.9977C13.8603 67.1255 13.6376 67.1946 13.4093 67.1964H13.4139Z" fill="#FFCB43"/>
<path d="M109.077 161.359H19.3967C17.9595 161.359 16.7944 162.526 16.7944 163.966V175.5C16.7944 176.94 17.9595 178.108 19.3967 178.108H109.077C110.515 178.108 111.68 176.94 111.68 175.5V163.966C111.68 162.526 110.515 161.359 109.077 161.359Z" fill="#B9B9B9"/>
<path d="M29.5971 159.953H25.1242C23.8941 159.953 22.897 160.952 22.897 162.185V177.277C22.897 178.51 23.8941 179.509 25.1242 179.509H29.5971C30.8271 179.509 31.8243 178.51 31.8243 177.277V162.185C31.8243 160.952 30.8271 159.953 29.5971 159.953Z" fill="#A6A6A6"/>
<path d="M104.062 159.953H99.5895C98.3595 159.953 97.3623 160.952 97.3623 162.185V177.277C97.3623 178.51 98.3595 179.509 99.5895 179.509H104.062C105.292 179.509 106.29 178.51 106.29 177.277V162.185C106.29 160.952 105.292 159.953 104.062 159.953Z" fill="#A6A6A6"/>
<path d="M64.3806 196.722C79.3304 196.722 91.4496 184.579 91.4496 169.599C91.4496 154.619 79.3304 142.475 64.3806 142.475C49.4307 142.475 37.3115 154.619 37.3115 169.599C37.3115 184.579 49.4307 196.722 64.3806 196.722Z" fill="#EDF6FF"/>
<path d="M64.3804 199.274C58.5193 199.274 52.7898 197.533 47.9165 194.27C43.0431 191.007 39.2448 186.369 37.0019 180.944C34.7589 175.518 34.1721 169.547 35.3155 163.787C36.459 158.027 39.2814 152.736 43.4258 148.583C47.5702 144.431 52.8505 141.603 58.599 140.457C64.3475 139.311 70.306 139.899 75.7209 142.147C81.1359 144.394 85.7641 148.2 89.0204 153.083C92.2766 157.966 94.0146 163.707 94.0146 169.58C94.0146 177.455 90.8925 185.008 85.335 190.577C79.7775 196.146 72.2399 199.274 64.3804 199.274ZM64.3804 145.027C59.5266 145.027 54.7819 146.469 50.7462 149.171C46.7105 151.873 43.565 155.714 41.7076 160.207C39.8501 164.7 39.3641 169.645 40.311 174.415C41.258 179.185 43.5952 183.566 47.0274 187.005C50.4595 190.444 54.8322 192.786 59.5927 193.735C64.3531 194.684 69.2875 194.197 73.7718 192.336C78.256 190.475 82.0888 187.323 84.7854 183.279C87.482 179.235 88.9212 174.481 88.9212 169.617C88.9212 163.096 86.3357 156.841 81.7334 152.229C77.1311 147.618 70.889 145.027 64.3804 145.027Z" fill="#A6A6A6"/>
<path d="M75.1089 156.074H54.263C53.6135 156.074 53.0869 156.602 53.0869 157.252V157.893C53.0869 158.544 53.6135 159.071 54.263 159.071H75.1089C75.7584 159.071 76.285 158.544 76.285 157.893V157.252C76.285 156.602 75.7584 156.074 75.1089 156.074Z" fill="#BECEDC"/>
<path d="M80.267 171.422H48.7806C48.1311 171.422 47.6045 171.95 47.6045 172.601V173.241C47.6045 173.892 48.1311 174.419 48.7806 174.419H80.267C80.9166 174.419 81.4431 173.892 81.4431 173.241V172.601C81.4431 171.95 80.9166 171.422 80.267 171.422Z" fill="#BECEDC"/>
<path d="M80.267 176.609H48.7806C48.1311 176.609 47.6045 177.137 47.6045 177.788V178.428C47.6045 179.079 48.1311 179.606 48.7806 179.606H80.267C80.9166 179.606 81.4431 179.079 81.4431 178.428V177.788C81.4431 177.137 80.9166 176.609 80.267 176.609Z" fill="#BECEDC"/>
<path d="M67.5845 182.033H48.7806C48.1311 182.033 47.6045 182.561 47.6045 183.211V183.852C47.6045 184.503 48.1311 185.03 48.7806 185.03H67.5845C68.234 185.03 68.7606 184.503 68.7606 183.852V183.211C68.7606 182.561 68.234 182.033 67.5845 182.033Z" fill="#BECEDC"/>
<path d="M75.6693 187.225C77.219 187.225 78.4753 185.966 78.4753 184.413C78.4753 182.86 77.219 181.602 75.6693 181.602C74.1196 181.602 72.8633 182.86 72.8633 184.413C72.8633 185.966 74.1196 187.225 75.6693 187.225Z" fill="#FF5145"/>
<path d="M53.3693 160.69H48.5491C48.0274 160.69 47.6045 161.114 47.6045 161.637V168.522C47.6045 169.045 48.0274 169.469 48.5491 169.469H53.3693C53.891 169.469 54.3139 169.045 54.3139 168.522V161.637C54.3139 161.114 53.891 160.69 53.3693 160.69Z" fill="white"/>
<path d="M53.2676 165.103C53.2735 165.602 53.2301 166.101 53.1379 166.592C53.0715 166.983 52.9351 167.359 52.7351 167.701C52.5627 167.995 52.3128 168.236 52.0127 168.397C51.6775 168.567 51.3049 168.65 50.9292 168.638C50.4562 168.659 49.9915 168.509 49.6189 168.216C49.2501 167.897 48.9842 167.476 48.8548 167.005C48.6744 166.388 48.5885 165.746 48.6002 165.103C48.5962 164.465 48.6803 163.829 48.8502 163.215C48.9668 162.744 49.2236 162.32 49.5864 161.999C49.9771 161.703 50.4587 161.554 50.9478 161.577C51.4235 161.558 51.8908 161.707 52.2674 161.999C52.632 162.321 52.8931 162.744 53.0175 163.215C53.1946 163.828 53.2789 164.464 53.2676 165.103ZM49.7207 165.103C49.7121 165.59 49.7509 166.076 49.8365 166.555C49.8813 166.875 50.0126 167.177 50.2162 167.427C50.409 167.611 50.6652 167.714 50.9316 167.714C51.1979 167.714 51.4541 167.611 51.6469 167.427C51.8512 167.178 51.984 166.878 52.0313 166.56C52.1168 166.079 52.1556 165.591 52.147 165.103C52.1557 164.618 52.117 164.133 52.0313 163.655C51.9819 163.334 51.8494 163.032 51.6469 162.778C51.5555 162.681 51.444 162.604 51.3201 162.553C51.1962 162.503 51.0628 162.48 50.9292 162.486C50.7964 162.481 50.664 162.504 50.5409 162.554C50.4179 162.605 50.3071 162.681 50.2162 162.778C50.0127 163.031 49.8814 163.334 49.8365 163.655C49.7508 164.133 49.712 164.618 49.7207 165.103Z" fill="#B2C0CD"/>
<path d="M60.3751 160.69H55.5549C55.0333 160.69 54.6104 161.114 54.6104 161.637V168.522C54.6104 169.045 55.0333 169.469 55.5549 169.469H60.3751C60.8968 169.469 61.3197 169.045 61.3197 168.522V161.637C61.3197 161.114 60.8968 160.69 60.3751 160.69Z" fill="white"/>
<path d="M60.2732 165.103C60.2791 165.602 60.2357 166.101 60.1435 166.592C60.0751 166.983 59.9387 167.358 59.7407 167.701C59.5671 167.996 59.3155 168.237 59.0137 168.397C58.6801 168.567 58.309 168.65 57.9349 168.638C57.4618 168.659 56.9971 168.509 56.6245 168.216C56.2557 167.896 55.9885 167.475 55.8558 167.005C55.6771 166.387 55.5928 165.746 55.6058 165.103C55.5951 164.46 55.6714 163.818 55.8327 163.196C55.9508 162.725 56.2092 162.301 56.5735 161.98C56.9642 161.685 57.4458 161.535 57.9349 161.558C58.4106 161.539 58.8779 161.688 59.2545 161.98C59.6237 162.3 59.891 162.721 60.0232 163.191C60.2025 163.812 60.2868 164.457 60.2732 165.103ZM56.7263 165.103C56.7188 165.589 56.7561 166.075 56.8375 166.555C56.8857 166.875 57.0184 167.176 57.2218 167.427C57.4133 167.612 57.6689 167.715 57.9349 167.715C58.2008 167.715 58.4564 167.612 58.6479 167.427C58.8558 167.181 58.9891 166.88 59.0323 166.56C59.1196 166.079 59.1599 165.591 59.1527 165.103C59.1602 164.625 59.1214 164.148 59.0369 163.679C58.992 163.357 58.8607 163.054 58.6572 162.802C58.5657 162.704 58.4542 162.627 58.3303 162.577C58.2064 162.526 58.0731 162.503 57.9395 162.509C57.8067 162.504 57.6742 162.527 57.5512 162.578C57.4281 162.628 57.3174 162.704 57.2264 162.802C57.0212 163.054 56.8884 163.357 56.8421 163.679C56.7588 164.149 56.7185 164.625 56.7217 165.103H56.7263Z" fill="#B2C0CD"/>
<path d="M67.3532 160.69H62.533C62.0113 160.69 61.5884 161.114 61.5884 161.637V168.522C61.5884 169.045 62.0113 169.469 62.533 169.469H67.3532C67.8749 169.469 68.2978 169.045 68.2978 168.522V161.637C68.2978 161.114 67.8749 160.69 67.3532 160.69Z" fill="white"/>
<path d="M65.853 168.545H64.7417V164.142C64.7417 163.994 64.7417 163.845 64.7417 163.678C64.7417 163.511 64.7417 163.391 64.7417 163.247C64.7417 163.103 64.7417 162.973 64.7417 162.848C64.6676 162.93 64.5887 163.007 64.5056 163.08C64.413 163.163 64.3111 163.252 64.2 163.34L63.4175 163.975L62.8618 163.27L64.8992 161.669H65.8252L65.853 168.545Z" fill="#FF5145"/>
<path d="M74.3356 160.69H69.5154C68.9937 160.69 68.5708 161.114 68.5708 161.637V168.522C68.5708 169.045 68.9937 169.469 69.5154 169.469H74.3356C74.8573 169.469 75.2802 169.045 75.2802 168.522V161.637C75.2802 161.114 74.8573 160.69 74.3356 160.69Z" fill="white"/>
<path d="M74.4837 167.033H73.5576V168.545H72.4648V167.033H69.3394V166.198L72.4787 161.646H73.5576V166.119H74.4837V167.033ZM72.4648 166.105V164.398C72.4648 164.254 72.4648 164.11 72.4648 163.966V163.549C72.4648 163.409 72.4648 163.284 72.4648 163.173C72.4648 163.061 72.4648 162.964 72.4648 162.885C72.4062 163.015 72.3414 163.145 72.2704 163.275C72.2014 163.403 72.1241 163.527 72.0389 163.646L70.3534 166.105H72.4648Z" fill="#FF5145"/>
<path d="M81.3185 160.69H76.4983C75.9766 160.69 75.5537 161.114 75.5537 161.637V168.522C75.5537 169.045 75.9766 169.469 76.4983 169.469H81.3185C81.8402 169.469 82.2631 169.045 82.2631 168.522V161.637C82.2631 161.114 81.8402 160.69 81.3185 160.69Z" fill="white"/>
<path d="M81.2165 168.545H76.563V167.71L78.3457 165.905C78.6883 165.553 78.9708 165.251 79.193 164.977C79.3904 164.757 79.5585 164.512 79.6931 164.249C79.8016 164.015 79.8569 163.76 79.8552 163.502C79.8667 163.363 79.8469 163.224 79.7972 163.093C79.7475 162.963 79.6692 162.846 79.5681 162.75C79.3582 162.572 79.0882 162.481 78.8133 162.495C78.5291 162.493 78.2477 162.553 77.9891 162.672C77.7088 162.806 77.446 162.974 77.2066 163.173L76.6 162.44C76.7921 162.277 76.9965 162.13 77.2112 161.999C77.4377 161.857 77.6822 161.746 77.9382 161.669C78.2397 161.586 78.5515 161.545 78.8643 161.549C79.2535 161.54 79.6397 161.619 79.9941 161.781C80.2931 161.924 80.5453 162.149 80.721 162.43C80.8953 162.721 80.9836 163.056 80.9757 163.395C80.9811 163.749 80.9067 164.1 80.7581 164.421C80.5932 164.758 80.3811 165.071 80.1284 165.349C79.8552 165.66 79.531 165.989 79.156 166.346L77.966 167.506V167.557H81.2072L81.2165 168.545Z" fill="#FF5145"/>
</g>
<defs>
<clipPath id="clip0_799_3133">
<rect width="207" height="201" fill="white"/>
</clipPath>
</defs>
</svg>
