<svg width="132" height="125" viewBox="0 0 132 125" fill="none" xmlns="http://www.w3.org/2000/svg">
<rect x="22" width="73" height="100" rx="4" fill="#EDF6FF"/>
<rect x="41" y="12" width="31" height="2" rx="1" fill="#B0C2D2"/>
<rect x="41" y="27" width="31" height="2" rx="1" fill="#B0C2D2"/>
<rect x="41" y="42" width="31" height="2" rx="1" fill="#B0C2D2"/>
<rect x="41" y="57" width="31" height="2" rx="1" fill="#B0C2D2"/>
<rect x="41" y="72" width="31" height="2" rx="1" fill="#B0C2D2"/>
<rect x="41" y="87" width="31" height="2" rx="1" fill="#B0C2D2"/>
<path d="M32.8848 14.752H33.834C34.0957 14.752 34.2852 14.8008 34.4023 14.8984C34.5195 14.9961 34.5781 15.1562 34.5781 15.3789C34.5781 15.5977 34.5215 15.7559 34.4082 15.8535C34.2949 15.9512 34.1035 16 33.834 16H30.377C30.1074 16 29.916 15.9512 29.8027 15.8535C29.6895 15.7559 29.6328 15.5977 29.6328 15.3789C29.6328 15.1562 29.6895 14.9961 29.8027 14.8984C29.9199 14.8008 30.1113 14.752 30.377 14.752H31.4668V9.80664L30.8105 9.97656C30.709 10 30.625 10.0176 30.5586 10.0293C30.4922 10.041 30.4434 10.0469 30.4121 10.0469C30.252 10.0469 30.127 9.99609 30.0371 9.89453C29.9512 9.79297 29.9082 9.64844 29.9082 9.46094C29.9082 9.32422 29.957 9.20898 30.0547 9.11523C30.1523 9.02148 30.3027 8.94922 30.5059 8.89844L31.959 8.5C32.0801 8.46875 32.1797 8.44531 32.2578 8.42969C32.3359 8.41406 32.4004 8.40625 32.4512 8.40625C32.6074 8.40625 32.7188 8.44922 32.7852 8.53516C32.8516 8.62109 32.8848 8.76562 32.8848 8.96875V14.752Z" fill="#ACBACA"/>
<path d="M31.2148 29.6816H33.2656V29.6465C33.2656 29.4473 33.3184 29.2988 33.4238 29.2012C33.5332 29.1035 33.6934 29.0547 33.9043 29.0547C34.0762 29.0547 34.209 29.1035 34.3027 29.2012C34.3965 29.2949 34.4434 29.4297 34.4434 29.6055V29.6816L34.3965 30.5898C34.3887 30.7695 34.3594 30.8828 34.3086 30.9297C34.2617 30.9766 34.1758 31 34.0508 31H29.8379C29.6113 31 29.4355 30.9512 29.3105 30.8535C29.1895 30.7559 29.1289 30.6172 29.1289 30.4375C29.1289 30.2891 29.166 30.1445 29.2402 30.0039C29.3184 29.8594 29.4414 29.707 29.6094 29.5469L31.9941 27.2441C32.252 26.9941 32.4434 26.7441 32.5684 26.4941C32.6973 26.2441 32.7617 25.9941 32.7617 25.7441C32.7617 25.3926 32.6758 25.1309 32.5039 24.959C32.3359 24.7871 32.0781 24.7012 31.7305 24.7012C31.5273 24.7012 31.3457 24.7324 31.1855 24.7949C31.0293 24.8535 30.9082 24.9375 30.8223 25.0469C30.7754 25.1016 30.7188 25.1855 30.6523 25.2988C30.4648 25.6035 30.2578 25.7559 30.0312 25.7559C29.8359 25.7559 29.6875 25.6914 29.5859 25.5625C29.4883 25.4336 29.4395 25.2422 29.4395 24.9883C29.4395 24.7266 29.4707 24.5312 29.5332 24.4023C29.5957 24.2734 29.7207 24.1445 29.9082 24.0156C30.2129 23.8125 30.5332 23.6621 30.8691 23.5645C31.209 23.4668 31.5762 23.418 31.9707 23.418C32.709 23.418 33.293 23.6172 33.7227 24.0156C34.1562 24.4141 34.373 24.9492 34.373 25.6211C34.373 26.0703 34.2598 26.502 34.0332 26.916C33.8105 27.3262 33.4629 27.7363 32.9902 28.1465L31.2148 29.6816Z" fill="#ACBACA"/>
<path d="M33.0664 41.9805C33.5156 42.1211 33.8496 42.3438 34.0684 42.6484C34.2871 42.9492 34.3965 43.3418 34.3965 43.8262C34.3965 44.5566 34.1484 45.1367 33.6523 45.5664C33.1602 45.9922 32.4883 46.2051 31.6367 46.2051C30.9492 46.2051 30.3809 46.0918 29.9316 45.8652C29.4824 45.6387 29.2578 45.3633 29.2578 45.0391C29.2578 44.8477 29.3184 44.6934 29.4395 44.5762C29.5645 44.4551 29.7285 44.3945 29.9316 44.3945C30.0293 44.3945 30.2773 44.4824 30.6758 44.6582C31.0742 44.834 31.4258 44.9219 31.7305 44.9219C32.0977 44.9219 32.3789 44.8242 32.5742 44.6289C32.7734 44.4297 32.873 44.1465 32.873 43.7793C32.873 43.3848 32.7891 43.1035 32.6211 42.9355C32.457 42.7676 32.1406 42.6738 31.6719 42.6543C31.4258 42.6465 31.2598 42.5996 31.1738 42.5137C31.0918 42.4238 31.0508 42.2656 31.0508 42.0391C31.0508 41.7266 31.2188 41.5469 31.5547 41.5C31.6016 41.4961 31.6367 41.4922 31.6602 41.4883C32.082 41.4297 32.3555 41.3301 32.4805 41.1895C32.6055 41.0449 32.668 40.8125 32.668 40.4922C32.668 40.2148 32.5918 40 32.4395 39.8477C32.291 39.6914 32.0801 39.6133 31.8066 39.6133C31.5176 39.6133 31.1934 39.7051 30.834 39.8887C30.4746 40.0684 30.2266 40.1582 30.0898 40.1582C29.9375 40.1582 29.8145 40.1094 29.7207 40.0117C29.6309 39.9102 29.5859 39.7832 29.5859 39.6309C29.5859 39.2988 29.8164 39.0137 30.2773 38.7754C30.7383 38.5371 31.3066 38.418 31.9824 38.418C32.6621 38.418 33.2031 38.5938 33.6055 38.9453C34.0117 39.2969 34.2148 39.7637 34.2148 40.3457C34.2148 40.7285 34.1211 41.0527 33.9336 41.3184C33.75 41.5801 33.4609 41.8008 33.0664 41.9805Z" fill="#ACBACA"/>
<path d="M33.5586 58.0703C33.5703 58.0742 33.582 58.0781 33.5938 58.082C33.6055 58.082 33.625 58.082 33.6523 58.082C33.7305 58.082 33.8203 58.0332 33.9219 57.9355C34.0234 57.834 34.1094 57.7832 34.1797 57.7832C34.3438 57.7832 34.4727 57.8242 34.5664 57.9062C34.6602 57.9844 34.707 58.0957 34.707 58.2402C34.707 58.2793 34.7031 58.3203 34.6953 58.3633C34.6914 58.4062 34.6836 58.4453 34.6719 58.4805L34.543 58.9141C34.5195 58.9961 34.4805 59.0566 34.4258 59.0957C34.3711 59.1348 34.3008 59.1543 34.2148 59.1543H33.5586V59.8867H33.9043C33.9395 59.8867 33.9844 59.8887 34.0391 59.8926C34.0938 59.8965 34.1289 59.8984 34.1445 59.8984C34.2852 59.8984 34.4043 59.9512 34.502 60.0566C34.5996 60.1582 34.6484 60.2891 34.6484 60.4492C34.6484 60.6445 34.5898 60.7852 34.4727 60.8711C34.3594 60.957 34.1699 61 33.9043 61H31.4316C31.166 61 30.9766 60.957 30.8633 60.8711C30.7539 60.7852 30.6992 60.6445 30.6992 60.4492C30.6992 60.25 30.7559 60.1074 30.8691 60.0215C30.9824 59.9316 31.1699 59.8867 31.4316 59.8867H32.2871V59.1543H29.5859C29.4844 59.1543 29.4062 59.123 29.3516 59.0605C29.3008 58.998 29.2754 58.9082 29.2754 58.791V58.4336C29.2754 58.2891 29.2852 58.1777 29.3047 58.0996C29.3281 58.0176 29.3652 57.9316 29.416 57.8418L31.877 53.6582C31.9355 53.5605 31.9824 53.5 32.0176 53.4766C32.0566 53.4531 32.1094 53.4414 32.1758 53.4414C32.2109 53.4414 32.2402 53.4434 32.2637 53.4473C32.291 53.4473 32.3145 53.4492 32.334 53.4531L33.377 53.6348C33.4355 53.6465 33.4805 53.6777 33.5117 53.7285C33.543 53.7793 33.5586 53.8477 33.5586 53.9336V58.0703ZM32.2871 54.8301L30.4473 58.0703H32.2871V54.8301Z" fill="#ACBACA"/>
<path d="M30.9277 69.918V71.2715C31.1816 71.1973 31.4121 71.1426 31.6191 71.1074C31.8262 71.0723 32.0195 71.0547 32.1992 71.0547C32.9023 71.0547 33.4707 71.2871 33.9043 71.752C34.3379 72.2129 34.5547 72.8203 34.5547 73.5742C34.5547 74.4258 34.2891 75.0762 33.7578 75.5254C33.2266 75.9707 32.4551 76.1934 31.4434 76.1934C30.7168 76.1934 30.1641 76.1133 29.7852 75.9531C29.4102 75.793 29.2227 75.5566 29.2227 75.2441C29.2227 75.0566 29.2891 74.8965 29.4219 74.7637C29.5547 74.627 29.7129 74.5586 29.8965 74.5586C30.0098 74.5586 30.2539 74.6152 30.6289 74.7285C31.0078 74.8418 31.332 74.8984 31.6016 74.8984C32.043 74.8984 32.3848 74.7852 32.627 74.5586C32.8691 74.3281 32.9902 74.0039 32.9902 73.5859C32.9902 73.1797 32.875 72.8574 32.6445 72.6191C32.418 72.377 32.1094 72.2559 31.7188 72.2559C31.4688 72.2559 31.1719 72.3359 30.8281 72.4961C30.4844 72.6562 30.25 72.7363 30.125 72.7363C29.9023 72.7363 29.7441 72.6758 29.6504 72.5547C29.5566 72.4297 29.5098 72.2188 29.5098 71.9219V69.0859C29.5098 68.875 29.5371 68.7422 29.5918 68.6875C29.6504 68.6328 29.748 68.6055 29.8848 68.6055H33.7227C33.9648 68.6055 34.1328 68.6543 34.2266 68.752C34.3242 68.8457 34.373 69.0176 34.373 69.2676C34.373 69.5137 34.3262 69.6836 34.2324 69.7773C34.1387 69.8711 33.9688 69.918 33.7227 69.918H30.9277Z" fill="#ACBACA"/>
<path d="M33.1484 88.7793C33.1484 88.3965 33.043 88.084 32.832 87.8418C32.6211 87.5957 32.3496 87.4727 32.0176 87.4727C31.6973 87.4727 31.4297 87.5918 31.2148 87.8301C31 88.0645 30.8926 88.3613 30.8926 88.7207C30.8926 89.1074 31.002 89.4238 31.2207 89.6699C31.4434 89.916 31.7266 90.0391 32.0703 90.0391C32.3867 90.0391 32.6445 89.9238 32.8438 89.6934C33.0469 89.459 33.1484 89.1543 33.1484 88.7793ZM30.8691 86.8574C31.0605 86.6426 31.2891 86.4785 31.5547 86.3652C31.8203 86.248 32.1035 86.1895 32.4043 86.1895C33.0332 86.1895 33.5625 86.4297 33.9922 86.9102C34.4219 87.3867 34.6367 87.9785 34.6367 88.6855C34.6367 89.4316 34.3945 90.0352 33.9102 90.4961C33.4297 90.9531 32.791 91.1816 31.9941 91.1816C31.166 91.1816 30.5137 90.8809 30.0371 90.2793C29.5605 89.6738 29.3223 88.8418 29.3223 87.7832C29.3223 86.4707 29.6895 85.416 30.4238 84.6191C31.1621 83.8184 32.1387 83.418 33.3535 83.418C33.7598 83.418 34.0508 83.4512 34.2266 83.5176C34.4023 83.584 34.4902 83.6934 34.4902 83.8457C34.4902 84.2012 34.2148 84.3945 33.6641 84.4258C33.4336 84.4414 33.25 84.457 33.1133 84.4727C32.5039 84.5391 32.0176 84.7637 31.6543 85.1465C31.2949 85.5293 31.0332 86.0996 30.8691 86.8574Z" fill="#ACBACA"/>
<path d="M78.6364 13.0001L82.0454 16.4092L88.8182 9.63647" stroke="#9AC455" stroke-width="3" stroke-linecap="round" stroke-linejoin="round"/>
<path d="M112.364 75.9091V76.7066C108.021 72.8194 102.287 70.4546 96 70.4546C89.7129 70.4546 83.979 72.8194 79.6364 76.7066V75.9091C73.2955 82.2498 57.4435 94.9316 60.6139 107.613C62.6837 115.893 70.1591 116.063 75.0993 113.419C77.2822 120.002 79.6364 125 79.6364 125C79.6364 125 95.0782 125 96 125C97.9959 125 112.364 125 112.364 125C112.364 125 114.633 119.885 116.781 113.355C121.719 116.066 129.299 115.96 131.386 107.613C134.556 94.9316 118.705 82.2498 112.364 75.9091Z" fill="#804C09"/>
<circle cx="75.5455" cy="44.5455" r="9.54545" fill="#402604"/>
<circle cx="75.5455" cy="44.5455" r="4.09091" fill="#FF9811"/>
<circle cx="116.455" cy="44.5455" r="9.54545" fill="#804C09"/>
<circle cx="116.455" cy="44.5455" r="4.09091" fill="#FF9811"/>
<path d="M79.6364 76.7066V75.9091C73.2955 82.2498 57.4435 94.9316 60.6139 107.613C62.6837 115.893 70.1591 116.063 75.0993 113.419C77.2822 120.002 79.6364 125 79.6364 125C79.6364 125 95.0782 125 96 125C96 125 96 93.3637 96 70.4546C89.7129 70.4546 83.979 72.8194 79.6364 76.7066Z" fill="#402604"/>
<ellipse cx="96" cy="62.2728" rx="25.9091" ry="24.5455" fill="#BE720D"/>
<path d="M96 86.8182C81.6906 86.8182 70.0909 75.8289 70.0909 62.2727C70.0909 48.7166 81.6906 37.7273 96 37.7273" fill="#804C09"/>
<circle cx="85.091" cy="62.2728" r="2.04545" fill="#003638"/>
<circle cx="106.909" cy="62.2728" r="2.04545" fill="#003638"/>
<ellipse cx="79.6364" cy="112.727" rx="10.9091" ry="12.2727" fill="#804C09"/>
<circle cx="79.466" cy="116.136" r="4.77273" fill="#FF9811"/>
<ellipse cx="112.364" cy="112.727" rx="10.9091" ry="12.2727" fill="#BE720D"/>
<circle cx="112.534" cy="116.136" r="4.77273" fill="#FF9811"/>
<ellipse cx="96" cy="75.9091" rx="16.3636" ry="10.9091" fill="#FFC170"/>
<path d="M96 86.8182C86.9626 86.8182 79.6364 81.9342 79.6364 75.9091C79.6364 69.884 86.9626 65 96 65" fill="#FF9811"/>
<path d="M101.455 73.1819C101.455 75.5917 99.0126 78.6364 96.0001 78.6364C92.9875 78.6364 90.5455 75.5917 90.5455 73.1819C90.5455 70.772 92.9875 70.4546 96.0001 70.4546C99.0126 70.4546 101.455 70.772 101.455 73.1819Z" fill="#003638"/>
<rect x="15" y="67" width="29" height="29" rx="4" fill="#FF5145"/>
<rect y="96" width="29" height="29" rx="4" fill="#FFCC75"/>
<rect x="29" y="96" width="29" height="29" rx="4" fill="#9AC455"/>
<circle cx="43.5" cy="110.5" r="6.5" fill="white"/>
<rect x="9" y="105" width="11" height="11" fill="white"/>
<path fill-rule="evenodd" clip-rule="evenodd" d="M29.5 76L36 87H23L29.5 76Z" fill="white"/>
</svg>
