<svg width="210" height="105" viewBox="0 0 210 105" fill="none" xmlns="http://www.w3.org/2000/svg">
<g clip-path="url(#clip0_109_2552)">
<path d="M164.025 15.7075H37.2351C32.3001 15.7075 28.2996 19.7247 28.2996 24.68V92.2178C28.2996 97.1732 32.3001 101.19 37.2351 101.19H164.025C168.96 101.19 172.96 97.1732 172.96 92.2178V24.68C172.96 19.7247 168.96 15.7075 164.025 15.7075Z" fill="#EDF6FF"/>
<path d="M112.104 54.8833H42.4674C40.683 54.8833 39.2363 56.3349 39.2363 58.1255C39.2363 59.9162 40.683 61.3678 42.4674 61.3678H112.104C113.889 61.3678 115.336 59.9162 115.336 58.1255C115.336 56.3349 113.889 54.8833 112.104 54.8833Z" fill="#BECEDC"/>
<path d="M210.009 64.0928C210.009 66.8671 209.465 69.6142 208.408 72.1773C207.35 74.7404 205.801 77.0693 203.847 79.031C201.894 80.9927 199.574 82.5488 197.022 83.6105C194.469 84.6721 191.733 85.2186 188.971 85.2186H170.251V0.00463867C172.633 0.00673365 174.982 0.568134 177.11 1.64401C179.237 2.71989 181.085 4.28044 182.505 6.20103C183.926 8.12163 184.879 10.3491 185.289 12.7055C185.699 15.0619 185.555 17.4819 184.868 19.7724C187.285 20.5137 189.518 21.761 191.42 23.4321C193.321 25.1032 194.849 27.1601 195.901 29.4672C196.953 31.7742 197.507 34.2791 197.525 36.8166C197.542 39.3541 197.024 41.8665 196.005 44.1883C200.1 45.6485 203.644 48.3456 206.152 51.9095C208.659 55.4734 210.007 59.7292 210.009 64.0928Z" fill="#81A713"/>
<path d="M154.985 15.334C154.984 16.8185 155.198 18.2952 155.62 19.7178C153.176 20.4394 150.914 21.6773 148.986 23.3485C147.057 25.0198 145.507 27.0856 144.439 29.4077C143.37 31.7298 142.809 34.2543 142.791 36.8122C142.774 39.37 143.302 41.902 144.338 44.2384C139.693 45.9406 135.794 49.231 133.323 53.5322C130.853 57.8334 129.97 62.8707 130.83 67.7604C131.689 72.6501 134.235 77.0797 138.023 80.2721C141.81 83.4645 146.596 85.2157 151.54 85.2186H170.251V0.00463867C166.202 0.00584659 162.32 1.62129 159.457 4.49585C156.595 7.3704 154.986 11.2688 154.985 15.334Z" fill="#A8D32A"/>
<path d="M170.437 100.489C169.655 100.489 168.904 100.177 168.351 99.6211C167.798 99.0656 167.487 98.3122 167.487 97.5266V65.4051C167.487 64.6195 167.798 63.8661 168.351 63.3107C168.904 62.7552 169.655 62.4431 170.437 62.4431C171.219 62.4431 171.97 62.7552 172.523 63.3107C173.076 63.8661 173.387 64.6195 173.387 65.4051V97.5266C173.387 98.3122 173.076 99.0656 172.523 99.6211C171.97 100.177 171.219 100.489 170.437 100.489Z" fill="#725D57"/>
<path d="M158.52 64.1248L170.437 70.951" stroke="#725D57" stroke-width="13" stroke-miterlimit="10" stroke-linecap="round"/>
<path d="M112.104 69.324H42.4674C40.683 69.324 39.2363 70.7756 39.2363 72.5662C39.2363 74.3568 40.683 75.8084 42.4674 75.8084H112.104C113.889 75.8084 115.336 74.3568 115.336 72.5662C115.336 70.7756 113.889 69.324 112.104 69.324Z" fill="#BECEDC"/>
<path d="M112.104 83.7649H42.4674C40.683 83.7649 39.2363 85.2165 39.2363 87.0071C39.2363 88.7977 40.683 90.2493 42.4674 90.2493H112.104C113.889 90.2493 115.336 88.7977 115.336 87.0071C115.336 85.2165 113.889 83.7649 112.104 83.7649Z" fill="#BECEDC"/>
<path d="M185.435 64.0928C185.435 66.8671 184.891 69.6142 183.834 72.1773C182.777 74.7404 181.227 77.0693 179.273 79.031C177.32 80.9927 175 82.5488 172.448 83.6105C169.895 84.6721 167.16 85.2186 164.397 85.2186H145.686V0.00463867C148.069 0.00673365 150.417 0.568134 152.545 1.64401C154.673 2.71989 156.52 4.28044 157.941 6.20103C159.361 8.12163 160.314 10.3491 160.724 12.7055C161.135 15.0619 160.99 17.4819 160.303 19.7724C162.719 20.5143 164.951 21.7619 166.852 23.4328C168.753 25.1038 170.279 27.1603 171.331 29.4668C172.383 31.7732 172.936 34.2773 172.954 36.814C172.972 39.3507 172.454 41.8625 171.435 44.1837C175.53 45.6449 179.074 48.3431 181.581 51.9078C184.088 55.4725 185.434 59.729 185.435 64.0928Z" fill="#93BF00"/>
<path d="M130.42 15.334C130.419 16.8185 130.633 18.2952 131.055 19.7178C128.612 20.4394 126.35 21.6773 124.421 23.3485C122.493 25.0198 120.942 27.0856 119.874 29.4077C118.806 31.7298 118.244 34.2543 118.227 36.8122C118.209 39.37 118.737 41.902 119.774 44.2384C115.13 45.9402 111.231 49.2294 108.76 53.5292C106.29 57.829 105.406 62.8649 106.264 67.7537C107.121 72.6425 109.665 77.072 113.45 80.2655C117.235 83.459 122.019 85.2125 126.962 85.2186H145.673V0.00463867C141.627 0.00946806 137.748 1.62651 134.888 4.50067C132.028 7.37484 130.421 11.2712 130.42 15.334Z" fill="#B9DD39"/>
<path d="M53.6175 25.8923H42.3086C40.6118 25.8923 39.2363 27.2735 39.2363 28.9774V40.3331C39.2363 42.0369 40.6118 43.4182 42.3086 43.4182H53.6175C55.3143 43.4182 56.6898 42.0369 56.6898 40.3331V28.9774C56.6898 27.2735 55.3143 25.8923 53.6175 25.8923Z" fill="#BECEDC"/>
<path d="M145.872 100.489C145.09 100.489 144.34 100.177 143.787 99.6212C143.233 99.0657 142.923 98.3123 142.923 97.5267V33.2745C142.923 32.4889 143.233 31.7355 143.787 31.18C144.34 30.6246 145.09 30.3125 145.872 30.3125C146.655 30.3125 147.405 30.6246 147.958 31.18C148.511 31.7355 148.822 32.4889 148.822 33.2745V97.5267C148.822 98.3123 148.511 99.0657 147.958 99.6212C147.405 100.177 146.655 100.489 145.872 100.489Z" fill="#725D57"/>
<path d="M145.868 73.9128C145.356 73.9124 144.854 73.7773 144.411 73.5209L132.494 66.6856C132.15 66.4971 131.846 66.2415 131.602 65.9339C131.357 65.6263 131.176 65.2727 131.068 64.8939C130.961 64.5152 130.931 64.1187 130.978 63.7278C131.025 63.337 131.15 62.9595 131.344 62.6174C131.538 62.2754 131.798 61.9757 132.109 61.7359C132.42 61.4961 132.776 61.3209 133.155 61.2206C133.534 61.1204 133.93 61.0971 134.318 61.1521C134.706 61.207 135.08 61.3392 135.417 61.5408L147.334 68.3762C147.9 68.6997 148.344 69.2024 148.596 69.8058C148.848 70.4093 148.893 71.0795 148.726 71.7118C148.558 72.3442 148.187 72.9031 147.67 73.3012C147.153 73.6994 146.519 73.9145 145.868 73.9128Z" fill="#725D57"/>
<path d="M145.872 61.8552C145.219 61.8564 144.584 61.64 144.067 61.2398C143.55 60.8397 143.179 60.2785 143.014 59.6442C142.848 59.01 142.897 58.3384 143.152 57.7349C143.407 57.1314 143.855 56.6301 144.425 56.3095L156.151 49.6746C156.489 49.4696 156.865 49.3349 157.255 49.2783C157.646 49.2218 158.044 49.2446 158.426 49.3454C158.808 49.4462 159.166 49.623 159.478 49.8653C159.791 50.1075 160.052 50.4103 160.246 50.7557C160.44 51.1011 160.563 51.4821 160.607 51.876C160.652 52.27 160.617 52.6689 160.505 53.0491C160.393 53.4294 160.206 53.7832 159.956 54.0896C159.705 54.396 159.396 54.6488 159.046 54.833L147.32 61.4724C146.878 61.7233 146.38 61.8551 145.872 61.8552Z" fill="#725D57"/>
<path d="M145.868 49.5153C145.38 49.5155 144.899 49.3933 144.47 49.1599L132.558 42.7119C131.869 42.3396 131.355 41.7078 131.13 40.9553C130.905 40.2028 130.987 39.3914 131.357 38.6995C131.728 38.0076 132.357 37.4919 133.107 37.2659C133.856 37.0398 134.664 37.122 135.353 37.4942L147.27 43.9468C147.848 44.26 148.305 44.7579 148.569 45.3615C148.834 45.9652 148.89 46.6402 148.729 47.2794C148.568 47.9187 148.199 48.4858 147.681 48.8908C147.162 49.2958 146.524 49.5156 145.868 49.5153Z" fill="#725D57"/>
<path d="M48.9387 103.642L7.06126 61.5863L0 46.5486L15.3932 53.2153L57.2616 95.2618C58.1223 96.1295 58.6056 97.3044 58.6056 98.5291C58.6056 99.7538 58.1223 100.929 57.2616 101.796L55.469 103.619C54.6058 104.491 53.4331 104.983 52.2086 104.988C50.9841 104.992 49.808 104.508 48.9387 103.642Z" fill="#E39700"/>
<path d="M51.9531 89.934L43.6228 98.2988L47.788 102.481L56.1183 94.1164L51.9531 89.934Z" fill="#F3EDBF"/>
<path d="M15.3909 53.2247L7.06055 61.5896L9.65977 64.1996L17.9901 55.8347L15.3909 53.2247Z" fill="#F3EDC0"/>
<path d="M20.857 58.7109L17.9935 61.5863C17.562 62.0196 17.3196 62.6073 17.3196 63.22C17.3196 63.8327 17.562 64.4204 17.9935 64.8536L40.398 87.351C40.8295 87.7843 41.4147 88.0277 42.0249 88.0277C42.6351 88.0277 43.2203 87.7843 43.6518 87.351L46.5153 84.4756L20.857 58.7109Z" fill="#FFCB43"/>
<path d="M7.06126 61.5864L15.3932 53.22L0 46.5532L7.06126 61.5864Z" fill="#E0A370"/>
<path d="M145.686 97.5266V104.011H108.887C108.052 103.98 107.261 103.624 106.681 103.02C106.101 102.415 105.777 101.608 105.777 100.769C105.777 99.9294 106.101 99.1226 106.681 98.518C107.261 97.9134 108.052 97.5581 108.887 97.5266H145.686Z" fill="#A8D32A"/>
<path d="M209.555 100.771C209.554 101.631 209.213 102.455 208.607 103.062C208.002 103.67 207.18 104.011 206.324 104.011H145.686V97.5266H206.315C206.74 97.5254 207.161 97.6085 207.554 97.771C207.947 97.9335 208.305 98.1723 208.606 98.4737C208.907 98.7751 209.146 99.1332 209.308 99.5274C209.471 99.9217 209.555 100.344 209.555 100.771Z" fill="#93BF00"/>
</g>
<defs>
<clipPath id="clip0_109_2552">
<rect width="210" height="105" fill="white"/>
</clipPath>
</defs>
</svg>
