<svg width="191" height="171" viewBox="0 0 191 171" fill="none" xmlns="http://www.w3.org/2000/svg">
<g clip-path="url(#clip0_792_3018)">
<path d="M146.934 15.7246H57.0484C52.6708 15.7246 49.1221 19.2766 49.1221 23.6583V136.719C49.1221 141.101 52.6708 144.653 57.0484 144.653H146.934C151.311 144.653 154.86 141.101 154.86 136.719V23.6583C154.86 19.2766 151.311 15.7246 146.934 15.7246Z" fill="#5B5D6E"/>
<path d="M146.934 15.7246H62.8541C58.4765 15.7246 54.9277 19.2766 54.9277 23.6583V136.719C54.9277 141.101 58.4765 144.653 62.8541 144.653H146.934C151.311 144.653 154.86 141.101 154.86 136.719V23.6583C154.86 19.2766 151.311 15.7246 146.934 15.7246Z" fill="#707487"/>
<path d="M120.96 135.301H59.2197C58.8318 135.301 58.4597 135.147 58.1853 134.872C57.911 134.597 57.7568 134.225 57.7568 133.837V32.6327C57.7568 32.2444 57.911 31.8719 58.1853 31.5973C58.4597 31.3227 58.8318 31.1685 59.2197 31.1685H144.634C145.022 31.1685 145.394 31.3227 145.668 31.5973C145.942 31.8719 146.096 32.2444 146.096 32.6327V110.155L120.96 135.301Z" fill="#D8DCE5"/>
<path d="M120.96 135.301H64.2798C63.8918 135.301 63.5197 135.147 63.2454 134.872C62.971 134.597 62.8169 134.225 62.8169 133.837V32.6327C62.8169 32.2444 62.971 31.8719 63.2454 31.5973C63.5197 31.3227 63.8918 31.1685 64.2798 31.1685H144.633C145.021 31.1685 145.393 31.3227 145.668 31.5973C145.942 31.8719 146.096 32.2444 146.096 32.6327V110.155L120.96 135.301Z" fill="#E4EAF8"/>
<path d="M96.3305 99.8778H96.243C95.8025 99.8595 95.3793 99.7009 95.0351 99.4251C94.6908 99.1493 94.4436 98.7707 94.3293 98.3445L86.7342 70.0356L83.514 80.7872C83.3857 81.2139 83.1236 81.588 82.7666 81.8541C82.4096 82.1203 81.9765 82.2645 81.5313 82.2653H71.1346C70.5856 82.2653 70.059 82.047 69.6708 81.6584C69.2826 81.2698 69.0645 80.7428 69.0645 80.1932C69.0645 79.6437 69.2826 79.1167 69.6708 78.7281C70.059 78.3395 70.5856 78.1212 71.1346 78.1212H79.9994L84.8803 61.8763C85.0073 61.4488 85.269 61.0739 85.6263 60.8075C85.9837 60.5412 86.4175 60.3976 86.863 60.3982H86.8906C87.3407 60.4047 87.7765 60.558 88.1318 60.8347C88.4871 61.1113 88.7426 61.4964 88.8596 61.9315L96.6295 90.8851L100.728 79.4887C100.871 79.0857 101.134 78.7366 101.483 78.4893C101.831 78.242 102.247 78.1086 102.674 78.1074H109.754C110.163 78.1065 110.563 78.2274 110.903 78.4545C111.242 78.6816 111.507 79.0047 111.663 79.3828L112.864 82.2699L117.082 66.1539C117.194 65.7232 117.442 65.3401 117.789 65.0612C118.135 64.7823 118.562 64.6226 119.006 64.6055C119.451 64.5885 119.889 64.7151 120.256 64.9666C120.622 65.2181 120.899 65.5811 121.043 66.002L125.101 77.7943H132.213C132.762 77.7943 133.288 78.0126 133.677 78.4012C134.065 78.7897 134.283 79.3168 134.283 79.8663C134.283 80.4159 134.065 80.9429 133.677 81.3315C133.288 81.7201 132.762 81.9384 132.213 81.9384H123.624C123.195 81.9398 122.777 81.8075 122.426 81.56C122.076 81.3125 121.811 80.9619 121.669 80.557L119.369 73.8389L115.325 89.2965C115.216 89.7164 114.977 90.0912 114.644 90.3683C114.31 90.6453 113.898 90.8104 113.465 90.8404C113.033 90.8705 112.602 90.7638 112.233 90.5355C111.864 90.3073 111.577 89.9689 111.41 89.5682L108.388 82.2837H104.151L98.3086 98.5287C98.1591 98.9309 97.8884 99.2767 97.5341 99.5184C97.1797 99.7601 96.7592 99.8857 96.3305 99.8778Z" fill="#FF6161"/>
<path d="M117.032 41.6437H86.8953C85.5532 41.6437 84.2661 41.1101 83.3171 40.1602C82.3681 39.2104 81.835 37.922 81.835 36.5787V22.3045C81.835 20.9612 82.3681 19.6729 83.3171 18.723C84.2661 17.7731 85.5532 17.2395 86.8953 17.2395H117.032C118.374 17.2395 119.661 17.7731 120.61 18.723C121.559 19.6729 122.092 20.9612 122.092 22.3045V36.5787C122.092 37.922 121.559 39.2104 120.61 40.1602C119.661 41.1101 118.374 41.6437 117.032 41.6437ZM86.8815 21.3836C86.6375 21.3836 86.4035 21.4806 86.2309 21.6533C86.0584 21.8261 85.9614 22.0603 85.9614 22.3045V36.5787C85.9614 36.8229 86.0584 37.0572 86.2309 37.2299C86.4035 37.4026 86.6375 37.4996 86.8815 37.4996H117.032C117.276 37.4996 117.51 37.4026 117.682 37.2299C117.855 37.0572 117.952 36.8229 117.952 36.5787V22.3045C117.952 22.0603 117.855 21.8261 117.682 21.6533C117.51 21.4806 117.276 21.3836 117.032 21.3836H86.8815Z" fill="#00C3FF"/>
<path d="M122.819 8.97437H81.1124C79.0011 8.97437 77.2896 10.6875 77.2896 12.8008V19.6478C77.2896 21.761 79.0011 23.4742 81.1124 23.4742H122.819C124.93 23.4742 126.642 21.761 126.642 19.6478V12.8008C126.642 10.6875 124.93 8.97437 122.819 8.97437Z" fill="#D8DCE5"/>
<path d="M105.223 0H98.7135C96.6022 0 94.8906 1.71314 94.8906 3.8264V10.6734C94.8906 12.7867 96.6022 14.4998 98.7135 14.4998H105.223C107.334 14.4998 109.046 12.7867 109.046 10.6734V3.8264C109.046 1.71314 107.334 0 105.223 0Z" fill="#C3C8D1"/>
<path d="M105.223 0H104.708C102.596 0 100.885 1.71314 100.885 3.8264V10.6734C100.885 12.7867 102.596 14.4998 104.708 14.4998H105.223C107.334 14.4998 109.046 12.7867 109.046 10.6734V3.8264C109.046 1.71314 107.334 0 105.223 0Z" fill="#D8DCE5"/>
<path d="M159.957 30.7908C159.392 30.7908 159.152 30.7908 158.071 29.1838C156.99 27.5768 153.255 22.9492 147.122 22.9492C140.99 22.9492 133.722 27.4387 133.487 36.2196C133.253 45.0005 137.545 52.7961 144.105 58.782C150.665 64.7679 158.918 69.3725 159.957 69.3725H160.477C161.512 69.3725 169.77 64.791 176.33 58.782C182.89 52.773 187.182 44.9913 186.943 36.2196C186.704 27.4479 179.444 22.9492 173.307 22.9492C167.171 22.9492 163.449 27.5768 162.363 29.1838C161.278 30.7908 161.043 30.7908 160.477 30.7908H159.957Z" fill="#FF6161"/>
<path d="M150.32 23.3867C149.28 23.0866 148.204 22.9317 147.123 22.9263C140.99 22.9263 133.722 27.4157 133.487 36.1966C133.253 44.9776 137.545 52.7731 144.105 58.759C150.665 64.745 158.918 69.3496 159.957 69.3496H160.477C160.79 69.3496 161.779 68.9259 163.182 68.1662C159.549 66.2631 156.11 64.01 152.914 61.4389C147.109 56.8343 139.182 48.1225 139.182 36.3164C139.182 24.5102 150.32 23.3867 150.32 23.3867Z" fill="#DD4343"/>
<path d="M120.96 135.301V111.817C120.96 111.367 121.139 110.935 121.458 110.616C121.776 110.297 122.208 110.118 122.658 110.118L146.083 110.141L120.96 135.301Z" fill="#D8DCE5"/>
<path d="M126.596 110.137H122.658C122.208 110.137 121.776 110.316 121.458 110.634C121.139 110.953 120.96 111.385 120.96 111.836V135.319L126.541 129.734L126.596 110.137Z" fill="#C3C8D1"/>
<path d="M55.1531 168.491C72.7422 168.491 87.001 154.218 87.001 136.613C87.001 119.008 72.7422 104.736 55.1531 104.736C37.564 104.736 23.3052 119.008 23.3052 136.613C23.3052 154.218 37.564 168.491 55.1531 168.491Z" fill="#EBEBEB"/>
<path d="M68.9998 130.673H41.559C40.342 130.673 39.3555 131.661 39.3555 132.879V140.416C39.3555 141.634 40.342 142.622 41.559 142.622H68.9998C70.2168 142.622 71.2034 141.634 71.2034 140.416V132.879C71.2034 131.661 70.2168 130.673 68.9998 130.673Z" fill="#E2574C"/>
<path d="M35.0116 77.7801C39.3232 73.4644 39.3232 66.4673 35.0116 62.1516C30.6999 57.8359 23.7093 57.8359 19.3976 62.1516L3.23393 78.3303C-1.07774 82.646 -1.07775 89.6431 3.23392 93.9587C7.5456 98.2744 14.5362 98.2744 18.8479 93.9587L35.0116 77.7801Z" fill="#FF5E57"/>
<path d="M49.3105 122.919V150.385C49.3105 151.603 50.2971 152.591 51.5141 152.591H59.0448C60.2618 152.591 61.2483 151.603 61.2483 150.385V122.919C61.2483 121.701 60.2618 120.713 59.0448 120.713H51.5141C50.2971 120.713 49.3105 121.701 49.3105 122.919Z" fill="#E2574C"/>
<path d="M26.7553 86.0456L18.8474 93.9608C16.7769 96.0331 13.9688 97.1973 11.0407 97.1973C8.11264 97.1973 5.3045 96.0331 3.23399 93.9608C1.16361 91.8884 0.000488281 89.0776 0.000488281 86.1469C0.000488281 83.2161 1.16361 80.4054 3.23399 78.3329L11.3167 70.2427L26.7553 86.0456Z" fill="#D7E9F9"/>
<path opacity="0.15" d="M0.570312 89.6603C1.1113 91.282 2.02341 92.7547 3.23389 93.961C5.30441 96.0333 8.11255 97.1975 11.0406 97.1975C13.9687 97.1975 16.7768 96.0333 18.8473 93.961L35.0128 77.7805C37.0832 75.7081 38.2463 72.8973 38.2463 69.9665C38.2463 67.0358 37.0832 64.225 35.0128 62.1526C35.0128 62.1526 34.2767 69.6672 25.4718 78.7521C16.6668 87.8369 8.20222 89.186 0.570312 89.6603Z" fill="black"/>
<path d="M142.246 123.043H158.738V162.749C158.738 164.937 157.87 167.036 156.324 168.583C154.778 170.131 152.681 171 150.494 171C148.308 171 146.211 170.131 144.665 168.583C143.119 167.036 142.251 164.937 142.251 162.749V123.043H142.246Z" fill="#D0D0F7"/>
<path d="M142.246 125.479V162.744C142.245 163.828 142.457 164.902 142.871 165.905C143.285 166.907 143.892 167.817 144.657 168.585C145.423 169.352 146.332 169.96 147.333 170.376C148.334 170.791 149.406 171.005 150.49 171.005C151.72 171.005 152.934 170.73 154.044 170.2C155.154 169.669 156.13 168.896 156.903 167.938V134.058C156.903 132.93 156.68 131.813 156.249 130.771C155.817 129.729 155.184 128.782 154.386 127.985C153.588 127.188 152.641 126.557 151.599 126.127C150.557 125.697 149.441 125.477 148.314 125.479H142.246Z" fill="#E4E3FF"/>
<path d="M155.513 135.301V162.744C155.513 164.078 154.984 165.356 154.042 166.299C153.1 167.242 151.822 167.772 150.49 167.772C149.158 167.772 147.88 167.242 146.938 166.299C145.996 165.356 145.466 164.078 145.466 162.744V135.301C146.708 135.373 147.953 135.23 149.147 134.877C150.665 134.311 151.516 133.744 153.071 133.744C154.626 133.744 155.513 135.301 155.513 135.301Z" fill="#FC6559"/>
<path d="M147.306 158.535C147.123 158.535 146.948 158.463 146.818 158.333C146.689 158.204 146.616 158.028 146.616 157.845V156.367C146.616 156.184 146.689 156.008 146.818 155.878C146.948 155.749 147.123 155.676 147.306 155.676C147.489 155.676 147.665 155.749 147.794 155.878C147.924 156.008 147.996 156.184 147.996 156.367V157.845C147.996 158.028 147.924 158.204 147.794 158.333C147.665 158.463 147.489 158.535 147.306 158.535Z" fill="#FDAFA8"/>
<path d="M149.142 164.484C149.042 164.483 148.943 164.461 148.852 164.42C148.185 164.105 147.621 163.607 147.226 162.985C146.83 162.362 146.619 161.64 146.616 160.902C146.616 160.719 146.689 160.543 146.818 160.414C146.948 160.284 147.123 160.211 147.306 160.211C147.489 160.211 147.665 160.284 147.794 160.414C147.924 160.543 147.996 160.719 147.996 160.902C147.997 161.377 148.133 161.843 148.388 162.244C148.643 162.645 149.006 162.965 149.436 163.168C149.579 163.234 149.695 163.347 149.764 163.489C149.834 163.63 149.853 163.791 149.819 163.945C149.784 164.098 149.698 164.236 149.575 164.334C149.452 164.432 149.299 164.485 149.142 164.484Z" fill="#FDAFA8"/>
<path d="M154.704 134.361C155.024 134.62 155.297 134.932 155.513 135.282V162.725C155.513 164.059 154.984 165.338 154.042 166.281C153.1 167.224 151.822 167.754 150.49 167.754C149.158 167.754 147.88 167.224 146.938 166.281C145.996 165.338 145.466 164.059 145.466 162.725C145.466 162.725 146.846 166.124 150.49 166.124C154.133 166.124 154.86 162.532 154.86 160.501C154.86 158.471 154.704 134.361 154.704 134.361Z" fill="#F13F26"/>
<path d="M160.334 112.117H140.613C139.726 112.117 139.007 112.836 139.007 113.724V122.081C139.007 122.969 139.726 123.688 140.613 123.688H160.334C161.221 123.688 161.94 122.969 161.94 122.081V113.724C161.94 112.836 161.221 112.117 160.334 112.117Z" fill="#474646"/>
<path d="M160.215 114.843C160.215 114.263 159.745 113.793 159.166 113.793C158.587 113.793 158.117 114.263 158.117 114.843V120.723C158.117 121.302 158.587 121.772 159.166 121.772C159.745 121.772 160.215 121.302 160.215 120.723V114.843Z" fill="#2C2B2B"/>
<path d="M156.705 114.843C156.705 114.263 156.235 113.793 155.656 113.793C155.077 113.793 154.607 114.263 154.607 114.843V120.723C154.607 121.302 155.077 121.772 155.656 121.772C156.235 121.772 156.705 121.302 156.705 120.723V114.843Z" fill="#2C2B2B"/>
<path d="M153.149 114.843C153.149 114.263 152.679 113.793 152.1 113.793C151.52 113.793 151.051 114.263 151.051 114.843V120.723C151.051 121.302 151.52 121.772 152.1 121.772C152.679 121.772 153.149 121.302 153.149 120.723V114.843Z" fill="#2C2B2B"/>
<path d="M149.616 114.843C149.616 114.263 149.146 113.793 148.567 113.793C147.988 113.793 147.518 114.263 147.518 114.843V120.723C147.518 121.302 147.988 121.772 148.567 121.772C149.146 121.772 149.616 121.302 149.616 120.723V114.843Z" fill="#2C2B2B"/>
<path d="M146.083 114.843C146.083 114.263 145.613 113.793 145.034 113.793C144.454 113.793 143.985 114.263 143.985 114.843V120.723C143.985 121.302 144.454 121.772 145.034 121.772C145.613 121.772 146.083 121.302 146.083 120.723V114.843Z" fill="#2C2B2B"/>
<path d="M142.591 114.843C142.591 114.263 142.121 113.793 141.542 113.793C140.963 113.793 140.493 114.263 140.493 114.843V120.723C140.493 121.302 140.963 121.772 141.542 121.772C142.121 121.772 142.591 121.302 142.591 120.723V114.843Z" fill="#2C2B2B"/>
<path d="M171.311 123.043H187.803V162.749C187.803 163.832 187.589 164.905 187.175 165.906C186.761 166.907 186.154 167.817 185.388 168.583C184.623 169.35 183.714 169.957 182.714 170.372C181.713 170.787 180.641 171 179.559 171C177.373 171 175.276 170.131 173.73 168.583C172.184 167.036 171.315 164.937 171.315 162.749V123.043H171.311Z" fill="#D0D0F7"/>
<path d="M171.315 125.479V162.744C171.314 163.828 171.526 164.902 171.94 165.903C172.353 166.905 172.96 167.816 173.725 168.583C174.49 169.35 175.399 169.959 176.399 170.374C177.399 170.79 178.472 171.004 179.555 171.005C180.784 171.005 181.999 170.73 183.109 170.199C184.218 169.669 185.195 168.896 185.967 167.938V134.058C185.967 131.782 185.064 129.601 183.457 127.992C181.85 126.383 179.67 125.479 177.397 125.479H171.315Z" fill="#E4E3FF"/>
<path d="M184.578 135.301V162.744C184.578 164.078 184.049 165.356 183.106 166.299C182.164 167.242 180.887 167.772 179.554 167.772C178.222 167.772 176.944 167.242 176.002 166.299C175.06 165.356 174.531 164.078 174.531 162.744V135.301C175.773 135.373 177.018 135.23 178.211 134.877C179.729 134.311 180.58 133.744 182.135 133.744C183.69 133.744 184.578 135.301 184.578 135.301Z" fill="#F9B938"/>
<path d="M176.376 158.535C176.193 158.535 176.017 158.463 175.888 158.333C175.758 158.204 175.686 158.028 175.686 157.845V156.367C175.686 156.184 175.758 156.008 175.888 155.878C176.017 155.749 176.193 155.676 176.376 155.676C176.559 155.676 176.734 155.749 176.864 155.878C176.993 156.008 177.066 156.184 177.066 156.367V157.845C177.066 158.028 176.993 158.204 176.864 158.333C176.734 158.463 176.559 158.535 176.376 158.535Z" fill="#FBDC9D"/>
<path d="M178.216 164.484C178.116 164.483 178.017 164.461 177.926 164.42C177.259 164.105 176.696 163.607 176.3 162.985C175.904 162.362 175.693 161.64 175.69 160.902C175.69 160.719 175.763 160.543 175.893 160.414C176.022 160.284 176.197 160.211 176.38 160.211C176.563 160.211 176.739 160.284 176.868 160.414C176.998 160.543 177.071 160.719 177.071 160.902C177.072 161.377 177.207 161.843 177.462 162.244C177.717 162.645 178.081 162.965 178.51 163.168C178.653 163.234 178.769 163.347 178.838 163.489C178.908 163.63 178.927 163.791 178.893 163.945C178.858 164.098 178.773 164.236 178.649 164.334C178.526 164.432 178.373 164.485 178.216 164.484Z" fill="#FBDC9D"/>
<path d="M183.768 134.361C184.088 134.62 184.362 134.932 184.578 135.282V162.725C184.578 164.059 184.049 165.338 183.106 166.281C182.164 167.224 180.887 167.754 179.554 167.754C178.222 167.754 176.944 167.224 176.002 166.281C175.06 165.338 174.531 164.059 174.531 162.725C174.531 162.725 175.911 166.124 179.554 166.124C183.198 166.124 183.925 162.532 183.925 160.501C183.925 158.471 183.768 134.361 183.768 134.361Z" fill="#EBA600"/>
<path d="M189.399 112.117H169.678C168.791 112.117 168.072 112.836 168.072 113.724V122.081C168.072 122.969 168.791 123.688 169.678 123.688H189.399C190.286 123.688 191.005 122.969 191.005 122.081V113.724C191.005 112.836 190.286 112.117 189.399 112.117Z" fill="#474646"/>
<path d="M189.279 114.843C189.279 114.263 188.81 113.793 188.231 113.793C187.651 113.793 187.182 114.263 187.182 114.843V120.723C187.182 121.302 187.651 121.772 188.231 121.772C188.81 121.772 189.279 121.302 189.279 120.723V114.843Z" fill="#2C2B2B"/>
<path d="M185.77 114.843C185.77 114.263 185.3 113.793 184.721 113.793C184.141 113.793 183.672 114.263 183.672 114.843V120.723C183.672 121.302 184.141 121.772 184.721 121.772C185.3 121.772 185.77 121.302 185.77 120.723V114.843Z" fill="#2C2B2B"/>
<path d="M182.213 114.843C182.213 114.263 181.744 113.793 181.165 113.793C180.585 113.793 180.116 114.263 180.116 114.843V120.723C180.116 121.302 180.585 121.772 181.165 121.772C181.744 121.772 182.213 121.302 182.213 120.723V114.843Z" fill="#2C2B2B"/>
<path d="M178.68 114.843C178.68 114.263 178.211 113.793 177.631 113.793C177.052 113.793 176.583 114.263 176.583 114.843V120.723C176.583 121.302 177.052 121.772 177.631 121.772C178.211 121.772 178.68 121.302 178.68 120.723V114.843Z" fill="#2C2B2B"/>
<path d="M175.148 114.843C175.148 114.263 174.678 113.793 174.099 113.793C173.519 113.793 173.05 114.263 173.05 114.843V120.723C173.05 121.302 173.519 121.772 174.099 121.772C174.678 121.772 175.148 121.302 175.148 120.723V114.843Z" fill="#2C2B2B"/>
<path d="M171.656 114.843C171.656 114.263 171.186 113.793 170.607 113.793C170.028 113.793 169.558 114.263 169.558 114.843V120.723C169.558 121.302 170.028 121.772 170.607 121.772C171.186 121.772 171.656 121.302 171.656 120.723V114.843Z" fill="#2C2B2B"/>
<path d="M122.819 8.97437H81.1124C79.0011 8.97437 77.2896 10.6875 77.2896 12.8008V14.5919C77.2896 16.7052 79.0011 18.4183 81.1124 18.4183H122.819C124.93 18.4183 126.642 16.7052 126.642 14.5919V12.8008C126.642 10.6875 124.93 8.97437 122.819 8.97437Z" fill="#E4EAF8"/>
</g>
<defs>
<clipPath id="clip0_792_3018">
<rect width="191" height="171" fill="white"/>
</clipPath>
</defs>
</svg>
