<svg width="144" height="182" viewBox="0 0 144 182" fill="none" xmlns="http://www.w3.org/2000/svg">
<g clip-path="url(#clip0_119_3060)">
<path d="M3.30924 170.398L24.8931 159.127C24.8931 159.127 27.5165 150.084 28.215 147.826C28.9134 145.567 33.4533 144.347 33.4533 144.347L35.2037 125.575C35.2037 125.575 30.1357 122.444 27.5165 112.71C24.8973 102.977 20.3446 82.4765 20.0082 79.1756C19.6717 75.8747 24.0243 74.8281 24.0243 74.8281C24.0243 74.8281 23.5004 46.6664 23.8496 36.5857C24.1989 26.5049 34.3349 19.7209 40.2717 16.581C46.2086 13.4411 75.9183 2.49589 79.7597 0.584825C83.6012 -1.32624 82.5578 1.80095 81.6847 3.71625C80.8117 5.63155 80.109 10.3223 87.6216 12.2334C95.1342 14.1445 107.889 17.1022 113.656 24.5769C119.422 32.0517 119.248 36.7467 119.248 40.5688V73.4255C119.248 73.4255 123.639 75.2052 123.047 79.8367C122.455 84.4681 119.248 98.9346 117.412 103.371C115.577 107.808 115.449 115.626 113.481 118.494C111.514 121.363 108.239 125.795 108.239 125.795L109.942 143.787C109.942 143.787 114.005 145.872 115.581 149.393C117.157 152.915 117.936 158.389 117.936 158.389L140.708 170.415C146.394 173.419 144.247 181.987 137.812 181.987H6.18395C-0.268193 182 -2.39761 173.398 3.30924 170.398Z" fill="#7C8E9A"/>
<path d="M70.944 99.7778C69.837 99.7778 68.7755 99.3402 67.9927 98.5615C67.21 97.7827 66.7703 96.7265 66.7703 95.6251V94.1886C66.7703 92.3157 67.1522 90.8397 67.9159 89.7606C68.6797 88.6815 70.3506 87.1503 72.9286 85.1672C76.8638 82.1644 78.8313 78.9792 78.8313 75.6119C78.8313 73.0695 78.0619 71.0553 76.5231 69.5694C74.9842 68.0835 72.9811 67.3377 70.5138 67.3321C65.778 67.3321 62.6548 70.0341 61.1444 75.4382C60.8642 76.4318 60.2222 77.2861 59.3436 77.8344C58.4649 78.3828 57.4125 78.5859 56.3915 78.4044L55.4375 78.2349C54.8655 78.1321 54.3213 77.9118 53.8397 77.5881C53.358 77.2644 52.9494 76.8443 52.6401 76.3547C52.3307 75.865 52.1273 75.3166 52.0429 74.7444C51.9585 74.1722 51.9948 73.5888 52.1497 73.0314C53.0861 69.4096 55.0863 66.1478 57.8949 63.6625C61.708 60.3093 66.2763 58.6341 71.5998 58.637C76.9234 58.6398 81.3043 60.2048 84.7426 63.332C86.4135 64.7858 87.7447 66.5854 88.6429 68.6049C89.5412 70.6244 89.9848 72.8149 89.9427 75.0229C89.9448 77.304 89.4477 79.5583 88.4862 81.629C87.7192 83.4368 86.6103 85.081 85.2196 86.4724C84.0016 87.6023 81.4236 89.6094 77.4856 92.4937C76.3754 93.296 75.6656 94.0757 75.3561 94.8327C75.2013 95.2653 75.0997 95.7149 75.0538 96.1717C74.9221 97.1653 74.4333 98.0779 73.6778 98.7408C72.9224 99.4037 71.9512 99.772 70.944 99.7778ZM76.5614 109.803V111.846C76.5614 112.947 76.1217 114.003 75.3389 114.782C74.5562 115.561 73.4947 115.998 72.3877 115.998H70.961C70.4129 115.998 69.8702 115.891 69.3638 115.682C68.8574 115.474 68.3973 115.168 68.0098 114.782C67.6222 114.397 67.3148 113.939 67.105 113.435C66.8953 112.931 66.7873 112.391 66.7873 111.846V109.803C66.7873 109.258 66.8953 108.718 67.105 108.214C67.3148 107.71 67.6222 107.253 68.0098 106.867C68.3973 106.481 68.8574 106.176 69.3638 105.967C69.8702 105.758 70.4129 105.651 70.961 105.651H72.3877C73.4947 105.651 74.5562 106.088 75.3389 106.867C76.1217 107.646 76.5614 108.702 76.5614 109.803Z" fill="white"/>
</g>
<defs>
<clipPath id="clip0_119_3060">
<rect width="144" height="182" fill="white"/>
</clipPath>
</defs>
</svg>
