<svg width="270" height="270" viewBox="0 0 270 270" fill="none" xmlns="http://www.w3.org/2000/svg">
<path fill-rule="evenodd" clip-rule="evenodd" d="M109.308 230.619C77.0445 226.559 47.4224 209.965 30.121 178.635C6.78918 136.386 22.9719 72.2757 81.6095 77.6864C105.938 79.9321 117.628 91.4029 136.645 70.2799C154.494 50.4527 168.485 16.5421 201.504 21.1018C246.775 27.357 256.825 108.158 245.719 141.621C235.224 173.247 214.472 205.149 183.189 219.13C159.867 229.552 133.824 233.704 109.308 230.619Z" fill="white" fill-opacity="0.15"/>
<path fill-rule="evenodd" clip-rule="evenodd" d="M228.749 242.393C228.749 246.366 186.715 249.587 134.864 249.587C83.0137 249.587 40.98 246.366 40.98 242.393C40.98 238.419 83.0137 235.198 134.864 235.198C186.715 235.198 228.749 238.419 228.749 242.393Z" fill="#40379D"/>
<path fill-rule="evenodd" clip-rule="evenodd" d="M153.847 58.0125C160.307 66.5455 147.461 77.5168 156.398 86.1496C158.273 87.9599 159.623 88.0146 161.937 88.8419C164.766 89.8529 165.63 91.103 167.263 93.3486C170.601 97.9386 174.775 95.8768 176.038 91.1232C177.759 84.645 177.132 77.9283 177.719 71.208C178.217 65.5077 179.474 59.7765 176.736 54.4264C175.295 51.6128 173.609 49.5498 172.831 46.4186C172.164 43.7299 171.533 41.398 169.614 39.1696C164.335 33.0423 146.832 48.7463 153.847 58.0125Z" fill="#774251"/>
<path fill-rule="evenodd" clip-rule="evenodd" d="M123.82 126.355C127.712 123.345 134.242 121.408 138.076 118.066C142.909 113.853 144.269 111.242 146.502 105.284C148.624 99.6205 150.13 93.9422 151.25 88.0081C152.01 83.9742 152.284 76.8186 157.254 76.8186C166.132 76.818 159.851 90.4375 158.58 94.5375C156.691 100.636 155.46 105.666 153.013 111.669C150.545 117.727 144.515 121.954 138.741 124.711L125.054 129.055L123.82 126.355Z" fill="#F0B389"/>
<path fill-rule="evenodd" clip-rule="evenodd" d="M123.365 130.845C124.941 132.67 122.55 133.388 122.55 133.388C119.73 133.388 118.563 131.567 118.587 129.805C118.587 129.805 118.587 126.394 123.272 126.084C125.225 126.136 125.411 126.877 125.055 129.055C125.055 129.055 123.365 129.401 123.365 130.845Z" fill="#F0B389"/>
<path fill-rule="evenodd" clip-rule="evenodd" d="M153.105 123.141C150.891 141.102 152.186 141.215 150.627 155.163L149.972 178.458L155.702 229.677C155.702 229.677 157.354 233.574 160.38 231.92L163.732 194.486L162.3 185.767L165.896 156.45L169.76 123.141H153.105Z" fill="#1A1F2D"/>
<path fill-rule="evenodd" clip-rule="evenodd" d="M181.513 118.718C181.028 117.153 180.414 115.476 179.635 113.681H165.905C165.898 114.599 165.89 116.345 165.901 118.718H181.513Z" fill="#F0B389"/>
<path fill-rule="evenodd" clip-rule="evenodd" d="M187.279 180.852L181.301 177.907C181.301 177.907 183.589 144.932 184.62 139.733C184.62 139.733 185.127 131.62 181.828 123.141H161.091C163.323 135 167.349 164.303 169.968 182.318C169.968 182.318 169.968 186.467 174.294 188.403L208.836 206.246C208.836 206.246 211.543 204.242 211.889 201.156L187.279 180.852Z" fill="#232B3B"/>
<path fill-rule="evenodd" clip-rule="evenodd" d="M171.153 77.5828C171.153 77.5828 170.892 91.58 180.64 88.4821C180.64 88.4821 187.008 81.0863 179.442 75.8665L171.153 77.5828Z" fill="#F0B389"/>
<path fill-rule="evenodd" clip-rule="evenodd" d="M164.576 75.3425H172.111V64.1143H164.576V75.3425Z" fill="#F0B389"/>
<path fill-rule="evenodd" clip-rule="evenodd" d="M164.576 68.8416V64.1143H172.111V69.7284C169.448 69.7533 168.344 69.7284 164.576 68.8416Z" fill="#EC9F75"/>
<path fill-rule="evenodd" clip-rule="evenodd" d="M154.138 79.0583C155.924 76.2953 158.729 75.5453 158.729 75.5453L165.456 73.0535H171.876L178.598 75.5453C178.598 75.5453 181.404 76.2953 183.189 79.0583H154.138Z" fill="#F0B389"/>
<path fill-rule="evenodd" clip-rule="evenodd" d="M184.62 127.919C182.774 122.542 181.301 102.174 181.301 102.174L181.513 88.3633L183.105 82.8538C185.296 77.527 181.893 76.0563 181.893 76.0563L173.622 73.7024C173.622 73.7024 172.486 77.7346 166.204 76.9745C166.204 76.9745 161.466 76.4761 163.357 73.832L159.372 75.3426C159.372 75.3426 157.355 79.0584 154.807 83.8197C152.881 87.8019 151.628 88.0308 152.356 95.2269C152.356 95.2269 154.138 105.237 150.627 130.112C150.627 130.112 183.189 138.781 184.62 127.919Z" fill="#AF577D"/>
<path fill-rule="evenodd" clip-rule="evenodd" d="M174.545 62.8024C174.247 63.422 173.845 63.9912 173.297 64.4788C170.856 66.6531 167.648 68.1167 164.347 67.9906C155.873 63.8925 159.308 47.4046 159.308 47.4046C160.909 39.5128 167.702 39.7935 167.702 39.7935C172.843 39.7673 177.433 42.3733 178.012 47.8102C178.234 49.8935 177.75 52.1017 177.565 54.1677C177.43 55.689 177.185 57.1978 176.642 58.6304C176.09 60.0922 175.217 61.3976 174.545 62.8024Z" fill="#F0B389"/>
<path fill-rule="evenodd" clip-rule="evenodd" d="M175.578 56.5247C175.578 56.5247 176.654 53.9799 178.704 55.1009C178.704 55.1009 179.923 55.8223 178.948 57.8081C178.948 57.8081 177.637 60.4361 175.578 59.3323V56.5247Z" fill="#F0B389"/>
<path fill-rule="evenodd" clip-rule="evenodd" d="M175.078 58.3009C175.078 58.3009 175.388 54.2955 178.598 55.2352C178.598 55.2352 180.918 52.5988 180.605 47.2732C180.605 47.2732 182.116 40.8955 173.704 38.2924C173.704 38.2924 164.968 35.4104 160.42 40.5618C160.42 40.5618 158.807 48.5667 165.905 51.9149C173.002 55.262 175.078 58.3009 175.078 58.3009Z" fill="#774251"/>
<path fill-rule="evenodd" clip-rule="evenodd" d="M163.732 220.548L161.566 231.199L161.59 239.128L158.164 239.138L157.635 236.743L157.136 239.142L145.177 239.178C145.177 239.178 143.649 237.926 145.388 236.981L151.259 234.128C150.394 234.548 154.185 232.768 154.543 230.667L152.802 220.163C152.802 220.163 158.751 219.475 163.732 220.548Z" fill="#70343A"/>
<path fill-rule="evenodd" clip-rule="evenodd" d="M147.955 125.593C151.848 122.583 158.378 120.646 162.21 117.303C167.044 113.09 168.405 110.479 170.638 104.521C172.76 98.8581 174.266 93.1797 175.386 87.2463C176.146 83.2117 176.419 76.0567 181.39 76.0562C190.268 76.0562 183.987 89.6757 182.715 93.7745C180.827 99.8732 179.596 104.903 177.149 110.907C174.681 116.964 168.65 121.191 162.877 123.949L149.19 128.292L147.955 125.593Z" fill="#F0B389"/>
<path fill-rule="evenodd" clip-rule="evenodd" d="M147.5 130.082C149.076 131.908 146.686 132.627 146.686 132.627C143.866 132.627 142.699 130.806 142.723 129.042C142.723 129.042 142.722 125.632 147.408 125.322C149.36 125.373 149.546 126.114 149.191 128.292C149.191 128.292 147.5 128.639 147.5 130.082Z" fill="#F0B389"/>
<path fill-rule="evenodd" clip-rule="evenodd" d="M206.122 194.486L214.254 201.698L221.129 205.65L219.42 208.62L217.082 207.877L218.908 209.512L212.948 219.879C212.948 219.879 211.099 220.575 211.152 218.596L211.625 212.085C211.556 213.044 211.914 208.871 210.274 207.509L200.312 203.752C200.312 203.752 202.697 198.262 206.122 194.486Z" fill="#70343A"/>
<path fill-rule="evenodd" clip-rule="evenodd" d="M161.108 46.9641C165.243 53.0141 171.087 55.6398 171.91 63.4924C172.527 69.3812 169.578 75.1048 168.838 80.7718C168.146 86.0826 168.419 92.2599 170.997 97.0289C172.064 99.0015 173.396 100.717 176.045 100.071C178.529 99.4654 178.58 97.3667 179.088 95.0937C179.559 92.983 179.83 90.4882 181.101 88.7255C182.479 86.8099 184.069 86.6791 185.793 85.4807C189.299 83.0466 185.551 73.3349 185.173 70.2453C183.713 58.3011 187.007 52.5931 181.513 44.1981C179.326 40.8576 175.131 37.2036 170.488 37.4891C168.814 37.592 167.017 38.5739 165.723 39.7912C164.366 41.0675 163.774 41.6117 162.991 43.2543C162.756 43.7455 160.89 46.6453 161.108 46.9641Z" fill="#774251"/>
<path fill-rule="evenodd" clip-rule="evenodd" d="M61.3333 168.386L64.5441 181.131C64.8248 182.246 65.956 182.921 67.0711 182.641C68.1856 182.36 68.8618 181.229 68.5811 180.114L65.3702 167.369C65.0895 166.255 63.9583 165.578 62.8433 165.859C61.7288 166.14 61.0526 167.272 61.3333 168.386Z" fill="#B4B5B4"/>
<path fill-rule="evenodd" clip-rule="evenodd" d="M112.254 131.347L106.388 138.872C105.681 139.778 105.844 141.086 106.751 141.793C107.657 142.499 108.965 142.338 109.672 141.431L115.537 133.906C116.244 132.999 116.082 131.692 115.175 130.985C114.269 130.278 112.961 130.44 112.254 131.347Z" fill="#B4B5B4"/>
<path fill-rule="evenodd" clip-rule="evenodd" d="M102.938 227.293H70.0472L115.357 143.146C115.901 142.134 115.523 140.872 114.511 140.327C113.499 139.782 112.236 140.161 111.691 141.173L64.7299 228.388C64.3837 229.031 64.401 229.815 64.7756 230.442C65.1503 231.069 65.8325 231.456 66.5628 231.456H102.938C104.087 231.456 105.019 230.524 105.019 229.375C105.019 228.225 104.087 227.293 102.938 227.293Z" fill="#B4B5B4"/>
<path fill-rule="evenodd" clip-rule="evenodd" d="M91.521 137.635C91.521 137.635 85.2159 138.524 87.5388 144.756L96.836 177.69H129.036V137.635H91.521Z" fill="#433560"/>
<path fill-rule="evenodd" clip-rule="evenodd" d="M94.8847 137.635H91.521C91.521 137.635 85.2159 138.524 87.5388 144.756L94.6617 177.69H97.6924L90.9031 144.756C88.5808 138.524 94.8847 137.635 94.8847 137.635Z" fill="#885693"/>
<path fill-rule="evenodd" clip-rule="evenodd" d="M138.101 170.709L134.094 177.69H125.367V149.431C125.367 149.431 126.858 140.151 118.902 140.151H88.947L91.5209 137.635H131.966C131.966 137.635 137.481 138.48 138.101 142.96V170.709Z" fill="#885693"/>
<path fill-rule="evenodd" clip-rule="evenodd" d="M102.848 224.579L152.226 136.332L150.41 135.315L152.148 136.46C152.179 136.412 152.626 135.735 153.095 134.775C153.329 134.294 153.57 133.741 153.766 133.135C153.958 132.527 154.115 131.868 154.119 131.111C154.119 130.731 154.077 130.323 153.946 129.893C153.848 129.572 153.698 129.24 153.483 128.93C153.164 128.462 152.696 128.062 152.182 127.811C151.667 127.556 151.123 127.432 150.576 127.388L150.41 127.381H121.894V129.463L122.091 127.391C122.038 127.386 121.68 127.354 121.119 127.353C120.159 127.356 118.608 127.439 116.919 127.972C116.076 128.241 115.195 128.628 114.357 129.203C113.521 129.776 112.728 130.547 112.122 131.538C111.52 132.517 111.827 133.799 112.807 134.401C113.786 135.002 115.069 134.695 115.67 133.716C115.943 133.272 116.288 132.929 116.714 132.634C117.348 132.195 118.178 131.895 118.998 131.727C119.815 131.557 120.606 131.516 121.119 131.516C121.319 131.516 121.477 131.522 121.578 131.528L121.686 131.534L121.705 131.536L121.765 130.822L121.697 131.535L121.705 131.536L121.765 130.822L121.697 131.535C121.784 131.544 121.807 131.544 121.894 131.544H150.41V129.463L150.244 131.538C150.305 131.542 150.344 131.55 150.36 131.554L150.369 131.556L150.506 131.119L150.236 131.481C150.308 131.535 150.367 131.556 150.369 131.556L150.506 131.119L150.236 131.481L150.696 130.864L149.98 131.153C150.012 131.245 150.123 131.403 150.236 131.481L150.696 130.864L149.98 131.153L150.351 131.004L149.955 131.07L149.98 131.153L150.351 131.004L149.955 131.07L149.988 131.065L149.955 131.069V131.07L149.988 131.065L149.955 131.069L149.956 131.111C149.96 131.22 149.915 131.52 149.802 131.863C149.637 132.382 149.344 132.995 149.097 133.447C148.973 133.674 148.861 133.864 148.783 133.993C148.744 134.057 148.713 134.106 148.694 134.136L148.674 134.168L148.67 134.173L149.367 134.628L148.672 134.17L148.67 134.173L149.367 134.628L148.672 134.17L148.594 134.299L99.2148 222.547C98.6534 223.55 99.012 224.818 100.015 225.379C101.019 225.941 102.287 225.583 102.848 224.579Z" fill="#B4B5B4"/>
<path fill-rule="evenodd" clip-rule="evenodd" d="M76.4646 231.003C76.4646 236.87 72.5609 241.627 67.7449 241.627C62.9301 241.627 59.0264 236.87 59.0264 231.003C59.0264 225.135 62.9301 220.378 67.7449 220.378C72.5609 220.378 76.4646 225.135 76.4646 231.003Z" fill="#1E2428"/>
<path fill-rule="evenodd" clip-rule="evenodd" d="M74.7923 231.003C74.7923 234.953 72.1625 238.157 68.9207 238.157C65.6777 238.157 63.0491 234.953 63.0491 231.003C63.0491 227.052 65.6777 223.848 68.9207 223.848C72.1625 223.848 74.7923 227.052 74.7923 231.003Z" fill="#CBCCCB"/>
<path fill-rule="evenodd" clip-rule="evenodd" d="M134.756 177.69H66.3444C66.3444 177.69 63.3518 178.039 63.3518 182.144L69.9704 200.849C69.9704 200.849 71.7848 205.163 75.0486 205.495H116.215C116.215 205.495 120.883 205.163 122.463 199.854L134.756 177.69Z" fill="#645392"/>
<path fill-rule="evenodd" clip-rule="evenodd" d="M97.6925 205.495H115.339C115.339 205.495 120.43 205.925 122.463 199.853L134.756 177.69H99.4819C99.4819 177.69 94.5048 177.603 94.8372 183.011L97.6925 205.495Z" fill="#4F4173"/>
<path fill-rule="evenodd" clip-rule="evenodd" d="M128.64 223.168L124.46 196.743L120.348 197.393L124.529 223.818" fill="#B4B5B4"/>
<path fill-rule="evenodd" clip-rule="evenodd" d="M136.341 231.003C136.341 236.87 132.436 241.627 127.621 241.627C122.806 241.627 118.902 236.87 118.902 231.003C118.902 225.135 122.806 220.378 127.621 220.378C132.436 220.378 136.341 225.135 136.341 231.003Z" fill="#1E2428"/>
<path fill-rule="evenodd" clip-rule="evenodd" d="M134.668 231.003C134.668 234.953 132.038 238.157 128.796 238.157C125.554 238.157 122.926 234.953 122.926 231.003C122.926 227.052 125.554 223.848 128.796 223.848C132.038 223.848 134.668 227.052 134.668 231.003Z" fill="#CBCCCB"/>
<path fill-rule="evenodd" clip-rule="evenodd" d="M131.966 231.002C131.966 232.721 130.823 234.114 129.412 234.114C128.001 234.114 126.858 232.721 126.858 231.002C126.858 229.284 128.001 227.891 129.412 227.891C130.823 227.891 131.966 229.284 131.966 231.002Z" fill="#8A8B8A"/>
<path fill-rule="evenodd" clip-rule="evenodd" d="M136.276 170.579L122.286 196.066C121.733 197.074 122.101 198.339 123.109 198.892C124.117 199.446 125.382 199.077 125.935 198.069L139.926 172.582C140.479 171.574 140.111 170.309 139.103 169.756C138.095 169.203 136.83 169.571 136.276 170.579Z" fill="#B4B5B4"/>
<path fill-rule="evenodd" clip-rule="evenodd" d="M110.879 231.003C110.879 236.87 106.975 241.627 102.159 241.627C97.3438 241.627 93.4407 236.87 93.4407 231.003C93.4407 225.135 97.3438 220.378 102.159 220.378C106.975 220.378 110.879 225.135 110.879 231.003Z" fill="#1E2428"/>
<path fill-rule="evenodd" clip-rule="evenodd" d="M109.207 231.003C109.207 234.953 106.578 238.157 103.335 238.157C100.092 238.157 97.4634 234.953 97.4634 231.003C97.4634 227.052 100.092 223.848 103.335 223.848C106.578 223.848 109.207 227.052 109.207 231.003Z" fill="#CBCCCB"/>
<path fill-rule="evenodd" clip-rule="evenodd" d="M106.504 231.002C106.504 232.721 105.361 234.114 103.951 234.114C102.54 234.114 101.396 232.721 101.396 231.002C101.396 229.284 102.54 227.891 103.951 227.891C105.361 227.891 106.504 229.284 106.504 231.002Z" fill="#8A8B8A"/>
<path fill-rule="evenodd" clip-rule="evenodd" d="M123.699 196.03H102.419L98.7236 169.386L96.6617 169.673L98.7426 169.633C98.7408 169.554 98.7283 169.047 98.6004 168.299C98.5041 167.738 98.3435 167.04 98.0593 166.283C97.6346 165.152 96.9263 163.854 95.6804 162.802C95.0607 162.28 94.309 161.831 93.4443 161.524C92.5796 161.217 91.609 161.052 90.5552 161.053C90.347 161.053 90.1353 161.059 89.9194 161.072L90.0431 163.15V161.068H67.7449L67.6944 161.069C67.6111 161.071 67.2335 161.084 66.6804 161.185C66.2653 161.261 65.7508 161.388 65.1859 161.611C64.3455 161.945 63.3619 162.508 62.565 163.498C62.1689 163.989 61.8317 164.583 61.6045 165.256C61.3755 165.928 61.2566 166.673 61.2566 167.469C61.2566 167.644 61.2625 167.827 61.275 168.017C61.3523 169.165 62.3449 170.032 63.4915 169.954C64.6387 169.878 65.5058 168.885 65.4291 167.738C65.4226 167.648 65.4202 167.559 65.4202 167.469C65.4267 166.776 65.5784 166.447 65.7437 166.195C65.8728 166.007 66.0381 165.854 66.2516 165.717C66.5668 165.512 66.992 165.369 67.3256 165.301C67.4916 165.266 67.6325 165.247 67.7205 165.238L67.8086 165.231L67.8157 165.23L67.7669 164.062L67.7955 165.231L67.8157 165.23L67.7669 164.062L67.7955 165.231L67.7449 163.15V165.231H90.0431L90.1668 165.228C90.3012 165.219 90.4309 165.216 90.5552 165.216C91.6744 165.224 92.3161 165.494 92.8186 165.846C93.1933 166.116 93.4942 166.463 93.7446 166.874C94.1193 167.485 94.35 168.234 94.463 168.816C94.5207 169.106 94.551 169.353 94.5659 169.515C94.5736 169.596 94.5778 169.656 94.5796 169.691L94.5808 169.722L95.2409 169.699L94.5808 169.712V169.722L95.2409 169.699L94.5808 169.712C94.582 169.799 94.5879 169.872 94.5998 169.959L98.5445 198.398C98.6867 199.425 99.5698 200.194 100.606 200.194H123.699C124.849 200.194 125.781 199.262 125.781 198.112C125.781 196.963 124.849 196.031 123.699 196.031" fill="#B4B5B4"/>
<path fill-rule="evenodd" clip-rule="evenodd" d="M98.5356 198.323L101.675 230.135C101.788 231.282 102.811 232.118 103.957 232.002C105.098 231.886 105.93 230.868 105.818 229.726L102.677 197.901" fill="#B4B5B4"/>
<path fill-rule="evenodd" clip-rule="evenodd" d="M127.621 197.068C127.621 199.707 125.866 201.847 123.699 201.847C121.533 201.847 119.776 199.707 119.776 197.068C119.776 194.429 121.533 192.289 123.699 192.289C125.866 192.289 127.621 194.429 127.621 197.068Z" fill="#D9DAD9"/>
<path fill-rule="evenodd" clip-rule="evenodd" d="M125.817 197.068C125.817 198.216 125.052 199.147 124.11 199.147C123.167 199.147 122.404 198.216 122.404 197.068C122.404 195.92 123.167 194.99 124.11 194.99C125.052 194.99 125.817 195.92 125.817 197.068Z" fill="#B2B3B2"/>
<path fill-rule="evenodd" clip-rule="evenodd" d="M105.319 197.068C105.319 199.707 103.563 201.847 101.396 201.847C99.2302 201.847 97.4746 199.707 97.4746 197.068C97.4746 194.429 99.2302 192.289 101.396 192.289C103.563 192.289 105.319 194.429 105.319 197.068Z" fill="#D9DAD9"/>
<path fill-rule="evenodd" clip-rule="evenodd" d="M103.514 197.068C103.514 198.216 102.75 199.147 101.808 199.147C100.866 199.147 100.102 198.216 100.102 197.068C100.102 195.92 100.866 194.99 101.808 194.99C102.75 194.99 103.514 195.92 103.514 197.068Z" fill="#B2B3B2"/>
</svg>
