<svg width="215" height="174" viewBox="0 0 215 174" fill="none" xmlns="http://www.w3.org/2000/svg">
<g clip-path="url(#clip0_810_3481)">
<path opacity="0.15" d="M197.369 57.7416C210.367 78.5211 221.028 124.379 204.074 151.645C187.119 178.912 141.812 188.718 109.641 137.267C90.5623 106.749 57.6633 136.025 30.1246 128.661C-27.1105 113.338 16.6122 15.2972 78.557 2.67281C142.009 -10.2069 177.28 25.6486 197.369 57.7416Z" fill="white"/>
<path opacity="0.2" d="M147.018 167.088C184.559 167.088 214.991 163.863 214.991 159.886C214.991 155.908 184.559 152.684 147.018 152.684C109.478 152.684 79.0452 155.908 79.0452 159.886C79.0452 163.863 109.478 167.088 147.018 167.088Z" fill="black"/>
<path d="M171.389 34.1104C171.809 31.9598 172.35 29.8341 173.007 27.7429C173.863 25.3849 174.548 22.499 173.007 20.5837C171.466 18.6683 169.539 21.435 169.453 22.6778C169.368 23.9207 169.017 24.7294 166.953 24.5506C166.636 24.474 166.303 24.5142 166.014 24.6638C165.725 24.8134 165.501 25.0622 165.382 25.3639C165.264 25.6657 165.26 25.9998 165.371 26.3043C165.482 26.6088 165.7 26.8628 165.985 27.0193C166.996 27.6067 167.432 30.0498 167.518 33.174C167.604 36.2982 171.389 34.1104 171.389 34.1104Z" fill="#FB818A"/>
<path d="M148.243 22.7715C146.837 23.7334 145.319 24.5223 143.722 25.121C141.658 25.7765 142.489 31.148 144.578 33.0634C146.039 34.3621 147.645 35.4903 149.365 36.4259L154.597 31.8886L148.243 22.7715Z" fill="#FF908D"/>
<path d="M147.977 22.7205C147.977 22.7205 147.19 30.9012 149.099 32.5186C151.009 34.136 153.989 32.4335 153.989 32.4335L151.42 24.772L147.977 22.7205Z" fill="#ED8884"/>
<path d="M169.933 21.0861C168.276 24.1895 166.17 27.0346 163.682 29.5307C159.854 33.1997 157.422 34.766 155.247 33.4636C153.072 32.1611 147.215 28.3559 147.866 21.9373C148.517 15.5188 157.029 10.343 157.029 10.343L169.933 21.0861Z" fill="#FB9195"/>
<path d="M174.745 18.6599C176.124 15.9103 174.617 12.6329 172.442 10.9304C168.168 7.97979 163.607 5.46436 158.827 3.42214C154.742 1.8558 150.812 3.26891 149.955 4.64797C148.22 7.70842 147.059 11.0575 146.53 14.5312C145.999 18.728 146.727 23.3079 147.84 22.7205C148.635 22.4031 149.337 21.8935 149.882 21.2379C150.428 20.5823 150.801 19.8014 150.966 18.9664C151.274 16.7871 153.158 16.3019 153.817 17.4341C154.477 18.5663 154.785 20.405 156.232 18.8812C157.679 17.3575 159.88 14.9909 162.338 16.038C164.795 17.0851 168.177 20.754 169.017 21.5457C169.856 22.3374 171.252 22.1076 172.399 21.2818C173.297 20.5179 174.087 19.6358 174.745 18.6599Z" fill="#602916"/>
<path d="M143.131 63.4539L153.466 79.1003L164.932 79.8834C164.932 79.8834 167.432 76.0868 169.214 66.4589C170.995 56.831 172.639 33.9147 172.639 33.9147L166.508 32.8677C166.508 32.8677 162.492 45.3133 161.173 49.5015C159.854 53.6898 158.544 60.832 157.885 60.832C157.225 60.832 148.988 37.0644 148.988 37.0644L143.131 63.4539Z" fill="#E85552"/>
<path d="M148.722 100.254C146.36 108.134 144.642 116.19 143.585 124.345C141.829 137.795 141.016 151.501 141.016 151.501H152.584L164.727 103.83L162.774 96.781L148.722 100.254Z" fill="#1F2B60"/>
<path d="M95.7687 89.6473C95.1067 91.6047 94.8589 93.6769 95.0408 95.7339C95.3063 99.3348 97.6097 101.497 101.497 101.497H153.209C156.369 101.497 160.06 98.092 160.582 100.773C161.833 108.254 164.516 115.427 168.486 121.902C174.48 131.504 187.324 148.887 188.42 152.114H199.047L177.64 91.5202L170.173 83.0074L109.007 80.2578L95.7687 89.6473Z" fill="#2B3A95"/>
<path d="M169.248 78.7766C171.016 79.0273 172.649 79.8571 173.889 81.1346C175.764 83.1947 178.47 84.761 178.599 87.7746C178.727 90.7881 179.386 93.5717 178.599 93.5717C177.811 93.5717 176.458 93.1801 175.336 91.3158C174.214 89.4516 172.93 85.7145 171.585 85.7145C170.241 85.7145 173.426 88.8557 171.945 89.4771C170.464 90.0985 169.873 88.413 169.376 86.9999C168.88 85.5868 167.929 86.1486 167.501 83.4841C167.073 80.8197 169.248 78.7766 169.248 78.7766Z" fill="#FC9093"/>
<path d="M143.37 25.2742C143.37 25.2742 142.514 25.7764 137.924 25.9722C133.335 26.168 125.671 28.8495 118.495 33.4379C111.387 37.9351 105.753 44.3964 102.285 52.0296C99.1938 59.2314 93.5251 78.6149 93.0627 83.2628C92.6003 87.9108 93.0027 90.2092 96.0341 91.4521C99.0654 92.6949 111.114 91.6479 116.448 89.9453C121.783 88.2428 128.308 83.9864 128.308 83.9864H167.629L169.804 78.5553C169.804 78.5553 158.801 76.1292 152.284 74.7501C148.114 73.8528 144 72.7159 139.962 71.345C139.962 71.345 146.718 59.0356 148.525 54.5154C150.332 49.9951 150.94 41.8144 149.031 35.0723C147.121 28.3302 143.37 25.2742 143.37 25.2742Z" fill="#FA7169"/>
<path d="M128.308 84.012C126.399 84.012 122.562 77.4231 121.638 71.3961C120.874 65.9123 120.754 60.3589 121.278 54.8474C117.853 59.606 116.303 63.258 115.421 70.4768C114.539 77.6956 114.933 86.5658 116.448 89.9709L122.991 87.1021L128.308 84.012Z" fill="#E95554"/>
<path d="M141.863 67.8634L139.962 71.3792L136.383 70.4853L136.82 60.219L141.863 67.8634Z" fill="#E95554"/>
<path d="M189.217 152.114C188.989 153.691 188.858 155.28 188.823 156.873C188.823 158.967 189.568 160.627 191.717 160.627H210.821V158.967C210.821 158.005 203.483 157.485 201.462 155.911C200.031 154.655 198.828 153.164 197.908 151.501L189.217 152.114Z" fill="#1A1B1E"/>
<path d="M141.966 151.331C141.739 152.907 141.607 154.496 141.572 156.089C141.572 158.183 142.317 159.843 144.467 159.843H163.571V158.141C163.571 157.179 156.232 156.651 154.211 155.085C152.782 153.828 151.58 152.336 150.658 150.675L141.966 151.331Z" fill="#1A1B1E"/>
<path d="M148.157 101.344H97.8239C95.8613 101.344 94.2703 102.926 94.2703 104.877V112.913C94.2703 114.864 95.8613 116.446 97.8239 116.446H148.157C150.12 116.446 151.711 114.864 151.711 112.913V104.877C151.711 102.926 150.12 101.344 148.157 101.344Z" fill="#6C88CD"/>
<path d="M102.354 115.705L93.7905 159.843H94.9979L107.089 114.922L102.354 115.705Z" fill="#97AFF3"/>
<path d="M142.403 115.705L150.966 159.843H149.758L137.659 114.922L142.403 115.705Z" fill="#97AFF3"/>
<path d="M94.2703 112.955C94.2758 113.42 94.3736 113.879 94.5579 114.306C94.7422 114.733 95.0095 115.12 95.3443 115.444C95.6792 115.768 96.0751 116.023 96.5094 116.195C96.9437 116.367 97.4079 116.452 97.8753 116.445H148.2C148.667 116.445 149.129 116.354 149.56 116.177C149.991 115.999 150.383 115.739 150.713 115.411C151.043 115.083 151.305 114.693 151.483 114.265C151.662 113.836 151.754 113.377 151.754 112.913V111.38H94.2703V112.955Z" fill="#0C055E"/>
<path d="M48.9033 138.144C48.9033 137.915 48.3211 132.407 50.4019 128.414C50.9585 127.333 51.4637 126.473 51.909 125.724C53.0992 123.715 53.7586 122.609 53.7072 120.293H54.5635C54.6149 122.847 53.8356 124.166 52.6539 126.158C52.2087 126.908 51.712 127.75 51.1554 128.806C49.2031 132.577 49.7511 138.008 49.7511 138.068L48.9033 138.144Z" fill="#2F41BA"/>
<path d="M48.1241 112.257C47.9442 108.673 50.693 106.188 54.4436 104.315C53.7842 108.282 53.3475 113.739 55.0601 113.679C56.7727 113.619 57.2094 107.303 56.5929 103.813C59.5814 101.37 62.587 100.186 67.6648 99.318C65.0274 102.289 63.0922 107.746 65.1559 107.831C67.2196 107.916 72.9739 98.6625 72.9739 98.6625C72.9739 98.6625 79.6531 97.4792 81.9822 100.935C82.8788 102.333 83.295 103.983 83.1684 105.636C83.0418 107.289 82.3792 108.857 81.28 110.104C75.5257 109.354 71.3555 110.231 71.4839 111.806C71.6124 113.381 77.1013 114.207 80.5693 113.9C79.516 117.867 76.3563 121.017 73.2394 121.562C70.1224 122.107 68.4441 120.166 65.6611 118.727C62.8781 117.288 58.9648 117.722 59.059 119.033C59.1532 120.344 61.4738 120.736 64.3253 120.736C67.1768 120.736 70.8674 123.179 70.739 124.448C70.6105 125.716 66.6544 126.584 61.7821 126.32C56.9097 126.056 53.1249 122.915 52.3627 119.731C51.6006 116.548 48.3895 117.586 48.1241 112.257Z" fill="#4274BC"/>
<path d="M45.0158 138.11H44.1595C44.1595 138.017 44.3821 128.806 42.8751 126.056L42.5839 125.537C41.0083 122.66 39.0388 119.084 38.9104 116.752C38.7819 114.419 38.6963 110.597 38.6877 110.563H39.544C39.544 110.606 39.6382 114.385 39.7667 116.726C39.8866 118.872 41.7961 122.353 43.3375 125.154L43.62 125.673C45.2384 128.585 45.0244 137.727 45.0158 138.11Z" fill="#2F41BA"/>
<path d="M35.1254 127.359C35.4679 125.205 37.6086 122.83 37.3175 120.293C37.1651 119.466 36.8499 118.677 36.3899 117.972C35.93 117.266 35.3344 116.658 34.6373 116.182L30.6041 118.191C30.6041 118.191 32.6678 123.349 31.2121 123.434C29.7564 123.52 29.4138 118.804 29.4138 118.804C29.4138 118.804 23.4882 114.479 19.2239 114.266C14.9595 114.053 16.0213 115.441 17.5626 116.318C19.104 117.195 20.6282 120.77 18.5645 121.289C16.5008 121.809 16.1497 118.497 15.1393 117.671C14.523 117.143 14.0541 116.466 13.7778 115.705C13.7778 115.705 5.7885 116.948 5.96832 122.047C6.14815 127.146 9.6761 128.278 9.6761 128.278C9.6761 128.278 16.7834 124.652 17.9737 126.227C19.1639 127.802 11.9796 130.764 11.9796 130.764C13.0362 132.246 14.5712 133.325 16.3296 133.82C19.3181 134.671 20.9878 134.084 20.9878 134.084C22.304 132.84 23.5207 131.497 24.6271 130.066C24.9979 129.433 25.5412 128.917 26.1942 128.578C26.8473 128.24 27.5835 128.091 28.3178 128.151C30.0304 128.193 30.0304 129.717 27.7012 130.704C25.399 131.636 23.4802 133.313 22.2552 135.463C24.9782 137.276 29.3282 135.293 30.6041 134.373C31.8355 133.613 32.8805 132.588 33.6627 131.374C34.4449 130.161 34.9447 128.789 35.1254 127.359Z" fill="#2F41BA"/>
<path d="M41.6506 137.991C41.6506 137.991 40.8456 135.293 33.824 128.848L34.4063 128.227C41.7019 134.918 42.4469 137.668 42.4812 137.778L41.6506 137.991Z" fill="#2F41BA"/>
<path d="M18.5647 137.25C18.6776 142.907 21.0174 148.295 25.0817 152.256C29.1459 156.217 34.6104 158.435 40.3019 158.435C45.9934 158.435 51.4579 156.217 55.5221 152.256C59.5864 148.295 61.9261 142.907 62.0391 137.25H18.5647Z" fill="#6C89CE"/>
<path d="M21.2877 157.179H59.316C60.0382 157.179 60.7309 157.464 61.2415 157.972C61.7522 158.479 62.0391 159.168 62.0391 159.886H18.5647C18.5647 159.168 18.8516 158.479 19.3623 157.972C19.8729 157.464 20.5655 157.179 21.2877 157.179Z" fill="#6A8ACF"/>
<path d="M38.9017 114.573C39.758 111.925 46.7197 109.55 46.891 104.051C47.0622 98.5518 42.0186 94.4062 38.0625 92.5674C39.5182 98.8583 39.3812 105.336 37.2062 105.268C35.0312 105.2 35.1853 95.5809 35.408 91.8268C29.8249 87.1959 22.6748 86.5915 20.1658 86.5404C22.9317 90.1668 26.4511 97.9815 24.5587 98.2454C22.6662 98.5093 14.6341 87.4598 13.9748 85.4082C10.3269 84.3186 2.73155 85.4082 1.01894 88.8133C-0.693657 92.2184 -0.445331 99.335 3.02269 100.91C7.19287 100.34 15.6702 100.382 15.362 102.868C15.0537 105.354 4.03312 105.617 4.03312 105.617C4.03312 105.617 5.78854 111.168 8.94829 113.611C10.6082 114.967 12.4991 116.016 14.5314 116.709C16.8083 115.849 18.987 114.75 21.0307 113.432C23.2656 111.781 25.1581 111.295 28.275 111.168C31.3919 111.04 33.2758 113.432 30.0732 113.875C26.8707 114.317 22.298 114.088 20.0203 115.884C17.7425 117.68 16.107 118.846 16.107 118.846C16.107 118.846 17.1602 121.86 24.2761 122.038C31.3919 122.217 37.1891 119.638 38.9017 114.573Z" fill="#4274BC"/>
</g>
<defs>
<clipPath id="clip0_810_3481">
<rect width="215" height="174" fill="white"/>
</clipPath>
</defs>
</svg>
