<svg width="249" height="246" viewBox="0 0 249 246" fill="none" xmlns="http://www.w3.org/2000/svg">
<path fill-rule="evenodd" clip-rule="evenodd" d="M25.9074 182.913C2.13322 139.934 -25.3906 58.6243 49.431 11.6409C124.253 -35.3424 156.128 85.0422 190.049 82.9089C238.669 79.851 256.91 111.219 245.593 145.26C234.9 177.431 213.754 209.884 181.878 224.106C158.114 234.708 131.577 238.931 106.596 235.793C73.7207 231.663 43.5369 214.783 25.9074 182.913Z" fill="white" fill-opacity="0.15"/>
<path fill-rule="evenodd" clip-rule="evenodd" d="M46.2821 198.821C48.5272 199.446 50.2728 202.106 51.0114 205.097C51.7491 208.087 51.619 211.359 51.2026 214.465C50.3278 221.006 48.2069 227.22 45.112 232.32C43.3884 235.158 40.5428 237.825 38.2117 235.988C36.386 234.548 36.0297 231.172 35.9966 228.27C35.9366 222.968 36.2759 217.657 37.0096 212.451C37.49 209.035 38.1746 205.563 39.7111 202.803C41.2465 200.044 43.8098 198.13 46.2821 198.821Z" fill="#C3DEF1"/>
<path fill-rule="evenodd" clip-rule="evenodd" d="M16.2203 234.976C22.4998 236.454 29.2966 236.685 35.7296 235.637C32.083 231.539 27.037 228.145 21.2027 225.868C19.0123 225.012 16.6296 224.3 14.1584 224.343C11.6886 224.387 9.11792 225.339 8.12917 227.033C7.12107 228.762 7.99227 230.861 9.70425 232.244C11.4148 233.627 13.8183 234.41 16.2203 234.976Z" fill="#C3DEF1"/>
<path fill-rule="evenodd" clip-rule="evenodd" d="M27.6704 195.452C31.1212 208.87 34.573 222.286 38.0238 235.702C35.4122 237.512 32.4202 234.49 30.4732 231.564C22.1504 219.058 16.1559 203.88 13.0793 187.736C11.7301 180.652 18.5021 175.717 22.2319 181.109C22.2591 181.148 22.2863 181.188 22.3134 181.228C25.0065 185.201 26.3714 190.402 27.6704 195.452Z" fill="#C3DEF1"/>
<path fill-rule="evenodd" clip-rule="evenodd" d="M227.134 238.217C227.134 242.258 181.613 245.535 125.46 245.535C69.3067 245.535 23.7852 242.258 23.7852 238.217C23.7852 234.175 69.3067 230.898 125.46 230.898C181.613 230.898 227.134 234.175 227.134 238.217Z" fill="#5D9FE1"/>
<path fill-rule="evenodd" clip-rule="evenodd" d="M194.502 184.06H205.408V114.047H194.502V184.06Z" fill="#9C5139"/>
<path fill-rule="evenodd" clip-rule="evenodd" d="M48.0883 184.06H58.9935V114.047H48.0883V184.06Z" fill="#9C5139"/>
<path fill-rule="evenodd" clip-rule="evenodd" d="M226.489 158.536C225.826 155.463 27.6717 155.463 27.0065 158.536C26.257 162.008 25.7564 169.25 27.0065 172.746C28.1128 175.838 225.383 175.838 226.489 172.746C227.739 169.25 227.239 162.008 226.489 158.536Z" fill="#BD6245"/>
<path fill-rule="evenodd" clip-rule="evenodd" d="M226.489 181.245C225.826 178.172 27.6717 178.172 27.0065 181.245C26.257 184.718 25.7564 191.959 27.0065 195.456C28.1128 198.547 225.383 198.547 226.489 195.456C227.739 191.959 227.239 184.718 226.489 181.245Z" fill="#9C5139"/>
<path fill-rule="evenodd" clip-rule="evenodd" d="M226.489 136.424C225.826 133.351 27.6717 133.351 27.0065 136.424C26.257 139.897 25.7564 147.138 27.0065 150.635C28.1128 153.726 225.383 153.726 226.489 150.635C227.739 147.138 227.239 139.897 226.489 136.424Z" fill="#BD6245"/>
<path fill-rule="evenodd" clip-rule="evenodd" d="M226.489 114.313C225.826 111.238 27.6717 111.238 27.0065 114.313C26.257 117.785 25.7564 125.027 27.0065 128.523C28.1128 131.615 225.383 131.615 226.489 128.523C227.739 125.027 227.239 117.785 226.489 114.313Z" fill="#BD6245"/>
<path fill-rule="evenodd" clip-rule="evenodd" d="M204.065 237.124H214.218V190.315H204.065V237.124Z" fill="#9C5139"/>
<path fill-rule="evenodd" clip-rule="evenodd" d="M39.2781 237.124H49.431V190.315H39.2781V237.124Z" fill="#9C5139"/>
<path fill-rule="evenodd" clip-rule="evenodd" d="M50.829 177.064C56.5305 180.686 59.7111 180.64 64.4211 180.298C68.0635 180.033 68.43 180.017 71.4087 177.907C74.386 175.796 75.9887 171.657 74.5879 168.29C74.0804 167.068 73.2299 166.013 72.2785 165.092C66.8674 159.857 57.8567 159.075 51.3434 162.859C49.8831 163.706 48.5653 161.145 48.0882 162.765C47.2778 165.52 46.2808 174.176 50.829 177.064Z" fill="#CC6A45"/>
<path fill-rule="evenodd" clip-rule="evenodd" d="M184.455 164.111L142.525 165.235L116.796 165.925C117.473 150.963 125.095 142.895 121.898 129.63L105.222 133.601L101.067 117.758C101.067 117.758 114.264 105.885 128.279 104.109L136.604 106.702L142.998 104.225L146.373 102.348C146.373 102.348 164.033 99.3742 170.146 103.28C176.258 107.199 186.182 127.906 184.186 135.451L165.184 128.392C165.184 128.392 166.718 132.209 168.714 136.243C169.915 138.655 171.284 141.145 172.601 142.946C173.227 143.826 173.854 144.528 174.443 144.988C178.24 147.949 186.526 160.32 184.455 164.111Z" fill="#E38966"/>
<path fill-rule="evenodd" clip-rule="evenodd" d="M116.796 165.925C117.473 150.962 125.095 142.894 121.898 129.63C126.527 131.608 129.904 136.243 130.401 141.247C130.772 145.153 129.519 149.021 129.226 152.928C128.931 156.848 129.98 161.366 133.433 163.23C135.709 164.456 138.47 164.227 141.002 164.75C141.514 164.852 142.026 165.018 142.525 165.234L116.796 165.925Z" fill="#CC6A45"/>
<path fill-rule="evenodd" clip-rule="evenodd" d="M172.601 142.946C167.972 142.574 160.26 139.664 155.785 137.89C149.571 135.426 144.839 131.633 145.094 124.969C153.483 127.472 161.488 131.29 168.714 136.243C169.915 138.655 171.284 141.145 172.601 142.946Z" fill="#CC6A45"/>
<path fill-rule="evenodd" clip-rule="evenodd" d="M181.942 131.259C170.02 129.426 158.536 124.819 148.657 117.911C149.958 115.176 153.52 114.21 156.499 114.771C159.479 115.333 162.091 117.037 164.803 118.39C168.118 120.042 171.676 121.205 174.876 123.068C178.077 124.931 180.999 127.682 181.942 131.259Z" fill="#CC6A45"/>
<path fill-rule="evenodd" clip-rule="evenodd" d="M168.387 226.622C168.387 226.622 158.779 233.979 160.303 236.57C160.779 237.378 173.512 238.039 174.028 235.233C174.542 232.426 173.323 227.664 173.323 227.664L168.387 226.622Z" fill="#E38966"/>
<path fill-rule="evenodd" clip-rule="evenodd" d="M123.478 226.622C123.478 226.622 113.868 233.979 115.393 236.57C115.868 237.378 128.602 238.039 129.117 235.233C129.633 232.426 128.412 227.664 128.412 227.664L123.478 226.622Z" fill="#E38966"/>
<path fill-rule="evenodd" clip-rule="evenodd" d="M171.489 162.643L160.145 181.499C159.506 181.307 158.88 181.129 158.24 180.963C155.376 180.222 152.498 179.788 149.788 179.584C142.576 178.997 136.514 179.839 134.8 180.107C134.481 180.171 134.315 180.197 134.315 180.197C133.074 192.517 133.688 192.554 136.348 204.644C137.537 210.069 139.111 215.776 137.435 221.075C135.824 226.182 131.028 230.151 125.696 230.751C120.363 231.352 114.788 228.517 112.18 223.832C110.082 220.078 109.891 215.611 109.737 211.308C109.34 199.512 108.944 200.048 108.534 188.24C108.292 180.951 108.714 173.443 110.875 166.55C113.049 159.605 119.493 154.614 126.782 154.945C127.486 154.97 128.189 155.047 128.88 155.188C129.276 155.264 129.66 155.354 130.043 155.468C145.452 159.094 166.45 155.902 166.45 155.902L167.588 157.422L171.489 162.643Z" fill="#272F5D"/>
<path fill-rule="evenodd" clip-rule="evenodd" d="M162.204 172.141C161.259 175.205 160.184 178.46 158.24 180.963C155.376 180.222 152.498 179.788 149.788 179.584C142.576 178.997 136.514 179.839 134.8 180.107C134.737 180.056 134.686 180.005 134.634 179.954C131.949 177.299 130.262 173.545 130.491 169.779C130.555 168.733 130.823 167.609 131.668 166.996C132.755 166.217 134.264 166.614 135.555 166.959C143.649 169.103 152.69 167.316 159.353 162.261C161.335 162.4 162.792 164.341 163.087 166.307C163.394 168.261 162.792 170.239 162.204 172.141Z" fill="#1F274E"/>
<path fill-rule="evenodd" clip-rule="evenodd" d="M171.489 162.643L160.145 181.499C156.655 180.426 153.1 179.839 149.788 179.584C150.133 175.983 150.772 172.435 151.834 169.027C154.008 162.132 160.364 157.167 167.588 157.422L171.489 162.643Z" fill="#1F274E"/>
<path fill-rule="evenodd" clip-rule="evenodd" d="M71.0007 226.477C71.0007 226.477 61.3913 233.834 62.9165 236.425C63.3909 237.233 76.1256 237.896 76.64 235.089C77.1558 232.282 75.9362 227.519 75.9362 227.519L71.0007 226.477Z" fill="#FAD46F"/>
<path fill-rule="evenodd" clip-rule="evenodd" d="M103.83 156.046C107.291 158.134 110.499 161.341 110.866 165.363C111.321 170.358 107.273 174.666 102.932 177.19C98.5916 179.715 93.6147 181.261 89.8672 184.601C86.0892 187.968 83.9458 192.888 83.1908 197.887C82.4343 202.888 82.9626 207.994 83.8421 212.974C84.4685 216.519 85.2346 220.358 83.6001 223.568C82.1578 226.402 79.0436 228.113 75.8893 228.553C72.7363 228.994 69.5323 228.328 66.4817 227.414C63.3661 226.483 60.1274 225.131 58.3477 222.413C56.4463 219.509 56.6523 215.763 56.9275 212.304C57.5456 204.526 58.1652 196.748 58.7833 188.97C59.353 181.812 59.9739 174.459 63.1324 168.008C66.6241 160.875 73.2134 155.319 80.8413 153.077C88.4705 150.835 97.0235 151.94 103.83 156.046Z" fill="#CC6A45"/>
<path fill-rule="evenodd" clip-rule="evenodd" d="M56.1656 114.062L51.1693 112.14C50.4654 111.738 43.8291 113.345 43.807 114.349C43.7848 115.353 49.2582 115.3 49.2582 115.3C49.2582 115.3 44.432 115.452 43.8471 116.255C43.2607 117.059 49.3591 117.661 49.3591 117.661C49.3591 117.661 44.1305 117.56 43.8374 118.564C43.5442 119.567 49.1586 119.969 49.1586 119.969C49.1586 119.969 44.1305 120.07 43.8471 121.074C43.5622 122.077 49.9524 121.976 49.9524 121.976L52.0709 123.784C52.5604 124.274 53.4634 124.79 54.6209 125.287L56.1656 114.062Z" fill="#EC9F75"/>
<path fill-rule="evenodd" clip-rule="evenodd" d="M76.0123 101.888C73.2563 102.272 70.2665 101.997 67.9544 100.276C65.6409 98.554 64.2981 95.0943 65.4915 92.4161C66.0226 91.2274 66.9919 90.2555 67.2298 88.9578C67.6045 86.909 66.0295 84.7388 66.6656 82.7715C67.3072 80.7932 69.7922 80.2217 70.6952 78.3704C71.2097 77.317 71.1377 75.9751 71.7794 75.0073C72.3796 74.1017 73.4526 73.7414 74.4525 73.4363C76.8199 72.7101 79.1887 71.9839 81.5576 71.2591C82.8948 70.8491 84.2542 70.4363 85.6508 70.457C87.0213 70.4764 88.653 71.3254 89.8132 72.1344C91.4561 71.2233 93.6991 71.7686 94.8607 73.3617C95.8024 73.0898 97.1797 74.2729 97.6527 75.2061C98.1256 76.1394 98.1892 77.2328 98.2418 78.2861C98.2943 79.3395 98.3579 80.4329 98.8322 81.3661C99.8321 83.3348 102.425 84.1424 102.967 86.3002C103.491 88.3904 101.743 90.319 101.623 92.4658C101.514 94.393 102.728 96.3713 102.128 98.1812C101.677 99.5411 100.34 100.296 99.048 100.702C97.7564 101.108 96.3694 101.308 95.2506 102.099C94.3794 102.716 93.7074 103.67 92.7242 104.054C91.3745 104.579 89.8893 103.886 88.5313 103.324C84.7644 101.764 80.6753 101.154 76.6913 101.557L76.0123 101.888Z" fill="#F6F6F6"/>
<path fill-rule="evenodd" clip-rule="evenodd" d="M110.708 162.349C111.003 163.767 111.169 164.801 111.144 165.286C111.003 168.529 48.5998 168.248 48.5349 165.286C48.4712 162.567 54.4563 136.944 56.6813 134.341L54.3152 133.677L45.1469 131.085C45.1469 131.085 54.6485 101.851 71.9619 104.787L80.8246 110.25L85.0575 109.267L91.3606 104.608C91.3606 104.608 103.804 104.761 108.458 112.498C113.113 120.247 115.223 131.787 115.223 131.787L103.1 133.613C103.1 133.613 109.034 154.218 110.708 162.349Z" fill="#FAD46F"/>
<path fill-rule="evenodd" clip-rule="evenodd" d="M111.144 165.286C111.003 168.529 48.5999 168.248 48.5349 165.286C48.4713 162.567 54.4563 136.944 56.6813 134.341L54.3153 133.677C56.6938 127.818 60.5298 123.502 61.9113 119.493C61.7329 123.629 60.032 129.246 59.4056 133.805C59.0723 136.243 58.8428 138.949 60.2878 140.954C61.7703 143.009 64.5844 143.647 67.1164 143.481C69.6484 143.328 72.103 142.537 74.635 142.384C79.0726 142.128 83.5738 143.992 86.54 147.286C89.2255 150.26 90.5807 154.179 92.6149 157.626C94.6477 161.086 97.896 164.354 101.91 164.417C104.469 164.456 106.835 163.193 109.316 162.58C109.762 162.465 110.235 162.388 110.708 162.349C111.003 163.767 111.169 164.801 111.144 165.286Z" fill="#EEC149"/>
<path fill-rule="evenodd" clip-rule="evenodd" d="M84.4505 148.787H76.4521L74.0833 127.002H86.8194L84.4505 148.787Z" fill="#ED875F"/>
<path fill-rule="evenodd" clip-rule="evenodd" d="M103.102 133.617L99.5568 119.493L105.139 133.309L103.102 133.617Z" fill="#EEC149"/>
<path fill-rule="evenodd" clip-rule="evenodd" d="M56.68 134.339L61.9072 119.493L54.123 133.617L56.68 134.339Z" fill="#EEC149"/>
<path fill-rule="evenodd" clip-rule="evenodd" d="M94.6891 197.948C94.6891 197.948 106.901 199.167 105.02 201.514C103.141 203.862 93.6769 209.492 91.9234 207.24C90.1686 204.987 89.0485 200.201 89.0485 200.201L94.6891 197.948Z" fill="#FAD46F"/>
<path fill-rule="evenodd" clip-rule="evenodd" d="M91.3606 104.608C91.3606 104.608 91.2846 114.641 81.6682 114.03C72.0518 113.429 71.9619 104.787 71.9619 104.787H74.9931L75.9515 99.1697L77.5127 90.105L82.8823 90.5136L86.8221 97.3432V104.608H91.3606Z" fill="#F0B389"/>
<path fill-rule="evenodd" clip-rule="evenodd" d="M86.8221 97.3432V102.731C82.2559 103.561 78.4834 101.391 75.9514 99.1697L77.5127 90.105L82.8823 90.5136L86.8221 97.3432Z" fill="#EC9F75"/>
<path fill-rule="evenodd" clip-rule="evenodd" d="M93.4654 80.346C93.1584 80.901 92.6536 81.1868 92.1226 81.4684C91.008 82.0593 90.1589 80.9659 88.9158 80.7837C87.6726 80.6014 86.3229 80.4731 85.2678 81.1771C84.0025 82.022 83.4078 83.9175 81.9683 84.3427C81.3488 84.5263 80.6864 84.3897 80.0406 84.4104C79.3962 84.4297 78.6785 84.6824 78.4323 85.3284C78.583 85.8323 78.0078 86.252 77.5431 86.3735C77.0785 86.495 76.5862 86.31 76.1534 86.0684C75.7219 85.8268 75.3084 85.5245 74.8424 85.3878C73.8066 85.0813 72.6561 85.7302 72.2177 86.7808C71.7808 87.8314 72.038 89.1691 72.7667 90.0403C73.4955 90.9114 74.6336 91.3131 75.6873 91.1723C75.6873 91.1723 83.1354 105.528 93.4654 100.254C98.472 96.5088 96.6043 85.3878 95.2727 80.4565C94.9243 79.7138 93.8622 79.6282 93.4654 80.346Z" fill="#F0B389"/>
<path fill-rule="evenodd" clip-rule="evenodd" d="M45.1497 131.084C45.1497 131.084 40.5932 142.67 47.0276 146.886C53.462 151.102 69.1533 147.388 71.9661 144.577L74.0832 142.77C74.0832 142.77 80.4734 142.871 80.1899 141.867C79.9051 140.864 74.8784 140.763 74.8784 140.763C74.8784 140.763 80.4914 140.361 80.1982 139.358C79.9051 138.354 74.6765 138.455 74.6765 138.455C74.6765 138.455 80.7749 137.853 80.1899 137.049C79.6036 136.246 74.7774 136.094 74.7774 136.094C74.7774 136.094 80.2508 136.146 80.2286 135.143C80.2065 134.138 73.5716 132.532 72.8677 132.934C72.1638 133.336 68.9459 137.15 68.1411 137.35C67.3376 137.55 55.7935 137.412 55.7935 137.412L56.6799 134.339L45.1497 131.084Z" fill="#F0B389"/>
<path fill-rule="evenodd" clip-rule="evenodd" d="M115.229 131.787C115.229 131.787 119.785 142.669 113.351 146.886C106.916 151.102 91.225 147.388 88.4137 144.577L86.2951 142.77C86.2951 142.77 79.905 142.871 80.1898 141.867C80.4733 140.864 85.5 140.763 85.5 140.763C85.5 140.763 79.887 140.361 80.1801 139.358C80.4733 138.354 85.7019 138.455 85.7019 138.455C85.7019 138.455 79.6035 137.853 80.1898 137.049C80.7748 136.246 85.601 136.094 85.601 136.094C85.601 136.094 80.1276 136.146 80.1497 135.143C80.1719 134.138 86.8082 132.532 87.5121 132.934C88.2146 133.336 91.4325 137.15 92.2373 137.35C93.0407 137.55 104.586 137.412 104.586 137.412L103.102 133.617L115.229 131.787Z" fill="#F0B389"/>
<path fill-rule="evenodd" clip-rule="evenodd" d="M87.5882 165.734C89.2421 171.134 92.9828 175.604 95.7803 180.51C98.5778 185.417 100.439 191.531 98.026 196.638C95.3931 202.211 88.0432 204.588 82.1978 202.606C76.3539 200.625 72.1832 195.097 70.6565 189.126C69.972 186.449 69.748 183.665 68.9694 181.014C68.1895 178.362 66.7264 175.743 64.2912 174.429C60.5215 172.395 55.5474 174.005 51.8026 171.925C47.7619 169.677 46.9792 163.817 49.0604 159.693C51.1416 155.569 55.2612 152.891 59.3835 150.798C63.2914 148.813 67.4856 147.148 71.8693 147.018C76.2529 146.888 80.8786 148.522 83.4604 152.06C86.2897 155.936 86.1832 161.148 87.5882 165.734Z" fill="#E38966"/>
<path fill-rule="evenodd" clip-rule="evenodd" d="M146.374 102.348C146.374 102.348 145.133 112.318 137.498 112.817C129.865 113.327 128.279 104.109 128.279 104.109L131.464 103.931V96.8837L138.202 90.0803L140.951 98.3526L142.282 102.348H146.374Z" fill="#F0B389"/>
<path fill-rule="evenodd" clip-rule="evenodd" d="M140.951 98.3526C139.698 100.445 137.461 102.464 133.547 102.948C132.819 103.038 132.129 103.063 131.464 103.038V96.8837L138.202 90.0803L140.951 98.3526Z" fill="#EC9F75"/>
<path fill-rule="evenodd" clip-rule="evenodd" d="M126.816 73.0069C122.669 73.2913 118.794 75.702 117.475 78.6022C116.813 80.058 116.162 85.3255 116.932 85.3725C117.701 85.418 118.455 85.1709 119.202 84.979C122.594 84.1093 126.268 84.3729 129.501 85.7176C132.736 87.0623 135.825 89.7309 137.596 92.7487C139.278 93.1574 141.113 92.4519 142.3 91.1929C143.485 89.9338 144.071 88.1971 144.187 86.4728C144.465 82.3325 142.111 78.2723 138.699 75.9047C135.286 73.537 130.962 72.7225 126.816 73.0069Z" fill="#F6F6F6"/>
<path fill-rule="evenodd" clip-rule="evenodd" d="M135.769 84.3998C136.132 84.8706 136.383 85.282 136.914 85.5526C137.664 85.9323 138.086 85.737 138.74 85.2082C139.535 84.5649 140.816 84.4931 141.738 85.044C142.943 85.7646 143.355 87.5027 142.678 88.7314C142.004 89.9601 140.401 90.5551 139.054 90.1575C139.054 90.1575 136.617 99.0604 129.977 100.162C123.337 101.264 117.693 92.8649 117.693 82.9088C122.235 78.6139 127.096 77.5358 133.816 79.851C133.816 79.851 135.041 83.4583 135.769 84.3998Z" fill="#F0B389"/>
<path fill-rule="evenodd" clip-rule="evenodd" d="M142.666 123.869L136.139 124.011L133.816 106.275L144.209 106.048L142.666 123.869Z" fill="white"/>
<path fill-rule="evenodd" clip-rule="evenodd" d="M151.37 117.613C149.341 116.942 147.64 116.355 147.377 116.189C146.676 115.747 144.812 111.121 144.27 110.521C143.727 109.92 136.92 109.378 136.586 110.323C136.25 111.27 141.466 112.927 141.466 112.927C141.466 112.927 136.834 111.567 136.027 112.148C135.219 112.728 140.824 115.201 140.824 115.201C140.824 115.201 135.889 113.476 135.295 114.338C134.703 115.201 139.91 117.331 139.91 117.331C139.91 117.331 135.103 115.859 134.52 116.725C133.936 117.59 140.037 119.486 140.037 119.486L141.485 121.863C142.197 123.271 144.797 125.449 148.137 127.437L151.37 117.613Z" fill="#F0B389"/>
<path fill-rule="evenodd" clip-rule="evenodd" d="M149.755 131.504C146.862 129.516 145.635 125.828 146.84 122.534C147.962 119.465 149.997 116.353 153.621 116.438C160.728 116.602 164.528 121.228 169.155 122.957C173.782 124.686 184.358 128.233 184.192 135.451C184.192 135.451 180.887 146.958 167.668 141.348C159.901 138.053 153.617 134.157 149.755 131.504Z" fill="#E38966"/>
<path fill-rule="evenodd" clip-rule="evenodd" d="M156.528 166.553C158.704 159.6 165.149 154.613 172.439 154.94C173.137 154.972 173.837 155.05 174.533 155.184C179.861 156.204 184.379 160.607 185.529 165.899C186.68 171.192 184.397 177.067 179.971 180.201C178.723 192.511 179.338 192.551 181.994 204.638C183.188 210.069 184.763 215.772 183.087 221.074C181.472 226.183 176.682 230.153 171.348 230.751C166.014 231.349 160.44 228.516 157.826 223.836C155.731 220.085 155.536 215.605 155.391 211.313C154.991 199.514 154.592 200.046 154.191 188.246C153.945 180.951 154.371 173.447 156.528 166.553Z" fill="#272F5D"/>
</svg>
